<?xml version="1.0" encoding="UTF-8"?>
<svg xmlns="http://www.w3.org/2000/svg"
     xmlns:xlink="http://www.w3.org/1999/xlink"
     xmlns:gadfly="http://www.gadflyjl.org/ns"
     version="1.2"
     width="340mm" height="90mm" viewBox="0 0 340 90"
     stroke="none"
     fill="#000000"
     stroke-width="0.3"
     font-size="3.88"
>
<defs>
  <marker id="arrow" markerWidth="15" markerHeight="7" refX="5" refY="3.5" orient="auto" markerUnits="strokeWidth">
    <path d="M0,0 L15,3.5 L0,7 z" stroke="context-stroke" fill="context-stroke"/>
  </marker>
</defs>
<g stroke="#000000" id="img-51ab2377-1">
  <g transform="translate(230,10)">
    <path fill="none" d="M-5.6,0 L 5.6 0" class="primitive"/>
  </g>
  <g transform="translate(230,50)">
    <path fill="none" d="M-5.6,0 L 5.6 0" class="primitive"/>
  </g>
  <g transform="translate(230,30)">
    <path fill="none" d="M-5.6,0 L 5.6 0" class="primitive"/>
  </g>
  <g transform="translate(30,10)">
    <path fill="none" d="M-5.6,0 L 5.6 0" class="primitive"/>
  </g>
  <g transform="translate(250,77.5)">
    <path fill="none" d="M-6.06,1.52 L 6.06 -1.52" class="primitive"/>
  </g>
  <g transform="translate(220,47.5)">
    <path fill="none" d="M-18.71,-30.4 L 18.71 30.4" class="primitive"/>
  </g>
  <g transform="translate(210,42.5)">
    <path fill="none" d="M-9.21,-25.34 L 9.21 25.34" class="primitive"/>
  </g>
  <g transform="translate(190,15)">
    <path fill="none" d="M-5.6,0 L 5.6 0" class="primitive"/>
  </g>
  <g transform="translate(170,15)">
    <path fill="none" d="M-5.6,0 L 5.6 0" class="primitive"/>
  </g>
  <g transform="translate(150,17.5)">
    <path fill="none" d="M-6.06,1.52 L 6.06 -1.52" class="primitive"/>
  </g>
  <g transform="translate(120,17.5)">
    <path fill="none" d="M-15.73,-1.97 L 15.73 1.97" class="primitive"/>
  </g>
  <g transform="translate(110,12.5)">
    <path fill="none" d="M-6.06,1.52 L 6.06 -1.52" class="primitive"/>
  </g>
  <g transform="translate(90,15)">
    <path fill="none" d="M-5.6,0 L 5.6 0" class="primitive"/>
  </g>
  <g transform="translate(70,15)">
    <path fill="none" d="M-5.6,0 L 5.6 0" class="primitive"/>
  </g>
  <g transform="translate(310,77.5)">
    <path fill="none" d="M-6.06,-1.52 L 6.06 1.52" class="primitive"/>
  </g>
  <g transform="translate(310,50)">
    <path fill="none" d="M-9.14,22.84 L 9.14 -22.84" class="primitive"/>
  </g>
  <g transform="translate(290,75)">
    <path fill="none" d="M-5.6,0 L 5.6 0" class="primitive"/>
  </g>
  <g transform="translate(270,75)">
    <path fill="none" d="M-5.6,0 L 5.6 0" class="primitive"/>
  </g>
  <g transform="translate(310,62.5)">
    <path fill="none" d="M-7.56,-5.67 L 7.56 5.67" class="primitive"/>
  </g>
  <g transform="translate(310,40)">
    <path fill="none" d="M-8.61,12.91 L 8.61 -12.91" class="primitive"/>
  </g>
  <g transform="translate(290,55)">
    <path fill="none" d="M-5.6,0 L 5.6 0" class="primitive"/>
  </g>
  <g transform="translate(270,55)">
    <path fill="none" d="M-5.6,0 L 5.6 0" class="primitive"/>
  </g>
  <g transform="translate(310,47.5)">
    <path fill="none" d="M-8.37,-10.46 L 8.37 10.46" class="primitive"/>
  </g>
  <g transform="translate(310,30)">
    <path fill="none" d="M-6.89,3.44 L 6.89 -3.44" class="primitive"/>
  </g>
  <g transform="translate(290,35)">
    <path fill="none" d="M-5.6,0 L 5.6 0" class="primitive"/>
  </g>
  <g transform="translate(270,35)">
    <path fill="none" d="M-5.6,0 L 5.6 0" class="primitive"/>
  </g>
  <g transform="translate(310,32.5)">
    <path fill="none" d="M-8.79,-15.38 L 8.79 15.38" class="primitive"/>
  </g>
  <g transform="translate(310,20)">
    <path fill="none" d="M-6.89,-3.44 L 6.89 3.44" class="primitive"/>
  </g>
  <g transform="translate(290,15)">
    <path fill="none" d="M-5.6,0 L 5.6 0" class="primitive"/>
  </g>
  <g transform="translate(270,15)">
    <path fill="none" d="M-5.6,0 L 5.6 0" class="primitive"/>
  </g>
  <g transform="translate(50,17.5)">
    <path fill="none" d="M-6.06,1.52 L 6.06 -1.52" class="primitive"/>
  </g>
  <g transform="translate(30,20)">
    <path fill="none" d="M-5.6,0 L 5.6 0" class="primitive"/>
  </g>
  <g transform="translate(250,57.5)">
    <path fill="none" d="M-6.06,1.52 L 6.06 -1.52" class="primitive"/>
  </g>
  <g transform="translate(230,60)">
    <path fill="none" d="M-5.6,0 L 5.6 0" class="primitive"/>
  </g>
  <g transform="translate(250,37.5)">
    <path fill="none" d="M-6.06,1.52 L 6.06 -1.52" class="primitive"/>
  </g>
  <g transform="translate(230,40)">
    <path fill="none" d="M-5.6,0 L 5.6 0" class="primitive"/>
  </g>
  <g transform="translate(250,17.5)">
    <path fill="none" d="M-6.06,1.52 L 6.06 -1.52" class="primitive"/>
  </g>
  <g transform="translate(230,20)">
    <path fill="none" d="M-5.6,0 L 5.6 0" class="primitive"/>
  </g>
  <g transform="translate(250,72.5)">
    <path fill="none" d="M-6.06,-1.52 L 6.06 1.52" class="primitive"/>
  </g>
  <g transform="translate(150,12.5)">
    <path fill="none" d="M-6.06,-1.52 L 6.06 1.52" class="primitive"/>
  </g>
  <g transform="translate(50,12.5)">
    <path fill="none" d="M-6.06,-1.52 L 6.06 1.52" class="primitive"/>
  </g>
  <g transform="translate(250,52.5)">
    <path fill="none" d="M-6.06,-1.52 L 6.06 1.52" class="primitive"/>
  </g>
  <g transform="translate(250,32.5)">
    <path fill="none" d="M-6.06,-1.52 L 6.06 1.52" class="primitive"/>
  </g>
  <g transform="translate(250,12.5)">
    <path fill="none" d="M-6.06,-1.52 L 6.06 1.52" class="primitive"/>
  </g>
  <g transform="translate(230,70)">
    <path fill="none" d="M-5.6,0 L 5.6 0" class="primitive"/>
  </g>
  <g transform="translate(130,10)">
    <path fill="none" d="M-5.6,0 L 5.6 0" class="primitive"/>
  </g>
</g>
<g fill="#FF0000" id="img-51ab2377-2">
  <g transform="translate(220,10)">
    <circle cx="0" cy="0" r="4" class="primitive"/>
  </g>
</g>
<g fill="#FF0000" id="img-51ab2377-3">
  <g transform="translate(220,50)">
    <circle cx="0" cy="0" r="4" class="primitive"/>
  </g>
</g>
<g fill="#FF0000" id="img-51ab2377-4">
  <g transform="translate(220,30)">
    <circle cx="0" cy="0" r="4" class="primitive"/>
  </g>
</g>
<g fill="#FF0000" id="img-51ab2377-5">
  <g transform="translate(20,10)">
    <circle cx="0" cy="0" r="4" class="primitive"/>
  </g>
</g>
<g fill="#00FFFF" id="img-51ab2377-6">
  <g transform="translate(240,80)">
    <circle cx="0" cy="0" r="4" class="primitive"/>
  </g>
</g>
<g fill="#00FFFF" id="img-51ab2377-7">
  <g transform="translate(200,15)">
    <circle cx="0" cy="0" r="4" class="primitive"/>
  </g>
</g>
<g fill="#00FFFF" id="img-51ab2377-8">
  <g transform="translate(180,15)">
    <circle cx="0" cy="0" r="4" class="primitive"/>
  </g>
</g>
<g fill="#00FFFF" id="img-51ab2377-9">
  <g transform="translate(160,15)">
    <circle cx="0" cy="0" r="4" class="primitive"/>
  </g>
</g>
<g fill="#00FFFF" id="img-51ab2377-10">
  <g transform="translate(140,20)">
    <circle cx="0" cy="0" r="4" class="primitive"/>
  </g>
</g>
<g fill="#00FFFF" id="img-51ab2377-11">
  <g transform="translate(100,15)">
    <circle cx="0" cy="0" r="4" class="primitive"/>
  </g>
</g>
<g fill="#00FFFF" id="img-51ab2377-12">
  <g transform="translate(80,15)">
    <circle cx="0" cy="0" r="4" class="primitive"/>
  </g>
</g>
<g fill="#00FFFF" id="img-51ab2377-13">
  <g transform="translate(60,15)">
    <circle cx="0" cy="0" r="4" class="primitive"/>
  </g>
</g>
<g fill="#00FFFF" id="img-51ab2377-14">
  <g transform="translate(320,80)">
    <circle cx="0" cy="0" r="4" class="primitive"/>
  </g>
</g>
<g fill="#00FFFF" id="img-51ab2377-15">
  <g transform="translate(300,75)">
    <circle cx="0" cy="0" r="4" class="primitive"/>
  </g>
</g>
<g fill="#00FFFF" id="img-51ab2377-16">
  <g transform="translate(280,75)">
    <circle cx="0" cy="0" r="4" class="primitive"/>
  </g>
</g>
<g fill="#00FFFF" id="img-51ab2377-17">
  <g transform="translate(260,75)">
    <circle cx="0" cy="0" r="4" class="primitive"/>
  </g>
</g>
<g fill="#00FFFF" id="img-51ab2377-18">
  <g transform="translate(320,70)">
    <circle cx="0" cy="0" r="4" class="primitive"/>
  </g>
</g>
<g fill="#00FFFF" id="img-51ab2377-19">
  <g transform="translate(300,55)">
    <circle cx="0" cy="0" r="4" class="primitive"/>
  </g>
</g>
<g fill="#00FFFF" id="img-51ab2377-20">
  <g transform="translate(280,55)">
    <circle cx="0" cy="0" r="4" class="primitive"/>
  </g>
</g>
<g fill="#00FFFF" id="img-51ab2377-21">
  <g transform="translate(260,55)">
    <circle cx="0" cy="0" r="4" class="primitive"/>
  </g>
</g>
<g fill="#00FFFF" id="img-51ab2377-22">
  <g transform="translate(320,60)">
    <circle cx="0" cy="0" r="4" class="primitive"/>
  </g>
</g>
<g fill="#00FFFF" id="img-51ab2377-23">
  <g transform="translate(300,35)">
    <circle cx="0" cy="0" r="4" class="primitive"/>
  </g>
</g>
<g fill="#00FFFF" id="img-51ab2377-24">
  <g transform="translate(280,35)">
    <circle cx="0" cy="0" r="4" class="primitive"/>
  </g>
</g>
<g fill="#00FFFF" id="img-51ab2377-25">
  <g transform="translate(260,35)">
    <circle cx="0" cy="0" r="4" class="primitive"/>
  </g>
</g>
<g fill="#00FFFF" id="img-51ab2377-26">
  <g transform="translate(320,50)">
    <circle cx="0" cy="0" r="4" class="primitive"/>
  </g>
</g>
<g fill="#00FFFF" id="img-51ab2377-27">
  <g transform="translate(300,15)">
    <circle cx="0" cy="0" r="4" class="primitive"/>
  </g>
</g>
<g fill="#00FFFF" id="img-51ab2377-28">
  <g transform="translate(280,15)">
    <circle cx="0" cy="0" r="4" class="primitive"/>
  </g>
</g>
<g fill="#00FFFF" id="img-51ab2377-29">
  <g transform="translate(260,15)">
    <circle cx="0" cy="0" r="4" class="primitive"/>
  </g>
</g>
<g fill="#00FFFF" id="img-51ab2377-30">
  <g transform="translate(40,20)">
    <circle cx="0" cy="0" r="4" class="primitive"/>
  </g>
</g>
<g fill="#00FF00" id="img-51ab2377-31">
  <g transform="translate(20,20)">
    <circle cx="0" cy="0" r="4" class="primitive"/>
  </g>
</g>
<g fill="#00FFFF" id="img-51ab2377-32">
  <g transform="translate(240,60)">
    <circle cx="0" cy="0" r="4" class="primitive"/>
  </g>
</g>
<g fill="#00FF00" id="img-51ab2377-33">
  <g transform="translate(220,60)">
    <circle cx="0" cy="0" r="4" class="primitive"/>
  </g>
</g>
<g fill="#00FFFF" id="img-51ab2377-34">
  <g transform="translate(240,40)">
    <circle cx="0" cy="0" r="4" class="primitive"/>
  </g>
</g>
<g fill="#00FF00" id="img-51ab2377-35">
  <g transform="translate(220,40)">
    <circle cx="0" cy="0" r="4" class="primitive"/>
  </g>
</g>
<g fill="#00FFFF" id="img-51ab2377-36">
  <g transform="translate(240,20)">
    <circle cx="0" cy="0" r="4" class="primitive"/>
  </g>
</g>
<g fill="#00FF00" id="img-51ab2377-37">
  <g transform="translate(220,20)">
    <circle cx="0" cy="0" r="4" class="primitive"/>
  </g>
</g>
<g fill="#FFA500" id="img-51ab2377-38">
  <g transform="translate(240,70)">
    <circle cx="0" cy="0" r="4" class="primitive"/>
  </g>
</g>
<g fill="#FFA500" id="img-51ab2377-39">
  <g transform="translate(140,10)">
    <circle cx="0" cy="0" r="4" class="primitive"/>
  </g>
</g>
<g fill="#FFA500" id="img-51ab2377-40">
  <g transform="translate(40,10)">
    <circle cx="0" cy="0" r="4" class="primitive"/>
  </g>
</g>
<g fill="#FFA500" id="img-51ab2377-41">
  <g transform="translate(240,50)">
    <circle cx="0" cy="0" r="4" class="primitive"/>
  </g>
</g>
<g fill="#FFA500" id="img-51ab2377-42">
  <g transform="translate(240,30)">
    <circle cx="0" cy="0" r="4" class="primitive"/>
  </g>
</g>
<g fill="#FFA500" id="img-51ab2377-43">
  <g transform="translate(240,10)">
    <circle cx="0" cy="0" r="4" class="primitive"/>
  </g>
</g>
<g fill="#FF0000" id="img-51ab2377-44">
  <g transform="translate(220,70)">
    <circle cx="0" cy="0" r="4" class="primitive"/>
  </g>
</g>
<g fill="#FF0000" id="img-51ab2377-45">
  <g transform="translate(120,10)">
    <circle cx="0" cy="0" r="4" class="primitive"/>
  </g>
</g>
<g fill="#FF0000" id="img-51ab2377-46">
  <g transform="translate(320,25)">
    <circle cx="0" cy="0" r="4" class="primitive"/>
  </g>
</g>
<g font-family="futura" font-size="3.53" stroke="#000000" id="img-51ab2377-47">
  <g transform="translate(220,10)">
    <g class="primitive">
      <text text-anchor="middle" dy="-0.25em">op339<tspan x="0" dy="1.2em">0,0,1</tspan></text>
    </g>
  </g>
  <g transform="translate(220,50)">
    <g class="primitive">
      <text text-anchor="middle" dy="-0.25em">op338<tspan x="0" dy="1.2em">0,0,1</tspan></text>
    </g>
  </g>
  <g transform="translate(220,30)">
    <g class="primitive">
      <text text-anchor="middle" dy="-0.25em">op337<tspan x="0" dy="1.2em">0,0,0</tspan></text>
    </g>
  </g>
  <g transform="translate(20,10)">
    <g class="primitive">
      <text text-anchor="middle" dy="-0.25em">op336<tspan x="0" dy="1.2em">0,0,2</tspan></text>
    </g>
  </g>
  <g transform="translate(240,80)">
    <g class="primitive">
      <text text-anchor="middle" dy="-0.85em">go<tspan x="0" dy="1.2em">4,49,49</tspan><tspan x="0" dy="1.2em">4,4,2</tspan></text>
    </g>
  </g>
  <g transform="translate(200,15)">
    <g class="primitive">
      <text text-anchor="middle" dy="-0.85em">deposit<tspan x="0" dy="1.2em">4,5,49</tspan><tspan x="0" dy="1.2em">4,4,2</tspan></text>
    </g>
  </g>
  <g transform="translate(180,15)">
    <g class="primitive">
      <text text-anchor="middle" dy="-0.85em">carry<tspan x="0" dy="1.2em">4,5,49</tspan><tspan x="0" dy="1.2em">2,4,2</tspan></text>
    </g>
  </g>
  <g transform="translate(160,15)">
    <g class="primitive">
      <text text-anchor="middle" dy="-0.85em">collect<tspan x="0" dy="1.2em">4,5,27</tspan><tspan x="0" dy="1.2em">2,2,2</tspan></text>
    </g>
  </g>
  <g transform="translate(140,20)">
    <g class="primitive">
      <text text-anchor="middle" dy="-0.85em">go<tspan x="0" dy="1.2em">4,27,27</tspan><tspan x="0" dy="1.2em">2,2,2</tspan></text>
    </g>
  </g>
  <g transform="translate(100,15)">
    <g class="primitive">
      <text text-anchor="middle" dy="-0.85em">deposit<tspan x="0" dy="1.2em">4,4,27</tspan><tspan x="0" dy="1.2em">2,2,2</tspan></text>
    </g>
  </g>
  <g transform="translate(80,15)">
    <g class="primitive">
      <text text-anchor="middle" dy="-0.85em">carry<tspan x="0" dy="1.2em">4,4,27</tspan><tspan x="0" dy="1.2em">0,2,2</tspan></text>
    </g>
  </g>
  <g transform="translate(60,15)">
    <g class="primitive">
      <text text-anchor="middle" dy="-0.85em">collect<tspan x="0" dy="1.2em">4,4,5</tspan><tspan x="0" dy="1.2em">0,0,2</tspan></text>
    </g>
  </g>
  <g transform="translate(320,80)">
    <g class="primitive">
      <text text-anchor="middle" dy="-0.85em">go<tspan x="0" dy="1.2em">4,71,-1</tspan><tspan x="0" dy="1.2em">6,6,Inf</tspan></text>
    </g>
  </g>
  <g transform="translate(300,75)">
    <g class="primitive">
      <text text-anchor="middle" dy="-0.85em">deposit<tspan x="0" dy="1.2em">4,6,71</tspan><tspan x="0" dy="1.2em">6,6,2</tspan></text>
    </g>
  </g>
  <g transform="translate(280,75)">
    <g class="primitive">
      <text text-anchor="middle" dy="-0.85em">carry<tspan x="0" dy="1.2em">4,6,71</tspan><tspan x="0" dy="1.2em">4,6,2</tspan></text>
    </g>
  </g>
  <g transform="translate(260,75)">
    <g class="primitive">
      <text text-anchor="middle" dy="-0.85em">collect<tspan x="0" dy="1.2em">4,6,49</tspan><tspan x="0" dy="1.2em">4,4,2</tspan></text>
    </g>
  </g>
  <g transform="translate(320,70)">
    <g class="primitive">
      <text text-anchor="middle" dy="-0.85em">go<tspan x="0" dy="1.2em">3,60,-1</tspan><tspan x="0" dy="1.2em">7,7,Inf</tspan></text>
    </g>
  </g>
  <g transform="translate(300,55)">
    <g class="primitive">
      <text text-anchor="middle" dy="-0.85em">deposit<tspan x="0" dy="1.2em">3,3,60</tspan><tspan x="0" dy="1.2em">7,7,1</tspan></text>
    </g>
  </g>
  <g transform="translate(280,55)">
    <g class="primitive">
      <text text-anchor="middle" dy="-0.85em">carry<tspan x="0" dy="1.2em">3,3,60</tspan><tspan x="0" dy="1.2em">0,7,1</tspan></text>
    </g>
  </g>
  <g transform="translate(260,55)">
    <g class="primitive">
      <text text-anchor="middle" dy="-0.85em">collect<tspan x="0" dy="1.2em">3,3,137</tspan><tspan x="0" dy="1.2em">0,0,1</tspan></text>
    </g>
  </g>
  <g transform="translate(320,60)">
    <g class="primitive">
      <text text-anchor="middle" dy="-0.85em">go<tspan x="0" dy="1.2em">2,42,-1</tspan><tspan x="0" dy="1.2em">8,8,Inf</tspan></text>
    </g>
  </g>
  <g transform="translate(300,35)">
    <g class="primitive">
      <text text-anchor="middle" dy="-0.85em">deposit<tspan x="0" dy="1.2em">2,2,42</tspan><tspan x="0" dy="1.2em">8,8,0</tspan></text>
    </g>
  </g>
  <g transform="translate(280,35)">
    <g class="primitive">
      <text text-anchor="middle" dy="-0.85em">carry<tspan x="0" dy="1.2em">2,2,42</tspan><tspan x="0" dy="1.2em">0,8,0</tspan></text>
    </g>
  </g>
  <g transform="translate(260,35)">
    <g class="primitive">
      <text text-anchor="middle" dy="-0.85em">collect<tspan x="0" dy="1.2em">2,2,34</tspan><tspan x="0" dy="1.2em">0,0,0</tspan></text>
    </g>
  </g>
  <g transform="translate(320,50)">
    <g class="primitive">
      <text text-anchor="middle" dy="-0.85em">go<tspan x="0" dy="1.2em">1,22,-1</tspan><tspan x="0" dy="1.2em">7,7,Inf</tspan></text>
    </g>
  </g>
  <g transform="translate(300,15)">
    <g class="primitive">
      <text text-anchor="middle" dy="-0.85em">deposit<tspan x="0" dy="1.2em">1,1,22</tspan><tspan x="0" dy="1.2em">7,7,1</tspan></text>
    </g>
  </g>
  <g transform="translate(280,15)">
    <g class="primitive">
      <text text-anchor="middle" dy="-0.85em">carry<tspan x="0" dy="1.2em">1,1,22</tspan><tspan x="0" dy="1.2em">0,7,1</tspan></text>
    </g>
  </g>
  <g transform="translate(260,15)">
    <g class="primitive">
      <text text-anchor="middle" dy="-0.85em">collect<tspan x="0" dy="1.2em">1,1,15</tspan><tspan x="0" dy="1.2em">0,0,1</tspan></text>
    </g>
  </g>
  <g transform="translate(40,20)">
    <g class="primitive">
      <text text-anchor="middle" dy="-0.85em">go<tspan x="0" dy="1.2em">4,5,5</tspan><tspan x="0" dy="1.2em">0,0,2</tspan></text>
    </g>
  </g>
  <g transform="translate(20,20)">
    <g class="primitive">
      <text text-anchor="middle" dy="-0.25em">R4-5<tspan x="0" dy="1.2em">0,0,2</tspan></text>
    </g>
  </g>
  <g transform="translate(240,60)">
    <g class="primitive">
      <text text-anchor="middle" dy="-0.85em">go<tspan x="0" dy="1.2em">3,137,137</tspan><tspan x="0" dy="1.2em">0,0,1</tspan></text>
    </g>
  </g>
  <g transform="translate(220,60)">
    <g class="primitive">
      <text text-anchor="middle" dy="-0.25em">R3-137<tspan x="0" dy="1.2em">0,0,1</tspan></text>
    </g>
  </g>
  <g transform="translate(240,40)">
    <g class="primitive">
      <text text-anchor="middle" dy="-0.85em">go<tspan x="0" dy="1.2em">2,34,34</tspan><tspan x="0" dy="1.2em">0,0,0</tspan></text>
    </g>
  </g>
  <g transform="translate(220,40)">
    <g class="primitive">
      <text text-anchor="middle" dy="-0.25em">R2-34<tspan x="0" dy="1.2em">0,0,0</tspan></text>
    </g>
  </g>
  <g transform="translate(240,20)">
    <g class="primitive">
      <text text-anchor="middle" dy="-0.85em">go<tspan x="0" dy="1.2em">1,15,15</tspan><tspan x="0" dy="1.2em">0,0,1</tspan></text>
    </g>
  </g>
  <g transform="translate(220,20)">
    <g class="primitive">
      <text text-anchor="middle" dy="-0.25em">R1-15<tspan x="0" dy="1.2em">0,0,1</tspan></text>
    </g>
  </g>
  <g transform="translate(240,70)">
    <g class="primitive">
      <text text-anchor="middle" dy="-0.25em">O6-49<tspan x="0" dy="1.2em">4,4,2</tspan></text>
    </g>
  </g>
  <g transform="translate(140,10)">
    <g class="primitive">
      <text text-anchor="middle" dy="-0.25em">O5-27<tspan x="0" dy="1.2em">2,2,2</tspan></text>
    </g>
  </g>
  <g transform="translate(40,10)">
    <g class="primitive">
      <text text-anchor="middle" dy="-0.25em">O4-5<tspan x="0" dy="1.2em">0,0,2</tspan></text>
    </g>
  </g>
  <g transform="translate(240,50)">
    <g class="primitive">
      <text text-anchor="middle" dy="-0.25em">O3-137<tspan x="0" dy="1.2em">0,0,1</tspan></text>
    </g>
  </g>
  <g transform="translate(240,30)">
    <g class="primitive">
      <text text-anchor="middle" dy="-0.25em">O2-34<tspan x="0" dy="1.2em">0,0,0</tspan></text>
    </g>
  </g>
  <g transform="translate(240,10)">
    <g class="primitive">
      <text text-anchor="middle" dy="-0.25em">O1-15<tspan x="0" dy="1.2em">0,0,1</tspan></text>
    </g>
  </g>
  <g transform="translate(220,70)">
    <g class="primitive">
      <text text-anchor="middle" dy="-0.25em">op335<tspan x="0" dy="1.2em">4,4,2</tspan></text>
    </g>
  </g>
  <g transform="translate(120,10)">
    <g class="primitive">
      <text text-anchor="middle" dy="-0.25em">op334<tspan x="0" dy="1.2em">2,2,2</tspan></text>
    </g>
  </g>
  <g transform="translate(320,25)">
    <g class="primitive">
      <text text-anchor="middle" dy="-0.25em">op333<tspan x="0" dy="1.2em">8,8,0</tspan></text>
    </g>
  </g>
</g>
</svg>
