<?xml version="1.0" encoding="UTF-8"?>
<svg xmlns="http://www.w3.org/2000/svg"
     xmlns:xlink="http://www.w3.org/1999/xlink"
     xmlns:gadfly="http://www.gadflyjl.org/ns"
     version="1.2"
     width="420mm" height="1030mm" viewBox="0 0 420 1030"
     stroke="none"
     fill="#000000"
     stroke-width="0.3"
     font-size="3.88"
>
<defs>
  <marker id="arrow" markerWidth="15" markerHeight="7" refX="5" refY="3.5" orient="auto" markerUnits="strokeWidth">
    <path d="M0,0 L15,3.5 L0,7 z" stroke="context-stroke" fill="context-stroke"/>
  </marker>
</defs>
<g stroke="#000000" id="img-fca5508f-1">
  <g transform="translate(20,1025)">
    <path fill="none" d="M-5.6,0 L 5.6 0" class="primitive"/>
  </g>
  <g transform="translate(400,778.89)">
    <path fill="none" d="M-5.6,0 L 5.6 0" class="primitive"/>
  </g>
  <g transform="translate(400,523.89)">
    <path fill="none" d="M-9.91,252.8 L 9.91 -252.8" class="primitive"/>
  </g>
  <g transform="translate(380,778.89)">
    <path fill="none" d="M-5.6,0 L 5.6 0" class="primitive"/>
  </g>
  <g transform="translate(360,778.89)">
    <path fill="none" d="M-5.6,0 L 5.6 0" class="primitive"/>
  </g>
  <g transform="translate(200,778.33)">
    <path fill="none" d="M-9.9,227.8 L 9.9 -227.8" class="primitive"/>
  </g>
  <g transform="translate(200,1008.33)">
    <path fill="none" d="M-5.6,0 L 5.6 0" class="primitive"/>
  </g>
  <g transform="translate(180,1008.33)">
    <path fill="none" d="M-5.6,0 L 5.6 0" class="primitive"/>
  </g>
  <g transform="translate(160,1008.33)">
    <path fill="none" d="M-5.6,0 L 5.6 0" class="primitive"/>
  </g>
  <g transform="translate(330,836.39)">
    <path fill="none" d="M-19.25,55.33 L 19.25 -55.33" class="primitive"/>
  </g>
  <g transform="translate(300,893.89)">
    <path fill="none" d="M-5.6,0 L 5.6 0" class="primitive"/>
  </g>
  <g transform="translate(300,778.89)">
    <path fill="none" d="M-9.81,112.8 L 9.81 -112.8" class="primitive"/>
  </g>
  <g transform="translate(280,923.33)">
    <path fill="none" d="M-9.26,27.28 L 9.26 -27.28" class="primitive"/>
  </g>
  <g transform="translate(260,952.78)">
    <path fill="none" d="M-5.6,0 L 5.6 0" class="primitive"/>
  </g>
  <g transform="translate(340,721.39)">
    <path fill="none" d="M-9.62,-55.31 L 9.62 55.31" class="primitive"/>
  </g>
  <g transform="translate(240,980.56)">
    <path fill="none" d="M-9.22,25.61 L 9.22 -25.61" class="primitive"/>
  </g>
  <g transform="translate(90,1016.67)">
    <path fill="none" d="M-55.76,7.74 L 55.76 -7.74" class="primitive"/>
  </g>
  <g transform="translate(220,1008.33)">
    <path fill="none" d="M-5.6,0 L 5.6 0" class="primitive"/>
  </g>
  <g transform="translate(320,663.89)">
    <path fill="none" d="M-5.6,0 L 5.6 0" class="primitive"/>
  </g>
  <g transform="translate(60,1012.5)">
    <path fill="none" d="M-6.06,1.52 L 6.06 -1.52" class="primitive"/>
  </g>
  <g transform="translate(140,940)">
    <path fill="none" d="M-5.6,0 L 5.6 0" class="primitive"/>
  </g>
  <g transform="translate(100,1010)">
    <path fill="none" d="M-5.6,0 L 5.6 0" class="primitive"/>
  </g>
  <g transform="translate(140,962.5)">
    <path fill="none" d="M-26.06,6.52 L 26.06 -6.52" class="primitive"/>
  </g>
  <g transform="translate(160,947.5)">
    <path fill="none" d="M-7.56,-5.67 L 7.56 5.67" class="primitive"/>
  </g>
  <g transform="translate(40,1007.5)">
    <path fill="none" d="M-25.66,-2.14 L 25.66 2.14" class="primitive"/>
  </g>
  <g transform="translate(20,985)">
    <path fill="none" d="M-5.6,0 L 5.6 0" class="primitive"/>
  </g>
  <g transform="translate(140,1009.17)">
    <path fill="none" d="M-5.66,0.47 L 5.66 -0.47" class="primitive"/>
  </g>
  <g transform="translate(200,955)">
    <path fill="none" d="M-5.6,0 L 5.6 0" class="primitive"/>
  </g>
  <g transform="translate(100,999.17)">
    <path fill="none" d="M-45.87,-8.41 L 45.87 8.41" class="primitive"/>
  </g>
  <g transform="translate(60,980)">
    <path fill="none" d="M-8.03,8.03 L 8.03 -8.03" class="primitive"/>
  </g>
  <g transform="translate(240,953.89)">
    <path fill="none" d="M-5.7,0.63 L 5.7 -0.63" class="primitive"/>
  </g>
  <g transform="translate(120,975)">
    <path fill="none" d="M-9.38,32.82 L 9.38 -32.82" class="primitive"/>
  </g>
  <g transform="translate(120,1010)">
    <path fill="none" d="M-5.6,0 L 5.6 0" class="primitive"/>
  </g>
  <g transform="translate(210,953.89)">
    <path fill="none" d="M-35.61,0.99 L 35.61 -0.99" class="primitive"/>
  </g>
  <g transform="translate(180,955)">
    <path fill="none" d="M-5.6,0 L 5.6 0" class="primitive"/>
  </g>
  <g transform="translate(110,955)">
    <path fill="none" d="M-17.56,13.17 L 17.56 -13.17" class="primitive"/>
  </g>
  <g transform="translate(100,970)">
    <path fill="none" d="M-5.6,0 L 5.6 0" class="primitive"/>
  </g>
  <g transform="translate(80,1010)">
    <path fill="none" d="M-5.6,0 L 5.6 0" class="primitive"/>
  </g>
  <g transform="translate(250,924.44)">
    <path fill="none" d="M-37.59,28.71 L 37.59 -28.71" class="primitive"/>
  </g>
  <g transform="translate(220,955)">
    <path fill="none" d="M-5.6,0 L 5.6 0" class="primitive"/>
  </g>
  <g transform="translate(220,495)">
    <path fill="none" d="M-9.95,457.8 L 9.95 -457.8" class="primitive"/>
  </g>
  <g transform="translate(30,992.5)">
    <path fill="none" d="M-15.73,1.97 L 15.73 -1.97" class="primitive"/>
  </g>
  <g transform="translate(20,1015)">
    <path fill="none" d="M-5.6,0 L 5.6 0" class="primitive"/>
  </g>
  <g transform="translate(40,1015)">
    <path fill="none" d="M-5.6,0 L 5.6 0" class="primitive"/>
  </g>
  <g transform="translate(40,987.5)">
    <path fill="none" d="M-6.06,-1.52 L 6.06 1.52" class="primitive"/>
  </g>
  <g transform="translate(80,970)">
    <path fill="none" d="M-5.6,0 L 5.6 0" class="primitive"/>
  </g>
</g>
<g fill="#FF0000" id="img-fca5508f-2">
  <g transform="translate(10,1025)">
    <circle cx="0" cy="0" r="4" class="primitive"/>
  </g>
</g>
<g fill="#00FFFF" id="img-fca5508f-3">
  <g transform="translate(410,778.89)">
    <circle cx="0" cy="0" r="4" class="primitive"/>
  </g>
</g>
<g fill="#00FFFF" id="img-fca5508f-4">
  <g transform="translate(390,778.89)">
    <circle cx="0" cy="0" r="4" class="primitive"/>
  </g>
</g>
<g fill="#00FFFF" id="img-fca5508f-5">
  <g transform="translate(370,778.89)">
    <circle cx="0" cy="0" r="4" class="primitive"/>
  </g>
</g>
<g fill="#00FFFF" id="img-fca5508f-6">
  <g transform="translate(350,778.89)">
    <circle cx="0" cy="0" r="4" class="primitive"/>
  </g>
</g>
<g fill="#00FFFF" id="img-fca5508f-7">
  <g transform="translate(210,548.33)">
    <circle cx="0" cy="0" r="4" class="primitive"/>
  </g>
</g>
<g fill="#00FFFF" id="img-fca5508f-8">
  <g transform="translate(190,1008.33)">
    <circle cx="0" cy="0" r="4" class="primitive"/>
  </g>
</g>
<g fill="#00FFFF" id="img-fca5508f-9">
  <g transform="translate(170,1008.33)">
    <circle cx="0" cy="0" r="4" class="primitive"/>
  </g>
</g>
<g fill="#00FFFF" id="img-fca5508f-10">
  <g transform="translate(150,1008.33)">
    <circle cx="0" cy="0" r="4" class="primitive"/>
  </g>
</g>
<g fill="#00FFFF" id="img-fca5508f-11">
  <g transform="translate(310,893.89)">
    <circle cx="0" cy="0" r="4" class="primitive"/>
  </g>
</g>
<g fill="#00FFFF" id="img-fca5508f-12">
  <g transform="translate(290,893.89)">
    <circle cx="0" cy="0" r="4" class="primitive"/>
  </g>
</g>
<g fill="#00FFFF" id="img-fca5508f-13">
  <g transform="translate(270,952.78)">
    <circle cx="0" cy="0" r="4" class="primitive"/>
  </g>
</g>
<g fill="#00FFFF" id="img-fca5508f-14">
  <g transform="translate(250,952.78)">
    <circle cx="0" cy="0" r="4" class="primitive"/>
  </g>
</g>
<g fill="#FFA500" id="img-fca5508f-15">
  <g transform="translate(330,663.89)">
    <circle cx="0" cy="0" r="4" class="primitive"/>
  </g>
</g>
<g fill="#FFA500" id="img-fca5508f-16">
  <g transform="translate(230,1008.33)">
    <circle cx="0" cy="0" r="4" class="primitive"/>
  </g>
</g>
<g fill="#FFA500" id="img-fca5508f-17">
  <g transform="translate(30,1025)">
    <circle cx="0" cy="0" r="4" class="primitive"/>
  </g>
</g>
<g fill="#FF0000" id="img-fca5508f-18">
  <g transform="translate(410,268.89)">
    <circle cx="0" cy="0" r="4" class="primitive"/>
  </g>
</g>
<g fill="#FF0000" id="img-fca5508f-19">
  <g transform="translate(210,1008.33)">
    <circle cx="0" cy="0" r="4" class="primitive"/>
  </g>
</g>
<g fill="#FF0000" id="img-fca5508f-20">
  <g transform="translate(310,663.89)">
    <circle cx="0" cy="0" r="4" class="primitive"/>
  </g>
</g>
<g fill="#00FFFF" id="img-fca5508f-21">
  <g transform="translate(50,1015)">
    <circle cx="0" cy="0" r="4" class="primitive"/>
  </g>
</g>
<g fill="#FF0000" id="img-fca5508f-22">
  <g transform="translate(130,940)">
    <circle cx="0" cy="0" r="4" class="primitive"/>
  </g>
</g>
<g fill="#00FFFF" id="img-fca5508f-23">
  <g transform="translate(90,1010)">
    <circle cx="0" cy="0" r="4" class="primitive"/>
  </g>
</g>
<g fill="#00FFFF" id="img-fca5508f-24">
  <g transform="translate(110,970)">
    <circle cx="0" cy="0" r="4" class="primitive"/>
  </g>
</g>
<g fill="#FFA500" id="img-fca5508f-25">
  <g transform="translate(150,940)">
    <circle cx="0" cy="0" r="4" class="primitive"/>
  </g>
</g>
<g fill="#FFA500" id="img-fca5508f-26">
  <g transform="translate(10,1005)">
    <circle cx="0" cy="0" r="4" class="primitive"/>
  </g>
</g>
<g fill="#00FF00" id="img-fca5508f-27">
  <g transform="translate(10,985)">
    <circle cx="0" cy="0" r="4" class="primitive"/>
  </g>
</g>
<g fill="#00FFFF" id="img-fca5508f-28">
  <g transform="translate(130,1010)">
    <circle cx="0" cy="0" r="4" class="primitive"/>
  </g>
</g>
<g fill="#00FFFF" id="img-fca5508f-29">
  <g transform="translate(190,955)">
    <circle cx="0" cy="0" r="4" class="primitive"/>
  </g>
</g>
<g fill="#00FFFF" id="img-fca5508f-30">
  <g transform="translate(50,990)">
    <circle cx="0" cy="0" r="4" class="primitive"/>
  </g>
</g>
<g fill="#00FFFF" id="img-fca5508f-31">
  <g transform="translate(230,955)">
    <circle cx="0" cy="0" r="4" class="primitive"/>
  </g>
</g>
<g fill="#00FFFF" id="img-fca5508f-32">
  <g transform="translate(110,1010)">
    <circle cx="0" cy="0" r="4" class="primitive"/>
  </g>
</g>
<g fill="#00FFFF" id="img-fca5508f-33">
  <g transform="translate(170,955)">
    <circle cx="0" cy="0" r="4" class="primitive"/>
  </g>
</g>
<g fill="#00FFFF" id="img-fca5508f-34">
  <g transform="translate(90,970)">
    <circle cx="0" cy="0" r="4" class="primitive"/>
  </g>
</g>
<g fill="#00FFFF" id="img-fca5508f-35">
  <g transform="translate(70,1010)">
    <circle cx="0" cy="0" r="4" class="primitive"/>
  </g>
</g>
<g fill="#00FFFF" id="img-fca5508f-36">
  <g transform="translate(210,955)">
    <circle cx="0" cy="0" r="4" class="primitive"/>
  </g>
</g>
<g fill="#FFA500" id="img-fca5508f-37">
  <g transform="translate(10,995)">
    <circle cx="0" cy="0" r="4" class="primitive"/>
  </g>
</g>
<g fill="#00FF00" id="img-fca5508f-38">
  <g transform="translate(10,1015)">
    <circle cx="0" cy="0" r="4" class="primitive"/>
  </g>
</g>
<g fill="#00FFFF" id="img-fca5508f-39">
  <g transform="translate(30,1015)">
    <circle cx="0" cy="0" r="4" class="primitive"/>
  </g>
</g>
<g fill="#00FFFF" id="img-fca5508f-40">
  <g transform="translate(30,985)">
    <circle cx="0" cy="0" r="4" class="primitive"/>
  </g>
</g>
<g fill="#00FFFF" id="img-fca5508f-41">
  <g transform="translate(70,970)">
    <circle cx="0" cy="0" r="4" class="primitive"/>
  </g>
</g>
<g fill="#FF0000" id="img-fca5508f-42">
  <g transform="translate(230,35)">
    <circle cx="0" cy="0" r="4" class="primitive"/>
  </g>
</g>
<g font-family="futura" font-size="3.53" stroke="#000000" id="img-fca5508f-43">
  <g transform="translate(10,1025)">
    <g class="primitive">
      <text text-anchor="middle" dy="-0.25em">op2754<tspan x="0" dy="1.2em">10,10</tspan></text>
    </g>
  </g>
  <g transform="translate(410,778.89)">
    <g class="primitive">
      <text text-anchor="middle" dy="-0.85em">go<tspan x="0" dy="1.2em">1,108,-1</tspan><tspan x="0" dy="1.2em">74,74</tspan></text>
    </g>
  </g>
  <g transform="translate(390,778.89)">
    <g class="primitive">
      <text text-anchor="middle" dy="-0.85em">deposit<tspan x="0" dy="1.2em">1,6,108</tspan><tspan x="0" dy="1.2em">74,74</tspan></text>
    </g>
  </g>
  <g transform="translate(370,778.89)">
    <g class="primitive">
      <text text-anchor="middle" dy="-0.85em">carry<tspan x="0" dy="1.2em">1,6,108</tspan><tspan x="0" dy="1.2em">64,74</tspan></text>
    </g>
  </g>
  <g transform="translate(350,778.89)">
    <g class="primitive">
      <text text-anchor="middle" dy="-0.85em">collect<tspan x="0" dy="1.2em">1,6,49</tspan><tspan x="0" dy="1.2em">64,64</tspan></text>
    </g>
  </g>
  <g transform="translate(210,548.33)">
    <g class="primitive">
      <text text-anchor="middle" dy="-0.85em">go<tspan x="0" dy="1.2em">1,55,-1</tspan><tspan x="0" dy="1.2em">47,74</tspan></text>
    </g>
  </g>
  <g transform="translate(190,1008.33)">
    <g class="primitive">
      <text text-anchor="middle" dy="-0.85em">deposit<tspan x="0" dy="1.2em">1,4,55</tspan><tspan x="0" dy="1.2em">36,47</tspan></text>
    </g>
  </g>
  <g transform="translate(170,1008.33)">
    <g class="primitive">
      <text text-anchor="middle" dy="-0.85em">carry<tspan x="0" dy="1.2em">1,4,55</tspan><tspan x="0" dy="1.2em">26,36</tspan></text>
    </g>
  </g>
  <g transform="translate(150,1008.33)">
    <g class="primitive">
      <text text-anchor="middle" dy="-0.85em">collect<tspan x="0" dy="1.2em">1,4,39</tspan><tspan x="0" dy="1.2em">26,26</tspan></text>
    </g>
  </g>
  <g transform="translate(310,893.89)">
    <g class="primitive">
      <text text-anchor="middle" dy="-0.85em">go<tspan x="0" dy="1.2em">1,73,49</tspan><tspan x="0" dy="1.2em">60,64</tspan></text>
    </g>
  </g>
  <g transform="translate(290,893.89)">
    <g class="primitive">
      <text text-anchor="middle" dy="-0.85em">deposit<tspan x="0" dy="1.2em">1,5,73</tspan><tspan x="0" dy="1.2em">60,60</tspan></text>
    </g>
  </g>
  <g transform="translate(270,952.78)">
    <g class="primitive">
      <text text-anchor="middle" dy="-0.85em">carry<tspan x="0" dy="1.2em">1,5,73</tspan><tspan x="0" dy="1.2em">58,60</tspan></text>
    </g>
  </g>
  <g transform="translate(250,952.78)">
    <g class="primitive">
      <text text-anchor="middle" dy="-0.85em">collect<tspan x="0" dy="1.2em">1,5,60</tspan><tspan x="0" dy="1.2em">58,58</tspan></text>
    </g>
  </g>
  <g transform="translate(330,663.89)">
    <g class="primitive">
      <text text-anchor="middle" dy="-0.25em">O6-49<tspan x="0" dy="1.2em">60,60</tspan></text>
    </g>
  </g>
  <g transform="translate(230,1008.33)">
    <g class="primitive">
      <text text-anchor="middle" dy="-0.25em">O5-60<tspan x="0" dy="1.2em">47,47</tspan></text>
    </g>
  </g>
  <g transform="translate(30,1025)">
    <g class="primitive">
      <text text-anchor="middle" dy="-0.25em">O4-39<tspan x="0" dy="1.2em">10,10</tspan></text>
    </g>
  </g>
  <g transform="translate(410,268.89)">
    <g class="primitive">
      <text text-anchor="middle" dy="-0.25em">op2753<tspan x="0" dy="1.2em">74,74</tspan></text>
    </g>
  </g>
  <g transform="translate(210,1008.33)">
    <g class="primitive">
      <text text-anchor="middle" dy="-0.25em">op2752<tspan x="0" dy="1.2em">47,47</tspan></text>
    </g>
  </g>
  <g transform="translate(310,663.89)">
    <g class="primitive">
      <text text-anchor="middle" dy="-0.25em">op2751<tspan x="0" dy="1.2em">60,60</tspan></text>
    </g>
  </g>
  <g transform="translate(50,1015)">
    <g class="primitive">
      <text text-anchor="middle" dy="-0.85em">go<tspan x="0" dy="1.2em">2,65,45</tspan><tspan x="0" dy="1.2em">10,12</tspan></text>
    </g>
  </g>
  <g transform="translate(130,940)">
    <g class="primitive">
      <text text-anchor="middle" dy="-0.25em">op2745<tspan x="0" dy="1.2em">23,23</tspan></text>
    </g>
  </g>
  <g transform="translate(90,1010)">
    <g class="primitive">
      <text text-anchor="middle" dy="-0.85em">carry<tspan x="0" dy="1.2em">2,2,50</tspan><tspan x="0" dy="1.2em">12,23</tspan></text>
    </g>
  </g>
  <g transform="translate(110,970)">
    <g class="primitive">
      <text text-anchor="middle" dy="-0.85em">go<tspan x="0" dy="1.2em">1,126,60</tspan><tspan x="0" dy="1.2em">18,26</tspan></text>
    </g>
  </g>
  <g transform="translate(150,940)">
    <g class="primitive">
      <text text-anchor="middle" dy="-0.25em">O3-60<tspan x="0" dy="1.2em">23,23</tspan></text>
    </g>
  </g>
  <g transform="translate(10,1005)">
    <g class="primitive">
      <text text-anchor="middle" dy="-0.25em">O2-45<tspan x="0" dy="1.2em">0,0</tspan></text>
    </g>
  </g>
  <g transform="translate(10,985)">
    <g class="primitive">
      <text text-anchor="middle" dy="-0.25em">R1-150<tspan x="0" dy="1.2em">0,0</tspan></text>
    </g>
  </g>
  <g transform="translate(130,1010)">
    <g class="primitive">
      <text text-anchor="middle" dy="-0.85em">go<tspan x="0" dy="1.2em">2,50,39</tspan><tspan x="0" dy="1.2em">23,25</tspan></text>
    </g>
  </g>
  <g transform="translate(190,955)">
    <g class="primitive">
      <text text-anchor="middle" dy="-0.85em">carry<tspan x="0" dy="1.2em">1,3,73</tspan><tspan x="0" dy="1.2em">25,27</tspan></text>
    </g>
  </g>
  <g transform="translate(50,990)">
    <g class="primitive">
      <text text-anchor="middle" dy="-0.85em">collect<tspan x="0" dy="1.2em">1,1,39</tspan><tspan x="0" dy="1.2em">10,10</tspan></text>
    </g>
  </g>
  <g transform="translate(230,955)">
    <g class="primitive">
      <text text-anchor="middle" dy="-0.85em">go<tspan x="0" dy="1.2em">1,73,60</tspan><tspan x="0" dy="1.2em">36,58</tspan></text>
    </g>
  </g>
  <g transform="translate(110,1010)">
    <g class="primitive">
      <text text-anchor="middle" dy="-0.85em">deposit<tspan x="0" dy="1.2em">2,2,50</tspan><tspan x="0" dy="1.2em">23,23</tspan></text>
    </g>
  </g>
  <g transform="translate(170,955)">
    <g class="primitive">
      <text text-anchor="middle" dy="-0.85em">collect<tspan x="0" dy="1.2em">1,3,60</tspan><tspan x="0" dy="1.2em">25,25</tspan></text>
    </g>
  </g>
  <g transform="translate(90,970)">
    <g class="primitive">
      <text text-anchor="middle" dy="-0.85em">deposit<tspan x="0" dy="1.2em">1,1,126</tspan><tspan x="0" dy="1.2em">18,18</tspan></text>
    </g>
  </g>
  <g transform="translate(70,1010)">
    <g class="primitive">
      <text text-anchor="middle" dy="-0.85em">collect<tspan x="0" dy="1.2em">2,2,45</tspan><tspan x="0" dy="1.2em">12,12</tspan></text>
    </g>
  </g>
  <g transform="translate(210,955)">
    <g class="primitive">
      <text text-anchor="middle" dy="-0.85em">deposit<tspan x="0" dy="1.2em">1,3,73</tspan><tspan x="0" dy="1.2em">27,36</tspan></text>
    </g>
  </g>
  <g transform="translate(10,995)">
    <g class="primitive">
      <text text-anchor="middle" dy="-0.25em">O1-39<tspan x="0" dy="1.2em">0,0</tspan></text>
    </g>
  </g>
  <g transform="translate(10,1015)">
    <g class="primitive">
      <text text-anchor="middle" dy="-0.25em">R2-171<tspan x="0" dy="1.2em">0,0</tspan></text>
    </g>
  </g>
  <g transform="translate(30,1015)">
    <g class="primitive">
      <text text-anchor="middle" dy="-0.85em">go<tspan x="0" dy="1.2em">2,171,65</tspan><tspan x="0" dy="1.2em">0,10</tspan></text>
    </g>
  </g>
  <g transform="translate(30,985)">
    <g class="primitive">
      <text text-anchor="middle" dy="-0.85em">go<tspan x="0" dy="1.2em">1,150,39</tspan><tspan x="0" dy="1.2em">0,10</tspan></text>
    </g>
  </g>
  <g transform="translate(70,970)">
    <g class="primitive">
      <text text-anchor="middle" dy="-0.85em">carry<tspan x="0" dy="1.2em">1,1,126</tspan><tspan x="0" dy="1.2em">10,18</tspan></text>
    </g>
  </g>
  <g transform="translate(230,35)">
    <g class="primitive">
      <text text-anchor="middle" dy="-0.25em">op2746<tspan x="0" dy="1.2em">36,36</tspan></text>
    </g>
  </g>
</g>
</svg>
