<?xml version="1.0" encoding="UTF-8"?>
<svg xmlns="http://www.w3.org/2000/svg"
     xmlns:xlink="http://www.w3.org/1999/xlink"
     xmlns:gadfly="http://www.gadflyjl.org/ns"
     version="1.2"
     width="340mm" height="360mm" viewBox="0 0 340 360"
     stroke="none"
     fill="#000000"
     stroke-width="0.3"
     font-size="3.88"
>
<defs>
  <marker id="arrow" markerWidth="15" markerHeight="7" refX="5" refY="3.5" orient="auto" markerUnits="strokeWidth">
    <path d="M0,0 L15,3.5 L0,7 z" stroke="context-stroke" fill="context-stroke"/>
  </marker>
</defs>
<g stroke="#000000" id="img-4bbff9ca-1">
  <g transform="translate(20,355)">
    <path fill="none" d="M-5.6,0 L 5.6 0" class="primitive"/>
  </g>
  <g transform="translate(320,290)">
    <path fill="none" d="M-5.6,0 L 5.6 0" class="primitive"/>
  </g>
  <g transform="translate(320,190)">
    <path fill="none" d="M-9.78,97.8 L 9.78 -97.8" class="primitive"/>
  </g>
  <g transform="translate(300,290)">
    <path fill="none" d="M-5.6,0 L 5.6 0" class="primitive"/>
  </g>
  <g transform="translate(280,290)">
    <path fill="none" d="M-5.6,0 L 5.6 0" class="primitive"/>
  </g>
  <g transform="translate(150,330)">
    <path fill="none" d="M-16.89,8.44 L 16.89 -8.44" class="primitive"/>
  </g>
  <g transform="translate(120,340)">
    <path fill="none" d="M-5.6,0 L 5.6 0" class="primitive"/>
  </g>
  <g transform="translate(120,320)">
    <path fill="none" d="M-8.93,17.87 L 8.93 -17.87" class="primitive"/>
  </g>
  <g transform="translate(90,345)">
    <path fill="none" d="M-16.06,4.02 L 16.06 -4.02" class="primitive"/>
  </g>
  <g transform="translate(60,350)">
    <path fill="none" d="M-5.6,0 L 5.6 0" class="primitive"/>
  </g>
  <g transform="translate(220,260)">
    <path fill="none" d="M-9.63,57.81 L 9.63 -57.81" class="primitive"/>
  </g>
  <g transform="translate(220,320)">
    <path fill="none" d="M-5.6,0 L 5.6 0" class="primitive"/>
  </g>
  <g transform="translate(200,320)">
    <path fill="none" d="M-5.6,0 L 5.6 0" class="primitive"/>
  </g>
  <g transform="translate(180,320)">
    <path fill="none" d="M-5.6,0 L 5.6 0" class="primitive"/>
  </g>
  <g transform="translate(260,305)">
    <path fill="none" d="M-8.61,12.91 L 8.61 -12.91" class="primitive"/>
  </g>
  <g transform="translate(160,310)">
    <path fill="none" d="M-8.03,-8.03 L 8.03 8.03" class="primitive"/>
  </g>
  <g transform="translate(40,352.5)">
    <path fill="none" d="M-6.06,1.52 L 6.06 -1.52" class="primitive"/>
  </g>
  <g transform="translate(140,300)">
    <path fill="none" d="M-5.6,0 L 5.6 0" class="primitive"/>
  </g>
  <g transform="translate(240,320)">
    <path fill="none" d="M-5.6,0 L 5.6 0" class="primitive"/>
  </g>
  <g transform="translate(120,270)">
    <path fill="none" d="M-5.6,0 L 5.6 0" class="primitive"/>
  </g>
  <g transform="translate(100,335)">
    <path fill="none" d="M-6.89,-3.44 L 6.89 3.44" class="primitive"/>
  </g>
  <g transform="translate(100,300)">
    <path fill="none" d="M-9.28,27.83 L 9.28 -27.83" class="primitive"/>
  </g>
  <g transform="translate(100,290)">
    <path fill="none" d="M-9.45,37.82 L 9.45 -37.82" class="primitive"/>
  </g>
  <g transform="translate(30,332.5)">
    <path fill="none" d="M-15.73,1.97 L 15.73 -1.97" class="primitive"/>
  </g>
  <g transform="translate(140,265)">
    <path fill="none" d="M-6.89,3.44 L 6.89 -3.44" class="primitive"/>
  </g>
  <g transform="translate(240,275)">
    <path fill="none" d="M-26.89,-13.44 L 26.89 13.44" class="primitive"/>
  </g>
  <g transform="translate(160,260)">
    <path fill="none" d="M-5.6,0 L 5.6 0" class="primitive"/>
  </g>
  <g transform="translate(40,327.5)">
    <path fill="none" d="M-6.06,-1.52 L 6.06 1.52" class="primitive"/>
  </g>
  <g transform="translate(200,260)">
    <path fill="none" d="M-5.6,0 L 5.6 0" class="primitive"/>
  </g>
  <g transform="translate(200,140)">
    <path fill="none" d="M-9.82,117.8 L 9.82 -117.8" class="primitive"/>
  </g>
  <g transform="translate(40,347.5)">
    <path fill="none" d="M-6.06,-1.52 L 6.06 1.52" class="primitive"/>
  </g>
  <g transform="translate(80,330)">
    <path fill="none" d="M-5.6,0 L 5.6 0" class="primitive"/>
  </g>
  <g transform="translate(130,255)">
    <path fill="none" d="M-16.06,-4.02 L 16.06 4.02" class="primitive"/>
  </g>
  <g transform="translate(180,260)">
    <path fill="none" d="M-5.6,0 L 5.6 0" class="primitive"/>
  </g>
  <g transform="translate(20,325)">
    <path fill="none" d="M-5.6,0 L 5.6 0" class="primitive"/>
  </g>
  <g transform="translate(20,345)">
    <path fill="none" d="M-5.6,0 L 5.6 0" class="primitive"/>
  </g>
  <g transform="translate(60,330)">
    <path fill="none" d="M-5.6,0 L 5.6 0" class="primitive"/>
  </g>
</g>
<g fill="#FF0000" id="img-4bbff9ca-2">
  <g transform="translate(10,355)">
    <circle cx="0" cy="0" r="4" class="primitive"/>
  </g>
</g>
<g fill="#00FFFF" id="img-4bbff9ca-3">
  <g transform="translate(330,290)">
    <circle cx="0" cy="0" r="4" class="primitive"/>
  </g>
</g>
<g fill="#00FFFF" id="img-4bbff9ca-4">
  <g transform="translate(310,290)">
    <circle cx="0" cy="0" r="4" class="primitive"/>
  </g>
</g>
<g fill="#00FFFF" id="img-4bbff9ca-5">
  <g transform="translate(290,290)">
    <circle cx="0" cy="0" r="4" class="primitive"/>
  </g>
</g>
<g fill="#00FFFF" id="img-4bbff9ca-6">
  <g transform="translate(270,290)">
    <circle cx="0" cy="0" r="4" class="primitive"/>
  </g>
</g>
<g fill="#00FFFF" id="img-4bbff9ca-7">
  <g transform="translate(130,340)">
    <circle cx="0" cy="0" r="4" class="primitive"/>
  </g>
</g>
<g fill="#00FFFF" id="img-4bbff9ca-8">
  <g transform="translate(110,340)">
    <circle cx="0" cy="0" r="4" class="primitive"/>
  </g>
</g>
<g fill="#00FFFF" id="img-4bbff9ca-9">
  <g transform="translate(70,350)">
    <circle cx="0" cy="0" r="4" class="primitive"/>
  </g>
</g>
<g fill="#00FFFF" id="img-4bbff9ca-10">
  <g transform="translate(50,350)">
    <circle cx="0" cy="0" r="4" class="primitive"/>
  </g>
</g>
<g fill="#00FFFF" id="img-4bbff9ca-11">
  <g transform="translate(230,200)">
    <circle cx="0" cy="0" r="4" class="primitive"/>
  </g>
</g>
<g fill="#00FFFF" id="img-4bbff9ca-12">
  <g transform="translate(210,320)">
    <circle cx="0" cy="0" r="4" class="primitive"/>
  </g>
</g>
<g fill="#00FFFF" id="img-4bbff9ca-13">
  <g transform="translate(190,320)">
    <circle cx="0" cy="0" r="4" class="primitive"/>
  </g>
</g>
<g fill="#00FFFF" id="img-4bbff9ca-14">
  <g transform="translate(170,320)">
    <circle cx="0" cy="0" r="4" class="primitive"/>
  </g>
</g>
<g fill="#FFA500" id="img-4bbff9ca-15">
  <g transform="translate(250,320)">
    <circle cx="0" cy="0" r="4" class="primitive"/>
  </g>
</g>
<g fill="#FFA500" id="img-4bbff9ca-16">
  <g transform="translate(150,300)">
    <circle cx="0" cy="0" r="4" class="primitive"/>
  </g>
</g>
<g fill="#FFA500" id="img-4bbff9ca-17">
  <g transform="translate(30,355)">
    <circle cx="0" cy="0" r="4" class="primitive"/>
  </g>
</g>
<g fill="#FF0000" id="img-4bbff9ca-18">
  <g transform="translate(330,90)">
    <circle cx="0" cy="0" r="4" class="primitive"/>
  </g>
</g>
<g fill="#FF0000" id="img-4bbff9ca-19">
  <g transform="translate(130,300)">
    <circle cx="0" cy="0" r="4" class="primitive"/>
  </g>
</g>
<g fill="#FF0000" id="img-4bbff9ca-20">
  <g transform="translate(230,320)">
    <circle cx="0" cy="0" r="4" class="primitive"/>
  </g>
</g>
<g fill="#FF0000" id="img-4bbff9ca-21">
  <g transform="translate(110,270)">
    <circle cx="0" cy="0" r="4" class="primitive"/>
  </g>
</g>
<g fill="#00FFFF" id="img-4bbff9ca-22">
  <g transform="translate(90,330)">
    <circle cx="0" cy="0" r="4" class="primitive"/>
  </g>
</g>
<g fill="#FFA500" id="img-4bbff9ca-23">
  <g transform="translate(10,335)">
    <circle cx="0" cy="0" r="4" class="primitive"/>
  </g>
</g>
<g fill="#FFA500" id="img-4bbff9ca-24">
  <g transform="translate(130,270)">
    <circle cx="0" cy="0" r="4" class="primitive"/>
  </g>
</g>
<g fill="#00FFFF" id="img-4bbff9ca-25">
  <g transform="translate(210,260)">
    <circle cx="0" cy="0" r="4" class="primitive"/>
  </g>
</g>
<g fill="#00FFFF" id="img-4bbff9ca-26">
  <g transform="translate(150,260)">
    <circle cx="0" cy="0" r="4" class="primitive"/>
  </g>
</g>
<g fill="#00FFFF" id="img-4bbff9ca-27">
  <g transform="translate(30,325)">
    <circle cx="0" cy="0" r="4" class="primitive"/>
  </g>
</g>
<g fill="#00FFFF" id="img-4bbff9ca-28">
  <g transform="translate(190,260)">
    <circle cx="0" cy="0" r="4" class="primitive"/>
  </g>
</g>
<g fill="#00FFFF" id="img-4bbff9ca-29">
  <g transform="translate(30,345)">
    <circle cx="0" cy="0" r="4" class="primitive"/>
  </g>
</g>
<g fill="#00FFFF" id="img-4bbff9ca-30">
  <g transform="translate(70,330)">
    <circle cx="0" cy="0" r="4" class="primitive"/>
  </g>
</g>
<g fill="#00FFFF" id="img-4bbff9ca-31">
  <g transform="translate(110,250)">
    <circle cx="0" cy="0" r="4" class="primitive"/>
  </g>
</g>
<g fill="#00FFFF" id="img-4bbff9ca-32">
  <g transform="translate(170,260)">
    <circle cx="0" cy="0" r="4" class="primitive"/>
  </g>
</g>
<g fill="#FF0000" id="img-4bbff9ca-33">
  <g transform="translate(210,20)">
    <circle cx="0" cy="0" r="4" class="primitive"/>
  </g>
</g>
<g fill="#00FF00" id="img-4bbff9ca-34">
  <g transform="translate(10,325)">
    <circle cx="0" cy="0" r="4" class="primitive"/>
  </g>
</g>
<g fill="#00FF00" id="img-4bbff9ca-35">
  <g transform="translate(10,345)">
    <circle cx="0" cy="0" r="4" class="primitive"/>
  </g>
</g>
<g fill="#00FFFF" id="img-4bbff9ca-36">
  <g transform="translate(50,330)">
    <circle cx="0" cy="0" r="4" class="primitive"/>
  </g>
</g>
<g font-family="futura" font-size="3.53" stroke="#000000" id="img-4bbff9ca-37">
  <g transform="translate(10,355)">
    <g class="primitive">
      <text text-anchor="middle" dy="-0.25em">op723<tspan x="0" dy="1.2em">30,30</tspan></text>
    </g>
  </g>
  <g transform="translate(330,290)">
    <g class="primitive">
      <text text-anchor="middle" dy="-0.85em">go<tspan x="0" dy="1.2em">2,502,-1</tspan><tspan x="0" dy="1.2em">103,103</tspan></text>
    </g>
  </g>
  <g transform="translate(310,290)">
    <g class="primitive">
      <text text-anchor="middle" dy="-0.85em">deposit<tspan x="0" dy="1.2em">2,6,502</tspan><tspan x="0" dy="1.2em">103,103</tspan></text>
    </g>
  </g>
  <g transform="translate(290,290)">
    <g class="primitive">
      <text text-anchor="middle" dy="-0.85em">carry<tspan x="0" dy="1.2em">2,6,502</tspan><tspan x="0" dy="1.2em">100,103</tspan></text>
    </g>
  </g>
  <g transform="translate(270,290)">
    <g class="primitive">
      <text text-anchor="middle" dy="-0.85em">collect<tspan x="0" dy="1.2em">2,6,505</tspan><tspan x="0" dy="1.2em">100,100</tspan></text>
    </g>
  </g>
  <g transform="translate(130,340)">
    <g class="primitive">
      <text text-anchor="middle" dy="-0.85em">go<tspan x="0" dy="1.2em">1,196,130</tspan><tspan x="0" dy="1.2em">71,86</tspan></text>
    </g>
  </g>
  <g transform="translate(110,340)">
    <g class="primitive">
      <text text-anchor="middle" dy="-0.85em">deposit<tspan x="0" dy="1.2em">1,4,196</tspan><tspan x="0" dy="1.2em">71,71</tspan></text>
    </g>
  </g>
  <g transform="translate(70,350)">
    <g class="primitive">
      <text text-anchor="middle" dy="-0.85em">carry<tspan x="0" dy="1.2em">1,4,196</tspan><tspan x="0" dy="1.2em">46,71</tspan></text>
    </g>
  </g>
  <g transform="translate(50,350)">
    <g class="primitive">
      <text text-anchor="middle" dy="-0.85em">collect<tspan x="0" dy="1.2em">1,4,75</tspan><tspan x="0" dy="1.2em">46,46</tspan></text>
    </g>
  </g>
  <g transform="translate(230,200)">
    <g class="primitive">
      <text text-anchor="middle" dy="-0.85em">go<tspan x="0" dy="1.2em">1,222,-1</tspan><tspan x="0" dy="1.2em">100,103</tspan></text>
    </g>
  </g>
  <g transform="translate(210,320)">
    <g class="primitive">
      <text text-anchor="middle" dy="-0.85em">deposit<tspan x="0" dy="1.2em">1,5,222</tspan><tspan x="0" dy="1.2em">100,100</tspan></text>
    </g>
  </g>
  <g transform="translate(190,320)">
    <g class="primitive">
      <text text-anchor="middle" dy="-0.85em">carry<tspan x="0" dy="1.2em">1,5,222</tspan><tspan x="0" dy="1.2em">86,100</tspan></text>
    </g>
  </g>
  <g transform="translate(170,320)">
    <g class="primitive">
      <text text-anchor="middle" dy="-0.85em">collect<tspan x="0" dy="1.2em">1,5,130</tspan><tspan x="0" dy="1.2em">86,86</tspan></text>
    </g>
  </g>
  <g transform="translate(250,320)">
    <g class="primitive">
      <text text-anchor="middle" dy="-0.25em">O6-505<tspan x="0" dy="1.2em">100,100</tspan></text>
    </g>
  </g>
  <g transform="translate(150,300)">
    <g class="primitive">
      <text text-anchor="middle" dy="-0.25em">O5-130<tspan x="0" dy="1.2em">71,71</tspan></text>
    </g>
  </g>
  <g transform="translate(30,355)">
    <g class="primitive">
      <text text-anchor="middle" dy="-0.25em">O4-75<tspan x="0" dy="1.2em">30,30</tspan></text>
    </g>
  </g>
  <g transform="translate(330,90)">
    <g class="primitive">
      <text text-anchor="middle" dy="-0.25em">op722<tspan x="0" dy="1.2em">103,103</tspan></text>
    </g>
  </g>
  <g transform="translate(130,300)">
    <g class="primitive">
      <text text-anchor="middle" dy="-0.25em">op721<tspan x="0" dy="1.2em">71,71</tspan></text>
    </g>
  </g>
  <g transform="translate(230,320)">
    <g class="primitive">
      <text text-anchor="middle" dy="-0.25em">op720<tspan x="0" dy="1.2em">100,100</tspan></text>
    </g>
  </g>
  <g transform="translate(110,270)">
    <g class="primitive">
      <text text-anchor="middle" dy="-0.25em">op715<tspan x="0" dy="1.2em">48,48</tspan></text>
    </g>
  </g>
  <g transform="translate(90,330)">
    <g class="primitive">
      <text text-anchor="middle" dy="-0.85em">deposit<tspan x="0" dy="1.2em">2,2,196</tspan><tspan x="0" dy="1.2em">48,48</tspan></text>
    </g>
  </g>
  <g transform="translate(10,335)">
    <g class="primitive">
      <text text-anchor="middle" dy="-0.25em">O2-513<tspan x="0" dy="1.2em">18,18</tspan></text>
    </g>
  </g>
  <g transform="translate(130,270)">
    <g class="primitive">
      <text text-anchor="middle" dy="-0.25em">O3-270<tspan x="0" dy="1.2em">48,48</tspan></text>
    </g>
  </g>
  <g transform="translate(210,260)">
    <g class="primitive">
      <text text-anchor="middle" dy="-0.85em">go<tspan x="0" dy="1.2em">2,545,505</tspan><tspan x="0" dy="1.2em">80,100</tspan></text>
    </g>
  </g>
  <g transform="translate(150,260)">
    <g class="primitive">
      <text text-anchor="middle" dy="-0.85em">collect<tspan x="0" dy="1.2em">2,3,270</tspan><tspan x="0" dy="1.2em">63,63</tspan></text>
    </g>
  </g>
  <g transform="translate(30,325)">
    <g class="primitive">
      <text text-anchor="middle" dy="-0.85em">go<tspan x="0" dy="1.2em">2,586,513</tspan><tspan x="0" dy="1.2em">0,8</tspan></text>
    </g>
  </g>
  <g transform="translate(190,260)">
    <g class="primitive">
      <text text-anchor="middle" dy="-0.85em">deposit<tspan x="0" dy="1.2em">2,3,545</tspan><tspan x="0" dy="1.2em">80,80</tspan></text>
    </g>
  </g>
  <g transform="translate(30,345)">
    <g class="primitive">
      <text text-anchor="middle" dy="-0.85em">go<tspan x="0" dy="1.2em">1,271,75</tspan><tspan x="0" dy="1.2em">18,46</tspan></text>
    </g>
  </g>
  <g transform="translate(70,330)">
    <g class="primitive">
      <text text-anchor="middle" dy="-0.85em">carry<tspan x="0" dy="1.2em">2,2,196</tspan><tspan x="0" dy="1.2em">18,48</tspan></text>
    </g>
  </g>
  <g transform="translate(110,250)">
    <g class="primitive">
      <text text-anchor="middle" dy="-0.85em">go<tspan x="0" dy="1.2em">2,196,270</tspan><tspan x="0" dy="1.2em">48,63</tspan></text>
    </g>
  </g>
  <g transform="translate(170,260)">
    <g class="primitive">
      <text text-anchor="middle" dy="-0.85em">carry<tspan x="0" dy="1.2em">2,3,545</tspan><tspan x="0" dy="1.2em">63,80</tspan></text>
    </g>
  </g>
  <g transform="translate(210,20)">
    <g class="primitive">
      <text text-anchor="middle" dy="-0.25em">op717<tspan x="0" dy="1.2em">80,80</tspan></text>
    </g>
  </g>
  <g transform="translate(10,325)">
    <g class="primitive">
      <text text-anchor="middle" dy="-0.25em">R2-586<tspan x="0" dy="1.2em">0,0</tspan></text>
    </g>
  </g>
  <g transform="translate(10,345)">
    <g class="primitive">
      <text text-anchor="middle" dy="-0.25em">R1-270<tspan x="0" dy="1.2em">18,18</tspan></text>
    </g>
  </g>
  <g transform="translate(50,330)">
    <g class="primitive">
      <text text-anchor="middle" dy="-0.85em">collect<tspan x="0" dy="1.2em">2,2,513</tspan><tspan x="0" dy="1.2em">18,18</tspan></text>
    </g>
  </g>
</g>
</svg>
