<?xml version="1.0" encoding="UTF-8"?>
<svg xmlns="http://www.w3.org/2000/svg"
     xmlns:xlink="http://www.w3.org/1999/xlink"
     xmlns:gadfly="http://www.gadflyjl.org/ns"
     version="1.2"
     width="420mm" height="280mm" viewBox="0 0 420 280"
     stroke="none"
     fill="#000000"
     stroke-width="0.3"
     font-size="3.88"
>
<defs>
  <marker id="arrow" markerWidth="15" markerHeight="7" refX="5" refY="3.5" orient="auto" markerUnits="strokeWidth">
    <path d="M0,0 L15,3.5 L0,7 z" stroke="context-stroke" fill="context-stroke"/>
  </marker>
</defs>
<g stroke="#000000" id="img-3f5c4b86-1">
  <g transform="translate(40,262.5)">
    <path fill="none" d="M-6.06,1.52 L 6.06 -1.52" class="primitive"/>
  </g>
  <g transform="translate(380,152.19)">
    <path fill="none" d="M-5.6,0 L 5.6 0" class="primitive"/>
  </g>
  <g transform="translate(60,240)">
    <path fill="none" d="M-5.6,0 L 5.6 0" class="primitive"/>
  </g>
  <g transform="translate(160,267.5)">
    <path fill="none" d="M-5.6,0 L 5.6 0" class="primitive"/>
  </g>
  <g transform="translate(300,209.38)">
    <path fill="none" d="M-5.6,0 L 5.6 0" class="primitive"/>
  </g>
  <g transform="translate(300,169.38)">
    <path fill="none" d="M-9.45,37.82 L 9.45 -37.82" class="primitive"/>
  </g>
  <g transform="translate(40,242.5)">
    <path fill="none" d="M-6.06,1.52 L 6.06 -1.52" class="primitive"/>
  </g>
  <g transform="translate(240,219.06)">
    <path fill="none" d="M-7.98,7.73 L 7.98 -7.73" class="primitive"/>
  </g>
  <g transform="translate(280,209.38)">
    <path fill="none" d="M-5.6,0 L 5.6 0" class="primitive"/>
  </g>
  <g transform="translate(20,275)">
    <path fill="none" d="M-5.6,0 L 5.6 0" class="primitive"/>
  </g>
  <g transform="translate(20,175)">
    <path fill="none" d="M-5.6,0 L 5.6 0" class="primitive"/>
  </g>
  <g transform="translate(120,260)">
    <path fill="none" d="M-5.6,0 L 5.6 0" class="primitive"/>
  </g>
  <g transform="translate(100,260)">
    <path fill="none" d="M-5.6,0 L 5.6 0" class="primitive"/>
  </g>
  <g transform="translate(100,225)">
    <path fill="none" d="M-9.38,32.82 L 9.38 -32.82" class="primitive"/>
  </g>
  <g transform="translate(30,237.5)">
    <path fill="none" d="M-15.73,-1.97 L 15.73 1.97" class="primitive"/>
  </g>
  <g transform="translate(30,257.5)">
    <path fill="none" d="M-15.73,-1.97 L 15.73 1.97" class="primitive"/>
  </g>
  <g transform="translate(360,152.19)">
    <path fill="none" d="M-5.6,0 L 5.6 0" class="primitive"/>
  </g>
  <g transform="translate(60,260)">
    <path fill="none" d="M-5.6,0 L 5.6 0" class="primitive"/>
  </g>
  <g transform="translate(320,129.38)">
    <path fill="none" d="M-5.6,0 L 5.6 0" class="primitive"/>
  </g>
  <g transform="translate(100,125)">
    <path fill="none" d="M-9.81,112.8 L 9.81 -112.8" class="primitive"/>
  </g>
  <g transform="translate(150,234.38)">
    <path fill="none" d="M-55.68,5.22 L 55.68 -5.22" class="primitive"/>
  </g>
  <g transform="translate(90,271.25)">
    <path fill="none" d="M-55.63,3.48 L 55.63 -3.48" class="primitive"/>
  </g>
  <g transform="translate(180,199.69)">
    <path fill="none" d="M-65.76,-9.1 L 65.76 9.1" class="primitive"/>
  </g>
  <g transform="translate(200,267.5)">
    <path fill="none" d="M-5.6,0 L 5.6 0" class="primitive"/>
  </g>
  <g transform="translate(200,248.12)">
    <path fill="none" d="M-8.9,17.24 L 8.9 -17.24" class="primitive"/>
  </g>
  <g transform="translate(20,245)">
    <path fill="none" d="M-5.6,0 L 5.6 0" class="primitive"/>
  </g>
  <g transform="translate(80,260)">
    <path fill="none" d="M-5.6,0 L 5.6 0" class="primitive"/>
  </g>
  <g transform="translate(20,265)">
    <path fill="none" d="M-5.6,0 L 5.6 0" class="primitive"/>
  </g>
  <g transform="translate(260,209.38)">
    <path fill="none" d="M-5.6,0 L 5.6 0" class="primitive"/>
  </g>
  <g transform="translate(140,263.75)">
    <path fill="none" d="M-6.48,-2.43 L 6.48 2.43" class="primitive"/>
  </g>
  <g transform="translate(80,240)">
    <path fill="none" d="M-5.6,0 L 5.6 0" class="primitive"/>
  </g>
  <g transform="translate(400,152.19)">
    <path fill="none" d="M-5.6,0 L 5.6 0" class="primitive"/>
  </g>
  <g transform="translate(400,112.19)">
    <path fill="none" d="M-9.45,37.82 L 9.45 -37.82" class="primitive"/>
  </g>
  <g transform="translate(180,267.5)">
    <path fill="none" d="M-5.6,0 L 5.6 0" class="primitive"/>
  </g>
  <g transform="translate(190,163.59)">
    <path fill="none" d="M-155.64,11.1 L 155.64 -11.1" class="primitive"/>
  </g>
  <g transform="translate(340,140.78)">
    <path fill="none" d="M-8.23,-9.39 L 8.23 9.39" class="primitive"/>
  </g>
  <g transform="translate(220,228.75)">
    <path fill="none" d="M-5.6,0 L 5.6 0" class="primitive"/>
  </g>
</g>
<g fill="#00FFFF" id="img-3f5c4b86-2">
  <g transform="translate(30,265)">
    <circle cx="0" cy="0" r="4" class="primitive"/>
  </g>
</g>
<g fill="#00FFFF" id="img-3f5c4b86-3">
  <g transform="translate(370,152.19)">
    <circle cx="0" cy="0" r="4" class="primitive"/>
  </g>
</g>
<g fill="#00FFFF" id="img-3f5c4b86-4">
  <g transform="translate(210,267.5)">
    <circle cx="0" cy="0" r="4" class="primitive"/>
  </g>
</g>
<g fill="#00FFFF" id="img-3f5c4b86-5">
  <g transform="translate(310,209.38)">
    <circle cx="0" cy="0" r="4" class="primitive"/>
  </g>
</g>
<g fill="#FF0000" id="img-3f5c4b86-6">
  <g transform="translate(410,152.19)">
    <circle cx="0" cy="0" r="4" class="primitive"/>
  </g>
</g>
<g fill="#00FFFF" id="img-3f5c4b86-7">
  <g transform="translate(50,240)">
    <circle cx="0" cy="0" r="4" class="primitive"/>
  </g>
</g>
<g fill="#00FFFF" id="img-3f5c4b86-8">
  <g transform="translate(150,267.5)">
    <circle cx="0" cy="0" r="4" class="primitive"/>
  </g>
</g>
<g fill="#00FFFF" id="img-3f5c4b86-9">
  <g transform="translate(290,209.38)">
    <circle cx="0" cy="0" r="4" class="primitive"/>
  </g>
</g>
<g fill="#00FFFF" id="img-3f5c4b86-10">
  <g transform="translate(30,245)">
    <circle cx="0" cy="0" r="4" class="primitive"/>
  </g>
</g>
<g fill="#FFA500" id="img-3f5c4b86-11">
  <g transform="translate(230,228.75)">
    <circle cx="0" cy="0" r="4" class="primitive"/>
  </g>
</g>
<g fill="#00FFFF" id="img-3f5c4b86-12">
  <g transform="translate(270,209.38)">
    <circle cx="0" cy="0" r="4" class="primitive"/>
  </g>
</g>
<g fill="#00FF00" id="img-3f5c4b86-13">
  <g transform="translate(10,275)">
    <circle cx="0" cy="0" r="4" class="primitive"/>
  </g>
</g>
<g fill="#00FF00" id="img-3f5c4b86-14">
  <g transform="translate(10,175)">
    <circle cx="0" cy="0" r="4" class="primitive"/>
  </g>
</g>
<g fill="#FF0000" id="img-3f5c4b86-15">
  <g transform="translate(110,260)">
    <circle cx="0" cy="0" r="4" class="primitive"/>
  </g>
</g>
<g fill="#00FFFF" id="img-3f5c4b86-16">
  <g transform="translate(90,260)">
    <circle cx="0" cy="0" r="4" class="primitive"/>
  </g>
</g>
<g fill="#00FFFF" id="img-3f5c4b86-17">
  <g transform="translate(410,72.19)">
    <circle cx="0" cy="0" r="4" class="primitive"/>
  </g>
</g>
<g fill="#FFA500" id="img-3f5c4b86-18">
  <g transform="translate(10,235)">
    <circle cx="0" cy="0" r="4" class="primitive"/>
  </g>
</g>
<g fill="#FFA500" id="img-3f5c4b86-19">
  <g transform="translate(10,255)">
    <circle cx="0" cy="0" r="4" class="primitive"/>
  </g>
</g>
<g fill="#00FFFF" id="img-3f5c4b86-20">
  <g transform="translate(350,152.19)">
    <circle cx="0" cy="0" r="4" class="primitive"/>
  </g>
</g>
<g fill="#00FFFF" id="img-3f5c4b86-21">
  <g transform="translate(50,260)">
    <circle cx="0" cy="0" r="4" class="primitive"/>
  </g>
</g>
<g fill="#FF0000" id="img-3f5c4b86-22">
  <g transform="translate(310,129.38)">
    <circle cx="0" cy="0" r="4" class="primitive"/>
  </g>
</g>
<g fill="#00FFFF" id="img-3f5c4b86-23">
  <g transform="translate(90,240)">
    <circle cx="0" cy="0" r="4" class="primitive"/>
  </g>
</g>
<g fill="#00FFFF" id="img-3f5c4b86-24">
  <g transform="translate(30,275)">
    <circle cx="0" cy="0" r="4" class="primitive"/>
  </g>
</g>
<g fill="#00FFFF" id="img-3f5c4b86-25">
  <g transform="translate(110,190)">
    <circle cx="0" cy="0" r="4" class="primitive"/>
  </g>
</g>
<g fill="#00FFFF" id="img-3f5c4b86-26">
  <g transform="translate(190,267.5)">
    <circle cx="0" cy="0" r="4" class="primitive"/>
  </g>
</g>
<g fill="#00FF00" id="img-3f5c4b86-27">
  <g transform="translate(10,245)">
    <circle cx="0" cy="0" r="4" class="primitive"/>
  </g>
</g>
<g fill="#00FFFF" id="img-3f5c4b86-28">
  <g transform="translate(70,260)">
    <circle cx="0" cy="0" r="4" class="primitive"/>
  </g>
</g>
<g fill="#00FFFF" id="img-3f5c4b86-29">
  <g transform="translate(110,10)">
    <circle cx="0" cy="0" r="4" class="primitive"/>
  </g>
</g>
<g fill="#00FF00" id="img-3f5c4b86-30">
  <g transform="translate(10,265)">
    <circle cx="0" cy="0" r="4" class="primitive"/>
  </g>
</g>
<g fill="#00FFFF" id="img-3f5c4b86-31">
  <g transform="translate(250,209.38)">
    <circle cx="0" cy="0" r="4" class="primitive"/>
  </g>
</g>
<g fill="#FFA500" id="img-3f5c4b86-32">
  <g transform="translate(130,260)">
    <circle cx="0" cy="0" r="4" class="primitive"/>
  </g>
</g>
<g fill="#00FFFF" id="img-3f5c4b86-33">
  <g transform="translate(70,240)">
    <circle cx="0" cy="0" r="4" class="primitive"/>
  </g>
</g>
<g fill="#00FFFF" id="img-3f5c4b86-34">
  <g transform="translate(390,152.19)">
    <circle cx="0" cy="0" r="4" class="primitive"/>
  </g>
</g>
<g fill="#00FFFF" id="img-3f5c4b86-35">
  <g transform="translate(170,267.5)">
    <circle cx="0" cy="0" r="4" class="primitive"/>
  </g>
</g>
<g fill="#00FFFF" id="img-3f5c4b86-36">
  <g transform="translate(30,175)">
    <circle cx="0" cy="0" r="4" class="primitive"/>
  </g>
</g>
<g fill="#FFA500" id="img-3f5c4b86-37">
  <g transform="translate(330,129.38)">
    <circle cx="0" cy="0" r="4" class="primitive"/>
  </g>
</g>
<g fill="#FF0000" id="img-3f5c4b86-38">
  <g transform="translate(210,228.75)">
    <circle cx="0" cy="0" r="4" class="primitive"/>
  </g>
</g>
<g font-family="futura" font-size="3.53" stroke="#000000" id="img-3f5c4b86-39">
  <g transform="translate(30,265)">
    <g class="primitive">
      <text text-anchor="middle" dy="-0.85em">go<tspan x="0" dy="1.2em">2,586,513</tspan><tspan x="0" dy="1.2em">0,8,</tspan></text>
    </g>
  </g>
  <g transform="translate(370,152.19)">
    <g class="primitive">
      <text text-anchor="middle" dy="-0.85em">carry<tspan x="0" dy="1.2em">1,6,539</tspan><tspan x="0" dy="1.2em">76,88,</tspan></text>
    </g>
  </g>
  <g transform="translate(210,267.5)">
    <g class="primitive">
      <text text-anchor="middle" dy="-0.85em">go<tspan x="0" dy="1.2em">3,545,-1</tspan><tspan x="0" dy="1.2em">55,55,</tspan></text>
    </g>
  </g>
  <g transform="translate(310,209.38)">
    <g class="primitive">
      <text text-anchor="middle" dy="-0.85em">go<tspan x="0" dy="1.2em">2,277,-1</tspan><tspan x="0" dy="1.2em">76,76,</tspan></text>
    </g>
  </g>
  <g transform="translate(410,152.19)">
    <g class="primitive">
      <text text-anchor="middle" dy="-0.25em">op309<tspan x="0" dy="1.2em">88,88,</tspan></text>
    </g>
  </g>
  <g transform="translate(50,240)">
    <g class="primitive">
      <text text-anchor="middle" dy="-0.85em">collect<tspan x="0" dy="1.2em">4,4,349</tspan><tspan x="0" dy="1.2em">11,11,</tspan></text>
    </g>
  </g>
  <g transform="translate(150,267.5)">
    <g class="primitive">
      <text text-anchor="middle" dy="-0.85em">collect<tspan x="0" dy="1.2em">3,3,270</tspan><tspan x="0" dy="1.2em">38,38,</tspan></text>
    </g>
  </g>
  <g transform="translate(290,209.38)">
    <g class="primitive">
      <text text-anchor="middle" dy="-0.85em">deposit<tspan x="0" dy="1.2em">2,5,277</tspan><tspan x="0" dy="1.2em">76,76,</tspan></text>
    </g>
  </g>
  <g transform="translate(30,245)">
    <g class="primitive">
      <text text-anchor="middle" dy="-0.85em">go<tspan x="0" dy="1.2em">4,338,349</tspan><tspan x="0" dy="1.2em">0,11,</tspan></text>
    </g>
  </g>
  <g transform="translate(230,228.75)">
    <g class="primitive">
      <text text-anchor="middle" dy="-0.25em">O5-197<tspan x="0" dy="1.2em">55,55,</tspan></text>
    </g>
  </g>
  <g transform="translate(270,209.38)">
    <g class="primitive">
      <text text-anchor="middle" dy="-0.85em">carry<tspan x="0" dy="1.2em">2,5,277</tspan><tspan x="0" dy="1.2em">55,76,</tspan></text>
    </g>
  </g>
  <g transform="translate(10,275)">
    <g class="primitive">
      <text text-anchor="middle" dy="-0.25em">R3-216<tspan x="0" dy="1.2em">0,0,</tspan></text>
    </g>
  </g>
  <g transform="translate(10,175)">
    <g class="primitive">
      <text text-anchor="middle" dy="-0.25em">R1-487<tspan x="0" dy="1.2em">0,0,</tspan></text>
    </g>
  </g>
  <g transform="translate(110,260)">
    <g class="primitive">
      <text text-anchor="middle" dy="-0.25em">op307<tspan x="0" dy="1.2em">38,38,</tspan></text>
    </g>
  </g>
  <g transform="translate(90,260)">
    <g class="primitive">
      <text text-anchor="middle" dy="-0.85em">deposit<tspan x="0" dy="1.2em">2,2,196</tspan><tspan x="0" dy="1.2em">38,38,</tspan></text>
    </g>
  </g>
  <g transform="translate(410,72.19)">
    <g class="primitive">
      <text text-anchor="middle" dy="-0.85em">go<tspan x="0" dy="1.2em">1,539,-1</tspan><tspan x="0" dy="1.2em">88,88,</tspan></text>
    </g>
  </g>
  <g transform="translate(10,235)">
    <g class="primitive">
      <text text-anchor="middle" dy="-0.25em">O4-349<tspan x="0" dy="1.2em">0,0,</tspan></text>
    </g>
  </g>
  <g transform="translate(10,255)">
    <g class="primitive">
      <text text-anchor="middle" dy="-0.25em">O2-513<tspan x="0" dy="1.2em">0,0,</tspan></text>
    </g>
  </g>
  <g transform="translate(350,152.19)">
    <g class="primitive">
      <text text-anchor="middle" dy="-0.85em">collect<tspan x="0" dy="1.2em">1,6,509</tspan><tspan x="0" dy="1.2em">76,76,</tspan></text>
    </g>
  </g>
  <g transform="translate(50,260)">
    <g class="primitive">
      <text text-anchor="middle" dy="-0.85em">collect<tspan x="0" dy="1.2em">2,2,513</tspan><tspan x="0" dy="1.2em">8,8,</tspan></text>
    </g>
  </g>
  <g transform="translate(310,129.38)">
    <g class="primitive">
      <text text-anchor="middle" dy="-0.25em">op305<tspan x="0" dy="1.2em">76,76,</tspan></text>
    </g>
  </g>
  <g transform="translate(90,240)">
    <g class="primitive">
      <text text-anchor="middle" dy="-0.85em">deposit<tspan x="0" dy="1.2em">4,4,119</tspan><tspan x="0" dy="1.2em">32,32,</tspan></text>
    </g>
  </g>
  <g transform="translate(30,275)">
    <g class="primitive">
      <text text-anchor="middle" dy="-0.85em">go<tspan x="0" dy="1.2em">3,216,270</tspan><tspan x="0" dy="1.2em">0,11,</tspan></text>
    </g>
  </g>
  <g transform="translate(110,190)">
    <g class="primitive">
      <text text-anchor="middle" dy="-0.85em">go<tspan x="0" dy="1.2em">2,196,197</tspan><tspan x="0" dy="1.2em">38,39,</tspan></text>
    </g>
  </g>
  <g transform="translate(190,267.5)">
    <g class="primitive">
      <text text-anchor="middle" dy="-0.85em">deposit<tspan x="0" dy="1.2em">3,3,545</tspan><tspan x="0" dy="1.2em">55,55,</tspan></text>
    </g>
  </g>
  <g transform="translate(10,245)">
    <g class="primitive">
      <text text-anchor="middle" dy="-0.25em">R4-338<tspan x="0" dy="1.2em">0,0,</tspan></text>
    </g>
  </g>
  <g transform="translate(70,260)">
    <g class="primitive">
      <text text-anchor="middle" dy="-0.85em">carry<tspan x="0" dy="1.2em">2,2,196</tspan><tspan x="0" dy="1.2em">8,38,</tspan></text>
    </g>
  </g>
  <g transform="translate(110,10)">
    <g class="primitive">
      <text text-anchor="middle" dy="-0.85em">go<tspan x="0" dy="1.2em">4,119,-1</tspan><tspan x="0" dy="1.2em">32,32,</tspan></text>
    </g>
  </g>
  <g transform="translate(10,265)">
    <g class="primitive">
      <text text-anchor="middle" dy="-0.25em">R2-586<tspan x="0" dy="1.2em">0,0,</tspan></text>
    </g>
  </g>
  <g transform="translate(250,209.38)">
    <g class="primitive">
      <text text-anchor="middle" dy="-0.85em">collect<tspan x="0" dy="1.2em">2,5,197</tspan><tspan x="0" dy="1.2em">55,55,</tspan></text>
    </g>
  </g>
  <g transform="translate(130,260)">
    <g class="primitive">
      <text text-anchor="middle" dy="-0.25em">O3-270<tspan x="0" dy="1.2em">38,38,</tspan></text>
    </g>
  </g>
  <g transform="translate(70,240)">
    <g class="primitive">
      <text text-anchor="middle" dy="-0.85em">carry<tspan x="0" dy="1.2em">4,4,119</tspan><tspan x="0" dy="1.2em">11,32,</tspan></text>
    </g>
  </g>
  <g transform="translate(390,152.19)">
    <g class="primitive">
      <text text-anchor="middle" dy="-0.85em">deposit<tspan x="0" dy="1.2em">1,6,539</tspan><tspan x="0" dy="1.2em">88,88,</tspan></text>
    </g>
  </g>
  <g transform="translate(170,267.5)">
    <g class="primitive">
      <text text-anchor="middle" dy="-0.85em">carry<tspan x="0" dy="1.2em">3,3,545</tspan><tspan x="0" dy="1.2em">38,55,</tspan></text>
    </g>
  </g>
  <g transform="translate(30,175)">
    <g class="primitive">
      <text text-anchor="middle" dy="-0.85em">go<tspan x="0" dy="1.2em">1,271,509</tspan><tspan x="0" dy="1.2em">0,12,</tspan></text>
    </g>
  </g>
  <g transform="translate(330,129.38)">
    <g class="primitive">
      <text text-anchor="middle" dy="-0.25em">O6-509<tspan x="0" dy="1.2em">76,76,</tspan></text>
    </g>
  </g>
  <g transform="translate(210,228.75)">
    <g class="primitive">
      <text text-anchor="middle" dy="-0.25em">op306<tspan x="0" dy="1.2em">55,55,</tspan></text>
    </g>
  </g>
</g>
</svg>
