<?xml version="1.0" encoding="UTF-8"?>
<svg xmlns="http://www.w3.org/2000/svg"
     xmlns:xlink="http://www.w3.org/1999/xlink"
     xmlns:gadfly="http://www.gadflyjl.org/ns"
     version="1.2"
     width="420mm" height="1090mm" viewBox="0 0 420 1090"
     stroke="none"
     fill="#000000"
     stroke-width="0.3"
     font-size="3.88"
>
<defs>
  <marker id="arrow" markerWidth="15" markerHeight="7" refX="5" refY="3.5" orient="auto" markerUnits="strokeWidth">
    <path d="M0,0 L15,3.5 L0,7 z" stroke="context-stroke" fill="context-stroke"/>
  </marker>
</defs>
<g stroke="#000000" id="img-83de7725-1">
  <g transform="translate(40,1062.5)">
    <path fill="none" d="M-6.06,1.52 L 6.06 -1.52" class="primitive"/>
  </g>
  <g transform="translate(340,563.59)">
    <path fill="none" d="M-9.38,33.19 L 9.38 -33.19" class="primitive"/>
  </g>
  <g transform="translate(60,980)">
    <path fill="none" d="M-5.6,0 L 5.6 0" class="primitive"/>
  </g>
  <g transform="translate(160,785)">
    <path fill="none" d="M-5.6,0 L 5.6 0" class="primitive"/>
  </g>
  <g transform="translate(70,891.25)">
    <path fill="none" d="M-55.63,3.48 L 55.63 -3.48" class="primitive"/>
  </g>
  <g transform="translate(140,1036.25)">
    <path fill="none" d="M-6.48,2.43 L 6.48 -2.43" class="primitive"/>
  </g>
  <g transform="translate(90,1006.25)">
    <path fill="none" d="M-55.78,8.13 L 55.78 -8.13" class="primitive"/>
  </g>
  <g transform="translate(220,575.31)">
    <path fill="none" d="M-7.76,6.54 L 7.76 -6.54" class="primitive"/>
  </g>
  <g transform="translate(160,997.5)">
    <path fill="none" d="M-5.6,0 L 5.6 0" class="primitive"/>
  </g>
  <g transform="translate(60,1080)">
    <path fill="none" d="M-5.6,0 L 5.6 0" class="primitive"/>
  </g>
  <g transform="translate(260,566.88)">
    <path fill="none" d="M-5.6,0 L 5.6 0" class="primitive"/>
  </g>
  <g transform="translate(380,528.23)">
    <path fill="none" d="M-5.6,0 L 5.6 0" class="primitive"/>
  </g>
  <g transform="translate(180,1067.5)">
    <path fill="none" d="M-65.86,11.76 L 65.86 -11.76" class="primitive"/>
  </g>
  <g transform="translate(60,860)">
    <path fill="none" d="M-5.6,0 L 5.6 0" class="primitive"/>
  </g>
  <g transform="translate(180,997.5)">
    <path fill="none" d="M-5.6,0 L 5.6 0" class="primitive"/>
  </g>
  <g transform="translate(30,1042.5)">
    <path fill="none" d="M-15.73,1.97 L 15.73 -1.97" class="primitive"/>
  </g>
  <g transform="translate(30,842.5)">
    <path fill="none" d="M-15.73,1.97 L 15.73 -1.97" class="primitive"/>
  </g>
  <g transform="translate(40,982.5)">
    <path fill="none" d="M-6.06,1.52 L 6.06 -1.52" class="primitive"/>
  </g>
  <g transform="translate(140,988.75)">
    <path fill="none" d="M-7.82,-6.84 L 7.82 6.84" class="primitive"/>
  </g>
  <g transform="translate(100,920)">
    <path fill="none" d="M-9.82,117.8 L 9.82 -117.8" class="primitive"/>
  </g>
  <g transform="translate(100,1040)">
    <path fill="none" d="M-5.6,0 L 5.6 0" class="primitive"/>
  </g>
  <g transform="translate(30,942.5)">
    <path fill="none" d="M-15.73,1.97 L 15.73 -1.97" class="primitive"/>
  </g>
  <g transform="translate(40,837.5)">
    <path fill="none" d="M-6.06,-1.52 L 6.06 1.52" class="primitive"/>
  </g>
  <g transform="translate(300,1055)">
    <path fill="none" d="M-5.6,0 L 5.6 0" class="primitive"/>
  </g>
  <g transform="translate(300,826.98)">
    <path fill="none" d="M-9.9,225.82 L 9.9 -225.82" class="primitive"/>
  </g>
  <g transform="translate(80,1060)">
    <path fill="none" d="M-5.6,0 L 5.6 0" class="primitive"/>
  </g>
  <g transform="translate(60,1040)">
    <path fill="none" d="M-5.6,0 L 5.6 0" class="primitive"/>
  </g>
  <g transform="translate(30,977.5)">
    <path fill="none" d="M-15.73,-1.97 L 15.73 1.97" class="primitive"/>
  </g>
  <g transform="translate(160,1032.5)">
    <path fill="none" d="M-5.6,0 L 5.6 0" class="primitive"/>
  </g>
  <g transform="translate(80,960)">
    <path fill="none" d="M-5.6,0 L 5.6 0" class="primitive"/>
  </g>
  <g transform="translate(20,865)">
    <path fill="none" d="M-5.6,0 L 5.6 0" class="primitive"/>
  </g>
  <g transform="translate(20,1025)">
    <path fill="none" d="M-5.6,0 L 5.6 0" class="primitive"/>
  </g>
  <g transform="translate(100,1080)">
    <path fill="none" d="M-5.6,0 L 5.6 0" class="primitive"/>
  </g>
  <g transform="translate(100,1030)">
    <path fill="none" d="M-9.56,47.81 L 9.56 -47.81" class="primitive"/>
  </g>
  <g transform="translate(20,835)">
    <path fill="none" d="M-5.6,0 L 5.6 0" class="primitive"/>
  </g>
  <g transform="translate(280,1055)">
    <path fill="none" d="M-5.6,0 L 5.6 0" class="primitive"/>
  </g>
  <g transform="translate(220,1030)">
    <path fill="none" d="M-5.6,0 L 5.6 0" class="primitive"/>
  </g>
  <g transform="translate(130,792.5)">
    <path fill="none" d="M-16.48,6.18 L 16.48 -6.18" class="primitive"/>
  </g>
  <g transform="translate(360,528.23)">
    <path fill="none" d="M-5.6,0 L 5.6 0" class="primitive"/>
  </g>
  <g transform="translate(280,492.86)">
    <path fill="none" d="M-66.9,-33.8 L 66.9 33.8" class="primitive"/>
  </g>
  <g transform="translate(20,1015)">
    <path fill="none" d="M-5.6,0 L 5.6 0" class="primitive"/>
  </g>
  <g transform="translate(260,1055)">
    <path fill="none" d="M-5.6,0 L 5.6 0" class="primitive"/>
  </g>
  <g transform="translate(120,980)">
    <path fill="none" d="M-5.6,0 L 5.6 0" class="primitive"/>
  </g>
  <g transform="translate(120,1040)">
    <path fill="none" d="M-5.6,0 L 5.6 0" class="primitive"/>
  </g>
  <g transform="translate(150,1045)">
    <path fill="none" d="M-56.06,14.02 L 56.06 -14.02" class="primitive"/>
  </g>
  <g transform="translate(100,805)">
    <path fill="none" d="M-9.91,252.8 L 9.91 -252.8" class="primitive"/>
  </g>
  <g transform="translate(120,883.75)">
    <path fill="none" d="M-6.48,-2.43 L 6.48 2.43" class="primitive"/>
  </g>
  <g transform="translate(80,1040)">
    <path fill="none" d="M-5.6,0 L 5.6 0" class="primitive"/>
  </g>
  <g transform="translate(60,1060)">
    <path fill="none" d="M-5.6,0 L 5.6 0" class="primitive"/>
  </g>
  <g transform="translate(20,1065)">
    <path fill="none" d="M-5.6,0 L 5.6 0" class="primitive"/>
  </g>
  <g transform="translate(180,1032.5)">
    <path fill="none" d="M-5.6,0 L 5.6 0" class="primitive"/>
  </g>
  <g transform="translate(20,985)">
    <path fill="none" d="M-5.6,0 L 5.6 0" class="primitive"/>
  </g>
  <g transform="translate(20,1035)">
    <path fill="none" d="M-5.6,0 L 5.6 0" class="primitive"/>
  </g>
  <g transform="translate(290,582.92)">
    <path fill="none" d="M-17.67,-14.17 L 17.67 14.17" class="primitive"/>
  </g>
  <g transform="translate(280,466.88)">
    <path fill="none" d="M-9.78,97.8 L 9.78 -97.8" class="primitive"/>
  </g>
  <g transform="translate(40,1082.5)">
    <path fill="none" d="M-6.06,1.52 L 6.06 -1.52" class="primitive"/>
  </g>
  <g transform="translate(320,598.96)">
    <path fill="none" d="M-5.6,0 L 5.6 0" class="primitive"/>
  </g>
  <g transform="translate(80,1080)">
    <path fill="none" d="M-5.6,0 L 5.6 0" class="primitive"/>
  </g>
  <g transform="translate(40,862.5)">
    <path fill="none" d="M-6.06,1.52 L 6.06 -1.52" class="primitive"/>
  </g>
  <g transform="translate(180,887.5)">
    <path fill="none" d="M-5.6,0 L 5.6 0" class="primitive"/>
  </g>
  <g transform="translate(180,735.62)">
    <path fill="none" d="M-9.86,149.68 L 9.86 -149.68" class="primitive"/>
  </g>
  <g transform="translate(40,962.5)">
    <path fill="none" d="M-6.06,1.52 L 6.06 -1.52" class="primitive"/>
  </g>
  <g transform="translate(90,1028.75)">
    <path fill="none" d="M-55.63,-3.48 L 55.63 3.48" class="primitive"/>
  </g>
  <g transform="translate(100,980)">
    <path fill="none" d="M-5.6,0 L 5.6 -0" class="primitive"/>
  </g>
  <g transform="translate(100,900)">
    <path fill="none" d="M-9.73,77.8 L 9.73 -77.8" class="primitive"/>
  </g>
  <g transform="translate(200,583.75)">
    <path fill="none" d="M-5.6,0 L 5.6 0" class="primitive"/>
  </g>
  <g transform="translate(140,887.5)">
    <path fill="none" d="M-5.6,0 L 5.6 0" class="primitive"/>
  </g>
  <g transform="translate(20,965)">
    <path fill="none" d="M-5.6,0 L 5.6 0" class="primitive"/>
  </g>
  <g transform="translate(80,840)">
    <path fill="none" d="M-5.6,0 L 5.6 0" class="primitive"/>
  </g>
  <g transform="translate(60,840)">
    <path fill="none" d="M-5.6,0 L 5.6 0" class="primitive"/>
  </g>
  <g transform="translate(400,528.23)">
    <path fill="none" d="M-5.6,0 L 5.6 0" class="primitive"/>
  </g>
  <g transform="translate(400,323.23)">
    <path fill="none" d="M-9.89,202.8 L 9.89 -202.8" class="primitive"/>
  </g>
  <g transform="translate(170,558.44)">
    <path fill="none" d="M-55.76,-7.84 L 55.76 7.84" class="primitive"/>
  </g>
  <g transform="translate(140,777.5)">
    <path fill="none" d="M-7.56,-5.67 L 7.56 5.67" class="primitive"/>
  </g>
  <g transform="translate(80,980)">
    <path fill="none" d="M-5.6,0 L 5.6 0" class="primitive"/>
  </g>
  <g transform="translate(100,970)">
    <path fill="none" d="M-8.03,-8.03 L 8.03 8.03" class="primitive"/>
  </g>
  <g transform="translate(100,920)">
    <path fill="none" d="M-9.45,37.82 L 9.45 -37.82" class="primitive"/>
  </g>
  <g transform="translate(80,940)">
    <path fill="none" d="M-5.6,0 L 5.6 0" class="primitive"/>
  </g>
  <g transform="translate(240,566.88)">
    <path fill="none" d="M-5.6,0 L 5.6 0" class="primitive"/>
  </g>
  <g transform="translate(30,857.5)">
    <path fill="none" d="M-15.73,-1.97 L 15.73 1.97" class="primitive"/>
  </g>
  <g transform="translate(40,1037.5)">
    <path fill="none" d="M-6.06,-1.52 L 6.06 1.52" class="primitive"/>
  </g>
  <g transform="translate(100,940)">
    <path fill="none" d="M-5.6,0 L 5.6 0" class="primitive"/>
  </g>
  <g transform="translate(100,855)">
    <path fill="none" d="M-9.74,82.8 L 9.74 -82.8" class="primitive"/>
  </g>
  <g transform="translate(60,960)">
    <path fill="none" d="M-5.6,0 L 5.6 0" class="primitive"/>
  </g>
  <g transform="translate(200,972.5)">
    <path fill="none" d="M-9.63,57.81 L 9.63 -57.81" class="primitive"/>
  </g>
  <g transform="translate(200,1031.25)">
    <path fill="none" d="M-5.73,0.72 L 5.73 -0.72" class="primitive"/>
  </g>
  <g transform="translate(30,957.5)">
    <path fill="none" d="M-15.73,-1.97 L 15.73 1.97" class="primitive"/>
  </g>
  <g transform="translate(30,1057.5)">
    <path fill="none" d="M-15.73,-1.97 L 15.73 1.97" class="primitive"/>
  </g>
  <g transform="translate(100,860)">
    <path fill="none" d="M-5.6,0 L 5.6 0" class="primitive"/>
  </g>
  <g transform="translate(140,721.88)">
    <path fill="none" d="M-49.22,135.96 L 49.22 -135.96" class="primitive"/>
  </g>
  <g transform="translate(30,1077.5)">
    <path fill="none" d="M-15.73,-1.97 L 15.73 1.97" class="primitive"/>
  </g>
  <g transform="translate(180,785)">
    <path fill="none" d="M-5.6,0 L 5.6 0" class="primitive"/>
  </g>
  <g transform="translate(40,937.5)">
    <path fill="none" d="M-6.06,-1.52 L 6.06 1.52" class="primitive"/>
  </g>
  <g transform="translate(200,1013.75)">
    <path fill="none" d="M-8.71,-14.15 L 8.71 14.15" class="primitive"/>
  </g>
  <g transform="translate(200,727.5)">
    <path fill="none" d="M-9.92,267.8 L 9.92 -267.8" class="primitive"/>
  </g>
  <g transform="translate(100,840)">
    <path fill="none" d="M-5.6,0 L 5.6 0" class="primitive"/>
  </g>
  <g transform="translate(100,805)">
    <path fill="none" d="M-9.38,32.82 L 9.38 -32.82" class="primitive"/>
  </g>
  <g transform="translate(250,691.98)">
    <path fill="none" d="M-58.65,90.93 L 58.65 -90.93" class="primitive"/>
  </g>
  <g transform="translate(200,785)">
    <path fill="none" d="M-5.6,0 L 5.6 0" class="primitive"/>
  </g>
  <g transform="translate(240,1042.5)">
    <path fill="none" d="M-8.37,-10.46 L 8.37 10.46" class="primitive"/>
  </g>
  <g transform="translate(20,935)">
    <path fill="none" d="M-5.6,0 L 5.6 0" class="primitive"/>
  </g>
  <g transform="translate(160,887.5)">
    <path fill="none" d="M-5.6,0 L 5.6 0" class="primitive"/>
  </g>
  <g transform="translate(20,1085)">
    <path fill="none" d="M-5.6,0 L 5.6 0" class="primitive"/>
  </g>
  <g transform="translate(80,860)">
    <path fill="none" d="M-5.6,0 L 5.6 0" class="primitive"/>
  </g>
  <g transform="translate(120,770)">
    <path fill="none" d="M-5.6,0 L 5.6 0" class="primitive"/>
  </g>
  <g transform="translate(60,940)">
    <path fill="none" d="M-5.6,0 L 5.6 0" class="primitive"/>
  </g>
</g>
<g fill="#00FFFF" id="img-83de7725-2">
  <g transform="translate(30,1065)">
    <circle cx="0" cy="0" r="4" class="primitive"/>
  </g>
</g>
<g fill="#FFA500" id="img-83de7725-3">
  <g transform="translate(330,598.96)">
    <circle cx="0" cy="0" r="4" class="primitive"/>
  </g>
</g>
<g fill="#00FFFF" id="img-83de7725-4">
  <g transform="translate(50,980)">
    <circle cx="0" cy="0" r="4" class="primitive"/>
  </g>
</g>
<g fill="#00FFFF" id="img-83de7725-5">
  <g transform="translate(150,785)">
    <circle cx="0" cy="0" r="4" class="primitive"/>
  </g>
</g>
<g fill="#FFA500" id="img-83de7725-6">
  <g transform="translate(10,895)">
    <circle cx="0" cy="0" r="4" class="primitive"/>
  </g>
</g>
<g fill="#00FFFF" id="img-83de7725-7">
  <g transform="translate(310,1055)">
    <circle cx="0" cy="0" r="4" class="primitive"/>
  </g>
</g>
<g fill="#FFA500" id="img-83de7725-8">
  <g transform="translate(130,1040)">
    <circle cx="0" cy="0" r="4" class="primitive"/>
  </g>
</g>
<g fill="#00FFFF" id="img-83de7725-9">
  <g transform="translate(30,1015)">
    <circle cx="0" cy="0" r="4" class="primitive"/>
  </g>
</g>
<g fill="#FFA500" id="img-83de7725-10">
  <g transform="translate(210,583.75)">
    <circle cx="0" cy="0" r="4" class="primitive"/>
  </g>
</g>
<g fill="#00FFFF" id="img-83de7725-11">
  <g transform="translate(150,997.5)">
    <circle cx="0" cy="0" r="4" class="primitive"/>
  </g>
</g>
<g fill="#00FFFF" id="img-83de7725-12">
  <g transform="translate(50,1080)">
    <circle cx="0" cy="0" r="4" class="primitive"/>
  </g>
</g>
<g fill="#00FFFF" id="img-83de7725-13">
  <g transform="translate(250,566.88)">
    <circle cx="0" cy="0" r="4" class="primitive"/>
  </g>
</g>
<g fill="#00FFFF" id="img-83de7725-14">
  <g transform="translate(370,528.23)">
    <circle cx="0" cy="0" r="4" class="primitive"/>
  </g>
</g>
<g fill="#00FFFF" id="img-83de7725-15">
  <g transform="translate(110,1080)">
    <circle cx="0" cy="0" r="4" class="primitive"/>
  </g>
</g>
<g fill="#00FFFF" id="img-83de7725-16">
  <g transform="translate(50,860)">
    <circle cx="0" cy="0" r="4" class="primitive"/>
  </g>
</g>
<g fill="#00FFFF" id="img-83de7725-17">
  <g transform="translate(170,997.5)">
    <circle cx="0" cy="0" r="4" class="primitive"/>
  </g>
</g>
<g fill="#FFA500" id="img-83de7725-18">
  <g transform="translate(10,1045)">
    <circle cx="0" cy="0" r="4" class="primitive"/>
  </g>
</g>
<g fill="#FFA500" id="img-83de7725-19">
  <g transform="translate(10,845)">
    <circle cx="0" cy="0" r="4" class="primitive"/>
  </g>
</g>
<g fill="#00FFFF" id="img-83de7725-20">
  <g transform="translate(30,985)">
    <circle cx="0" cy="0" r="4" class="primitive"/>
  </g>
</g>
<g fill="#FFA500" id="img-83de7725-21">
  <g transform="translate(130,980)">
    <circle cx="0" cy="0" r="4" class="primitive"/>
  </g>
</g>
<g fill="#00FFFF" id="img-83de7725-22">
  <g transform="translate(90,1040)">
    <circle cx="0" cy="0" r="4" class="primitive"/>
  </g>
</g>
<g fill="#FFA500" id="img-83de7725-23">
  <g transform="translate(10,945)">
    <circle cx="0" cy="0" r="4" class="primitive"/>
  </g>
</g>
<g fill="#00FFFF" id="img-83de7725-24">
  <g transform="translate(30,835)">
    <circle cx="0" cy="0" r="4" class="primitive"/>
  </g>
</g>
<g fill="#00FFFF" id="img-83de7725-25">
  <g transform="translate(290,1055)">
    <circle cx="0" cy="0" r="4" class="primitive"/>
  </g>
</g>
<g fill="#00FFFF" id="img-83de7725-26">
  <g transform="translate(70,1060)">
    <circle cx="0" cy="0" r="4" class="primitive"/>
  </g>
</g>
<g fill="#00FFFF" id="img-83de7725-27">
  <g transform="translate(50,1040)">
    <circle cx="0" cy="0" r="4" class="primitive"/>
  </g>
</g>
<g fill="#FFA500" id="img-83de7725-28">
  <g transform="translate(10,975)">
    <circle cx="0" cy="0" r="4" class="primitive"/>
  </g>
</g>
<g fill="#00FFFF" id="img-83de7725-29">
  <g transform="translate(150,1032.5)">
    <circle cx="0" cy="0" r="4" class="primitive"/>
  </g>
</g>
<g fill="#00FFFF" id="img-83de7725-30">
  <g transform="translate(70,960)">
    <circle cx="0" cy="0" r="4" class="primitive"/>
  </g>
</g>
<g fill="#00FF00" id="img-83de7725-31">
  <g transform="translate(10,865)">
    <circle cx="0" cy="0" r="4" class="primitive"/>
  </g>
</g>
<g fill="#00FF00" id="img-83de7725-32">
  <g transform="translate(10,1025)">
    <circle cx="0" cy="0" r="4" class="primitive"/>
  </g>
</g>
<g fill="#00FFFF" id="img-83de7725-33">
  <g transform="translate(110,940)">
    <circle cx="0" cy="0" r="4" class="primitive"/>
  </g>
</g>
<g fill="#00FFFF" id="img-83de7725-34">
  <g transform="translate(90,1080)">
    <circle cx="0" cy="0" r="4" class="primitive"/>
  </g>
</g>
<g fill="#00FF00" id="img-83de7725-35">
  <g transform="translate(10,835)">
    <circle cx="0" cy="0" r="4" class="primitive"/>
  </g>
</g>
<g fill="#00FFFF" id="img-83de7725-36">
  <g transform="translate(210,912.5)">
    <circle cx="0" cy="0" r="4" class="primitive"/>
  </g>
</g>
<g fill="#00FFFF" id="img-83de7725-37">
  <g transform="translate(270,1055)">
    <circle cx="0" cy="0" r="4" class="primitive"/>
  </g>
</g>
<g fill="#FF0000" id="img-83de7725-38">
  <g transform="translate(210,1030)">
    <circle cx="0" cy="0" r="4" class="primitive"/>
  </g>
</g>
<g fill="#00FFFF" id="img-83de7725-39">
  <g transform="translate(110,800)">
    <circle cx="0" cy="0" r="4" class="primitive"/>
  </g>
</g>
<g fill="#00FFFF" id="img-83de7725-40">
  <g transform="translate(190,887.5)">
    <circle cx="0" cy="0" r="4" class="primitive"/>
  </g>
</g>
<g fill="#00FFFF" id="img-83de7725-41">
  <g transform="translate(350,528.23)">
    <circle cx="0" cy="0" r="4" class="primitive"/>
  </g>
</g>
<g fill="#00FFFF" id="img-83de7725-42">
  <g transform="translate(210,457.5)">
    <circle cx="0" cy="0" r="4" class="primitive"/>
  </g>
</g>
<g fill="#00FF00" id="img-83de7725-43">
  <g transform="translate(10,1015)">
    <circle cx="0" cy="0" r="4" class="primitive"/>
  </g>
</g>
<g fill="#00FFFF" id="img-83de7725-44">
  <g transform="translate(250,1055)">
    <circle cx="0" cy="0" r="4" class="primitive"/>
  </g>
</g>
<g fill="#FF0000" id="img-83de7725-45">
  <g transform="translate(110,980)">
    <circle cx="0" cy="0" r="4" class="primitive"/>
  </g>
</g>
<g fill="#FF0000" id="img-83de7725-46">
  <g transform="translate(110,1040)">
    <circle cx="0" cy="0" r="4" class="primitive"/>
  </g>
</g>
<g fill="#00FFFF" id="img-83de7725-47">
  <g transform="translate(110,860)">
    <circle cx="0" cy="0" r="4" class="primitive"/>
  </g>
</g>
<g fill="#00FFFF" id="img-83de7725-48">
  <g transform="translate(90,1060)">
    <circle cx="0" cy="0" r="4" class="primitive"/>
  </g>
</g>
<g fill="#00FFFF" id="img-83de7725-49">
  <g transform="translate(110,880)">
    <circle cx="0" cy="0" r="4" class="primitive"/>
  </g>
</g>
<g fill="#00FFFF" id="img-83de7725-50">
  <g transform="translate(70,1040)">
    <circle cx="0" cy="0" r="4" class="primitive"/>
  </g>
</g>
<g fill="#00FFFF" id="img-83de7725-51">
  <g transform="translate(50,1060)">
    <circle cx="0" cy="0" r="4" class="primitive"/>
  </g>
</g>
<g fill="#00FF00" id="img-83de7725-52">
  <g transform="translate(10,1065)">
    <circle cx="0" cy="0" r="4" class="primitive"/>
  </g>
</g>
<g fill="#00FFFF" id="img-83de7725-53">
  <g transform="translate(170,1032.5)">
    <circle cx="0" cy="0" r="4" class="primitive"/>
  </g>
</g>
<g fill="#00FF00" id="img-83de7725-54">
  <g transform="translate(10,985)">
    <circle cx="0" cy="0" r="4" class="primitive"/>
  </g>
</g>
<g fill="#00FF00" id="img-83de7725-55">
  <g transform="translate(10,1035)">
    <circle cx="0" cy="0" r="4" class="primitive"/>
  </g>
</g>
<g fill="#00FFFF" id="img-83de7725-56">
  <g transform="translate(270,566.88)">
    <circle cx="0" cy="0" r="4" class="primitive"/>
  </g>
</g>
<g fill="#00FFFF" id="img-83de7725-57">
  <g transform="translate(30,1085)">
    <circle cx="0" cy="0" r="4" class="primitive"/>
  </g>
</g>
<g fill="#FF0000" id="img-83de7725-58">
  <g transform="translate(310,598.96)">
    <circle cx="0" cy="0" r="4" class="primitive"/>
  </g>
</g>
<g fill="#00FFFF" id="img-83de7725-59">
  <g transform="translate(70,1080)">
    <circle cx="0" cy="0" r="4" class="primitive"/>
  </g>
</g>
<g fill="#00FFFF" id="img-83de7725-60">
  <g transform="translate(30,865)">
    <circle cx="0" cy="0" r="4" class="primitive"/>
  </g>
</g>
<g fill="#00FFFF" id="img-83de7725-61">
  <g transform="translate(110,840)">
    <circle cx="0" cy="0" r="4" class="primitive"/>
  </g>
</g>
<g fill="#00FFFF" id="img-83de7725-62">
  <g transform="translate(170,887.5)">
    <circle cx="0" cy="0" r="4" class="primitive"/>
  </g>
</g>
<g fill="#00FFFF" id="img-83de7725-63">
  <g transform="translate(30,965)">
    <circle cx="0" cy="0" r="4" class="primitive"/>
  </g>
</g>
<g fill="#00FFFF" id="img-83de7725-64">
  <g transform="translate(30,1025)">
    <circle cx="0" cy="0" r="4" class="primitive"/>
  </g>
</g>
<g fill="#00FFFF" id="img-83de7725-65">
  <g transform="translate(90,980)">
    <circle cx="0" cy="0" r="4" class="primitive"/>
  </g>
</g>
<g fill="#FF0000" id="img-83de7725-66">
  <g transform="translate(190,583.75)">
    <circle cx="0" cy="0" r="4" class="primitive"/>
  </g>
</g>
<g fill="#00FFFF" id="img-83de7725-67">
  <g transform="translate(130,887.5)">
    <circle cx="0" cy="0" r="4" class="primitive"/>
  </g>
</g>
<g fill="#00FF00" id="img-83de7725-68">
  <g transform="translate(10,965)">
    <circle cx="0" cy="0" r="4" class="primitive"/>
  </g>
</g>
<g fill="#00FFFF" id="img-83de7725-69">
  <g transform="translate(70,840)">
    <circle cx="0" cy="0" r="4" class="primitive"/>
  </g>
</g>
<g fill="#00FFFF" id="img-83de7725-70">
  <g transform="translate(50,840)">
    <circle cx="0" cy="0" r="4" class="primitive"/>
  </g>
</g>
<g fill="#00FFFF" id="img-83de7725-71">
  <g transform="translate(390,528.23)">
    <circle cx="0" cy="0" r="4" class="primitive"/>
  </g>
</g>
<g fill="#00FFFF" id="img-83de7725-72">
  <g transform="translate(110,550)">
    <circle cx="0" cy="0" r="4" class="primitive"/>
  </g>
</g>
<g fill="#FFA500" id="img-83de7725-73">
  <g transform="translate(130,770)">
    <circle cx="0" cy="0" r="4" class="primitive"/>
  </g>
</g>
<g fill="#00FFFF" id="img-83de7725-74">
  <g transform="translate(70,980)">
    <circle cx="0" cy="0" r="4" class="primitive"/>
  </g>
</g>
<g fill="#00FFFF" id="img-83de7725-75">
  <g transform="translate(90,960)">
    <circle cx="0" cy="0" r="4" class="primitive"/>
  </g>
</g>
<g fill="#00FFFF" id="img-83de7725-76">
  <g transform="translate(70,940)">
    <circle cx="0" cy="0" r="4" class="primitive"/>
  </g>
</g>
<g fill="#00FFFF" id="img-83de7725-77">
  <g transform="translate(230,566.88)">
    <circle cx="0" cy="0" r="4" class="primitive"/>
  </g>
</g>
<g fill="#FFA500" id="img-83de7725-78">
  <g transform="translate(10,855)">
    <circle cx="0" cy="0" r="4" class="primitive"/>
  </g>
</g>
<g fill="#00FFFF" id="img-83de7725-79">
  <g transform="translate(30,1035)">
    <circle cx="0" cy="0" r="4" class="primitive"/>
  </g>
</g>
<g fill="#00FFFF" id="img-83de7725-80">
  <g transform="translate(90,940)">
    <circle cx="0" cy="0" r="4" class="primitive"/>
  </g>
</g>
<g fill="#00FFFF" id="img-83de7725-81">
  <g transform="translate(50,960)">
    <circle cx="0" cy="0" r="4" class="primitive"/>
  </g>
</g>
<g fill="#00FFFF" id="img-83de7725-82">
  <g transform="translate(190,1032.5)">
    <circle cx="0" cy="0" r="4" class="primitive"/>
  </g>
</g>
<g fill="#FFA500" id="img-83de7725-83">
  <g transform="translate(10,955)">
    <circle cx="0" cy="0" r="4" class="primitive"/>
  </g>
</g>
<g fill="#FFA500" id="img-83de7725-84">
  <g transform="translate(10,1055)">
    <circle cx="0" cy="0" r="4" class="primitive"/>
  </g>
</g>
<g fill="#00FFFF" id="img-83de7725-85">
  <g transform="translate(110,820)">
    <circle cx="0" cy="0" r="4" class="primitive"/>
  </g>
</g>
<g fill="#00FFFF" id="img-83de7725-86">
  <g transform="translate(90,860)">
    <circle cx="0" cy="0" r="4" class="primitive"/>
  </g>
</g>
<g fill="#FFA500" id="img-83de7725-87">
  <g transform="translate(10,1075)">
    <circle cx="0" cy="0" r="4" class="primitive"/>
  </g>
</g>
<g fill="#00FFFF" id="img-83de7725-88">
  <g transform="translate(170,785)">
    <circle cx="0" cy="0" r="4" class="primitive"/>
  </g>
</g>
<g fill="#00FFFF" id="img-83de7725-89">
  <g transform="translate(30,935)">
    <circle cx="0" cy="0" r="4" class="primitive"/>
  </g>
</g>
<g fill="#00FFFF" id="img-83de7725-90">
  <g transform="translate(190,997.5)">
    <circle cx="0" cy="0" r="4" class="primitive"/>
  </g>
</g>
<g fill="#00FFFF" id="img-83de7725-91">
  <g transform="translate(210,785)">
    <circle cx="0" cy="0" r="4" class="primitive"/>
  </g>
</g>
<g fill="#00FFFF" id="img-83de7725-92">
  <g transform="translate(410,528.23)">
    <circle cx="0" cy="0" r="4" class="primitive"/>
  </g>
</g>
<g fill="#00FFFF" id="img-83de7725-93">
  <g transform="translate(90,840)">
    <circle cx="0" cy="0" r="4" class="primitive"/>
  </g>
</g>
<g fill="#00FFFF" id="img-83de7725-94">
  <g transform="translate(190,785)">
    <circle cx="0" cy="0" r="4" class="primitive"/>
  </g>
</g>
<g fill="#FFA500" id="img-83de7725-95">
  <g transform="translate(230,1030)">
    <circle cx="0" cy="0" r="4" class="primitive"/>
  </g>
</g>
<g fill="#00FF00" id="img-83de7725-96">
  <g transform="translate(10,935)">
    <circle cx="0" cy="0" r="4" class="primitive"/>
  </g>
</g>
<g fill="#00FFFF" id="img-83de7725-97">
  <g transform="translate(290,366.88)">
    <circle cx="0" cy="0" r="4" class="primitive"/>
  </g>
</g>
<g fill="#00FFFF" id="img-83de7725-98">
  <g transform="translate(150,887.5)">
    <circle cx="0" cy="0" r="4" class="primitive"/>
  </g>
</g>
<g fill="#00FF00" id="img-83de7725-99">
  <g transform="translate(10,1085)">
    <circle cx="0" cy="0" r="4" class="primitive"/>
  </g>
</g>
<g fill="#FF0000" id="img-83de7725-100">
  <g transform="translate(410,118.23)">
    <circle cx="0" cy="0" r="4" class="primitive"/>
  </g>
</g>
<g fill="#00FFFF" id="img-83de7725-101">
  <g transform="translate(70,860)">
    <circle cx="0" cy="0" r="4" class="primitive"/>
  </g>
</g>
<g fill="#FF0000" id="img-83de7725-102">
  <g transform="translate(110,770)">
    <circle cx="0" cy="0" r="4" class="primitive"/>
  </g>
</g>
<g fill="#00FFFF" id="img-83de7725-103">
  <g transform="translate(50,940)">
    <circle cx="0" cy="0" r="4" class="primitive"/>
  </g>
</g>
<g font-family="futura" font-size="3.53" stroke="#000000" id="img-83de7725-104">
  <g transform="translate(30,1065)">
    <g class="primitive">
      <text text-anchor="middle" dy="-0.85em">go<tspan x="0" dy="1.2em">5,143,538</tspan><tspan x="0" dy="1.2em">0,18,</tspan></text>
    </g>
  </g>
  <g transform="translate(330,598.96)">
    <g class="primitive">
      <text text-anchor="middle" dy="-0.25em">O20-528<tspan x="0" dy="1.2em">62,62,</tspan></text>
    </g>
  </g>
  <g transform="translate(50,980)">
    <g class="primitive">
      <text text-anchor="middle" dy="-0.85em">collect<tspan x="0" dy="1.2em">10,4,229</tspan><tspan x="0" dy="1.2em">11,11,</tspan></text>
    </g>
  </g>
  <g transform="translate(150,785)">
    <g class="primitive">
      <text text-anchor="middle" dy="-0.85em">collect<tspan x="0" dy="1.2em">1,17,118</tspan><tspan x="0" dy="1.2em">46,46,</tspan></text>
    </g>
  </g>
  <g transform="translate(10,895)">
    <g class="primitive">
      <text text-anchor="middle" dy="-0.25em">O10-550<tspan x="0" dy="1.2em">0,0,</tspan></text>
    </g>
  </g>
  <g transform="translate(310,1055)">
    <g class="primitive">
      <text text-anchor="middle" dy="-0.85em">go<tspan x="0" dy="1.2em">8,239,-1</tspan><tspan x="0" dy="1.2em">62,62,</tspan></text>
    </g>
  </g>
  <g transform="translate(130,1040)">
    <g class="primitive">
      <text text-anchor="middle" dy="-0.25em">O14-483<tspan x="0" dy="1.2em">31,31,</tspan></text>
    </g>
  </g>
  <g transform="translate(30,1015)">
    <g class="primitive">
      <text text-anchor="middle" dy="-0.85em">go<tspan x="0" dy="1.2em">2,214,513</tspan><tspan x="0" dy="1.2em">0,14,</tspan></text>
    </g>
  </g>
  <g transform="translate(210,583.75)">
    <g class="primitive">
      <text text-anchor="middle" dy="-0.25em">O19-252<tspan x="0" dy="1.2em">52,52,</tspan></text>
    </g>
  </g>
  <g transform="translate(150,997.5)">
    <g class="primitive">
      <text text-anchor="middle" dy="-0.85em">collect<tspan x="0" dy="1.2em">2,13,513</tspan><tspan x="0" dy="1.2em">32,32,</tspan></text>
    </g>
  </g>
  <g transform="translate(50,1080)">
    <g class="primitive">
      <text text-anchor="middle" dy="-0.85em">collect<tspan x="0" dy="1.2em">8,5,495</tspan><tspan x="0" dy="1.2em">7,7,</tspan></text>
    </g>
  </g>
  <g transform="translate(250,566.88)">
    <g class="primitive">
      <text text-anchor="middle" dy="-0.85em">carry<tspan x="0" dy="1.2em">5,19,234</tspan><tspan x="0" dy="1.2em">52,53,</tspan></text>
    </g>
  </g>
  <g transform="translate(370,528.23)">
    <g class="primitive">
      <text text-anchor="middle" dy="-0.85em">carry<tspan x="0" dy="1.2em">2,20,362</tspan><tspan x="0" dy="1.2em">62,81,</tspan></text>
    </g>
  </g>
  <g transform="translate(110,1080)">
    <g class="primitive">
      <text text-anchor="middle" dy="-0.85em">go<tspan x="0" dy="1.2em">8,336,505</tspan><tspan x="0" dy="1.2em">32,44,</tspan></text>
    </g>
  </g>
  <g transform="translate(50,860)">
    <g class="primitive">
      <text text-anchor="middle" dy="-0.85em">collect<tspan x="0" dy="1.2em">9,11,489</tspan><tspan x="0" dy="1.2em">15,15,</tspan></text>
    </g>
  </g>
  <g transform="translate(170,997.5)">
    <g class="primitive">
      <text text-anchor="middle" dy="-0.85em">carry<tspan x="0" dy="1.2em">2,13,370</tspan><tspan x="0" dy="1.2em">32,41,</tspan></text>
    </g>
  </g>
  <g transform="translate(10,1045)">
    <g class="primitive">
      <text text-anchor="middle" dy="-0.25em">O7-509<tspan x="0" dy="1.2em">0,0,</tspan></text>
    </g>
  </g>
  <g transform="translate(10,845)">
    <g class="primitive">
      <text text-anchor="middle" dy="-0.25em">O16-369<tspan x="0" dy="1.2em">0,0,</tspan></text>
    </g>
  </g>
  <g transform="translate(30,985)">
    <g class="primitive">
      <text text-anchor="middle" dy="-0.85em">go<tspan x="0" dy="1.2em">10,44,229</tspan><tspan x="0" dy="1.2em">0,11,</tspan></text>
    </g>
  </g>
  <g transform="translate(130,980)">
    <g class="primitive">
      <text text-anchor="middle" dy="-0.25em">O13-513<tspan x="0" dy="1.2em">32,32,</tspan></text>
    </g>
  </g>
  <g transform="translate(90,1040)">
    <g class="primitive">
      <text text-anchor="middle" dy="-0.85em">deposit<tspan x="0" dy="1.2em">1,7,68</tspan><tspan x="0" dy="1.2em">31,31,</tspan></text>
    </g>
  </g>
  <g transform="translate(10,945)">
    <g class="primitive">
      <text text-anchor="middle" dy="-0.25em">O15-225<tspan x="0" dy="1.2em">0,0,</tspan></text>
    </g>
  </g>
  <g transform="translate(30,835)">
    <g class="primitive">
      <text text-anchor="middle" dy="-0.85em">go<tspan x="0" dy="1.2em">4,222,369</tspan><tspan x="0" dy="1.2em">0,15,</tspan></text>
    </g>
  </g>
  <g transform="translate(290,1055)">
    <g class="primitive">
      <text text-anchor="middle" dy="-0.85em">deposit<tspan x="0" dy="1.2em">8,18,239</tspan><tspan x="0" dy="1.2em">62,62,</tspan></text>
    </g>
  </g>
  <g transform="translate(70,1060)">
    <g class="primitive">
      <text text-anchor="middle" dy="-0.85em">carry<tspan x="0" dy="1.2em">5,12,354</tspan><tspan x="0" dy="1.2em">18,45,</tspan></text>
    </g>
  </g>
  <g transform="translate(50,1040)">
    <g class="primitive">
      <text text-anchor="middle" dy="-0.85em">collect<tspan x="0" dy="1.2em">1,7,509</tspan><tspan x="0" dy="1.2em">11,11,</tspan></text>
    </g>
  </g>
  <g transform="translate(10,975)">
    <g class="primitive">
      <text text-anchor="middle" dy="-0.25em">O4-229<tspan x="0" dy="1.2em">0,0,</tspan></text>
    </g>
  </g>
  <g transform="translate(150,1032.5)">
    <g class="primitive">
      <text text-anchor="middle" dy="-0.85em">collect<tspan x="0" dy="1.2em">3,14,483</tspan><tspan x="0" dy="1.2em">31,31,</tspan></text>
    </g>
  </g>
  <g transform="translate(70,960)">
    <g class="primitive">
      <text text-anchor="middle" dy="-0.85em">carry<tspan x="0" dy="1.2em">7,3,523</tspan><tspan x="0" dy="1.2em">18,28,</tspan></text>
    </g>
  </g>
  <g transform="translate(10,865)">
    <g class="primitive">
      <text text-anchor="middle" dy="-0.25em">R9-552<tspan x="0" dy="1.2em">0,0,</tspan></text>
    </g>
  </g>
  <g transform="translate(10,1025)">
    <g class="primitive">
      <text text-anchor="middle" dy="-0.25em">R3-269<tspan x="0" dy="1.2em">0,0,</tspan></text>
    </g>
  </g>
  <g transform="translate(110,940)">
    <g class="primitive">
      <text text-anchor="middle" dy="-0.85em">go<tspan x="0" dy="1.2em">6,476,-1</tspan><tspan x="0" dy="1.2em">22,22,</tspan></text>
    </g>
  </g>
  <g transform="translate(90,1080)">
    <g class="primitive">
      <text text-anchor="middle" dy="-0.85em">deposit<tspan x="0" dy="1.2em">8,5,336</tspan><tspan x="0" dy="1.2em">32,32,</tspan></text>
    </g>
  </g>
  <g transform="translate(10,835)">
    <g class="primitive">
      <text text-anchor="middle" dy="-0.25em">R4-363<tspan x="0" dy="1.2em">0,0,</tspan></text>
    </g>
  </g>
  <g transform="translate(210,912.5)">
    <g class="primitive">
      <text text-anchor="middle" dy="-0.85em">go<tspan x="0" dy="1.2em">3,247,-1</tspan><tspan x="0" dy="1.2em">45,45,</tspan></text>
    </g>
  </g>
  <g transform="translate(270,1055)">
    <g class="primitive">
      <text text-anchor="middle" dy="-0.85em">carry<tspan x="0" dy="1.2em">8,18,239</tspan><tspan x="0" dy="1.2em">45,62,</tspan></text>
    </g>
  </g>
  <g transform="translate(210,1030)">
    <g class="primitive">
      <text text-anchor="middle" dy="-0.25em">op25<tspan x="0" dy="1.2em">45,45,</tspan></text>
    </g>
  </g>
  <g transform="translate(110,800)">
    <g class="primitive">
      <text text-anchor="middle" dy="-0.85em">go<tspan x="0" dy="1.2em">1,68,118</tspan><tspan x="0" dy="1.2em">31,46,</tspan></text>
    </g>
  </g>
  <g transform="translate(190,887.5)">
    <g class="primitive">
      <text text-anchor="middle" dy="-0.85em">go<tspan x="0" dy="1.2em">7,230,-1</tspan><tspan x="0" dy="1.2em">52,52,</tspan></text>
    </g>
  </g>
  <g transform="translate(350,528.23)">
    <g class="primitive">
      <text text-anchor="middle" dy="-0.85em">collect<tspan x="0" dy="1.2em">2,20,528</tspan><tspan x="0" dy="1.2em">62,62,</tspan></text>
    </g>
  </g>
  <g transform="translate(210,457.5)">
    <g class="primitive">
      <text text-anchor="middle" dy="-0.85em">go<tspan x="0" dy="1.2em">2,370,528</tspan><tspan x="0" dy="1.2em">41,48,</tspan></text>
    </g>
  </g>
  <g transform="translate(10,1015)">
    <g class="primitive">
      <text text-anchor="middle" dy="-0.25em">R2-353<tspan x="0" dy="1.2em">0,0,</tspan></text>
    </g>
  </g>
  <g transform="translate(250,1055)">
    <g class="primitive">
      <text text-anchor="middle" dy="-0.85em">collect<tspan x="0" dy="1.2em">8,18,505</tspan><tspan x="0" dy="1.2em">45,45,</tspan></text>
    </g>
  </g>
  <g transform="translate(110,980)">
    <g class="primitive">
      <text text-anchor="middle" dy="-0.25em">op31<tspan x="0" dy="1.2em">32,32,</tspan></text>
    </g>
  </g>
  <g transform="translate(110,1040)">
    <g class="primitive">
      <text text-anchor="middle" dy="-0.25em">op29<tspan x="0" dy="1.2em">31,31,</tspan></text>
    </g>
  </g>
  <g transform="translate(110,860)">
    <g class="primitive">
      <text text-anchor="middle" dy="-0.85em">go<tspan x="0" dy="1.2em">9,519,-1</tspan><tspan x="0" dy="1.2em">31,31,</tspan></text>
    </g>
  </g>
  <g transform="translate(90,1060)">
    <g class="primitive">
      <text text-anchor="middle" dy="-0.85em">deposit<tspan x="0" dy="1.2em">5,12,354</tspan><tspan x="0" dy="1.2em">45,45,</tspan></text>
    </g>
  </g>
  <g transform="translate(110,880)">
    <g class="primitive">
      <text text-anchor="middle" dy="-0.85em">go<tspan x="0" dy="1.2em">7,523,550</tspan><tspan x="0" dy="1.2em">28,36,</tspan></text>
    </g>
  </g>
  <g transform="translate(70,1040)">
    <g class="primitive">
      <text text-anchor="middle" dy="-0.85em">carry<tspan x="0" dy="1.2em">1,7,68</tspan><tspan x="0" dy="1.2em">11,31,</tspan></text>
    </g>
  </g>
  <g transform="translate(50,1060)">
    <g class="primitive">
      <text text-anchor="middle" dy="-0.85em">collect<tspan x="0" dy="1.2em">5,12,538</tspan><tspan x="0" dy="1.2em">18,18,</tspan></text>
    </g>
  </g>
  <g transform="translate(10,1065)">
    <g class="primitive">
      <text text-anchor="middle" dy="-0.25em">R5-143<tspan x="0" dy="1.2em">0,0,</tspan></text>
    </g>
  </g>
  <g transform="translate(170,1032.5)">
    <g class="primitive">
      <text text-anchor="middle" dy="-0.85em">carry<tspan x="0" dy="1.2em">3,14,247</tspan><tspan x="0" dy="1.2em">31,45,</tspan></text>
    </g>
  </g>
  <g transform="translate(10,985)">
    <g class="primitive">
      <text text-anchor="middle" dy="-0.25em">R10-44<tspan x="0" dy="1.2em">0,0,</tspan></text>
    </g>
  </g>
  <g transform="translate(10,1035)">
    <g class="primitive">
      <text text-anchor="middle" dy="-0.25em">R1-583<tspan x="0" dy="1.2em">0,0,</tspan></text>
    </g>
  </g>
  <g transform="translate(270,566.88)">
    <g class="primitive">
      <text text-anchor="middle" dy="-0.85em">deposit<tspan x="0" dy="1.2em">5,19,234</tspan><tspan x="0" dy="1.2em">53,53,</tspan></text>
    </g>
  </g>
  <g transform="translate(30,1085)">
    <g class="primitive">
      <text text-anchor="middle" dy="-0.85em">go<tspan x="0" dy="1.2em">8,611,495</tspan><tspan x="0" dy="1.2em">0,7,</tspan></text>
    </g>
  </g>
  <g transform="translate(310,598.96)">
    <g class="primitive">
      <text text-anchor="middle" dy="-0.25em">op23<tspan x="0" dy="1.2em">62,62,</tspan></text>
    </g>
  </g>
  <g transform="translate(70,1080)">
    <g class="primitive">
      <text text-anchor="middle" dy="-0.85em">carry<tspan x="0" dy="1.2em">8,5,336</tspan><tspan x="0" dy="1.2em">7,32,</tspan></text>
    </g>
  </g>
  <g transform="translate(30,865)">
    <g class="primitive">
      <text text-anchor="middle" dy="-0.85em">go<tspan x="0" dy="1.2em">9,539,489</tspan><tspan x="0" dy="1.2em">0,15,</tspan></text>
    </g>
  </g>
  <g transform="translate(110,840)">
    <g class="primitive">
      <text text-anchor="middle" dy="-0.85em">go<tspan x="0" dy="1.2em">4,86,-1</tspan><tspan x="0" dy="1.2em">30,30,</tspan></text>
    </g>
  </g>
  <g transform="translate(170,887.5)">
    <g class="primitive">
      <text text-anchor="middle" dy="-0.85em">deposit<tspan x="0" dy="1.2em">7,10,230</tspan><tspan x="0" dy="1.2em">52,52,</tspan></text>
    </g>
  </g>
  <g transform="translate(30,965)">
    <g class="primitive">
      <text text-anchor="middle" dy="-0.85em">go<tspan x="0" dy="1.2em">7,28,398</tspan><tspan x="0" dy="1.2em">0,18,</tspan></text>
    </g>
  </g>
  <g transform="translate(30,1025)">
    <g class="primitive">
      <text text-anchor="middle" dy="-0.85em">go<tspan x="0" dy="1.2em">3,383,483</tspan><tspan x="0" dy="1.2em">0,6,</tspan></text>
    </g>
  </g>
  <g transform="translate(90,980)">
    <g class="primitive">
      <text text-anchor="middle" dy="-0.85em">deposit<tspan x="0" dy="1.2em">10,4,103</tspan><tspan x="0" dy="1.2em">22,22,</tspan></text>
    </g>
  </g>
  <g transform="translate(190,583.75)">
    <g class="primitive">
      <text text-anchor="middle" dy="-0.25em">op26<tspan x="0" dy="1.2em">52,52,</tspan></text>
    </g>
  </g>
  <g transform="translate(130,887.5)">
    <g class="primitive">
      <text text-anchor="middle" dy="-0.85em">collect<tspan x="0" dy="1.2em">7,10,550</tspan><tspan x="0" dy="1.2em">36,36,</tspan></text>
    </g>
  </g>
  <g transform="translate(10,965)">
    <g class="primitive">
      <text text-anchor="middle" dy="-0.25em">R7-28<tspan x="0" dy="1.2em">0,0,</tspan></text>
    </g>
  </g>
  <g transform="translate(70,840)">
    <g class="primitive">
      <text text-anchor="middle" dy="-0.85em">carry<tspan x="0" dy="1.2em">4,16,86</tspan><tspan x="0" dy="1.2em">15,30,</tspan></text>
    </g>
  </g>
  <g transform="translate(50,840)">
    <g class="primitive">
      <text text-anchor="middle" dy="-0.85em">collect<tspan x="0" dy="1.2em">4,16,369</tspan><tspan x="0" dy="1.2em">15,15,</tspan></text>
    </g>
  </g>
  <g transform="translate(390,528.23)">
    <g class="primitive">
      <text text-anchor="middle" dy="-0.85em">deposit<tspan x="0" dy="1.2em">2,20,362</tspan><tspan x="0" dy="1.2em">81,81,</tspan></text>
    </g>
  </g>
  <g transform="translate(110,550)">
    <g class="primitive">
      <text text-anchor="middle" dy="-0.85em">go<tspan x="0" dy="1.2em">5,354,252</tspan><tspan x="0" dy="1.2em">45,51,</tspan></text>
    </g>
  </g>
  <g transform="translate(130,770)">
    <g class="primitive">
      <text text-anchor="middle" dy="-0.25em">O17-118<tspan x="0" dy="1.2em">30,30,</tspan></text>
    </g>
  </g>
  <g transform="translate(70,980)">
    <g class="primitive">
      <text text-anchor="middle" dy="-0.85em">carry<tspan x="0" dy="1.2em">10,4,103</tspan><tspan x="0" dy="1.2em">11,22,</tspan></text>
    </g>
  </g>
  <g transform="translate(90,960)">
    <g class="primitive">
      <text text-anchor="middle" dy="-0.85em">deposit<tspan x="0" dy="1.2em">7,3,523</tspan><tspan x="0" dy="1.2em">28,28,</tspan></text>
    </g>
  </g>
  <g transform="translate(70,940)">
    <g class="primitive">
      <text text-anchor="middle" dy="-0.85em">carry<tspan x="0" dy="1.2em">6,15,476</tspan><tspan x="0" dy="1.2em">6,22,</tspan></text>
    </g>
  </g>
  <g transform="translate(230,566.88)">
    <g class="primitive">
      <text text-anchor="middle" dy="-0.85em">collect<tspan x="0" dy="1.2em">5,19,252</tspan><tspan x="0" dy="1.2em">52,52,</tspan></text>
    </g>
  </g>
  <g transform="translate(10,855)">
    <g class="primitive">
      <text text-anchor="middle" dy="-0.25em">O11-489<tspan x="0" dy="1.2em">0,0,</tspan></text>
    </g>
  </g>
  <g transform="translate(30,1035)">
    <g class="primitive">
      <text text-anchor="middle" dy="-0.85em">go<tspan x="0" dy="1.2em">1,583,509</tspan><tspan x="0" dy="1.2em">0,11,</tspan></text>
    </g>
  </g>
  <g transform="translate(90,940)">
    <g class="primitive">
      <text text-anchor="middle" dy="-0.85em">deposit<tspan x="0" dy="1.2em">6,15,476</tspan><tspan x="0" dy="1.2em">22,22,</tspan></text>
    </g>
  </g>
  <g transform="translate(50,960)">
    <g class="primitive">
      <text text-anchor="middle" dy="-0.85em">collect<tspan x="0" dy="1.2em">7,3,398</tspan><tspan x="0" dy="1.2em">18,18,</tspan></text>
    </g>
  </g>
  <g transform="translate(190,1032.5)">
    <g class="primitive">
      <text text-anchor="middle" dy="-0.85em">deposit<tspan x="0" dy="1.2em">3,14,247</tspan><tspan x="0" dy="1.2em">45,45,</tspan></text>
    </g>
  </g>
  <g transform="translate(10,955)">
    <g class="primitive">
      <text text-anchor="middle" dy="-0.25em">O3-398<tspan x="0" dy="1.2em">0,0,</tspan></text>
    </g>
  </g>
  <g transform="translate(10,1055)">
    <g class="primitive">
      <text text-anchor="middle" dy="-0.25em">O12-538<tspan x="0" dy="1.2em">0,0,</tspan></text>
    </g>
  </g>
  <g transform="translate(110,820)">
    <g class="primitive">
      <text text-anchor="middle" dy="-0.85em">go<tspan x="0" dy="1.2em">10,103,-1</tspan><tspan x="0" dy="1.2em">22,22,</tspan></text>
    </g>
  </g>
  <g transform="translate(90,860)">
    <g class="primitive">
      <text text-anchor="middle" dy="-0.85em">deposit<tspan x="0" dy="1.2em">9,11,519</tspan><tspan x="0" dy="1.2em">31,31,</tspan></text>
    </g>
  </g>
  <g transform="translate(10,1075)">
    <g class="primitive">
      <text text-anchor="middle" dy="-0.25em">O5-495<tspan x="0" dy="1.2em">0,0,</tspan></text>
    </g>
  </g>
  <g transform="translate(170,785)">
    <g class="primitive">
      <text text-anchor="middle" dy="-0.85em">carry<tspan x="0" dy="1.2em">1,17,379</tspan><tspan x="0" dy="1.2em">46,58,</tspan></text>
    </g>
  </g>
  <g transform="translate(30,935)">
    <g class="primitive">
      <text text-anchor="middle" dy="-0.85em">go<tspan x="0" dy="1.2em">6,196,225</tspan><tspan x="0" dy="1.2em">0,6,</tspan></text>
    </g>
  </g>
  <g transform="translate(190,997.5)">
    <g class="primitive">
      <text text-anchor="middle" dy="-0.85em">deposit<tspan x="0" dy="1.2em">2,13,370</tspan><tspan x="0" dy="1.2em">41,41,</tspan></text>
    </g>
  </g>
  <g transform="translate(210,785)">
    <g class="primitive">
      <text text-anchor="middle" dy="-0.85em">go<tspan x="0" dy="1.2em">1,379,-1</tspan><tspan x="0" dy="1.2em">58,58,</tspan></text>
    </g>
  </g>
  <g transform="translate(410,528.23)">
    <g class="primitive">
      <text text-anchor="middle" dy="-0.85em">go<tspan x="0" dy="1.2em">2,362,-1</tspan><tspan x="0" dy="1.2em">81,81,</tspan></text>
    </g>
  </g>
  <g transform="translate(90,840)">
    <g class="primitive">
      <text text-anchor="middle" dy="-0.85em">deposit<tspan x="0" dy="1.2em">4,16,86</tspan><tspan x="0" dy="1.2em">30,30,</tspan></text>
    </g>
  </g>
  <g transform="translate(190,785)">
    <g class="primitive">
      <text text-anchor="middle" dy="-0.85em">deposit<tspan x="0" dy="1.2em">1,17,379</tspan><tspan x="0" dy="1.2em">58,58,</tspan></text>
    </g>
  </g>
  <g transform="translate(230,1030)">
    <g class="primitive">
      <text text-anchor="middle" dy="-0.25em">O18-505<tspan x="0" dy="1.2em">45,45,</tspan></text>
    </g>
  </g>
  <g transform="translate(10,935)">
    <g class="primitive">
      <text text-anchor="middle" dy="-0.25em">R6-224<tspan x="0" dy="1.2em">0,0,</tspan></text>
    </g>
  </g>
  <g transform="translate(290,366.88)">
    <g class="primitive">
      <text text-anchor="middle" dy="-0.85em">go<tspan x="0" dy="1.2em">5,234,-1</tspan><tspan x="0" dy="1.2em">53,53,</tspan></text>
    </g>
  </g>
  <g transform="translate(150,887.5)">
    <g class="primitive">
      <text text-anchor="middle" dy="-0.85em">carry<tspan x="0" dy="1.2em">7,10,230</tspan><tspan x="0" dy="1.2em">36,52,</tspan></text>
    </g>
  </g>
  <g transform="translate(10,1085)">
    <g class="primitive">
      <text text-anchor="middle" dy="-0.25em">R8-611<tspan x="0" dy="1.2em">0,0,</tspan></text>
    </g>
  </g>
  <g transform="translate(410,118.23)">
    <g class="primitive">
      <text text-anchor="middle" dy="-0.25em">op33<tspan x="0" dy="1.2em">81,81,</tspan></text>
    </g>
  </g>
  <g transform="translate(70,860)">
    <g class="primitive">
      <text text-anchor="middle" dy="-0.85em">carry<tspan x="0" dy="1.2em">9,11,519</tspan><tspan x="0" dy="1.2em">15,31,</tspan></text>
    </g>
  </g>
  <g transform="translate(110,770)">
    <g class="primitive">
      <text text-anchor="middle" dy="-0.25em">op24<tspan x="0" dy="1.2em">30,30,</tspan></text>
    </g>
  </g>
  <g transform="translate(50,940)">
    <g class="primitive">
      <text text-anchor="middle" dy="-0.85em">collect<tspan x="0" dy="1.2em">6,15,225</tspan><tspan x="0" dy="1.2em">6,6,</tspan></text>
    </g>
  </g>
</g>
</svg>
