<?xml version="1.0" encoding="UTF-8"?>
<svg xmlns="http://www.w3.org/2000/svg"
     xmlns:xlink="http://www.w3.org/1999/xlink"
     xmlns:gadfly="http://www.gadflyjl.org/ns"
     version="1.2"
     width="220mm" height="100mm" viewBox="0 0 220 100"
     stroke="none"
     fill="#000000"
     stroke-width="0.3"
     font-size="3.88"
>
<defs>
  <marker id="arrow" markerWidth="15" markerHeight="7" refX="5" refY="3.5" orient="auto" markerUnits="strokeWidth">
    <path d="M0,0 L15,3.5 L0,7 z" stroke="context-stroke" fill="context-stroke"/>
  </marker>
</defs>
<g stroke="#000000" id="img-663c6a58-1">
  <g transform="translate(120,47.5)">
    <path fill="none" d="M-5.6,0 L 5.6 0" class="primitive"/>
  </g>
  <g transform="translate(60,65)">
    <path fill="none" d="M-5.6,0 L 5.6 0" class="primitive"/>
  </g>
  <g transform="translate(140,47.5)">
    <path fill="none" d="M-5.6,0 L 5.6 0" class="primitive"/>
  </g>
  <g transform="translate(20,65)">
    <path fill="none" d="M-5.6,0 L 5.6 0" class="primitive"/>
  </g>
  <g transform="translate(20,75)">
    <path fill="none" d="M-5.6,0 L 5.6 0" class="primitive"/>
  </g>
  <g transform="translate(180,47.5)">
    <path fill="none" d="M-5.6,0 L 5.6 0" class="primitive"/>
  </g>
  <g transform="translate(60,80)">
    <path fill="none" d="M-5.6,0 L 5.6 0" class="primitive"/>
  </g>
  <g transform="translate(90,56.25)">
    <path fill="none" d="M-16.69,7.3 L 16.69 -7.3" class="primitive"/>
  </g>
  <g transform="translate(80,65)">
    <path fill="none" d="M-5.6,0 L 5.6 0" class="primitive"/>
  </g>
  <g transform="translate(160,47.5)">
    <path fill="none" d="M-5.6,0 L 5.6 0" class="primitive"/>
  </g>
  <g transform="translate(100,63.75)">
    <path fill="none" d="M-8.71,14.15 L 8.71 -14.15" class="primitive"/>
  </g>
  <g transform="translate(100,80)">
    <path fill="none" d="M-5.6,0 L 5.6 0" class="primitive"/>
  </g>
  <g transform="translate(40,65)">
    <path fill="none" d="M-5.6,0 L 5.6 0" class="primitive"/>
  </g>
  <g transform="translate(200,47.5)">
    <path fill="none" d="M-5.6,0 L 5.6 0" class="primitive"/>
  </g>
  <g transform="translate(200,32.5)">
    <path fill="none" d="M-8.61,12.91 L 8.61 -12.91" class="primitive"/>
  </g>
  <g transform="translate(30,82.5)">
    <path fill="none" d="M-15.73,1.97 L 15.73 -1.97" class="primitive"/>
  </g>
  <g transform="translate(20,95)">
    <path fill="none" d="M-5.6,0 L 5.6 0" class="primitive"/>
  </g>
  <g transform="translate(40,95)">
    <path fill="none" d="M-5.6,0 L 5.6 0" class="primitive"/>
  </g>
  <g transform="translate(40,77.5)">
    <path fill="none" d="M-6.06,-1.52 L 6.06 1.52" class="primitive"/>
  </g>
  <g transform="translate(80,80)">
    <path fill="none" d="M-5.6,0 L 5.6 0" class="primitive"/>
  </g>
</g>
<g fill="#00FFFF" id="img-663c6a58-2">
  <g transform="translate(50,95)">
    <circle cx="0" cy="0" r="4" class="primitive"/>
  </g>
</g>
<g fill="#FF0000" id="img-663c6a58-3">
  <g transform="translate(110,47.5)">
    <circle cx="0" cy="0" r="4" class="primitive"/>
  </g>
</g>
<g fill="#00FFFF" id="img-663c6a58-4">
  <g transform="translate(50,65)">
    <circle cx="0" cy="0" r="4" class="primitive"/>
  </g>
</g>
<g fill="#00FFFF" id="img-663c6a58-5">
  <g transform="translate(110,80)">
    <circle cx="0" cy="0" r="4" class="primitive"/>
  </g>
</g>
<g fill="#FFA500" id="img-663c6a58-6">
  <g transform="translate(130,47.5)">
    <circle cx="0" cy="0" r="4" class="primitive"/>
  </g>
</g>
<g fill="#FFA500" id="img-663c6a58-7">
  <g transform="translate(10,65)">
    <circle cx="0" cy="0" r="4" class="primitive"/>
  </g>
</g>
<g fill="#00FF00" id="img-663c6a58-8">
  <g transform="translate(10,75)">
    <circle cx="0" cy="0" r="4" class="primitive"/>
  </g>
</g>
<g fill="#00FFFF" id="img-663c6a58-9">
  <g transform="translate(90,65)">
    <circle cx="0" cy="0" r="4" class="primitive"/>
  </g>
</g>
<g fill="#00FFFF" id="img-663c6a58-10">
  <g transform="translate(170,47.5)">
    <circle cx="0" cy="0" r="4" class="primitive"/>
  </g>
</g>
<g fill="#00FFFF" id="img-663c6a58-11">
  <g transform="translate(50,80)">
    <circle cx="0" cy="0" r="4" class="primitive"/>
  </g>
</g>
<g fill="#00FFFF" id="img-663c6a58-12">
  <g transform="translate(210,47.5)">
    <circle cx="0" cy="0" r="4" class="primitive"/>
  </g>
</g>
<g fill="#00FFFF" id="img-663c6a58-13">
  <g transform="translate(70,65)">
    <circle cx="0" cy="0" r="4" class="primitive"/>
  </g>
</g>
<g fill="#00FFFF" id="img-663c6a58-14">
  <g transform="translate(150,47.5)">
    <circle cx="0" cy="0" r="4" class="primitive"/>
  </g>
</g>
<g fill="#00FFFF" id="img-663c6a58-15">
  <g transform="translate(90,80)">
    <circle cx="0" cy="0" r="4" class="primitive"/>
  </g>
</g>
<g fill="#00FFFF" id="img-663c6a58-16">
  <g transform="translate(30,65)">
    <circle cx="0" cy="0" r="4" class="primitive"/>
  </g>
</g>
<g fill="#00FFFF" id="img-663c6a58-17">
  <g transform="translate(190,47.5)">
    <circle cx="0" cy="0" r="4" class="primitive"/>
  </g>
</g>
<g fill="#FFA500" id="img-663c6a58-18">
  <g transform="translate(10,85)">
    <circle cx="0" cy="0" r="4" class="primitive"/>
  </g>
</g>
<g fill="#00FF00" id="img-663c6a58-19">
  <g transform="translate(10,95)">
    <circle cx="0" cy="0" r="4" class="primitive"/>
  </g>
</g>
<g fill="#00FFFF" id="img-663c6a58-20">
  <g transform="translate(30,95)">
    <circle cx="0" cy="0" r="4" class="primitive"/>
  </g>
</g>
<g fill="#00FFFF" id="img-663c6a58-21">
  <g transform="translate(30,75)">
    <circle cx="0" cy="0" r="4" class="primitive"/>
  </g>
</g>
<g fill="#00FFFF" id="img-663c6a58-22">
  <g transform="translate(70,80)">
    <circle cx="0" cy="0" r="4" class="primitive"/>
  </g>
</g>
<g fill="#FF0000" id="img-663c6a58-23">
  <g transform="translate(210,17.5)">
    <circle cx="0" cy="0" r="4" class="primitive"/>
  </g>
</g>
<g font-family="futura" font-size="3.53" stroke="#000000" id="img-663c6a58-24">
  <g transform="translate(50,95)">
    <g class="primitive">
      <text text-anchor="middle" dy="-0.85em">go<tspan x="0" dy="1.2em">2,65,-1</tspan><tspan x="0" dy="1.2em">10,12</tspan></text>
    </g>
  </g>
  <g transform="translate(110,47.5)">
    <g class="primitive">
      <text text-anchor="middle" dy="-0.25em">op2745<tspan x="0" dy="1.2em">23,23</tspan></text>
    </g>
  </g>
  <g transform="translate(50,65)">
    <g class="primitive">
      <text text-anchor="middle" dy="-0.85em">carry<tspan x="0" dy="1.2em">-1,2,50</tspan><tspan x="0" dy="1.2em">12,23</tspan></text>
    </g>
  </g>
  <g transform="translate(110,80)">
    <g class="primitive">
      <text text-anchor="middle" dy="-0.85em">go<tspan x="0" dy="1.2em">1,126,-1</tspan><tspan x="0" dy="1.2em">18,23</tspan></text>
    </g>
  </g>
  <g transform="translate(130,47.5)">
    <g class="primitive">
      <text text-anchor="middle" dy="-0.25em">O3-60<tspan x="0" dy="1.2em">23,23</tspan></text>
    </g>
  </g>
  <g transform="translate(10,65)">
    <g class="primitive">
      <text text-anchor="middle" dy="-0.25em">O2-45<tspan x="0" dy="1.2em">0,0</tspan></text>
    </g>
  </g>
  <g transform="translate(10,75)">
    <g class="primitive">
      <text text-anchor="middle" dy="-0.25em">R1-150<tspan x="0" dy="1.2em">0,0</tspan></text>
    </g>
  </g>
  <g transform="translate(90,65)">
    <g class="primitive">
      <text text-anchor="middle" dy="-0.85em">go<tspan x="0" dy="1.2em">-1,50,-1</tspan><tspan x="0" dy="1.2em">23,25</tspan></text>
    </g>
  </g>
  <g transform="translate(170,47.5)">
    <g class="primitive">
      <text text-anchor="middle" dy="-0.85em">carry<tspan x="0" dy="1.2em">-1,3,73</tspan><tspan x="0" dy="1.2em">23,25</tspan></text>
    </g>
  </g>
  <g transform="translate(50,80)">
    <g class="primitive">
      <text text-anchor="middle" dy="-0.85em">collect<tspan x="0" dy="1.2em">1,1,39</tspan><tspan x="0" dy="1.2em">10,10</tspan></text>
    </g>
  </g>
  <g transform="translate(210,47.5)">
    <g class="primitive">
      <text text-anchor="middle" dy="-0.85em">go<tspan x="0" dy="1.2em">-1,73,-1</tspan><tspan x="0" dy="1.2em">25,25</tspan></text>
    </g>
  </g>
  <g transform="translate(70,65)">
    <g class="primitive">
      <text text-anchor="middle" dy="-0.85em">deposit<tspan x="0" dy="1.2em">-1,2,50</tspan><tspan x="0" dy="1.2em">23,23</tspan></text>
    </g>
  </g>
  <g transform="translate(150,47.5)">
    <g class="primitive">
      <text text-anchor="middle" dy="-0.85em">collect<tspan x="0" dy="1.2em">-1,3,60</tspan><tspan x="0" dy="1.2em">23,23</tspan></text>
    </g>
  </g>
  <g transform="translate(90,80)">
    <g class="primitive">
      <text text-anchor="middle" dy="-0.85em">deposit<tspan x="0" dy="1.2em">1,1,126</tspan><tspan x="0" dy="1.2em">18,18</tspan></text>
    </g>
  </g>
  <g transform="translate(30,65)">
    <g class="primitive">
      <text text-anchor="middle" dy="-0.85em">collect<tspan x="0" dy="1.2em">-1,2,45</tspan><tspan x="0" dy="1.2em">12,12</tspan></text>
    </g>
  </g>
  <g transform="translate(190,47.5)">
    <g class="primitive">
      <text text-anchor="middle" dy="-0.85em">deposit<tspan x="0" dy="1.2em">-1,3,73</tspan><tspan x="0" dy="1.2em">25,25</tspan></text>
    </g>
  </g>
  <g transform="translate(10,85)">
    <g class="primitive">
      <text text-anchor="middle" dy="-0.25em">O1-39<tspan x="0" dy="1.2em">0,0</tspan></text>
    </g>
  </g>
  <g transform="translate(10,95)">
    <g class="primitive">
      <text text-anchor="middle" dy="-0.25em">R2-171<tspan x="0" dy="1.2em">0,0</tspan></text>
    </g>
  </g>
  <g transform="translate(30,95)">
    <g class="primitive">
      <text text-anchor="middle" dy="-0.85em">go<tspan x="0" dy="1.2em">2,171,65</tspan><tspan x="0" dy="1.2em">0,10</tspan></text>
    </g>
  </g>
  <g transform="translate(30,75)">
    <g class="primitive">
      <text text-anchor="middle" dy="-0.85em">go<tspan x="0" dy="1.2em">1,150,39</tspan><tspan x="0" dy="1.2em">0,10</tspan></text>
    </g>
  </g>
  <g transform="translate(70,80)">
    <g class="primitive">
      <text text-anchor="middle" dy="-0.85em">carry<tspan x="0" dy="1.2em">1,1,126</tspan><tspan x="0" dy="1.2em">10,18</tspan></text>
    </g>
  </g>
  <g transform="translate(210,17.5)">
    <g class="primitive">
      <text text-anchor="middle" dy="-0.25em">op2746<tspan x="0" dy="1.2em">25,25</tspan></text>
    </g>
  </g>
</g>
</svg>
