<?xml version="1.0" encoding="UTF-8"?>
<svg xmlns="http://www.w3.org/2000/svg"
     xmlns:xlink="http://www.w3.org/1999/xlink"
     xmlns:gadfly="http://www.gadflyjl.org/ns"
     version="1.2"
     width="440mm" height="301.11mm" viewBox="0 0 440 301.11"
     stroke="none"
     fill="#000000"
     stroke-width="0.3"
     font-size="3.88"
>
<defs>
  <marker id="arrow" markerWidth="15" markerHeight="7" refX="5" refY="3.5" orient="auto" markerUnits="strokeWidth">
    <path d="M0,0 L15,3.5 L0,7 z" stroke="context-stroke" fill="context-stroke"/>
  </marker>
</defs>
<g stroke="#000000" id="img-5b44d20c-1">
  <g transform="translate(30,47.22)">
    <path fill="none" d="M-5.6,0 L 5.6 0" class="primitive"/>
  </g>
  <g transform="translate(30,128.89)">
    <path fill="none" d="M-5.6,0 L 5.6 0" class="primitive"/>
  </g>
  <g transform="translate(30,10)">
    <path fill="none" d="M-5.6,0 L 5.6 0" class="primitive"/>
  </g>
  <g transform="translate(30,110)">
    <path fill="none" d="M-5.6,0 L 5.6 0" class="primitive"/>
  </g>
  <g transform="translate(30,147.78)">
    <path fill="none" d="M-5.6,0 L 5.6 0" class="primitive"/>
  </g>
  <g transform="translate(30,87.22)">
    <path fill="none" d="M-5.6,0 L 5.6 0" class="primitive"/>
  </g>
  <g transform="translate(30,30.56)">
    <path fill="none" d="M-5.6,0 L 5.6 0" class="primitive"/>
  </g>
  <g transform="translate(30,65)">
    <path fill="none" d="M-5.6,0 L 5.6 0" class="primitive"/>
  </g>
  <g transform="translate(410,288.61)">
    <path fill="none" d="M-6.06,-1.52 L 6.06 1.52" class="primitive"/>
  </g>
  <g transform="translate(410,283.61)">
    <path fill="none" d="M-6.06,1.52 L 6.06 -1.52" class="primitive"/>
  </g>
  <g transform="translate(390,286.11)">
    <path fill="none" d="M-5.6,0 L 5.6 0" class="primitive"/>
  </g>
  <g transform="translate(370,286.11)">
    <path fill="none" d="M-5.6,0 L 5.6 0" class="primitive"/>
  </g>
  <g transform="translate(110,119.17)">
    <path fill="none" d="M-9.6,-51.98 L 9.6 51.98" class="primitive"/>
  </g>
  <g transform="translate(110,133.33)">
    <path fill="none" d="M-9.68,-66.14 L 9.68 66.14" class="primitive"/>
  </g>
  <g transform="translate(90,65)">
    <path fill="none" d="M-5.6,0 L 5.6 0" class="primitive"/>
  </g>
  <g transform="translate(70,65)">
    <path fill="none" d="M-5.6,0 L 5.6 0" class="primitive"/>
  </g>
  <g transform="translate(110,105.28)">
    <path fill="none" d="M-9.62,-55.86 L 9.62 55.86" class="primitive"/>
  </g>
  <g transform="translate(110,124.44)">
    <path fill="none" d="M-9.72,-75.03 L 9.72 75.03" class="primitive"/>
  </g>
  <g transform="translate(90,47.22)">
    <path fill="none" d="M-5.6,0 L 5.6 0" class="primitive"/>
  </g>
  <g transform="translate(70,47.22)">
    <path fill="none" d="M-5.6,0 L 5.6 0" class="primitive"/>
  </g>
  <g transform="translate(110,81.67)">
    <path fill="none" d="M-9.69,-69.47 L 9.69 69.47" class="primitive"/>
  </g>
  <g transform="translate(110,98.06)">
    <path fill="none" d="M-9.75,-85.86 L 9.75 85.86" class="primitive"/>
  </g>
  <g transform="translate(90,10)">
    <path fill="none" d="M-5.6,0 L 5.6 0" class="primitive"/>
  </g>
  <g transform="translate(70,10)">
    <path fill="none" d="M-5.6,0 L 5.6 0" class="primitive"/>
  </g>
  <g transform="translate(110,145.56)">
    <path fill="none" d="M-5.98,1.33 L 5.98 -1.33" class="primitive"/>
  </g>
  <g transform="translate(110,193.61)">
    <path fill="none" d="M-9.52,-43.65 L 9.52 43.65" class="primitive"/>
  </g>
  <g transform="translate(90,147.78)">
    <path fill="none" d="M-5.6,0 L 5.6 0" class="primitive"/>
  </g>
  <g transform="translate(70,147.78)">
    <path fill="none" d="M-5.6,0 L 5.6 0" class="primitive"/>
  </g>
  <g transform="translate(110,126.67)">
    <path fill="none" d="M-5.98,1.33 L 5.98 -1.33" class="primitive"/>
  </g>
  <g transform="translate(110,184.17)">
    <path fill="none" d="M-9.6,-53.09 L 9.6 53.09" class="primitive"/>
  </g>
  <g transform="translate(90,128.89)">
    <path fill="none" d="M-5.6,0 L 5.6 0" class="primitive"/>
  </g>
  <g transform="translate(70,128.89)">
    <path fill="none" d="M-5.6,0 L 5.6 0" class="primitive"/>
  </g>
  <g transform="translate(110,107.78)">
    <path fill="none" d="M-5.98,1.33 L 5.98 -1.33" class="primitive"/>
  </g>
  <g transform="translate(110,174.72)">
    <path fill="none" d="M-9.66,-62.53 L 9.66 62.53" class="primitive"/>
  </g>
  <g transform="translate(90,110)">
    <path fill="none" d="M-5.6,0 L 5.6 0" class="primitive"/>
  </g>
  <g transform="translate(70,110)">
    <path fill="none" d="M-5.6,0 L 5.6 0" class="primitive"/>
  </g>
  <g transform="translate(210,241.94)">
    <path fill="none" d="M-6.06,-1.52 L 6.06 1.52" class="primitive"/>
  </g>
  <g transform="translate(210,256.94)">
    <path fill="none" d="M-8.79,-15.38 L 8.79 15.38" class="primitive"/>
  </g>
  <g transform="translate(190,239.44)">
    <path fill="none" d="M-5.6,0 L 5.6 0" class="primitive"/>
  </g>
  <g transform="translate(170,239.44)">
    <path fill="none" d="M-5.6,0 L 5.6 0" class="primitive"/>
  </g>
  <g transform="translate(110,83.06)">
    <path fill="none" d="M-6.62,2.76 L 6.62 -2.76" class="primitive"/>
  </g>
  <g transform="translate(110,152.5)">
    <path fill="none" d="M-9.66,-63.08 L 9.66 63.08" class="primitive"/>
  </g>
  <g transform="translate(90,87.22)">
    <path fill="none" d="M-5.6,0 L 5.6 0" class="primitive"/>
  </g>
  <g transform="translate(70,87.22)">
    <path fill="none" d="M-5.6,0 L 5.6 0" class="primitive"/>
  </g>
  <g transform="translate(210,218.06)">
    <path fill="none" d="M-8.72,-14.28 L 8.72 14.28" class="primitive"/>
  </g>
  <g transform="translate(210,229.72)">
    <path fill="none" d="M-9.23,-25.89 L 9.23 25.89" class="primitive"/>
  </g>
  <g transform="translate(190,201.67)">
    <path fill="none" d="M-5.6,0 L 5.6 0" class="primitive"/>
  </g>
  <g transform="translate(170,201.67)">
    <path fill="none" d="M-5.6,0 L 5.6 0" class="primitive"/>
  </g>
  <g transform="translate(110,29.17)">
    <path fill="none" d="M-5.76,0.8 L 5.76 -0.8" class="primitive"/>
  </g>
  <g transform="translate(160,144.17)">
    <path fill="none" d="M-58.88,-111.48 L 58.88 111.48" class="primitive"/>
  </g>
  <g transform="translate(90,30.56)">
    <path fill="none" d="M-5.6,0 L 5.6 0" class="primitive"/>
  </g>
  <g transform="translate(70,30.56)">
    <path fill="none" d="M-5.6,0 L 5.6 0" class="primitive"/>
  </g>
  <g transform="translate(210,205.28)">
    <path fill="none" d="M-8.89,-17.04 L 8.89 17.04" class="primitive"/>
  </g>
  <g transform="translate(210,221.94)">
    <path fill="none" d="M-9.39,-33.65 L 9.39 33.65" class="primitive"/>
  </g>
  <g transform="translate(190,186.11)">
    <path fill="none" d="M-5.6,0 L 5.6 0" class="primitive"/>
  </g>
  <g transform="translate(170,186.11)">
    <path fill="none" d="M-5.6,0 L 5.6 0" class="primitive"/>
  </g>
  <g transform="translate(310,272.78)">
    <path fill="none" d="M-5.83,0.97 L 5.83 -0.97" class="primitive"/>
  </g>
  <g transform="translate(310,280.28)">
    <path fill="none" d="M-7.14,-4.16 L 7.14 4.16" class="primitive"/>
  </g>
  <g transform="translate(290,274.44)">
    <path fill="none" d="M-5.6,0 L 5.6 0" class="primitive"/>
  </g>
  <g transform="translate(270,274.44)">
    <path fill="none" d="M-5.6,0 L 5.6 0" class="primitive"/>
  </g>
  <g transform="translate(210,216.11)">
    <path fill="none" d="M-5.83,0.97 L 5.83 -0.97" class="primitive"/>
  </g>
  <g transform="translate(260,251.94)">
    <path fill="none" d="M-57.1,-32.51 L 57.1 32.51" class="primitive"/>
  </g>
  <g transform="translate(190,217.78)">
    <path fill="none" d="M-5.6,0 L 5.6 0" class="primitive"/>
  </g>
  <g transform="translate(170,217.78)">
    <path fill="none" d="M-5.6,0 L 5.6 0" class="primitive"/>
  </g>
  <g transform="translate(310,256.11)">
    <path fill="none" d="M-5.83,0.97 L 5.83 -0.97" class="primitive"/>
  </g>
  <g transform="translate(310,271.94)">
    <path fill="none" d="M-8.54,-12.09 L 8.54 12.09" class="primitive"/>
  </g>
  <g transform="translate(290,257.78)">
    <path fill="none" d="M-5.6,0 L 5.6 0" class="primitive"/>
  </g>
  <g transform="translate(270,257.78)">
    <path fill="none" d="M-5.6,0 L 5.6 0" class="primitive"/>
  </g>
  <g transform="translate(350,286.11)">
    <path fill="none" d="M-5.6,0 L 5.6 0" class="primitive"/>
  </g>
  <g transform="translate(250,274.44)">
    <path fill="none" d="M-5.6,0 L 5.6 0" class="primitive"/>
  </g>
  <g transform="translate(150,217.78)">
    <path fill="none" d="M-5.6,0 L 5.6 0" class="primitive"/>
  </g>
  <g transform="translate(250,257.78)">
    <path fill="none" d="M-5.6,0 L 5.6 0" class="primitive"/>
  </g>
  <g transform="translate(150,201.67)">
    <path fill="none" d="M-5.6,0 L 5.6 0" class="primitive"/>
  </g>
  <g transform="translate(50,30.56)">
    <path fill="none" d="M-5.6,0 L 5.6 0" class="primitive"/>
  </g>
  <g transform="translate(150,186.11)">
    <path fill="none" d="M-5.6,0 L 5.6 0" class="primitive"/>
  </g>
  <g transform="translate(50,87.22)">
    <path fill="none" d="M-5.6,0 L 5.6 0" class="primitive"/>
  </g>
  <g transform="translate(150,239.44)">
    <path fill="none" d="M-5.6,0 L 5.6 0" class="primitive"/>
  </g>
  <g transform="translate(50,147.78)">
    <path fill="none" d="M-5.6,0 L 5.6 0" class="primitive"/>
  </g>
  <g transform="translate(50,128.89)">
    <path fill="none" d="M-5.6,0 L 5.6 0" class="primitive"/>
  </g>
  <g transform="translate(50,110)">
    <path fill="none" d="M-5.6,0 L 5.6 0" class="primitive"/>
  </g>
  <g transform="translate(50,10)">
    <path fill="none" d="M-5.6,0 L 5.6 0" class="primitive"/>
  </g>
  <g transform="translate(50,65)">
    <path fill="none" d="M-5.6,0 L 5.6 0" class="primitive"/>
  </g>
  <g transform="translate(50,47.22)">
    <path fill="none" d="M-5.6,0 L 5.6 0" class="primitive"/>
  </g>
  <g transform="translate(130,201.67)">
    <path fill="none" d="M-5.6,0 L 5.6 0" class="primitive"/>
  </g>
  <g transform="translate(130,186.11)">
    <path fill="none" d="M-5.6,0 L 5.6 0" class="primitive"/>
  </g>
  <g transform="translate(130,239.44)">
    <path fill="none" d="M-5.6,0 L 5.6 0" class="primitive"/>
  </g>
  <g transform="translate(230,274.44)">
    <path fill="none" d="M-5.6,0 L 5.6 0" class="primitive"/>
  </g>
  <g transform="translate(130,217.78)">
    <path fill="none" d="M-5.6,0 L 5.6 0" class="primitive"/>
  </g>
  <g transform="translate(230,257.78)">
    <path fill="none" d="M-5.6,0 L 5.6 0" class="primitive"/>
  </g>
  <g transform="translate(330,286.11)">
    <path fill="none" d="M-5.6,0 L 5.6 0" class="primitive"/>
  </g>
</g>
<g fill="#FF0000" id="img-5b44d20c-2">
  <g transform="translate(20,47.22)">
    <circle cx="0" cy="0" r="4" class="primitive"/>
  </g>
</g>
<g fill="#FF0000" id="img-5b44d20c-3">
  <g transform="translate(20,128.89)">
    <circle cx="0" cy="0" r="4" class="primitive"/>
  </g>
</g>
<g fill="#FF0000" id="img-5b44d20c-4">
  <g transform="translate(20,10)">
    <circle cx="0" cy="0" r="4" class="primitive"/>
  </g>
</g>
<g fill="#FF0000" id="img-5b44d20c-5">
  <g transform="translate(20,110)">
    <circle cx="0" cy="0" r="4" class="primitive"/>
  </g>
</g>
<g fill="#FF0000" id="img-5b44d20c-6">
  <g transform="translate(20,147.78)">
    <circle cx="0" cy="0" r="4" class="primitive"/>
  </g>
</g>
<g fill="#FF0000" id="img-5b44d20c-7">
  <g transform="translate(20,87.22)">
    <circle cx="0" cy="0" r="4" class="primitive"/>
  </g>
</g>
<g fill="#FF0000" id="img-5b44d20c-8">
  <g transform="translate(20,30.56)">
    <circle cx="0" cy="0" r="4" class="primitive"/>
  </g>
</g>
<g fill="#FF0000" id="img-5b44d20c-9">
  <g transform="translate(20,65)">
    <circle cx="0" cy="0" r="4" class="primitive"/>
  </g>
</g>
<g fill="#00FFFF" id="img-5b44d20c-10">
  <g transform="translate(420,291.11)">
    <circle cx="0" cy="0" r="4" class="primitive"/>
  </g>
</g>
<g fill="#00FFFF" id="img-5b44d20c-11">
  <g transform="translate(400,286.11)">
    <circle cx="0" cy="0" r="4" class="primitive"/>
  </g>
</g>
<g fill="#00FFFF" id="img-5b44d20c-12">
  <g transform="translate(380,286.11)">
    <circle cx="0" cy="0" r="4" class="primitive"/>
  </g>
</g>
<g fill="#00FFFF" id="img-5b44d20c-13">
  <g transform="translate(360,286.11)">
    <circle cx="0" cy="0" r="4" class="primitive"/>
  </g>
</g>
<g fill="#00FFFF" id="img-5b44d20c-14">
  <g transform="translate(120,173.33)">
    <circle cx="0" cy="0" r="4" class="primitive"/>
  </g>
</g>
<g fill="#00FFFF" id="img-5b44d20c-15">
  <g transform="translate(100,65)">
    <circle cx="0" cy="0" r="4" class="primitive"/>
  </g>
</g>
<g fill="#00FFFF" id="img-5b44d20c-16">
  <g transform="translate(80,65)">
    <circle cx="0" cy="0" r="4" class="primitive"/>
  </g>
</g>
<g fill="#00FFFF" id="img-5b44d20c-17">
  <g transform="translate(60,65)">
    <circle cx="0" cy="0" r="4" class="primitive"/>
  </g>
</g>
<g fill="#00FFFF" id="img-5b44d20c-18">
  <g transform="translate(120,163.33)">
    <circle cx="0" cy="0" r="4" class="primitive"/>
  </g>
</g>
<g fill="#00FFFF" id="img-5b44d20c-19">
  <g transform="translate(100,47.22)">
    <circle cx="0" cy="0" r="4" class="primitive"/>
  </g>
</g>
<g fill="#00FFFF" id="img-5b44d20c-20">
  <g transform="translate(80,47.22)">
    <circle cx="0" cy="0" r="4" class="primitive"/>
  </g>
</g>
<g fill="#00FFFF" id="img-5b44d20c-21">
  <g transform="translate(60,47.22)">
    <circle cx="0" cy="0" r="4" class="primitive"/>
  </g>
</g>
<g fill="#00FFFF" id="img-5b44d20c-22">
  <g transform="translate(120,153.33)">
    <circle cx="0" cy="0" r="4" class="primitive"/>
  </g>
</g>
<g fill="#00FFFF" id="img-5b44d20c-23">
  <g transform="translate(100,10)">
    <circle cx="0" cy="0" r="4" class="primitive"/>
  </g>
</g>
<g fill="#00FFFF" id="img-5b44d20c-24">
  <g transform="translate(80,10)">
    <circle cx="0" cy="0" r="4" class="primitive"/>
  </g>
</g>
<g fill="#00FFFF" id="img-5b44d20c-25">
  <g transform="translate(60,10)">
    <circle cx="0" cy="0" r="4" class="primitive"/>
  </g>
</g>
<g fill="#00FFFF" id="img-5b44d20c-26">
  <g transform="translate(120,143.33)">
    <circle cx="0" cy="0" r="4" class="primitive"/>
  </g>
</g>
<g fill="#00FFFF" id="img-5b44d20c-27">
  <g transform="translate(100,147.78)">
    <circle cx="0" cy="0" r="4" class="primitive"/>
  </g>
</g>
<g fill="#00FFFF" id="img-5b44d20c-28">
  <g transform="translate(80,147.78)">
    <circle cx="0" cy="0" r="4" class="primitive"/>
  </g>
</g>
<g fill="#00FFFF" id="img-5b44d20c-29">
  <g transform="translate(60,147.78)">
    <circle cx="0" cy="0" r="4" class="primitive"/>
  </g>
</g>
<g fill="#00FFFF" id="img-5b44d20c-30">
  <g transform="translate(120,124.44)">
    <circle cx="0" cy="0" r="4" class="primitive"/>
  </g>
</g>
<g fill="#00FFFF" id="img-5b44d20c-31">
  <g transform="translate(100,128.89)">
    <circle cx="0" cy="0" r="4" class="primitive"/>
  </g>
</g>
<g fill="#00FFFF" id="img-5b44d20c-32">
  <g transform="translate(80,128.89)">
    <circle cx="0" cy="0" r="4" class="primitive"/>
  </g>
</g>
<g fill="#00FFFF" id="img-5b44d20c-33">
  <g transform="translate(60,128.89)">
    <circle cx="0" cy="0" r="4" class="primitive"/>
  </g>
</g>
<g fill="#00FFFF" id="img-5b44d20c-34">
  <g transform="translate(120,105.56)">
    <circle cx="0" cy="0" r="4" class="primitive"/>
  </g>
</g>
<g fill="#00FFFF" id="img-5b44d20c-35">
  <g transform="translate(100,110)">
    <circle cx="0" cy="0" r="4" class="primitive"/>
  </g>
</g>
<g fill="#00FFFF" id="img-5b44d20c-36">
  <g transform="translate(80,110)">
    <circle cx="0" cy="0" r="4" class="primitive"/>
  </g>
</g>
<g fill="#00FFFF" id="img-5b44d20c-37">
  <g transform="translate(60,110)">
    <circle cx="0" cy="0" r="4" class="primitive"/>
  </g>
</g>
<g fill="#00FFFF" id="img-5b44d20c-38">
  <g transform="translate(220,244.44)">
    <circle cx="0" cy="0" r="4" class="primitive"/>
  </g>
</g>
<g fill="#00FFFF" id="img-5b44d20c-39">
  <g transform="translate(200,239.44)">
    <circle cx="0" cy="0" r="4" class="primitive"/>
  </g>
</g>
<g fill="#00FFFF" id="img-5b44d20c-40">
  <g transform="translate(180,239.44)">
    <circle cx="0" cy="0" r="4" class="primitive"/>
  </g>
</g>
<g fill="#00FFFF" id="img-5b44d20c-41">
  <g transform="translate(160,239.44)">
    <circle cx="0" cy="0" r="4" class="primitive"/>
  </g>
</g>
<g fill="#00FFFF" id="img-5b44d20c-42">
  <g transform="translate(120,78.89)">
    <circle cx="0" cy="0" r="4" class="primitive"/>
  </g>
</g>
<g fill="#00FFFF" id="img-5b44d20c-43">
  <g transform="translate(100,87.22)">
    <circle cx="0" cy="0" r="4" class="primitive"/>
  </g>
</g>
<g fill="#00FFFF" id="img-5b44d20c-44">
  <g transform="translate(80,87.22)">
    <circle cx="0" cy="0" r="4" class="primitive"/>
  </g>
</g>
<g fill="#00FFFF" id="img-5b44d20c-45">
  <g transform="translate(60,87.22)">
    <circle cx="0" cy="0" r="4" class="primitive"/>
  </g>
</g>
<g fill="#00FFFF" id="img-5b44d20c-46">
  <g transform="translate(220,234.44)">
    <circle cx="0" cy="0" r="4" class="primitive"/>
  </g>
</g>
<g fill="#00FFFF" id="img-5b44d20c-47">
  <g transform="translate(200,201.67)">
    <circle cx="0" cy="0" r="4" class="primitive"/>
  </g>
</g>
<g fill="#00FFFF" id="img-5b44d20c-48">
  <g transform="translate(180,201.67)">
    <circle cx="0" cy="0" r="4" class="primitive"/>
  </g>
</g>
<g fill="#00FFFF" id="img-5b44d20c-49">
  <g transform="translate(160,201.67)">
    <circle cx="0" cy="0" r="4" class="primitive"/>
  </g>
</g>
<g fill="#00FFFF" id="img-5b44d20c-50">
  <g transform="translate(120,27.78)">
    <circle cx="0" cy="0" r="4" class="primitive"/>
  </g>
</g>
<g fill="#00FFFF" id="img-5b44d20c-51">
  <g transform="translate(100,30.56)">
    <circle cx="0" cy="0" r="4" class="primitive"/>
  </g>
</g>
<g fill="#00FFFF" id="img-5b44d20c-52">
  <g transform="translate(80,30.56)">
    <circle cx="0" cy="0" r="4" class="primitive"/>
  </g>
</g>
<g fill="#00FFFF" id="img-5b44d20c-53">
  <g transform="translate(60,30.56)">
    <circle cx="0" cy="0" r="4" class="primitive"/>
  </g>
</g>
<g fill="#00FFFF" id="img-5b44d20c-54">
  <g transform="translate(220,224.44)">
    <circle cx="0" cy="0" r="4" class="primitive"/>
  </g>
</g>
<g fill="#00FFFF" id="img-5b44d20c-55">
  <g transform="translate(200,186.11)">
    <circle cx="0" cy="0" r="4" class="primitive"/>
  </g>
</g>
<g fill="#00FFFF" id="img-5b44d20c-56">
  <g transform="translate(180,186.11)">
    <circle cx="0" cy="0" r="4" class="primitive"/>
  </g>
</g>
<g fill="#00FFFF" id="img-5b44d20c-57">
  <g transform="translate(160,186.11)">
    <circle cx="0" cy="0" r="4" class="primitive"/>
  </g>
</g>
<g fill="#00FFFF" id="img-5b44d20c-58">
  <g transform="translate(320,271.11)">
    <circle cx="0" cy="0" r="4" class="primitive"/>
  </g>
</g>
<g fill="#00FFFF" id="img-5b44d20c-59">
  <g transform="translate(300,274.44)">
    <circle cx="0" cy="0" r="4" class="primitive"/>
  </g>
</g>
<g fill="#00FFFF" id="img-5b44d20c-60">
  <g transform="translate(280,274.44)">
    <circle cx="0" cy="0" r="4" class="primitive"/>
  </g>
</g>
<g fill="#00FFFF" id="img-5b44d20c-61">
  <g transform="translate(260,274.44)">
    <circle cx="0" cy="0" r="4" class="primitive"/>
  </g>
</g>
<g fill="#00FFFF" id="img-5b44d20c-62">
  <g transform="translate(220,214.44)">
    <circle cx="0" cy="0" r="4" class="primitive"/>
  </g>
</g>
<g fill="#00FFFF" id="img-5b44d20c-63">
  <g transform="translate(200,217.78)">
    <circle cx="0" cy="0" r="4" class="primitive"/>
  </g>
</g>
<g fill="#00FFFF" id="img-5b44d20c-64">
  <g transform="translate(180,217.78)">
    <circle cx="0" cy="0" r="4" class="primitive"/>
  </g>
</g>
<g fill="#00FFFF" id="img-5b44d20c-65">
  <g transform="translate(160,217.78)">
    <circle cx="0" cy="0" r="4" class="primitive"/>
  </g>
</g>
<g fill="#00FFFF" id="img-5b44d20c-66">
  <g transform="translate(320,254.44)">
    <circle cx="0" cy="0" r="4" class="primitive"/>
  </g>
</g>
<g fill="#00FFFF" id="img-5b44d20c-67">
  <g transform="translate(300,257.78)">
    <circle cx="0" cy="0" r="4" class="primitive"/>
  </g>
</g>
<g fill="#00FFFF" id="img-5b44d20c-68">
  <g transform="translate(280,257.78)">
    <circle cx="0" cy="0" r="4" class="primitive"/>
  </g>
</g>
<g fill="#00FFFF" id="img-5b44d20c-69">
  <g transform="translate(260,257.78)">
    <circle cx="0" cy="0" r="4" class="primitive"/>
  </g>
</g>
<g fill="#FFA500" id="img-5b44d20c-70">
  <g transform="translate(340,286.11)">
    <circle cx="0" cy="0" r="4" class="primitive"/>
  </g>
</g>
<g fill="#FFA500" id="img-5b44d20c-71">
  <g transform="translate(240,274.44)">
    <circle cx="0" cy="0" r="4" class="primitive"/>
  </g>
</g>
<g fill="#FFA500" id="img-5b44d20c-72">
  <g transform="translate(140,217.78)">
    <circle cx="0" cy="0" r="4" class="primitive"/>
  </g>
</g>
<g fill="#FFA500" id="img-5b44d20c-73">
  <g transform="translate(240,257.78)">
    <circle cx="0" cy="0" r="4" class="primitive"/>
  </g>
</g>
<g fill="#FFA500" id="img-5b44d20c-74">
  <g transform="translate(140,201.67)">
    <circle cx="0" cy="0" r="4" class="primitive"/>
  </g>
</g>
<g fill="#FFA500" id="img-5b44d20c-75">
  <g transform="translate(40,30.56)">
    <circle cx="0" cy="0" r="4" class="primitive"/>
  </g>
</g>
<g fill="#FFA500" id="img-5b44d20c-76">
  <g transform="translate(140,186.11)">
    <circle cx="0" cy="0" r="4" class="primitive"/>
  </g>
</g>
<g fill="#FFA500" id="img-5b44d20c-77">
  <g transform="translate(40,87.22)">
    <circle cx="0" cy="0" r="4" class="primitive"/>
  </g>
</g>
<g fill="#FFA500" id="img-5b44d20c-78">
  <g transform="translate(140,239.44)">
    <circle cx="0" cy="0" r="4" class="primitive"/>
  </g>
</g>
<g fill="#FFA500" id="img-5b44d20c-79">
  <g transform="translate(40,147.78)">
    <circle cx="0" cy="0" r="4" class="primitive"/>
  </g>
</g>
<g fill="#FFA500" id="img-5b44d20c-80">
  <g transform="translate(40,128.89)">
    <circle cx="0" cy="0" r="4" class="primitive"/>
  </g>
</g>
<g fill="#FFA500" id="img-5b44d20c-81">
  <g transform="translate(40,110)">
    <circle cx="0" cy="0" r="4" class="primitive"/>
  </g>
</g>
<g fill="#FFA500" id="img-5b44d20c-82">
  <g transform="translate(40,10)">
    <circle cx="0" cy="0" r="4" class="primitive"/>
  </g>
</g>
<g fill="#FFA500" id="img-5b44d20c-83">
  <g transform="translate(40,65)">
    <circle cx="0" cy="0" r="4" class="primitive"/>
  </g>
</g>
<g fill="#FFA500" id="img-5b44d20c-84">
  <g transform="translate(40,47.22)">
    <circle cx="0" cy="0" r="4" class="primitive"/>
  </g>
</g>
<g fill="#FF0000" id="img-5b44d20c-85">
  <g transform="translate(420,281.11)">
    <circle cx="0" cy="0" r="4" class="primitive"/>
  </g>
</g>
<g fill="#FF0000" id="img-5b44d20c-86">
  <g transform="translate(120,201.67)">
    <circle cx="0" cy="0" r="4" class="primitive"/>
  </g>
</g>
<g fill="#FF0000" id="img-5b44d20c-87">
  <g transform="translate(120,186.11)">
    <circle cx="0" cy="0" r="4" class="primitive"/>
  </g>
</g>
<g fill="#FF0000" id="img-5b44d20c-88">
  <g transform="translate(120,239.44)">
    <circle cx="0" cy="0" r="4" class="primitive"/>
  </g>
</g>
<g fill="#FF0000" id="img-5b44d20c-89">
  <g transform="translate(220,274.44)">
    <circle cx="0" cy="0" r="4" class="primitive"/>
  </g>
</g>
<g fill="#FF0000" id="img-5b44d20c-90">
  <g transform="translate(120,217.78)">
    <circle cx="0" cy="0" r="4" class="primitive"/>
  </g>
</g>
<g fill="#FF0000" id="img-5b44d20c-91">
  <g transform="translate(220,257.78)">
    <circle cx="0" cy="0" r="4" class="primitive"/>
  </g>
</g>
<g fill="#FF0000" id="img-5b44d20c-92">
  <g transform="translate(320,286.11)">
    <circle cx="0" cy="0" r="4" class="primitive"/>
  </g>
</g>
<g font-family="futura" font-size="3.53" stroke="#000000" id="img-5b44d20c-93">
  <g transform="translate(20,47.22)">
    <g class="primitive">
      <text text-anchor="middle" dy="-0.25em">op435<tspan x="0" dy="1.2em">0,0</tspan></text>
    </g>
  </g>
  <g transform="translate(20,128.89)">
    <g class="primitive">
      <text text-anchor="middle" dy="-0.25em">op434<tspan x="0" dy="1.2em">0,0</tspan></text>
    </g>
  </g>
  <g transform="translate(20,10)">
    <g class="primitive">
      <text text-anchor="middle" dy="-0.25em">op433<tspan x="0" dy="1.2em">0,0</tspan></text>
    </g>
  </g>
  <g transform="translate(20,110)">
    <g class="primitive">
      <text text-anchor="middle" dy="-0.25em">op432<tspan x="0" dy="1.2em">0,0</tspan></text>
    </g>
  </g>
  <g transform="translate(20,147.78)">
    <g class="primitive">
      <text text-anchor="middle" dy="-0.25em">op431<tspan x="0" dy="1.2em">0,0</tspan></text>
    </g>
  </g>
  <g transform="translate(20,87.22)">
    <g class="primitive">
      <text text-anchor="middle" dy="-0.25em">op430<tspan x="0" dy="1.2em">0,0</tspan></text>
    </g>
  </g>
  <g transform="translate(20,30.56)">
    <g class="primitive">
      <text text-anchor="middle" dy="-0.25em">op429<tspan x="0" dy="1.2em">0,0</tspan></text>
    </g>
  </g>
  <g transform="translate(20,65)">
    <g class="primitive">
      <text text-anchor="middle" dy="-0.25em">op428<tspan x="0" dy="1.2em">0,0</tspan></text>
    </g>
  </g>
  <g transform="translate(420,291.11)">
    <g class="primitive">
      <text text-anchor="middle" dy="-0.85em">go<tspan x="0" dy="1.2em">-1,488,-1</tspan><tspan x="0" dy="1.2em">80,80</tspan></text>
    </g>
  </g>
  <g transform="translate(400,286.11)">
    <g class="primitive">
      <text text-anchor="middle" dy="-0.85em">deposit<tspan x="0" dy="1.2em">-1,90,488</tspan><tspan x="0" dy="1.2em">80,80</tspan></text>
    </g>
  </g>
  <g transform="translate(380,286.11)">
    <g class="primitive">
      <text text-anchor="middle" dy="-0.85em">carry<tspan x="0" dy="1.2em">-1,90,488</tspan><tspan x="0" dy="1.2em">72,80</tspan></text>
    </g>
  </g>
  <g transform="translate(360,286.11)">
    <g class="primitive">
      <text text-anchor="middle" dy="-0.85em">collect<tspan x="0" dy="1.2em">-1,90,384</tspan><tspan x="0" dy="1.2em">72,72</tspan></text>
    </g>
  </g>
  <g transform="translate(120,173.33)">
    <g class="primitive">
      <text text-anchor="middle" dy="-0.85em">go<tspan x="0" dy="1.2em">-1,519,-1</tspan><tspan x="0" dy="1.2em">27,27</tspan></text>
    </g>
  </g>
  <g transform="translate(100,65)">
    <g class="primitive">
      <text text-anchor="middle" dy="-0.85em">deposit<tspan x="0" dy="1.2em">-1,77,519</tspan><tspan x="0" dy="1.2em">27,27</tspan></text>
    </g>
  </g>
  <g transform="translate(80,65)">
    <g class="primitive">
      <text text-anchor="middle" dy="-0.85em">carry<tspan x="0" dy="1.2em">-1,77,519</tspan><tspan x="0" dy="1.2em">0,27</tspan></text>
    </g>
  </g>
  <g transform="translate(60,65)">
    <g class="primitive">
      <text text-anchor="middle" dy="-0.85em">collect<tspan x="0" dy="1.2em">-1,77,104</tspan><tspan x="0" dy="1.2em">0,0</tspan></text>
    </g>
  </g>
  <g transform="translate(120,163.33)">
    <g class="primitive">
      <text text-anchor="middle" dy="-0.85em">go<tspan x="0" dy="1.2em">-1,514,-1</tspan><tspan x="0" dy="1.2em">26,26</tspan></text>
    </g>
  </g>
  <g transform="translate(100,47.22)">
    <g class="primitive">
      <text text-anchor="middle" dy="-0.85em">deposit<tspan x="0" dy="1.2em">-1,76,514</tspan><tspan x="0" dy="1.2em">26,26</tspan></text>
    </g>
  </g>
  <g transform="translate(80,47.22)">
    <g class="primitive">
      <text text-anchor="middle" dy="-0.85em">carry<tspan x="0" dy="1.2em">-1,76,514</tspan><tspan x="0" dy="1.2em">0,26</tspan></text>
    </g>
  </g>
  <g transform="translate(60,47.22)">
    <g class="primitive">
      <text text-anchor="middle" dy="-0.85em">collect<tspan x="0" dy="1.2em">-1,76,203</tspan><tspan x="0" dy="1.2em">0,0</tspan></text>
    </g>
  </g>
  <g transform="translate(120,153.33)">
    <g class="primitive">
      <text text-anchor="middle" dy="-0.85em">go<tspan x="0" dy="1.2em">-1,82,-1</tspan><tspan x="0" dy="1.2em">6,6</tspan></text>
    </g>
  </g>
  <g transform="translate(100,10)">
    <g class="primitive">
      <text text-anchor="middle" dy="-0.85em">deposit<tspan x="0" dy="1.2em">-1,78,82</tspan><tspan x="0" dy="1.2em">6,6</tspan></text>
    </g>
  </g>
  <g transform="translate(80,10)">
    <g class="primitive">
      <text text-anchor="middle" dy="-0.85em">carry<tspan x="0" dy="1.2em">-1,78,82</tspan><tspan x="0" dy="1.2em">0,6</tspan></text>
    </g>
  </g>
  <g transform="translate(60,10)">
    <g class="primitive">
      <text text-anchor="middle" dy="-0.85em">collect<tspan x="0" dy="1.2em">-1,78,197</tspan><tspan x="0" dy="1.2em">0,0</tspan></text>
    </g>
  </g>
  <g transform="translate(120,143.33)">
    <g class="primitive">
      <text text-anchor="middle" dy="-0.85em">go<tspan x="0" dy="1.2em">-1,277,-1</tspan><tspan x="0" dy="1.2em">4,4</tspan></text>
    </g>
  </g>
  <g transform="translate(100,147.78)">
    <g class="primitive">
      <text text-anchor="middle" dy="-0.85em">deposit<tspan x="0" dy="1.2em">-1,81,277</tspan><tspan x="0" dy="1.2em">4,4</tspan></text>
    </g>
  </g>
  <g transform="translate(80,147.78)">
    <g class="primitive">
      <text text-anchor="middle" dy="-0.85em">carry<tspan x="0" dy="1.2em">-1,81,277</tspan><tspan x="0" dy="1.2em">0,4</tspan></text>
    </g>
  </g>
  <g transform="translate(60,147.78)">
    <g class="primitive">
      <text text-anchor="middle" dy="-0.85em">collect<tspan x="0" dy="1.2em">-1,81,233</tspan><tspan x="0" dy="1.2em">0,0</tspan></text>
    </g>
  </g>
  <g transform="translate(120,124.44)">
    <g class="primitive">
      <text text-anchor="middle" dy="-0.85em">go<tspan x="0" dy="1.2em">-1,383,-1</tspan><tspan x="0" dy="1.2em">1,1</tspan></text>
    </g>
  </g>
  <g transform="translate(100,128.89)">
    <g class="primitive">
      <text text-anchor="middle" dy="-0.85em">deposit<tspan x="0" dy="1.2em">-1,80,383</tspan><tspan x="0" dy="1.2em">1,1</tspan></text>
    </g>
  </g>
  <g transform="translate(80,128.89)">
    <g class="primitive">
      <text text-anchor="middle" dy="-0.85em">carry<tspan x="0" dy="1.2em">-1,80,383</tspan><tspan x="0" dy="1.2em">0,1</tspan></text>
    </g>
  </g>
  <g transform="translate(60,128.89)">
    <g class="primitive">
      <text text-anchor="middle" dy="-0.85em">collect<tspan x="0" dy="1.2em">-1,80,365</tspan><tspan x="0" dy="1.2em">0,0</tspan></text>
    </g>
  </g>
  <g transform="translate(120,105.56)">
    <g class="primitive">
      <text text-anchor="middle" dy="-0.85em">go<tspan x="0" dy="1.2em">-1,74,-1</tspan><tspan x="0" dy="1.2em">30,30</tspan></text>
    </g>
  </g>
  <g transform="translate(100,110)">
    <g class="primitive">
      <text text-anchor="middle" dy="-0.85em">deposit<tspan x="0" dy="1.2em">-1,79,74</tspan><tspan x="0" dy="1.2em">30,30</tspan></text>
    </g>
  </g>
  <g transform="translate(80,110)">
    <g class="primitive">
      <text text-anchor="middle" dy="-0.85em">carry<tspan x="0" dy="1.2em">-1,79,74</tspan><tspan x="0" dy="1.2em">0,30</tspan></text>
    </g>
  </g>
  <g transform="translate(60,110)">
    <g class="primitive">
      <text text-anchor="middle" dy="-0.85em">collect<tspan x="0" dy="1.2em">-1,79,380</tspan><tspan x="0" dy="1.2em">0,0</tspan></text>
    </g>
  </g>
  <g transform="translate(220,244.44)">
    <g class="primitive">
      <text text-anchor="middle" dy="-0.85em">go<tspan x="0" dy="1.2em">-1,247,-1</tspan><tspan x="0" dy="1.2em">36,36</tspan></text>
    </g>
  </g>
  <g transform="translate(200,239.44)">
    <g class="primitive">
      <text text-anchor="middle" dy="-0.85em">deposit<tspan x="0" dy="1.2em">-1,82,247</tspan><tspan x="0" dy="1.2em">36,36</tspan></text>
    </g>
  </g>
  <g transform="translate(180,239.44)">
    <g class="primitive">
      <text text-anchor="middle" dy="-0.85em">carry<tspan x="0" dy="1.2em">-1,82,247</tspan><tspan x="0" dy="1.2em">30,36</tspan></text>
    </g>
  </g>
  <g transform="translate(160,239.44)">
    <g class="primitive">
      <text text-anchor="middle" dy="-0.85em">collect<tspan x="0" dy="1.2em">-1,82,349</tspan><tspan x="0" dy="1.2em">30,30</tspan></text>
    </g>
  </g>
  <g transform="translate(120,78.89)">
    <g class="primitive">
      <text text-anchor="middle" dy="-0.85em">go<tspan x="0" dy="1.2em">-1,336,-1</tspan><tspan x="0" dy="1.2em">5,5</tspan></text>
    </g>
  </g>
  <g transform="translate(100,87.22)">
    <g class="primitive">
      <text text-anchor="middle" dy="-0.85em">deposit<tspan x="0" dy="1.2em">-1,83,336</tspan><tspan x="0" dy="1.2em">5,5</tspan></text>
    </g>
  </g>
  <g transform="translate(80,87.22)">
    <g class="primitive">
      <text text-anchor="middle" dy="-0.85em">carry<tspan x="0" dy="1.2em">-1,83,336</tspan><tspan x="0" dy="1.2em">0,5</tspan></text>
    </g>
  </g>
  <g transform="translate(60,87.22)">
    <g class="primitive">
      <text text-anchor="middle" dy="-0.85em">collect<tspan x="0" dy="1.2em">-1,83,398</tspan><tspan x="0" dy="1.2em">0,0</tspan></text>
    </g>
  </g>
  <g transform="translate(220,234.44)">
    <g class="primitive">
      <text text-anchor="middle" dy="-0.85em">go<tspan x="0" dy="1.2em">-1,56,-1</tspan><tspan x="0" dy="1.2em">51,51</tspan></text>
    </g>
  </g>
  <g transform="translate(200,201.67)">
    <g class="primitive">
      <text text-anchor="middle" dy="-0.85em">deposit<tspan x="0" dy="1.2em">-1,86,56</tspan><tspan x="0" dy="1.2em">51,51</tspan></text>
    </g>
  </g>
  <g transform="translate(180,201.67)">
    <g class="primitive">
      <text text-anchor="middle" dy="-0.85em">carry<tspan x="0" dy="1.2em">-1,86,56</tspan><tspan x="0" dy="1.2em">27,51</tspan></text>
    </g>
  </g>
  <g transform="translate(160,201.67)">
    <g class="primitive">
      <text text-anchor="middle" dy="-0.85em">collect<tspan x="0" dy="1.2em">-1,86,369</tspan><tspan x="0" dy="1.2em">27,27</tspan></text>
    </g>
  </g>
  <g transform="translate(120,27.78)">
    <g class="primitive">
      <text text-anchor="middle" dy="-0.85em">go<tspan x="0" dy="1.2em">-1,348,-1</tspan><tspan x="0" dy="1.2em">21,21</tspan></text>
    </g>
  </g>
  <g transform="translate(100,30.56)">
    <g class="primitive">
      <text text-anchor="middle" dy="-0.85em">deposit<tspan x="0" dy="1.2em">-1,85,348</tspan><tspan x="0" dy="1.2em">21,21</tspan></text>
    </g>
  </g>
  <g transform="translate(80,30.56)">
    <g class="primitive">
      <text text-anchor="middle" dy="-0.85em">carry<tspan x="0" dy="1.2em">-1,85,348</tspan><tspan x="0" dy="1.2em">0,21</tspan></text>
    </g>
  </g>
  <g transform="translate(60,30.56)">
    <g class="primitive">
      <text text-anchor="middle" dy="-0.85em">collect<tspan x="0" dy="1.2em">-1,85,118</tspan><tspan x="0" dy="1.2em">0,0</tspan></text>
    </g>
  </g>
  <g transform="translate(220,224.44)">
    <g class="primitive">
      <text text-anchor="middle" dy="-0.85em">go<tspan x="0" dy="1.2em">-1,557,-1</tspan><tspan x="0" dy="1.2em">13,13</tspan></text>
    </g>
  </g>
  <g transform="translate(200,186.11)">
    <g class="primitive">
      <text text-anchor="middle" dy="-0.85em">deposit<tspan x="0" dy="1.2em">-1,84,557</tspan><tspan x="0" dy="1.2em">13,13</tspan></text>
    </g>
  </g>
  <g transform="translate(180,186.11)">
    <g class="primitive">
      <text text-anchor="middle" dy="-0.85em">carry<tspan x="0" dy="1.2em">-1,84,557</tspan><tspan x="0" dy="1.2em">6,13</tspan></text>
    </g>
  </g>
  <g transform="translate(160,186.11)">
    <g class="primitive">
      <text text-anchor="middle" dy="-0.85em">collect<tspan x="0" dy="1.2em">-1,84,550</tspan><tspan x="0" dy="1.2em">6,6</tspan></text>
    </g>
  </g>
  <g transform="translate(320,271.11)">
    <g class="primitive">
      <text text-anchor="middle" dy="-0.85em">go<tspan x="0" dy="1.2em">-1,379,-1</tspan><tspan x="0" dy="1.2em">42,42</tspan></text>
    </g>
  </g>
  <g transform="translate(300,274.44)">
    <g class="primitive">
      <text text-anchor="middle" dy="-0.85em">deposit<tspan x="0" dy="1.2em">-1,89,379</tspan><tspan x="0" dy="1.2em">42,42</tspan></text>
    </g>
  </g>
  <g transform="translate(280,274.44)">
    <g class="primitive">
      <text text-anchor="middle" dy="-0.85em">carry<tspan x="0" dy="1.2em">-1,89,379</tspan><tspan x="0" dy="1.2em">36,42</tspan></text>
    </g>
  </g>
  <g transform="translate(260,274.44)">
    <g class="primitive">
      <text text-anchor="middle" dy="-0.85em">collect<tspan x="0" dy="1.2em">-1,89,258</tspan><tspan x="0" dy="1.2em">36,36</tspan></text>
    </g>
  </g>
  <g transform="translate(220,214.44)">
    <g class="primitive">
      <text text-anchor="middle" dy="-0.85em">go<tspan x="0" dy="1.2em">-1,502,-1</tspan><tspan x="0" dy="1.2em">25,25</tspan></text>
    </g>
  </g>
  <g transform="translate(200,217.78)">
    <g class="primitive">
      <text text-anchor="middle" dy="-0.85em">deposit<tspan x="0" dy="1.2em">-1,88,502</tspan><tspan x="0" dy="1.2em">25,25</tspan></text>
    </g>
  </g>
  <g transform="translate(180,217.78)">
    <g class="primitive">
      <text text-anchor="middle" dy="-0.85em">carry<tspan x="0" dy="1.2em">-1,88,502</tspan><tspan x="0" dy="1.2em">5,25</tspan></text>
    </g>
  </g>
  <g transform="translate(160,217.78)">
    <g class="primitive">
      <text text-anchor="middle" dy="-0.85em">collect<tspan x="0" dy="1.2em">-1,88,124</tspan><tspan x="0" dy="1.2em">5,5</tspan></text>
    </g>
  </g>
  <g transform="translate(320,254.44)">
    <g class="primitive">
      <text text-anchor="middle" dy="-0.85em">go<tspan x="0" dy="1.2em">-1,226,-1</tspan><tspan x="0" dy="1.2em">72,72</tspan></text>
    </g>
  </g>
  <g transform="translate(300,257.78)">
    <g class="primitive">
      <text text-anchor="middle" dy="-0.85em">deposit<tspan x="0" dy="1.2em">-1,87,226</tspan><tspan x="0" dy="1.2em">72,72</tspan></text>
    </g>
  </g>
  <g transform="translate(280,257.78)">
    <g class="primitive">
      <text text-anchor="middle" dy="-0.85em">carry<tspan x="0" dy="1.2em">-1,87,226</tspan><tspan x="0" dy="1.2em">51,72</tspan></text>
    </g>
  </g>
  <g transform="translate(260,257.78)">
    <g class="primitive">
      <text text-anchor="middle" dy="-0.85em">collect<tspan x="0" dy="1.2em">-1,87,513</tspan><tspan x="0" dy="1.2em">51,51</tspan></text>
    </g>
  </g>
  <g transform="translate(340,286.11)">
    <g class="primitive">
      <text text-anchor="middle" dy="-0.25em">O90-384<tspan x="0" dy="1.2em">72,72</tspan></text>
    </g>
  </g>
  <g transform="translate(240,274.44)">
    <g class="primitive">
      <text text-anchor="middle" dy="-0.25em">O89-258<tspan x="0" dy="1.2em">36,36</tspan></text>
    </g>
  </g>
  <g transform="translate(140,217.78)">
    <g class="primitive">
      <text text-anchor="middle" dy="-0.25em">O88-124<tspan x="0" dy="1.2em">5,5</tspan></text>
    </g>
  </g>
  <g transform="translate(240,257.78)">
    <g class="primitive">
      <text text-anchor="middle" dy="-0.25em">O87-513<tspan x="0" dy="1.2em">51,51</tspan></text>
    </g>
  </g>
  <g transform="translate(140,201.67)">
    <g class="primitive">
      <text text-anchor="middle" dy="-0.25em">O86-369<tspan x="0" dy="1.2em">27,27</tspan></text>
    </g>
  </g>
  <g transform="translate(40,30.56)">
    <g class="primitive">
      <text text-anchor="middle" dy="-0.25em">O85-118<tspan x="0" dy="1.2em">0,0</tspan></text>
    </g>
  </g>
  <g transform="translate(140,186.11)">
    <g class="primitive">
      <text text-anchor="middle" dy="-0.25em">O84-550<tspan x="0" dy="1.2em">6,6</tspan></text>
    </g>
  </g>
  <g transform="translate(40,87.22)">
    <g class="primitive">
      <text text-anchor="middle" dy="-0.25em">O83-398<tspan x="0" dy="1.2em">0,0</tspan></text>
    </g>
  </g>
  <g transform="translate(140,239.44)">
    <g class="primitive">
      <text text-anchor="middle" dy="-0.25em">O82-349<tspan x="0" dy="1.2em">30,30</tspan></text>
    </g>
  </g>
  <g transform="translate(40,147.78)">
    <g class="primitive">
      <text text-anchor="middle" dy="-0.25em">O81-233<tspan x="0" dy="1.2em">0,0</tspan></text>
    </g>
  </g>
  <g transform="translate(40,128.89)">
    <g class="primitive">
      <text text-anchor="middle" dy="-0.25em">O80-365<tspan x="0" dy="1.2em">0,0</tspan></text>
    </g>
  </g>
  <g transform="translate(40,110)">
    <g class="primitive">
      <text text-anchor="middle" dy="-0.25em">O79-380<tspan x="0" dy="1.2em">0,0</tspan></text>
    </g>
  </g>
  <g transform="translate(40,10)">
    <g class="primitive">
      <text text-anchor="middle" dy="-0.25em">O78-197<tspan x="0" dy="1.2em">0,0</tspan></text>
    </g>
  </g>
  <g transform="translate(40,65)">
    <g class="primitive">
      <text text-anchor="middle" dy="-0.25em">O77-104<tspan x="0" dy="1.2em">0,0</tspan></text>
    </g>
  </g>
  <g transform="translate(40,47.22)">
    <g class="primitive">
      <text text-anchor="middle" dy="-0.25em">O76-203<tspan x="0" dy="1.2em">0,0</tspan></text>
    </g>
  </g>
  <g transform="translate(420,281.11)">
    <g class="primitive">
      <text text-anchor="middle" dy="-0.25em">op427<tspan x="0" dy="1.2em">80,80</tspan></text>
    </g>
  </g>
  <g transform="translate(120,201.67)">
    <g class="primitive">
      <text text-anchor="middle" dy="-0.25em">op426<tspan x="0" dy="1.2em">27,27</tspan></text>
    </g>
  </g>
  <g transform="translate(120,186.11)">
    <g class="primitive">
      <text text-anchor="middle" dy="-0.25em">op425<tspan x="0" dy="1.2em">6,6</tspan></text>
    </g>
  </g>
  <g transform="translate(120,239.44)">
    <g class="primitive">
      <text text-anchor="middle" dy="-0.25em">op424<tspan x="0" dy="1.2em">30,30</tspan></text>
    </g>
  </g>
  <g transform="translate(220,274.44)">
    <g class="primitive">
      <text text-anchor="middle" dy="-0.25em">op423<tspan x="0" dy="1.2em">36,36</tspan></text>
    </g>
  </g>
  <g transform="translate(120,217.78)">
    <g class="primitive">
      <text text-anchor="middle" dy="-0.25em">op422<tspan x="0" dy="1.2em">5,5</tspan></text>
    </g>
  </g>
  <g transform="translate(220,257.78)">
    <g class="primitive">
      <text text-anchor="middle" dy="-0.25em">op421<tspan x="0" dy="1.2em">51,51</tspan></text>
    </g>
  </g>
  <g transform="translate(320,286.11)">
    <g class="primitive">
      <text text-anchor="middle" dy="-0.25em">op420<tspan x="0" dy="1.2em">72,72</tspan></text>
    </g>
  </g>
</g>
</svg>
