<?xml version="1.0" encoding="UTF-8"?>
<svg xmlns="http://www.w3.org/2000/svg"
     xmlns:xlink="http://www.w3.org/1999/xlink"
     xmlns:gadfly="http://www.gadflyjl.org/ns"
     version="1.2"
     width="740mm" height="325mm" viewBox="0 0 740 325"
     stroke="none"
     fill="#000000"
     stroke-width="0.3"
     font-size="3.88"
>
<defs>
  <marker id="arrow" markerWidth="15" markerHeight="7" refX="5" refY="3.5" orient="auto" markerUnits="strokeWidth">
    <path d="M0,0 L15,3.5 L0,7 z" stroke="context-stroke" fill="context-stroke"/>
  </marker>
</defs>
<g stroke="#000000" id="img-aa78c4c2-1">
  <g transform="translate(30,112.5)">
    <path fill="none" d="M-5.6,0 L 5.6 0" class="primitive"/>
  </g>
  <g transform="translate(30,90)">
    <path fill="none" d="M-5.6,0 L 5.6 0" class="primitive"/>
  </g>
  <g transform="translate(30,67.5)">
    <path fill="none" d="M-5.6,0 L 5.6 0" class="primitive"/>
  </g>
  <g transform="translate(30,10)">
    <path fill="none" d="M-5.6,0 L 5.6 0" class="primitive"/>
  </g>
  <g transform="translate(30,42.5)">
    <path fill="none" d="M-5.6,0 L 5.6 0" class="primitive"/>
  </g>
  <g transform="translate(30,137.5)">
    <path fill="none" d="M-5.6,0 L 5.6 0" class="primitive"/>
  </g>
  <g transform="translate(710,312.5)">
    <path fill="none" d="M-6.06,-1.52 L 6.06 1.52" class="primitive"/>
  </g>
  <g transform="translate(710,307.5)">
    <path fill="none" d="M-6.06,1.52 L 6.06 -1.52" class="primitive"/>
  </g>
  <g transform="translate(690,310)">
    <path fill="none" d="M-5.6,0 L 5.6 0" class="primitive"/>
  </g>
  <g transform="translate(670,310)">
    <path fill="none" d="M-5.6,0 L 5.6 0" class="primitive"/>
  </g>
  <g transform="translate(110,136.25)">
    <path fill="none" d="M-5.73,0.72 L 5.73 -0.72" class="primitive"/>
  </g>
  <g transform="translate(110,176.25)">
    <path fill="none" d="M-9.44,-36.57 L 9.44 36.57" class="primitive"/>
  </g>
  <g transform="translate(90,137.5)">
    <path fill="none" d="M-5.6,0 L 5.6 0" class="primitive"/>
  </g>
  <g transform="translate(70,137.5)">
    <path fill="none" d="M-5.6,0 L 5.6 0" class="primitive"/>
  </g>
  <g transform="translate(110,118.75)">
    <path fill="none" d="M-7.25,-4.53 L 7.25 4.53" class="primitive"/>
  </g>
  <g transform="translate(110,163.75)">
    <path fill="none" d="M-9.57,-49.06 L 9.57 49.06" class="primitive"/>
  </g>
  <g transform="translate(90,112.5)">
    <path fill="none" d="M-5.6,0 L 5.6 0" class="primitive"/>
  </g>
  <g transform="translate(70,112.5)">
    <path fill="none" d="M-5.6,0 L 5.6 0" class="primitive"/>
  </g>
  <g transform="translate(110,62.5)">
    <path fill="none" d="M-9.58,-50.31 L 9.58 50.31" class="primitive"/>
  </g>
  <g transform="translate(110,82.5)">
    <path fill="none" d="M-9.7,-70.31 L 9.7 70.31" class="primitive"/>
  </g>
  <g transform="translate(90,10)">
    <path fill="none" d="M-5.6,0 L 5.6 0" class="primitive"/>
  </g>
  <g transform="translate(70,10)">
    <path fill="none" d="M-5.6,0 L 5.6 0" class="primitive"/>
  </g>
  <g transform="translate(110,86.25)">
    <path fill="none" d="M-8.87,-16.62 L 8.87 16.62" class="primitive"/>
  </g>
  <g transform="translate(110,126.25)">
    <path fill="none" d="M-9.63,-56.56 L 9.63 56.56" class="primitive"/>
  </g>
  <g transform="translate(90,67.5)">
    <path fill="none" d="M-5.6,0 L 5.6 0" class="primitive"/>
  </g>
  <g transform="translate(70,67.5)">
    <path fill="none" d="M-5.6,0 L 5.6 0" class="primitive"/>
  </g>
  <g transform="translate(110,68.75)">
    <path fill="none" d="M-9.18,-24.09 L 9.18 24.09" class="primitive"/>
  </g>
  <g transform="translate(110,113.75)">
    <path fill="none" d="M-9.69,-69.06 L 9.69 69.06" class="primitive"/>
  </g>
  <g transform="translate(90,42.5)">
    <path fill="none" d="M-5.6,0 L 5.6 0" class="primitive"/>
  </g>
  <g transform="translate(70,42.5)">
    <path fill="none" d="M-5.6,0 L 5.6 0" class="primitive"/>
  </g>
  <g transform="translate(210,210)">
    <path fill="none" d="M-6.89,3.44 L 6.89 -3.44" class="primitive"/>
  </g>
  <g transform="translate(210,237.5)">
    <path fill="none" d="M-9.05,-20.35 L 9.05 20.35" class="primitive"/>
  </g>
  <g transform="translate(190,215)">
    <path fill="none" d="M-5.6,0 L 5.6 0" class="primitive"/>
  </g>
  <g transform="translate(170,215)">
    <path fill="none" d="M-5.6,0 L 5.6 0" class="primitive"/>
  </g>
  <g transform="translate(210,180)">
    <path fill="none" d="M-6.89,3.44 L 6.89 -3.44" class="primitive"/>
  </g>
  <g transform="translate(210,207.5)">
    <path fill="none" d="M-9.05,-20.35 L 9.05 20.35" class="primitive"/>
  </g>
  <g transform="translate(190,185)">
    <path fill="none" d="M-5.6,0 L 5.6 0" class="primitive"/>
  </g>
  <g transform="translate(170,185)">
    <path fill="none" d="M-5.6,0 L 5.6 0" class="primitive"/>
  </g>
  <g transform="translate(210,150)">
    <path fill="none" d="M-6.89,3.44 L 6.89 -3.44" class="primitive"/>
  </g>
  <g transform="translate(210,192.5)">
    <path fill="none" d="M-9.42,-35.32 L 9.42 35.32" class="primitive"/>
  </g>
  <g transform="translate(190,155)">
    <path fill="none" d="M-5.6,0 L 5.6 0" class="primitive"/>
  </g>
  <g transform="translate(170,155)">
    <path fill="none" d="M-5.6,0 L 5.6 0" class="primitive"/>
  </g>
  <g transform="translate(310,247.5)">
    <path fill="none" d="M-8.79,-15.38 L 8.79 15.38" class="primitive"/>
  </g>
  <g transform="translate(310,257.5)">
    <path fill="none" d="M-9.21,-25.34 L 9.21 25.34" class="primitive"/>
  </g>
  <g transform="translate(290,230)">
    <path fill="none" d="M-5.6,0 L 5.6 0" class="primitive"/>
  </g>
  <g transform="translate(270,230)">
    <path fill="none" d="M-5.6,0 L 5.6 0" class="primitive"/>
  </g>
  <g transform="translate(410,280)">
    <path fill="none" d="M-6.89,3.44 L 6.89 -3.44" class="primitive"/>
  </g>
  <g transform="translate(410,287.5)">
    <path fill="none" d="M-6.06,-1.52 L 6.06 1.52" class="primitive"/>
  </g>
  <g transform="translate(390,285)">
    <path fill="none" d="M-5.6,0 L 5.6 0" class="primitive"/>
  </g>
  <g transform="translate(370,285)">
    <path fill="none" d="M-5.6,0 L 5.6 0" class="primitive"/>
  </g>
  <g transform="translate(310,257.5)">
    <path fill="none" d="M-6.06,1.52 L 6.06 -1.52" class="primitive"/>
  </g>
  <g transform="translate(410,282.5)">
    <path fill="none" d="M-105.93,-21.67 L 105.93 21.67" class="primitive"/>
  </g>
  <g transform="translate(290,260)">
    <path fill="none" d="M-5.6,0 L 5.6 0" class="primitive"/>
  </g>
  <g transform="translate(270,260)">
    <path fill="none" d="M-5.6,0 L 5.6 0" class="primitive"/>
  </g>
  <g transform="translate(110,87.5)">
    <path fill="none" d="M-6.06,1.52 L 6.06 -1.52" class="primitive"/>
  </g>
  <g transform="translate(310,197.5)">
    <path fill="none" d="M-206.93,-105.93 L 206.93 105.93" class="primitive"/>
  </g>
  <g transform="translate(90,90)">
    <path fill="none" d="M-5.6,0 L 5.6 0" class="primitive"/>
  </g>
  <g transform="translate(70,90)">
    <path fill="none" d="M-5.6,0 L 5.6 0" class="primitive"/>
  </g>
  <g transform="translate(510,287.5)">
    <path fill="none" d="M-6.06,1.52 L 6.06 -1.52" class="primitive"/>
  </g>
  <g transform="translate(510,297.5)">
    <path fill="none" d="M-7.56,-5.67 L 7.56 5.67" class="primitive"/>
  </g>
  <g transform="translate(490,290)">
    <path fill="none" d="M-5.6,0 L 5.6 0" class="primitive"/>
  </g>
  <g transform="translate(470,290)">
    <path fill="none" d="M-5.6,0 L 5.6 0" class="primitive"/>
  </g>
  <g transform="translate(610,300)">
    <path fill="none" d="M-6.89,3.44 L 6.89 -3.44" class="primitive"/>
  </g>
  <g transform="translate(610,307.5)">
    <path fill="none" d="M-6.06,-1.52 L 6.06 1.52" class="primitive"/>
  </g>
  <g transform="translate(590,305)">
    <path fill="none" d="M-5.6,0 L 5.6 0" class="primitive"/>
  </g>
  <g transform="translate(570,305)">
    <path fill="none" d="M-5.6,0 L 5.6 0" class="primitive"/>
  </g>
  <g transform="translate(650,310)">
    <path fill="none" d="M-5.6,0 L 5.6 0" class="primitive"/>
  </g>
  <g transform="translate(550,305)">
    <path fill="none" d="M-5.6,0 L 5.6 0" class="primitive"/>
  </g>
  <g transform="translate(250,260)">
    <path fill="none" d="M-5.6,0 L 5.6 0" class="primitive"/>
  </g>
  <g transform="translate(50,90)">
    <path fill="none" d="M-5.6,0 L 5.6 0" class="primitive"/>
  </g>
  <g transform="translate(450,290)">
    <path fill="none" d="M-5.6,0 L 5.6 0" class="primitive"/>
  </g>
  <g transform="translate(350,285)">
    <path fill="none" d="M-5.6,0 L 5.6 0" class="primitive"/>
  </g>
  <g transform="translate(250,230)">
    <path fill="none" d="M-5.6,0 L 5.6 0" class="primitive"/>
  </g>
  <g transform="translate(150,185)">
    <path fill="none" d="M-5.6,0 L 5.6 0" class="primitive"/>
  </g>
  <g transform="translate(150,155)">
    <path fill="none" d="M-5.6,0 L 5.6 0" class="primitive"/>
  </g>
  <g transform="translate(150,215)">
    <path fill="none" d="M-5.6,0 L 5.6 0" class="primitive"/>
  </g>
  <g transform="translate(50,67.5)">
    <path fill="none" d="M-5.6,0 L 5.6 0" class="primitive"/>
  </g>
  <g transform="translate(50,42.5)">
    <path fill="none" d="M-5.6,0 L 5.6 0" class="primitive"/>
  </g>
  <g transform="translate(50,10)">
    <path fill="none" d="M-5.6,0 L 5.6 0" class="primitive"/>
  </g>
  <g transform="translate(50,137.5)">
    <path fill="none" d="M-5.6,0 L 5.6 0" class="primitive"/>
  </g>
  <g transform="translate(50,112.5)">
    <path fill="none" d="M-5.6,0 L 5.6 0" class="primitive"/>
  </g>
  <g transform="translate(130,215)">
    <path fill="none" d="M-5.6,0 L 5.6 0" class="primitive"/>
  </g>
  <g transform="translate(130,155)">
    <path fill="none" d="M-5.6,0 L 5.6 0" class="primitive"/>
  </g>
  <g transform="translate(130,185)">
    <path fill="none" d="M-5.6,0 L 5.6 0" class="primitive"/>
  </g>
  <g transform="translate(230,260)">
    <path fill="none" d="M-5.6,0 L 5.6 0" class="primitive"/>
  </g>
  <g transform="translate(230,230)">
    <path fill="none" d="M-5.6,0 L 5.6 0" class="primitive"/>
  </g>
  <g transform="translate(330,285)">
    <path fill="none" d="M-5.6,0 L 5.6 0" class="primitive"/>
  </g>
  <g transform="translate(430,290)">
    <path fill="none" d="M-5.6,0 L 5.6 0" class="primitive"/>
  </g>
  <g transform="translate(530,305)">
    <path fill="none" d="M-5.6,0 L 5.6 0" class="primitive"/>
  </g>
  <g transform="translate(630,310)">
    <path fill="none" d="M-5.6,0 L 5.6 0" class="primitive"/>
  </g>
</g>
<g fill="#FF0000" id="img-aa78c4c2-2">
  <g transform="translate(20,112.5)">
    <circle cx="0" cy="0" r="4" class="primitive"/>
  </g>
</g>
<g fill="#FF0000" id="img-aa78c4c2-3">
  <g transform="translate(20,90)">
    <circle cx="0" cy="0" r="4" class="primitive"/>
  </g>
</g>
<g fill="#FF0000" id="img-aa78c4c2-4">
  <g transform="translate(20,67.5)">
    <circle cx="0" cy="0" r="4" class="primitive"/>
  </g>
</g>
<g fill="#FF0000" id="img-aa78c4c2-5">
  <g transform="translate(20,10)">
    <circle cx="0" cy="0" r="4" class="primitive"/>
  </g>
</g>
<g fill="#FF0000" id="img-aa78c4c2-6">
  <g transform="translate(20,42.5)">
    <circle cx="0" cy="0" r="4" class="primitive"/>
  </g>
</g>
<g fill="#FF0000" id="img-aa78c4c2-7">
  <g transform="translate(20,137.5)">
    <circle cx="0" cy="0" r="4" class="primitive"/>
  </g>
</g>
<g fill="#00FFFF" id="img-aa78c4c2-8">
  <g transform="translate(720,315)">
    <circle cx="0" cy="0" r="4" class="primitive"/>
  </g>
</g>
<g fill="#00FFFF" id="img-aa78c4c2-9">
  <g transform="translate(700,310)">
    <circle cx="0" cy="0" r="4" class="primitive"/>
  </g>
</g>
<g fill="#00FFFF" id="img-aa78c4c2-10">
  <g transform="translate(680,310)">
    <circle cx="0" cy="0" r="4" class="primitive"/>
  </g>
</g>
<g fill="#00FFFF" id="img-aa78c4c2-11">
  <g transform="translate(660,310)">
    <circle cx="0" cy="0" r="4" class="primitive"/>
  </g>
</g>
<g fill="#00FFFF" id="img-aa78c4c2-12">
  <g transform="translate(120,135)">
    <circle cx="0" cy="0" r="4" class="primitive"/>
  </g>
</g>
<g fill="#00FFFF" id="img-aa78c4c2-13">
  <g transform="translate(100,137.5)">
    <circle cx="0" cy="0" r="4" class="primitive"/>
  </g>
</g>
<g fill="#00FFFF" id="img-aa78c4c2-14">
  <g transform="translate(80,137.5)">
    <circle cx="0" cy="0" r="4" class="primitive"/>
  </g>
</g>
<g fill="#00FFFF" id="img-aa78c4c2-15">
  <g transform="translate(60,137.5)">
    <circle cx="0" cy="0" r="4" class="primitive"/>
  </g>
</g>
<g fill="#00FFFF" id="img-aa78c4c2-16">
  <g transform="translate(120,125)">
    <circle cx="0" cy="0" r="4" class="primitive"/>
  </g>
</g>
<g fill="#00FFFF" id="img-aa78c4c2-17">
  <g transform="translate(100,112.5)">
    <circle cx="0" cy="0" r="4" class="primitive"/>
  </g>
</g>
<g fill="#00FFFF" id="img-aa78c4c2-18">
  <g transform="translate(80,112.5)">
    <circle cx="0" cy="0" r="4" class="primitive"/>
  </g>
</g>
<g fill="#00FFFF" id="img-aa78c4c2-19">
  <g transform="translate(60,112.5)">
    <circle cx="0" cy="0" r="4" class="primitive"/>
  </g>
</g>
<g fill="#00FFFF" id="img-aa78c4c2-20">
  <g transform="translate(120,115)">
    <circle cx="0" cy="0" r="4" class="primitive"/>
  </g>
</g>
<g fill="#00FFFF" id="img-aa78c4c2-21">
  <g transform="translate(100,10)">
    <circle cx="0" cy="0" r="4" class="primitive"/>
  </g>
</g>
<g fill="#00FFFF" id="img-aa78c4c2-22">
  <g transform="translate(80,10)">
    <circle cx="0" cy="0" r="4" class="primitive"/>
  </g>
</g>
<g fill="#00FFFF" id="img-aa78c4c2-23">
  <g transform="translate(60,10)">
    <circle cx="0" cy="0" r="4" class="primitive"/>
  </g>
</g>
<g fill="#00FFFF" id="img-aa78c4c2-24">
  <g transform="translate(120,105)">
    <circle cx="0" cy="0" r="4" class="primitive"/>
  </g>
</g>
<g fill="#00FFFF" id="img-aa78c4c2-25">
  <g transform="translate(100,67.5)">
    <circle cx="0" cy="0" r="4" class="primitive"/>
  </g>
</g>
<g fill="#00FFFF" id="img-aa78c4c2-26">
  <g transform="translate(80,67.5)">
    <circle cx="0" cy="0" r="4" class="primitive"/>
  </g>
</g>
<g fill="#00FFFF" id="img-aa78c4c2-27">
  <g transform="translate(60,67.5)">
    <circle cx="0" cy="0" r="4" class="primitive"/>
  </g>
</g>
<g fill="#00FFFF" id="img-aa78c4c2-28">
  <g transform="translate(120,95)">
    <circle cx="0" cy="0" r="4" class="primitive"/>
  </g>
</g>
<g fill="#00FFFF" id="img-aa78c4c2-29">
  <g transform="translate(100,42.5)">
    <circle cx="0" cy="0" r="4" class="primitive"/>
  </g>
</g>
<g fill="#00FFFF" id="img-aa78c4c2-30">
  <g transform="translate(80,42.5)">
    <circle cx="0" cy="0" r="4" class="primitive"/>
  </g>
</g>
<g fill="#00FFFF" id="img-aa78c4c2-31">
  <g transform="translate(60,42.5)">
    <circle cx="0" cy="0" r="4" class="primitive"/>
  </g>
</g>
<g fill="#00FFFF" id="img-aa78c4c2-32">
  <g transform="translate(220,205)">
    <circle cx="0" cy="0" r="4" class="primitive"/>
  </g>
</g>
<g fill="#00FFFF" id="img-aa78c4c2-33">
  <g transform="translate(200,215)">
    <circle cx="0" cy="0" r="4" class="primitive"/>
  </g>
</g>
<g fill="#00FFFF" id="img-aa78c4c2-34">
  <g transform="translate(180,215)">
    <circle cx="0" cy="0" r="4" class="primitive"/>
  </g>
</g>
<g fill="#00FFFF" id="img-aa78c4c2-35">
  <g transform="translate(160,215)">
    <circle cx="0" cy="0" r="4" class="primitive"/>
  </g>
</g>
<g fill="#00FFFF" id="img-aa78c4c2-36">
  <g transform="translate(220,175)">
    <circle cx="0" cy="0" r="4" class="primitive"/>
  </g>
</g>
<g fill="#00FFFF" id="img-aa78c4c2-37">
  <g transform="translate(200,185)">
    <circle cx="0" cy="0" r="4" class="primitive"/>
  </g>
</g>
<g fill="#00FFFF" id="img-aa78c4c2-38">
  <g transform="translate(180,185)">
    <circle cx="0" cy="0" r="4" class="primitive"/>
  </g>
</g>
<g fill="#00FFFF" id="img-aa78c4c2-39">
  <g transform="translate(160,185)">
    <circle cx="0" cy="0" r="4" class="primitive"/>
  </g>
</g>
<g fill="#00FFFF" id="img-aa78c4c2-40">
  <g transform="translate(220,145)">
    <circle cx="0" cy="0" r="4" class="primitive"/>
  </g>
</g>
<g fill="#00FFFF" id="img-aa78c4c2-41">
  <g transform="translate(200,155)">
    <circle cx="0" cy="0" r="4" class="primitive"/>
  </g>
</g>
<g fill="#00FFFF" id="img-aa78c4c2-42">
  <g transform="translate(180,155)">
    <circle cx="0" cy="0" r="4" class="primitive"/>
  </g>
</g>
<g fill="#00FFFF" id="img-aa78c4c2-43">
  <g transform="translate(160,155)">
    <circle cx="0" cy="0" r="4" class="primitive"/>
  </g>
</g>
<g fill="#00FFFF" id="img-aa78c4c2-44">
  <g transform="translate(320,265)">
    <circle cx="0" cy="0" r="4" class="primitive"/>
  </g>
</g>
<g fill="#00FFFF" id="img-aa78c4c2-45">
  <g transform="translate(300,230)">
    <circle cx="0" cy="0" r="4" class="primitive"/>
  </g>
</g>
<g fill="#00FFFF" id="img-aa78c4c2-46">
  <g transform="translate(280,230)">
    <circle cx="0" cy="0" r="4" class="primitive"/>
  </g>
</g>
<g fill="#00FFFF" id="img-aa78c4c2-47">
  <g transform="translate(260,230)">
    <circle cx="0" cy="0" r="4" class="primitive"/>
  </g>
</g>
<g fill="#00FFFF" id="img-aa78c4c2-48">
  <g transform="translate(420,275)">
    <circle cx="0" cy="0" r="4" class="primitive"/>
  </g>
</g>
<g fill="#00FFFF" id="img-aa78c4c2-49">
  <g transform="translate(400,285)">
    <circle cx="0" cy="0" r="4" class="primitive"/>
  </g>
</g>
<g fill="#00FFFF" id="img-aa78c4c2-50">
  <g transform="translate(380,285)">
    <circle cx="0" cy="0" r="4" class="primitive"/>
  </g>
</g>
<g fill="#00FFFF" id="img-aa78c4c2-51">
  <g transform="translate(360,285)">
    <circle cx="0" cy="0" r="4" class="primitive"/>
  </g>
</g>
<g fill="#00FFFF" id="img-aa78c4c2-52">
  <g transform="translate(320,255)">
    <circle cx="0" cy="0" r="4" class="primitive"/>
  </g>
</g>
<g fill="#00FFFF" id="img-aa78c4c2-53">
  <g transform="translate(300,260)">
    <circle cx="0" cy="0" r="4" class="primitive"/>
  </g>
</g>
<g fill="#00FFFF" id="img-aa78c4c2-54">
  <g transform="translate(280,260)">
    <circle cx="0" cy="0" r="4" class="primitive"/>
  </g>
</g>
<g fill="#00FFFF" id="img-aa78c4c2-55">
  <g transform="translate(260,260)">
    <circle cx="0" cy="0" r="4" class="primitive"/>
  </g>
</g>
<g fill="#00FFFF" id="img-aa78c4c2-56">
  <g transform="translate(120,85)">
    <circle cx="0" cy="0" r="4" class="primitive"/>
  </g>
</g>
<g fill="#00FFFF" id="img-aa78c4c2-57">
  <g transform="translate(100,90)">
    <circle cx="0" cy="0" r="4" class="primitive"/>
  </g>
</g>
<g fill="#00FFFF" id="img-aa78c4c2-58">
  <g transform="translate(80,90)">
    <circle cx="0" cy="0" r="4" class="primitive"/>
  </g>
</g>
<g fill="#00FFFF" id="img-aa78c4c2-59">
  <g transform="translate(60,90)">
    <circle cx="0" cy="0" r="4" class="primitive"/>
  </g>
</g>
<g fill="#00FFFF" id="img-aa78c4c2-60">
  <g transform="translate(520,285)">
    <circle cx="0" cy="0" r="4" class="primitive"/>
  </g>
</g>
<g fill="#00FFFF" id="img-aa78c4c2-61">
  <g transform="translate(500,290)">
    <circle cx="0" cy="0" r="4" class="primitive"/>
  </g>
</g>
<g fill="#00FFFF" id="img-aa78c4c2-62">
  <g transform="translate(480,290)">
    <circle cx="0" cy="0" r="4" class="primitive"/>
  </g>
</g>
<g fill="#00FFFF" id="img-aa78c4c2-63">
  <g transform="translate(460,290)">
    <circle cx="0" cy="0" r="4" class="primitive"/>
  </g>
</g>
<g fill="#00FFFF" id="img-aa78c4c2-64">
  <g transform="translate(620,295)">
    <circle cx="0" cy="0" r="4" class="primitive"/>
  </g>
</g>
<g fill="#00FFFF" id="img-aa78c4c2-65">
  <g transform="translate(600,305)">
    <circle cx="0" cy="0" r="4" class="primitive"/>
  </g>
</g>
<g fill="#00FFFF" id="img-aa78c4c2-66">
  <g transform="translate(580,305)">
    <circle cx="0" cy="0" r="4" class="primitive"/>
  </g>
</g>
<g fill="#00FFFF" id="img-aa78c4c2-67">
  <g transform="translate(560,305)">
    <circle cx="0" cy="0" r="4" class="primitive"/>
  </g>
</g>
<g fill="#FFA500" id="img-aa78c4c2-68">
  <g transform="translate(640,310)">
    <circle cx="0" cy="0" r="4" class="primitive"/>
  </g>
</g>
<g fill="#FFA500" id="img-aa78c4c2-69">
  <g transform="translate(540,305)">
    <circle cx="0" cy="0" r="4" class="primitive"/>
  </g>
</g>
<g fill="#FFA500" id="img-aa78c4c2-70">
  <g transform="translate(240,260)">
    <circle cx="0" cy="0" r="4" class="primitive"/>
  </g>
</g>
<g fill="#FFA500" id="img-aa78c4c2-71">
  <g transform="translate(40,90)">
    <circle cx="0" cy="0" r="4" class="primitive"/>
  </g>
</g>
<g fill="#FFA500" id="img-aa78c4c2-72">
  <g transform="translate(440,290)">
    <circle cx="0" cy="0" r="4" class="primitive"/>
  </g>
</g>
<g fill="#FFA500" id="img-aa78c4c2-73">
  <g transform="translate(340,285)">
    <circle cx="0" cy="0" r="4" class="primitive"/>
  </g>
</g>
<g fill="#FFA500" id="img-aa78c4c2-74">
  <g transform="translate(240,230)">
    <circle cx="0" cy="0" r="4" class="primitive"/>
  </g>
</g>
<g fill="#FFA500" id="img-aa78c4c2-75">
  <g transform="translate(140,185)">
    <circle cx="0" cy="0" r="4" class="primitive"/>
  </g>
</g>
<g fill="#FFA500" id="img-aa78c4c2-76">
  <g transform="translate(140,155)">
    <circle cx="0" cy="0" r="4" class="primitive"/>
  </g>
</g>
<g fill="#FFA500" id="img-aa78c4c2-77">
  <g transform="translate(140,215)">
    <circle cx="0" cy="0" r="4" class="primitive"/>
  </g>
</g>
<g fill="#FFA500" id="img-aa78c4c2-78">
  <g transform="translate(40,67.5)">
    <circle cx="0" cy="0" r="4" class="primitive"/>
  </g>
</g>
<g fill="#FFA500" id="img-aa78c4c2-79">
  <g transform="translate(40,42.5)">
    <circle cx="0" cy="0" r="4" class="primitive"/>
  </g>
</g>
<g fill="#FFA500" id="img-aa78c4c2-80">
  <g transform="translate(40,10)">
    <circle cx="0" cy="0" r="4" class="primitive"/>
  </g>
</g>
<g fill="#FFA500" id="img-aa78c4c2-81">
  <g transform="translate(40,137.5)">
    <circle cx="0" cy="0" r="4" class="primitive"/>
  </g>
</g>
<g fill="#FFA500" id="img-aa78c4c2-82">
  <g transform="translate(40,112.5)">
    <circle cx="0" cy="0" r="4" class="primitive"/>
  </g>
</g>
<g fill="#FF0000" id="img-aa78c4c2-83">
  <g transform="translate(720,305)">
    <circle cx="0" cy="0" r="4" class="primitive"/>
  </g>
</g>
<g fill="#FF0000" id="img-aa78c4c2-84">
  <g transform="translate(120,215)">
    <circle cx="0" cy="0" r="4" class="primitive"/>
  </g>
</g>
<g fill="#FF0000" id="img-aa78c4c2-85">
  <g transform="translate(120,155)">
    <circle cx="0" cy="0" r="4" class="primitive"/>
  </g>
</g>
<g fill="#FF0000" id="img-aa78c4c2-86">
  <g transform="translate(120,185)">
    <circle cx="0" cy="0" r="4" class="primitive"/>
  </g>
</g>
<g fill="#FF0000" id="img-aa78c4c2-87">
  <g transform="translate(220,260)">
    <circle cx="0" cy="0" r="4" class="primitive"/>
  </g>
</g>
<g fill="#FF0000" id="img-aa78c4c2-88">
  <g transform="translate(220,230)">
    <circle cx="0" cy="0" r="4" class="primitive"/>
  </g>
</g>
<g fill="#FF0000" id="img-aa78c4c2-89">
  <g transform="translate(320,285)">
    <circle cx="0" cy="0" r="4" class="primitive"/>
  </g>
</g>
<g fill="#FF0000" id="img-aa78c4c2-90">
  <g transform="translate(420,290)">
    <circle cx="0" cy="0" r="4" class="primitive"/>
  </g>
</g>
<g fill="#FF0000" id="img-aa78c4c2-91">
  <g transform="translate(520,305)">
    <circle cx="0" cy="0" r="4" class="primitive"/>
  </g>
</g>
<g fill="#FF0000" id="img-aa78c4c2-92">
  <g transform="translate(620,310)">
    <circle cx="0" cy="0" r="4" class="primitive"/>
  </g>
</g>
<g font-family="futura" font-size="3.53" stroke="#000000" id="img-aa78c4c2-93">
  <g transform="translate(20,112.5)">
    <g class="primitive">
      <text text-anchor="middle" dy="-0.25em">op419<tspan x="0" dy="1.2em">0,0</tspan></text>
    </g>
  </g>
  <g transform="translate(20,90)">
    <g class="primitive">
      <text text-anchor="middle" dy="-0.25em">op418<tspan x="0" dy="1.2em">0,0</tspan></text>
    </g>
  </g>
  <g transform="translate(20,67.5)">
    <g class="primitive">
      <text text-anchor="middle" dy="-0.25em">op417<tspan x="0" dy="1.2em">0,0</tspan></text>
    </g>
  </g>
  <g transform="translate(20,10)">
    <g class="primitive">
      <text text-anchor="middle" dy="-0.25em">op416<tspan x="0" dy="1.2em">0,0</tspan></text>
    </g>
  </g>
  <g transform="translate(20,42.5)">
    <g class="primitive">
      <text text-anchor="middle" dy="-0.25em">op415<tspan x="0" dy="1.2em">0,0</tspan></text>
    </g>
  </g>
  <g transform="translate(20,137.5)">
    <g class="primitive">
      <text text-anchor="middle" dy="-0.25em">op414<tspan x="0" dy="1.2em">0,0</tspan></text>
    </g>
  </g>
  <g transform="translate(720,315)">
    <g class="primitive">
      <text text-anchor="middle" dy="-0.85em">go<tspan x="0" dy="1.2em">-1,374,-1</tspan><tspan x="0" dy="1.2em">105,105</tspan></text>
    </g>
  </g>
  <g transform="translate(700,310)">
    <g class="primitive">
      <text text-anchor="middle" dy="-0.85em">deposit<tspan x="0" dy="1.2em">-1,75,374</tspan><tspan x="0" dy="1.2em">105,105</tspan></text>
    </g>
  </g>
  <g transform="translate(680,310)">
    <g class="primitive">
      <text text-anchor="middle" dy="-0.85em">carry<tspan x="0" dy="1.2em">-1,75,374</tspan><tspan x="0" dy="1.2em">93,105</tspan></text>
    </g>
  </g>
  <g transform="translate(660,310)">
    <g class="primitive">
      <text text-anchor="middle" dy="-0.85em">collect<tspan x="0" dy="1.2em">-1,75,136</tspan><tspan x="0" dy="1.2em">93,93</tspan></text>
    </g>
  </g>
  <g transform="translate(120,135)">
    <g class="primitive">
      <text text-anchor="middle" dy="-0.85em">go<tspan x="0" dy="1.2em">-1,348,-1</tspan><tspan x="0" dy="1.2em">7,7</tspan></text>
    </g>
  </g>
  <g transform="translate(100,137.5)">
    <g class="primitive">
      <text text-anchor="middle" dy="-0.85em">deposit<tspan x="0" dy="1.2em">-1,62,348</tspan><tspan x="0" dy="1.2em">7,7</tspan></text>
    </g>
  </g>
  <g transform="translate(80,137.5)">
    <g class="primitive">
      <text text-anchor="middle" dy="-0.85em">carry<tspan x="0" dy="1.2em">-1,62,348</tspan><tspan x="0" dy="1.2em">0,7</tspan></text>
    </g>
  </g>
  <g transform="translate(60,137.5)">
    <g class="primitive">
      <text text-anchor="middle" dy="-0.85em">collect<tspan x="0" dy="1.2em">-1,62,355</tspan><tspan x="0" dy="1.2em">0,0</tspan></text>
    </g>
  </g>
  <g transform="translate(120,125)">
    <g class="primitive">
      <text text-anchor="middle" dy="-0.85em">go<tspan x="0" dy="1.2em">-1,222,-1</tspan><tspan x="0" dy="1.2em">7,7</tspan></text>
    </g>
  </g>
  <g transform="translate(100,112.5)">
    <g class="primitive">
      <text text-anchor="middle" dy="-0.85em">deposit<tspan x="0" dy="1.2em">-1,61,222</tspan><tspan x="0" dy="1.2em">7,7</tspan></text>
    </g>
  </g>
  <g transform="translate(80,112.5)">
    <g class="primitive">
      <text text-anchor="middle" dy="-0.85em">carry<tspan x="0" dy="1.2em">-1,61,222</tspan><tspan x="0" dy="1.2em">0,7</tspan></text>
    </g>
  </g>
  <g transform="translate(60,112.5)">
    <g class="primitive">
      <text text-anchor="middle" dy="-0.85em">collect<tspan x="0" dy="1.2em">-1,61,380</tspan><tspan x="0" dy="1.2em">0,0</tspan></text>
    </g>
  </g>
  <g transform="translate(120,115)">
    <g class="primitive">
      <text text-anchor="middle" dy="-0.85em">go<tspan x="0" dy="1.2em">-1,214,-1</tspan><tspan x="0" dy="1.2em">23,23</tspan></text>
    </g>
  </g>
  <g transform="translate(100,10)">
    <g class="primitive">
      <text text-anchor="middle" dy="-0.85em">deposit<tspan x="0" dy="1.2em">-1,63,214</tspan><tspan x="0" dy="1.2em">23,23</tspan></text>
    </g>
  </g>
  <g transform="translate(80,10)">
    <g class="primitive">
      <text text-anchor="middle" dy="-0.85em">carry<tspan x="0" dy="1.2em">-1,63,214</tspan><tspan x="0" dy="1.2em">0,23</tspan></text>
    </g>
  </g>
  <g transform="translate(60,10)">
    <g class="primitive">
      <text text-anchor="middle" dy="-0.85em">collect<tspan x="0" dy="1.2em">-1,63,57</tspan><tspan x="0" dy="1.2em">0,0</tspan></text>
    </g>
  </g>
  <g transform="translate(120,105)">
    <g class="primitive">
      <text text-anchor="middle" dy="-0.85em">go<tspan x="0" dy="1.2em">-1,86,-1</tspan><tspan x="0" dy="1.2em">11,11</tspan></text>
    </g>
  </g>
  <g transform="translate(100,67.5)">
    <g class="primitive">
      <text text-anchor="middle" dy="-0.85em">deposit<tspan x="0" dy="1.2em">-1,65,86</tspan><tspan x="0" dy="1.2em">11,11</tspan></text>
    </g>
  </g>
  <g transform="translate(80,67.5)">
    <g class="primitive">
      <text text-anchor="middle" dy="-0.85em">carry<tspan x="0" dy="1.2em">-1,65,86</tspan><tspan x="0" dy="1.2em">0,11</tspan></text>
    </g>
  </g>
  <g transform="translate(60,67.5)">
    <g class="primitive">
      <text text-anchor="middle" dy="-0.85em">collect<tspan x="0" dy="1.2em">-1,65,81</tspan><tspan x="0" dy="1.2em">0,0</tspan></text>
    </g>
  </g>
  <g transform="translate(120,95)">
    <g class="primitive">
      <text text-anchor="middle" dy="-0.85em">go<tspan x="0" dy="1.2em">-1,265,-1</tspan><tspan x="0" dy="1.2em">18,18</tspan></text>
    </g>
  </g>
  <g transform="translate(100,42.5)">
    <g class="primitive">
      <text text-anchor="middle" dy="-0.85em">deposit<tspan x="0" dy="1.2em">-1,64,265</tspan><tspan x="0" dy="1.2em">18,18</tspan></text>
    </g>
  </g>
  <g transform="translate(80,42.5)">
    <g class="primitive">
      <text text-anchor="middle" dy="-0.85em">carry<tspan x="0" dy="1.2em">-1,64,265</tspan><tspan x="0" dy="1.2em">0,18</tspan></text>
    </g>
  </g>
  <g transform="translate(60,42.5)">
    <g class="primitive">
      <text text-anchor="middle" dy="-0.85em">collect<tspan x="0" dy="1.2em">-1,64,501</tspan><tspan x="0" dy="1.2em">0,0</tspan></text>
    </g>
  </g>
  <g transform="translate(220,205)">
    <g class="primitive">
      <text text-anchor="middle" dy="-0.85em">go<tspan x="0" dy="1.2em">-1,354,-1</tspan><tspan x="0" dy="1.2em">15,15</tspan></text>
    </g>
  </g>
  <g transform="translate(200,215)">
    <g class="primitive">
      <text text-anchor="middle" dy="-0.85em">deposit<tspan x="0" dy="1.2em">-1,66,354</tspan><tspan x="0" dy="1.2em">15,15</tspan></text>
    </g>
  </g>
  <g transform="translate(180,215)">
    <g class="primitive">
      <text text-anchor="middle" dy="-0.85em">carry<tspan x="0" dy="1.2em">-1,66,354</tspan><tspan x="0" dy="1.2em">7,15</tspan></text>
    </g>
  </g>
  <g transform="translate(160,215)">
    <g class="primitive">
      <text text-anchor="middle" dy="-0.85em">collect<tspan x="0" dy="1.2em">-1,66,369</tspan><tspan x="0" dy="1.2em">7,7</tspan></text>
    </g>
  </g>
  <g transform="translate(220,175)">
    <g class="primitive">
      <text text-anchor="middle" dy="-0.85em">go<tspan x="0" dy="1.2em">-1,502,-1</tspan><tspan x="0" dy="1.2em">45,45</tspan></text>
    </g>
  </g>
  <g transform="translate(200,185)">
    <g class="primitive">
      <text text-anchor="middle" dy="-0.85em">deposit<tspan x="0" dy="1.2em">-1,68,502</tspan><tspan x="0" dy="1.2em">45,45</tspan></text>
    </g>
  </g>
  <g transform="translate(180,185)">
    <g class="primitive">
      <text text-anchor="middle" dy="-0.85em">carry<tspan x="0" dy="1.2em">-1,68,502</tspan><tspan x="0" dy="1.2em">18,45</tspan></text>
    </g>
  </g>
  <g transform="translate(160,185)">
    <g class="primitive">
      <text text-anchor="middle" dy="-0.85em">collect<tspan x="0" dy="1.2em">-1,68,89</tspan><tspan x="0" dy="1.2em">18,18</tspan></text>
    </g>
  </g>
  <g transform="translate(220,145)">
    <g class="primitive">
      <text text-anchor="middle" dy="-0.85em">go<tspan x="0" dy="1.2em">-1,506,-1</tspan><tspan x="0" dy="1.2em">47,47</tspan></text>
    </g>
  </g>
  <g transform="translate(200,155)">
    <g class="primitive">
      <text text-anchor="middle" dy="-0.85em">deposit<tspan x="0" dy="1.2em">-1,67,506</tspan><tspan x="0" dy="1.2em">47,47</tspan></text>
    </g>
  </g>
  <g transform="translate(180,155)">
    <g class="primitive">
      <text text-anchor="middle" dy="-0.85em">carry<tspan x="0" dy="1.2em">-1,67,506</tspan><tspan x="0" dy="1.2em">23,47</tspan></text>
    </g>
  </g>
  <g transform="translate(160,155)">
    <g class="primitive">
      <text text-anchor="middle" dy="-0.85em">collect<tspan x="0" dy="1.2em">-1,67,118</tspan><tspan x="0" dy="1.2em">23,23</tspan></text>
    </g>
  </g>
  <g transform="translate(320,265)">
    <g class="primitive">
      <text text-anchor="middle" dy="-0.85em">go<tspan x="0" dy="1.2em">-1,119,-1</tspan><tspan x="0" dy="1.2em">61,61</tspan></text>
    </g>
  </g>
  <g transform="translate(300,230)">
    <g class="primitive">
      <text text-anchor="middle" dy="-0.85em">deposit<tspan x="0" dy="1.2em">-1,69,119</tspan><tspan x="0" dy="1.2em">61,61</tspan></text>
    </g>
  </g>
  <g transform="translate(280,230)">
    <g class="primitive">
      <text text-anchor="middle" dy="-0.85em">carry<tspan x="0" dy="1.2em">-1,69,119</tspan><tspan x="0" dy="1.2em">47,61</tspan></text>
    </g>
  </g>
  <g transform="translate(260,230)">
    <g class="primitive">
      <text text-anchor="middle" dy="-0.85em">collect<tspan x="0" dy="1.2em">-1,69,229</tspan><tspan x="0" dy="1.2em">47,47</tspan></text>
    </g>
  </g>
  <g transform="translate(420,275)">
    <g class="primitive">
      <text text-anchor="middle" dy="-0.85em">go<tspan x="0" dy="1.2em">-1,510,-1</tspan><tspan x="0" dy="1.2em">77,77</tspan></text>
    </g>
  </g>
  <g transform="translate(400,285)">
    <g class="primitive">
      <text text-anchor="middle" dy="-0.85em">deposit<tspan x="0" dy="1.2em">-1,70,510</tspan><tspan x="0" dy="1.2em">77,77</tspan></text>
    </g>
  </g>
  <g transform="translate(380,285)">
    <g class="primitive">
      <text text-anchor="middle" dy="-0.85em">carry<tspan x="0" dy="1.2em">-1,70,510</tspan><tspan x="0" dy="1.2em">61,77</tspan></text>
    </g>
  </g>
  <g transform="translate(360,285)">
    <g class="primitive">
      <text text-anchor="middle" dy="-0.85em">collect<tspan x="0" dy="1.2em">-1,70,538</tspan><tspan x="0" dy="1.2em">61,61</tspan></text>
    </g>
  </g>
  <g transform="translate(320,255)">
    <g class="primitive">
      <text text-anchor="middle" dy="-0.85em">go<tspan x="0" dy="1.2em">-1,137,-1</tspan><tspan x="0" dy="1.2em">21,21</tspan></text>
    </g>
  </g>
  <g transform="translate(300,260)">
    <g class="primitive">
      <text text-anchor="middle" dy="-0.85em">deposit<tspan x="0" dy="1.2em">-1,73,137</tspan><tspan x="0" dy="1.2em">21,21</tspan></text>
    </g>
  </g>
  <g transform="translate(280,260)">
    <g class="primitive">
      <text text-anchor="middle" dy="-0.85em">carry<tspan x="0" dy="1.2em">-1,73,137</tspan><tspan x="0" dy="1.2em">15,21</tspan></text>
    </g>
  </g>
  <g transform="translate(260,260)">
    <g class="primitive">
      <text text-anchor="middle" dy="-0.85em">collect<tspan x="0" dy="1.2em">-1,73,233</tspan><tspan x="0" dy="1.2em">15,15</tspan></text>
    </g>
  </g>
  <g transform="translate(120,85)">
    <g class="primitive">
      <text text-anchor="middle" dy="-0.85em">go<tspan x="0" dy="1.2em">-1,230,-1</tspan><tspan x="0" dy="1.2em">8,8</tspan></text>
    </g>
  </g>
  <g transform="translate(100,90)">
    <g class="primitive">
      <text text-anchor="middle" dy="-0.85em">deposit<tspan x="0" dy="1.2em">-1,72,230</tspan><tspan x="0" dy="1.2em">8,8</tspan></text>
    </g>
  </g>
  <g transform="translate(80,90)">
    <g class="primitive">
      <text text-anchor="middle" dy="-0.85em">carry<tspan x="0" dy="1.2em">-1,72,230</tspan><tspan x="0" dy="1.2em">0,8</tspan></text>
    </g>
  </g>
  <g transform="translate(60,90)">
    <g class="primitive">
      <text text-anchor="middle" dy="-0.85em">collect<tspan x="0" dy="1.2em">-1,72,203</tspan><tspan x="0" dy="1.2em">0,0</tspan></text>
    </g>
  </g>
  <g transform="translate(520,285)">
    <g class="primitive">
      <text text-anchor="middle" dy="-0.85em">go<tspan x="0" dy="1.2em">-1,494,-1</tspan><tspan x="0" dy="1.2em">88,88</tspan></text>
    </g>
  </g>
  <g transform="translate(500,290)">
    <g class="primitive">
      <text text-anchor="middle" dy="-0.85em">deposit<tspan x="0" dy="1.2em">-1,71,494</tspan><tspan x="0" dy="1.2em">88,88</tspan></text>
    </g>
  </g>
  <g transform="translate(480,290)">
    <g class="primitive">
      <text text-anchor="middle" dy="-0.85em">carry<tspan x="0" dy="1.2em">-1,71,494</tspan><tspan x="0" dy="1.2em">77,88</tspan></text>
    </g>
  </g>
  <g transform="translate(460,290)">
    <g class="primitive">
      <text text-anchor="middle" dy="-0.85em">collect<tspan x="0" dy="1.2em">-1,71,349</tspan><tspan x="0" dy="1.2em">77,77</tspan></text>
    </g>
  </g>
  <g transform="translate(620,295)">
    <g class="primitive">
      <text text-anchor="middle" dy="-0.85em">go<tspan x="0" dy="1.2em">-1,247,-1</tspan><tspan x="0" dy="1.2em">93,93</tspan></text>
    </g>
  </g>
  <g transform="translate(600,305)">
    <g class="primitive">
      <text text-anchor="middle" dy="-0.85em">deposit<tspan x="0" dy="1.2em">-1,74,247</tspan><tspan x="0" dy="1.2em">93,93</tspan></text>
    </g>
  </g>
  <g transform="translate(580,305)">
    <g class="primitive">
      <text text-anchor="middle" dy="-0.85em">carry<tspan x="0" dy="1.2em">-1,74,247</tspan><tspan x="0" dy="1.2em">88,93</tspan></text>
    </g>
  </g>
  <g transform="translate(560,305)">
    <g class="primitive">
      <text text-anchor="middle" dy="-0.85em">collect<tspan x="0" dy="1.2em">-1,74,248</tspan><tspan x="0" dy="1.2em">88,88</tspan></text>
    </g>
  </g>
  <g transform="translate(640,310)">
    <g class="primitive">
      <text text-anchor="middle" dy="-0.25em">O75-136<tspan x="0" dy="1.2em">93,93</tspan></text>
    </g>
  </g>
  <g transform="translate(540,305)">
    <g class="primitive">
      <text text-anchor="middle" dy="-0.25em">O74-248<tspan x="0" dy="1.2em">88,88</tspan></text>
    </g>
  </g>
  <g transform="translate(240,260)">
    <g class="primitive">
      <text text-anchor="middle" dy="-0.25em">O73-233<tspan x="0" dy="1.2em">15,15</tspan></text>
    </g>
  </g>
  <g transform="translate(40,90)">
    <g class="primitive">
      <text text-anchor="middle" dy="-0.25em">O72-203<tspan x="0" dy="1.2em">0,0</tspan></text>
    </g>
  </g>
  <g transform="translate(440,290)">
    <g class="primitive">
      <text text-anchor="middle" dy="-0.25em">O71-349<tspan x="0" dy="1.2em">77,77</tspan></text>
    </g>
  </g>
  <g transform="translate(340,285)">
    <g class="primitive">
      <text text-anchor="middle" dy="-0.25em">O70-538<tspan x="0" dy="1.2em">61,61</tspan></text>
    </g>
  </g>
  <g transform="translate(240,230)">
    <g class="primitive">
      <text text-anchor="middle" dy="-0.25em">O69-229<tspan x="0" dy="1.2em">47,47</tspan></text>
    </g>
  </g>
  <g transform="translate(140,185)">
    <g class="primitive">
      <text text-anchor="middle" dy="-0.25em">O68-89<tspan x="0" dy="1.2em">18,18</tspan></text>
    </g>
  </g>
  <g transform="translate(140,155)">
    <g class="primitive">
      <text text-anchor="middle" dy="-0.25em">O67-118<tspan x="0" dy="1.2em">23,23</tspan></text>
    </g>
  </g>
  <g transform="translate(140,215)">
    <g class="primitive">
      <text text-anchor="middle" dy="-0.25em">O66-369<tspan x="0" dy="1.2em">7,7</tspan></text>
    </g>
  </g>
  <g transform="translate(40,67.5)">
    <g class="primitive">
      <text text-anchor="middle" dy="-0.25em">O65-81<tspan x="0" dy="1.2em">0,0</tspan></text>
    </g>
  </g>
  <g transform="translate(40,42.5)">
    <g class="primitive">
      <text text-anchor="middle" dy="-0.25em">O64-501<tspan x="0" dy="1.2em">0,0</tspan></text>
    </g>
  </g>
  <g transform="translate(40,10)">
    <g class="primitive">
      <text text-anchor="middle" dy="-0.25em">O63-57<tspan x="0" dy="1.2em">0,0</tspan></text>
    </g>
  </g>
  <g transform="translate(40,137.5)">
    <g class="primitive">
      <text text-anchor="middle" dy="-0.25em">O62-355<tspan x="0" dy="1.2em">0,0</tspan></text>
    </g>
  </g>
  <g transform="translate(40,112.5)">
    <g class="primitive">
      <text text-anchor="middle" dy="-0.25em">O61-380<tspan x="0" dy="1.2em">0,0</tspan></text>
    </g>
  </g>
  <g transform="translate(720,305)">
    <g class="primitive">
      <text text-anchor="middle" dy="-0.25em">op413<tspan x="0" dy="1.2em">105,105</tspan></text>
    </g>
  </g>
  <g transform="translate(120,215)">
    <g class="primitive">
      <text text-anchor="middle" dy="-0.25em">op412<tspan x="0" dy="1.2em">7,7</tspan></text>
    </g>
  </g>
  <g transform="translate(120,155)">
    <g class="primitive">
      <text text-anchor="middle" dy="-0.25em">op411<tspan x="0" dy="1.2em">23,23</tspan></text>
    </g>
  </g>
  <g transform="translate(120,185)">
    <g class="primitive">
      <text text-anchor="middle" dy="-0.25em">op410<tspan x="0" dy="1.2em">18,18</tspan></text>
    </g>
  </g>
  <g transform="translate(220,260)">
    <g class="primitive">
      <text text-anchor="middle" dy="-0.25em">op409<tspan x="0" dy="1.2em">15,15</tspan></text>
    </g>
  </g>
  <g transform="translate(220,230)">
    <g class="primitive">
      <text text-anchor="middle" dy="-0.25em">op408<tspan x="0" dy="1.2em">47,47</tspan></text>
    </g>
  </g>
  <g transform="translate(320,285)">
    <g class="primitive">
      <text text-anchor="middle" dy="-0.25em">op407<tspan x="0" dy="1.2em">61,61</tspan></text>
    </g>
  </g>
  <g transform="translate(420,290)">
    <g class="primitive">
      <text text-anchor="middle" dy="-0.25em">op406<tspan x="0" dy="1.2em">77,77</tspan></text>
    </g>
  </g>
  <g transform="translate(520,305)">
    <g class="primitive">
      <text text-anchor="middle" dy="-0.25em">op405<tspan x="0" dy="1.2em">88,88</tspan></text>
    </g>
  </g>
  <g transform="translate(620,310)">
    <g class="primitive">
      <text text-anchor="middle" dy="-0.25em">op404<tspan x="0" dy="1.2em">93,93</tspan></text>
    </g>
  </g>
</g>
</svg>
