<?xml version="1.0" encoding="UTF-8"?>
<svg xmlns="http://www.w3.org/2000/svg"
     xmlns:xlink="http://www.w3.org/1999/xlink"
     xmlns:gadfly="http://www.gadflyjl.org/ns"
     version="1.2"
     width="340mm" height="120mm" viewBox="0 0 340 120"
     stroke="none"
     fill="#000000"
     stroke-width="0.3"
     font-size="3.88"
>
<defs>
  <marker id="arrow" markerWidth="15" markerHeight="7" refX="5" refY="3.5" orient="auto" markerUnits="strokeWidth">
    <path d="M0,0 L15,3.5 L0,7 z" stroke="context-stroke" fill="context-stroke"/>
  </marker>
</defs>
<g stroke="#000000" id="img-48f43e3a-1">
  <g transform="translate(30,10)">
    <path fill="none" d="M-5.6,0 L 5.6 0" class="primitive"/>
  </g>
  <g transform="translate(30,55)">
    <path fill="none" d="M-5.6,0 L 5.6 0" class="primitive"/>
  </g>
  <g transform="translate(30,35)">
    <path fill="none" d="M-5.6,0 L 5.6 0" class="primitive"/>
  </g>
  <g transform="translate(310,107.5)">
    <path fill="none" d="M-6.06,-1.52 L 6.06 1.52" class="primitive"/>
  </g>
  <g transform="translate(310,102.5)">
    <path fill="none" d="M-6.06,1.52 L 6.06 -1.52" class="primitive"/>
  </g>
  <g transform="translate(290,105)">
    <path fill="none" d="M-5.6,0 L 5.6 0" class="primitive"/>
  </g>
  <g transform="translate(270,105)">
    <path fill="none" d="M-5.6,0 L 5.6 0" class="primitive"/>
  </g>
  <g transform="translate(110,35)">
    <path fill="none" d="M-9.14,-22.84 L 9.14 22.84" class="primitive"/>
  </g>
  <g transform="translate(110,42.5)">
    <path fill="none" d="M-9.33,-30.33 L 9.33 30.33" class="primitive"/>
  </g>
  <g transform="translate(90,10)">
    <path fill="none" d="M-5.6,0 L 5.6 0" class="primitive"/>
  </g>
  <g transform="translate(70,10)">
    <path fill="none" d="M-5.6,0 L 5.6 0" class="primitive"/>
  </g>
  <g transform="translate(110,52.5)">
    <path fill="none" d="M-6.06,1.52 L 6.06 -1.52" class="primitive"/>
  </g>
  <g transform="translate(110,75)">
    <path fill="none" d="M-8.93,-17.87 L 8.93 17.87" class="primitive"/>
  </g>
  <g transform="translate(90,55)">
    <path fill="none" d="M-5.6,0 L 5.6 0" class="primitive"/>
  </g>
  <g transform="translate(70,55)">
    <path fill="none" d="M-5.6,0 L 5.6 0" class="primitive"/>
  </g>
  <g transform="translate(110,32.5)">
    <path fill="none" d="M-6.06,1.52 L 6.06 -1.52" class="primitive"/>
  </g>
  <g transform="translate(110,65)">
    <path fill="none" d="M-9.28,-27.83 L 9.28 27.83" class="primitive"/>
  </g>
  <g transform="translate(90,35)">
    <path fill="none" d="M-5.6,0 L 5.6 0" class="primitive"/>
  </g>
  <g transform="translate(70,35)">
    <path fill="none" d="M-5.6,0 L 5.6 0" class="primitive"/>
  </g>
  <g transform="translate(210,92.5)">
    <path fill="none" d="M-6.06,1.52 L 6.06 -1.52" class="primitive"/>
  </g>
  <g transform="translate(210,100)">
    <path fill="none" d="M-6.89,-3.44 L 6.89 3.44" class="primitive"/>
  </g>
  <g transform="translate(190,95)">
    <path fill="none" d="M-5.6,0 L 5.6 0" class="primitive"/>
  </g>
  <g transform="translate(170,95)">
    <path fill="none" d="M-5.6,0 L 5.6 0" class="primitive"/>
  </g>
  <g transform="translate(210,72.5)">
    <path fill="none" d="M-6.06,1.52 L 6.06 -1.52" class="primitive"/>
  </g>
  <g transform="translate(210,90)">
    <path fill="none" d="M-8.61,-12.91 L 8.61 12.91" class="primitive"/>
  </g>
  <g transform="translate(190,75)">
    <path fill="none" d="M-5.6,0 L 5.6 0" class="primitive"/>
  </g>
  <g transform="translate(170,75)">
    <path fill="none" d="M-5.6,0 L 5.6 0" class="primitive"/>
  </g>
  <g transform="translate(250,105)">
    <path fill="none" d="M-5.6,0 L 5.6 0" class="primitive"/>
  </g>
  <g transform="translate(150,95)">
    <path fill="none" d="M-5.6,0 L 5.6 0" class="primitive"/>
  </g>
  <g transform="translate(150,75)">
    <path fill="none" d="M-5.6,0 L 5.6 0" class="primitive"/>
  </g>
  <g transform="translate(50,55)">
    <path fill="none" d="M-5.6,0 L 5.6 0" class="primitive"/>
  </g>
  <g transform="translate(50,35)">
    <path fill="none" d="M-5.6,0 L 5.6 0" class="primitive"/>
  </g>
  <g transform="translate(50,10)">
    <path fill="none" d="M-5.6,0 L 5.6 0" class="primitive"/>
  </g>
  <g transform="translate(130,75)">
    <path fill="none" d="M-5.6,0 L 5.6 0" class="primitive"/>
  </g>
  <g transform="translate(130,95)">
    <path fill="none" d="M-5.6,0 L 5.6 0" class="primitive"/>
  </g>
  <g transform="translate(230,105)">
    <path fill="none" d="M-5.6,0 L 5.6 0" class="primitive"/>
  </g>
</g>
<g fill="#FF0000" id="img-48f43e3a-2">
  <g transform="translate(20,10)">
    <circle cx="0" cy="0" r="4" class="primitive"/>
  </g>
</g>
<g fill="#FF0000" id="img-48f43e3a-3">
  <g transform="translate(20,55)">
    <circle cx="0" cy="0" r="4" class="primitive"/>
  </g>
</g>
<g fill="#FF0000" id="img-48f43e3a-4">
  <g transform="translate(20,35)">
    <circle cx="0" cy="0" r="4" class="primitive"/>
  </g>
</g>
<g fill="#00FFFF" id="img-48f43e3a-5">
  <g transform="translate(320,110)">
    <circle cx="0" cy="0" r="4" class="primitive"/>
  </g>
</g>
<g fill="#00FFFF" id="img-48f43e3a-6">
  <g transform="translate(300,105)">
    <circle cx="0" cy="0" r="4" class="primitive"/>
  </g>
</g>
<g fill="#00FFFF" id="img-48f43e3a-7">
  <g transform="translate(280,105)">
    <circle cx="0" cy="0" r="4" class="primitive"/>
  </g>
</g>
<g fill="#00FFFF" id="img-48f43e3a-8">
  <g transform="translate(260,105)">
    <circle cx="0" cy="0" r="4" class="primitive"/>
  </g>
</g>
<g fill="#00FFFF" id="img-48f43e3a-9">
  <g transform="translate(120,60)">
    <circle cx="0" cy="0" r="4" class="primitive"/>
  </g>
</g>
<g fill="#00FFFF" id="img-48f43e3a-10">
  <g transform="translate(100,10)">
    <circle cx="0" cy="0" r="4" class="primitive"/>
  </g>
</g>
<g fill="#00FFFF" id="img-48f43e3a-11">
  <g transform="translate(80,10)">
    <circle cx="0" cy="0" r="4" class="primitive"/>
  </g>
</g>
<g fill="#00FFFF" id="img-48f43e3a-12">
  <g transform="translate(60,10)">
    <circle cx="0" cy="0" r="4" class="primitive"/>
  </g>
</g>
<g fill="#00FFFF" id="img-48f43e3a-13">
  <g transform="translate(120,50)">
    <circle cx="0" cy="0" r="4" class="primitive"/>
  </g>
</g>
<g fill="#00FFFF" id="img-48f43e3a-14">
  <g transform="translate(100,55)">
    <circle cx="0" cy="0" r="4" class="primitive"/>
  </g>
</g>
<g fill="#00FFFF" id="img-48f43e3a-15">
  <g transform="translate(80,55)">
    <circle cx="0" cy="0" r="4" class="primitive"/>
  </g>
</g>
<g fill="#00FFFF" id="img-48f43e3a-16">
  <g transform="translate(60,55)">
    <circle cx="0" cy="0" r="4" class="primitive"/>
  </g>
</g>
<g fill="#00FFFF" id="img-48f43e3a-17">
  <g transform="translate(120,30)">
    <circle cx="0" cy="0" r="4" class="primitive"/>
  </g>
</g>
<g fill="#00FFFF" id="img-48f43e3a-18">
  <g transform="translate(100,35)">
    <circle cx="0" cy="0" r="4" class="primitive"/>
  </g>
</g>
<g fill="#00FFFF" id="img-48f43e3a-19">
  <g transform="translate(80,35)">
    <circle cx="0" cy="0" r="4" class="primitive"/>
  </g>
</g>
<g fill="#00FFFF" id="img-48f43e3a-20">
  <g transform="translate(60,35)">
    <circle cx="0" cy="0" r="4" class="primitive"/>
  </g>
</g>
<g fill="#00FFFF" id="img-48f43e3a-21">
  <g transform="translate(220,90)">
    <circle cx="0" cy="0" r="4" class="primitive"/>
  </g>
</g>
<g fill="#00FFFF" id="img-48f43e3a-22">
  <g transform="translate(200,95)">
    <circle cx="0" cy="0" r="4" class="primitive"/>
  </g>
</g>
<g fill="#00FFFF" id="img-48f43e3a-23">
  <g transform="translate(180,95)">
    <circle cx="0" cy="0" r="4" class="primitive"/>
  </g>
</g>
<g fill="#00FFFF" id="img-48f43e3a-24">
  <g transform="translate(160,95)">
    <circle cx="0" cy="0" r="4" class="primitive"/>
  </g>
</g>
<g fill="#00FFFF" id="img-48f43e3a-25">
  <g transform="translate(220,70)">
    <circle cx="0" cy="0" r="4" class="primitive"/>
  </g>
</g>
<g fill="#00FFFF" id="img-48f43e3a-26">
  <g transform="translate(200,75)">
    <circle cx="0" cy="0" r="4" class="primitive"/>
  </g>
</g>
<g fill="#00FFFF" id="img-48f43e3a-27">
  <g transform="translate(180,75)">
    <circle cx="0" cy="0" r="4" class="primitive"/>
  </g>
</g>
<g fill="#00FFFF" id="img-48f43e3a-28">
  <g transform="translate(160,75)">
    <circle cx="0" cy="0" r="4" class="primitive"/>
  </g>
</g>
<g fill="#FFA500" id="img-48f43e3a-29">
  <g transform="translate(240,105)">
    <circle cx="0" cy="0" r="4" class="primitive"/>
  </g>
</g>
<g fill="#FFA500" id="img-48f43e3a-30">
  <g transform="translate(140,95)">
    <circle cx="0" cy="0" r="4" class="primitive"/>
  </g>
</g>
<g fill="#FFA500" id="img-48f43e3a-31">
  <g transform="translate(140,75)">
    <circle cx="0" cy="0" r="4" class="primitive"/>
  </g>
</g>
<g fill="#FFA500" id="img-48f43e3a-32">
  <g transform="translate(40,55)">
    <circle cx="0" cy="0" r="4" class="primitive"/>
  </g>
</g>
<g fill="#FFA500" id="img-48f43e3a-33">
  <g transform="translate(40,35)">
    <circle cx="0" cy="0" r="4" class="primitive"/>
  </g>
</g>
<g fill="#FFA500" id="img-48f43e3a-34">
  <g transform="translate(40,10)">
    <circle cx="0" cy="0" r="4" class="primitive"/>
  </g>
</g>
<g fill="#FF0000" id="img-48f43e3a-35">
  <g transform="translate(320,100)">
    <circle cx="0" cy="0" r="4" class="primitive"/>
  </g>
</g>
<g fill="#FF0000" id="img-48f43e3a-36">
  <g transform="translate(120,75)">
    <circle cx="0" cy="0" r="4" class="primitive"/>
  </g>
</g>
<g fill="#FF0000" id="img-48f43e3a-37">
  <g transform="translate(120,95)">
    <circle cx="0" cy="0" r="4" class="primitive"/>
  </g>
</g>
<g fill="#FF0000" id="img-48f43e3a-38">
  <g transform="translate(220,105)">
    <circle cx="0" cy="0" r="4" class="primitive"/>
  </g>
</g>
<g font-family="futura" font-size="3.53" stroke="#000000" id="img-48f43e3a-39">
  <g transform="translate(20,10)">
    <g class="primitive">
      <text text-anchor="middle" dy="-0.25em">op464<tspan x="0" dy="1.2em">0,0</tspan></text>
    </g>
  </g>
  <g transform="translate(20,55)">
    <g class="primitive">
      <text text-anchor="middle" dy="-0.25em">op463<tspan x="0" dy="1.2em">0,0</tspan></text>
    </g>
  </g>
  <g transform="translate(20,35)">
    <g class="primitive">
      <text text-anchor="middle" dy="-0.25em">op462<tspan x="0" dy="1.2em">0,0</tspan></text>
    </g>
  </g>
  <g transform="translate(320,110)">
    <g class="primitive">
      <text text-anchor="middle" dy="-0.85em">go<tspan x="0" dy="1.2em">-1,259,-1</tspan><tspan x="0" dy="1.2em">69,69</tspan></text>
    </g>
  </g>
  <g transform="translate(300,105)">
    <g class="primitive">
      <text text-anchor="middle" dy="-0.85em">deposit<tspan x="0" dy="1.2em">-1,30,259</tspan><tspan x="0" dy="1.2em">69,69</tspan></text>
    </g>
  </g>
  <g transform="translate(280,105)">
    <g class="primitive">
      <text text-anchor="middle" dy="-0.85em">carry<tspan x="0" dy="1.2em">-1,30,259</tspan><tspan x="0" dy="1.2em">40,69</tspan></text>
    </g>
  </g>
  <g transform="translate(260,105)">
    <g class="primitive">
      <text text-anchor="middle" dy="-0.85em">collect<tspan x="0" dy="1.2em">-1,30,556</tspan><tspan x="0" dy="1.2em">40,40</tspan></text>
    </g>
  </g>
  <g transform="translate(120,60)">
    <g class="primitive">
      <text text-anchor="middle" dy="-0.85em">go<tspan x="0" dy="1.2em">-1,348,-1</tspan><tspan x="0" dy="1.2em">3,3</tspan></text>
    </g>
  </g>
  <g transform="translate(100,10)">
    <g class="primitive">
      <text text-anchor="middle" dy="-0.85em">deposit<tspan x="0" dy="1.2em">-1,25,348</tspan><tspan x="0" dy="1.2em">3,3</tspan></text>
    </g>
  </g>
  <g transform="translate(80,10)">
    <g class="primitive">
      <text text-anchor="middle" dy="-0.85em">carry<tspan x="0" dy="1.2em">-1,25,348</tspan><tspan x="0" dy="1.2em">0,3</tspan></text>
    </g>
  </g>
  <g transform="translate(60,10)">
    <g class="primitive">
      <text text-anchor="middle" dy="-0.85em">collect<tspan x="0" dy="1.2em">-1,25,270</tspan><tspan x="0" dy="1.2em">0,0</tspan></text>
    </g>
  </g>
  <g transform="translate(120,50)">
    <g class="primitive">
      <text text-anchor="middle" dy="-0.85em">go<tspan x="0" dy="1.2em">-1,502,-1</tspan><tspan x="0" dy="1.2em">2,2</tspan></text>
    </g>
  </g>
  <g transform="translate(100,55)">
    <g class="primitive">
      <text text-anchor="middle" dy="-0.85em">deposit<tspan x="0" dy="1.2em">-1,27,502</tspan><tspan x="0" dy="1.2em">2,2</tspan></text>
    </g>
  </g>
  <g transform="translate(80,55)">
    <g class="primitive">
      <text text-anchor="middle" dy="-0.85em">carry<tspan x="0" dy="1.2em">-1,27,502</tspan><tspan x="0" dy="1.2em">0,2</tspan></text>
    </g>
  </g>
  <g transform="translate(60,55)">
    <g class="primitive">
      <text text-anchor="middle" dy="-0.85em">collect<tspan x="0" dy="1.2em">-1,27,477</tspan><tspan x="0" dy="1.2em">0,0</tspan></text>
    </g>
  </g>
  <g transform="translate(120,30)">
    <g class="primitive">
      <text text-anchor="middle" dy="-0.85em">go<tspan x="0" dy="1.2em">-1,226,-1</tspan><tspan x="0" dy="1.2em">13,13</tspan></text>
    </g>
  </g>
  <g transform="translate(100,35)">
    <g class="primitive">
      <text text-anchor="middle" dy="-0.85em">deposit<tspan x="0" dy="1.2em">-1,26,226</tspan><tspan x="0" dy="1.2em">13,13</tspan></text>
    </g>
  </g>
  <g transform="translate(80,35)">
    <g class="primitive">
      <text text-anchor="middle" dy="-0.85em">carry<tspan x="0" dy="1.2em">-1,26,226</tspan><tspan x="0" dy="1.2em">0,13</tspan></text>
    </g>
  </g>
  <g transform="translate(60,35)">
    <g class="primitive">
      <text text-anchor="middle" dy="-0.85em">collect<tspan x="0" dy="1.2em">-1,26,388</tspan><tspan x="0" dy="1.2em">0,0</tspan></text>
    </g>
  </g>
  <g transform="translate(220,90)">
    <g class="primitive">
      <text text-anchor="middle" dy="-0.85em">go<tspan x="0" dy="1.2em">-1,539,-1</tspan><tspan x="0" dy="1.2em">40,40</tspan></text>
    </g>
  </g>
  <g transform="translate(200,95)">
    <g class="primitive">
      <text text-anchor="middle" dy="-0.85em">deposit<tspan x="0" dy="1.2em">-1,29,539</tspan><tspan x="0" dy="1.2em">40,40</tspan></text>
    </g>
  </g>
  <g transform="translate(180,95)">
    <g class="primitive">
      <text text-anchor="middle" dy="-0.85em">carry<tspan x="0" dy="1.2em">-1,29,539</tspan><tspan x="0" dy="1.2em">13,40</tspan></text>
    </g>
  </g>
  <g transform="translate(160,95)">
    <g class="primitive">
      <text text-anchor="middle" dy="-0.85em">collect<tspan x="0" dy="1.2em">-1,29,209</tspan><tspan x="0" dy="1.2em">13,13</tspan></text>
    </g>
  </g>
  <g transform="translate(220,70)">
    <g class="primitive">
      <text text-anchor="middle" dy="-0.85em">go<tspan x="0" dy="1.2em">-1,86,-1</tspan><tspan x="0" dy="1.2em">24,24</tspan></text>
    </g>
  </g>
  <g transform="translate(200,75)">
    <g class="primitive">
      <text text-anchor="middle" dy="-0.85em">deposit<tspan x="0" dy="1.2em">-1,28,86</tspan><tspan x="0" dy="1.2em">24,24</tspan></text>
    </g>
  </g>
  <g transform="translate(180,75)">
    <g class="primitive">
      <text text-anchor="middle" dy="-0.85em">carry<tspan x="0" dy="1.2em">-1,28,86</tspan><tspan x="0" dy="1.2em">3,24</tspan></text>
    </g>
  </g>
  <g transform="translate(160,75)">
    <g class="primitive">
      <text text-anchor="middle" dy="-0.85em">collect<tspan x="0" dy="1.2em">-1,28,373</tspan><tspan x="0" dy="1.2em">3,3</tspan></text>
    </g>
  </g>
  <g transform="translate(240,105)">
    <g class="primitive">
      <text text-anchor="middle" dy="-0.25em">O30-556<tspan x="0" dy="1.2em">40,40</tspan></text>
    </g>
  </g>
  <g transform="translate(140,95)">
    <g class="primitive">
      <text text-anchor="middle" dy="-0.25em">O29-209<tspan x="0" dy="1.2em">13,13</tspan></text>
    </g>
  </g>
  <g transform="translate(140,75)">
    <g class="primitive">
      <text text-anchor="middle" dy="-0.25em">O28-373<tspan x="0" dy="1.2em">3,3</tspan></text>
    </g>
  </g>
  <g transform="translate(40,55)">
    <g class="primitive">
      <text text-anchor="middle" dy="-0.25em">O27-477<tspan x="0" dy="1.2em">0,0</tspan></text>
    </g>
  </g>
  <g transform="translate(40,35)">
    <g class="primitive">
      <text text-anchor="middle" dy="-0.25em">O26-388<tspan x="0" dy="1.2em">0,0</tspan></text>
    </g>
  </g>
  <g transform="translate(40,10)">
    <g class="primitive">
      <text text-anchor="middle" dy="-0.25em">O25-270<tspan x="0" dy="1.2em">0,0</tspan></text>
    </g>
  </g>
  <g transform="translate(320,100)">
    <g class="primitive">
      <text text-anchor="middle" dy="-0.25em">op461<tspan x="0" dy="1.2em">69,69</tspan></text>
    </g>
  </g>
  <g transform="translate(120,75)">
    <g class="primitive">
      <text text-anchor="middle" dy="-0.25em">op460<tspan x="0" dy="1.2em">3,3</tspan></text>
    </g>
  </g>
  <g transform="translate(120,95)">
    <g class="primitive">
      <text text-anchor="middle" dy="-0.25em">op459<tspan x="0" dy="1.2em">13,13</tspan></text>
    </g>
  </g>
  <g transform="translate(220,105)">
    <g class="primitive">
      <text text-anchor="middle" dy="-0.25em">op458<tspan x="0" dy="1.2em">40,40</tspan></text>
    </g>
  </g>
</g>
</svg>
