<?xml version="1.0" encoding="UTF-8"?>
<svg xmlns="http://www.w3.org/2000/svg"
     xmlns:xlink="http://www.w3.org/1999/xlink"
     xmlns:gadfly="http://www.gadflyjl.org/ns"
     version="1.2"
     width="440mm" height="208.89mm" viewBox="0 0 440 208.89"
     stroke="none"
     fill="#000000"
     stroke-width="0.3"
     font-size="3.88"
>
<defs>
  <marker id="arrow" markerWidth="15" markerHeight="7" refX="5" refY="3.5" orient="auto" markerUnits="strokeWidth">
    <path d="M0,0 L15,3.5 L0,7 z" stroke="context-stroke" fill="context-stroke"/>
  </marker>
</defs>
<g stroke="#000000" id="img-53564005-1">
  <g transform="translate(30,85.56)">
    <path fill="none" d="M-5.6,0 L 5.6 0" class="primitive"/>
  </g>
  <g transform="translate(30,63.89)">
    <path fill="none" d="M-5.6,0 L 5.6 0" class="primitive"/>
  </g>
  <g transform="translate(30,46.11)">
    <path fill="none" d="M-5.6,0 L 5.6 0" class="primitive"/>
  </g>
  <g transform="translate(30,106.67)">
    <path fill="none" d="M-5.6,0 L 5.6 0" class="primitive"/>
  </g>
  <g transform="translate(30,29.44)">
    <path fill="none" d="M-5.6,0 L 5.6 0" class="primitive"/>
  </g>
  <g transform="translate(30,13.33)">
    <path fill="none" d="M-5.6,0 L 5.6 0" class="primitive"/>
  </g>
  <g transform="translate(410,196.39)">
    <path fill="none" d="M-6.06,-1.52 L 6.06 1.52" class="primitive"/>
  </g>
  <g transform="translate(410,191.39)">
    <path fill="none" d="M-6.06,1.52 L 6.06 -1.52" class="primitive"/>
  </g>
  <g transform="translate(390,193.89)">
    <path fill="none" d="M-5.6,0 L 5.6 0" class="primitive"/>
  </g>
  <g transform="translate(370,193.89)">
    <path fill="none" d="M-5.6,0 L 5.6 0" class="primitive"/>
  </g>
  <g transform="translate(110,114.44)">
    <path fill="none" d="M-9.25,-26.72 L 9.25 26.72" class="primitive"/>
  </g>
  <g transform="translate(110,128.61)">
    <path fill="none" d="M-9.49,-40.87 L 9.49 40.87" class="primitive"/>
  </g>
  <g transform="translate(90,85.56)">
    <path fill="none" d="M-5.6,0 L 5.6 0" class="primitive"/>
  </g>
  <g transform="translate(70,85.56)">
    <path fill="none" d="M-5.6,0 L 5.6 0" class="primitive"/>
  </g>
  <g transform="translate(110,98.61)">
    <path fill="none" d="M-9.37,-32.54 L 9.37 32.54" class="primitive"/>
  </g>
  <g transform="translate(110,110)">
    <path fill="none" d="M-9.53,-43.92 L 9.53 43.92" class="primitive"/>
  </g>
  <g transform="translate(90,63.89)">
    <path fill="none" d="M-5.6,0 L 5.6 0" class="primitive"/>
  </g>
  <g transform="translate(70,63.89)">
    <path fill="none" d="M-5.6,0 L 5.6 0" class="primitive"/>
  </g>
  <g transform="translate(110,84.72)">
    <path fill="none" d="M-9.43,-36.43 L 9.43 36.43" class="primitive"/>
  </g>
  <g transform="translate(110,101.11)">
    <path fill="none" d="M-9.6,-52.81 L 9.6 52.81" class="primitive"/>
  </g>
  <g transform="translate(90,46.11)">
    <path fill="none" d="M-5.6,0 L 5.6 0" class="primitive"/>
  </g>
  <g transform="translate(70,46.11)">
    <path fill="none" d="M-5.6,0 L 5.6 0" class="primitive"/>
  </g>
  <g transform="translate(210,170.28)">
    <path fill="none" d="M-5.76,0.8 L 5.76 -0.8" class="primitive"/>
  </g>
  <g transform="translate(210,176.94)">
    <path fill="none" d="M-6.97,-3.68 L 6.97 3.68" class="primitive"/>
  </g>
  <g transform="translate(190,171.67)">
    <path fill="none" d="M-5.6,0 L 5.6 0" class="primitive"/>
  </g>
  <g transform="translate(170,171.67)">
    <path fill="none" d="M-5.6,0 L 5.6 0" class="primitive"/>
  </g>
  <g transform="translate(210,154.72)">
    <path fill="none" d="M-5.76,0.8 L 5.76 -0.8" class="primitive"/>
  </g>
  <g transform="translate(210,169.17)">
    <path fill="none" d="M-8.43,-11 L 8.43 11" class="primitive"/>
  </g>
  <g transform="translate(190,156.11)">
    <path fill="none" d="M-5.6,0 L 5.6 0" class="primitive"/>
  </g>
  <g transform="translate(170,156.11)">
    <path fill="none" d="M-5.6,0 L 5.6 0" class="primitive"/>
  </g>
  <g transform="translate(110,71.39)">
    <path fill="none" d="M-9.48,-39.76 L 9.48 39.76" class="primitive"/>
  </g>
  <g transform="translate(160,105.83)">
    <path fill="none" d="M-58.39,-74.34 L 58.39 74.34" class="primitive"/>
  </g>
  <g transform="translate(90,29.44)">
    <path fill="none" d="M-5.6,0 L 5.6 0" class="primitive"/>
  </g>
  <g transform="translate(70,29.44)">
    <path fill="none" d="M-5.6,0 L 5.6 0" class="primitive"/>
  </g>
  <g transform="translate(110,105)">
    <path fill="none" d="M-5.83,0.97 L 5.83 -0.97" class="primitive"/>
  </g>
  <g transform="translate(210,150.28)">
    <path fill="none" d="M-106.55,-42.24 L 106.55 42.24" class="primitive"/>
  </g>
  <g transform="translate(90,106.67)">
    <path fill="none" d="M-5.6,0 L 5.6 0" class="primitive"/>
  </g>
  <g transform="translate(70,106.67)">
    <path fill="none" d="M-5.6,0 L 5.6 0" class="primitive"/>
  </g>
  <g transform="translate(310,180.56)">
    <path fill="none" d="M-5.83,0.97 L 5.83 -0.97" class="primitive"/>
  </g>
  <g transform="translate(310,188.06)">
    <path fill="none" d="M-7.14,-4.16 L 7.14 4.16" class="primitive"/>
  </g>
  <g transform="translate(290,182.22)">
    <path fill="none" d="M-5.6,0 L 5.6 0" class="primitive"/>
  </g>
  <g transform="translate(270,182.22)">
    <path fill="none" d="M-5.6,0 L 5.6 0" class="primitive"/>
  </g>
  <g transform="translate(110,11.67)">
    <path fill="none" d="M-5.83,0.97 L 5.83 -0.97" class="primitive"/>
  </g>
  <g transform="translate(210,103.61)">
    <path fill="none" d="M-107.71,-88.4 L 107.71 88.4" class="primitive"/>
  </g>
  <g transform="translate(90,13.33)">
    <path fill="none" d="M-5.6,0 L 5.6 0" class="primitive"/>
  </g>
  <g transform="translate(70,13.33)">
    <path fill="none" d="M-5.6,0 L 5.6 0" class="primitive"/>
  </g>
  <g transform="translate(350,193.89)">
    <path fill="none" d="M-5.6,0 L 5.6 0" class="primitive"/>
  </g>
  <g transform="translate(50,106.67)">
    <path fill="none" d="M-5.6,0 L 5.6 0" class="primitive"/>
  </g>
  <g transform="translate(250,182.22)">
    <path fill="none" d="M-5.6,0 L 5.6 0" class="primitive"/>
  </g>
  <g transform="translate(50,13.33)">
    <path fill="none" d="M-5.6,0 L 5.6 0" class="primitive"/>
  </g>
  <g transform="translate(150,171.67)">
    <path fill="none" d="M-5.6,0 L 5.6 0" class="primitive"/>
  </g>
  <g transform="translate(150,156.11)">
    <path fill="none" d="M-5.6,0 L 5.6 0" class="primitive"/>
  </g>
  <g transform="translate(50,29.44)">
    <path fill="none" d="M-5.6,0 L 5.6 0" class="primitive"/>
  </g>
  <g transform="translate(50,63.89)">
    <path fill="none" d="M-5.6,0 L 5.6 0" class="primitive"/>
  </g>
  <g transform="translate(50,46.11)">
    <path fill="none" d="M-5.6,0 L 5.6 0" class="primitive"/>
  </g>
  <g transform="translate(50,85.56)">
    <path fill="none" d="M-5.6,0 L 5.6 0" class="primitive"/>
  </g>
  <g transform="translate(130,171.67)">
    <path fill="none" d="M-5.6,0 L 5.6 0" class="primitive"/>
  </g>
  <g transform="translate(130,156.11)">
    <path fill="none" d="M-5.6,0 L 5.6 0" class="primitive"/>
  </g>
  <g transform="translate(230,182.22)">
    <path fill="none" d="M-5.6,0 L 5.6 0" class="primitive"/>
  </g>
  <g transform="translate(330,193.89)">
    <path fill="none" d="M-5.6,0 L 5.6 0" class="primitive"/>
  </g>
</g>
<g fill="#FF0000" id="img-53564005-2">
  <g transform="translate(20,85.56)">
    <circle cx="0" cy="0" r="4" class="primitive"/>
  </g>
</g>
<g fill="#FF0000" id="img-53564005-3">
  <g transform="translate(20,63.89)">
    <circle cx="0" cy="0" r="4" class="primitive"/>
  </g>
</g>
<g fill="#FF0000" id="img-53564005-4">
  <g transform="translate(20,46.11)">
    <circle cx="0" cy="0" r="4" class="primitive"/>
  </g>
</g>
<g fill="#FF0000" id="img-53564005-5">
  <g transform="translate(20,106.67)">
    <circle cx="0" cy="0" r="4" class="primitive"/>
  </g>
</g>
<g fill="#FF0000" id="img-53564005-6">
  <g transform="translate(20,29.44)">
    <circle cx="0" cy="0" r="4" class="primitive"/>
  </g>
</g>
<g fill="#FF0000" id="img-53564005-7">
  <g transform="translate(20,13.33)">
    <circle cx="0" cy="0" r="4" class="primitive"/>
  </g>
</g>
<g fill="#00FFFF" id="img-53564005-8">
  <g transform="translate(420,198.89)">
    <circle cx="0" cy="0" r="4" class="primitive"/>
  </g>
</g>
<g fill="#00FFFF" id="img-53564005-9">
  <g transform="translate(400,193.89)">
    <circle cx="0" cy="0" r="4" class="primitive"/>
  </g>
</g>
<g fill="#00FFFF" id="img-53564005-10">
  <g transform="translate(380,193.89)">
    <circle cx="0" cy="0" r="4" class="primitive"/>
  </g>
</g>
<g fill="#00FFFF" id="img-53564005-11">
  <g transform="translate(360,193.89)">
    <circle cx="0" cy="0" r="4" class="primitive"/>
  </g>
</g>
<g fill="#00FFFF" id="img-53564005-12">
  <g transform="translate(120,143.33)">
    <circle cx="0" cy="0" r="4" class="primitive"/>
  </g>
</g>
<g fill="#00FFFF" id="img-53564005-13">
  <g transform="translate(100,85.56)">
    <circle cx="0" cy="0" r="4" class="primitive"/>
  </g>
</g>
<g fill="#00FFFF" id="img-53564005-14">
  <g transform="translate(80,85.56)">
    <circle cx="0" cy="0" r="4" class="primitive"/>
  </g>
</g>
<g fill="#00FFFF" id="img-53564005-15">
  <g transform="translate(60,85.56)">
    <circle cx="0" cy="0" r="4" class="primitive"/>
  </g>
</g>
<g fill="#00FFFF" id="img-53564005-16">
  <g transform="translate(120,133.33)">
    <circle cx="0" cy="0" r="4" class="primitive"/>
  </g>
</g>
<g fill="#00FFFF" id="img-53564005-17">
  <g transform="translate(100,63.89)">
    <circle cx="0" cy="0" r="4" class="primitive"/>
  </g>
</g>
<g fill="#00FFFF" id="img-53564005-18">
  <g transform="translate(80,63.89)">
    <circle cx="0" cy="0" r="4" class="primitive"/>
  </g>
</g>
<g fill="#00FFFF" id="img-53564005-19">
  <g transform="translate(60,63.89)">
    <circle cx="0" cy="0" r="4" class="primitive"/>
  </g>
</g>
<g fill="#00FFFF" id="img-53564005-20">
  <g transform="translate(120,123.33)">
    <circle cx="0" cy="0" r="4" class="primitive"/>
  </g>
</g>
<g fill="#00FFFF" id="img-53564005-21">
  <g transform="translate(100,46.11)">
    <circle cx="0" cy="0" r="4" class="primitive"/>
  </g>
</g>
<g fill="#00FFFF" id="img-53564005-22">
  <g transform="translate(80,46.11)">
    <circle cx="0" cy="0" r="4" class="primitive"/>
  </g>
</g>
<g fill="#00FFFF" id="img-53564005-23">
  <g transform="translate(60,46.11)">
    <circle cx="0" cy="0" r="4" class="primitive"/>
  </g>
</g>
<g fill="#00FFFF" id="img-53564005-24">
  <g transform="translate(220,168.89)">
    <circle cx="0" cy="0" r="4" class="primitive"/>
  </g>
</g>
<g fill="#00FFFF" id="img-53564005-25">
  <g transform="translate(200,171.67)">
    <circle cx="0" cy="0" r="4" class="primitive"/>
  </g>
</g>
<g fill="#00FFFF" id="img-53564005-26">
  <g transform="translate(180,171.67)">
    <circle cx="0" cy="0" r="4" class="primitive"/>
  </g>
</g>
<g fill="#00FFFF" id="img-53564005-27">
  <g transform="translate(160,171.67)">
    <circle cx="0" cy="0" r="4" class="primitive"/>
  </g>
</g>
<g fill="#00FFFF" id="img-53564005-28">
  <g transform="translate(220,153.33)">
    <circle cx="0" cy="0" r="4" class="primitive"/>
  </g>
</g>
<g fill="#00FFFF" id="img-53564005-29">
  <g transform="translate(200,156.11)">
    <circle cx="0" cy="0" r="4" class="primitive"/>
  </g>
</g>
<g fill="#00FFFF" id="img-53564005-30">
  <g transform="translate(180,156.11)">
    <circle cx="0" cy="0" r="4" class="primitive"/>
  </g>
</g>
<g fill="#00FFFF" id="img-53564005-31">
  <g transform="translate(160,156.11)">
    <circle cx="0" cy="0" r="4" class="primitive"/>
  </g>
</g>
<g fill="#00FFFF" id="img-53564005-32">
  <g transform="translate(120,113.33)">
    <circle cx="0" cy="0" r="4" class="primitive"/>
  </g>
</g>
<g fill="#00FFFF" id="img-53564005-33">
  <g transform="translate(100,29.44)">
    <circle cx="0" cy="0" r="4" class="primitive"/>
  </g>
</g>
<g fill="#00FFFF" id="img-53564005-34">
  <g transform="translate(80,29.44)">
    <circle cx="0" cy="0" r="4" class="primitive"/>
  </g>
</g>
<g fill="#00FFFF" id="img-53564005-35">
  <g transform="translate(60,29.44)">
    <circle cx="0" cy="0" r="4" class="primitive"/>
  </g>
</g>
<g fill="#00FFFF" id="img-53564005-36">
  <g transform="translate(120,103.33)">
    <circle cx="0" cy="0" r="4" class="primitive"/>
  </g>
</g>
<g fill="#00FFFF" id="img-53564005-37">
  <g transform="translate(100,106.67)">
    <circle cx="0" cy="0" r="4" class="primitive"/>
  </g>
</g>
<g fill="#00FFFF" id="img-53564005-38">
  <g transform="translate(80,106.67)">
    <circle cx="0" cy="0" r="4" class="primitive"/>
  </g>
</g>
<g fill="#00FFFF" id="img-53564005-39">
  <g transform="translate(60,106.67)">
    <circle cx="0" cy="0" r="4" class="primitive"/>
  </g>
</g>
<g fill="#00FFFF" id="img-53564005-40">
  <g transform="translate(320,178.89)">
    <circle cx="0" cy="0" r="4" class="primitive"/>
  </g>
</g>
<g fill="#00FFFF" id="img-53564005-41">
  <g transform="translate(300,182.22)">
    <circle cx="0" cy="0" r="4" class="primitive"/>
  </g>
</g>
<g fill="#00FFFF" id="img-53564005-42">
  <g transform="translate(280,182.22)">
    <circle cx="0" cy="0" r="4" class="primitive"/>
  </g>
</g>
<g fill="#00FFFF" id="img-53564005-43">
  <g transform="translate(260,182.22)">
    <circle cx="0" cy="0" r="4" class="primitive"/>
  </g>
</g>
<g fill="#00FFFF" id="img-53564005-44">
  <g transform="translate(120,10)">
    <circle cx="0" cy="0" r="4" class="primitive"/>
  </g>
</g>
<g fill="#00FFFF" id="img-53564005-45">
  <g transform="translate(100,13.33)">
    <circle cx="0" cy="0" r="4" class="primitive"/>
  </g>
</g>
<g fill="#00FFFF" id="img-53564005-46">
  <g transform="translate(80,13.33)">
    <circle cx="0" cy="0" r="4" class="primitive"/>
  </g>
</g>
<g fill="#00FFFF" id="img-53564005-47">
  <g transform="translate(60,13.33)">
    <circle cx="0" cy="0" r="4" class="primitive"/>
  </g>
</g>
<g fill="#FFA500" id="img-53564005-48">
  <g transform="translate(340,193.89)">
    <circle cx="0" cy="0" r="4" class="primitive"/>
  </g>
</g>
<g fill="#FFA500" id="img-53564005-49">
  <g transform="translate(40,106.67)">
    <circle cx="0" cy="0" r="4" class="primitive"/>
  </g>
</g>
<g fill="#FFA500" id="img-53564005-50">
  <g transform="translate(240,182.22)">
    <circle cx="0" cy="0" r="4" class="primitive"/>
  </g>
</g>
<g fill="#FFA500" id="img-53564005-51">
  <g transform="translate(40,13.33)">
    <circle cx="0" cy="0" r="4" class="primitive"/>
  </g>
</g>
<g fill="#FFA500" id="img-53564005-52">
  <g transform="translate(140,171.67)">
    <circle cx="0" cy="0" r="4" class="primitive"/>
  </g>
</g>
<g fill="#FFA500" id="img-53564005-53">
  <g transform="translate(140,156.11)">
    <circle cx="0" cy="0" r="4" class="primitive"/>
  </g>
</g>
<g fill="#FFA500" id="img-53564005-54">
  <g transform="translate(40,29.44)">
    <circle cx="0" cy="0" r="4" class="primitive"/>
  </g>
</g>
<g fill="#FFA500" id="img-53564005-55">
  <g transform="translate(40,63.89)">
    <circle cx="0" cy="0" r="4" class="primitive"/>
  </g>
</g>
<g fill="#FFA500" id="img-53564005-56">
  <g transform="translate(40,46.11)">
    <circle cx="0" cy="0" r="4" class="primitive"/>
  </g>
</g>
<g fill="#FFA500" id="img-53564005-57">
  <g transform="translate(40,85.56)">
    <circle cx="0" cy="0" r="4" class="primitive"/>
  </g>
</g>
<g fill="#FF0000" id="img-53564005-58">
  <g transform="translate(420,188.89)">
    <circle cx="0" cy="0" r="4" class="primitive"/>
  </g>
</g>
<g fill="#FF0000" id="img-53564005-59">
  <g transform="translate(120,171.67)">
    <circle cx="0" cy="0" r="4" class="primitive"/>
  </g>
</g>
<g fill="#FF0000" id="img-53564005-60">
  <g transform="translate(120,156.11)">
    <circle cx="0" cy="0" r="4" class="primitive"/>
  </g>
</g>
<g fill="#FF0000" id="img-53564005-61">
  <g transform="translate(220,182.22)">
    <circle cx="0" cy="0" r="4" class="primitive"/>
  </g>
</g>
<g fill="#FF0000" id="img-53564005-62">
  <g transform="translate(320,193.89)">
    <circle cx="0" cy="0" r="4" class="primitive"/>
  </g>
</g>
<g font-family="futura" font-size="3.53" stroke="#000000" id="img-53564005-63">
  <g transform="translate(20,85.56)">
    <g class="primitive">
      <text text-anchor="middle" dy="-0.25em">op55<tspan x="0" dy="1.2em">0,0</tspan></text>
    </g>
  </g>
  <g transform="translate(20,63.89)">
    <g class="primitive">
      <text text-anchor="middle" dy="-0.25em">op54<tspan x="0" dy="1.2em">0,0</tspan></text>
    </g>
  </g>
  <g transform="translate(20,46.11)">
    <g class="primitive">
      <text text-anchor="middle" dy="-0.25em">op53<tspan x="0" dy="1.2em">0,0</tspan></text>
    </g>
  </g>
  <g transform="translate(20,106.67)">
    <g class="primitive">
      <text text-anchor="middle" dy="-0.25em">op52<tspan x="0" dy="1.2em">0,0</tspan></text>
    </g>
  </g>
  <g transform="translate(20,29.44)">
    <g class="primitive">
      <text text-anchor="middle" dy="-0.25em">op51<tspan x="0" dy="1.2em">0,0</tspan></text>
    </g>
  </g>
  <g transform="translate(20,13.33)">
    <g class="primitive">
      <text text-anchor="middle" dy="-0.25em">op50<tspan x="0" dy="1.2em">0,0</tspan></text>
    </g>
  </g>
  <g transform="translate(420,198.89)">
    <g class="primitive">
      <text text-anchor="middle" dy="-0.85em">go<tspan x="0" dy="1.2em">-1,523,-1</tspan><tspan x="0" dy="1.2em">85,85</tspan></text>
    </g>
  </g>
  <g transform="translate(400,193.89)">
    <g class="primitive">
      <text text-anchor="middle" dy="-0.85em">deposit<tspan x="0" dy="1.2em">-1,50,523</tspan><tspan x="0" dy="1.2em">85,85</tspan></text>
    </g>
  </g>
  <g transform="translate(380,193.89)">
    <g class="primitive">
      <text text-anchor="middle" dy="-0.85em">carry<tspan x="0" dy="1.2em">-1,50,523</tspan><tspan x="0" dy="1.2em">73,85</tspan></text>
    </g>
  </g>
  <g transform="translate(360,193.89)">
    <g class="primitive">
      <text text-anchor="middle" dy="-0.85em">collect<tspan x="0" dy="1.2em">-1,50,410</tspan><tspan x="0" dy="1.2em">73,73</tspan></text>
    </g>
  </g>
  <g transform="translate(120,143.33)">
    <g class="primitive">
      <text text-anchor="middle" dy="-0.85em">go<tspan x="0" dy="1.2em">-1,391,-1</tspan><tspan x="0" dy="1.2em">10,10</tspan></text>
    </g>
  </g>
  <g transform="translate(100,85.56)">
    <g class="primitive">
      <text text-anchor="middle" dy="-0.85em">deposit<tspan x="0" dy="1.2em">-1,41,391</tspan><tspan x="0" dy="1.2em">10,10</tspan></text>
    </g>
  </g>
  <g transform="translate(80,85.56)">
    <g class="primitive">
      <text text-anchor="middle" dy="-0.85em">carry<tspan x="0" dy="1.2em">-1,41,391</tspan><tspan x="0" dy="1.2em">0,10</tspan></text>
    </g>
  </g>
  <g transform="translate(60,85.56)">
    <g class="primitive">
      <text text-anchor="middle" dy="-0.85em">collect<tspan x="0" dy="1.2em">-1,41,270</tspan><tspan x="0" dy="1.2em">0,0</tspan></text>
    </g>
  </g>
  <g transform="translate(120,133.33)">
    <g class="primitive">
      <text text-anchor="middle" dy="-0.85em">go<tspan x="0" dy="1.2em">-1,99,-1</tspan><tspan x="0" dy="1.2em">33,33</tspan></text>
    </g>
  </g>
  <g transform="translate(100,63.89)">
    <g class="primitive">
      <text text-anchor="middle" dy="-0.85em">deposit<tspan x="0" dy="1.2em">-1,43,99</tspan><tspan x="0" dy="1.2em">33,33</tspan></text>
    </g>
  </g>
  <g transform="translate(80,63.89)">
    <g class="primitive">
      <text text-anchor="middle" dy="-0.85em">carry<tspan x="0" dy="1.2em">-1,43,99</tspan><tspan x="0" dy="1.2em">0,33</tspan></text>
    </g>
  </g>
  <g transform="translate(60,63.89)">
    <g class="primitive">
      <text text-anchor="middle" dy="-0.85em">collect<tspan x="0" dy="1.2em">-1,43,392</tspan><tspan x="0" dy="1.2em">0,0</tspan></text>
    </g>
  </g>
  <g transform="translate(120,123.33)">
    <g class="primitive">
      <text text-anchor="middle" dy="-0.85em">go<tspan x="0" dy="1.2em">-1,405,-1</tspan><tspan x="0" dy="1.2em">14,14</tspan></text>
    </g>
  </g>
  <g transform="translate(100,46.11)">
    <g class="primitive">
      <text text-anchor="middle" dy="-0.85em">deposit<tspan x="0" dy="1.2em">-1,42,405</tspan><tspan x="0" dy="1.2em">14,14</tspan></text>
    </g>
  </g>
  <g transform="translate(80,46.11)">
    <g class="primitive">
      <text text-anchor="middle" dy="-0.85em">carry<tspan x="0" dy="1.2em">-1,42,405</tspan><tspan x="0" dy="1.2em">0,14</tspan></text>
    </g>
  </g>
  <g transform="translate(60,46.11)">
    <g class="primitive">
      <text text-anchor="middle" dy="-0.85em">collect<tspan x="0" dy="1.2em">-1,42,513</tspan><tspan x="0" dy="1.2em">0,0</tspan></text>
    </g>
  </g>
  <g transform="translate(220,168.89)">
    <g class="primitive">
      <text text-anchor="middle" dy="-0.85em">go<tspan x="0" dy="1.2em">-1,131,-1</tspan><tspan x="0" dy="1.2em">16,16</tspan></text>
    </g>
  </g>
  <g transform="translate(200,171.67)">
    <g class="primitive">
      <text text-anchor="middle" dy="-0.85em">deposit<tspan x="0" dy="1.2em">-1,46,131</tspan><tspan x="0" dy="1.2em">16,16</tspan></text>
    </g>
  </g>
  <g transform="translate(180,171.67)">
    <g class="primitive">
      <text text-anchor="middle" dy="-0.85em">carry<tspan x="0" dy="1.2em">-1,46,131</tspan><tspan x="0" dy="1.2em">10,16</tspan></text>
    </g>
  </g>
  <g transform="translate(160,171.67)">
    <g class="primitive">
      <text text-anchor="middle" dy="-0.85em">collect<tspan x="0" dy="1.2em">-1,46,104</tspan><tspan x="0" dy="1.2em">10,10</tspan></text>
    </g>
  </g>
  <g transform="translate(220,153.33)">
    <g class="primitive">
      <text text-anchor="middle" dy="-0.85em">go<tspan x="0" dy="1.2em">-1,94,-1</tspan><tspan x="0" dy="1.2em">58,58</tspan></text>
    </g>
  </g>
  <g transform="translate(200,156.11)">
    <g class="primitive">
      <text text-anchor="middle" dy="-0.85em">deposit<tspan x="0" dy="1.2em">-1,45,94</tspan><tspan x="0" dy="1.2em">58,58</tspan></text>
    </g>
  </g>
  <g transform="translate(180,156.11)">
    <g class="primitive">
      <text text-anchor="middle" dy="-0.85em">carry<tspan x="0" dy="1.2em">-1,45,94</tspan><tspan x="0" dy="1.2em">33,58</tspan></text>
    </g>
  </g>
  <g transform="translate(160,156.11)">
    <g class="primitive">
      <text text-anchor="middle" dy="-0.85em">collect<tspan x="0" dy="1.2em">-1,45,384</tspan><tspan x="0" dy="1.2em">33,33</tspan></text>
    </g>
  </g>
  <g transform="translate(120,113.33)">
    <g class="primitive">
      <text text-anchor="middle" dy="-0.85em">go<tspan x="0" dy="1.2em">-1,348,-1</tspan><tspan x="0" dy="1.2em">4,4</tspan></text>
    </g>
  </g>
  <g transform="translate(100,29.44)">
    <g class="primitive">
      <text text-anchor="middle" dy="-0.85em">deposit<tspan x="0" dy="1.2em">-1,44,348</tspan><tspan x="0" dy="1.2em">4,4</tspan></text>
    </g>
  </g>
  <g transform="translate(80,29.44)">
    <g class="primitive">
      <text text-anchor="middle" dy="-0.85em">carry<tspan x="0" dy="1.2em">-1,44,348</tspan><tspan x="0" dy="1.2em">0,4</tspan></text>
    </g>
  </g>
  <g transform="translate(60,29.44)">
    <g class="primitive">
      <text text-anchor="middle" dy="-0.85em">collect<tspan x="0" dy="1.2em">-1,44,388</tspan><tspan x="0" dy="1.2em">0,0</tspan></text>
    </g>
  </g>
  <g transform="translate(120,103.33)">
    <g class="primitive">
      <text text-anchor="middle" dy="-0.85em">go<tspan x="0" dy="1.2em">-1,502,-1</tspan><tspan x="0" dy="1.2em">21,21</tspan></text>
    </g>
  </g>
  <g transform="translate(100,106.67)">
    <g class="primitive">
      <text text-anchor="middle" dy="-0.85em">deposit<tspan x="0" dy="1.2em">-1,49,502</tspan><tspan x="0" dy="1.2em">21,21</tspan></text>
    </g>
  </g>
  <g transform="translate(80,106.67)">
    <g class="primitive">
      <text text-anchor="middle" dy="-0.85em">carry<tspan x="0" dy="1.2em">-1,49,502</tspan><tspan x="0" dy="1.2em">0,21</tspan></text>
    </g>
  </g>
  <g transform="translate(60,106.67)">
    <g class="primitive">
      <text text-anchor="middle" dy="-0.85em">collect<tspan x="0" dy="1.2em">-1,49,373</tspan><tspan x="0" dy="1.2em">0,0</tspan></text>
    </g>
  </g>
  <g transform="translate(320,178.89)">
    <g class="primitive">
      <text text-anchor="middle" dy="-0.85em">go<tspan x="0" dy="1.2em">-1,222,-1</tspan><tspan x="0" dy="1.2em">73,73</tspan></text>
    </g>
  </g>
  <g transform="translate(300,182.22)">
    <g class="primitive">
      <text text-anchor="middle" dy="-0.85em">deposit<tspan x="0" dy="1.2em">-1,48,222</tspan><tspan x="0" dy="1.2em">73,73</tspan></text>
    </g>
  </g>
  <g transform="translate(280,182.22)">
    <g class="primitive">
      <text text-anchor="middle" dy="-0.85em">carry<tspan x="0" dy="1.2em">-1,48,222</tspan><tspan x="0" dy="1.2em">58,73</tspan></text>
    </g>
  </g>
  <g transform="translate(260,182.22)">
    <g class="primitive">
      <text text-anchor="middle" dy="-0.85em">collect<tspan x="0" dy="1.2em">-1,48,505</tspan><tspan x="0" dy="1.2em">58,58</tspan></text>
    </g>
  </g>
  <g transform="translate(120,10)">
    <g class="primitive">
      <text text-anchor="middle" dy="-0.85em">go<tspan x="0" dy="1.2em">-1,239,-1</tspan><tspan x="0" dy="1.2em">28,28</tspan></text>
    </g>
  </g>
  <g transform="translate(100,13.33)">
    <g class="primitive">
      <text text-anchor="middle" dy="-0.85em">deposit<tspan x="0" dy="1.2em">-1,47,239</tspan><tspan x="0" dy="1.2em">28,28</tspan></text>
    </g>
  </g>
  <g transform="translate(80,13.33)">
    <g class="primitive">
      <text text-anchor="middle" dy="-0.85em">carry<tspan x="0" dy="1.2em">-1,47,239</tspan><tspan x="0" dy="1.2em">0,28</tspan></text>
    </g>
  </g>
  <g transform="translate(60,13.33)">
    <g class="primitive">
      <text text-anchor="middle" dy="-0.85em">collect<tspan x="0" dy="1.2em">-1,47,75</tspan><tspan x="0" dy="1.2em">0,0</tspan></text>
    </g>
  </g>
  <g transform="translate(340,193.89)">
    <g class="primitive">
      <text text-anchor="middle" dy="-0.25em">O50-410<tspan x="0" dy="1.2em">73,73</tspan></text>
    </g>
  </g>
  <g transform="translate(40,106.67)">
    <g class="primitive">
      <text text-anchor="middle" dy="-0.25em">O49-373<tspan x="0" dy="1.2em">0,0</tspan></text>
    </g>
  </g>
  <g transform="translate(240,182.22)">
    <g class="primitive">
      <text text-anchor="middle" dy="-0.25em">O48-505<tspan x="0" dy="1.2em">58,58</tspan></text>
    </g>
  </g>
  <g transform="translate(40,13.33)">
    <g class="primitive">
      <text text-anchor="middle" dy="-0.25em">O47-75<tspan x="0" dy="1.2em">0,0</tspan></text>
    </g>
  </g>
  <g transform="translate(140,171.67)">
    <g class="primitive">
      <text text-anchor="middle" dy="-0.25em">O46-104<tspan x="0" dy="1.2em">10,10</tspan></text>
    </g>
  </g>
  <g transform="translate(140,156.11)">
    <g class="primitive">
      <text text-anchor="middle" dy="-0.25em">O45-384<tspan x="0" dy="1.2em">33,33</tspan></text>
    </g>
  </g>
  <g transform="translate(40,29.44)">
    <g class="primitive">
      <text text-anchor="middle" dy="-0.25em">O44-388<tspan x="0" dy="1.2em">0,0</tspan></text>
    </g>
  </g>
  <g transform="translate(40,63.89)">
    <g class="primitive">
      <text text-anchor="middle" dy="-0.25em">O43-392<tspan x="0" dy="1.2em">0,0</tspan></text>
    </g>
  </g>
  <g transform="translate(40,46.11)">
    <g class="primitive">
      <text text-anchor="middle" dy="-0.25em">O42-513<tspan x="0" dy="1.2em">0,0</tspan></text>
    </g>
  </g>
  <g transform="translate(40,85.56)">
    <g class="primitive">
      <text text-anchor="middle" dy="-0.25em">O41-270<tspan x="0" dy="1.2em">0,0</tspan></text>
    </g>
  </g>
  <g transform="translate(420,188.89)">
    <g class="primitive">
      <text text-anchor="middle" dy="-0.25em">op49<tspan x="0" dy="1.2em">85,85</tspan></text>
    </g>
  </g>
  <g transform="translate(120,171.67)">
    <g class="primitive">
      <text text-anchor="middle" dy="-0.25em">op48<tspan x="0" dy="1.2em">10,10</tspan></text>
    </g>
  </g>
  <g transform="translate(120,156.11)">
    <g class="primitive">
      <text text-anchor="middle" dy="-0.25em">op47<tspan x="0" dy="1.2em">33,33</tspan></text>
    </g>
  </g>
  <g transform="translate(220,182.22)">
    <g class="primitive">
      <text text-anchor="middle" dy="-0.25em">op46<tspan x="0" dy="1.2em">58,58</tspan></text>
    </g>
  </g>
  <g transform="translate(320,193.89)">
    <g class="primitive">
      <text text-anchor="middle" dy="-0.25em">op45<tspan x="0" dy="1.2em">73,73</tspan></text>
    </g>
  </g>
</g>
</svg>
