<?xml version="1.0" encoding="UTF-8"?>
<svg xmlns="http://www.w3.org/2000/svg"
     xmlns:xlink="http://www.w3.org/1999/xlink"
     xmlns:gadfly="http://www.gadflyjl.org/ns"
     version="1.2"
     width="740mm" height="303.33mm" viewBox="0 0 740 303.33"
     stroke="none"
     fill="#000000"
     stroke-width="0.3"
     font-size="3.88"
>
<defs>
  <marker id="arrow" markerWidth="15" markerHeight="7" refX="5" refY="3.5" orient="auto" markerUnits="strokeWidth">
    <path d="M0,0 L15,3.5 L0,7 z" stroke="context-stroke" fill="context-stroke"/>
  </marker>
</defs>
<g stroke="#000000" id="img-437d8618-1">
  <g transform="translate(30,105.12)">
    <path fill="none" d="M-5.6,0 L 5.6 0" class="primitive"/>
  </g>
  <g transform="translate(30,13.33)">
    <path fill="none" d="M-5.6,0 L 5.6 0" class="primitive"/>
  </g>
  <g transform="translate(30,156.67)">
    <path fill="none" d="M-5.6,0 L 5.6 0" class="primitive"/>
  </g>
  <g transform="translate(30,85.56)">
    <path fill="none" d="M-5.6,0 L 5.6 0" class="primitive"/>
  </g>
  <g transform="translate(30,139.69)">
    <path fill="none" d="M-5.6,0 L 5.6 0" class="primitive"/>
  </g>
  <g transform="translate(30,63.7)">
    <path fill="none" d="M-5.6,0 L 5.6 0" class="primitive"/>
  </g>
  <g transform="translate(30,45)">
    <path fill="none" d="M-5.6,0 L 5.6 0" class="primitive"/>
  </g>
  <g transform="translate(30,29.44)">
    <path fill="none" d="M-5.6,0 L 5.6 0" class="primitive"/>
  </g>
  <g transform="translate(30,122.41)">
    <path fill="none" d="M-5.6,0 L 5.6 0" class="primitive"/>
  </g>
  <g transform="translate(710,290.83)">
    <path fill="none" d="M-6.06,-1.52 L 6.06 1.52" class="primitive"/>
  </g>
  <g transform="translate(710,285.83)">
    <path fill="none" d="M-6.06,1.52 L 6.06 -1.52" class="primitive"/>
  </g>
  <g transform="translate(690,288.33)">
    <path fill="none" d="M-5.6,0 L 5.6 0" class="primitive"/>
  </g>
  <g transform="translate(670,288.33)">
    <path fill="none" d="M-5.6,0 L 5.6 0" class="primitive"/>
  </g>
  <g transform="translate(110,181.51)">
    <path fill="none" d="M-9.48,-39.64 L 9.48 39.64" class="primitive"/>
  </g>
  <g transform="translate(110,189.48)">
    <path fill="none" d="M-9.56,-47.59 L 9.56 47.59" class="primitive"/>
  </g>
  <g transform="translate(90,139.69)">
    <path fill="none" d="M-5.6,0 L 5.6 0" class="primitive"/>
  </g>
  <g transform="translate(70,139.69)">
    <path fill="none" d="M-5.6,0 L 5.6 0" class="primitive"/>
  </g>
  <g transform="translate(110,167.87)">
    <path fill="none" d="M-9.52,-43.28 L 9.52 43.28" class="primitive"/>
  </g>
  <g transform="translate(110,180.83)">
    <path fill="none" d="M-9.62,-56.23 L 9.62 56.23" class="primitive"/>
  </g>
  <g transform="translate(90,122.41)">
    <path fill="none" d="M-5.6,0 L 5.6 0" class="primitive"/>
  </g>
  <g transform="translate(70,122.41)">
    <path fill="none" d="M-5.6,0 L 5.6 0" class="primitive"/>
  </g>
  <g transform="translate(110,154.23)">
    <path fill="none" d="M-9.55,-46.92 L 9.55 46.92" class="primitive"/>
  </g>
  <g transform="translate(110,172.19)">
    <path fill="none" d="M-9.67,-64.87 L 9.67 64.87" class="primitive"/>
  </g>
  <g transform="translate(90,105.12)">
    <path fill="none" d="M-5.6,0 L 5.6 0" class="primitive"/>
  </g>
  <g transform="translate(70,105.12)">
    <path fill="none" d="M-5.6,0 L 5.6 0" class="primitive"/>
  </g>
  <g transform="translate(210,236.3)">
    <path fill="none" d="M-6.21,1.84 L 6.21 -1.84" class="primitive"/>
  </g>
  <g transform="translate(210,247.69)">
    <path fill="none" d="M-7.75,-6.53 L 7.75 6.53" class="primitive"/>
  </g>
  <g transform="translate(190,239.26)">
    <path fill="none" d="M-5.6,0 L 5.6 0" class="primitive"/>
  </g>
  <g transform="translate(170,239.26)">
    <path fill="none" d="M-5.6,0 L 5.6 0" class="primitive"/>
  </g>
  <g transform="translate(110,139.44)">
    <path fill="none" d="M-9.59,-51.7 L 9.59 51.7" class="primitive"/>
  </g>
  <g transform="translate(160,170.83)">
    <path fill="none" d="M-58.54,-83.2 L 58.54 83.2" class="primitive"/>
  </g>
  <g transform="translate(90,85.56)">
    <path fill="none" d="M-5.6,0 L 5.6 0" class="primitive"/>
  </g>
  <g transform="translate(70,85.56)">
    <path fill="none" d="M-5.6,0 L 5.6 0" class="primitive"/>
  </g>
  <g transform="translate(110,123.52)">
    <path fill="none" d="M-9.63,-57.62 L 9.63 57.62" class="primitive"/>
  </g>
  <g transform="translate(160,159.91)">
    <path fill="none" d="M-58.69,-94.1 L 58.69 94.1" class="primitive"/>
  </g>
  <g transform="translate(90,63.7)">
    <path fill="none" d="M-5.6,0 L 5.6 0" class="primitive"/>
  </g>
  <g transform="translate(70,63.7)">
    <path fill="none" d="M-5.6,0 L 5.6 0" class="primitive"/>
  </g>
  <g transform="translate(310,249.72)">
    <path fill="none" d="M-7.29,4.66 L 7.29 -4.66" class="primitive"/>
  </g>
  <g transform="translate(310,258.61)">
    <path fill="none" d="M-6.06,-1.52 L 6.06 1.52" class="primitive"/>
  </g>
  <g transform="translate(290,256.11)">
    <path fill="none" d="M-5.6,0 L 5.6 0" class="primitive"/>
  </g>
  <g transform="translate(270,256.11)">
    <path fill="none" d="M-5.6,0 L 5.6 0" class="primitive"/>
  </g>
  <g transform="translate(410,257.22)">
    <path fill="none" d="M-6.53,2.54 L 6.53 -2.54" class="primitive"/>
  </g>
  <g transform="translate(410,263.61)">
    <path fill="none" d="M-6.06,-1.52 L 6.06 1.52" class="primitive"/>
  </g>
  <g transform="translate(390,261.11)">
    <path fill="none" d="M-5.6,0 L 5.6 0" class="primitive"/>
  </g>
  <g transform="translate(370,261.11)">
    <path fill="none" d="M-5.6,0 L 5.6 0" class="primitive"/>
  </g>
  <g transform="translate(510,264.72)">
    <path fill="none" d="M-5.76,0.8 L 5.76 -0.8" class="primitive"/>
  </g>
  <g transform="translate(510,271.39)">
    <path fill="none" d="M-6.97,-3.68 L 6.97 3.68" class="primitive"/>
  </g>
  <g transform="translate(490,266.11)">
    <path fill="none" d="M-5.6,0 L 5.6 0" class="primitive"/>
  </g>
  <g transform="translate(470,266.11)">
    <path fill="none" d="M-5.6,0 L 5.6 0" class="primitive"/>
  </g>
  <g transform="translate(110,109.17)">
    <path fill="none" d="M-9.66,-61.97 L 9.66 61.97" class="primitive"/>
  </g>
  <g transform="translate(310,160.83)">
    <path fill="none" d="M-207.04,-114.2 L 207.04 114.2" class="primitive"/>
  </g>
  <g transform="translate(90,45)">
    <path fill="none" d="M-5.6,0 L 5.6 0" class="primitive"/>
  </g>
  <g transform="translate(70,45)">
    <path fill="none" d="M-5.6,0 L 5.6 0" class="primitive"/>
  </g>
  <g transform="translate(110,96.39)">
    <path fill="none" d="M-9.67,-64.75 L 9.67 64.75" class="primitive"/>
  </g>
  <g transform="translate(310,153.06)">
    <path fill="none" d="M-207.15,-121.93 L 207.15 121.93" class="primitive"/>
  </g>
  <g transform="translate(90,29.44)">
    <path fill="none" d="M-5.6,0 L 5.6 0" class="primitive"/>
  </g>
  <g transform="translate(70,29.44)">
    <path fill="none" d="M-5.6,0 L 5.6 0" class="primitive"/>
  </g>
  <g transform="translate(110,155)">
    <path fill="none" d="M-5.83,0.97 L 5.83 -0.97" class="primitive"/>
  </g>
  <g transform="translate(360,222.5)">
    <path fill="none" d="M-256.07,-64.84 L 256.07 64.84" class="primitive"/>
  </g>
  <g transform="translate(90,156.67)">
    <path fill="none" d="M-5.6,0 L 5.6 0" class="primitive"/>
  </g>
  <g transform="translate(70,156.67)">
    <path fill="none" d="M-5.6,0 L 5.6 0" class="primitive"/>
  </g>
  <g transform="translate(610,275)">
    <path fill="none" d="M-5.83,0.97 L 5.83 -0.97" class="primitive"/>
  </g>
  <g transform="translate(610,282.5)">
    <path fill="none" d="M-7.14,-4.16 L 7.14 4.16" class="primitive"/>
  </g>
  <g transform="translate(590,276.67)">
    <path fill="none" d="M-5.6,0 L 5.6 0" class="primitive"/>
  </g>
  <g transform="translate(570,276.67)">
    <path fill="none" d="M-5.6,0 L 5.6 0" class="primitive"/>
  </g>
  <g transform="translate(110,11.67)">
    <path fill="none" d="M-5.83,0.97 L 5.83 -0.97" class="primitive"/>
  </g>
  <g transform="translate(360,150.83)">
    <path fill="none" d="M-256.98,-135.9 L 256.98 135.9" class="primitive"/>
  </g>
  <g transform="translate(90,13.33)">
    <path fill="none" d="M-5.6,0 L 5.6 0" class="primitive"/>
  </g>
  <g transform="translate(70,13.33)">
    <path fill="none" d="M-5.6,0 L 5.6 0" class="primitive"/>
  </g>
  <g transform="translate(650,288.33)">
    <path fill="none" d="M-5.6,0 L 5.6 0" class="primitive"/>
  </g>
  <g transform="translate(50,156.67)">
    <path fill="none" d="M-5.6,0 L 5.6 0" class="primitive"/>
  </g>
  <g transform="translate(550,276.67)">
    <path fill="none" d="M-5.6,0 L 5.6 0" class="primitive"/>
  </g>
  <g transform="translate(50,13.33)">
    <path fill="none" d="M-5.6,0 L 5.6 0" class="primitive"/>
  </g>
  <g transform="translate(450,266.11)">
    <path fill="none" d="M-5.6,0 L 5.6 0" class="primitive"/>
  </g>
  <g transform="translate(50,45)">
    <path fill="none" d="M-5.6,0 L 5.6 0" class="primitive"/>
  </g>
  <g transform="translate(50,29.44)">
    <path fill="none" d="M-5.6,0 L 5.6 0" class="primitive"/>
  </g>
  <g transform="translate(350,261.11)">
    <path fill="none" d="M-5.6,0 L 5.6 0" class="primitive"/>
  </g>
  <g transform="translate(250,256.11)">
    <path fill="none" d="M-5.6,0 L 5.6 0" class="primitive"/>
  </g>
  <g transform="translate(150,239.26)">
    <path fill="none" d="M-5.6,0 L 5.6 0" class="primitive"/>
  </g>
  <g transform="translate(50,85.56)">
    <path fill="none" d="M-5.6,0 L 5.6 0" class="primitive"/>
  </g>
  <g transform="translate(50,63.7)">
    <path fill="none" d="M-5.6,0 L 5.6 0" class="primitive"/>
  </g>
  <g transform="translate(50,139.69)">
    <path fill="none" d="M-5.6,0 L 5.6 0" class="primitive"/>
  </g>
  <g transform="translate(50,122.41)">
    <path fill="none" d="M-5.6,0 L 5.6 0" class="primitive"/>
  </g>
  <g transform="translate(50,105.12)">
    <path fill="none" d="M-5.6,0 L 5.6 0" class="primitive"/>
  </g>
  <g transform="translate(130,239.26)">
    <path fill="none" d="M-5.6,0 L 5.6 0" class="primitive"/>
  </g>
  <g transform="translate(230,256.11)">
    <path fill="none" d="M-5.6,0 L 5.6 0" class="primitive"/>
  </g>
  <g transform="translate(330,261.11)">
    <path fill="none" d="M-5.6,0 L 5.6 0" class="primitive"/>
  </g>
  <g transform="translate(430,266.11)">
    <path fill="none" d="M-5.6,0 L 5.6 0" class="primitive"/>
  </g>
  <g transform="translate(530,276.67)">
    <path fill="none" d="M-5.6,0 L 5.6 0" class="primitive"/>
  </g>
  <g transform="translate(630,288.33)">
    <path fill="none" d="M-5.6,0 L 5.6 0" class="primitive"/>
  </g>
</g>
<g fill="#FF0000" id="img-437d8618-2">
  <g transform="translate(20,105.12)">
    <circle cx="0" cy="0" r="4" class="primitive"/>
  </g>
</g>
<g fill="#FF0000" id="img-437d8618-3">
  <g transform="translate(20,13.33)">
    <circle cx="0" cy="0" r="4" class="primitive"/>
  </g>
</g>
<g fill="#FF0000" id="img-437d8618-4">
  <g transform="translate(20,156.67)">
    <circle cx="0" cy="0" r="4" class="primitive"/>
  </g>
</g>
<g fill="#FF0000" id="img-437d8618-5">
  <g transform="translate(20,85.56)">
    <circle cx="0" cy="0" r="4" class="primitive"/>
  </g>
</g>
<g fill="#FF0000" id="img-437d8618-6">
  <g transform="translate(20,139.69)">
    <circle cx="0" cy="0" r="4" class="primitive"/>
  </g>
</g>
<g fill="#FF0000" id="img-437d8618-7">
  <g transform="translate(20,63.7)">
    <circle cx="0" cy="0" r="4" class="primitive"/>
  </g>
</g>
<g fill="#FF0000" id="img-437d8618-8">
  <g transform="translate(20,45)">
    <circle cx="0" cy="0" r="4" class="primitive"/>
  </g>
</g>
<g fill="#FF0000" id="img-437d8618-9">
  <g transform="translate(20,29.44)">
    <circle cx="0" cy="0" r="4" class="primitive"/>
  </g>
</g>
<g fill="#FF0000" id="img-437d8618-10">
  <g transform="translate(20,122.41)">
    <circle cx="0" cy="0" r="4" class="primitive"/>
  </g>
</g>
<g fill="#00FFFF" id="img-437d8618-11">
  <g transform="translate(720,293.33)">
    <circle cx="0" cy="0" r="4" class="primitive"/>
  </g>
</g>
<g fill="#00FFFF" id="img-437d8618-12">
  <g transform="translate(700,288.33)">
    <circle cx="0" cy="0" r="4" class="primitive"/>
  </g>
</g>
<g fill="#00FFFF" id="img-437d8618-13">
  <g transform="translate(680,288.33)">
    <circle cx="0" cy="0" r="4" class="primitive"/>
  </g>
</g>
<g fill="#00FFFF" id="img-437d8618-14">
  <g transform="translate(660,288.33)">
    <circle cx="0" cy="0" r="4" class="primitive"/>
  </g>
</g>
<g fill="#00FFFF" id="img-437d8618-15">
  <g transform="translate(120,223.33)">
    <circle cx="0" cy="0" r="4" class="primitive"/>
  </g>
</g>
<g fill="#00FFFF" id="img-437d8618-16">
  <g transform="translate(100,139.69)">
    <circle cx="0" cy="0" r="4" class="primitive"/>
  </g>
</g>
<g fill="#00FFFF" id="img-437d8618-17">
  <g transform="translate(80,139.69)">
    <circle cx="0" cy="0" r="4" class="primitive"/>
  </g>
</g>
<g fill="#00FFFF" id="img-437d8618-18">
  <g transform="translate(60,139.69)">
    <circle cx="0" cy="0" r="4" class="primitive"/>
  </g>
</g>
<g fill="#00FFFF" id="img-437d8618-19">
  <g transform="translate(120,213.33)">
    <circle cx="0" cy="0" r="4" class="primitive"/>
  </g>
</g>
<g fill="#00FFFF" id="img-437d8618-20">
  <g transform="translate(100,122.41)">
    <circle cx="0" cy="0" r="4" class="primitive"/>
  </g>
</g>
<g fill="#00FFFF" id="img-437d8618-21">
  <g transform="translate(80,122.41)">
    <circle cx="0" cy="0" r="4" class="primitive"/>
  </g>
</g>
<g fill="#00FFFF" id="img-437d8618-22">
  <g transform="translate(60,122.41)">
    <circle cx="0" cy="0" r="4" class="primitive"/>
  </g>
</g>
<g fill="#00FFFF" id="img-437d8618-23">
  <g transform="translate(120,203.33)">
    <circle cx="0" cy="0" r="4" class="primitive"/>
  </g>
</g>
<g fill="#00FFFF" id="img-437d8618-24">
  <g transform="translate(100,105.12)">
    <circle cx="0" cy="0" r="4" class="primitive"/>
  </g>
</g>
<g fill="#00FFFF" id="img-437d8618-25">
  <g transform="translate(80,105.12)">
    <circle cx="0" cy="0" r="4" class="primitive"/>
  </g>
</g>
<g fill="#00FFFF" id="img-437d8618-26">
  <g transform="translate(60,105.12)">
    <circle cx="0" cy="0" r="4" class="primitive"/>
  </g>
</g>
<g fill="#00FFFF" id="img-437d8618-27">
  <g transform="translate(220,233.33)">
    <circle cx="0" cy="0" r="4" class="primitive"/>
  </g>
</g>
<g fill="#00FFFF" id="img-437d8618-28">
  <g transform="translate(200,239.26)">
    <circle cx="0" cy="0" r="4" class="primitive"/>
  </g>
</g>
<g fill="#00FFFF" id="img-437d8618-29">
  <g transform="translate(180,239.26)">
    <circle cx="0" cy="0" r="4" class="primitive"/>
  </g>
</g>
<g fill="#00FFFF" id="img-437d8618-30">
  <g transform="translate(160,239.26)">
    <circle cx="0" cy="0" r="4" class="primitive"/>
  </g>
</g>
<g fill="#00FFFF" id="img-437d8618-31">
  <g transform="translate(120,193.33)">
    <circle cx="0" cy="0" r="4" class="primitive"/>
  </g>
</g>
<g fill="#00FFFF" id="img-437d8618-32">
  <g transform="translate(100,85.56)">
    <circle cx="0" cy="0" r="4" class="primitive"/>
  </g>
</g>
<g fill="#00FFFF" id="img-437d8618-33">
  <g transform="translate(80,85.56)">
    <circle cx="0" cy="0" r="4" class="primitive"/>
  </g>
</g>
<g fill="#00FFFF" id="img-437d8618-34">
  <g transform="translate(60,85.56)">
    <circle cx="0" cy="0" r="4" class="primitive"/>
  </g>
</g>
<g fill="#00FFFF" id="img-437d8618-35">
  <g transform="translate(120,183.33)">
    <circle cx="0" cy="0" r="4" class="primitive"/>
  </g>
</g>
<g fill="#00FFFF" id="img-437d8618-36">
  <g transform="translate(100,63.7)">
    <circle cx="0" cy="0" r="4" class="primitive"/>
  </g>
</g>
<g fill="#00FFFF" id="img-437d8618-37">
  <g transform="translate(80,63.7)">
    <circle cx="0" cy="0" r="4" class="primitive"/>
  </g>
</g>
<g fill="#00FFFF" id="img-437d8618-38">
  <g transform="translate(60,63.7)">
    <circle cx="0" cy="0" r="4" class="primitive"/>
  </g>
</g>
<g fill="#00FFFF" id="img-437d8618-39">
  <g transform="translate(320,243.33)">
    <circle cx="0" cy="0" r="4" class="primitive"/>
  </g>
</g>
<g fill="#00FFFF" id="img-437d8618-40">
  <g transform="translate(300,256.11)">
    <circle cx="0" cy="0" r="4" class="primitive"/>
  </g>
</g>
<g fill="#00FFFF" id="img-437d8618-41">
  <g transform="translate(280,256.11)">
    <circle cx="0" cy="0" r="4" class="primitive"/>
  </g>
</g>
<g fill="#00FFFF" id="img-437d8618-42">
  <g transform="translate(260,256.11)">
    <circle cx="0" cy="0" r="4" class="primitive"/>
  </g>
</g>
<g fill="#00FFFF" id="img-437d8618-43">
  <g transform="translate(420,253.33)">
    <circle cx="0" cy="0" r="4" class="primitive"/>
  </g>
</g>
<g fill="#00FFFF" id="img-437d8618-44">
  <g transform="translate(400,261.11)">
    <circle cx="0" cy="0" r="4" class="primitive"/>
  </g>
</g>
<g fill="#00FFFF" id="img-437d8618-45">
  <g transform="translate(380,261.11)">
    <circle cx="0" cy="0" r="4" class="primitive"/>
  </g>
</g>
<g fill="#00FFFF" id="img-437d8618-46">
  <g transform="translate(360,261.11)">
    <circle cx="0" cy="0" r="4" class="primitive"/>
  </g>
</g>
<g fill="#00FFFF" id="img-437d8618-47">
  <g transform="translate(520,263.33)">
    <circle cx="0" cy="0" r="4" class="primitive"/>
  </g>
</g>
<g fill="#00FFFF" id="img-437d8618-48">
  <g transform="translate(500,266.11)">
    <circle cx="0" cy="0" r="4" class="primitive"/>
  </g>
</g>
<g fill="#00FFFF" id="img-437d8618-49">
  <g transform="translate(480,266.11)">
    <circle cx="0" cy="0" r="4" class="primitive"/>
  </g>
</g>
<g fill="#00FFFF" id="img-437d8618-50">
  <g transform="translate(460,266.11)">
    <circle cx="0" cy="0" r="4" class="primitive"/>
  </g>
</g>
<g fill="#00FFFF" id="img-437d8618-51">
  <g transform="translate(120,173.33)">
    <circle cx="0" cy="0" r="4" class="primitive"/>
  </g>
</g>
<g fill="#00FFFF" id="img-437d8618-52">
  <g transform="translate(100,45)">
    <circle cx="0" cy="0" r="4" class="primitive"/>
  </g>
</g>
<g fill="#00FFFF" id="img-437d8618-53">
  <g transform="translate(80,45)">
    <circle cx="0" cy="0" r="4" class="primitive"/>
  </g>
</g>
<g fill="#00FFFF" id="img-437d8618-54">
  <g transform="translate(60,45)">
    <circle cx="0" cy="0" r="4" class="primitive"/>
  </g>
</g>
<g fill="#00FFFF" id="img-437d8618-55">
  <g transform="translate(120,163.33)">
    <circle cx="0" cy="0" r="4" class="primitive"/>
  </g>
</g>
<g fill="#00FFFF" id="img-437d8618-56">
  <g transform="translate(100,29.44)">
    <circle cx="0" cy="0" r="4" class="primitive"/>
  </g>
</g>
<g fill="#00FFFF" id="img-437d8618-57">
  <g transform="translate(80,29.44)">
    <circle cx="0" cy="0" r="4" class="primitive"/>
  </g>
</g>
<g fill="#00FFFF" id="img-437d8618-58">
  <g transform="translate(60,29.44)">
    <circle cx="0" cy="0" r="4" class="primitive"/>
  </g>
</g>
<g fill="#00FFFF" id="img-437d8618-59">
  <g transform="translate(120,153.33)">
    <circle cx="0" cy="0" r="4" class="primitive"/>
  </g>
</g>
<g fill="#00FFFF" id="img-437d8618-60">
  <g transform="translate(100,156.67)">
    <circle cx="0" cy="0" r="4" class="primitive"/>
  </g>
</g>
<g fill="#00FFFF" id="img-437d8618-61">
  <g transform="translate(80,156.67)">
    <circle cx="0" cy="0" r="4" class="primitive"/>
  </g>
</g>
<g fill="#00FFFF" id="img-437d8618-62">
  <g transform="translate(60,156.67)">
    <circle cx="0" cy="0" r="4" class="primitive"/>
  </g>
</g>
<g fill="#00FFFF" id="img-437d8618-63">
  <g transform="translate(620,273.33)">
    <circle cx="0" cy="0" r="4" class="primitive"/>
  </g>
</g>
<g fill="#00FFFF" id="img-437d8618-64">
  <g transform="translate(600,276.67)">
    <circle cx="0" cy="0" r="4" class="primitive"/>
  </g>
</g>
<g fill="#00FFFF" id="img-437d8618-65">
  <g transform="translate(580,276.67)">
    <circle cx="0" cy="0" r="4" class="primitive"/>
  </g>
</g>
<g fill="#00FFFF" id="img-437d8618-66">
  <g transform="translate(560,276.67)">
    <circle cx="0" cy="0" r="4" class="primitive"/>
  </g>
</g>
<g fill="#00FFFF" id="img-437d8618-67">
  <g transform="translate(120,10)">
    <circle cx="0" cy="0" r="4" class="primitive"/>
  </g>
</g>
<g fill="#00FFFF" id="img-437d8618-68">
  <g transform="translate(100,13.33)">
    <circle cx="0" cy="0" r="4" class="primitive"/>
  </g>
</g>
<g fill="#00FFFF" id="img-437d8618-69">
  <g transform="translate(80,13.33)">
    <circle cx="0" cy="0" r="4" class="primitive"/>
  </g>
</g>
<g fill="#00FFFF" id="img-437d8618-70">
  <g transform="translate(60,13.33)">
    <circle cx="0" cy="0" r="4" class="primitive"/>
  </g>
</g>
<g fill="#FFA500" id="img-437d8618-71">
  <g transform="translate(640,288.33)">
    <circle cx="0" cy="0" r="4" class="primitive"/>
  </g>
</g>
<g fill="#FFA500" id="img-437d8618-72">
  <g transform="translate(40,156.67)">
    <circle cx="0" cy="0" r="4" class="primitive"/>
  </g>
</g>
<g fill="#FFA500" id="img-437d8618-73">
  <g transform="translate(540,276.67)">
    <circle cx="0" cy="0" r="4" class="primitive"/>
  </g>
</g>
<g fill="#FFA500" id="img-437d8618-74">
  <g transform="translate(40,13.33)">
    <circle cx="0" cy="0" r="4" class="primitive"/>
  </g>
</g>
<g fill="#FFA500" id="img-437d8618-75">
  <g transform="translate(440,266.11)">
    <circle cx="0" cy="0" r="4" class="primitive"/>
  </g>
</g>
<g fill="#FFA500" id="img-437d8618-76">
  <g transform="translate(40,45)">
    <circle cx="0" cy="0" r="4" class="primitive"/>
  </g>
</g>
<g fill="#FFA500" id="img-437d8618-77">
  <g transform="translate(40,29.44)">
    <circle cx="0" cy="0" r="4" class="primitive"/>
  </g>
</g>
<g fill="#FFA500" id="img-437d8618-78">
  <g transform="translate(340,261.11)">
    <circle cx="0" cy="0" r="4" class="primitive"/>
  </g>
</g>
<g fill="#FFA500" id="img-437d8618-79">
  <g transform="translate(240,256.11)">
    <circle cx="0" cy="0" r="4" class="primitive"/>
  </g>
</g>
<g fill="#FFA500" id="img-437d8618-80">
  <g transform="translate(140,239.26)">
    <circle cx="0" cy="0" r="4" class="primitive"/>
  </g>
</g>
<g fill="#FFA500" id="img-437d8618-81">
  <g transform="translate(40,85.56)">
    <circle cx="0" cy="0" r="4" class="primitive"/>
  </g>
</g>
<g fill="#FFA500" id="img-437d8618-82">
  <g transform="translate(40,63.7)">
    <circle cx="0" cy="0" r="4" class="primitive"/>
  </g>
</g>
<g fill="#FFA500" id="img-437d8618-83">
  <g transform="translate(40,139.69)">
    <circle cx="0" cy="0" r="4" class="primitive"/>
  </g>
</g>
<g fill="#FFA500" id="img-437d8618-84">
  <g transform="translate(40,122.41)">
    <circle cx="0" cy="0" r="4" class="primitive"/>
  </g>
</g>
<g fill="#FFA500" id="img-437d8618-85">
  <g transform="translate(40,105.12)">
    <circle cx="0" cy="0" r="4" class="primitive"/>
  </g>
</g>
<g fill="#FF0000" id="img-437d8618-86">
  <g transform="translate(720,283.33)">
    <circle cx="0" cy="0" r="4" class="primitive"/>
  </g>
</g>
<g fill="#FF0000" id="img-437d8618-87">
  <g transform="translate(120,239.26)">
    <circle cx="0" cy="0" r="4" class="primitive"/>
  </g>
</g>
<g fill="#FF0000" id="img-437d8618-88">
  <g transform="translate(220,256.11)">
    <circle cx="0" cy="0" r="4" class="primitive"/>
  </g>
</g>
<g fill="#FF0000" id="img-437d8618-89">
  <g transform="translate(320,261.11)">
    <circle cx="0" cy="0" r="4" class="primitive"/>
  </g>
</g>
<g fill="#FF0000" id="img-437d8618-90">
  <g transform="translate(420,266.11)">
    <circle cx="0" cy="0" r="4" class="primitive"/>
  </g>
</g>
<g fill="#FF0000" id="img-437d8618-91">
  <g transform="translate(520,276.67)">
    <circle cx="0" cy="0" r="4" class="primitive"/>
  </g>
</g>
<g fill="#FF0000" id="img-437d8618-92">
  <g transform="translate(620,288.33)">
    <circle cx="0" cy="0" r="4" class="primitive"/>
  </g>
</g>
<g font-family="futura" font-size="3.53" stroke="#000000" id="img-437d8618-93">
  <g transform="translate(20,105.12)">
    <g class="primitive">
      <text text-anchor="middle" dy="-0.25em">op451<tspan x="0" dy="1.2em">0,0</tspan></text>
    </g>
  </g>
  <g transform="translate(20,13.33)">
    <g class="primitive">
      <text text-anchor="middle" dy="-0.25em">op450<tspan x="0" dy="1.2em">0,0</tspan></text>
    </g>
  </g>
  <g transform="translate(20,156.67)">
    <g class="primitive">
      <text text-anchor="middle" dy="-0.25em">op449<tspan x="0" dy="1.2em">0,0</tspan></text>
    </g>
  </g>
  <g transform="translate(20,85.56)">
    <g class="primitive">
      <text text-anchor="middle" dy="-0.25em">op448<tspan x="0" dy="1.2em">0,0</tspan></text>
    </g>
  </g>
  <g transform="translate(20,139.69)">
    <g class="primitive">
      <text text-anchor="middle" dy="-0.25em">op447<tspan x="0" dy="1.2em">0,0</tspan></text>
    </g>
  </g>
  <g transform="translate(20,63.7)">
    <g class="primitive">
      <text text-anchor="middle" dy="-0.25em">op446<tspan x="0" dy="1.2em">0,0</tspan></text>
    </g>
  </g>
  <g transform="translate(20,45)">
    <g class="primitive">
      <text text-anchor="middle" dy="-0.25em">op445<tspan x="0" dy="1.2em">0,0</tspan></text>
    </g>
  </g>
  <g transform="translate(20,29.44)">
    <g class="primitive">
      <text text-anchor="middle" dy="-0.25em">op444<tspan x="0" dy="1.2em">0,0</tspan></text>
    </g>
  </g>
  <g transform="translate(20,122.41)">
    <g class="primitive">
      <text text-anchor="middle" dy="-0.25em">op443<tspan x="0" dy="1.2em">0,0</tspan></text>
    </g>
  </g>
  <g transform="translate(720,293.33)">
    <g class="primitive">
      <text text-anchor="middle" dy="-0.85em">go<tspan x="0" dy="1.2em">-1,482,-1</tspan><tspan x="0" dy="1.2em">138,138</tspan></text>
    </g>
  </g>
  <g transform="translate(700,288.33)">
    <g class="primitive">
      <text text-anchor="middle" dy="-0.85em">deposit<tspan x="0" dy="1.2em">-1,105,482</tspan><tspan x="0" dy="1.2em">138,138</tspan></text>
    </g>
  </g>
  <g transform="translate(680,288.33)">
    <g class="primitive">
      <text text-anchor="middle" dy="-0.85em">carry<tspan x="0" dy="1.2em">-1,105,482</tspan><tspan x="0" dy="1.2em">117,138</tspan></text>
    </g>
  </g>
  <g transform="translate(660,288.33)">
    <g class="primitive">
      <text text-anchor="middle" dy="-0.85em">collect<tspan x="0" dy="1.2em">-1,105,276</tspan><tspan x="0" dy="1.2em">117,117</tspan></text>
    </g>
  </g>
  <g transform="translate(120,223.33)">
    <g class="primitive">
      <text text-anchor="middle" dy="-0.85em">go<tspan x="0" dy="1.2em">-1,265,-1</tspan><tspan x="0" dy="1.2em">18,18</tspan></text>
    </g>
  </g>
  <g transform="translate(100,139.69)">
    <g class="primitive">
      <text text-anchor="middle" dy="-0.85em">deposit<tspan x="0" dy="1.2em">-1,93,265</tspan><tspan x="0" dy="1.2em">18,18</tspan></text>
    </g>
  </g>
  <g transform="translate(80,139.69)">
    <g class="primitive">
      <text text-anchor="middle" dy="-0.85em">carry<tspan x="0" dy="1.2em">-1,93,265</tspan><tspan x="0" dy="1.2em">0,18</tspan></text>
    </g>
  </g>
  <g transform="translate(60,139.69)">
    <g class="primitive">
      <text text-anchor="middle" dy="-0.85em">collect<tspan x="0" dy="1.2em">-1,93,501</tspan><tspan x="0" dy="1.2em">0,0</tspan></text>
    </g>
  </g>
  <g transform="translate(120,213.33)">
    <g class="primitive">
      <text text-anchor="middle" dy="-0.85em">go<tspan x="0" dy="1.2em">-1,531,-1</tspan><tspan x="0" dy="1.2em">10,10</tspan></text>
    </g>
  </g>
  <g transform="translate(100,122.41)">
    <g class="primitive">
      <text text-anchor="middle" dy="-0.85em">deposit<tspan x="0" dy="1.2em">-1,92,531</tspan><tspan x="0" dy="1.2em">10,10</tspan></text>
    </g>
  </g>
  <g transform="translate(80,122.41)">
    <g class="primitive">
      <text text-anchor="middle" dy="-0.85em">carry<tspan x="0" dy="1.2em">-1,92,531</tspan><tspan x="0" dy="1.2em">0,10</tspan></text>
    </g>
  </g>
  <g transform="translate(60,122.41)">
    <g class="primitive">
      <text text-anchor="middle" dy="-0.85em">collect<tspan x="0" dy="1.2em">-1,92,355</tspan><tspan x="0" dy="1.2em">0,0</tspan></text>
    </g>
  </g>
  <g transform="translate(120,203.33)">
    <g class="primitive">
      <text text-anchor="middle" dy="-0.85em">go<tspan x="0" dy="1.2em">-1,62,-1</tspan><tspan x="0" dy="1.2em">9,9</tspan></text>
    </g>
  </g>
  <g transform="translate(100,105.12)">
    <g class="primitive">
      <text text-anchor="middle" dy="-0.85em">deposit<tspan x="0" dy="1.2em">-1,91,62</tspan><tspan x="0" dy="1.2em">9,9</tspan></text>
    </g>
  </g>
  <g transform="translate(80,105.12)">
    <g class="primitive">
      <text text-anchor="middle" dy="-0.85em">carry<tspan x="0" dy="1.2em">-1,91,62</tspan><tspan x="0" dy="1.2em">0,9</tspan></text>
    </g>
  </g>
  <g transform="translate(60,105.12)">
    <g class="primitive">
      <text text-anchor="middle" dy="-0.85em">collect<tspan x="0" dy="1.2em">-1,91,118</tspan><tspan x="0" dy="1.2em">0,0</tspan></text>
    </g>
  </g>
  <g transform="translate(220,233.33)">
    <g class="primitive">
      <text text-anchor="middle" dy="-0.85em">go<tspan x="0" dy="1.2em">-1,523,-1</tspan><tspan x="0" dy="1.2em">45,45</tspan></text>
    </g>
  </g>
  <g transform="translate(200,239.26)">
    <g class="primitive">
      <text text-anchor="middle" dy="-0.85em">deposit<tspan x="0" dy="1.2em">-1,96,523</tspan><tspan x="0" dy="1.2em">45,45</tspan></text>
    </g>
  </g>
  <g transform="translate(180,239.26)">
    <g class="primitive">
      <text text-anchor="middle" dy="-0.85em">carry<tspan x="0" dy="1.2em">-1,96,523</tspan><tspan x="0" dy="1.2em">18,45</tspan></text>
    </g>
  </g>
  <g transform="translate(160,239.26)">
    <g class="primitive">
      <text text-anchor="middle" dy="-0.85em">collect<tspan x="0" dy="1.2em">-1,96,108</tspan><tspan x="0" dy="1.2em">18,18</tspan></text>
    </g>
  </g>
  <g transform="translate(120,193.33)">
    <g class="primitive">
      <text text-anchor="middle" dy="-0.85em">go<tspan x="0" dy="1.2em">-1,251,-1</tspan><tspan x="0" dy="1.2em">15,15</tspan></text>
    </g>
  </g>
  <g transform="translate(100,85.56)">
    <g class="primitive">
      <text text-anchor="middle" dy="-0.85em">deposit<tspan x="0" dy="1.2em">-1,95,251</tspan><tspan x="0" dy="1.2em">15,15</tspan></text>
    </g>
  </g>
  <g transform="translate(80,85.56)">
    <g class="primitive">
      <text text-anchor="middle" dy="-0.85em">carry<tspan x="0" dy="1.2em">-1,95,251</tspan><tspan x="0" dy="1.2em">0,15</tspan></text>
    </g>
  </g>
  <g transform="translate(60,85.56)">
    <g class="primitive">
      <text text-anchor="middle" dy="-0.85em">collect<tspan x="0" dy="1.2em">-1,95,104</tspan><tspan x="0" dy="1.2em">0,0</tspan></text>
    </g>
  </g>
  <g transform="translate(120,183.33)">
    <g class="primitive">
      <text text-anchor="middle" dy="-0.85em">go<tspan x="0" dy="1.2em">-1,527,-1</tspan><tspan x="0" dy="1.2em">10,10</tspan></text>
    </g>
  </g>
  <g transform="translate(100,63.7)">
    <g class="primitive">
      <text text-anchor="middle" dy="-0.85em">deposit<tspan x="0" dy="1.2em">-1,94,527</tspan><tspan x="0" dy="1.2em">10,10</tspan></text>
    </g>
  </g>
  <g transform="translate(80,63.7)">
    <g class="primitive">
      <text text-anchor="middle" dy="-0.85em">carry<tspan x="0" dy="1.2em">-1,94,527</tspan><tspan x="0" dy="1.2em">0,10</tspan></text>
    </g>
  </g>
  <g transform="translate(60,63.7)">
    <g class="primitive">
      <text text-anchor="middle" dy="-0.85em">collect<tspan x="0" dy="1.2em">-1,94,349</tspan><tspan x="0" dy="1.2em">0,0</tspan></text>
    </g>
  </g>
  <g transform="translate(320,243.33)">
    <g class="primitive">
      <text text-anchor="middle" dy="-0.85em">go<tspan x="0" dy="1.2em">-1,259,-1</tspan><tspan x="0" dy="1.2em">66,66</tspan></text>
    </g>
  </g>
  <g transform="translate(300,256.11)">
    <g class="primitive">
      <text text-anchor="middle" dy="-0.85em">deposit<tspan x="0" dy="1.2em">-1,97,259</tspan><tspan x="0" dy="1.2em">66,66</tspan></text>
    </g>
  </g>
  <g transform="translate(280,256.11)">
    <g class="primitive">
      <text text-anchor="middle" dy="-0.85em">carry<tspan x="0" dy="1.2em">-1,97,259</tspan><tspan x="0" dy="1.2em">45,66</tspan></text>
    </g>
  </g>
  <g transform="translate(260,256.11)">
    <g class="primitive">
      <text text-anchor="middle" dy="-0.85em">collect<tspan x="0" dy="1.2em">-1,97,69</tspan><tspan x="0" dy="1.2em">45,45</tspan></text>
    </g>
  </g>
  <g transform="translate(420,253.33)">
    <g class="primitive">
      <text text-anchor="middle" dy="-0.85em">go<tspan x="0" dy="1.2em">-1,119,-1</tspan><tspan x="0" dy="1.2em">86,86</tspan></text>
    </g>
  </g>
  <g transform="translate(400,261.11)">
    <g class="primitive">
      <text text-anchor="middle" dy="-0.85em">deposit<tspan x="0" dy="1.2em">-1,98,119</tspan><tspan x="0" dy="1.2em">86,86</tspan></text>
    </g>
  </g>
  <g transform="translate(380,261.11)">
    <g class="primitive">
      <text text-anchor="middle" dy="-0.85em">carry<tspan x="0" dy="1.2em">-1,98,119</tspan><tspan x="0" dy="1.2em">66,86</tspan></text>
    </g>
  </g>
  <g transform="translate(360,261.11)">
    <g class="primitive">
      <text text-anchor="middle" dy="-0.85em">collect<tspan x="0" dy="1.2em">-1,98,369</tspan><tspan x="0" dy="1.2em">66,66</tspan></text>
    </g>
  </g>
  <g transform="translate(520,263.33)">
    <g class="primitive">
      <text text-anchor="middle" dy="-0.85em">go<tspan x="0" dy="1.2em">-1,370,-1</tspan><tspan x="0" dy="1.2em">96,96</tspan></text>
    </g>
  </g>
  <g transform="translate(500,266.11)">
    <g class="primitive">
      <text text-anchor="middle" dy="-0.85em">deposit<tspan x="0" dy="1.2em">-1,101,370</tspan><tspan x="0" dy="1.2em">96,96</tspan></text>
    </g>
  </g>
  <g transform="translate(480,266.11)">
    <g class="primitive">
      <text text-anchor="middle" dy="-0.85em">carry<tspan x="0" dy="1.2em">-1,101,370</tspan><tspan x="0" dy="1.2em">86,96</tspan></text>
    </g>
  </g>
  <g transform="translate(460,266.11)">
    <g class="primitive">
      <text text-anchor="middle" dy="-0.85em">collect<tspan x="0" dy="1.2em">-1,101,404</tspan><tspan x="0" dy="1.2em">86,86</tspan></text>
    </g>
  </g>
  <g transform="translate(120,173.33)">
    <g class="primitive">
      <text text-anchor="middle" dy="-0.85em">go<tspan x="0" dy="1.2em">-1,366,-1</tspan><tspan x="0" dy="1.2em">15,15</tspan></text>
    </g>
  </g>
  <g transform="translate(100,45)">
    <g class="primitive">
      <text text-anchor="middle" dy="-0.85em">deposit<tspan x="0" dy="1.2em">-1,100,366</tspan><tspan x="0" dy="1.2em">15,15</tspan></text>
    </g>
  </g>
  <g transform="translate(80,45)">
    <g class="primitive">
      <text text-anchor="middle" dy="-0.85em">carry<tspan x="0" dy="1.2em">-1,100,366</tspan><tspan x="0" dy="1.2em">0,15</tspan></text>
    </g>
  </g>
  <g transform="translate(60,45)">
    <g class="primitive">
      <text text-anchor="middle" dy="-0.85em">collect<tspan x="0" dy="1.2em">-1,100,513</tspan><tspan x="0" dy="1.2em">0,0</tspan></text>
    </g>
  </g>
  <g transform="translate(120,163.33)">
    <g class="primitive">
      <text text-anchor="middle" dy="-0.85em">go<tspan x="0" dy="1.2em">-1,56,-1</tspan><tspan x="0" dy="1.2em">1,1</tspan></text>
    </g>
  </g>
  <g transform="translate(100,29.44)">
    <g class="primitive">
      <text text-anchor="middle" dy="-0.85em">deposit<tspan x="0" dy="1.2em">-1,99,56</tspan><tspan x="0" dy="1.2em">1,1</tspan></text>
    </g>
  </g>
  <g transform="translate(80,29.44)">
    <g class="primitive">
      <text text-anchor="middle" dy="-0.85em">carry<tspan x="0" dy="1.2em">-1,99,56</tspan><tspan x="0" dy="1.2em">0,1</tspan></text>
    </g>
  </g>
  <g transform="translate(60,29.44)">
    <g class="primitive">
      <text text-anchor="middle" dy="-0.85em">collect<tspan x="0" dy="1.2em">-1,99,57</tspan><tspan x="0" dy="1.2em">0,0</tspan></text>
    </g>
  </g>
  <g transform="translate(120,153.33)">
    <g class="primitive">
      <text text-anchor="middle" dy="-0.85em">go<tspan x="0" dy="1.2em">-1,391,-1</tspan><tspan x="0" dy="1.2em">6,6</tspan></text>
    </g>
  </g>
  <g transform="translate(100,156.67)">
    <g class="primitive">
      <text text-anchor="middle" dy="-0.85em">deposit<tspan x="0" dy="1.2em">-1,104,391</tspan><tspan x="0" dy="1.2em">6,6</tspan></text>
    </g>
  </g>
  <g transform="translate(80,156.67)">
    <g class="primitive">
      <text text-anchor="middle" dy="-0.85em">carry<tspan x="0" dy="1.2em">-1,104,391</tspan><tspan x="0" dy="1.2em">0,6</tspan></text>
    </g>
  </g>
  <g transform="translate(60,156.67)">
    <g class="primitive">
      <text text-anchor="middle" dy="-0.85em">collect<tspan x="0" dy="1.2em">-1,104,410</tspan><tspan x="0" dy="1.2em">0,0</tspan></text>
    </g>
  </g>
  <g transform="translate(620,273.33)">
    <g class="primitive">
      <text text-anchor="middle" dy="-0.85em">go<tspan x="0" dy="1.2em">-1,514,-1</tspan><tspan x="0" dy="1.2em">117,117</tspan></text>
    </g>
  </g>
  <g transform="translate(600,276.67)">
    <g class="primitive">
      <text text-anchor="middle" dy="-0.85em">deposit<tspan x="0" dy="1.2em">-1,103,514</tspan><tspan x="0" dy="1.2em">117,117</tspan></text>
    </g>
  </g>
  <g transform="translate(580,276.67)">
    <g class="primitive">
      <text text-anchor="middle" dy="-0.85em">carry<tspan x="0" dy="1.2em">-1,103,514</tspan><tspan x="0" dy="1.2em">96,117</tspan></text>
    </g>
  </g>
  <g transform="translate(560,276.67)">
    <g class="primitive">
      <text text-anchor="middle" dy="-0.85em">collect<tspan x="0" dy="1.2em">-1,103,93</tspan><tspan x="0" dy="1.2em">96,96</tspan></text>
    </g>
  </g>
  <g transform="translate(120,10)">
    <g class="primitive">
      <text text-anchor="middle" dy="-0.85em">go<tspan x="0" dy="1.2em">-1,476,-1</tspan><tspan x="0" dy="1.2em">18,18</tspan></text>
    </g>
  </g>
  <g transform="translate(100,13.33)">
    <g class="primitive">
      <text text-anchor="middle" dy="-0.85em">deposit<tspan x="0" dy="1.2em">-1,102,476</tspan><tspan x="0" dy="1.2em">18,18</tspan></text>
    </g>
  </g>
  <g transform="translate(80,13.33)">
    <g class="primitive">
      <text text-anchor="middle" dy="-0.85em">carry<tspan x="0" dy="1.2em">-1,102,476</tspan><tspan x="0" dy="1.2em">0,18</tspan></text>
    </g>
  </g>
  <g transform="translate(60,13.33)">
    <g class="primitive">
      <text text-anchor="middle" dy="-0.85em">collect<tspan x="0" dy="1.2em">-1,102,100</tspan><tspan x="0" dy="1.2em">0,0</tspan></text>
    </g>
  </g>
  <g transform="translate(640,288.33)">
    <g class="primitive">
      <text text-anchor="middle" dy="-0.25em">O105-276<tspan x="0" dy="1.2em">117,117</tspan></text>
    </g>
  </g>
  <g transform="translate(40,156.67)">
    <g class="primitive">
      <text text-anchor="middle" dy="-0.25em">O104-410<tspan x="0" dy="1.2em">0,0</tspan></text>
    </g>
  </g>
  <g transform="translate(540,276.67)">
    <g class="primitive">
      <text text-anchor="middle" dy="-0.25em">O103-93<tspan x="0" dy="1.2em">96,96</tspan></text>
    </g>
  </g>
  <g transform="translate(40,13.33)">
    <g class="primitive">
      <text text-anchor="middle" dy="-0.25em">O102-100<tspan x="0" dy="1.2em">0,0</tspan></text>
    </g>
  </g>
  <g transform="translate(440,266.11)">
    <g class="primitive">
      <text text-anchor="middle" dy="-0.25em">O101-404<tspan x="0" dy="1.2em">86,86</tspan></text>
    </g>
  </g>
  <g transform="translate(40,45)">
    <g class="primitive">
      <text text-anchor="middle" dy="-0.25em">O100-513<tspan x="0" dy="1.2em">0,0</tspan></text>
    </g>
  </g>
  <g transform="translate(40,29.44)">
    <g class="primitive">
      <text text-anchor="middle" dy="-0.25em">O99-57<tspan x="0" dy="1.2em">0,0</tspan></text>
    </g>
  </g>
  <g transform="translate(340,261.11)">
    <g class="primitive">
      <text text-anchor="middle" dy="-0.25em">O98-369<tspan x="0" dy="1.2em">66,66</tspan></text>
    </g>
  </g>
  <g transform="translate(240,256.11)">
    <g class="primitive">
      <text text-anchor="middle" dy="-0.25em">O97-69<tspan x="0" dy="1.2em">45,45</tspan></text>
    </g>
  </g>
  <g transform="translate(140,239.26)">
    <g class="primitive">
      <text text-anchor="middle" dy="-0.25em">O96-108<tspan x="0" dy="1.2em">18,18</tspan></text>
    </g>
  </g>
  <g transform="translate(40,85.56)">
    <g class="primitive">
      <text text-anchor="middle" dy="-0.25em">O95-104<tspan x="0" dy="1.2em">0,0</tspan></text>
    </g>
  </g>
  <g transform="translate(40,63.7)">
    <g class="primitive">
      <text text-anchor="middle" dy="-0.25em">O94-349<tspan x="0" dy="1.2em">0,0</tspan></text>
    </g>
  </g>
  <g transform="translate(40,139.69)">
    <g class="primitive">
      <text text-anchor="middle" dy="-0.25em">O93-501<tspan x="0" dy="1.2em">0,0</tspan></text>
    </g>
  </g>
  <g transform="translate(40,122.41)">
    <g class="primitive">
      <text text-anchor="middle" dy="-0.25em">O92-355<tspan x="0" dy="1.2em">0,0</tspan></text>
    </g>
  </g>
  <g transform="translate(40,105.12)">
    <g class="primitive">
      <text text-anchor="middle" dy="-0.25em">O91-118<tspan x="0" dy="1.2em">0,0</tspan></text>
    </g>
  </g>
  <g transform="translate(720,283.33)">
    <g class="primitive">
      <text text-anchor="middle" dy="-0.25em">op442<tspan x="0" dy="1.2em">138,138</tspan></text>
    </g>
  </g>
  <g transform="translate(120,239.26)">
    <g class="primitive">
      <text text-anchor="middle" dy="-0.25em">op441<tspan x="0" dy="1.2em">18,18</tspan></text>
    </g>
  </g>
  <g transform="translate(220,256.11)">
    <g class="primitive">
      <text text-anchor="middle" dy="-0.25em">op440<tspan x="0" dy="1.2em">45,45</tspan></text>
    </g>
  </g>
  <g transform="translate(320,261.11)">
    <g class="primitive">
      <text text-anchor="middle" dy="-0.25em">op439<tspan x="0" dy="1.2em">66,66</tspan></text>
    </g>
  </g>
  <g transform="translate(420,266.11)">
    <g class="primitive">
      <text text-anchor="middle" dy="-0.25em">op438<tspan x="0" dy="1.2em">86,86</tspan></text>
    </g>
  </g>
  <g transform="translate(520,276.67)">
    <g class="primitive">
      <text text-anchor="middle" dy="-0.25em">op437<tspan x="0" dy="1.2em">96,96</tspan></text>
    </g>
  </g>
  <g transform="translate(620,288.33)">
    <g class="primitive">
      <text text-anchor="middle" dy="-0.25em">op436<tspan x="0" dy="1.2em">117,117</tspan></text>
    </g>
  </g>
</g>
</svg>
