<?xml version="1.0" encoding="UTF-8"?>
<svg xmlns="http://www.w3.org/2000/svg"
     xmlns:xlink="http://www.w3.org/1999/xlink"
     xmlns:gadfly="http://www.gadflyjl.org/ns"
     version="1.2"
     width="440mm" height="310.56mm" viewBox="0 0 440 310.56"
     stroke="none"
     fill="#000000"
     stroke-width="0.3"
     font-size="3.88"
>
<defs>
  <marker id="arrow" markerWidth="15" markerHeight="7" refX="5" refY="3.5" orient="auto" markerUnits="strokeWidth">
    <path d="M0,0 L15,3.5 L0,7 z" stroke="context-stroke" fill="context-stroke"/>
  </marker>
</defs>
<g stroke="#000000" id="img-441ccfe1-1">
  <g transform="translate(30,48.89)">
    <path fill="none" d="M-5.6,0 L 5.6 0" class="primitive"/>
  </g>
  <g transform="translate(30,99.58)">
    <path fill="none" d="M-5.6,0 L 5.6 0" class="primitive"/>
  </g>
  <g transform="translate(30,155.83)">
    <path fill="none" d="M-5.6,0 L 5.6 0" class="primitive"/>
  </g>
  <g transform="translate(30,75.83)">
    <path fill="none" d="M-5.6,0 L 5.6 0" class="primitive"/>
  </g>
  <g transform="translate(30,118.75)">
    <path fill="none" d="M-5.6,0 L 5.6 0" class="primitive"/>
  </g>
  <g transform="translate(30,28.33)">
    <path fill="none" d="M-5.6,0 L 5.6 0" class="primitive"/>
  </g>
  <g transform="translate(30,12.78)">
    <path fill="none" d="M-5.6,0 L 5.6 0" class="primitive"/>
  </g>
  <g transform="translate(30,137.5)">
    <path fill="none" d="M-5.6,0 L 5.6 0" class="primitive"/>
  </g>
  <g transform="translate(410,298.06)">
    <path fill="none" d="M-6.06,-1.52 L 6.06 1.52" class="primitive"/>
  </g>
  <g transform="translate(410,293.06)">
    <path fill="none" d="M-6.06,1.52 L 6.06 -1.52" class="primitive"/>
  </g>
  <g transform="translate(390,295.56)">
    <path fill="none" d="M-5.6,0 L 5.6 0" class="primitive"/>
  </g>
  <g transform="translate(370,295.56)">
    <path fill="none" d="M-5.6,0 L 5.6 0" class="primitive"/>
  </g>
  <g transform="translate(110,105.28)">
    <path fill="none" d="M-9.61,-54.2 L 9.61 54.2" class="primitive"/>
  </g>
  <g transform="translate(110,111.67)">
    <path fill="none" d="M-9.65,-60.58 L 9.65 60.58" class="primitive"/>
  </g>
  <g transform="translate(90,48.89)">
    <path fill="none" d="M-5.6,0 L 5.6 0" class="primitive"/>
  </g>
  <g transform="translate(70,48.89)">
    <path fill="none" d="M-5.6,0 L 5.6 0" class="primitive"/>
  </g>
  <g transform="translate(110,153.75)">
    <path fill="none" d="M-5.94,1.24 L 5.94 -1.24" class="primitive"/>
  </g>
  <g transform="translate(110,191.53)">
    <path fill="none" d="M-9.39,-33.52 L 9.39 33.52" class="primitive"/>
  </g>
  <g transform="translate(90,155.83)">
    <path fill="none" d="M-5.6,0 L 5.6 0" class="primitive"/>
  </g>
  <g transform="translate(70,155.83)">
    <path fill="none" d="M-5.6,0 L 5.6 0" class="primitive"/>
  </g>
  <g transform="translate(110,135.83)">
    <path fill="none" d="M-5.83,0.97 L 5.83 -0.97" class="primitive"/>
  </g>
  <g transform="translate(110,182.36)">
    <path fill="none" d="M-9.51,-42.67 L 9.51 42.67" class="primitive"/>
  </g>
  <g transform="translate(90,137.5)">
    <path fill="none" d="M-5.6,0 L 5.6 0" class="primitive"/>
  </g>
  <g transform="translate(70,137.5)">
    <path fill="none" d="M-5.6,0 L 5.6 0" class="primitive"/>
  </g>
  <g transform="translate(110,100)">
    <path fill="none" d="M-9.11,-22.01 L 9.11 22.01" class="primitive"/>
  </g>
  <g transform="translate(110,133.61)">
    <path fill="none" d="M-9.62,-55.59 L 9.62 55.59" class="primitive"/>
  </g>
  <g transform="translate(90,75.83)">
    <path fill="none" d="M-5.6,0 L 5.6 0" class="primitive"/>
  </g>
  <g transform="translate(70,75.83)">
    <path fill="none" d="M-5.6,0 L 5.6 0" class="primitive"/>
  </g>
  <g transform="translate(110,116.46)">
    <path fill="none" d="M-6,1.38 L 6 -1.38" class="primitive"/>
  </g>
  <g transform="translate(110,164.24)">
    <path fill="none" d="M-9.52,-43.3 L 9.52 43.3" class="primitive"/>
  </g>
  <g transform="translate(90,118.75)">
    <path fill="none" d="M-5.6,0 L 5.6 0" class="primitive"/>
  </g>
  <g transform="translate(70,118.75)">
    <path fill="none" d="M-5.6,0 L 5.6 0" class="primitive"/>
  </g>
  <g transform="translate(110,97.29)">
    <path fill="none" d="M-6,1.38 L 6 -1.38" class="primitive"/>
  </g>
  <g transform="translate(110,154.65)">
    <path fill="none" d="M-9.6,-52.88 L 9.6 52.88" class="primitive"/>
  </g>
  <g transform="translate(90,99.58)">
    <path fill="none" d="M-5.6,0 L 5.6 0" class="primitive"/>
  </g>
  <g transform="translate(70,99.58)">
    <path fill="none" d="M-5.6,0 L 5.6 0" class="primitive"/>
  </g>
  <g transform="translate(210,214.17)">
    <path fill="none" d="M-9.45,-37.54 L 9.45 37.54" class="primitive"/>
  </g>
  <g transform="translate(210,220.83)">
    <path fill="none" d="M-9.53,-44.2 L 9.53 44.2" class="primitive"/>
  </g>
  <g transform="translate(190,174.44)">
    <path fill="none" d="M-5.6,0 L 5.6 0" class="primitive"/>
  </g>
  <g transform="translate(170,174.44)">
    <path fill="none" d="M-5.6,0 L 5.6 0" class="primitive"/>
  </g>
  <g transform="translate(110,26.94)">
    <path fill="none" d="M-5.76,0.8 L 5.76 -0.8" class="primitive"/>
  </g>
  <g transform="translate(160,147.78)">
    <path fill="none" d="M-58.93,-117.31 L 58.93 117.31" class="primitive"/>
  </g>
  <g transform="translate(90,28.33)">
    <path fill="none" d="M-5.6,0 L 5.6 0" class="primitive"/>
  </g>
  <g transform="translate(70,28.33)">
    <path fill="none" d="M-5.6,0 L 5.6 0" class="primitive"/>
  </g>
  <g transform="translate(110,11.39)">
    <path fill="none" d="M-5.76,0.8 L 5.76 -0.8" class="primitive"/>
  </g>
  <g transform="translate(160,140)">
    <path fill="none" d="M-58.99,-125.08 L 58.99 125.08" class="primitive"/>
  </g>
  <g transform="translate(90,12.78)">
    <path fill="none" d="M-5.6,0 L 5.6 0" class="primitive"/>
  </g>
  <g transform="translate(70,12.78)">
    <path fill="none" d="M-5.6,0 L 5.6 0" class="primitive"/>
  </g>
  <g transform="translate(210,226.81)">
    <path fill="none" d="M-8.76,-14.97 L 8.76 14.97" class="primitive"/>
  </g>
  <g transform="translate(210,246.81)">
    <path fill="none" d="M-9.41,-34.9 L 9.41 34.9" class="primitive"/>
  </g>
  <g transform="translate(190,209.72)">
    <path fill="none" d="M-5.6,0 L 5.6 0" class="primitive"/>
  </g>
  <g transform="translate(170,209.72)">
    <path fill="none" d="M-5.6,0 L 5.6 0" class="primitive"/>
  </g>
  <g transform="translate(210,212.64)">
    <path fill="none" d="M-8.99,-19.11 L 8.99 19.11" class="primitive"/>
  </g>
  <g transform="translate(210,237.64)">
    <path fill="none" d="M-9.53,-44.06 L 9.53 44.06" class="primitive"/>
  </g>
  <g transform="translate(190,191.39)">
    <path fill="none" d="M-5.6,0 L 5.6 0" class="primitive"/>
  </g>
  <g transform="translate(170,191.39)">
    <path fill="none" d="M-5.6,0 L 5.6 0" class="primitive"/>
  </g>
  <g transform="translate(210,225.56)">
    <path fill="none" d="M-5.83,0.97 L 5.83 -0.97" class="primitive"/>
  </g>
  <g transform="translate(260,261.39)">
    <path fill="none" d="M-57.1,-32.51 L 57.1 32.51" class="primitive"/>
  </g>
  <g transform="translate(190,227.22)">
    <path fill="none" d="M-5.6,0 L 5.6 0" class="primitive"/>
  </g>
  <g transform="translate(170,227.22)">
    <path fill="none" d="M-5.6,0 L 5.6 0" class="primitive"/>
  </g>
  <g transform="translate(310,282.22)">
    <path fill="none" d="M-5.83,0.97 L 5.83 -0.97" class="primitive"/>
  </g>
  <g transform="translate(310,289.72)">
    <path fill="none" d="M-7.14,-4.16 L 7.14 4.16" class="primitive"/>
  </g>
  <g transform="translate(290,283.89)">
    <path fill="none" d="M-5.6,0 L 5.6 0" class="primitive"/>
  </g>
  <g transform="translate(270,283.89)">
    <path fill="none" d="M-5.6,0 L 5.6 0" class="primitive"/>
  </g>
  <g transform="translate(310,265.56)">
    <path fill="none" d="M-5.83,0.97 L 5.83 -0.97" class="primitive"/>
  </g>
  <g transform="translate(310,281.39)">
    <path fill="none" d="M-8.54,-12.09 L 8.54 12.09" class="primitive"/>
  </g>
  <g transform="translate(290,267.22)">
    <path fill="none" d="M-5.6,0 L 5.6 0" class="primitive"/>
  </g>
  <g transform="translate(270,267.22)">
    <path fill="none" d="M-5.6,0 L 5.6 0" class="primitive"/>
  </g>
  <g transform="translate(350,295.56)">
    <path fill="none" d="M-5.6,0 L 5.6 0" class="primitive"/>
  </g>
  <g transform="translate(150,227.22)">
    <path fill="none" d="M-5.6,0 L 5.6 0" class="primitive"/>
  </g>
  <g transform="translate(250,283.89)">
    <path fill="none" d="M-5.6,0 L 5.6 0" class="primitive"/>
  </g>
  <g transform="translate(250,267.22)">
    <path fill="none" d="M-5.6,0 L 5.6 0" class="primitive"/>
  </g>
  <g transform="translate(150,209.72)">
    <path fill="none" d="M-5.6,0 L 5.6 0" class="primitive"/>
  </g>
  <g transform="translate(150,191.39)">
    <path fill="none" d="M-5.6,0 L 5.6 0" class="primitive"/>
  </g>
  <g transform="translate(150,174.44)">
    <path fill="none" d="M-5.6,0 L 5.6 0" class="primitive"/>
  </g>
  <g transform="translate(50,28.33)">
    <path fill="none" d="M-5.6,0 L 5.6 0" class="primitive"/>
  </g>
  <g transform="translate(50,12.78)">
    <path fill="none" d="M-5.6,0 L 5.6 0" class="primitive"/>
  </g>
  <g transform="translate(50,118.75)">
    <path fill="none" d="M-5.6,0 L 5.6 0" class="primitive"/>
  </g>
  <g transform="translate(50,99.58)">
    <path fill="none" d="M-5.6,0 L 5.6 0" class="primitive"/>
  </g>
  <g transform="translate(50,75.83)">
    <path fill="none" d="M-5.6,0 L 5.6 0" class="primitive"/>
  </g>
  <g transform="translate(50,155.83)">
    <path fill="none" d="M-5.6,0 L 5.6 0" class="primitive"/>
  </g>
  <g transform="translate(50,137.5)">
    <path fill="none" d="M-5.6,0 L 5.6 0" class="primitive"/>
  </g>
  <g transform="translate(50,48.89)">
    <path fill="none" d="M-5.6,0 L 5.6 0" class="primitive"/>
  </g>
  <g transform="translate(130,174.44)">
    <path fill="none" d="M-5.6,0 L 5.6 0" class="primitive"/>
  </g>
  <g transform="translate(130,227.22)">
    <path fill="none" d="M-5.6,0 L 5.6 0" class="primitive"/>
  </g>
  <g transform="translate(130,191.39)">
    <path fill="none" d="M-5.6,0 L 5.6 0" class="primitive"/>
  </g>
  <g transform="translate(130,209.72)">
    <path fill="none" d="M-5.6,0 L 5.6 0" class="primitive"/>
  </g>
  <g transform="translate(230,267.22)">
    <path fill="none" d="M-5.6,0 L 5.6 0" class="primitive"/>
  </g>
  <g transform="translate(230,283.89)">
    <path fill="none" d="M-5.6,0 L 5.6 0" class="primitive"/>
  </g>
  <g transform="translate(330,295.56)">
    <path fill="none" d="M-5.6,0 L 5.6 0" class="primitive"/>
  </g>
</g>
<g fill="#FF0000" id="img-441ccfe1-2">
  <g transform="translate(20,48.89)">
    <circle cx="0" cy="0" r="4" class="primitive"/>
  </g>
</g>
<g fill="#FF0000" id="img-441ccfe1-3">
  <g transform="translate(20,99.58)">
    <circle cx="0" cy="0" r="4" class="primitive"/>
  </g>
</g>
<g fill="#FF0000" id="img-441ccfe1-4">
  <g transform="translate(20,155.83)">
    <circle cx="0" cy="0" r="4" class="primitive"/>
  </g>
</g>
<g fill="#FF0000" id="img-441ccfe1-5">
  <g transform="translate(20,75.83)">
    <circle cx="0" cy="0" r="4" class="primitive"/>
  </g>
</g>
<g fill="#FF0000" id="img-441ccfe1-6">
  <g transform="translate(20,118.75)">
    <circle cx="0" cy="0" r="4" class="primitive"/>
  </g>
</g>
<g fill="#FF0000" id="img-441ccfe1-7">
  <g transform="translate(20,28.33)">
    <circle cx="0" cy="0" r="4" class="primitive"/>
  </g>
</g>
<g fill="#FF0000" id="img-441ccfe1-8">
  <g transform="translate(20,12.78)">
    <circle cx="0" cy="0" r="4" class="primitive"/>
  </g>
</g>
<g fill="#FF0000" id="img-441ccfe1-9">
  <g transform="translate(20,137.5)">
    <circle cx="0" cy="0" r="4" class="primitive"/>
  </g>
</g>
<g fill="#00FFFF" id="img-441ccfe1-10">
  <g transform="translate(420,300.56)">
    <circle cx="0" cy="0" r="4" class="primitive"/>
  </g>
</g>
<g fill="#00FFFF" id="img-441ccfe1-11">
  <g transform="translate(400,295.56)">
    <circle cx="0" cy="0" r="4" class="primitive"/>
  </g>
</g>
<g fill="#00FFFF" id="img-441ccfe1-12">
  <g transform="translate(380,295.56)">
    <circle cx="0" cy="0" r="4" class="primitive"/>
  </g>
</g>
<g fill="#00FFFF" id="img-441ccfe1-13">
  <g transform="translate(360,295.56)">
    <circle cx="0" cy="0" r="4" class="primitive"/>
  </g>
</g>
<g fill="#00FFFF" id="img-441ccfe1-14">
  <g transform="translate(120,161.67)">
    <circle cx="0" cy="0" r="4" class="primitive"/>
  </g>
</g>
<g fill="#00FFFF" id="img-441ccfe1-15">
  <g transform="translate(100,48.89)">
    <circle cx="0" cy="0" r="4" class="primitive"/>
  </g>
</g>
<g fill="#00FFFF" id="img-441ccfe1-16">
  <g transform="translate(80,48.89)">
    <circle cx="0" cy="0" r="4" class="primitive"/>
  </g>
</g>
<g fill="#00FFFF" id="img-441ccfe1-17">
  <g transform="translate(60,48.89)">
    <circle cx="0" cy="0" r="4" class="primitive"/>
  </g>
</g>
<g fill="#00FFFF" id="img-441ccfe1-18">
  <g transform="translate(120,151.67)">
    <circle cx="0" cy="0" r="4" class="primitive"/>
  </g>
</g>
<g fill="#00FFFF" id="img-441ccfe1-19">
  <g transform="translate(100,155.83)">
    <circle cx="0" cy="0" r="4" class="primitive"/>
  </g>
</g>
<g fill="#00FFFF" id="img-441ccfe1-20">
  <g transform="translate(80,155.83)">
    <circle cx="0" cy="0" r="4" class="primitive"/>
  </g>
</g>
<g fill="#00FFFF" id="img-441ccfe1-21">
  <g transform="translate(60,155.83)">
    <circle cx="0" cy="0" r="4" class="primitive"/>
  </g>
</g>
<g fill="#00FFFF" id="img-441ccfe1-22">
  <g transform="translate(120,134.17)">
    <circle cx="0" cy="0" r="4" class="primitive"/>
  </g>
</g>
<g fill="#00FFFF" id="img-441ccfe1-23">
  <g transform="translate(100,137.5)">
    <circle cx="0" cy="0" r="4" class="primitive"/>
  </g>
</g>
<g fill="#00FFFF" id="img-441ccfe1-24">
  <g transform="translate(80,137.5)">
    <circle cx="0" cy="0" r="4" class="primitive"/>
  </g>
</g>
<g fill="#00FFFF" id="img-441ccfe1-25">
  <g transform="translate(60,137.5)">
    <circle cx="0" cy="0" r="4" class="primitive"/>
  </g>
</g>
<g fill="#00FFFF" id="img-441ccfe1-26">
  <g transform="translate(120,124.17)">
    <circle cx="0" cy="0" r="4" class="primitive"/>
  </g>
</g>
<g fill="#00FFFF" id="img-441ccfe1-27">
  <g transform="translate(100,75.83)">
    <circle cx="0" cy="0" r="4" class="primitive"/>
  </g>
</g>
<g fill="#00FFFF" id="img-441ccfe1-28">
  <g transform="translate(80,75.83)">
    <circle cx="0" cy="0" r="4" class="primitive"/>
  </g>
</g>
<g fill="#00FFFF" id="img-441ccfe1-29">
  <g transform="translate(60,75.83)">
    <circle cx="0" cy="0" r="4" class="primitive"/>
  </g>
</g>
<g fill="#00FFFF" id="img-441ccfe1-30">
  <g transform="translate(120,114.17)">
    <circle cx="0" cy="0" r="4" class="primitive"/>
  </g>
</g>
<g fill="#00FFFF" id="img-441ccfe1-31">
  <g transform="translate(100,118.75)">
    <circle cx="0" cy="0" r="4" class="primitive"/>
  </g>
</g>
<g fill="#00FFFF" id="img-441ccfe1-32">
  <g transform="translate(80,118.75)">
    <circle cx="0" cy="0" r="4" class="primitive"/>
  </g>
</g>
<g fill="#00FFFF" id="img-441ccfe1-33">
  <g transform="translate(60,118.75)">
    <circle cx="0" cy="0" r="4" class="primitive"/>
  </g>
</g>
<g fill="#00FFFF" id="img-441ccfe1-34">
  <g transform="translate(120,95)">
    <circle cx="0" cy="0" r="4" class="primitive"/>
  </g>
</g>
<g fill="#00FFFF" id="img-441ccfe1-35">
  <g transform="translate(100,99.58)">
    <circle cx="0" cy="0" r="4" class="primitive"/>
  </g>
</g>
<g fill="#00FFFF" id="img-441ccfe1-36">
  <g transform="translate(80,99.58)">
    <circle cx="0" cy="0" r="4" class="primitive"/>
  </g>
</g>
<g fill="#00FFFF" id="img-441ccfe1-37">
  <g transform="translate(60,99.58)">
    <circle cx="0" cy="0" r="4" class="primitive"/>
  </g>
</g>
<g fill="#00FFFF" id="img-441ccfe1-38">
  <g transform="translate(220,253.89)">
    <circle cx="0" cy="0" r="4" class="primitive"/>
  </g>
</g>
<g fill="#00FFFF" id="img-441ccfe1-39">
  <g transform="translate(200,174.44)">
    <circle cx="0" cy="0" r="4" class="primitive"/>
  </g>
</g>
<g fill="#00FFFF" id="img-441ccfe1-40">
  <g transform="translate(180,174.44)">
    <circle cx="0" cy="0" r="4" class="primitive"/>
  </g>
</g>
<g fill="#00FFFF" id="img-441ccfe1-41">
  <g transform="translate(160,174.44)">
    <circle cx="0" cy="0" r="4" class="primitive"/>
  </g>
</g>
<g fill="#00FFFF" id="img-441ccfe1-42">
  <g transform="translate(120,25.56)">
    <circle cx="0" cy="0" r="4" class="primitive"/>
  </g>
</g>
<g fill="#00FFFF" id="img-441ccfe1-43">
  <g transform="translate(100,28.33)">
    <circle cx="0" cy="0" r="4" class="primitive"/>
  </g>
</g>
<g fill="#00FFFF" id="img-441ccfe1-44">
  <g transform="translate(80,28.33)">
    <circle cx="0" cy="0" r="4" class="primitive"/>
  </g>
</g>
<g fill="#00FFFF" id="img-441ccfe1-45">
  <g transform="translate(60,28.33)">
    <circle cx="0" cy="0" r="4" class="primitive"/>
  </g>
</g>
<g fill="#00FFFF" id="img-441ccfe1-46">
  <g transform="translate(120,10)">
    <circle cx="0" cy="0" r="4" class="primitive"/>
  </g>
</g>
<g fill="#00FFFF" id="img-441ccfe1-47">
  <g transform="translate(100,12.78)">
    <circle cx="0" cy="0" r="4" class="primitive"/>
  </g>
</g>
<g fill="#00FFFF" id="img-441ccfe1-48">
  <g transform="translate(80,12.78)">
    <circle cx="0" cy="0" r="4" class="primitive"/>
  </g>
</g>
<g fill="#00FFFF" id="img-441ccfe1-49">
  <g transform="translate(60,12.78)">
    <circle cx="0" cy="0" r="4" class="primitive"/>
  </g>
</g>
<g fill="#00FFFF" id="img-441ccfe1-50">
  <g transform="translate(220,243.89)">
    <circle cx="0" cy="0" r="4" class="primitive"/>
  </g>
</g>
<g fill="#00FFFF" id="img-441ccfe1-51">
  <g transform="translate(200,209.72)">
    <circle cx="0" cy="0" r="4" class="primitive"/>
  </g>
</g>
<g fill="#00FFFF" id="img-441ccfe1-52">
  <g transform="translate(180,209.72)">
    <circle cx="0" cy="0" r="4" class="primitive"/>
  </g>
</g>
<g fill="#00FFFF" id="img-441ccfe1-53">
  <g transform="translate(160,209.72)">
    <circle cx="0" cy="0" r="4" class="primitive"/>
  </g>
</g>
<g fill="#00FFFF" id="img-441ccfe1-54">
  <g transform="translate(220,233.89)">
    <circle cx="0" cy="0" r="4" class="primitive"/>
  </g>
</g>
<g fill="#00FFFF" id="img-441ccfe1-55">
  <g transform="translate(200,191.39)">
    <circle cx="0" cy="0" r="4" class="primitive"/>
  </g>
</g>
<g fill="#00FFFF" id="img-441ccfe1-56">
  <g transform="translate(180,191.39)">
    <circle cx="0" cy="0" r="4" class="primitive"/>
  </g>
</g>
<g fill="#00FFFF" id="img-441ccfe1-57">
  <g transform="translate(160,191.39)">
    <circle cx="0" cy="0" r="4" class="primitive"/>
  </g>
</g>
<g fill="#00FFFF" id="img-441ccfe1-58">
  <g transform="translate(220,223.89)">
    <circle cx="0" cy="0" r="4" class="primitive"/>
  </g>
</g>
<g fill="#00FFFF" id="img-441ccfe1-59">
  <g transform="translate(200,227.22)">
    <circle cx="0" cy="0" r="4" class="primitive"/>
  </g>
</g>
<g fill="#00FFFF" id="img-441ccfe1-60">
  <g transform="translate(180,227.22)">
    <circle cx="0" cy="0" r="4" class="primitive"/>
  </g>
</g>
<g fill="#00FFFF" id="img-441ccfe1-61">
  <g transform="translate(160,227.22)">
    <circle cx="0" cy="0" r="4" class="primitive"/>
  </g>
</g>
<g fill="#00FFFF" id="img-441ccfe1-62">
  <g transform="translate(320,280.56)">
    <circle cx="0" cy="0" r="4" class="primitive"/>
  </g>
</g>
<g fill="#00FFFF" id="img-441ccfe1-63">
  <g transform="translate(300,283.89)">
    <circle cx="0" cy="0" r="4" class="primitive"/>
  </g>
</g>
<g fill="#00FFFF" id="img-441ccfe1-64">
  <g transform="translate(280,283.89)">
    <circle cx="0" cy="0" r="4" class="primitive"/>
  </g>
</g>
<g fill="#00FFFF" id="img-441ccfe1-65">
  <g transform="translate(260,283.89)">
    <circle cx="0" cy="0" r="4" class="primitive"/>
  </g>
</g>
<g fill="#00FFFF" id="img-441ccfe1-66">
  <g transform="translate(320,263.89)">
    <circle cx="0" cy="0" r="4" class="primitive"/>
  </g>
</g>
<g fill="#00FFFF" id="img-441ccfe1-67">
  <g transform="translate(300,267.22)">
    <circle cx="0" cy="0" r="4" class="primitive"/>
  </g>
</g>
<g fill="#00FFFF" id="img-441ccfe1-68">
  <g transform="translate(280,267.22)">
    <circle cx="0" cy="0" r="4" class="primitive"/>
  </g>
</g>
<g fill="#00FFFF" id="img-441ccfe1-69">
  <g transform="translate(260,267.22)">
    <circle cx="0" cy="0" r="4" class="primitive"/>
  </g>
</g>
<g fill="#FFA500" id="img-441ccfe1-70">
  <g transform="translate(340,295.56)">
    <circle cx="0" cy="0" r="4" class="primitive"/>
  </g>
</g>
<g fill="#FFA500" id="img-441ccfe1-71">
  <g transform="translate(140,227.22)">
    <circle cx="0" cy="0" r="4" class="primitive"/>
  </g>
</g>
<g fill="#FFA500" id="img-441ccfe1-72">
  <g transform="translate(240,283.89)">
    <circle cx="0" cy="0" r="4" class="primitive"/>
  </g>
</g>
<g fill="#FFA500" id="img-441ccfe1-73">
  <g transform="translate(240,267.22)">
    <circle cx="0" cy="0" r="4" class="primitive"/>
  </g>
</g>
<g fill="#FFA500" id="img-441ccfe1-74">
  <g transform="translate(140,209.72)">
    <circle cx="0" cy="0" r="4" class="primitive"/>
  </g>
</g>
<g fill="#FFA500" id="img-441ccfe1-75">
  <g transform="translate(140,191.39)">
    <circle cx="0" cy="0" r="4" class="primitive"/>
  </g>
</g>
<g fill="#FFA500" id="img-441ccfe1-76">
  <g transform="translate(140,174.44)">
    <circle cx="0" cy="0" r="4" class="primitive"/>
  </g>
</g>
<g fill="#FFA500" id="img-441ccfe1-77">
  <g transform="translate(40,28.33)">
    <circle cx="0" cy="0" r="4" class="primitive"/>
  </g>
</g>
<g fill="#FFA500" id="img-441ccfe1-78">
  <g transform="translate(40,12.78)">
    <circle cx="0" cy="0" r="4" class="primitive"/>
  </g>
</g>
<g fill="#FFA500" id="img-441ccfe1-79">
  <g transform="translate(40,118.75)">
    <circle cx="0" cy="0" r="4" class="primitive"/>
  </g>
</g>
<g fill="#FFA500" id="img-441ccfe1-80">
  <g transform="translate(40,99.58)">
    <circle cx="0" cy="0" r="4" class="primitive"/>
  </g>
</g>
<g fill="#FFA500" id="img-441ccfe1-81">
  <g transform="translate(40,75.83)">
    <circle cx="0" cy="0" r="4" class="primitive"/>
  </g>
</g>
<g fill="#FFA500" id="img-441ccfe1-82">
  <g transform="translate(40,155.83)">
    <circle cx="0" cy="0" r="4" class="primitive"/>
  </g>
</g>
<g fill="#FFA500" id="img-441ccfe1-83">
  <g transform="translate(40,137.5)">
    <circle cx="0" cy="0" r="4" class="primitive"/>
  </g>
</g>
<g fill="#FFA500" id="img-441ccfe1-84">
  <g transform="translate(40,48.89)">
    <circle cx="0" cy="0" r="4" class="primitive"/>
  </g>
</g>
<g fill="#FF0000" id="img-441ccfe1-85">
  <g transform="translate(420,290.56)">
    <circle cx="0" cy="0" r="4" class="primitive"/>
  </g>
</g>
<g fill="#FF0000" id="img-441ccfe1-86">
  <g transform="translate(120,174.44)">
    <circle cx="0" cy="0" r="4" class="primitive"/>
  </g>
</g>
<g fill="#FF0000" id="img-441ccfe1-87">
  <g transform="translate(120,227.22)">
    <circle cx="0" cy="0" r="4" class="primitive"/>
  </g>
</g>
<g fill="#FF0000" id="img-441ccfe1-88">
  <g transform="translate(120,191.39)">
    <circle cx="0" cy="0" r="4" class="primitive"/>
  </g>
</g>
<g fill="#FF0000" id="img-441ccfe1-89">
  <g transform="translate(120,209.72)">
    <circle cx="0" cy="0" r="4" class="primitive"/>
  </g>
</g>
<g fill="#FF0000" id="img-441ccfe1-90">
  <g transform="translate(220,267.22)">
    <circle cx="0" cy="0" r="4" class="primitive"/>
  </g>
</g>
<g fill="#FF0000" id="img-441ccfe1-91">
  <g transform="translate(220,283.89)">
    <circle cx="0" cy="0" r="4" class="primitive"/>
  </g>
</g>
<g fill="#FF0000" id="img-441ccfe1-92">
  <g transform="translate(320,295.56)">
    <circle cx="0" cy="0" r="4" class="primitive"/>
  </g>
</g>
<g font-family="futura" font-size="3.53" stroke="#000000" id="img-441ccfe1-93">
  <g transform="translate(20,48.89)">
    <g class="primitive">
      <text text-anchor="middle" dy="-0.25em">op467<tspan x="0" dy="1.2em">0,0</tspan></text>
    </g>
  </g>
  <g transform="translate(20,99.58)">
    <g class="primitive">
      <text text-anchor="middle" dy="-0.25em">op466<tspan x="0" dy="1.2em">0,0</tspan></text>
    </g>
  </g>
  <g transform="translate(20,155.83)">
    <g class="primitive">
      <text text-anchor="middle" dy="-0.25em">op465<tspan x="0" dy="1.2em">0,0</tspan></text>
    </g>
  </g>
  <g transform="translate(20,75.83)">
    <g class="primitive">
      <text text-anchor="middle" dy="-0.25em">op464<tspan x="0" dy="1.2em">0,0</tspan></text>
    </g>
  </g>
  <g transform="translate(20,118.75)">
    <g class="primitive">
      <text text-anchor="middle" dy="-0.25em">op463<tspan x="0" dy="1.2em">0,0</tspan></text>
    </g>
  </g>
  <g transform="translate(20,28.33)">
    <g class="primitive">
      <text text-anchor="middle" dy="-0.25em">op462<tspan x="0" dy="1.2em">0,0</tspan></text>
    </g>
  </g>
  <g transform="translate(20,12.78)">
    <g class="primitive">
      <text text-anchor="middle" dy="-0.25em">op461<tspan x="0" dy="1.2em">0,0</tspan></text>
    </g>
  </g>
  <g transform="translate(20,137.5)">
    <g class="primitive">
      <text text-anchor="middle" dy="-0.25em">op460<tspan x="0" dy="1.2em">0,0</tspan></text>
    </g>
  </g>
  <g transform="translate(420,300.56)">
    <g class="primitive">
      <text text-anchor="middle" dy="-0.85em">go<tspan x="0" dy="1.2em">-1,265,-1</tspan><tspan x="0" dy="1.2em">90,90</tspan></text>
    </g>
  </g>
  <g transform="translate(400,295.56)">
    <g class="primitive">
      <text text-anchor="middle" dy="-0.85em">deposit<tspan x="0" dy="1.2em">-1,120,265</tspan><tspan x="0" dy="1.2em">90,90</tspan></text>
    </g>
  </g>
  <g transform="translate(380,295.56)">
    <g class="primitive">
      <text text-anchor="middle" dy="-0.85em">carry<tspan x="0" dy="1.2em">-1,120,265</tspan><tspan x="0" dy="1.2em">78,90</tspan></text>
    </g>
  </g>
  <g transform="translate(360,295.56)">
    <g class="primitive">
      <text text-anchor="middle" dy="-0.85em">collect<tspan x="0" dy="1.2em">-1,120,89</tspan><tspan x="0" dy="1.2em">78,78</tspan></text>
    </g>
  </g>
  <g transform="translate(120,161.67)">
    <g class="primitive">
      <text text-anchor="middle" dy="-0.85em">go<tspan x="0" dy="1.2em">-1,208,-1</tspan><tspan x="0" dy="1.2em">10,10</tspan></text>
    </g>
  </g>
  <g transform="translate(100,48.89)">
    <g class="primitive">
      <text text-anchor="middle" dy="-0.85em">deposit<tspan x="0" dy="1.2em">-1,106,208</tspan><tspan x="0" dy="1.2em">10,10</tspan></text>
    </g>
  </g>
  <g transform="translate(80,48.89)">
    <g class="primitive">
      <text text-anchor="middle" dy="-0.85em">carry<tspan x="0" dy="1.2em">-1,106,208</tspan><tspan x="0" dy="1.2em">0,10</tspan></text>
    </g>
  </g>
  <g transform="translate(60,48.89)">
    <g class="primitive">
      <text text-anchor="middle" dy="-0.85em">collect<tspan x="0" dy="1.2em">-1,106,252</tspan><tspan x="0" dy="1.2em">0,0</tspan></text>
    </g>
  </g>
  <g transform="translate(120,151.67)">
    <g class="primitive">
      <text text-anchor="middle" dy="-0.85em">go<tspan x="0" dy="1.2em">-1,391,-1</tspan><tspan x="0" dy="1.2em">11,11</tspan></text>
    </g>
  </g>
  <g transform="translate(100,155.83)">
    <g class="primitive">
      <text text-anchor="middle" dy="-0.85em">deposit<tspan x="0" dy="1.2em">-1,108,391</tspan><tspan x="0" dy="1.2em">11,11</tspan></text>
    </g>
  </g>
  <g transform="translate(80,155.83)">
    <g class="primitive">
      <text text-anchor="middle" dy="-0.85em">carry<tspan x="0" dy="1.2em">-1,108,391</tspan><tspan x="0" dy="1.2em">0,11</tspan></text>
    </g>
  </g>
  <g transform="translate(60,155.83)">
    <g class="primitive">
      <text text-anchor="middle" dy="-0.85em">collect<tspan x="0" dy="1.2em">-1,108,384</tspan><tspan x="0" dy="1.2em">0,0</tspan></text>
    </g>
  </g>
  <g transform="translate(120,134.17)">
    <g class="primitive">
      <text text-anchor="middle" dy="-0.85em">go<tspan x="0" dy="1.2em">-1,383,-1</tspan><tspan x="0" dy="1.2em">7,7</tspan></text>
    </g>
  </g>
  <g transform="translate(100,137.5)">
    <g class="primitive">
      <text text-anchor="middle" dy="-0.85em">deposit<tspan x="0" dy="1.2em">-1,107,383</tspan><tspan x="0" dy="1.2em">7,7</tspan></text>
    </g>
  </g>
  <g transform="translate(80,137.5)">
    <g class="primitive">
      <text text-anchor="middle" dy="-0.85em">carry<tspan x="0" dy="1.2em">-1,107,383</tspan><tspan x="0" dy="1.2em">0,7</tspan></text>
    </g>
  </g>
  <g transform="translate(60,137.5)">
    <g class="primitive">
      <text text-anchor="middle" dy="-0.85em">collect<tspan x="0" dy="1.2em">-1,107,225</tspan><tspan x="0" dy="1.2em">0,0</tspan></text>
    </g>
  </g>
  <g transform="translate(120,124.17)">
    <g class="primitive">
      <text text-anchor="middle" dy="-0.85em">go<tspan x="0" dy="1.2em">-1,137,-1</tspan><tspan x="0" dy="1.2em">24,24</tspan></text>
    </g>
  </g>
  <g transform="translate(100,75.83)">
    <g class="primitive">
      <text text-anchor="middle" dy="-0.85em">deposit<tspan x="0" dy="1.2em">-1,109,137</tspan><tspan x="0" dy="1.2em">24,24</tspan></text>
    </g>
  </g>
  <g transform="translate(80,75.83)">
    <g class="primitive">
      <text text-anchor="middle" dy="-0.85em">carry<tspan x="0" dy="1.2em">-1,109,137</tspan><tspan x="0" dy="1.2em">0,24</tspan></text>
    </g>
  </g>
  <g transform="translate(60,75.83)">
    <g class="primitive">
      <text text-anchor="middle" dy="-0.85em">collect<tspan x="0" dy="1.2em">-1,109,509</tspan><tspan x="0" dy="1.2em">0,0</tspan></text>
    </g>
  </g>
  <g transform="translate(120,114.17)">
    <g class="primitive">
      <text text-anchor="middle" dy="-0.85em">go<tspan x="0" dy="1.2em">-1,399,-1</tspan><tspan x="0" dy="1.2em">15,15</tspan></text>
    </g>
  </g>
  <g transform="translate(100,118.75)">
    <g class="primitive">
      <text text-anchor="middle" dy="-0.85em">deposit<tspan x="0" dy="1.2em">-1,111,399</tspan><tspan x="0" dy="1.2em">15,15</tspan></text>
    </g>
  </g>
  <g transform="translate(80,118.75)">
    <g class="primitive">
      <text text-anchor="middle" dy="-0.85em">carry<tspan x="0" dy="1.2em">-1,111,399</tspan><tspan x="0" dy="1.2em">0,15</tspan></text>
    </g>
  </g>
  <g transform="translate(60,118.75)">
    <g class="primitive">
      <text text-anchor="middle" dy="-0.85em">collect<tspan x="0" dy="1.2em">-1,111,489</tspan><tspan x="0" dy="1.2em">0,0</tspan></text>
    </g>
  </g>
  <g transform="translate(120,95)">
    <g class="primitive">
      <text text-anchor="middle" dy="-0.85em">go<tspan x="0" dy="1.2em">-1,527,-1</tspan><tspan x="0" dy="1.2em">13,13</tspan></text>
    </g>
  </g>
  <g transform="translate(100,99.58)">
    <g class="primitive">
      <text text-anchor="middle" dy="-0.85em">deposit<tspan x="0" dy="1.2em">-1,110,527</tspan><tspan x="0" dy="1.2em">13,13</tspan></text>
    </g>
  </g>
  <g transform="translate(80,99.58)">
    <g class="primitive">
      <text text-anchor="middle" dy="-0.85em">carry<tspan x="0" dy="1.2em">-1,110,527</tspan><tspan x="0" dy="1.2em">0,13</tspan></text>
    </g>
  </g>
  <g transform="translate(60,99.58)">
    <g class="primitive">
      <text text-anchor="middle" dy="-0.85em">collect<tspan x="0" dy="1.2em">-1,110,229</tspan><tspan x="0" dy="1.2em">0,0</tspan></text>
    </g>
  </g>
  <g transform="translate(220,253.89)">
    <g class="primitive">
      <text text-anchor="middle" dy="-0.85em">go<tspan x="0" dy="1.2em">-1,417,-1</tspan><tspan x="0" dy="1.2em">31,31</tspan></text>
    </g>
  </g>
  <g transform="translate(200,174.44)">
    <g class="primitive">
      <text text-anchor="middle" dy="-0.85em">deposit<tspan x="0" dy="1.2em">-1,114,417</tspan><tspan x="0" dy="1.2em">31,31</tspan></text>
    </g>
  </g>
  <g transform="translate(180,174.44)">
    <g class="primitive">
      <text text-anchor="middle" dy="-0.85em">carry<tspan x="0" dy="1.2em">-1,114,417</tspan><tspan x="0" dy="1.2em">10,31</tspan></text>
    </g>
  </g>
  <g transform="translate(160,174.44)">
    <g class="primitive">
      <text text-anchor="middle" dy="-0.85em">collect<tspan x="0" dy="1.2em">-1,114,203</tspan><tspan x="0" dy="1.2em">10,10</tspan></text>
    </g>
  </g>
  <g transform="translate(120,25.56)">
    <g class="primitive">
      <text text-anchor="middle" dy="-0.85em">go<tspan x="0" dy="1.2em">-1,476,-1</tspan><tspan x="0" dy="1.2em">11,11</tspan></text>
    </g>
  </g>
  <g transform="translate(100,28.33)">
    <g class="primitive">
      <text text-anchor="middle" dy="-0.85em">deposit<tspan x="0" dy="1.2em">-1,113,476</tspan><tspan x="0" dy="1.2em">11,11</tspan></text>
    </g>
  </g>
  <g transform="translate(80,28.33)">
    <g class="primitive">
      <text text-anchor="middle" dy="-0.85em">carry<tspan x="0" dy="1.2em">-1,113,476</tspan><tspan x="0" dy="1.2em">0,11</tspan></text>
    </g>
  </g>
  <g transform="translate(60,28.33)">
    <g class="primitive">
      <text text-anchor="middle" dy="-0.85em">collect<tspan x="0" dy="1.2em">-1,113,258</tspan><tspan x="0" dy="1.2em">0,0</tspan></text>
    </g>
  </g>
  <g transform="translate(120,10)">
    <g class="primitive">
      <text text-anchor="middle" dy="-0.85em">go<tspan x="0" dy="1.2em">-1,494,-1</tspan><tspan x="0" dy="1.2em">20,20</tspan></text>
    </g>
  </g>
  <g transform="translate(100,12.78)">
    <g class="primitive">
      <text text-anchor="middle" dy="-0.85em">deposit<tspan x="0" dy="1.2em">-1,112,494</tspan><tspan x="0" dy="1.2em">20,20</tspan></text>
    </g>
  </g>
  <g transform="translate(80,12.78)">
    <g class="primitive">
      <text text-anchor="middle" dy="-0.85em">carry<tspan x="0" dy="1.2em">-1,112,494</tspan><tspan x="0" dy="1.2em">0,20</tspan></text>
    </g>
  </g>
  <g transform="translate(60,12.78)">
    <g class="primitive">
      <text text-anchor="middle" dy="-0.85em">collect<tspan x="0" dy="1.2em">-1,112,501</tspan><tspan x="0" dy="1.2em">0,0</tspan></text>
    </g>
  </g>
  <g transform="translate(220,243.89)">
    <g class="primitive">
      <text text-anchor="middle" dy="-0.85em">go<tspan x="0" dy="1.2em">-1,336,-1</tspan><tspan x="0" dy="1.2em">31,31</tspan></text>
    </g>
  </g>
  <g transform="translate(200,209.72)">
    <g class="primitive">
      <text text-anchor="middle" dy="-0.85em">deposit<tspan x="0" dy="1.2em">-1,116,336</tspan><tspan x="0" dy="1.2em">31,31</tspan></text>
    </g>
  </g>
  <g transform="translate(180,209.72)">
    <g class="primitive">
      <text text-anchor="middle" dy="-0.85em">carry<tspan x="0" dy="1.2em">-1,116,336</tspan><tspan x="0" dy="1.2em">15,31</tspan></text>
    </g>
  </g>
  <g transform="translate(160,209.72)">
    <g class="primitive">
      <text text-anchor="middle" dy="-0.85em">collect<tspan x="0" dy="1.2em">-1,116,388</tspan><tspan x="0" dy="1.2em">15,15</tspan></text>
    </g>
  </g>
  <g transform="translate(220,233.89)">
    <g class="primitive">
      <text text-anchor="middle" dy="-0.85em">go<tspan x="0" dy="1.2em">-1,354,-1</tspan><tspan x="0" dy="1.2em">48,48</tspan></text>
    </g>
  </g>
  <g transform="translate(200,191.39)">
    <g class="primitive">
      <text text-anchor="middle" dy="-0.85em">deposit<tspan x="0" dy="1.2em">-1,115,354</tspan><tspan x="0" dy="1.2em">48,48</tspan></text>
    </g>
  </g>
  <g transform="translate(180,191.39)">
    <g class="primitive">
      <text text-anchor="middle" dy="-0.85em">carry<tspan x="0" dy="1.2em">-1,115,354</tspan><tspan x="0" dy="1.2em">24,48</tspan></text>
    </g>
  </g>
  <g transform="translate(160,191.39)">
    <g class="primitive">
      <text text-anchor="middle" dy="-0.85em">collect<tspan x="0" dy="1.2em">-1,115,85</tspan><tspan x="0" dy="1.2em">24,24</tspan></text>
    </g>
  </g>
  <g transform="translate(220,223.89)">
    <g class="primitive">
      <text text-anchor="middle" dy="-0.85em">go<tspan x="0" dy="1.2em">-1,68,-1</tspan><tspan x="0" dy="1.2em">21,21</tspan></text>
    </g>
  </g>
  <g transform="translate(200,227.22)">
    <g class="primitive">
      <text text-anchor="middle" dy="-0.85em">deposit<tspan x="0" dy="1.2em">-1,119,68</tspan><tspan x="0" dy="1.2em">21,21</tspan></text>
    </g>
  </g>
  <g transform="translate(180,227.22)">
    <g class="primitive">
      <text text-anchor="middle" dy="-0.85em">carry<tspan x="0" dy="1.2em">-1,119,68</tspan><tspan x="0" dy="1.2em">11,21</tspan></text>
    </g>
  </g>
  <g transform="translate(160,227.22)">
    <g class="primitive">
      <text text-anchor="middle" dy="-0.85em">collect<tspan x="0" dy="1.2em">-1,119,112</tspan><tspan x="0" dy="1.2em">11,11</tspan></text>
    </g>
  </g>
  <g transform="translate(320,280.56)">
    <g class="primitive">
      <text text-anchor="middle" dy="-0.85em">go<tspan x="0" dy="1.2em">-1,74,-1</tspan><tspan x="0" dy="1.2em">78,78</tspan></text>
    </g>
  </g>
  <g transform="translate(300,283.89)">
    <g class="primitive">
      <text text-anchor="middle" dy="-0.85em">deposit<tspan x="0" dy="1.2em">-1,118,74</tspan><tspan x="0" dy="1.2em">78,78</tspan></text>
    </g>
  </g>
  <g transform="translate(280,283.89)">
    <g class="primitive">
      <text text-anchor="middle" dy="-0.85em">carry<tspan x="0" dy="1.2em">-1,118,74</tspan><tspan x="0" dy="1.2em">48,78</tspan></text>
    </g>
  </g>
  <g transform="translate(260,283.89)">
    <g class="primitive">
      <text text-anchor="middle" dy="-0.85em">collect<tspan x="0" dy="1.2em">-1,118,524</tspan><tspan x="0" dy="1.2em">48,48</tspan></text>
    </g>
  </g>
  <g transform="translate(320,263.89)">
    <g class="primitive">
      <text text-anchor="middle" dy="-0.85em">go<tspan x="0" dy="1.2em">-1,551,-1</tspan><tspan x="0" dy="1.2em">42,42</tspan></text>
    </g>
  </g>
  <g transform="translate(300,267.22)">
    <g class="primitive">
      <text text-anchor="middle" dy="-0.85em">deposit<tspan x="0" dy="1.2em">-1,117,551</tspan><tspan x="0" dy="1.2em">42,42</tspan></text>
    </g>
  </g>
  <g transform="translate(280,267.22)">
    <g class="primitive">
      <text text-anchor="middle" dy="-0.85em">carry<tspan x="0" dy="1.2em">-1,117,551</tspan><tspan x="0" dy="1.2em">31,42</tspan></text>
    </g>
  </g>
  <g transform="translate(260,267.22)">
    <g class="primitive">
      <text text-anchor="middle" dy="-0.85em">collect<tspan x="0" dy="1.2em">-1,117,416</tspan><tspan x="0" dy="1.2em">31,31</tspan></text>
    </g>
  </g>
  <g transform="translate(340,295.56)">
    <g class="primitive">
      <text text-anchor="middle" dy="-0.25em">O120-89<tspan x="0" dy="1.2em">78,78</tspan></text>
    </g>
  </g>
  <g transform="translate(140,227.22)">
    <g class="primitive">
      <text text-anchor="middle" dy="-0.25em">O119-112<tspan x="0" dy="1.2em">11,11</tspan></text>
    </g>
  </g>
  <g transform="translate(240,283.89)">
    <g class="primitive">
      <text text-anchor="middle" dy="-0.25em">O118-524<tspan x="0" dy="1.2em">48,48</tspan></text>
    </g>
  </g>
  <g transform="translate(240,267.22)">
    <g class="primitive">
      <text text-anchor="middle" dy="-0.25em">O117-416<tspan x="0" dy="1.2em">31,31</tspan></text>
    </g>
  </g>
  <g transform="translate(140,209.72)">
    <g class="primitive">
      <text text-anchor="middle" dy="-0.25em">O116-388<tspan x="0" dy="1.2em">15,15</tspan></text>
    </g>
  </g>
  <g transform="translate(140,191.39)">
    <g class="primitive">
      <text text-anchor="middle" dy="-0.25em">O115-85<tspan x="0" dy="1.2em">24,24</tspan></text>
    </g>
  </g>
  <g transform="translate(140,174.44)">
    <g class="primitive">
      <text text-anchor="middle" dy="-0.25em">O114-203<tspan x="0" dy="1.2em">10,10</tspan></text>
    </g>
  </g>
  <g transform="translate(40,28.33)">
    <g class="primitive">
      <text text-anchor="middle" dy="-0.25em">O113-258<tspan x="0" dy="1.2em">0,0</tspan></text>
    </g>
  </g>
  <g transform="translate(40,12.78)">
    <g class="primitive">
      <text text-anchor="middle" dy="-0.25em">O112-501<tspan x="0" dy="1.2em">0,0</tspan></text>
    </g>
  </g>
  <g transform="translate(40,118.75)">
    <g class="primitive">
      <text text-anchor="middle" dy="-0.25em">O111-489<tspan x="0" dy="1.2em">0,0</tspan></text>
    </g>
  </g>
  <g transform="translate(40,99.58)">
    <g class="primitive">
      <text text-anchor="middle" dy="-0.25em">O110-229<tspan x="0" dy="1.2em">0,0</tspan></text>
    </g>
  </g>
  <g transform="translate(40,75.83)">
    <g class="primitive">
      <text text-anchor="middle" dy="-0.25em">O109-509<tspan x="0" dy="1.2em">0,0</tspan></text>
    </g>
  </g>
  <g transform="translate(40,155.83)">
    <g class="primitive">
      <text text-anchor="middle" dy="-0.25em">O108-384<tspan x="0" dy="1.2em">0,0</tspan></text>
    </g>
  </g>
  <g transform="translate(40,137.5)">
    <g class="primitive">
      <text text-anchor="middle" dy="-0.25em">O107-225<tspan x="0" dy="1.2em">0,0</tspan></text>
    </g>
  </g>
  <g transform="translate(40,48.89)">
    <g class="primitive">
      <text text-anchor="middle" dy="-0.25em">O106-252<tspan x="0" dy="1.2em">0,0</tspan></text>
    </g>
  </g>
  <g transform="translate(420,290.56)">
    <g class="primitive">
      <text text-anchor="middle" dy="-0.25em">op459<tspan x="0" dy="1.2em">90,90</tspan></text>
    </g>
  </g>
  <g transform="translate(120,174.44)">
    <g class="primitive">
      <text text-anchor="middle" dy="-0.25em">op458<tspan x="0" dy="1.2em">10,10</tspan></text>
    </g>
  </g>
  <g transform="translate(120,227.22)">
    <g class="primitive">
      <text text-anchor="middle" dy="-0.25em">op457<tspan x="0" dy="1.2em">11,11</tspan></text>
    </g>
  </g>
  <g transform="translate(120,191.39)">
    <g class="primitive">
      <text text-anchor="middle" dy="-0.25em">op456<tspan x="0" dy="1.2em">24,24</tspan></text>
    </g>
  </g>
  <g transform="translate(120,209.72)">
    <g class="primitive">
      <text text-anchor="middle" dy="-0.25em">op455<tspan x="0" dy="1.2em">15,15</tspan></text>
    </g>
  </g>
  <g transform="translate(220,267.22)">
    <g class="primitive">
      <text text-anchor="middle" dy="-0.25em">op454<tspan x="0" dy="1.2em">31,31</tspan></text>
    </g>
  </g>
  <g transform="translate(220,283.89)">
    <g class="primitive">
      <text text-anchor="middle" dy="-0.25em">op453<tspan x="0" dy="1.2em">48,48</tspan></text>
    </g>
  </g>
  <g transform="translate(320,295.56)">
    <g class="primitive">
      <text text-anchor="middle" dy="-0.25em">op452<tspan x="0" dy="1.2em">78,78</tspan></text>
    </g>
  </g>
</g>
</svg>
