<?xml version="1.0" encoding="UTF-8"?>
<svg xmlns="http://www.w3.org/2000/svg"
     xmlns:xlink="http://www.w3.org/1999/xlink"
     xmlns:gadfly="http://www.gadflyjl.org/ns"
     version="1.2"
     width="520mm" height="300mm" viewBox="0 0 520 300"
     stroke="none"
     fill="#000000"
     stroke-width="0.3"
     font-size="3.88"
>
<defs>
  <marker id="arrow" markerWidth="15" markerHeight="7" refX="5" refY="3.5" orient="auto" markerUnits="strokeWidth">
    <path d="M0,0 L15,3.5 L0,7 z" stroke="context-stroke" fill="context-stroke"/>
  </marker>
</defs>
<g stroke="#000000" id="img-39ac8155-1">
  <g transform="translate(20,255)">
    <path fill="none" d="M-5.6,0 L 5.6 0" class="primitive"/>
  </g>
  <g transform="translate(20,295)">
    <path fill="none" d="M-5.6,0 L 5.6 0" class="primitive"/>
  </g>
  <g transform="translate(20,275)">
    <path fill="none" d="M-5.6,0 L 5.6 0" class="primitive"/>
  </g>
  <g transform="translate(20,265)">
    <path fill="none" d="M-5.6,0 L 5.6 0" class="primitive"/>
  </g>
  <g transform="translate(20,285)">
    <path fill="none" d="M-5.6,0 L 5.6 0" class="primitive"/>
  </g>
  <g transform="translate(500,272.5)">
    <path fill="none" d="M-5.6,0 L 5.6 0" class="primitive"/>
  </g>
  <g transform="translate(500,147.5)">
    <path fill="none" d="M-9.82,122.8 L 9.82 -122.8" class="primitive"/>
  </g>
  <g transform="translate(480,272.5)">
    <path fill="none" d="M-5.6,0 L 5.6 0" class="primitive"/>
  </g>
  <g transform="translate(460,272.5)">
    <path fill="none" d="M-5.6,0 L 5.6 0" class="primitive"/>
  </g>
  <g transform="translate(100,255)">
    <path fill="none" d="M-8.03,8.03 L 8.03 -8.03" class="primitive"/>
  </g>
  <g transform="translate(100,262.5)">
    <path fill="none" d="M-6.06,1.52 L 6.06 -1.52" class="primitive"/>
  </g>
  <g transform="translate(80,265)">
    <path fill="none" d="M-5.6,0 L 5.6 0" class="primitive"/>
  </g>
  <g transform="translate(60,265)">
    <path fill="none" d="M-5.6,0 L 5.6 0" class="primitive"/>
  </g>
  <g transform="translate(100,245)">
    <path fill="none" d="M-8.03,8.03 L 8.03 -8.03" class="primitive"/>
  </g>
  <g transform="translate(100,257.5)">
    <path fill="none" d="M-6.06,-1.52 L 6.06 1.52" class="primitive"/>
  </g>
  <g transform="translate(80,255)">
    <path fill="none" d="M-5.6,0 L 5.6 0" class="primitive"/>
  </g>
  <g transform="translate(60,255)">
    <path fill="none" d="M-5.6,0 L 5.6 0" class="primitive"/>
  </g>
  <g transform="translate(100,260)">
    <path fill="none" d="M-9.38,32.82 L 9.38 -32.82" class="primitive"/>
  </g>
  <g transform="translate(100,290)">
    <path fill="none" d="M-6.89,3.44 L 6.89 -3.44" class="primitive"/>
  </g>
  <g transform="translate(80,295)">
    <path fill="none" d="M-5.6,0 L 5.6 0" class="primitive"/>
  </g>
  <g transform="translate(60,295)">
    <path fill="none" d="M-5.6,0 L 5.6 0" class="primitive"/>
  </g>
  <g transform="translate(100,250)">
    <path fill="none" d="M-9.38,32.82 L 9.38 -32.82" class="primitive"/>
  </g>
  <g transform="translate(100,285)">
    <path fill="none" d="M-5.6,0 L 5.6 -0" class="primitive"/>
  </g>
  <g transform="translate(80,285)">
    <path fill="none" d="M-5.6,0 L 5.6 0" class="primitive"/>
  </g>
  <g transform="translate(60,285)">
    <path fill="none" d="M-5.6,0 L 5.6 0" class="primitive"/>
  </g>
  <g transform="translate(100,240)">
    <path fill="none" d="M-9.38,32.82 L 9.38 -32.82" class="primitive"/>
  </g>
  <g transform="translate(100,280)">
    <path fill="none" d="M-6.89,-3.44 L 6.89 3.44" class="primitive"/>
  </g>
  <g transform="translate(80,275)">
    <path fill="none" d="M-5.6,0 L 5.6 0" class="primitive"/>
  </g>
  <g transform="translate(60,275)">
    <path fill="none" d="M-5.6,0 L 5.6 0" class="primitive"/>
  </g>
  <g transform="translate(200,235)">
    <path fill="none" d="M-9.56,47.81 L 9.56 -47.81" class="primitive"/>
  </g>
  <g transform="translate(200,278.75)">
    <path fill="none" d="M-7.25,4.53 L 7.25 -4.53" class="primitive"/>
  </g>
  <g transform="translate(180,285)">
    <path fill="none" d="M-5.6,0 L 5.6 0" class="primitive"/>
  </g>
  <g transform="translate(160,285)">
    <path fill="none" d="M-5.6,0 L 5.6 0" class="primitive"/>
  </g>
  <g transform="translate(200,210)">
    <path fill="none" d="M-9.56,47.81 L 9.56 -47.81" class="primitive"/>
  </g>
  <g transform="translate(200,266.25)">
    <path fill="none" d="M-7.25,-4.53 L 7.25 4.53" class="primitive"/>
  </g>
  <g transform="translate(180,260)">
    <path fill="none" d="M-5.6,0 L 5.6 0" class="primitive"/>
  </g>
  <g transform="translate(160,260)">
    <path fill="none" d="M-5.6,0 L 5.6 0" class="primitive"/>
  </g>
  <g transform="translate(300,197.5)">
    <path fill="none" d="M-9.71,72.8 L 9.71 -72.8" class="primitive"/>
  </g>
  <g transform="translate(300,272.5)">
    <path fill="none" d="M-5.6,0 L 5.6 0" class="primitive"/>
  </g>
  <g transform="translate(280,272.5)">
    <path fill="none" d="M-5.6,0 L 5.6 0" class="primitive"/>
  </g>
  <g transform="translate(260,272.5)">
    <path fill="none" d="M-5.6,0 L 5.6 0" class="primitive"/>
  </g>
  <g transform="translate(400,172.5)">
    <path fill="none" d="M-9.78,97.8 L 9.78 -97.8" class="primitive"/>
  </g>
  <g transform="translate(400,272.5)">
    <path fill="none" d="M-5.6,0 L 5.6 0" class="primitive"/>
  </g>
  <g transform="translate(380,272.5)">
    <path fill="none" d="M-5.6,0 L 5.6 0" class="primitive"/>
  </g>
  <g transform="translate(360,272.5)">
    <path fill="none" d="M-5.6,0 L 5.6 0" class="primitive"/>
  </g>
  <g transform="translate(440,272.5)">
    <path fill="none" d="M-5.6,0 L 5.6 0" class="primitive"/>
  </g>
  <g transform="translate(340,272.5)">
    <path fill="none" d="M-5.6,0 L 5.6 0" class="primitive"/>
  </g>
  <g transform="translate(240,272.5)">
    <path fill="none" d="M-5.6,0 L 5.6 0" class="primitive"/>
  </g>
  <g transform="translate(140,285)">
    <path fill="none" d="M-5.6,0 L 5.6 0" class="primitive"/>
  </g>
  <g transform="translate(140,260)">
    <path fill="none" d="M-5.6,0 L 5.6 0" class="primitive"/>
  </g>
  <g transform="translate(40,295)">
    <path fill="none" d="M-5.6,0 L 5.6 0" class="primitive"/>
  </g>
  <g transform="translate(40,285)">
    <path fill="none" d="M-5.6,0 L 5.6 0" class="primitive"/>
  </g>
  <g transform="translate(40,275)">
    <path fill="none" d="M-5.6,0 L 5.6 0" class="primitive"/>
  </g>
  <g transform="translate(40,265)">
    <path fill="none" d="M-5.6,0 L 5.6 0" class="primitive"/>
  </g>
  <g transform="translate(40,255)">
    <path fill="none" d="M-5.6,0 L 5.6 0" class="primitive"/>
  </g>
  <g transform="translate(120,260)">
    <path fill="none" d="M-5.6,0 L 5.6 0" class="primitive"/>
  </g>
  <g transform="translate(120,285)">
    <path fill="none" d="M-5.6,0 L 5.6 0" class="primitive"/>
  </g>
  <g transform="translate(220,272.5)">
    <path fill="none" d="M-5.6,0 L 5.6 0" class="primitive"/>
  </g>
  <g transform="translate(320,272.5)">
    <path fill="none" d="M-5.6,0 L 5.6 0" class="primitive"/>
  </g>
  <g transform="translate(420,272.5)">
    <path fill="none" d="M-5.6,0 L 5.6 0" class="primitive"/>
  </g>
</g>
<g fill="#FF0000" id="img-39ac8155-2">
  <g transform="translate(10,255)">
    <circle cx="0" cy="0" r="4" class="primitive"/>
  </g>
</g>
<g fill="#FF0000" id="img-39ac8155-3">
  <g transform="translate(10,295)">
    <circle cx="0" cy="0" r="4" class="primitive"/>
  </g>
</g>
<g fill="#FF0000" id="img-39ac8155-4">
  <g transform="translate(10,275)">
    <circle cx="0" cy="0" r="4" class="primitive"/>
  </g>
</g>
<g fill="#FF0000" id="img-39ac8155-5">
  <g transform="translate(10,265)">
    <circle cx="0" cy="0" r="4" class="primitive"/>
  </g>
</g>
<g fill="#FF0000" id="img-39ac8155-6">
  <g transform="translate(10,285)">
    <circle cx="0" cy="0" r="4" class="primitive"/>
  </g>
</g>
<g fill="#00FFFF" id="img-39ac8155-7">
  <g transform="translate(510,272.5)">
    <circle cx="0" cy="0" r="4" class="primitive"/>
  </g>
</g>
<g fill="#00FFFF" id="img-39ac8155-8">
  <g transform="translate(490,272.5)">
    <circle cx="0" cy="0" r="4" class="primitive"/>
  </g>
</g>
<g fill="#00FFFF" id="img-39ac8155-9">
  <g transform="translate(470,272.5)">
    <circle cx="0" cy="0" r="4" class="primitive"/>
  </g>
</g>
<g fill="#00FFFF" id="img-39ac8155-10">
  <g transform="translate(450,272.5)">
    <circle cx="0" cy="0" r="4" class="primitive"/>
  </g>
</g>
<g fill="#00FFFF" id="img-39ac8155-11">
  <g transform="translate(110,245)">
    <circle cx="0" cy="0" r="4" class="primitive"/>
  </g>
</g>
<g fill="#00FFFF" id="img-39ac8155-12">
  <g transform="translate(90,265)">
    <circle cx="0" cy="0" r="4" class="primitive"/>
  </g>
</g>
<g fill="#00FFFF" id="img-39ac8155-13">
  <g transform="translate(70,265)">
    <circle cx="0" cy="0" r="4" class="primitive"/>
  </g>
</g>
<g fill="#00FFFF" id="img-39ac8155-14">
  <g transform="translate(50,265)">
    <circle cx="0" cy="0" r="4" class="primitive"/>
  </g>
</g>
<g fill="#00FFFF" id="img-39ac8155-15">
  <g transform="translate(110,235)">
    <circle cx="0" cy="0" r="4" class="primitive"/>
  </g>
</g>
<g fill="#00FFFF" id="img-39ac8155-16">
  <g transform="translate(90,255)">
    <circle cx="0" cy="0" r="4" class="primitive"/>
  </g>
</g>
<g fill="#00FFFF" id="img-39ac8155-17">
  <g transform="translate(70,255)">
    <circle cx="0" cy="0" r="4" class="primitive"/>
  </g>
</g>
<g fill="#00FFFF" id="img-39ac8155-18">
  <g transform="translate(50,255)">
    <circle cx="0" cy="0" r="4" class="primitive"/>
  </g>
</g>
<g fill="#00FFFF" id="img-39ac8155-19">
  <g transform="translate(110,225)">
    <circle cx="0" cy="0" r="4" class="primitive"/>
  </g>
</g>
<g fill="#00FFFF" id="img-39ac8155-20">
  <g transform="translate(90,295)">
    <circle cx="0" cy="0" r="4" class="primitive"/>
  </g>
</g>
<g fill="#00FFFF" id="img-39ac8155-21">
  <g transform="translate(70,295)">
    <circle cx="0" cy="0" r="4" class="primitive"/>
  </g>
</g>
<g fill="#00FFFF" id="img-39ac8155-22">
  <g transform="translate(50,295)">
    <circle cx="0" cy="0" r="4" class="primitive"/>
  </g>
</g>
<g fill="#00FFFF" id="img-39ac8155-23">
  <g transform="translate(110,215)">
    <circle cx="0" cy="0" r="4" class="primitive"/>
  </g>
</g>
<g fill="#00FFFF" id="img-39ac8155-24">
  <g transform="translate(90,285)">
    <circle cx="0" cy="0" r="4" class="primitive"/>
  </g>
</g>
<g fill="#00FFFF" id="img-39ac8155-25">
  <g transform="translate(70,285)">
    <circle cx="0" cy="0" r="4" class="primitive"/>
  </g>
</g>
<g fill="#00FFFF" id="img-39ac8155-26">
  <g transform="translate(50,285)">
    <circle cx="0" cy="0" r="4" class="primitive"/>
  </g>
</g>
<g fill="#00FFFF" id="img-39ac8155-27">
  <g transform="translate(110,205)">
    <circle cx="0" cy="0" r="4" class="primitive"/>
  </g>
</g>
<g fill="#00FFFF" id="img-39ac8155-28">
  <g transform="translate(90,275)">
    <circle cx="0" cy="0" r="4" class="primitive"/>
  </g>
</g>
<g fill="#00FFFF" id="img-39ac8155-29">
  <g transform="translate(70,275)">
    <circle cx="0" cy="0" r="4" class="primitive"/>
  </g>
</g>
<g fill="#00FFFF" id="img-39ac8155-30">
  <g transform="translate(50,275)">
    <circle cx="0" cy="0" r="4" class="primitive"/>
  </g>
</g>
<g fill="#00FFFF" id="img-39ac8155-31">
  <g transform="translate(210,185)">
    <circle cx="0" cy="0" r="4" class="primitive"/>
  </g>
</g>
<g fill="#00FFFF" id="img-39ac8155-32">
  <g transform="translate(190,285)">
    <circle cx="0" cy="0" r="4" class="primitive"/>
  </g>
</g>
<g fill="#00FFFF" id="img-39ac8155-33">
  <g transform="translate(170,285)">
    <circle cx="0" cy="0" r="4" class="primitive"/>
  </g>
</g>
<g fill="#00FFFF" id="img-39ac8155-34">
  <g transform="translate(150,285)">
    <circle cx="0" cy="0" r="4" class="primitive"/>
  </g>
</g>
<g fill="#00FFFF" id="img-39ac8155-35">
  <g transform="translate(210,160)">
    <circle cx="0" cy="0" r="4" class="primitive"/>
  </g>
</g>
<g fill="#00FFFF" id="img-39ac8155-36">
  <g transform="translate(190,260)">
    <circle cx="0" cy="0" r="4" class="primitive"/>
  </g>
</g>
<g fill="#00FFFF" id="img-39ac8155-37">
  <g transform="translate(170,260)">
    <circle cx="0" cy="0" r="4" class="primitive"/>
  </g>
</g>
<g fill="#00FFFF" id="img-39ac8155-38">
  <g transform="translate(150,260)">
    <circle cx="0" cy="0" r="4" class="primitive"/>
  </g>
</g>
<g fill="#00FFFF" id="img-39ac8155-39">
  <g transform="translate(310,122.5)">
    <circle cx="0" cy="0" r="4" class="primitive"/>
  </g>
</g>
<g fill="#00FFFF" id="img-39ac8155-40">
  <g transform="translate(290,272.5)">
    <circle cx="0" cy="0" r="4" class="primitive"/>
  </g>
</g>
<g fill="#00FFFF" id="img-39ac8155-41">
  <g transform="translate(270,272.5)">
    <circle cx="0" cy="0" r="4" class="primitive"/>
  </g>
</g>
<g fill="#00FFFF" id="img-39ac8155-42">
  <g transform="translate(250,272.5)">
    <circle cx="0" cy="0" r="4" class="primitive"/>
  </g>
</g>
<g fill="#00FFFF" id="img-39ac8155-43">
  <g transform="translate(410,72.5)">
    <circle cx="0" cy="0" r="4" class="primitive"/>
  </g>
</g>
<g fill="#00FFFF" id="img-39ac8155-44">
  <g transform="translate(390,272.5)">
    <circle cx="0" cy="0" r="4" class="primitive"/>
  </g>
</g>
<g fill="#00FFFF" id="img-39ac8155-45">
  <g transform="translate(370,272.5)">
    <circle cx="0" cy="0" r="4" class="primitive"/>
  </g>
</g>
<g fill="#00FFFF" id="img-39ac8155-46">
  <g transform="translate(350,272.5)">
    <circle cx="0" cy="0" r="4" class="primitive"/>
  </g>
</g>
<g fill="#FFA500" id="img-39ac8155-47">
  <g transform="translate(430,272.5)">
    <circle cx="0" cy="0" r="4" class="primitive"/>
  </g>
</g>
<g fill="#FFA500" id="img-39ac8155-48">
  <g transform="translate(330,272.5)">
    <circle cx="0" cy="0" r="4" class="primitive"/>
  </g>
</g>
<g fill="#FFA500" id="img-39ac8155-49">
  <g transform="translate(230,272.5)">
    <circle cx="0" cy="0" r="4" class="primitive"/>
  </g>
</g>
<g fill="#FFA500" id="img-39ac8155-50">
  <g transform="translate(130,285)">
    <circle cx="0" cy="0" r="4" class="primitive"/>
  </g>
</g>
<g fill="#FFA500" id="img-39ac8155-51">
  <g transform="translate(130,260)">
    <circle cx="0" cy="0" r="4" class="primitive"/>
  </g>
</g>
<g fill="#FFA500" id="img-39ac8155-52">
  <g transform="translate(30,295)">
    <circle cx="0" cy="0" r="4" class="primitive"/>
  </g>
</g>
<g fill="#FFA500" id="img-39ac8155-53">
  <g transform="translate(30,285)">
    <circle cx="0" cy="0" r="4" class="primitive"/>
  </g>
</g>
<g fill="#FFA500" id="img-39ac8155-54">
  <g transform="translate(30,275)">
    <circle cx="0" cy="0" r="4" class="primitive"/>
  </g>
</g>
<g fill="#FFA500" id="img-39ac8155-55">
  <g transform="translate(30,265)">
    <circle cx="0" cy="0" r="4" class="primitive"/>
  </g>
</g>
<g fill="#FFA500" id="img-39ac8155-56">
  <g transform="translate(30,255)">
    <circle cx="0" cy="0" r="4" class="primitive"/>
  </g>
</g>
<g fill="#FF0000" id="img-39ac8155-57">
  <g transform="translate(510,22.5)">
    <circle cx="0" cy="0" r="4" class="primitive"/>
  </g>
</g>
<g fill="#FF0000" id="img-39ac8155-58">
  <g transform="translate(110,260)">
    <circle cx="0" cy="0" r="4" class="primitive"/>
  </g>
</g>
<g fill="#FF0000" id="img-39ac8155-59">
  <g transform="translate(110,285)">
    <circle cx="0" cy="0" r="4" class="primitive"/>
  </g>
</g>
<g fill="#FF0000" id="img-39ac8155-60">
  <g transform="translate(210,272.5)">
    <circle cx="0" cy="0" r="4" class="primitive"/>
  </g>
</g>
<g fill="#FF0000" id="img-39ac8155-61">
  <g transform="translate(310,272.5)">
    <circle cx="0" cy="0" r="4" class="primitive"/>
  </g>
</g>
<g fill="#FF0000" id="img-39ac8155-62">
  <g transform="translate(410,272.5)">
    <circle cx="0" cy="0" r="4" class="primitive"/>
  </g>
</g>
<g font-family="futura" font-size="3.53" stroke="#000000" id="img-39ac8155-63">
  <g transform="translate(10,255)">
    <g class="primitive">
      <text text-anchor="middle" dy="-0.25em">op571<tspan x="0" dy="1.2em">0,0</tspan></text>
    </g>
  </g>
  <g transform="translate(10,295)">
    <g class="primitive">
      <text text-anchor="middle" dy="-0.25em">op570<tspan x="0" dy="1.2em">0,0</tspan></text>
    </g>
  </g>
  <g transform="translate(10,275)">
    <g class="primitive">
      <text text-anchor="middle" dy="-0.25em">op569<tspan x="0" dy="1.2em">0,0</tspan></text>
    </g>
  </g>
  <g transform="translate(10,265)">
    <g class="primitive">
      <text text-anchor="middle" dy="-0.25em">op568<tspan x="0" dy="1.2em">0,0</tspan></text>
    </g>
  </g>
  <g transform="translate(10,285)">
    <g class="primitive">
      <text text-anchor="middle" dy="-0.25em">op567<tspan x="0" dy="1.2em">0,0</tspan></text>
    </g>
  </g>
  <g transform="translate(510,272.5)">
    <g class="primitive">
      <text text-anchor="middle" dy="-0.85em">go<tspan x="0" dy="1.2em">-1,234,-1</tspan><tspan x="0" dy="1.2em">78,78</tspan></text>
    </g>
  </g>
  <g transform="translate(490,272.5)">
    <g class="primitive">
      <text text-anchor="middle" dy="-0.85em">deposit<tspan x="0" dy="1.2em">-1,10,234</tspan><tspan x="0" dy="1.2em">78,78</tspan></text>
    </g>
  </g>
  <g transform="translate(470,272.5)">
    <g class="primitive">
      <text text-anchor="middle" dy="-0.85em">carry<tspan x="0" dy="1.2em">-1,10,234</tspan><tspan x="0" dy="1.2em">67,78</tspan></text>
    </g>
  </g>
  <g transform="translate(450,272.5)">
    <g class="primitive">
      <text text-anchor="middle" dy="-0.85em">collect<tspan x="0" dy="1.2em">-1,10,108</tspan><tspan x="0" dy="1.2em">67,67</tspan></text>
    </g>
  </g>
  <g transform="translate(110,245)">
    <g class="primitive">
      <text text-anchor="middle" dy="-0.85em">go<tspan x="0" dy="1.2em">-1,342,-1</tspan><tspan x="0" dy="1.2em">6,6</tspan></text>
    </g>
  </g>
  <g transform="translate(90,265)">
    <g class="primitive">
      <text text-anchor="middle" dy="-0.85em">deposit<tspan x="0" dy="1.2em">-1,2,342</tspan><tspan x="0" dy="1.2em">6,6</tspan></text>
    </g>
  </g>
  <g transform="translate(70,265)">
    <g class="primitive">
      <text text-anchor="middle" dy="-0.85em">carry<tspan x="0" dy="1.2em">-1,2,342</tspan><tspan x="0" dy="1.2em">0,6</tspan></text>
    </g>
  </g>
  <g transform="translate(50,265)">
    <g class="primitive">
      <text text-anchor="middle" dy="-0.85em">collect<tspan x="0" dy="1.2em">-1,2,225</tspan><tspan x="0" dy="1.2em">0,0</tspan></text>
    </g>
  </g>
  <g transform="translate(110,235)">
    <g class="primitive">
      <text text-anchor="middle" dy="-0.85em">go<tspan x="0" dy="1.2em">-1,545,-1</tspan><tspan x="0" dy="1.2em">9,9</tspan></text>
    </g>
  </g>
  <g transform="translate(90,255)">
    <g class="primitive">
      <text text-anchor="middle" dy="-0.85em">deposit<tspan x="0" dy="1.2em">-1,1,545</tspan><tspan x="0" dy="1.2em">9,9</tspan></text>
    </g>
  </g>
  <g transform="translate(70,255)">
    <g class="primitive">
      <text text-anchor="middle" dy="-0.85em">carry<tspan x="0" dy="1.2em">-1,1,545</tspan><tspan x="0" dy="1.2em">0,9</tspan></text>
    </g>
  </g>
  <g transform="translate(50,255)">
    <g class="primitive">
      <text text-anchor="middle" dy="-0.85em">collect<tspan x="0" dy="1.2em">-1,1,477</tspan><tspan x="0" dy="1.2em">0,0</tspan></text>
    </g>
  </g>
  <g transform="translate(110,225)">
    <g class="primitive">
      <text text-anchor="middle" dy="-0.85em">go<tspan x="0" dy="1.2em">-1,94,-1</tspan><tspan x="0" dy="1.2em">21,21</tspan></text>
    </g>
  </g>
  <g transform="translate(90,295)">
    <g class="primitive">
      <text text-anchor="middle" dy="-0.85em">deposit<tspan x="0" dy="1.2em">-1,5,94</tspan><tspan x="0" dy="1.2em">21,21</tspan></text>
    </g>
  </g>
  <g transform="translate(70,295)">
    <g class="primitive">
      <text text-anchor="middle" dy="-0.85em">carry<tspan x="0" dy="1.2em">-1,5,94</tspan><tspan x="0" dy="1.2em">0,21</tspan></text>
    </g>
  </g>
  <g transform="translate(50,295)">
    <g class="primitive">
      <text text-anchor="middle" dy="-0.85em">collect<tspan x="0" dy="1.2em">-1,5,100</tspan><tspan x="0" dy="1.2em">0,0</tspan></text>
    </g>
  </g>
  <g transform="translate(110,215)">
    <g class="primitive">
      <text text-anchor="middle" dy="-0.85em">go<tspan x="0" dy="1.2em">-1,354,-1</tspan><tspan x="0" dy="1.2em">23,23</tspan></text>
    </g>
  </g>
  <g transform="translate(90,285)">
    <g class="primitive">
      <text text-anchor="middle" dy="-0.85em">deposit<tspan x="0" dy="1.2em">-1,4,354</tspan><tspan x="0" dy="1.2em">23,23</tspan></text>
    </g>
  </g>
  <g transform="translate(70,285)">
    <g class="primitive">
      <text text-anchor="middle" dy="-0.85em">carry<tspan x="0" dy="1.2em">-1,4,354</tspan><tspan x="0" dy="1.2em">0,23</tspan></text>
    </g>
  </g>
  <g transform="translate(50,285)">
    <g class="primitive">
      <text text-anchor="middle" dy="-0.85em">collect<tspan x="0" dy="1.2em">-1,4,63</tspan><tspan x="0" dy="1.2em">0,0</tspan></text>
    </g>
  </g>
  <g transform="translate(110,205)">
    <g class="primitive">
      <text text-anchor="middle" dy="-0.85em">go<tspan x="0" dy="1.2em">-1,222,-1</tspan><tspan x="0" dy="1.2em">15,15</tspan></text>
    </g>
  </g>
  <g transform="translate(90,275)">
    <g class="primitive">
      <text text-anchor="middle" dy="-0.85em">deposit<tspan x="0" dy="1.2em">-1,3,222</tspan><tspan x="0" dy="1.2em">15,15</tspan></text>
    </g>
  </g>
  <g transform="translate(70,275)">
    <g class="primitive">
      <text text-anchor="middle" dy="-0.85em">carry<tspan x="0" dy="1.2em">-1,3,222</tspan><tspan x="0" dy="1.2em">0,15</tspan></text>
    </g>
  </g>
  <g transform="translate(50,275)">
    <g class="primitive">
      <text text-anchor="middle" dy="-0.85em">collect<tspan x="0" dy="1.2em">-1,3,501</tspan><tspan x="0" dy="1.2em">0,0</tspan></text>
    </g>
  </g>
  <g transform="translate(210,185)">
    <g class="primitive">
      <text text-anchor="middle" dy="-0.85em">go<tspan x="0" dy="1.2em">-1,539,-1</tspan><tspan x="0" dy="1.2em">40,40</tspan></text>
    </g>
  </g>
  <g transform="translate(190,285)">
    <g class="primitive">
      <text text-anchor="middle" dy="-0.85em">deposit<tspan x="0" dy="1.2em">-1,7,539</tspan><tspan x="0" dy="1.2em">40,40</tspan></text>
    </g>
  </g>
  <g transform="translate(170,285)">
    <g class="primitive">
      <text text-anchor="middle" dy="-0.85em">carry<tspan x="0" dy="1.2em">-1,7,539</tspan><tspan x="0" dy="1.2em">23,40</tspan></text>
    </g>
  </g>
  <g transform="translate(150,285)">
    <g class="primitive">
      <text text-anchor="middle" dy="-0.85em">collect<tspan x="0" dy="1.2em">-1,7,197</tspan><tspan x="0" dy="1.2em">23,23</tspan></text>
    </g>
  </g>
  <g transform="translate(210,160)">
    <g class="primitive">
      <text text-anchor="middle" dy="-0.85em">go<tspan x="0" dy="1.2em">-1,90,-1</tspan><tspan x="0" dy="1.2em">21,21</tspan></text>
    </g>
  </g>
  <g transform="translate(190,260)">
    <g class="primitive">
      <text text-anchor="middle" dy="-0.85em">deposit<tspan x="0" dy="1.2em">-1,6,90</tspan><tspan x="0" dy="1.2em">21,21</tspan></text>
    </g>
  </g>
  <g transform="translate(170,260)">
    <g class="primitive">
      <text text-anchor="middle" dy="-0.85em">carry<tspan x="0" dy="1.2em">-1,6,90</tspan><tspan x="0" dy="1.2em">9,21</tspan></text>
    </g>
  </g>
  <g transform="translate(150,260)">
    <g class="primitive">
      <text text-anchor="middle" dy="-0.85em">collect<tspan x="0" dy="1.2em">-1,6,349</tspan><tspan x="0" dy="1.2em">9,9</tspan></text>
    </g>
  </g>
  <g transform="translate(310,122.5)">
    <g class="primitive">
      <text text-anchor="middle" dy="-0.85em">go<tspan x="0" dy="1.2em">-1,383,-1</tspan><tspan x="0" dy="1.2em">52,52</tspan></text>
    </g>
  </g>
  <g transform="translate(290,272.5)">
    <g class="primitive">
      <text text-anchor="middle" dy="-0.85em">deposit<tspan x="0" dy="1.2em">-1,8,383</tspan><tspan x="0" dy="1.2em">52,52</tspan></text>
    </g>
  </g>
  <g transform="translate(270,272.5)">
    <g class="primitive">
      <text text-anchor="middle" dy="-0.85em">carry<tspan x="0" dy="1.2em">-1,8,383</tspan><tspan x="0" dy="1.2em">40,52</tspan></text>
    </g>
  </g>
  <g transform="translate(250,272.5)">
    <g class="primitive">
      <text text-anchor="middle" dy="-0.85em">collect<tspan x="0" dy="1.2em">-1,8,124</tspan><tspan x="0" dy="1.2em">40,40</tspan></text>
    </g>
  </g>
  <g transform="translate(410,72.5)">
    <g class="primitive">
      <text text-anchor="middle" dy="-0.85em">go<tspan x="0" dy="1.2em">-1,86,-1</tspan><tspan x="0" dy="1.2em">67,67</tspan></text>
    </g>
  </g>
  <g transform="translate(390,272.5)">
    <g class="primitive">
      <text text-anchor="middle" dy="-0.85em">deposit<tspan x="0" dy="1.2em">-1,9,86</tspan><tspan x="0" dy="1.2em">67,67</tspan></text>
    </g>
  </g>
  <g transform="translate(370,272.5)">
    <g class="primitive">
      <text text-anchor="middle" dy="-0.85em">carry<tspan x="0" dy="1.2em">-1,9,86</tspan><tspan x="0" dy="1.2em">52,67</tspan></text>
    </g>
  </g>
  <g transform="translate(350,272.5)">
    <g class="primitive">
      <text text-anchor="middle" dy="-0.85em">collect<tspan x="0" dy="1.2em">-1,9,369</tspan><tspan x="0" dy="1.2em">52,52</tspan></text>
    </g>
  </g>
  <g transform="translate(430,272.5)">
    <g class="primitive">
      <text text-anchor="middle" dy="-0.25em">O10-108<tspan x="0" dy="1.2em">67,67</tspan></text>
    </g>
  </g>
  <g transform="translate(330,272.5)">
    <g class="primitive">
      <text text-anchor="middle" dy="-0.25em">O9-369<tspan x="0" dy="1.2em">52,52</tspan></text>
    </g>
  </g>
  <g transform="translate(230,272.5)">
    <g class="primitive">
      <text text-anchor="middle" dy="-0.25em">O8-124<tspan x="0" dy="1.2em">40,40</tspan></text>
    </g>
  </g>
  <g transform="translate(130,285)">
    <g class="primitive">
      <text text-anchor="middle" dy="-0.25em">O7-197<tspan x="0" dy="1.2em">23,23</tspan></text>
    </g>
  </g>
  <g transform="translate(130,260)">
    <g class="primitive">
      <text text-anchor="middle" dy="-0.25em">O6-349<tspan x="0" dy="1.2em">9,9</tspan></text>
    </g>
  </g>
  <g transform="translate(30,295)">
    <g class="primitive">
      <text text-anchor="middle" dy="-0.25em">O5-100<tspan x="0" dy="1.2em">0,0</tspan></text>
    </g>
  </g>
  <g transform="translate(30,285)">
    <g class="primitive">
      <text text-anchor="middle" dy="-0.25em">O4-63<tspan x="0" dy="1.2em">0,0</tspan></text>
    </g>
  </g>
  <g transform="translate(30,275)">
    <g class="primitive">
      <text text-anchor="middle" dy="-0.25em">O3-501<tspan x="0" dy="1.2em">0,0</tspan></text>
    </g>
  </g>
  <g transform="translate(30,265)">
    <g class="primitive">
      <text text-anchor="middle" dy="-0.25em">O2-225<tspan x="0" dy="1.2em">0,0</tspan></text>
    </g>
  </g>
  <g transform="translate(30,255)">
    <g class="primitive">
      <text text-anchor="middle" dy="-0.25em">O1-477<tspan x="0" dy="1.2em">0,0</tspan></text>
    </g>
  </g>
  <g transform="translate(510,22.5)">
    <g class="primitive">
      <text text-anchor="middle" dy="-0.25em">op566<tspan x="0" dy="1.2em">78,78</tspan></text>
    </g>
  </g>
  <g transform="translate(110,260)">
    <g class="primitive">
      <text text-anchor="middle" dy="-0.25em">op565<tspan x="0" dy="1.2em">9,9</tspan></text>
    </g>
  </g>
  <g transform="translate(110,285)">
    <g class="primitive">
      <text text-anchor="middle" dy="-0.25em">op564<tspan x="0" dy="1.2em">23,23</tspan></text>
    </g>
  </g>
  <g transform="translate(210,272.5)">
    <g class="primitive">
      <text text-anchor="middle" dy="-0.25em">op563<tspan x="0" dy="1.2em">40,40</tspan></text>
    </g>
  </g>
  <g transform="translate(310,272.5)">
    <g class="primitive">
      <text text-anchor="middle" dy="-0.25em">op562<tspan x="0" dy="1.2em">52,52</tspan></text>
    </g>
  </g>
  <g transform="translate(410,272.5)">
    <g class="primitive">
      <text text-anchor="middle" dy="-0.25em">op561<tspan x="0" dy="1.2em">67,67</tspan></text>
    </g>
  </g>
</g>
</svg>
