<?xml version="1.0" encoding="UTF-8"?>
<svg xmlns="http://www.w3.org/2000/svg"
     xmlns:xlink="http://www.w3.org/1999/xlink"
     xmlns:gadfly="http://www.gadflyjl.org/ns"
     version="1.2"
     width="440mm" height="106.67mm" viewBox="0 0 440 106.67"
     stroke="none"
     fill="#000000"
     stroke-width="0.3"
     font-size="3.88"
>
<defs>
  <marker id="arrow" markerWidth="15" markerHeight="7" refX="5" refY="3.5" orient="auto" markerUnits="strokeWidth">
    <path d="M0,0 L15,3.5 L0,7 z" stroke="context-stroke" fill="context-stroke"/>
  </marker>
</defs>
<g stroke="#000000" id="img-1b4386cb-1">
  <g transform="translate(30,16.67)">
    <path fill="none" d="M-5.6,0 L 5.6 0" class="primitive"/>
  </g>
  <g transform="translate(30,63.33)">
    <path fill="none" d="M-5.6,0 L 5.6 0" class="primitive"/>
  </g>
  <g transform="translate(30,40)">
    <path fill="none" d="M-5.6,0 L 5.6 0" class="primitive"/>
  </g>
  <g transform="translate(410,94.17)">
    <path fill="none" d="M-6.06,-1.52 L 6.06 1.52" class="primitive"/>
  </g>
  <g transform="translate(410,89.17)">
    <path fill="none" d="M-6.06,1.52 L 6.06 -1.52" class="primitive"/>
  </g>
  <g transform="translate(390,91.67)">
    <path fill="none" d="M-5.6,0 L 5.6 0" class="primitive"/>
  </g>
  <g transform="translate(370,91.67)">
    <path fill="none" d="M-5.6,0 L 5.6 0" class="primitive"/>
  </g>
  <g transform="translate(110,60)">
    <path fill="none" d="M-6.34,2.11 L 6.34 -2.11" class="primitive"/>
  </g>
  <g transform="translate(110,72.5)">
    <path fill="none" d="M-7.89,-7.24 L 7.89 7.24" class="primitive"/>
  </g>
  <g transform="translate(90,63.33)">
    <path fill="none" d="M-5.6,0 L 5.6 0" class="primitive"/>
  </g>
  <g transform="translate(70,63.33)">
    <path fill="none" d="M-5.6,0 L 5.6 0" class="primitive"/>
  </g>
  <g transform="translate(110,36.67)">
    <path fill="none" d="M-6.34,2.11 L 6.34 -2.11" class="primitive"/>
  </g>
  <g transform="translate(110,60.83)">
    <path fill="none" d="M-8.97,-18.69 L 8.97 18.69" class="primitive"/>
  </g>
  <g transform="translate(90,40)">
    <path fill="none" d="M-5.6,0 L 5.6 0" class="primitive"/>
  </g>
  <g transform="translate(70,40)">
    <path fill="none" d="M-5.6,0 L 5.6 0" class="primitive"/>
  </g>
  <g transform="translate(110,13.33)">
    <path fill="none" d="M-6.34,2.11 L 6.34 -2.11" class="primitive"/>
  </g>
  <g transform="translate(110,49.17)">
    <path fill="none" d="M-9.33,-30.33 L 9.33 30.33" class="primitive"/>
  </g>
  <g transform="translate(90,16.67)">
    <path fill="none" d="M-5.6,0 L 5.6 0" class="primitive"/>
  </g>
  <g transform="translate(70,16.67)">
    <path fill="none" d="M-5.6,0 L 5.6 0" class="primitive"/>
  </g>
  <g transform="translate(210,74.17)">
    <path fill="none" d="M-7.56,5.67 L 7.56 -5.67" class="primitive"/>
  </g>
  <g transform="translate(210,84.17)">
    <path fill="none" d="M-6.06,-1.52 L 6.06 1.52" class="primitive"/>
  </g>
  <g transform="translate(190,81.67)">
    <path fill="none" d="M-5.6,0 L 5.6 0" class="primitive"/>
  </g>
  <g transform="translate(170,81.67)">
    <path fill="none" d="M-5.6,0 L 5.6 0" class="primitive"/>
  </g>
  <g transform="translate(310,81.67)">
    <path fill="none" d="M-6.89,3.44 L 6.89 -3.44" class="primitive"/>
  </g>
  <g transform="translate(310,89.17)">
    <path fill="none" d="M-6.06,-1.52 L 6.06 1.52" class="primitive"/>
  </g>
  <g transform="translate(290,86.67)">
    <path fill="none" d="M-5.6,0 L 5.6 0" class="primitive"/>
  </g>
  <g transform="translate(270,86.67)">
    <path fill="none" d="M-5.6,0 L 5.6 0" class="primitive"/>
  </g>
  <g transform="translate(350,91.67)">
    <path fill="none" d="M-5.6,0 L 5.6 0" class="primitive"/>
  </g>
  <g transform="translate(250,86.67)">
    <path fill="none" d="M-5.6,0 L 5.6 0" class="primitive"/>
  </g>
  <g transform="translate(150,81.67)">
    <path fill="none" d="M-5.6,0 L 5.6 0" class="primitive"/>
  </g>
  <g transform="translate(50,63.33)">
    <path fill="none" d="M-5.6,0 L 5.6 0" class="primitive"/>
  </g>
  <g transform="translate(50,40)">
    <path fill="none" d="M-5.6,0 L 5.6 0" class="primitive"/>
  </g>
  <g transform="translate(50,16.67)">
    <path fill="none" d="M-5.6,0 L 5.6 0" class="primitive"/>
  </g>
  <g transform="translate(130,81.67)">
    <path fill="none" d="M-5.6,0 L 5.6 0" class="primitive"/>
  </g>
  <g transform="translate(230,86.67)">
    <path fill="none" d="M-5.6,0 L 5.6 0" class="primitive"/>
  </g>
  <g transform="translate(330,91.67)">
    <path fill="none" d="M-5.6,0 L 5.6 0" class="primitive"/>
  </g>
</g>
<g fill="#FF0000" id="img-1b4386cb-2">
  <g transform="translate(20,16.67)">
    <circle cx="0" cy="0" r="4" class="primitive"/>
  </g>
</g>
<g fill="#FF0000" id="img-1b4386cb-3">
  <g transform="translate(20,63.33)">
    <circle cx="0" cy="0" r="4" class="primitive"/>
  </g>
</g>
<g fill="#FF0000" id="img-1b4386cb-4">
  <g transform="translate(20,40)">
    <circle cx="0" cy="0" r="4" class="primitive"/>
  </g>
</g>
<g fill="#00FFFF" id="img-1b4386cb-5">
  <g transform="translate(420,96.67)">
    <circle cx="0" cy="0" r="4" class="primitive"/>
  </g>
</g>
<g fill="#00FFFF" id="img-1b4386cb-6">
  <g transform="translate(400,91.67)">
    <circle cx="0" cy="0" r="4" class="primitive"/>
  </g>
</g>
<g fill="#00FFFF" id="img-1b4386cb-7">
  <g transform="translate(380,91.67)">
    <circle cx="0" cy="0" r="4" class="primitive"/>
  </g>
</g>
<g fill="#00FFFF" id="img-1b4386cb-8">
  <g transform="translate(360,91.67)">
    <circle cx="0" cy="0" r="4" class="primitive"/>
  </g>
</g>
<g fill="#00FFFF" id="img-1b4386cb-9">
  <g transform="translate(120,56.67)">
    <circle cx="0" cy="0" r="4" class="primitive"/>
  </g>
</g>
<g fill="#00FFFF" id="img-1b4386cb-10">
  <g transform="translate(100,63.33)">
    <circle cx="0" cy="0" r="4" class="primitive"/>
  </g>
</g>
<g fill="#00FFFF" id="img-1b4386cb-11">
  <g transform="translate(80,63.33)">
    <circle cx="0" cy="0" r="4" class="primitive"/>
  </g>
</g>
<g fill="#00FFFF" id="img-1b4386cb-12">
  <g transform="translate(60,63.33)">
    <circle cx="0" cy="0" r="4" class="primitive"/>
  </g>
</g>
<g fill="#00FFFF" id="img-1b4386cb-13">
  <g transform="translate(120,33.33)">
    <circle cx="0" cy="0" r="4" class="primitive"/>
  </g>
</g>
<g fill="#00FFFF" id="img-1b4386cb-14">
  <g transform="translate(100,40)">
    <circle cx="0" cy="0" r="4" class="primitive"/>
  </g>
</g>
<g fill="#00FFFF" id="img-1b4386cb-15">
  <g transform="translate(80,40)">
    <circle cx="0" cy="0" r="4" class="primitive"/>
  </g>
</g>
<g fill="#00FFFF" id="img-1b4386cb-16">
  <g transform="translate(60,40)">
    <circle cx="0" cy="0" r="4" class="primitive"/>
  </g>
</g>
<g fill="#00FFFF" id="img-1b4386cb-17">
  <g transform="translate(120,10)">
    <circle cx="0" cy="0" r="4" class="primitive"/>
  </g>
</g>
<g fill="#00FFFF" id="img-1b4386cb-18">
  <g transform="translate(100,16.67)">
    <circle cx="0" cy="0" r="4" class="primitive"/>
  </g>
</g>
<g fill="#00FFFF" id="img-1b4386cb-19">
  <g transform="translate(80,16.67)">
    <circle cx="0" cy="0" r="4" class="primitive"/>
  </g>
</g>
<g fill="#00FFFF" id="img-1b4386cb-20">
  <g transform="translate(60,16.67)">
    <circle cx="0" cy="0" r="4" class="primitive"/>
  </g>
</g>
<g fill="#00FFFF" id="img-1b4386cb-21">
  <g transform="translate(220,66.67)">
    <circle cx="0" cy="0" r="4" class="primitive"/>
  </g>
</g>
<g fill="#00FFFF" id="img-1b4386cb-22">
  <g transform="translate(200,81.67)">
    <circle cx="0" cy="0" r="4" class="primitive"/>
  </g>
</g>
<g fill="#00FFFF" id="img-1b4386cb-23">
  <g transform="translate(180,81.67)">
    <circle cx="0" cy="0" r="4" class="primitive"/>
  </g>
</g>
<g fill="#00FFFF" id="img-1b4386cb-24">
  <g transform="translate(160,81.67)">
    <circle cx="0" cy="0" r="4" class="primitive"/>
  </g>
</g>
<g fill="#00FFFF" id="img-1b4386cb-25">
  <g transform="translate(320,76.67)">
    <circle cx="0" cy="0" r="4" class="primitive"/>
  </g>
</g>
<g fill="#00FFFF" id="img-1b4386cb-26">
  <g transform="translate(300,86.67)">
    <circle cx="0" cy="0" r="4" class="primitive"/>
  </g>
</g>
<g fill="#00FFFF" id="img-1b4386cb-27">
  <g transform="translate(280,86.67)">
    <circle cx="0" cy="0" r="4" class="primitive"/>
  </g>
</g>
<g fill="#00FFFF" id="img-1b4386cb-28">
  <g transform="translate(260,86.67)">
    <circle cx="0" cy="0" r="4" class="primitive"/>
  </g>
</g>
<g fill="#FFA500" id="img-1b4386cb-29">
  <g transform="translate(340,91.67)">
    <circle cx="0" cy="0" r="4" class="primitive"/>
  </g>
</g>
<g fill="#FFA500" id="img-1b4386cb-30">
  <g transform="translate(240,86.67)">
    <circle cx="0" cy="0" r="4" class="primitive"/>
  </g>
</g>
<g fill="#FFA500" id="img-1b4386cb-31">
  <g transform="translate(140,81.67)">
    <circle cx="0" cy="0" r="4" class="primitive"/>
  </g>
</g>
<g fill="#FFA500" id="img-1b4386cb-32">
  <g transform="translate(40,63.33)">
    <circle cx="0" cy="0" r="4" class="primitive"/>
  </g>
</g>
<g fill="#FFA500" id="img-1b4386cb-33">
  <g transform="translate(40,40)">
    <circle cx="0" cy="0" r="4" class="primitive"/>
  </g>
</g>
<g fill="#FFA500" id="img-1b4386cb-34">
  <g transform="translate(40,16.67)">
    <circle cx="0" cy="0" r="4" class="primitive"/>
  </g>
</g>
<g fill="#FF0000" id="img-1b4386cb-35">
  <g transform="translate(420,86.67)">
    <circle cx="0" cy="0" r="4" class="primitive"/>
  </g>
</g>
<g fill="#FF0000" id="img-1b4386cb-36">
  <g transform="translate(120,81.67)">
    <circle cx="0" cy="0" r="4" class="primitive"/>
  </g>
</g>
<g fill="#FF0000" id="img-1b4386cb-37">
  <g transform="translate(220,86.67)">
    <circle cx="0" cy="0" r="4" class="primitive"/>
  </g>
</g>
<g fill="#FF0000" id="img-1b4386cb-38">
  <g transform="translate(320,91.67)">
    <circle cx="0" cy="0" r="4" class="primitive"/>
  </g>
</g>
<g font-family="futura" font-size="3.53" stroke="#000000" id="img-1b4386cb-39">
  <g transform="translate(20,16.67)">
    <g class="primitive">
      <text text-anchor="middle" dy="-0.25em">op450<tspan x="0" dy="1.2em">0,0</tspan></text>
    </g>
  </g>
  <g transform="translate(20,63.33)">
    <g class="primitive">
      <text text-anchor="middle" dy="-0.25em">op449<tspan x="0" dy="1.2em">0,0</tspan></text>
    </g>
  </g>
  <g transform="translate(20,40)">
    <g class="primitive">
      <text text-anchor="middle" dy="-0.25em">op448<tspan x="0" dy="1.2em">0,0</tspan></text>
    </g>
  </g>
  <g transform="translate(420,96.67)">
    <g class="primitive">
      <text text-anchor="middle" dy="-0.85em">go<tspan x="0" dy="1.2em">-1,362,-1</tspan><tspan x="0" dy="1.2em">60,60</tspan></text>
    </g>
  </g>
  <g transform="translate(400,91.67)">
    <g class="primitive">
      <text text-anchor="middle" dy="-0.85em">deposit<tspan x="0" dy="1.2em">-1,18,362</tspan><tspan x="0" dy="1.2em">60,60</tspan></text>
    </g>
  </g>
  <g transform="translate(380,91.67)">
    <g class="primitive">
      <text text-anchor="middle" dy="-0.85em">carry<tspan x="0" dy="1.2em">-1,18,362</tspan><tspan x="0" dy="1.2em">52,60</tspan></text>
    </g>
  </g>
  <g transform="translate(360,91.67)">
    <g class="primitive">
      <text text-anchor="middle" dy="-0.85em">collect<tspan x="0" dy="1.2em">-1,18,197</tspan><tspan x="0" dy="1.2em">52,52</tspan></text>
    </g>
  </g>
  <g transform="translate(120,56.67)">
    <g class="primitive">
      <text text-anchor="middle" dy="-0.85em">go<tspan x="0" dy="1.2em">-1,247,-1</tspan><tspan x="0" dy="1.2em">18,18</tspan></text>
    </g>
  </g>
  <g transform="translate(100,63.33)">
    <g class="primitive">
      <text text-anchor="middle" dy="-0.85em">deposit<tspan x="0" dy="1.2em">-1,15,247</tspan><tspan x="0" dy="1.2em">18,18</tspan></text>
    </g>
  </g>
  <g transform="translate(80,63.33)">
    <g class="primitive">
      <text text-anchor="middle" dy="-0.85em">carry<tspan x="0" dy="1.2em">-1,15,247</tspan><tspan x="0" dy="1.2em">0,18</tspan></text>
    </g>
  </g>
  <g transform="translate(60,63.33)">
    <g class="primitive">
      <text text-anchor="middle" dy="-0.85em">collect<tspan x="0" dy="1.2em">-1,15,57</tspan><tspan x="0" dy="1.2em">0,0</tspan></text>
    </g>
  </g>
  <g transform="translate(120,33.33)">
    <g class="primitive">
      <text text-anchor="middle" dy="-0.85em">go<tspan x="0" dy="1.2em">-1,239,-1</tspan><tspan x="0" dy="1.2em">18,18</tspan></text>
    </g>
  </g>
  <g transform="translate(100,40)">
    <g class="primitive">
      <text text-anchor="middle" dy="-0.85em">deposit<tspan x="0" dy="1.2em">-1,14,239</tspan><tspan x="0" dy="1.2em">18,18</tspan></text>
    </g>
  </g>
  <g transform="translate(80,40)">
    <g class="primitive">
      <text text-anchor="middle" dy="-0.85em">carry<tspan x="0" dy="1.2em">-1,14,239</tspan><tspan x="0" dy="1.2em">0,18</tspan></text>
    </g>
  </g>
  <g transform="translate(60,40)">
    <g class="primitive">
      <text text-anchor="middle" dy="-0.85em">collect<tspan x="0" dy="1.2em">-1,14,349</tspan><tspan x="0" dy="1.2em">0,0</tspan></text>
    </g>
  </g>
  <g transform="translate(120,10)">
    <g class="primitive">
      <text text-anchor="middle" dy="-0.85em">go<tspan x="0" dy="1.2em">-1,510,-1</tspan><tspan x="0" dy="1.2em">27,27</tspan></text>
    </g>
  </g>
  <g transform="translate(100,16.67)">
    <g class="primitive">
      <text text-anchor="middle" dy="-0.85em">deposit<tspan x="0" dy="1.2em">-1,13,510</tspan><tspan x="0" dy="1.2em">27,27</tspan></text>
    </g>
  </g>
  <g transform="translate(80,16.67)">
    <g class="primitive">
      <text text-anchor="middle" dy="-0.85em">carry<tspan x="0" dy="1.2em">-1,13,510</tspan><tspan x="0" dy="1.2em">0,27</tspan></text>
    </g>
  </g>
  <g transform="translate(60,16.67)">
    <g class="primitive">
      <text text-anchor="middle" dy="-0.85em">collect<tspan x="0" dy="1.2em">-1,13,221</tspan><tspan x="0" dy="1.2em">0,0</tspan></text>
    </g>
  </g>
  <g transform="translate(220,66.67)">
    <g class="primitive">
      <text text-anchor="middle" dy="-0.85em">go<tspan x="0" dy="1.2em">-1,111,-1</tspan><tspan x="0" dy="1.2em">42,42</tspan></text>
    </g>
  </g>
  <g transform="translate(200,81.67)">
    <g class="primitive">
      <text text-anchor="middle" dy="-0.85em">deposit<tspan x="0" dy="1.2em">-1,16,111</tspan><tspan x="0" dy="1.2em">42,42</tspan></text>
    </g>
  </g>
  <g transform="translate(180,81.67)">
    <g class="primitive">
      <text text-anchor="middle" dy="-0.85em">carry<tspan x="0" dy="1.2em">-1,16,111</tspan><tspan x="0" dy="1.2em">27,42</tspan></text>
    </g>
  </g>
  <g transform="translate(160,81.67)">
    <g class="primitive">
      <text text-anchor="middle" dy="-0.85em">collect<tspan x="0" dy="1.2em">-1,16,244</tspan><tspan x="0" dy="1.2em">27,27</tspan></text>
    </g>
  </g>
  <g transform="translate(320,76.67)">
    <g class="primitive">
      <text text-anchor="middle" dy="-0.85em">go<tspan x="0" dy="1.2em">-1,62,-1</tspan><tspan x="0" dy="1.2em">52,52</tspan></text>
    </g>
  </g>
  <g transform="translate(300,86.67)">
    <g class="primitive">
      <text text-anchor="middle" dy="-0.85em">deposit<tspan x="0" dy="1.2em">-1,17,62</tspan><tspan x="0" dy="1.2em">52,52</tspan></text>
    </g>
  </g>
  <g transform="translate(280,86.67)">
    <g class="primitive">
      <text text-anchor="middle" dy="-0.85em">carry<tspan x="0" dy="1.2em">-1,17,62</tspan><tspan x="0" dy="1.2em">42,52</tspan></text>
    </g>
  </g>
  <g transform="translate(260,86.67)">
    <g class="primitive">
      <text text-anchor="middle" dy="-0.85em">collect<tspan x="0" dy="1.2em">-1,17,108</tspan><tspan x="0" dy="1.2em">42,42</tspan></text>
    </g>
  </g>
  <g transform="translate(340,91.67)">
    <g class="primitive">
      <text text-anchor="middle" dy="-0.25em">O18-197<tspan x="0" dy="1.2em">52,52</tspan></text>
    </g>
  </g>
  <g transform="translate(240,86.67)">
    <g class="primitive">
      <text text-anchor="middle" dy="-0.25em">O17-108<tspan x="0" dy="1.2em">42,42</tspan></text>
    </g>
  </g>
  <g transform="translate(140,81.67)">
    <g class="primitive">
      <text text-anchor="middle" dy="-0.25em">O16-244<tspan x="0" dy="1.2em">27,27</tspan></text>
    </g>
  </g>
  <g transform="translate(40,63.33)">
    <g class="primitive">
      <text text-anchor="middle" dy="-0.25em">O15-57<tspan x="0" dy="1.2em">0,0</tspan></text>
    </g>
  </g>
  <g transform="translate(40,40)">
    <g class="primitive">
      <text text-anchor="middle" dy="-0.25em">O14-349<tspan x="0" dy="1.2em">0,0</tspan></text>
    </g>
  </g>
  <g transform="translate(40,16.67)">
    <g class="primitive">
      <text text-anchor="middle" dy="-0.25em">O13-221<tspan x="0" dy="1.2em">0,0</tspan></text>
    </g>
  </g>
  <g transform="translate(420,86.67)">
    <g class="primitive">
      <text text-anchor="middle" dy="-0.25em">op447<tspan x="0" dy="1.2em">60,60</tspan></text>
    </g>
  </g>
  <g transform="translate(120,81.67)">
    <g class="primitive">
      <text text-anchor="middle" dy="-0.25em">op446<tspan x="0" dy="1.2em">27,27</tspan></text>
    </g>
  </g>
  <g transform="translate(220,86.67)">
    <g class="primitive">
      <text text-anchor="middle" dy="-0.25em">op445<tspan x="0" dy="1.2em">42,42</tspan></text>
    </g>
  </g>
  <g transform="translate(320,91.67)">
    <g class="primitive">
      <text text-anchor="middle" dy="-0.25em">op444<tspan x="0" dy="1.2em">52,52</tspan></text>
    </g>
  </g>
</g>
</svg>
