<?xml version="1.0" encoding="UTF-8"?>
<svg xmlns="http://www.w3.org/2000/svg"
     xmlns:xlink="http://www.w3.org/1999/xlink"
     xmlns:gadfly="http://www.gadflyjl.org/ns"
     version="1.2"
     width="340mm" height="105mm" viewBox="0 0 340 105"
     stroke="none"
     fill="#000000"
     stroke-width="0.3"
     font-size="3.88"
>
<defs>
  <marker id="arrow" markerWidth="15" markerHeight="7" refX="5" refY="3.5" orient="auto" markerUnits="strokeWidth">
    <path d="M0,0 L15,3.5 L0,7 z" stroke="context-stroke" fill="context-stroke"/>
  </marker>
</defs>
<g stroke="#000000" id="img-5c1e7326-1">
  <g transform="translate(30,53.33)">
    <path fill="none" d="M-5.6,0 L 5.6 0" class="primitive"/>
  </g>
  <g transform="translate(30,10)">
    <path fill="none" d="M-5.6,0 L 5.6 0" class="primitive"/>
  </g>
  <g transform="translate(30,31.67)">
    <path fill="none" d="M-5.6,0 L 5.6 0" class="primitive"/>
  </g>
  <g transform="translate(310,92.5)">
    <path fill="none" d="M-6.06,-1.52 L 6.06 1.52" class="primitive"/>
  </g>
  <g transform="translate(310,87.5)">
    <path fill="none" d="M-6.06,1.52 L 6.06 -1.52" class="primitive"/>
  </g>
  <g transform="translate(290,90)">
    <path fill="none" d="M-5.6,0 L 5.6 0" class="primitive"/>
  </g>
  <g transform="translate(270,90)">
    <path fill="none" d="M-5.6,0 L 5.6 0" class="primitive"/>
  </g>
  <g transform="translate(110,50.83)">
    <path fill="none" d="M-6.06,1.52 L 6.06 -1.52" class="primitive"/>
  </g>
  <g transform="translate(110,65.83)">
    <path fill="none" d="M-8.37,-10.46 L 8.37 10.46" class="primitive"/>
  </g>
  <g transform="translate(90,53.33)">
    <path fill="none" d="M-5.6,0 L 5.6 0" class="primitive"/>
  </g>
  <g transform="translate(70,53.33)">
    <path fill="none" d="M-5.6,0 L 5.6 0" class="primitive"/>
  </g>
  <g transform="translate(110,24.17)">
    <path fill="none" d="M-8.54,-12.09 L 8.54 12.09" class="primitive"/>
  </g>
  <g transform="translate(110,35.83)">
    <path fill="none" d="M-9.16,-23.67 L 9.16 23.67" class="primitive"/>
  </g>
  <g transform="translate(90,10)">
    <path fill="none" d="M-5.6,0 L 5.6 0" class="primitive"/>
  </g>
  <g transform="translate(70,10)">
    <path fill="none" d="M-5.6,0 L 5.6 0" class="primitive"/>
  </g>
  <g transform="translate(210,76.67)">
    <path fill="none" d="M-5.83,0.97 L 5.83 -0.97" class="primitive"/>
  </g>
  <g transform="translate(210,84.17)">
    <path fill="none" d="M-7.14,-4.16 L 7.14 4.16" class="primitive"/>
  </g>
  <g transform="translate(190,78.33)">
    <path fill="none" d="M-5.6,0 L 5.6 0" class="primitive"/>
  </g>
  <g transform="translate(170,78.33)">
    <path fill="none" d="M-5.6,0 L 5.6 0" class="primitive"/>
  </g>
  <g transform="translate(110,30)">
    <path fill="none" d="M-5.83,0.97 L 5.83 -0.97" class="primitive"/>
  </g>
  <g transform="translate(160,60.83)">
    <path fill="none" d="M-56.85,-27.63 L 56.85 27.63" class="primitive"/>
  </g>
  <g transform="translate(90,31.67)">
    <path fill="none" d="M-5.6,0 L 5.6 0" class="primitive"/>
  </g>
  <g transform="translate(70,31.67)">
    <path fill="none" d="M-5.6,0 L 5.6 0" class="primitive"/>
  </g>
  <g transform="translate(210,60)">
    <path fill="none" d="M-5.83,0.97 L 5.83 -0.97" class="primitive"/>
  </g>
  <g transform="translate(210,75.83)">
    <path fill="none" d="M-8.54,-12.09 L 8.54 12.09" class="primitive"/>
  </g>
  <g transform="translate(190,61.67)">
    <path fill="none" d="M-5.6,0 L 5.6 0" class="primitive"/>
  </g>
  <g transform="translate(170,61.67)">
    <path fill="none" d="M-5.6,0 L 5.6 0" class="primitive"/>
  </g>
  <g transform="translate(250,90)">
    <path fill="none" d="M-5.6,0 L 5.6 0" class="primitive"/>
  </g>
  <g transform="translate(150,78.33)">
    <path fill="none" d="M-5.6,0 L 5.6 0" class="primitive"/>
  </g>
  <g transform="translate(50,31.67)">
    <path fill="none" d="M-5.6,0 L 5.6 0" class="primitive"/>
  </g>
  <g transform="translate(150,61.67)">
    <path fill="none" d="M-5.6,0 L 5.6 0" class="primitive"/>
  </g>
  <g transform="translate(50,10)">
    <path fill="none" d="M-5.6,0 L 5.6 0" class="primitive"/>
  </g>
  <g transform="translate(50,53.33)">
    <path fill="none" d="M-5.6,0 L 5.6 0" class="primitive"/>
  </g>
  <g transform="translate(130,78.33)">
    <path fill="none" d="M-5.6,0 L 5.6 0" class="primitive"/>
  </g>
  <g transform="translate(130,61.67)">
    <path fill="none" d="M-5.6,0 L 5.6 0" class="primitive"/>
  </g>
  <g transform="translate(230,90)">
    <path fill="none" d="M-5.6,0 L 5.6 0" class="primitive"/>
  </g>
</g>
<g fill="#FF0000" id="img-5c1e7326-2">
  <g transform="translate(20,53.33)">
    <circle cx="0" cy="0" r="4" class="primitive"/>
  </g>
</g>
<g fill="#FF0000" id="img-5c1e7326-3">
  <g transform="translate(20,10)">
    <circle cx="0" cy="0" r="4" class="primitive"/>
  </g>
</g>
<g fill="#FF0000" id="img-5c1e7326-4">
  <g transform="translate(20,31.67)">
    <circle cx="0" cy="0" r="4" class="primitive"/>
  </g>
</g>
<g fill="#00FFFF" id="img-5c1e7326-5">
  <g transform="translate(320,95)">
    <circle cx="0" cy="0" r="4" class="primitive"/>
  </g>
</g>
<g fill="#00FFFF" id="img-5c1e7326-6">
  <g transform="translate(300,90)">
    <circle cx="0" cy="0" r="4" class="primitive"/>
  </g>
</g>
<g fill="#00FFFF" id="img-5c1e7326-7">
  <g transform="translate(280,90)">
    <circle cx="0" cy="0" r="4" class="primitive"/>
  </g>
</g>
<g fill="#00FFFF" id="img-5c1e7326-8">
  <g transform="translate(260,90)">
    <circle cx="0" cy="0" r="4" class="primitive"/>
  </g>
</g>
<g fill="#00FFFF" id="img-5c1e7326-9">
  <g transform="translate(120,48.33)">
    <circle cx="0" cy="0" r="4" class="primitive"/>
  </g>
</g>
<g fill="#00FFFF" id="img-5c1e7326-10">
  <g transform="translate(100,53.33)">
    <circle cx="0" cy="0" r="4" class="primitive"/>
  </g>
</g>
<g fill="#00FFFF" id="img-5c1e7326-11">
  <g transform="translate(80,53.33)">
    <circle cx="0" cy="0" r="4" class="primitive"/>
  </g>
</g>
<g fill="#00FFFF" id="img-5c1e7326-12">
  <g transform="translate(60,53.33)">
    <circle cx="0" cy="0" r="4" class="primitive"/>
  </g>
</g>
<g fill="#00FFFF" id="img-5c1e7326-13">
  <g transform="translate(120,38.33)">
    <circle cx="0" cy="0" r="4" class="primitive"/>
  </g>
</g>
<g fill="#00FFFF" id="img-5c1e7326-14">
  <g transform="translate(100,10)">
    <circle cx="0" cy="0" r="4" class="primitive"/>
  </g>
</g>
<g fill="#00FFFF" id="img-5c1e7326-15">
  <g transform="translate(80,10)">
    <circle cx="0" cy="0" r="4" class="primitive"/>
  </g>
</g>
<g fill="#00FFFF" id="img-5c1e7326-16">
  <g transform="translate(60,10)">
    <circle cx="0" cy="0" r="4" class="primitive"/>
  </g>
</g>
<g fill="#00FFFF" id="img-5c1e7326-17">
  <g transform="translate(220,75)">
    <circle cx="0" cy="0" r="4" class="primitive"/>
  </g>
</g>
<g fill="#00FFFF" id="img-5c1e7326-18">
  <g transform="translate(200,78.33)">
    <circle cx="0" cy="0" r="4" class="primitive"/>
  </g>
</g>
<g fill="#00FFFF" id="img-5c1e7326-19">
  <g transform="translate(180,78.33)">
    <circle cx="0" cy="0" r="4" class="primitive"/>
  </g>
</g>
<g fill="#00FFFF" id="img-5c1e7326-20">
  <g transform="translate(160,78.33)">
    <circle cx="0" cy="0" r="4" class="primitive"/>
  </g>
</g>
<g fill="#00FFFF" id="img-5c1e7326-21">
  <g transform="translate(120,28.33)">
    <circle cx="0" cy="0" r="4" class="primitive"/>
  </g>
</g>
<g fill="#00FFFF" id="img-5c1e7326-22">
  <g transform="translate(100,31.67)">
    <circle cx="0" cy="0" r="4" class="primitive"/>
  </g>
</g>
<g fill="#00FFFF" id="img-5c1e7326-23">
  <g transform="translate(80,31.67)">
    <circle cx="0" cy="0" r="4" class="primitive"/>
  </g>
</g>
<g fill="#00FFFF" id="img-5c1e7326-24">
  <g transform="translate(60,31.67)">
    <circle cx="0" cy="0" r="4" class="primitive"/>
  </g>
</g>
<g fill="#00FFFF" id="img-5c1e7326-25">
  <g transform="translate(220,58.33)">
    <circle cx="0" cy="0" r="4" class="primitive"/>
  </g>
</g>
<g fill="#00FFFF" id="img-5c1e7326-26">
  <g transform="translate(200,61.67)">
    <circle cx="0" cy="0" r="4" class="primitive"/>
  </g>
</g>
<g fill="#00FFFF" id="img-5c1e7326-27">
  <g transform="translate(180,61.67)">
    <circle cx="0" cy="0" r="4" class="primitive"/>
  </g>
</g>
<g fill="#00FFFF" id="img-5c1e7326-28">
  <g transform="translate(160,61.67)">
    <circle cx="0" cy="0" r="4" class="primitive"/>
  </g>
</g>
<g fill="#FFA500" id="img-5c1e7326-29">
  <g transform="translate(240,90)">
    <circle cx="0" cy="0" r="4" class="primitive"/>
  </g>
</g>
<g fill="#FFA500" id="img-5c1e7326-30">
  <g transform="translate(140,78.33)">
    <circle cx="0" cy="0" r="4" class="primitive"/>
  </g>
</g>
<g fill="#FFA500" id="img-5c1e7326-31">
  <g transform="translate(40,31.67)">
    <circle cx="0" cy="0" r="4" class="primitive"/>
  </g>
</g>
<g fill="#FFA500" id="img-5c1e7326-32">
  <g transform="translate(140,61.67)">
    <circle cx="0" cy="0" r="4" class="primitive"/>
  </g>
</g>
<g fill="#FFA500" id="img-5c1e7326-33">
  <g transform="translate(40,10)">
    <circle cx="0" cy="0" r="4" class="primitive"/>
  </g>
</g>
<g fill="#FFA500" id="img-5c1e7326-34">
  <g transform="translate(40,53.33)">
    <circle cx="0" cy="0" r="4" class="primitive"/>
  </g>
</g>
<g fill="#FF0000" id="img-5c1e7326-35">
  <g transform="translate(320,85)">
    <circle cx="0" cy="0" r="4" class="primitive"/>
  </g>
</g>
<g fill="#FF0000" id="img-5c1e7326-36">
  <g transform="translate(120,78.33)">
    <circle cx="0" cy="0" r="4" class="primitive"/>
  </g>
</g>
<g fill="#FF0000" id="img-5c1e7326-37">
  <g transform="translate(120,61.67)">
    <circle cx="0" cy="0" r="4" class="primitive"/>
  </g>
</g>
<g fill="#FF0000" id="img-5c1e7326-38">
  <g transform="translate(220,90)">
    <circle cx="0" cy="0" r="4" class="primitive"/>
  </g>
</g>
<g font-family="futura" font-size="3.53" stroke="#000000" id="img-5c1e7326-39">
  <g transform="translate(20,53.33)">
    <g class="primitive">
      <text text-anchor="middle" dy="-0.25em">op443<tspan x="0" dy="1.2em">0,0</tspan></text>
    </g>
  </g>
  <g transform="translate(20,10)">
    <g class="primitive">
      <text text-anchor="middle" dy="-0.25em">op442<tspan x="0" dy="1.2em">0,0</tspan></text>
    </g>
  </g>
  <g transform="translate(20,31.67)">
    <g class="primitive">
      <text text-anchor="middle" dy="-0.25em">op441<tspan x="0" dy="1.2em">0,0</tspan></text>
    </g>
  </g>
  <g transform="translate(320,95)">
    <g class="primitive">
      <text text-anchor="middle" dy="-0.85em">go<tspan x="0" dy="1.2em">-1,247,-1</tspan><tspan x="0" dy="1.2em">58,58</tspan></text>
    </g>
  </g>
  <g transform="translate(300,90)">
    <g class="primitive">
      <text text-anchor="middle" dy="-0.85em">deposit<tspan x="0" dy="1.2em">-1,12,247</tspan><tspan x="0" dy="1.2em">58,58</tspan></text>
    </g>
  </g>
  <g transform="translate(280,90)">
    <g class="primitive">
      <text text-anchor="middle" dy="-0.85em">carry<tspan x="0" dy="1.2em">-1,12,247</tspan><tspan x="0" dy="1.2em">46,58</tspan></text>
    </g>
  </g>
  <g transform="translate(260,90)">
    <g class="primitive">
      <text text-anchor="middle" dy="-0.85em">collect<tspan x="0" dy="1.2em">-1,12,355</tspan><tspan x="0" dy="1.2em">46,46</tspan></text>
    </g>
  </g>
  <g transform="translate(120,48.33)">
    <g class="primitive">
      <text text-anchor="middle" dy="-0.85em">go<tspan x="0" dy="1.2em">-1,74,-1</tspan><tspan x="0" dy="1.2em">11,11</tspan></text>
    </g>
  </g>
  <g transform="translate(100,53.33)">
    <g class="primitive">
      <text text-anchor="middle" dy="-0.85em">deposit<tspan x="0" dy="1.2em">-1,7,74</tspan><tspan x="0" dy="1.2em">11,11</tspan></text>
    </g>
  </g>
  <g transform="translate(80,53.33)">
    <g class="primitive">
      <text text-anchor="middle" dy="-0.85em">carry<tspan x="0" dy="1.2em">-1,7,74</tspan><tspan x="0" dy="1.2em">0,11</tspan></text>
    </g>
  </g>
  <g transform="translate(60,53.33)">
    <g class="primitive">
      <text text-anchor="middle" dy="-0.85em">collect<tspan x="0" dy="1.2em">-1,7,63</tspan><tspan x="0" dy="1.2em">0,0</tspan></text>
    </g>
  </g>
  <g transform="translate(120,38.33)">
    <g class="primitive">
      <text text-anchor="middle" dy="-0.85em">go<tspan x="0" dy="1.2em">-1,94,-1</tspan><tspan x="0" dy="1.2em">31,31</tspan></text>
    </g>
  </g>
  <g transform="translate(100,10)">
    <g class="primitive">
      <text text-anchor="middle" dy="-0.85em">deposit<tspan x="0" dy="1.2em">-1,8,94</tspan><tspan x="0" dy="1.2em">31,31</tspan></text>
    </g>
  </g>
  <g transform="translate(80,10)">
    <g class="primitive">
      <text text-anchor="middle" dy="-0.85em">carry<tspan x="0" dy="1.2em">-1,8,94</tspan><tspan x="0" dy="1.2em">0,31</tspan></text>
    </g>
  </g>
  <g transform="translate(60,10)">
    <g class="primitive">
      <text text-anchor="middle" dy="-0.85em">collect<tspan x="0" dy="1.2em">-1,8,380</tspan><tspan x="0" dy="1.2em">0,0</tspan></text>
    </g>
  </g>
  <g transform="translate(220,75)">
    <g class="primitive">
      <text text-anchor="middle" dy="-0.85em">go<tspan x="0" dy="1.2em">-1,510,-1</tspan><tspan x="0" dy="1.2em">22,22</tspan></text>
    </g>
  </g>
  <g transform="translate(200,78.33)">
    <g class="primitive">
      <text text-anchor="middle" dy="-0.85em">deposit<tspan x="0" dy="1.2em">-1,11,510</tspan><tspan x="0" dy="1.2em">22,22</tspan></text>
    </g>
  </g>
  <g transform="translate(180,78.33)">
    <g class="primitive">
      <text text-anchor="middle" dy="-0.85em">carry<tspan x="0" dy="1.2em">-1,11,510</tspan><tspan x="0" dy="1.2em">11,22</tspan></text>
    </g>
  </g>
  <g transform="translate(160,78.33)">
    <g class="primitive">
      <text text-anchor="middle" dy="-0.85em">collect<tspan x="0" dy="1.2em">-1,11,505</tspan><tspan x="0" dy="1.2em">11,11</tspan></text>
    </g>
  </g>
  <g transform="translate(120,28.33)">
    <g class="primitive">
      <text text-anchor="middle" dy="-0.85em">go<tspan x="0" dy="1.2em">-1,374,-1</tspan><tspan x="0" dy="1.2em">5,5</tspan></text>
    </g>
  </g>
  <g transform="translate(100,31.67)">
    <g class="primitive">
      <text text-anchor="middle" dy="-0.85em">deposit<tspan x="0" dy="1.2em">-1,10,374</tspan><tspan x="0" dy="1.2em">5,5</tspan></text>
    </g>
  </g>
  <g transform="translate(80,31.67)">
    <g class="primitive">
      <text text-anchor="middle" dy="-0.85em">carry<tspan x="0" dy="1.2em">-1,10,374</tspan><tspan x="0" dy="1.2em">0,5</tspan></text>
    </g>
  </g>
  <g transform="translate(60,31.67)">
    <g class="primitive">
      <text text-anchor="middle" dy="-0.85em">collect<tspan x="0" dy="1.2em">-1,10,252</tspan><tspan x="0" dy="1.2em">0,0</tspan></text>
    </g>
  </g>
  <g transform="translate(220,58.33)">
    <g class="primitive">
      <text text-anchor="middle" dy="-0.85em">go<tspan x="0" dy="1.2em">-1,502,-1</tspan><tspan x="0" dy="1.2em">46,46</tspan></text>
    </g>
  </g>
  <g transform="translate(200,61.67)">
    <g class="primitive">
      <text text-anchor="middle" dy="-0.85em">deposit<tspan x="0" dy="1.2em">-1,9,502</tspan><tspan x="0" dy="1.2em">46,46</tspan></text>
    </g>
  </g>
  <g transform="translate(180,61.67)">
    <g class="primitive">
      <text text-anchor="middle" dy="-0.85em">carry<tspan x="0" dy="1.2em">-1,9,502</tspan><tspan x="0" dy="1.2em">31,46</tspan></text>
    </g>
  </g>
  <g transform="translate(160,61.67)">
    <g class="primitive">
      <text text-anchor="middle" dy="-0.85em">collect<tspan x="0" dy="1.2em">-1,9,221</tspan><tspan x="0" dy="1.2em">31,31</tspan></text>
    </g>
  </g>
  <g transform="translate(240,90)">
    <g class="primitive">
      <text text-anchor="middle" dy="-0.25em">O12-355<tspan x="0" dy="1.2em">46,46</tspan></text>
    </g>
  </g>
  <g transform="translate(140,78.33)">
    <g class="primitive">
      <text text-anchor="middle" dy="-0.25em">O11-505<tspan x="0" dy="1.2em">11,11</tspan></text>
    </g>
  </g>
  <g transform="translate(40,31.67)">
    <g class="primitive">
      <text text-anchor="middle" dy="-0.25em">O10-252<tspan x="0" dy="1.2em">0,0</tspan></text>
    </g>
  </g>
  <g transform="translate(140,61.67)">
    <g class="primitive">
      <text text-anchor="middle" dy="-0.25em">O9-221<tspan x="0" dy="1.2em">31,31</tspan></text>
    </g>
  </g>
  <g transform="translate(40,10)">
    <g class="primitive">
      <text text-anchor="middle" dy="-0.25em">O8-380<tspan x="0" dy="1.2em">0,0</tspan></text>
    </g>
  </g>
  <g transform="translate(40,53.33)">
    <g class="primitive">
      <text text-anchor="middle" dy="-0.25em">O7-63<tspan x="0" dy="1.2em">0,0</tspan></text>
    </g>
  </g>
  <g transform="translate(320,85)">
    <g class="primitive">
      <text text-anchor="middle" dy="-0.25em">op440<tspan x="0" dy="1.2em">58,58</tspan></text>
    </g>
  </g>
  <g transform="translate(120,78.33)">
    <g class="primitive">
      <text text-anchor="middle" dy="-0.25em">op439<tspan x="0" dy="1.2em">11,11</tspan></text>
    </g>
  </g>
  <g transform="translate(120,61.67)">
    <g class="primitive">
      <text text-anchor="middle" dy="-0.25em">op438<tspan x="0" dy="1.2em">31,31</tspan></text>
    </g>
  </g>
  <g transform="translate(220,90)">
    <g class="primitive">
      <text text-anchor="middle" dy="-0.25em">op437<tspan x="0" dy="1.2em">46,46</tspan></text>
    </g>
  </g>
</g>
</svg>
