<?xml version="1.0" encoding="UTF-8"?>
<svg xmlns="http://www.w3.org/2000/svg"
     xmlns:xlink="http://www.w3.org/1999/xlink"
     xmlns:gadfly="http://www.gadflyjl.org/ns"
     version="1.2"
     width="440mm" height="279.72mm" viewBox="0 0 440 279.72"
     stroke="none"
     fill="#000000"
     stroke-width="0.3"
     font-size="3.88"
>
<defs>
  <marker id="arrow" markerWidth="15" markerHeight="7" refX="5" refY="3.5" orient="auto" markerUnits="strokeWidth">
    <path d="M0,0 L15,3.5 L0,7 z" stroke="context-stroke" fill="context-stroke"/>
  </marker>
</defs>
<g stroke="#000000" id="img-c7823a36-1">
  <g transform="translate(30,10)">
    <path fill="none" d="M-5.6,0 L 5.6 0" class="primitive"/>
  </g>
  <g transform="translate(30,152.64)">
    <path fill="none" d="M-5.6,0 L 5.6 0" class="primitive"/>
  </g>
  <g transform="translate(30,41.11)">
    <path fill="none" d="M-5.6,0 L 5.6 0" class="primitive"/>
  </g>
  <g transform="translate(30,133.47)">
    <path fill="none" d="M-5.6,0 L 5.6 0" class="primitive"/>
  </g>
  <g transform="translate(30,83.61)">
    <path fill="none" d="M-5.6,0 L 5.6 0" class="primitive"/>
  </g>
  <g transform="translate(30,115.83)">
    <path fill="none" d="M-5.6,0 L 5.6 0" class="primitive"/>
  </g>
  <g transform="translate(30,62.22)">
    <path fill="none" d="M-5.6,0 L 5.6 0" class="primitive"/>
  </g>
  <g transform="translate(30,99.72)">
    <path fill="none" d="M-5.6,0 L 5.6 0" class="primitive"/>
  </g>
  <g transform="translate(30,25.56)">
    <path fill="none" d="M-5.6,0 L 5.6 0" class="primitive"/>
  </g>
  <g transform="translate(410,267.22)">
    <path fill="none" d="M-6.06,-1.52 L 6.06 1.52" class="primitive"/>
  </g>
  <g transform="translate(410,262.22)">
    <path fill="none" d="M-6.06,1.52 L 6.06 -1.52" class="primitive"/>
  </g>
  <g transform="translate(390,264.72)">
    <path fill="none" d="M-5.6,0 L 5.6 0" class="primitive"/>
  </g>
  <g transform="translate(370,264.72)">
    <path fill="none" d="M-5.6,0 L 5.6 0" class="primitive"/>
  </g>
  <g transform="translate(110,109.58)">
    <path fill="none" d="M-9.68,-66.28 L 9.68 66.28" class="primitive"/>
  </g>
  <g transform="translate(110,116.25)">
    <path fill="none" d="M-9.71,-72.94 L 9.71 72.94" class="primitive"/>
  </g>
  <g transform="translate(90,41.11)">
    <path fill="none" d="M-5.6,0 L 5.6 0" class="primitive"/>
  </g>
  <g transform="translate(70,41.11)">
    <path fill="none" d="M-5.6,0 L 5.6 0" class="primitive"/>
  </g>
  <g transform="translate(110,96.81)">
    <path fill="none" d="M-9.69,-69.06 L 9.69 69.06" class="primitive"/>
  </g>
  <g transform="translate(110,108.47)">
    <path fill="none" d="M-9.74,-80.72 L 9.74 80.72" class="primitive"/>
  </g>
  <g transform="translate(90,25.56)">
    <path fill="none" d="M-5.6,0 L 5.6 0" class="primitive"/>
  </g>
  <g transform="translate(70,25.56)">
    <path fill="none" d="M-5.6,0 L 5.6 0" class="primitive"/>
  </g>
  <g transform="translate(110,84.03)">
    <path fill="none" d="M-9.7,-71.83 L 9.7 71.83" class="primitive"/>
  </g>
  <g transform="translate(110,100.69)">
    <path fill="none" d="M-9.76,-88.5 L 9.76 88.5" class="primitive"/>
  </g>
  <g transform="translate(90,10)">
    <path fill="none" d="M-5.6,0 L 5.6 0" class="primitive"/>
  </g>
  <g transform="translate(70,10)">
    <path fill="none" d="M-5.6,0 L 5.6 0" class="primitive"/>
  </g>
  <g transform="translate(110,150.35)">
    <path fill="none" d="M-6,1.38 L 6 -1.38" class="primitive"/>
  </g>
  <g transform="translate(110,198.26)">
    <path fill="none" d="M-9.52,-43.44 L 9.52 43.44" class="primitive"/>
  </g>
  <g transform="translate(90,152.64)">
    <path fill="none" d="M-5.6,0 L 5.6 0" class="primitive"/>
  </g>
  <g transform="translate(70,152.64)">
    <path fill="none" d="M-5.6,0 L 5.6 0" class="primitive"/>
  </g>
  <g transform="translate(110,131.18)">
    <path fill="none" d="M-6,1.38 L 6 -1.38" class="primitive"/>
  </g>
  <g transform="translate(110,188.68)">
    <path fill="none" d="M-9.6,-53.02 L 9.6 53.02" class="primitive"/>
  </g>
  <g transform="translate(90,133.47)">
    <path fill="none" d="M-5.6,0 L 5.6 0" class="primitive"/>
  </g>
  <g transform="translate(70,133.47)">
    <path fill="none" d="M-5.6,0 L 5.6 0" class="primitive"/>
  </g>
  <g transform="translate(110,114.31)">
    <path fill="none" d="M-5.79,0.88 L 5.79 -0.88" class="primitive"/>
  </g>
  <g transform="translate(110,170.69)">
    <path fill="none" d="M-9.6,-52.67 L 9.6 52.67" class="primitive"/>
  </g>
  <g transform="translate(90,115.83)">
    <path fill="none" d="M-5.6,0 L 5.6 0" class="primitive"/>
  </g>
  <g transform="translate(70,115.83)">
    <path fill="none" d="M-5.6,0 L 5.6 0" class="primitive"/>
  </g>
  <g transform="translate(110,98.19)">
    <path fill="none" d="M-5.79,0.88 L 5.79 -0.88" class="primitive"/>
  </g>
  <g transform="translate(110,162.64)">
    <path fill="none" d="M-9.65,-60.72 L 9.65 60.72" class="primitive"/>
  </g>
  <g transform="translate(90,99.72)">
    <path fill="none" d="M-5.6,0 L 5.6 0" class="primitive"/>
  </g>
  <g transform="translate(70,99.72)">
    <path fill="none" d="M-5.6,0 L 5.6 0" class="primitive"/>
  </g>
  <g transform="translate(110,82.08)">
    <path fill="none" d="M-5.79,0.88 L 5.79 -0.88" class="primitive"/>
  </g>
  <g transform="translate(110,154.58)">
    <path fill="none" d="M-9.69,-68.78 L 9.69 68.78" class="primitive"/>
  </g>
  <g transform="translate(90,83.61)">
    <path fill="none" d="M-5.6,0 L 5.6 0" class="primitive"/>
  </g>
  <g transform="translate(70,83.61)">
    <path fill="none" d="M-5.6,0 L 5.6 0" class="primitive"/>
  </g>
  <g transform="translate(110,58.06)">
    <path fill="none" d="M-6.62,2.76 L 6.62 -2.76" class="primitive"/>
  </g>
  <g transform="translate(110,135.14)">
    <path fill="none" d="M-9.7,-70.72 L 9.7 70.72" class="primitive"/>
  </g>
  <g transform="translate(90,62.22)">
    <path fill="none" d="M-5.6,0 L 5.6 0" class="primitive"/>
  </g>
  <g transform="translate(70,62.22)">
    <path fill="none" d="M-5.6,0 L 5.6 0" class="primitive"/>
  </g>
  <g transform="translate(210,241.81)">
    <path fill="none" d="M-5.94,1.24 L 5.94 -1.24" class="primitive"/>
  </g>
  <g transform="translate(210,248.47)">
    <path fill="none" d="M-6.76,-3.1 L 6.76 3.1" class="primitive"/>
  </g>
  <g transform="translate(190,243.89)">
    <path fill="none" d="M-5.6,0 L 5.6 0" class="primitive"/>
  </g>
  <g transform="translate(170,243.89)">
    <path fill="none" d="M-5.6,0 L 5.6 0" class="primitive"/>
  </g>
  <g transform="translate(210,223.47)">
    <path fill="none" d="M-5.94,1.24 L 5.94 -1.24" class="primitive"/>
  </g>
  <g transform="translate(210,239.31)">
    <path fill="none" d="M-8.5,-11.68 L 8.5 11.68" class="primitive"/>
  </g>
  <g transform="translate(190,225.56)">
    <path fill="none" d="M-5.6,0 L 5.6 0" class="primitive"/>
  </g>
  <g transform="translate(170,225.56)">
    <path fill="none" d="M-5.6,0 L 5.6 0" class="primitive"/>
  </g>
  <g transform="translate(310,251.39)">
    <path fill="none" d="M-5.83,0.97 L 5.83 -0.97" class="primitive"/>
  </g>
  <g transform="translate(310,258.89)">
    <path fill="none" d="M-7.14,-4.16 L 7.14 4.16" class="primitive"/>
  </g>
  <g transform="translate(290,253.06)">
    <path fill="none" d="M-5.6,0 L 5.6 0" class="primitive"/>
  </g>
  <g transform="translate(270,253.06)">
    <path fill="none" d="M-5.6,0 L 5.6 0" class="primitive"/>
  </g>
  <g transform="translate(210,206.39)">
    <path fill="none" d="M-5.83,0.97 L 5.83 -0.97" class="primitive"/>
  </g>
  <g transform="translate(260,236.39)">
    <path fill="none" d="M-56.8,-26.82 L 56.8 26.82" class="primitive"/>
  </g>
  <g transform="translate(190,208.06)">
    <path fill="none" d="M-5.6,0 L 5.6 0" class="primitive"/>
  </g>
  <g transform="translate(170,208.06)">
    <path fill="none" d="M-5.6,0 L 5.6 0" class="primitive"/>
  </g>
  <g transform="translate(210,189.72)">
    <path fill="none" d="M-5.83,0.97 L 5.83 -0.97" class="primitive"/>
  </g>
  <g transform="translate(260,228.06)">
    <path fill="none" d="M-57.21,-34.96 L 57.21 34.96" class="primitive"/>
  </g>
  <g transform="translate(190,191.39)">
    <path fill="none" d="M-5.6,0 L 5.6 0" class="primitive"/>
  </g>
  <g transform="translate(170,191.39)">
    <path fill="none" d="M-5.6,0 L 5.6 0" class="primitive"/>
  </g>
  <g transform="translate(350,264.72)">
    <path fill="none" d="M-5.6,0 L 5.6 0" class="primitive"/>
  </g>
  <g transform="translate(250,253.06)">
    <path fill="none" d="M-5.6,0 L 5.6 0" class="primitive"/>
  </g>
  <g transform="translate(150,208.06)">
    <path fill="none" d="M-5.6,0 L 5.6 0" class="primitive"/>
  </g>
  <g transform="translate(150,191.39)">
    <path fill="none" d="M-5.6,0 L 5.6 0" class="primitive"/>
  </g>
  <g transform="translate(150,243.89)">
    <path fill="none" d="M-5.6,0 L 5.6 0" class="primitive"/>
  </g>
  <g transform="translate(150,225.56)">
    <path fill="none" d="M-5.6,0 L 5.6 0" class="primitive"/>
  </g>
  <g transform="translate(50,62.22)">
    <path fill="none" d="M-5.6,0 L 5.6 0" class="primitive"/>
  </g>
  <g transform="translate(50,115.83)">
    <path fill="none" d="M-5.6,0 L 5.6 0" class="primitive"/>
  </g>
  <g transform="translate(50,99.72)">
    <path fill="none" d="M-5.6,0 L 5.6 0" class="primitive"/>
  </g>
  <g transform="translate(50,83.61)">
    <path fill="none" d="M-5.6,0 L 5.6 0" class="primitive"/>
  </g>
  <g transform="translate(50,152.64)">
    <path fill="none" d="M-5.6,0 L 5.6 0" class="primitive"/>
  </g>
  <g transform="translate(50,133.47)">
    <path fill="none" d="M-5.6,0 L 5.6 0" class="primitive"/>
  </g>
  <g transform="translate(50,41.11)">
    <path fill="none" d="M-5.6,0 L 5.6 0" class="primitive"/>
  </g>
  <g transform="translate(50,25.56)">
    <path fill="none" d="M-5.6,0 L 5.6 0" class="primitive"/>
  </g>
  <g transform="translate(50,10)">
    <path fill="none" d="M-5.6,0 L 5.6 0" class="primitive"/>
  </g>
  <g transform="translate(130,191.39)">
    <path fill="none" d="M-5.6,0 L 5.6 0" class="primitive"/>
  </g>
  <g transform="translate(130,243.89)">
    <path fill="none" d="M-5.6,0 L 5.6 0" class="primitive"/>
  </g>
  <g transform="translate(130,225.56)">
    <path fill="none" d="M-5.6,0 L 5.6 0" class="primitive"/>
  </g>
  <g transform="translate(130,208.06)">
    <path fill="none" d="M-5.6,0 L 5.6 0" class="primitive"/>
  </g>
  <g transform="translate(230,253.06)">
    <path fill="none" d="M-5.6,0 L 5.6 0" class="primitive"/>
  </g>
  <g transform="translate(330,264.72)">
    <path fill="none" d="M-5.6,0 L 5.6 0" class="primitive"/>
  </g>
</g>
<g fill="#FF0000" id="img-c7823a36-2">
  <g transform="translate(20,10)">
    <circle cx="0" cy="0" r="4" class="primitive"/>
  </g>
</g>
<g fill="#FF0000" id="img-c7823a36-3">
  <g transform="translate(20,152.64)">
    <circle cx="0" cy="0" r="4" class="primitive"/>
  </g>
</g>
<g fill="#FF0000" id="img-c7823a36-4">
  <g transform="translate(20,41.11)">
    <circle cx="0" cy="0" r="4" class="primitive"/>
  </g>
</g>
<g fill="#FF0000" id="img-c7823a36-5">
  <g transform="translate(20,133.47)">
    <circle cx="0" cy="0" r="4" class="primitive"/>
  </g>
</g>
<g fill="#FF0000" id="img-c7823a36-6">
  <g transform="translate(20,83.61)">
    <circle cx="0" cy="0" r="4" class="primitive"/>
  </g>
</g>
<g fill="#FF0000" id="img-c7823a36-7">
  <g transform="translate(20,115.83)">
    <circle cx="0" cy="0" r="4" class="primitive"/>
  </g>
</g>
<g fill="#FF0000" id="img-c7823a36-8">
  <g transform="translate(20,62.22)">
    <circle cx="0" cy="0" r="4" class="primitive"/>
  </g>
</g>
<g fill="#FF0000" id="img-c7823a36-9">
  <g transform="translate(20,99.72)">
    <circle cx="0" cy="0" r="4" class="primitive"/>
  </g>
</g>
<g fill="#FF0000" id="img-c7823a36-10">
  <g transform="translate(20,25.56)">
    <circle cx="0" cy="0" r="4" class="primitive"/>
  </g>
</g>
<g fill="#00FFFF" id="img-c7823a36-11">
  <g transform="translate(420,269.72)">
    <circle cx="0" cy="0" r="4" class="primitive"/>
  </g>
</g>
<g fill="#00FFFF" id="img-c7823a36-12">
  <g transform="translate(400,264.72)">
    <circle cx="0" cy="0" r="4" class="primitive"/>
  </g>
</g>
<g fill="#00FFFF" id="img-c7823a36-13">
  <g transform="translate(380,264.72)">
    <circle cx="0" cy="0" r="4" class="primitive"/>
  </g>
</g>
<g fill="#00FFFF" id="img-c7823a36-14">
  <g transform="translate(360,264.72)">
    <circle cx="0" cy="0" r="4" class="primitive"/>
  </g>
</g>
<g fill="#00FFFF" id="img-c7823a36-15">
  <g transform="translate(120,178.06)">
    <circle cx="0" cy="0" r="4" class="primitive"/>
  </g>
</g>
<g fill="#00FFFF" id="img-c7823a36-16">
  <g transform="translate(100,41.11)">
    <circle cx="0" cy="0" r="4" class="primitive"/>
  </g>
</g>
<g fill="#00FFFF" id="img-c7823a36-17">
  <g transform="translate(80,41.11)">
    <circle cx="0" cy="0" r="4" class="primitive"/>
  </g>
</g>
<g fill="#00FFFF" id="img-c7823a36-18">
  <g transform="translate(60,41.11)">
    <circle cx="0" cy="0" r="4" class="primitive"/>
  </g>
</g>
<g fill="#00FFFF" id="img-c7823a36-19">
  <g transform="translate(120,168.06)">
    <circle cx="0" cy="0" r="4" class="primitive"/>
  </g>
</g>
<g fill="#00FFFF" id="img-c7823a36-20">
  <g transform="translate(100,25.56)">
    <circle cx="0" cy="0" r="4" class="primitive"/>
  </g>
</g>
<g fill="#00FFFF" id="img-c7823a36-21">
  <g transform="translate(80,25.56)">
    <circle cx="0" cy="0" r="4" class="primitive"/>
  </g>
</g>
<g fill="#00FFFF" id="img-c7823a36-22">
  <g transform="translate(60,25.56)">
    <circle cx="0" cy="0" r="4" class="primitive"/>
  </g>
</g>
<g fill="#00FFFF" id="img-c7823a36-23">
  <g transform="translate(120,158.06)">
    <circle cx="0" cy="0" r="4" class="primitive"/>
  </g>
</g>
<g fill="#00FFFF" id="img-c7823a36-24">
  <g transform="translate(100,10)">
    <circle cx="0" cy="0" r="4" class="primitive"/>
  </g>
</g>
<g fill="#00FFFF" id="img-c7823a36-25">
  <g transform="translate(80,10)">
    <circle cx="0" cy="0" r="4" class="primitive"/>
  </g>
</g>
<g fill="#00FFFF" id="img-c7823a36-26">
  <g transform="translate(60,10)">
    <circle cx="0" cy="0" r="4" class="primitive"/>
  </g>
</g>
<g fill="#00FFFF" id="img-c7823a36-27">
  <g transform="translate(120,148.06)">
    <circle cx="0" cy="0" r="4" class="primitive"/>
  </g>
</g>
<g fill="#00FFFF" id="img-c7823a36-28">
  <g transform="translate(100,152.64)">
    <circle cx="0" cy="0" r="4" class="primitive"/>
  </g>
</g>
<g fill="#00FFFF" id="img-c7823a36-29">
  <g transform="translate(80,152.64)">
    <circle cx="0" cy="0" r="4" class="primitive"/>
  </g>
</g>
<g fill="#00FFFF" id="img-c7823a36-30">
  <g transform="translate(60,152.64)">
    <circle cx="0" cy="0" r="4" class="primitive"/>
  </g>
</g>
<g fill="#00FFFF" id="img-c7823a36-31">
  <g transform="translate(120,128.89)">
    <circle cx="0" cy="0" r="4" class="primitive"/>
  </g>
</g>
<g fill="#00FFFF" id="img-c7823a36-32">
  <g transform="translate(100,133.47)">
    <circle cx="0" cy="0" r="4" class="primitive"/>
  </g>
</g>
<g fill="#00FFFF" id="img-c7823a36-33">
  <g transform="translate(80,133.47)">
    <circle cx="0" cy="0" r="4" class="primitive"/>
  </g>
</g>
<g fill="#00FFFF" id="img-c7823a36-34">
  <g transform="translate(60,133.47)">
    <circle cx="0" cy="0" r="4" class="primitive"/>
  </g>
</g>
<g fill="#00FFFF" id="img-c7823a36-35">
  <g transform="translate(120,112.78)">
    <circle cx="0" cy="0" r="4" class="primitive"/>
  </g>
</g>
<g fill="#00FFFF" id="img-c7823a36-36">
  <g transform="translate(100,115.83)">
    <circle cx="0" cy="0" r="4" class="primitive"/>
  </g>
</g>
<g fill="#00FFFF" id="img-c7823a36-37">
  <g transform="translate(80,115.83)">
    <circle cx="0" cy="0" r="4" class="primitive"/>
  </g>
</g>
<g fill="#00FFFF" id="img-c7823a36-38">
  <g transform="translate(60,115.83)">
    <circle cx="0" cy="0" r="4" class="primitive"/>
  </g>
</g>
<g fill="#00FFFF" id="img-c7823a36-39">
  <g transform="translate(120,96.67)">
    <circle cx="0" cy="0" r="4" class="primitive"/>
  </g>
</g>
<g fill="#00FFFF" id="img-c7823a36-40">
  <g transform="translate(100,99.72)">
    <circle cx="0" cy="0" r="4" class="primitive"/>
  </g>
</g>
<g fill="#00FFFF" id="img-c7823a36-41">
  <g transform="translate(80,99.72)">
    <circle cx="0" cy="0" r="4" class="primitive"/>
  </g>
</g>
<g fill="#00FFFF" id="img-c7823a36-42">
  <g transform="translate(60,99.72)">
    <circle cx="0" cy="0" r="4" class="primitive"/>
  </g>
</g>
<g fill="#00FFFF" id="img-c7823a36-43">
  <g transform="translate(120,80.56)">
    <circle cx="0" cy="0" r="4" class="primitive"/>
  </g>
</g>
<g fill="#00FFFF" id="img-c7823a36-44">
  <g transform="translate(100,83.61)">
    <circle cx="0" cy="0" r="4" class="primitive"/>
  </g>
</g>
<g fill="#00FFFF" id="img-c7823a36-45">
  <g transform="translate(80,83.61)">
    <circle cx="0" cy="0" r="4" class="primitive"/>
  </g>
</g>
<g fill="#00FFFF" id="img-c7823a36-46">
  <g transform="translate(60,83.61)">
    <circle cx="0" cy="0" r="4" class="primitive"/>
  </g>
</g>
<g fill="#00FFFF" id="img-c7823a36-47">
  <g transform="translate(120,53.89)">
    <circle cx="0" cy="0" r="4" class="primitive"/>
  </g>
</g>
<g fill="#00FFFF" id="img-c7823a36-48">
  <g transform="translate(100,62.22)">
    <circle cx="0" cy="0" r="4" class="primitive"/>
  </g>
</g>
<g fill="#00FFFF" id="img-c7823a36-49">
  <g transform="translate(80,62.22)">
    <circle cx="0" cy="0" r="4" class="primitive"/>
  </g>
</g>
<g fill="#00FFFF" id="img-c7823a36-50">
  <g transform="translate(60,62.22)">
    <circle cx="0" cy="0" r="4" class="primitive"/>
  </g>
</g>
<g fill="#00FFFF" id="img-c7823a36-51">
  <g transform="translate(220,239.72)">
    <circle cx="0" cy="0" r="4" class="primitive"/>
  </g>
</g>
<g fill="#00FFFF" id="img-c7823a36-52">
  <g transform="translate(200,243.89)">
    <circle cx="0" cy="0" r="4" class="primitive"/>
  </g>
</g>
<g fill="#00FFFF" id="img-c7823a36-53">
  <g transform="translate(180,243.89)">
    <circle cx="0" cy="0" r="4" class="primitive"/>
  </g>
</g>
<g fill="#00FFFF" id="img-c7823a36-54">
  <g transform="translate(160,243.89)">
    <circle cx="0" cy="0" r="4" class="primitive"/>
  </g>
</g>
<g fill="#00FFFF" id="img-c7823a36-55">
  <g transform="translate(220,221.39)">
    <circle cx="0" cy="0" r="4" class="primitive"/>
  </g>
</g>
<g fill="#00FFFF" id="img-c7823a36-56">
  <g transform="translate(200,225.56)">
    <circle cx="0" cy="0" r="4" class="primitive"/>
  </g>
</g>
<g fill="#00FFFF" id="img-c7823a36-57">
  <g transform="translate(180,225.56)">
    <circle cx="0" cy="0" r="4" class="primitive"/>
  </g>
</g>
<g fill="#00FFFF" id="img-c7823a36-58">
  <g transform="translate(160,225.56)">
    <circle cx="0" cy="0" r="4" class="primitive"/>
  </g>
</g>
<g fill="#00FFFF" id="img-c7823a36-59">
  <g transform="translate(320,249.72)">
    <circle cx="0" cy="0" r="4" class="primitive"/>
  </g>
</g>
<g fill="#00FFFF" id="img-c7823a36-60">
  <g transform="translate(300,253.06)">
    <circle cx="0" cy="0" r="4" class="primitive"/>
  </g>
</g>
<g fill="#00FFFF" id="img-c7823a36-61">
  <g transform="translate(280,253.06)">
    <circle cx="0" cy="0" r="4" class="primitive"/>
  </g>
</g>
<g fill="#00FFFF" id="img-c7823a36-62">
  <g transform="translate(260,253.06)">
    <circle cx="0" cy="0" r="4" class="primitive"/>
  </g>
</g>
<g fill="#00FFFF" id="img-c7823a36-63">
  <g transform="translate(220,204.72)">
    <circle cx="0" cy="0" r="4" class="primitive"/>
  </g>
</g>
<g fill="#00FFFF" id="img-c7823a36-64">
  <g transform="translate(200,208.06)">
    <circle cx="0" cy="0" r="4" class="primitive"/>
  </g>
</g>
<g fill="#00FFFF" id="img-c7823a36-65">
  <g transform="translate(180,208.06)">
    <circle cx="0" cy="0" r="4" class="primitive"/>
  </g>
</g>
<g fill="#00FFFF" id="img-c7823a36-66">
  <g transform="translate(160,208.06)">
    <circle cx="0" cy="0" r="4" class="primitive"/>
  </g>
</g>
<g fill="#00FFFF" id="img-c7823a36-67">
  <g transform="translate(220,188.06)">
    <circle cx="0" cy="0" r="4" class="primitive"/>
  </g>
</g>
<g fill="#00FFFF" id="img-c7823a36-68">
  <g transform="translate(200,191.39)">
    <circle cx="0" cy="0" r="4" class="primitive"/>
  </g>
</g>
<g fill="#00FFFF" id="img-c7823a36-69">
  <g transform="translate(180,191.39)">
    <circle cx="0" cy="0" r="4" class="primitive"/>
  </g>
</g>
<g fill="#00FFFF" id="img-c7823a36-70">
  <g transform="translate(160,191.39)">
    <circle cx="0" cy="0" r="4" class="primitive"/>
  </g>
</g>
<g fill="#FFA500" id="img-c7823a36-71">
  <g transform="translate(340,264.72)">
    <circle cx="0" cy="0" r="4" class="primitive"/>
  </g>
</g>
<g fill="#FFA500" id="img-c7823a36-72">
  <g transform="translate(240,253.06)">
    <circle cx="0" cy="0" r="4" class="primitive"/>
  </g>
</g>
<g fill="#FFA500" id="img-c7823a36-73">
  <g transform="translate(140,208.06)">
    <circle cx="0" cy="0" r="4" class="primitive"/>
  </g>
</g>
<g fill="#FFA500" id="img-c7823a36-74">
  <g transform="translate(140,191.39)">
    <circle cx="0" cy="0" r="4" class="primitive"/>
  </g>
</g>
<g fill="#FFA500" id="img-c7823a36-75">
  <g transform="translate(140,243.89)">
    <circle cx="0" cy="0" r="4" class="primitive"/>
  </g>
</g>
<g fill="#FFA500" id="img-c7823a36-76">
  <g transform="translate(140,225.56)">
    <circle cx="0" cy="0" r="4" class="primitive"/>
  </g>
</g>
<g fill="#FFA500" id="img-c7823a36-77">
  <g transform="translate(40,62.22)">
    <circle cx="0" cy="0" r="4" class="primitive"/>
  </g>
</g>
<g fill="#FFA500" id="img-c7823a36-78">
  <g transform="translate(40,115.83)">
    <circle cx="0" cy="0" r="4" class="primitive"/>
  </g>
</g>
<g fill="#FFA500" id="img-c7823a36-79">
  <g transform="translate(40,99.72)">
    <circle cx="0" cy="0" r="4" class="primitive"/>
  </g>
</g>
<g fill="#FFA500" id="img-c7823a36-80">
  <g transform="translate(40,83.61)">
    <circle cx="0" cy="0" r="4" class="primitive"/>
  </g>
</g>
<g fill="#FFA500" id="img-c7823a36-81">
  <g transform="translate(40,152.64)">
    <circle cx="0" cy="0" r="4" class="primitive"/>
  </g>
</g>
<g fill="#FFA500" id="img-c7823a36-82">
  <g transform="translate(40,133.47)">
    <circle cx="0" cy="0" r="4" class="primitive"/>
  </g>
</g>
<g fill="#FFA500" id="img-c7823a36-83">
  <g transform="translate(40,41.11)">
    <circle cx="0" cy="0" r="4" class="primitive"/>
  </g>
</g>
<g fill="#FFA500" id="img-c7823a36-84">
  <g transform="translate(40,25.56)">
    <circle cx="0" cy="0" r="4" class="primitive"/>
  </g>
</g>
<g fill="#FFA500" id="img-c7823a36-85">
  <g transform="translate(40,10)">
    <circle cx="0" cy="0" r="4" class="primitive"/>
  </g>
</g>
<g fill="#FF0000" id="img-c7823a36-86">
  <g transform="translate(420,259.72)">
    <circle cx="0" cy="0" r="4" class="primitive"/>
  </g>
</g>
<g fill="#FF0000" id="img-c7823a36-87">
  <g transform="translate(120,191.39)">
    <circle cx="0" cy="0" r="4" class="primitive"/>
  </g>
</g>
<g fill="#FF0000" id="img-c7823a36-88">
  <g transform="translate(120,243.89)">
    <circle cx="0" cy="0" r="4" class="primitive"/>
  </g>
</g>
<g fill="#FF0000" id="img-c7823a36-89">
  <g transform="translate(120,225.56)">
    <circle cx="0" cy="0" r="4" class="primitive"/>
  </g>
</g>
<g fill="#FF0000" id="img-c7823a36-90">
  <g transform="translate(120,208.06)">
    <circle cx="0" cy="0" r="4" class="primitive"/>
  </g>
</g>
<g fill="#FF0000" id="img-c7823a36-91">
  <g transform="translate(220,253.06)">
    <circle cx="0" cy="0" r="4" class="primitive"/>
  </g>
</g>
<g fill="#FF0000" id="img-c7823a36-92">
  <g transform="translate(320,264.72)">
    <circle cx="0" cy="0" r="4" class="primitive"/>
  </g>
</g>
<g font-family="futura" font-size="3.53" stroke="#000000" id="img-c7823a36-93">
  <g transform="translate(20,10)">
    <g class="primitive">
      <text text-anchor="middle" dy="-0.25em">op371<tspan x="0" dy="1.2em">0,0</tspan></text>
    </g>
  </g>
  <g transform="translate(20,152.64)">
    <g class="primitive">
      <text text-anchor="middle" dy="-0.25em">op370<tspan x="0" dy="1.2em">0,0</tspan></text>
    </g>
  </g>
  <g transform="translate(20,41.11)">
    <g class="primitive">
      <text text-anchor="middle" dy="-0.25em">op369<tspan x="0" dy="1.2em">0,0</tspan></text>
    </g>
  </g>
  <g transform="translate(20,133.47)">
    <g class="primitive">
      <text text-anchor="middle" dy="-0.25em">op368<tspan x="0" dy="1.2em">0,0</tspan></text>
    </g>
  </g>
  <g transform="translate(20,83.61)">
    <g class="primitive">
      <text text-anchor="middle" dy="-0.25em">op367<tspan x="0" dy="1.2em">0,0</tspan></text>
    </g>
  </g>
  <g transform="translate(20,115.83)">
    <g class="primitive">
      <text text-anchor="middle" dy="-0.25em">op366<tspan x="0" dy="1.2em">0,0</tspan></text>
    </g>
  </g>
  <g transform="translate(20,62.22)">
    <g class="primitive">
      <text text-anchor="middle" dy="-0.25em">op365<tspan x="0" dy="1.2em">0,0</tspan></text>
    </g>
  </g>
  <g transform="translate(20,99.72)">
    <g class="primitive">
      <text text-anchor="middle" dy="-0.25em">op364<tspan x="0" dy="1.2em">0,0</tspan></text>
    </g>
  </g>
  <g transform="translate(20,25.56)">
    <g class="primitive">
      <text text-anchor="middle" dy="-0.25em">op363<tspan x="0" dy="1.2em">0,0</tspan></text>
    </g>
  </g>
  <g transform="translate(420,269.72)">
    <g class="primitive">
      <text text-anchor="middle" dy="-0.85em">go<tspan x="0" dy="1.2em">-1,519,-1</tspan><tspan x="0" dy="1.2em">86,86</tspan></text>
    </g>
  </g>
  <g transform="translate(400,264.72)">
    <g class="primitive">
      <text text-anchor="middle" dy="-0.85em">deposit<tspan x="0" dy="1.2em">-1,30,519</tspan><tspan x="0" dy="1.2em">86,86</tspan></text>
    </g>
  </g>
  <g transform="translate(380,264.72)">
    <g class="primitive">
      <text text-anchor="middle" dy="-0.85em">carry<tspan x="0" dy="1.2em">-1,30,519</tspan><tspan x="0" dy="1.2em">50,86</tspan></text>
    </g>
  </g>
  <g transform="translate(360,264.72)">
    <g class="primitive">
      <text text-anchor="middle" dy="-0.85em">collect<tspan x="0" dy="1.2em">-1,30,136</tspan><tspan x="0" dy="1.2em">50,50</tspan></text>
    </g>
  </g>
  <g transform="translate(120,178.06)">
    <g class="primitive">
      <text text-anchor="middle" dy="-0.85em">go<tspan x="0" dy="1.2em">-1,354,-1</tspan><tspan x="0" dy="1.2em">2,2</tspan></text>
    </g>
  </g>
  <g transform="translate(100,41.11)">
    <g class="primitive">
      <text text-anchor="middle" dy="-0.85em">deposit<tspan x="0" dy="1.2em">-1,18,354</tspan><tspan x="0" dy="1.2em">2,2</tspan></text>
    </g>
  </g>
  <g transform="translate(80,41.11)">
    <g class="primitive">
      <text text-anchor="middle" dy="-0.85em">carry<tspan x="0" dy="1.2em">-1,18,354</tspan><tspan x="0" dy="1.2em">0,2</tspan></text>
    </g>
  </g>
  <g transform="translate(60,41.11)">
    <g class="primitive">
      <text text-anchor="middle" dy="-0.85em">collect<tspan x="0" dy="1.2em">-1,18,373</tspan><tspan x="0" dy="1.2em">0,0</tspan></text>
    </g>
  </g>
  <g transform="translate(120,168.06)">
    <g class="primitive">
      <text text-anchor="middle" dy="-0.85em">go<tspan x="0" dy="1.2em">-1,74,-1</tspan><tspan x="0" dy="1.2em">14,14</tspan></text>
    </g>
  </g>
  <g transform="translate(100,25.56)">
    <g class="primitive">
      <text text-anchor="middle" dy="-0.85em">deposit<tspan x="0" dy="1.2em">-1,17,74</tspan><tspan x="0" dy="1.2em">14,14</tspan></text>
    </g>
  </g>
  <g transform="translate(80,25.56)">
    <g class="primitive">
      <text text-anchor="middle" dy="-0.85em">carry<tspan x="0" dy="1.2em">-1,17,74</tspan><tspan x="0" dy="1.2em">0,14</tspan></text>
    </g>
  </g>
  <g transform="translate(60,25.56)">
    <g class="primitive">
      <text text-anchor="middle" dy="-0.85em">collect<tspan x="0" dy="1.2em">-1,17,85</tspan><tspan x="0" dy="1.2em">0,0</tspan></text>
    </g>
  </g>
  <g transform="translate(120,158.06)">
    <g class="primitive">
      <text text-anchor="middle" dy="-0.85em">go<tspan x="0" dy="1.2em">-1,557,-1</tspan><tspan x="0" dy="1.2em">31,31</tspan></text>
    </g>
  </g>
  <g transform="translate(100,10)">
    <g class="primitive">
      <text text-anchor="middle" dy="-0.85em">deposit<tspan x="0" dy="1.2em">-1,16,557</tspan><tspan x="0" dy="1.2em">31,31</tspan></text>
    </g>
  </g>
  <g transform="translate(80,10)">
    <g class="primitive">
      <text text-anchor="middle" dy="-0.85em">carry<tspan x="0" dy="1.2em">-1,16,557</tspan><tspan x="0" dy="1.2em">0,31</tspan></text>
    </g>
  </g>
  <g transform="translate(60,10)">
    <g class="primitive">
      <text text-anchor="middle" dy="-0.85em">collect<tspan x="0" dy="1.2em">-1,16,124</tspan><tspan x="0" dy="1.2em">0,0</tspan></text>
    </g>
  </g>
  <g transform="translate(120,148.06)">
    <g class="primitive">
      <text text-anchor="middle" dy="-0.85em">go<tspan x="0" dy="1.2em">-1,86,-1</tspan><tspan x="0" dy="1.2em">6,6</tspan></text>
    </g>
  </g>
  <g transform="translate(100,152.64)">
    <g class="primitive">
      <text text-anchor="middle" dy="-0.85em">deposit<tspan x="0" dy="1.2em">-1,20,86</tspan><tspan x="0" dy="1.2em">6,6</tspan></text>
    </g>
  </g>
  <g transform="translate(80,152.64)">
    <g class="primitive">
      <text text-anchor="middle" dy="-0.85em">carry<tspan x="0" dy="1.2em">-1,20,86</tspan><tspan x="0" dy="1.2em">0,6</tspan></text>
    </g>
  </g>
  <g transform="translate(60,152.64)">
    <g class="primitive">
      <text text-anchor="middle" dy="-0.85em">collect<tspan x="0" dy="1.2em">-1,20,130</tspan><tspan x="0" dy="1.2em">0,0</tspan></text>
    </g>
  </g>
  <g transform="translate(120,128.89)">
    <g class="primitive">
      <text text-anchor="middle" dy="-0.85em">go<tspan x="0" dy="1.2em">-1,226,-1</tspan><tspan x="0" dy="1.2em">17,17</tspan></text>
    </g>
  </g>
  <g transform="translate(100,133.47)">
    <g class="primitive">
      <text text-anchor="middle" dy="-0.85em">deposit<tspan x="0" dy="1.2em">-1,19,226</tspan><tspan x="0" dy="1.2em">17,17</tspan></text>
    </g>
  </g>
  <g transform="translate(80,133.47)">
    <g class="primitive">
      <text text-anchor="middle" dy="-0.85em">carry<tspan x="0" dy="1.2em">-1,19,226</tspan><tspan x="0" dy="1.2em">0,17</tspan></text>
    </g>
  </g>
  <g transform="translate(60,133.47)">
    <g class="primitive">
      <text text-anchor="middle" dy="-0.85em">collect<tspan x="0" dy="1.2em">-1,19,112</tspan><tspan x="0" dy="1.2em">0,0</tspan></text>
    </g>
  </g>
  <g transform="translate(120,112.78)">
    <g class="primitive">
      <text text-anchor="middle" dy="-0.85em">go<tspan x="0" dy="1.2em">-1,82,-1</tspan><tspan x="0" dy="1.2em">21,21</tspan></text>
    </g>
  </g>
  <g transform="translate(100,115.83)">
    <g class="primitive">
      <text text-anchor="middle" dy="-0.85em">deposit<tspan x="0" dy="1.2em">-1,23,82</tspan><tspan x="0" dy="1.2em">21,21</tspan></text>
    </g>
  </g>
  <g transform="translate(80,115.83)">
    <g class="primitive">
      <text text-anchor="middle" dy="-0.85em">carry<tspan x="0" dy="1.2em">-1,23,82</tspan><tspan x="0" dy="1.2em">0,21</tspan></text>
    </g>
  </g>
  <g transform="translate(60,115.83)">
    <g class="primitive">
      <text text-anchor="middle" dy="-0.85em">collect<tspan x="0" dy="1.2em">-1,23,369</tspan><tspan x="0" dy="1.2em">0,0</tspan></text>
    </g>
  </g>
  <g transform="translate(120,96.67)">
    <g class="primitive">
      <text text-anchor="middle" dy="-0.85em">go<tspan x="0" dy="1.2em">-1,125,-1</tspan><tspan x="0" dy="1.2em">19,19</tspan></text>
    </g>
  </g>
  <g transform="translate(100,99.72)">
    <g class="primitive">
      <text text-anchor="middle" dy="-0.85em">deposit<tspan x="0" dy="1.2em">-1,22,125</tspan><tspan x="0" dy="1.2em">19,19</tspan></text>
    </g>
  </g>
  <g transform="translate(80,99.72)">
    <g class="primitive">
      <text text-anchor="middle" dy="-0.85em">carry<tspan x="0" dy="1.2em">-1,22,125</tspan><tspan x="0" dy="1.2em">0,19</tspan></text>
    </g>
  </g>
  <g transform="translate(60,99.72)">
    <g class="primitive">
      <text text-anchor="middle" dy="-0.85em">collect<tspan x="0" dy="1.2em">-1,22,398</tspan><tspan x="0" dy="1.2em">0,0</tspan></text>
    </g>
  </g>
  <g transform="translate(120,80.56)">
    <g class="primitive">
      <text text-anchor="middle" dy="-0.85em">go<tspan x="0" dy="1.2em">-1,131,-1</tspan><tspan x="0" dy="1.2em">6,6</tspan></text>
    </g>
  </g>
  <g transform="translate(100,83.61)">
    <g class="primitive">
      <text text-anchor="middle" dy="-0.85em">deposit<tspan x="0" dy="1.2em">-1,21,131</tspan><tspan x="0" dy="1.2em">6,6</tspan></text>
    </g>
  </g>
  <g transform="translate(80,83.61)">
    <g class="primitive">
      <text text-anchor="middle" dy="-0.85em">carry<tspan x="0" dy="1.2em">-1,21,131</tspan><tspan x="0" dy="1.2em">0,6</tspan></text>
    </g>
  </g>
  <g transform="translate(60,83.61)">
    <g class="primitive">
      <text text-anchor="middle" dy="-0.85em">collect<tspan x="0" dy="1.2em">-1,21,93</tspan><tspan x="0" dy="1.2em">0,0</tspan></text>
    </g>
  </g>
  <g transform="translate(120,53.89)">
    <g class="primitive">
      <text text-anchor="middle" dy="-0.85em">go<tspan x="0" dy="1.2em">-1,103,-1</tspan><tspan x="0" dy="1.2em">20,20</tspan></text>
    </g>
  </g>
  <g transform="translate(100,62.22)">
    <g class="primitive">
      <text text-anchor="middle" dy="-0.85em">deposit<tspan x="0" dy="1.2em">-1,24,103</tspan><tspan x="0" dy="1.2em">20,20</tspan></text>
    </g>
  </g>
  <g transform="translate(80,62.22)">
    <g class="primitive">
      <text text-anchor="middle" dy="-0.85em">carry<tspan x="0" dy="1.2em">-1,24,103</tspan><tspan x="0" dy="1.2em">0,20</tspan></text>
    </g>
  </g>
  <g transform="translate(60,62.22)">
    <g class="primitive">
      <text text-anchor="middle" dy="-0.85em">collect<tspan x="0" dy="1.2em">-1,24,477</tspan><tspan x="0" dy="1.2em">0,0</tspan></text>
    </g>
  </g>
  <g transform="translate(220,239.72)">
    <g class="primitive">
      <text text-anchor="middle" dy="-0.85em">go<tspan x="0" dy="1.2em">-1,488,-1</tspan><tspan x="0" dy="1.2em">29,29</tspan></text>
    </g>
  </g>
  <g transform="translate(200,243.89)">
    <g class="primitive">
      <text text-anchor="middle" dy="-0.85em">deposit<tspan x="0" dy="1.2em">-1,26,488</tspan><tspan x="0" dy="1.2em">29,29</tspan></text>
    </g>
  </g>
  <g transform="translate(180,243.89)">
    <g class="primitive">
      <text text-anchor="middle" dy="-0.85em">carry<tspan x="0" dy="1.2em">-1,26,488</tspan><tspan x="0" dy="1.2em">17,29</tspan></text>
    </g>
  </g>
  <g transform="translate(160,243.89)">
    <g class="primitive">
      <text text-anchor="middle" dy="-0.85em">collect<tspan x="0" dy="1.2em">-1,26,520</tspan><tspan x="0" dy="1.2em">17,17</tspan></text>
    </g>
  </g>
  <g transform="translate(220,221.39)">
    <g class="primitive">
      <text text-anchor="middle" dy="-0.85em">go<tspan x="0" dy="1.2em">-1,362,-1</tspan><tspan x="0" dy="1.2em">27,27</tspan></text>
    </g>
  </g>
  <g transform="translate(200,225.56)">
    <g class="primitive">
      <text text-anchor="middle" dy="-0.85em">deposit<tspan x="0" dy="1.2em">-1,25,362</tspan><tspan x="0" dy="1.2em">27,27</tspan></text>
    </g>
  </g>
  <g transform="translate(180,225.56)">
    <g class="primitive">
      <text text-anchor="middle" dy="-0.85em">carry<tspan x="0" dy="1.2em">-1,25,362</tspan><tspan x="0" dy="1.2em">21,27</tspan></text>
    </g>
  </g>
  <g transform="translate(160,225.56)">
    <g class="primitive">
      <text text-anchor="middle" dy="-0.85em">collect<tspan x="0" dy="1.2em">-1,25,343</tspan><tspan x="0" dy="1.2em">21,21</tspan></text>
    </g>
  </g>
  <g transform="translate(320,249.72)">
    <g class="primitive">
      <text text-anchor="middle" dy="-0.85em">go<tspan x="0" dy="1.2em">-1,545,-1</tspan><tspan x="0" dy="1.2em">50,50</tspan></text>
    </g>
  </g>
  <g transform="translate(300,253.06)">
    <g class="primitive">
      <text text-anchor="middle" dy="-0.85em">deposit<tspan x="0" dy="1.2em">-1,29,545</tspan><tspan x="0" dy="1.2em">50,50</tspan></text>
    </g>
  </g>
  <g transform="translate(280,253.06)">
    <g class="primitive">
      <text text-anchor="middle" dy="-0.85em">carry<tspan x="0" dy="1.2em">-1,29,545</tspan><tspan x="0" dy="1.2em">29,50</tspan></text>
    </g>
  </g>
  <g transform="translate(260,253.06)">
    <g class="primitive">
      <text text-anchor="middle" dy="-0.85em">collect<tspan x="0" dy="1.2em">-1,29,209</tspan><tspan x="0" dy="1.2em">29,29</tspan></text>
    </g>
  </g>
  <g transform="translate(220,204.72)">
    <g class="primitive">
      <text text-anchor="middle" dy="-0.85em">go<tspan x="0" dy="1.2em">-1,523,-1</tspan><tspan x="0" dy="1.2em">27,27</tspan></text>
    </g>
  </g>
  <g transform="translate(200,208.06)">
    <g class="primitive">
      <text text-anchor="middle" dy="-0.85em">deposit<tspan x="0" dy="1.2em">-1,28,523</tspan><tspan x="0" dy="1.2em">27,27</tspan></text>
    </g>
  </g>
  <g transform="translate(180,208.06)">
    <g class="primitive">
      <text text-anchor="middle" dy="-0.85em">carry<tspan x="0" dy="1.2em">-1,28,523</tspan><tspan x="0" dy="1.2em">20,27</tspan></text>
    </g>
  </g>
  <g transform="translate(160,208.06)">
    <g class="primitive">
      <text text-anchor="middle" dy="-0.85em">collect<tspan x="0" dy="1.2em">-1,28,365</tspan><tspan x="0" dy="1.2em">20,20</tspan></text>
    </g>
  </g>
  <g transform="translate(220,188.06)">
    <g class="primitive">
      <text text-anchor="middle" dy="-0.85em">go<tspan x="0" dy="1.2em">-1,502,-1</tspan><tspan x="0" dy="1.2em">43,43</tspan></text>
    </g>
  </g>
  <g transform="translate(200,191.39)">
    <g class="primitive">
      <text text-anchor="middle" dy="-0.85em">deposit<tspan x="0" dy="1.2em">-1,27,502</tspan><tspan x="0" dy="1.2em">43,43</tspan></text>
    </g>
  </g>
  <g transform="translate(180,191.39)">
    <g class="primitive">
      <text text-anchor="middle" dy="-0.85em">carry<tspan x="0" dy="1.2em">-1,27,502</tspan><tspan x="0" dy="1.2em">31,43</tspan></text>
    </g>
  </g>
  <g transform="translate(160,191.39)">
    <g class="primitive">
      <text text-anchor="middle" dy="-0.85em">collect<tspan x="0" dy="1.2em">-1,27,258</tspan><tspan x="0" dy="1.2em">31,31</tspan></text>
    </g>
  </g>
  <g transform="translate(340,264.72)">
    <g class="primitive">
      <text text-anchor="middle" dy="-0.25em">O30-136<tspan x="0" dy="1.2em">50,50</tspan></text>
    </g>
  </g>
  <g transform="translate(240,253.06)">
    <g class="primitive">
      <text text-anchor="middle" dy="-0.25em">O29-209<tspan x="0" dy="1.2em">29,29</tspan></text>
    </g>
  </g>
  <g transform="translate(140,208.06)">
    <g class="primitive">
      <text text-anchor="middle" dy="-0.25em">O28-365<tspan x="0" dy="1.2em">20,20</tspan></text>
    </g>
  </g>
  <g transform="translate(140,191.39)">
    <g class="primitive">
      <text text-anchor="middle" dy="-0.25em">O27-258<tspan x="0" dy="1.2em">31,31</tspan></text>
    </g>
  </g>
  <g transform="translate(140,243.89)">
    <g class="primitive">
      <text text-anchor="middle" dy="-0.25em">O26-520<tspan x="0" dy="1.2em">17,17</tspan></text>
    </g>
  </g>
  <g transform="translate(140,225.56)">
    <g class="primitive">
      <text text-anchor="middle" dy="-0.25em">O25-343<tspan x="0" dy="1.2em">21,21</tspan></text>
    </g>
  </g>
  <g transform="translate(40,62.22)">
    <g class="primitive">
      <text text-anchor="middle" dy="-0.25em">O24-477<tspan x="0" dy="1.2em">0,0</tspan></text>
    </g>
  </g>
  <g transform="translate(40,115.83)">
    <g class="primitive">
      <text text-anchor="middle" dy="-0.25em">O23-369<tspan x="0" dy="1.2em">0,0</tspan></text>
    </g>
  </g>
  <g transform="translate(40,99.72)">
    <g class="primitive">
      <text text-anchor="middle" dy="-0.25em">O22-398<tspan x="0" dy="1.2em">0,0</tspan></text>
    </g>
  </g>
  <g transform="translate(40,83.61)">
    <g class="primitive">
      <text text-anchor="middle" dy="-0.25em">O21-93<tspan x="0" dy="1.2em">0,0</tspan></text>
    </g>
  </g>
  <g transform="translate(40,152.64)">
    <g class="primitive">
      <text text-anchor="middle" dy="-0.25em">O20-130<tspan x="0" dy="1.2em">0,0</tspan></text>
    </g>
  </g>
  <g transform="translate(40,133.47)">
    <g class="primitive">
      <text text-anchor="middle" dy="-0.25em">O19-112<tspan x="0" dy="1.2em">0,0</tspan></text>
    </g>
  </g>
  <g transform="translate(40,41.11)">
    <g class="primitive">
      <text text-anchor="middle" dy="-0.25em">O18-373<tspan x="0" dy="1.2em">0,0</tspan></text>
    </g>
  </g>
  <g transform="translate(40,25.56)">
    <g class="primitive">
      <text text-anchor="middle" dy="-0.25em">O17-85<tspan x="0" dy="1.2em">0,0</tspan></text>
    </g>
  </g>
  <g transform="translate(40,10)">
    <g class="primitive">
      <text text-anchor="middle" dy="-0.25em">O16-124<tspan x="0" dy="1.2em">0,0</tspan></text>
    </g>
  </g>
  <g transform="translate(420,259.72)">
    <g class="primitive">
      <text text-anchor="middle" dy="-0.25em">op362<tspan x="0" dy="1.2em">86,86</tspan></text>
    </g>
  </g>
  <g transform="translate(120,191.39)">
    <g class="primitive">
      <text text-anchor="middle" dy="-0.25em">op361<tspan x="0" dy="1.2em">31,31</tspan></text>
    </g>
  </g>
  <g transform="translate(120,243.89)">
    <g class="primitive">
      <text text-anchor="middle" dy="-0.25em">op360<tspan x="0" dy="1.2em">17,17</tspan></text>
    </g>
  </g>
  <g transform="translate(120,225.56)">
    <g class="primitive">
      <text text-anchor="middle" dy="-0.25em">op359<tspan x="0" dy="1.2em">21,21</tspan></text>
    </g>
  </g>
  <g transform="translate(120,208.06)">
    <g class="primitive">
      <text text-anchor="middle" dy="-0.25em">op358<tspan x="0" dy="1.2em">20,20</tspan></text>
    </g>
  </g>
  <g transform="translate(220,253.06)">
    <g class="primitive">
      <text text-anchor="middle" dy="-0.25em">op357<tspan x="0" dy="1.2em">29,29</tspan></text>
    </g>
  </g>
  <g transform="translate(320,264.72)">
    <g class="primitive">
      <text text-anchor="middle" dy="-0.25em">op356<tspan x="0" dy="1.2em">50,50</tspan></text>
    </g>
  </g>
</g>
</svg>
