<?xml version="1.0" encoding="UTF-8"?>
<svg xmlns="http://www.w3.org/2000/svg"
     xmlns:xlink="http://www.w3.org/1999/xlink"
     xmlns:gadfly="http://www.gadflyjl.org/ns"
     version="1.2"
     width="540mm" height="225mm" viewBox="0 0 540 225"
     stroke="none"
     fill="#000000"
     stroke-width="0.3"
     font-size="3.88"
>
<defs>
  <marker id="arrow" markerWidth="15" markerHeight="7" refX="5" refY="3.5" orient="auto" markerUnits="strokeWidth">
    <path d="M0,0 L15,3.5 L0,7 z" stroke="context-stroke" fill="context-stroke"/>
  </marker>
</defs>
<g stroke="#000000" id="img-73a8b1bb-1">
  <g transform="translate(30,82.5)">
    <path fill="none" d="M-5.6,0 L 5.6 0" class="primitive"/>
  </g>
  <g transform="translate(30,22.5)">
    <path fill="none" d="M-5.6,0 L 5.6 0" class="primitive"/>
  </g>
  <g transform="translate(30,105.83)">
    <path fill="none" d="M-5.6,0 L 5.6 0" class="primitive"/>
  </g>
  <g transform="translate(30,54.17)">
    <path fill="none" d="M-5.6,0 L 5.6 0" class="primitive"/>
  </g>
  <g transform="translate(510,212.5)">
    <path fill="none" d="M-6.06,-1.52 L 6.06 1.52" class="primitive"/>
  </g>
  <g transform="translate(510,207.5)">
    <path fill="none" d="M-6.06,1.52 L 6.06 -1.52" class="primitive"/>
  </g>
  <g transform="translate(490,210)">
    <path fill="none" d="M-5.6,0 L 5.6 0" class="primitive"/>
  </g>
  <g transform="translate(470,210)">
    <path fill="none" d="M-5.6,0 L 5.6 0" class="primitive"/>
  </g>
  <g transform="translate(110,102.08)">
    <path fill="none" d="M-8.91,-17.45 L 8.91 17.45" class="primitive"/>
  </g>
  <g transform="translate(110,130.83)">
    <path fill="none" d="M-9.55,-46.15 L 9.55 46.15" class="primitive"/>
  </g>
  <g transform="translate(90,82.5)">
    <path fill="none" d="M-5.6,0 L 5.6 0" class="primitive"/>
  </g>
  <g transform="translate(70,82.5)">
    <path fill="none" d="M-5.6,0 L 5.6 0" class="primitive"/>
  </g>
  <g transform="translate(110,82.92)">
    <path fill="none" d="M-9.25,-26.58 L 9.25 26.58" class="primitive"/>
  </g>
  <g transform="translate(110,107.5)">
    <path fill="none" d="M-9.59,-51.14 L 9.59 51.14" class="primitive"/>
  </g>
  <g transform="translate(90,54.17)">
    <path fill="none" d="M-5.6,0 L 5.6 0" class="primitive"/>
  </g>
  <g transform="translate(70,54.17)">
    <path fill="none" d="M-5.6,0 L 5.6 0" class="primitive"/>
  </g>
  <g transform="translate(110,103.75)">
    <path fill="none" d="M-5.94,1.24 L 5.94 -1.24" class="primitive"/>
  </g>
  <g transform="translate(160,149.17)">
    <path fill="none" d="M-57.5,-41.52 L 57.5 41.52" class="primitive"/>
  </g>
  <g transform="translate(90,105.83)">
    <path fill="none" d="M-5.6,0 L 5.6 0" class="primitive"/>
  </g>
  <g transform="translate(70,105.83)">
    <path fill="none" d="M-5.6,0 L 5.6 0" class="primitive"/>
  </g>
  <g transform="translate(210,177.08)">
    <path fill="none" d="M-5.94,1.24 L 5.94 -1.24" class="primitive"/>
  </g>
  <g transform="translate(210,185.83)">
    <path fill="none" d="M-7.36,-4.91 L 7.36 4.91" class="primitive"/>
  </g>
  <g transform="translate(190,179.17)">
    <path fill="none" d="M-5.6,0 L 5.6 0" class="primitive"/>
  </g>
  <g transform="translate(170,179.17)">
    <path fill="none" d="M-5.6,0 L 5.6 0" class="primitive"/>
  </g>
  <g transform="translate(210,158.75)">
    <path fill="none" d="M-5.94,1.24 L 5.94 -1.24" class="primitive"/>
  </g>
  <g transform="translate(210,176.67)">
    <path fill="none" d="M-8.68,-13.74 L 8.68 13.74" class="primitive"/>
  </g>
  <g transform="translate(190,160.83)">
    <path fill="none" d="M-5.6,0 L 5.6 0" class="primitive"/>
  </g>
  <g transform="translate(170,160.83)">
    <path fill="none" d="M-5.6,0 L 5.6 0" class="primitive"/>
  </g>
  <g transform="translate(110,16.25)">
    <path fill="none" d="M-7.25,4.53 L 7.25 -4.53" class="primitive"/>
  </g>
  <g transform="translate(110,80.83)">
    <path fill="none" d="M-9.62,-56.14 L 9.62 56.14" class="primitive"/>
  </g>
  <g transform="translate(90,22.5)">
    <path fill="none" d="M-5.6,0 L 5.6 0" class="primitive"/>
  </g>
  <g transform="translate(70,22.5)">
    <path fill="none" d="M-5.6,0 L 5.6 0" class="primitive"/>
  </g>
  <g transform="translate(310,188.75)">
    <path fill="none" d="M-6.48,2.43 L 6.48 -2.43" class="primitive"/>
  </g>
  <g transform="translate(310,198.75)">
    <path fill="none" d="M-7.25,-4.53 L 7.25 4.53" class="primitive"/>
  </g>
  <g transform="translate(290,192.5)">
    <path fill="none" d="M-5.6,0 L 5.6 0" class="primitive"/>
  </g>
  <g transform="translate(270,192.5)">
    <path fill="none" d="M-5.6,0 L 5.6 0" class="primitive"/>
  </g>
  <g transform="translate(210,135.42)">
    <path fill="none" d="M-6.48,2.43 L 6.48 -2.43" class="primitive"/>
  </g>
  <g transform="translate(260,172.08)">
    <path fill="none" d="M-57.04,-31.29 L 57.04 31.29" class="primitive"/>
  </g>
  <g transform="translate(190,139.17)">
    <path fill="none" d="M-5.6,0 L 5.6 0" class="primitive"/>
  </g>
  <g transform="translate(170,139.17)">
    <path fill="none" d="M-5.6,0 L 5.6 0" class="primitive"/>
  </g>
  <g transform="translate(410,200)">
    <path fill="none" d="M-6.89,3.44 L 6.89 -3.44" class="primitive"/>
  </g>
  <g transform="translate(410,207.5)">
    <path fill="none" d="M-6.06,-1.52 L 6.06 1.52" class="primitive"/>
  </g>
  <g transform="translate(390,205)">
    <path fill="none" d="M-5.6,0 L 5.6 0" class="primitive"/>
  </g>
  <g transform="translate(370,205)">
    <path fill="none" d="M-5.6,0 L 5.6 0" class="primitive"/>
  </g>
  <g transform="translate(450,210)">
    <path fill="none" d="M-5.6,0 L 5.6 0" class="primitive"/>
  </g>
  <g transform="translate(350,205)">
    <path fill="none" d="M-5.6,0 L 5.6 0" class="primitive"/>
  </g>
  <g transform="translate(250,192.5)">
    <path fill="none" d="M-5.6,0 L 5.6 0" class="primitive"/>
  </g>
  <g transform="translate(150,139.17)">
    <path fill="none" d="M-5.6,0 L 5.6 0" class="primitive"/>
  </g>
  <g transform="translate(50,22.5)">
    <path fill="none" d="M-5.6,0 L 5.6 0" class="primitive"/>
  </g>
  <g transform="translate(50,105.83)">
    <path fill="none" d="M-5.6,0 L 5.6 0" class="primitive"/>
  </g>
  <g transform="translate(150,179.17)">
    <path fill="none" d="M-5.6,0 L 5.6 0" class="primitive"/>
  </g>
  <g transform="translate(150,160.83)">
    <path fill="none" d="M-5.6,0 L 5.6 0" class="primitive"/>
  </g>
  <g transform="translate(50,54.17)">
    <path fill="none" d="M-5.6,0 L 5.6 0" class="primitive"/>
  </g>
  <g transform="translate(50,82.5)">
    <path fill="none" d="M-5.6,0 L 5.6 0" class="primitive"/>
  </g>
  <g transform="translate(130,179.17)">
    <path fill="none" d="M-5.6,0 L 5.6 0" class="primitive"/>
  </g>
  <g transform="translate(130,160.83)">
    <path fill="none" d="M-5.6,0 L 5.6 0" class="primitive"/>
  </g>
  <g transform="translate(230,192.5)">
    <path fill="none" d="M-5.6,0 L 5.6 0" class="primitive"/>
  </g>
  <g transform="translate(130,139.17)">
    <path fill="none" d="M-5.6,0 L 5.6 0" class="primitive"/>
  </g>
  <g transform="translate(330,205)">
    <path fill="none" d="M-5.6,0 L 5.6 0" class="primitive"/>
  </g>
  <g transform="translate(430,210)">
    <path fill="none" d="M-5.6,0 L 5.6 0" class="primitive"/>
  </g>
</g>
<g fill="#FF0000" id="img-73a8b1bb-2">
  <g transform="translate(20,82.5)">
    <circle cx="0" cy="0" r="4" class="primitive"/>
  </g>
</g>
<g fill="#FF0000" id="img-73a8b1bb-3">
  <g transform="translate(20,22.5)">
    <circle cx="0" cy="0" r="4" class="primitive"/>
  </g>
</g>
<g fill="#FF0000" id="img-73a8b1bb-4">
  <g transform="translate(20,105.83)">
    <circle cx="0" cy="0" r="4" class="primitive"/>
  </g>
</g>
<g fill="#FF0000" id="img-73a8b1bb-5">
  <g transform="translate(20,54.17)">
    <circle cx="0" cy="0" r="4" class="primitive"/>
  </g>
</g>
<g fill="#00FFFF" id="img-73a8b1bb-6">
  <g transform="translate(520,215)">
    <circle cx="0" cy="0" r="4" class="primitive"/>
  </g>
</g>
<g fill="#00FFFF" id="img-73a8b1bb-7">
  <g transform="translate(500,210)">
    <circle cx="0" cy="0" r="4" class="primitive"/>
  </g>
</g>
<g fill="#00FFFF" id="img-73a8b1bb-8">
  <g transform="translate(480,210)">
    <circle cx="0" cy="0" r="4" class="primitive"/>
  </g>
</g>
<g fill="#00FFFF" id="img-73a8b1bb-9">
  <g transform="translate(460,210)">
    <circle cx="0" cy="0" r="4" class="primitive"/>
  </g>
</g>
<g fill="#00FFFF" id="img-73a8b1bb-10">
  <g transform="translate(120,121.67)">
    <circle cx="0" cy="0" r="4" class="primitive"/>
  </g>
</g>
<g fill="#00FFFF" id="img-73a8b1bb-11">
  <g transform="translate(100,82.5)">
    <circle cx="0" cy="0" r="4" class="primitive"/>
  </g>
</g>
<g fill="#00FFFF" id="img-73a8b1bb-12">
  <g transform="translate(80,82.5)">
    <circle cx="0" cy="0" r="4" class="primitive"/>
  </g>
</g>
<g fill="#00FFFF" id="img-73a8b1bb-13">
  <g transform="translate(60,82.5)">
    <circle cx="0" cy="0" r="4" class="primitive"/>
  </g>
</g>
<g fill="#00FFFF" id="img-73a8b1bb-14">
  <g transform="translate(120,111.67)">
    <circle cx="0" cy="0" r="4" class="primitive"/>
  </g>
</g>
<g fill="#00FFFF" id="img-73a8b1bb-15">
  <g transform="translate(100,54.17)">
    <circle cx="0" cy="0" r="4" class="primitive"/>
  </g>
</g>
<g fill="#00FFFF" id="img-73a8b1bb-16">
  <g transform="translate(80,54.17)">
    <circle cx="0" cy="0" r="4" class="primitive"/>
  </g>
</g>
<g fill="#00FFFF" id="img-73a8b1bb-17">
  <g transform="translate(60,54.17)">
    <circle cx="0" cy="0" r="4" class="primitive"/>
  </g>
</g>
<g fill="#00FFFF" id="img-73a8b1bb-18">
  <g transform="translate(120,101.67)">
    <circle cx="0" cy="0" r="4" class="primitive"/>
  </g>
</g>
<g fill="#00FFFF" id="img-73a8b1bb-19">
  <g transform="translate(100,105.83)">
    <circle cx="0" cy="0" r="4" class="primitive"/>
  </g>
</g>
<g fill="#00FFFF" id="img-73a8b1bb-20">
  <g transform="translate(80,105.83)">
    <circle cx="0" cy="0" r="4" class="primitive"/>
  </g>
</g>
<g fill="#00FFFF" id="img-73a8b1bb-21">
  <g transform="translate(60,105.83)">
    <circle cx="0" cy="0" r="4" class="primitive"/>
  </g>
</g>
<g fill="#00FFFF" id="img-73a8b1bb-22">
  <g transform="translate(220,175)">
    <circle cx="0" cy="0" r="4" class="primitive"/>
  </g>
</g>
<g fill="#00FFFF" id="img-73a8b1bb-23">
  <g transform="translate(200,179.17)">
    <circle cx="0" cy="0" r="4" class="primitive"/>
  </g>
</g>
<g fill="#00FFFF" id="img-73a8b1bb-24">
  <g transform="translate(180,179.17)">
    <circle cx="0" cy="0" r="4" class="primitive"/>
  </g>
</g>
<g fill="#00FFFF" id="img-73a8b1bb-25">
  <g transform="translate(160,179.17)">
    <circle cx="0" cy="0" r="4" class="primitive"/>
  </g>
</g>
<g fill="#00FFFF" id="img-73a8b1bb-26">
  <g transform="translate(220,156.67)">
    <circle cx="0" cy="0" r="4" class="primitive"/>
  </g>
</g>
<g fill="#00FFFF" id="img-73a8b1bb-27">
  <g transform="translate(200,160.83)">
    <circle cx="0" cy="0" r="4" class="primitive"/>
  </g>
</g>
<g fill="#00FFFF" id="img-73a8b1bb-28">
  <g transform="translate(180,160.83)">
    <circle cx="0" cy="0" r="4" class="primitive"/>
  </g>
</g>
<g fill="#00FFFF" id="img-73a8b1bb-29">
  <g transform="translate(160,160.83)">
    <circle cx="0" cy="0" r="4" class="primitive"/>
  </g>
</g>
<g fill="#00FFFF" id="img-73a8b1bb-30">
  <g transform="translate(120,10)">
    <circle cx="0" cy="0" r="4" class="primitive"/>
  </g>
</g>
<g fill="#00FFFF" id="img-73a8b1bb-31">
  <g transform="translate(100,22.5)">
    <circle cx="0" cy="0" r="4" class="primitive"/>
  </g>
</g>
<g fill="#00FFFF" id="img-73a8b1bb-32">
  <g transform="translate(80,22.5)">
    <circle cx="0" cy="0" r="4" class="primitive"/>
  </g>
</g>
<g fill="#00FFFF" id="img-73a8b1bb-33">
  <g transform="translate(60,22.5)">
    <circle cx="0" cy="0" r="4" class="primitive"/>
  </g>
</g>
<g fill="#00FFFF" id="img-73a8b1bb-34">
  <g transform="translate(320,185)">
    <circle cx="0" cy="0" r="4" class="primitive"/>
  </g>
</g>
<g fill="#00FFFF" id="img-73a8b1bb-35">
  <g transform="translate(300,192.5)">
    <circle cx="0" cy="0" r="4" class="primitive"/>
  </g>
</g>
<g fill="#00FFFF" id="img-73a8b1bb-36">
  <g transform="translate(280,192.5)">
    <circle cx="0" cy="0" r="4" class="primitive"/>
  </g>
</g>
<g fill="#00FFFF" id="img-73a8b1bb-37">
  <g transform="translate(260,192.5)">
    <circle cx="0" cy="0" r="4" class="primitive"/>
  </g>
</g>
<g fill="#00FFFF" id="img-73a8b1bb-38">
  <g transform="translate(220,131.67)">
    <circle cx="0" cy="0" r="4" class="primitive"/>
  </g>
</g>
<g fill="#00FFFF" id="img-73a8b1bb-39">
  <g transform="translate(200,139.17)">
    <circle cx="0" cy="0" r="4" class="primitive"/>
  </g>
</g>
<g fill="#00FFFF" id="img-73a8b1bb-40">
  <g transform="translate(180,139.17)">
    <circle cx="0" cy="0" r="4" class="primitive"/>
  </g>
</g>
<g fill="#00FFFF" id="img-73a8b1bb-41">
  <g transform="translate(160,139.17)">
    <circle cx="0" cy="0" r="4" class="primitive"/>
  </g>
</g>
<g fill="#00FFFF" id="img-73a8b1bb-42">
  <g transform="translate(420,195)">
    <circle cx="0" cy="0" r="4" class="primitive"/>
  </g>
</g>
<g fill="#00FFFF" id="img-73a8b1bb-43">
  <g transform="translate(400,205)">
    <circle cx="0" cy="0" r="4" class="primitive"/>
  </g>
</g>
<g fill="#00FFFF" id="img-73a8b1bb-44">
  <g transform="translate(380,205)">
    <circle cx="0" cy="0" r="4" class="primitive"/>
  </g>
</g>
<g fill="#00FFFF" id="img-73a8b1bb-45">
  <g transform="translate(360,205)">
    <circle cx="0" cy="0" r="4" class="primitive"/>
  </g>
</g>
<g fill="#FFA500" id="img-73a8b1bb-46">
  <g transform="translate(440,210)">
    <circle cx="0" cy="0" r="4" class="primitive"/>
  </g>
</g>
<g fill="#FFA500" id="img-73a8b1bb-47">
  <g transform="translate(340,205)">
    <circle cx="0" cy="0" r="4" class="primitive"/>
  </g>
</g>
<g fill="#FFA500" id="img-73a8b1bb-48">
  <g transform="translate(240,192.5)">
    <circle cx="0" cy="0" r="4" class="primitive"/>
  </g>
</g>
<g fill="#FFA500" id="img-73a8b1bb-49">
  <g transform="translate(140,139.17)">
    <circle cx="0" cy="0" r="4" class="primitive"/>
  </g>
</g>
<g fill="#FFA500" id="img-73a8b1bb-50">
  <g transform="translate(40,22.5)">
    <circle cx="0" cy="0" r="4" class="primitive"/>
  </g>
</g>
<g fill="#FFA500" id="img-73a8b1bb-51">
  <g transform="translate(40,105.83)">
    <circle cx="0" cy="0" r="4" class="primitive"/>
  </g>
</g>
<g fill="#FFA500" id="img-73a8b1bb-52">
  <g transform="translate(140,179.17)">
    <circle cx="0" cy="0" r="4" class="primitive"/>
  </g>
</g>
<g fill="#FFA500" id="img-73a8b1bb-53">
  <g transform="translate(140,160.83)">
    <circle cx="0" cy="0" r="4" class="primitive"/>
  </g>
</g>
<g fill="#FFA500" id="img-73a8b1bb-54">
  <g transform="translate(40,54.17)">
    <circle cx="0" cy="0" r="4" class="primitive"/>
  </g>
</g>
<g fill="#FFA500" id="img-73a8b1bb-55">
  <g transform="translate(40,82.5)">
    <circle cx="0" cy="0" r="4" class="primitive"/>
  </g>
</g>
<g fill="#FF0000" id="img-73a8b1bb-56">
  <g transform="translate(520,205)">
    <circle cx="0" cy="0" r="4" class="primitive"/>
  </g>
</g>
<g fill="#FF0000" id="img-73a8b1bb-57">
  <g transform="translate(120,179.17)">
    <circle cx="0" cy="0" r="4" class="primitive"/>
  </g>
</g>
<g fill="#FF0000" id="img-73a8b1bb-58">
  <g transform="translate(120,160.83)">
    <circle cx="0" cy="0" r="4" class="primitive"/>
  </g>
</g>
<g fill="#FF0000" id="img-73a8b1bb-59">
  <g transform="translate(220,192.5)">
    <circle cx="0" cy="0" r="4" class="primitive"/>
  </g>
</g>
<g fill="#FF0000" id="img-73a8b1bb-60">
  <g transform="translate(120,139.17)">
    <circle cx="0" cy="0" r="4" class="primitive"/>
  </g>
</g>
<g fill="#FF0000" id="img-73a8b1bb-61">
  <g transform="translate(320,205)">
    <circle cx="0" cy="0" r="4" class="primitive"/>
  </g>
</g>
<g fill="#FF0000" id="img-73a8b1bb-62">
  <g transform="translate(420,210)">
    <circle cx="0" cy="0" r="4" class="primitive"/>
  </g>
</g>
<g font-family="futura" font-size="3.53" stroke="#000000" id="img-73a8b1bb-63">
  <g transform="translate(20,82.5)">
    <g class="primitive">
      <text text-anchor="middle" dy="-0.25em">op44<tspan x="0" dy="1.2em">0,0</tspan></text>
    </g>
  </g>
  <g transform="translate(20,22.5)">
    <g class="primitive">
      <text text-anchor="middle" dy="-0.25em">op43<tspan x="0" dy="1.2em">0,0</tspan></text>
    </g>
  </g>
  <g transform="translate(20,105.83)">
    <g class="primitive">
      <text text-anchor="middle" dy="-0.25em">op42<tspan x="0" dy="1.2em">0,0</tspan></text>
    </g>
  </g>
  <g transform="translate(20,54.17)">
    <g class="primitive">
      <text text-anchor="middle" dy="-0.25em">op41<tspan x="0" dy="1.2em">0,0</tspan></text>
    </g>
  </g>
  <g transform="translate(520,215)">
    <g class="primitive">
      <text text-anchor="middle" dy="-0.85em">go<tspan x="0" dy="1.2em">-1,379,-1</tspan><tspan x="0" dy="1.2em">88,88</tspan></text>
    </g>
  </g>
  <g transform="translate(500,210)">
    <g class="primitive">
      <text text-anchor="middle" dy="-0.85em">deposit<tspan x="0" dy="1.2em">-1,40,379</tspan><tspan x="0" dy="1.2em">88,88</tspan></text>
    </g>
  </g>
  <g transform="translate(480,210)">
    <g class="primitive">
      <text text-anchor="middle" dy="-0.85em">carry<tspan x="0" dy="1.2em">-1,40,379</tspan><tspan x="0" dy="1.2em">82,88</tspan></text>
    </g>
  </g>
  <g transform="translate(460,210)">
    <g class="primitive">
      <text text-anchor="middle" dy="-0.85em">collect<tspan x="0" dy="1.2em">-1,40,258</tspan><tspan x="0" dy="1.2em">82,82</tspan></text>
    </g>
  </g>
  <g transform="translate(120,121.67)">
    <g class="primitive">
      <text text-anchor="middle" dy="-0.85em">go<tspan x="0" dy="1.2em">-1,265,-1</tspan><tspan x="0" dy="1.2em">12,12</tspan></text>
    </g>
  </g>
  <g transform="translate(100,82.5)">
    <g class="primitive">
      <text text-anchor="middle" dy="-0.85em">deposit<tspan x="0" dy="1.2em">-1,31,265</tspan><tspan x="0" dy="1.2em">12,12</tspan></text>
    </g>
  </g>
  <g transform="translate(80,82.5)">
    <g class="primitive">
      <text text-anchor="middle" dy="-0.85em">carry<tspan x="0" dy="1.2em">-1,31,265</tspan><tspan x="0" dy="1.2em">0,12</tspan></text>
    </g>
  </g>
  <g transform="translate(60,82.5)">
    <g class="primitive">
      <text text-anchor="middle" dy="-0.85em">collect<tspan x="0" dy="1.2em">-1,31,89</tspan><tspan x="0" dy="1.2em">0,0</tspan></text>
    </g>
  </g>
  <g transform="translate(120,111.67)">
    <g class="primitive">
      <text text-anchor="middle" dy="-0.85em">go<tspan x="0" dy="1.2em">-1,411,-1</tspan><tspan x="0" dy="1.2em">27,27</tspan></text>
    </g>
  </g>
  <g transform="translate(100,54.17)">
    <g class="primitive">
      <text text-anchor="middle" dy="-0.85em">deposit<tspan x="0" dy="1.2em">-1,32,411</tspan><tspan x="0" dy="1.2em">27,27</tspan></text>
    </g>
  </g>
  <g transform="translate(80,54.17)">
    <g class="primitive">
      <text text-anchor="middle" dy="-0.85em">carry<tspan x="0" dy="1.2em">-1,32,411</tspan><tspan x="0" dy="1.2em">0,27</tspan></text>
    </g>
  </g>
  <g transform="translate(60,54.17)">
    <g class="primitive">
      <text text-anchor="middle" dy="-0.85em">collect<tspan x="0" dy="1.2em">-1,32,57</tspan><tspan x="0" dy="1.2em">0,0</tspan></text>
    </g>
  </g>
  <g transform="translate(120,101.67)">
    <g class="primitive">
      <text text-anchor="middle" dy="-0.85em">go<tspan x="0" dy="1.2em">-1,342,-1</tspan><tspan x="0" dy="1.2em">12,12</tspan></text>
    </g>
  </g>
  <g transform="translate(100,105.83)">
    <g class="primitive">
      <text text-anchor="middle" dy="-0.85em">deposit<tspan x="0" dy="1.2em">-1,35,342</tspan><tspan x="0" dy="1.2em">12,12</tspan></text>
    </g>
  </g>
  <g transform="translate(80,105.83)">
    <g class="primitive">
      <text text-anchor="middle" dy="-0.85em">carry<tspan x="0" dy="1.2em">-1,35,342</tspan><tspan x="0" dy="1.2em">0,12</tspan></text>
    </g>
  </g>
  <g transform="translate(60,105.83)">
    <g class="primitive">
      <text text-anchor="middle" dy="-0.85em">collect<tspan x="0" dy="1.2em">-1,35,373</tspan><tspan x="0" dy="1.2em">0,0</tspan></text>
    </g>
  </g>
  <g transform="translate(220,175)">
    <g class="primitive">
      <text text-anchor="middle" dy="-0.85em">go<tspan x="0" dy="1.2em">-1,506,-1</tspan><tspan x="0" dy="1.2em">24,24</tspan></text>
    </g>
  </g>
  <g transform="translate(200,179.17)">
    <g class="primitive">
      <text text-anchor="middle" dy="-0.85em">deposit<tspan x="0" dy="1.2em">-1,34,506</tspan><tspan x="0" dy="1.2em">24,24</tspan></text>
    </g>
  </g>
  <g transform="translate(180,179.17)">
    <g class="primitive">
      <text text-anchor="middle" dy="-0.85em">carry<tspan x="0" dy="1.2em">-1,34,506</tspan><tspan x="0" dy="1.2em">12,24</tspan></text>
    </g>
  </g>
  <g transform="translate(160,179.17)">
    <g class="primitive">
      <text text-anchor="middle" dy="-0.85em">collect<tspan x="0" dy="1.2em">-1,34,349</tspan><tspan x="0" dy="1.2em">12,12</tspan></text>
    </g>
  </g>
  <g transform="translate(220,156.67)">
    <g class="primitive">
      <text text-anchor="middle" dy="-0.85em">go<tspan x="0" dy="1.2em">-1,391,-1</tspan><tspan x="0" dy="1.2em">58,58</tspan></text>
    </g>
  </g>
  <g transform="translate(200,160.83)">
    <g class="primitive">
      <text text-anchor="middle" dy="-0.85em">deposit<tspan x="0" dy="1.2em">-1,33,391</tspan><tspan x="0" dy="1.2em">58,58</tspan></text>
    </g>
  </g>
  <g transform="translate(180,160.83)">
    <g class="primitive">
      <text text-anchor="middle" dy="-0.85em">carry<tspan x="0" dy="1.2em">-1,33,391</tspan><tspan x="0" dy="1.2em">27,58</tspan></text>
    </g>
  </g>
  <g transform="translate(160,160.83)">
    <g class="primitive">
      <text text-anchor="middle" dy="-0.85em">collect<tspan x="0" dy="1.2em">-1,33,81</tspan><tspan x="0" dy="1.2em">27,27</tspan></text>
    </g>
  </g>
  <g transform="translate(120,10)">
    <g class="primitive">
      <text text-anchor="middle" dy="-0.85em">go<tspan x="0" dy="1.2em">-1,374,-1</tspan><tspan x="0" dy="1.2em">20,20</tspan></text>
    </g>
  </g>
  <g transform="translate(100,22.5)">
    <g class="primitive">
      <text text-anchor="middle" dy="-0.85em">deposit<tspan x="0" dy="1.2em">-1,36,374</tspan><tspan x="0" dy="1.2em">20,20</tspan></text>
    </g>
  </g>
  <g transform="translate(80,22.5)">
    <g class="primitive">
      <text text-anchor="middle" dy="-0.85em">carry<tspan x="0" dy="1.2em">-1,36,374</tspan><tspan x="0" dy="1.2em">0,20</tspan></text>
    </g>
  </g>
  <g transform="translate(60,22.5)">
    <g class="primitive">
      <text text-anchor="middle" dy="-0.85em">collect<tspan x="0" dy="1.2em">-1,36,203</tspan><tspan x="0" dy="1.2em">0,0</tspan></text>
    </g>
  </g>
  <g transform="translate(320,185)">
    <g class="primitive">
      <text text-anchor="middle" dy="-0.85em">go<tspan x="0" dy="1.2em">-1,417,-1</tspan><tspan x="0" dy="1.2em">73,73</tspan></text>
    </g>
  </g>
  <g transform="translate(300,192.5)">
    <g class="primitive">
      <text text-anchor="middle" dy="-0.85em">deposit<tspan x="0" dy="1.2em">-1,38,417</tspan><tspan x="0" dy="1.2em">73,73</tspan></text>
    </g>
  </g>
  <g transform="translate(280,192.5)">
    <g class="primitive">
      <text text-anchor="middle" dy="-0.85em">carry<tspan x="0" dy="1.2em">-1,38,417</tspan><tspan x="0" dy="1.2em">58,73</tspan></text>
    </g>
  </g>
  <g transform="translate(260,192.5)">
    <g class="primitive">
      <text text-anchor="middle" dy="-0.85em">collect<tspan x="0" dy="1.2em">-1,38,209</tspan><tspan x="0" dy="1.2em">58,58</tspan></text>
    </g>
  </g>
  <g transform="translate(220,131.67)">
    <g class="primitive">
      <text text-anchor="middle" dy="-0.85em">go<tspan x="0" dy="1.2em">-1,523,-1</tspan><tspan x="0" dy="1.2em">29,29</tspan></text>
    </g>
  </g>
  <g transform="translate(200,139.17)">
    <g class="primitive">
      <text text-anchor="middle" dy="-0.85em">deposit<tspan x="0" dy="1.2em">-1,37,523</tspan><tspan x="0" dy="1.2em">29,29</tspan></text>
    </g>
  </g>
  <g transform="translate(180,139.17)">
    <g class="primitive">
      <text text-anchor="middle" dy="-0.85em">carry<tspan x="0" dy="1.2em">-1,37,523</tspan><tspan x="0" dy="1.2em">20,29</tspan></text>
    </g>
  </g>
  <g transform="translate(160,139.17)">
    <g class="primitive">
      <text text-anchor="middle" dy="-0.85em">collect<tspan x="0" dy="1.2em">-1,37,509</tspan><tspan x="0" dy="1.2em">20,20</tspan></text>
    </g>
  </g>
  <g transform="translate(420,195)">
    <g class="primitive">
      <text text-anchor="middle" dy="-0.85em">go<tspan x="0" dy="1.2em">-1,214,-1</tspan><tspan x="0" dy="1.2em">82,82</tspan></text>
    </g>
  </g>
  <g transform="translate(400,205)">
    <g class="primitive">
      <text text-anchor="middle" dy="-0.85em">deposit<tspan x="0" dy="1.2em">-1,39,214</tspan><tspan x="0" dy="1.2em">82,82</tspan></text>
    </g>
  </g>
  <g transform="translate(380,205)">
    <g class="primitive">
      <text text-anchor="middle" dy="-0.85em">carry<tspan x="0" dy="1.2em">-1,39,214</tspan><tspan x="0" dy="1.2em">73,82</tspan></text>
    </g>
  </g>
  <g transform="translate(360,205)">
    <g class="primitive">
      <text text-anchor="middle" dy="-0.85em">collect<tspan x="0" dy="1.2em">-1,39,130</tspan><tspan x="0" dy="1.2em">73,73</tspan></text>
    </g>
  </g>
  <g transform="translate(440,210)">
    <g class="primitive">
      <text text-anchor="middle" dy="-0.25em">O40-258<tspan x="0" dy="1.2em">82,82</tspan></text>
    </g>
  </g>
  <g transform="translate(340,205)">
    <g class="primitive">
      <text text-anchor="middle" dy="-0.25em">O39-130<tspan x="0" dy="1.2em">73,73</tspan></text>
    </g>
  </g>
  <g transform="translate(240,192.5)">
    <g class="primitive">
      <text text-anchor="middle" dy="-0.25em">O38-209<tspan x="0" dy="1.2em">58,58</tspan></text>
    </g>
  </g>
  <g transform="translate(140,139.17)">
    <g class="primitive">
      <text text-anchor="middle" dy="-0.25em">O37-509<tspan x="0" dy="1.2em">20,20</tspan></text>
    </g>
  </g>
  <g transform="translate(40,22.5)">
    <g class="primitive">
      <text text-anchor="middle" dy="-0.25em">O36-203<tspan x="0" dy="1.2em">0,0</tspan></text>
    </g>
  </g>
  <g transform="translate(40,105.83)">
    <g class="primitive">
      <text text-anchor="middle" dy="-0.25em">O35-373<tspan x="0" dy="1.2em">0,0</tspan></text>
    </g>
  </g>
  <g transform="translate(140,179.17)">
    <g class="primitive">
      <text text-anchor="middle" dy="-0.25em">O34-349<tspan x="0" dy="1.2em">12,12</tspan></text>
    </g>
  </g>
  <g transform="translate(140,160.83)">
    <g class="primitive">
      <text text-anchor="middle" dy="-0.25em">O33-81<tspan x="0" dy="1.2em">27,27</tspan></text>
    </g>
  </g>
  <g transform="translate(40,54.17)">
    <g class="primitive">
      <text text-anchor="middle" dy="-0.25em">O32-57<tspan x="0" dy="1.2em">0,0</tspan></text>
    </g>
  </g>
  <g transform="translate(40,82.5)">
    <g class="primitive">
      <text text-anchor="middle" dy="-0.25em">O31-89<tspan x="0" dy="1.2em">0,0</tspan></text>
    </g>
  </g>
  <g transform="translate(520,205)">
    <g class="primitive">
      <text text-anchor="middle" dy="-0.25em">op40<tspan x="0" dy="1.2em">88,88</tspan></text>
    </g>
  </g>
  <g transform="translate(120,179.17)">
    <g class="primitive">
      <text text-anchor="middle" dy="-0.25em">op39<tspan x="0" dy="1.2em">12,12</tspan></text>
    </g>
  </g>
  <g transform="translate(120,160.83)">
    <g class="primitive">
      <text text-anchor="middle" dy="-0.25em">op38<tspan x="0" dy="1.2em">27,27</tspan></text>
    </g>
  </g>
  <g transform="translate(220,192.5)">
    <g class="primitive">
      <text text-anchor="middle" dy="-0.25em">op37<tspan x="0" dy="1.2em">58,58</tspan></text>
    </g>
  </g>
  <g transform="translate(120,139.17)">
    <g class="primitive">
      <text text-anchor="middle" dy="-0.25em">op36<tspan x="0" dy="1.2em">20,20</tspan></text>
    </g>
  </g>
  <g transform="translate(320,205)">
    <g class="primitive">
      <text text-anchor="middle" dy="-0.25em">op35<tspan x="0" dy="1.2em">73,73</tspan></text>
    </g>
  </g>
  <g transform="translate(420,210)">
    <g class="primitive">
      <text text-anchor="middle" dy="-0.25em">op34<tspan x="0" dy="1.2em">82,82</tspan></text>
    </g>
  </g>
</g>
</svg>
