<?xml version="1.0" encoding="UTF-8"?>
<svg xmlns="http://www.w3.org/2000/svg"
     xmlns:xlink="http://www.w3.org/1999/xlink"
     xmlns:gadfly="http://www.gadflyjl.org/ns"
     version="1.2"
     width="440mm" height="100mm" viewBox="0 0 440 100"
     stroke="none"
     fill="#000000"
     stroke-width="0.3"
     font-size="3.88"
>
<defs>
  <marker id="arrow" markerWidth="15" markerHeight="7" refX="5" refY="3.5" orient="auto" markerUnits="strokeWidth">
    <path d="M0,0 L15,3.5 L0,7 z" stroke="context-stroke" fill="context-stroke"/>
  </marker>
</defs>
<g stroke="#000000" id="img-574df653-1">
  <g transform="translate(30,60)">
    <path fill="none" d="M-5.6,0 L 5.6 0" class="primitive"/>
  </g>
  <g transform="translate(30,35)">
    <path fill="none" d="M-5.6,0 L 5.6 0" class="primitive"/>
  </g>
  <g transform="translate(30,15)">
    <path fill="none" d="M-5.6,0 L 5.6 0" class="primitive"/>
  </g>
  <g transform="translate(410,87.5)">
    <path fill="none" d="M-6.06,-1.52 L 6.06 1.52" class="primitive"/>
  </g>
  <g transform="translate(410,82.5)">
    <path fill="none" d="M-6.06,1.52 L 6.06 -1.52" class="primitive"/>
  </g>
  <g transform="translate(390,85)">
    <path fill="none" d="M-5.6,0 L 5.6 0" class="primitive"/>
  </g>
  <g transform="translate(370,85)">
    <path fill="none" d="M-5.6,0 L 5.6 0" class="primitive"/>
  </g>
  <g transform="translate(110,55)">
    <path fill="none" d="M-6.89,3.44 L 6.89 -3.44" class="primitive"/>
  </g>
  <g transform="translate(110,62.5)">
    <path fill="none" d="M-6.06,-1.52 L 6.06 1.52" class="primitive"/>
  </g>
  <g transform="translate(90,60)">
    <path fill="none" d="M-5.6,0 L 5.6 0" class="primitive"/>
  </g>
  <g transform="translate(70,60)">
    <path fill="none" d="M-5.6,0 L 5.6 0" class="primitive"/>
  </g>
  <g transform="translate(210,62.5)">
    <path fill="none" d="M-6.06,1.52 L 6.06 -1.52" class="primitive"/>
  </g>
  <g transform="translate(210,72.5)">
    <path fill="none" d="M-7.56,-5.67 L 7.56 5.67" class="primitive"/>
  </g>
  <g transform="translate(190,65)">
    <path fill="none" d="M-5.6,0 L 5.6 0" class="primitive"/>
  </g>
  <g transform="translate(170,65)">
    <path fill="none" d="M-5.6,0 L 5.6 0" class="primitive"/>
  </g>
  <g transform="translate(110,32.5)">
    <path fill="none" d="M-6.06,1.52 L 6.06 -1.52" class="primitive"/>
  </g>
  <g transform="translate(160,57.5)">
    <path fill="none" d="M-56.48,-21.18 L 56.48 21.18" class="primitive"/>
  </g>
  <g transform="translate(90,35)">
    <path fill="none" d="M-5.6,0 L 5.6 0" class="primitive"/>
  </g>
  <g transform="translate(70,35)">
    <path fill="none" d="M-5.6,0 L 5.6 0" class="primitive"/>
  </g>
  <g transform="translate(110,12.5)">
    <path fill="none" d="M-6.06,1.52 L 6.06 -1.52" class="primitive"/>
  </g>
  <g transform="translate(160,47.5)">
    <path fill="none" d="M-57.02,-30.88 L 57.02 30.88" class="primitive"/>
  </g>
  <g transform="translate(90,15)">
    <path fill="none" d="M-5.6,0 L 5.6 0" class="primitive"/>
  </g>
  <g transform="translate(70,15)">
    <path fill="none" d="M-5.6,0 L 5.6 0" class="primitive"/>
  </g>
  <g transform="translate(310,75)">
    <path fill="none" d="M-6.89,3.44 L 6.89 -3.44" class="primitive"/>
  </g>
  <g transform="translate(310,82.5)">
    <path fill="none" d="M-6.06,-1.52 L 6.06 1.52" class="primitive"/>
  </g>
  <g transform="translate(290,80)">
    <path fill="none" d="M-5.6,0 L 5.6 0" class="primitive"/>
  </g>
  <g transform="translate(270,80)">
    <path fill="none" d="M-5.6,0 L 5.6 0" class="primitive"/>
  </g>
  <g transform="translate(350,85)">
    <path fill="none" d="M-5.6,0 L 5.6 0" class="primitive"/>
  </g>
  <g transform="translate(250,80)">
    <path fill="none" d="M-5.6,0 L 5.6 0" class="primitive"/>
  </g>
  <g transform="translate(150,65)">
    <path fill="none" d="M-5.6,0 L 5.6 0" class="primitive"/>
  </g>
  <g transform="translate(50,35)">
    <path fill="none" d="M-5.6,0 L 5.6 0" class="primitive"/>
  </g>
  <g transform="translate(50,15)">
    <path fill="none" d="M-5.6,0 L 5.6 0" class="primitive"/>
  </g>
  <g transform="translate(50,60)">
    <path fill="none" d="M-5.6,0 L 5.6 0" class="primitive"/>
  </g>
  <g transform="translate(130,65)">
    <path fill="none" d="M-5.6,0 L 5.6 0" class="primitive"/>
  </g>
  <g transform="translate(230,80)">
    <path fill="none" d="M-5.6,0 L 5.6 0" class="primitive"/>
  </g>
  <g transform="translate(330,85)">
    <path fill="none" d="M-5.6,0 L 5.6 0" class="primitive"/>
  </g>
</g>
<g fill="#FF0000" id="img-574df653-2">
  <g transform="translate(20,60)">
    <circle cx="0" cy="0" r="4" class="primitive"/>
  </g>
</g>
<g fill="#FF0000" id="img-574df653-3">
  <g transform="translate(20,35)">
    <circle cx="0" cy="0" r="4" class="primitive"/>
  </g>
</g>
<g fill="#FF0000" id="img-574df653-4">
  <g transform="translate(20,15)">
    <circle cx="0" cy="0" r="4" class="primitive"/>
  </g>
</g>
<g fill="#00FFFF" id="img-574df653-5">
  <g transform="translate(420,90)">
    <circle cx="0" cy="0" r="4" class="primitive"/>
  </g>
</g>
<g fill="#00FFFF" id="img-574df653-6">
  <g transform="translate(400,85)">
    <circle cx="0" cy="0" r="4" class="primitive"/>
  </g>
</g>
<g fill="#00FFFF" id="img-574df653-7">
  <g transform="translate(380,85)">
    <circle cx="0" cy="0" r="4" class="primitive"/>
  </g>
</g>
<g fill="#00FFFF" id="img-574df653-8">
  <g transform="translate(360,85)">
    <circle cx="0" cy="0" r="4" class="primitive"/>
  </g>
</g>
<g fill="#00FFFF" id="img-574df653-9">
  <g transform="translate(120,50)">
    <circle cx="0" cy="0" r="4" class="primitive"/>
  </g>
</g>
<g fill="#00FFFF" id="img-574df653-10">
  <g transform="translate(100,60)">
    <circle cx="0" cy="0" r="4" class="primitive"/>
  </g>
</g>
<g fill="#00FFFF" id="img-574df653-11">
  <g transform="translate(80,60)">
    <circle cx="0" cy="0" r="4" class="primitive"/>
  </g>
</g>
<g fill="#00FFFF" id="img-574df653-12">
  <g transform="translate(60,60)">
    <circle cx="0" cy="0" r="4" class="primitive"/>
  </g>
</g>
<g fill="#00FFFF" id="img-574df653-13">
  <g transform="translate(220,60)">
    <circle cx="0" cy="0" r="4" class="primitive"/>
  </g>
</g>
<g fill="#00FFFF" id="img-574df653-14">
  <g transform="translate(200,65)">
    <circle cx="0" cy="0" r="4" class="primitive"/>
  </g>
</g>
<g fill="#00FFFF" id="img-574df653-15">
  <g transform="translate(180,65)">
    <circle cx="0" cy="0" r="4" class="primitive"/>
  </g>
</g>
<g fill="#00FFFF" id="img-574df653-16">
  <g transform="translate(160,65)">
    <circle cx="0" cy="0" r="4" class="primitive"/>
  </g>
</g>
<g fill="#00FFFF" id="img-574df653-17">
  <g transform="translate(120,30)">
    <circle cx="0" cy="0" r="4" class="primitive"/>
  </g>
</g>
<g fill="#00FFFF" id="img-574df653-18">
  <g transform="translate(100,35)">
    <circle cx="0" cy="0" r="4" class="primitive"/>
  </g>
</g>
<g fill="#00FFFF" id="img-574df653-19">
  <g transform="translate(80,35)">
    <circle cx="0" cy="0" r="4" class="primitive"/>
  </g>
</g>
<g fill="#00FFFF" id="img-574df653-20">
  <g transform="translate(60,35)">
    <circle cx="0" cy="0" r="4" class="primitive"/>
  </g>
</g>
<g fill="#00FFFF" id="img-574df653-21">
  <g transform="translate(120,10)">
    <circle cx="0" cy="0" r="4" class="primitive"/>
  </g>
</g>
<g fill="#00FFFF" id="img-574df653-22">
  <g transform="translate(100,15)">
    <circle cx="0" cy="0" r="4" class="primitive"/>
  </g>
</g>
<g fill="#00FFFF" id="img-574df653-23">
  <g transform="translate(80,15)">
    <circle cx="0" cy="0" r="4" class="primitive"/>
  </g>
</g>
<g fill="#00FFFF" id="img-574df653-24">
  <g transform="translate(60,15)">
    <circle cx="0" cy="0" r="4" class="primitive"/>
  </g>
</g>
<g fill="#00FFFF" id="img-574df653-25">
  <g transform="translate(320,70)">
    <circle cx="0" cy="0" r="4" class="primitive"/>
  </g>
</g>
<g fill="#00FFFF" id="img-574df653-26">
  <g transform="translate(300,80)">
    <circle cx="0" cy="0" r="4" class="primitive"/>
  </g>
</g>
<g fill="#00FFFF" id="img-574df653-27">
  <g transform="translate(280,80)">
    <circle cx="0" cy="0" r="4" class="primitive"/>
  </g>
</g>
<g fill="#00FFFF" id="img-574df653-28">
  <g transform="translate(260,80)">
    <circle cx="0" cy="0" r="4" class="primitive"/>
  </g>
</g>
<g fill="#FFA500" id="img-574df653-29">
  <g transform="translate(340,85)">
    <circle cx="0" cy="0" r="4" class="primitive"/>
  </g>
</g>
<g fill="#FFA500" id="img-574df653-30">
  <g transform="translate(240,80)">
    <circle cx="0" cy="0" r="4" class="primitive"/>
  </g>
</g>
<g fill="#FFA500" id="img-574df653-31">
  <g transform="translate(140,65)">
    <circle cx="0" cy="0" r="4" class="primitive"/>
  </g>
</g>
<g fill="#FFA500" id="img-574df653-32">
  <g transform="translate(40,35)">
    <circle cx="0" cy="0" r="4" class="primitive"/>
  </g>
</g>
<g fill="#FFA500" id="img-574df653-33">
  <g transform="translate(40,15)">
    <circle cx="0" cy="0" r="4" class="primitive"/>
  </g>
</g>
<g fill="#FFA500" id="img-574df653-34">
  <g transform="translate(40,60)">
    <circle cx="0" cy="0" r="4" class="primitive"/>
  </g>
</g>
<g fill="#FF0000" id="img-574df653-35">
  <g transform="translate(420,80)">
    <circle cx="0" cy="0" r="4" class="primitive"/>
  </g>
</g>
<g fill="#FF0000" id="img-574df653-36">
  <g transform="translate(120,65)">
    <circle cx="0" cy="0" r="4" class="primitive"/>
  </g>
</g>
<g fill="#FF0000" id="img-574df653-37">
  <g transform="translate(220,80)">
    <circle cx="0" cy="0" r="4" class="primitive"/>
  </g>
</g>
<g fill="#FF0000" id="img-574df653-38">
  <g transform="translate(320,85)">
    <circle cx="0" cy="0" r="4" class="primitive"/>
  </g>
</g>
<g font-family="futura" font-size="3.53" stroke="#000000" id="img-574df653-39">
  <g transform="translate(20,60)">
    <g class="primitive">
      <text text-anchor="middle" dy="-0.25em">op457<tspan x="0" dy="1.2em">0,0</tspan></text>
    </g>
  </g>
  <g transform="translate(20,35)">
    <g class="primitive">
      <text text-anchor="middle" dy="-0.25em">op456<tspan x="0" dy="1.2em">0,0</tspan></text>
    </g>
  </g>
  <g transform="translate(20,15)">
    <g class="primitive">
      <text text-anchor="middle" dy="-0.25em">op455<tspan x="0" dy="1.2em">0,0</tspan></text>
    </g>
  </g>
  <g transform="translate(420,90)">
    <g class="primitive">
      <text text-anchor="middle" dy="-0.85em">go<tspan x="0" dy="1.2em">-1,111,-1</tspan><tspan x="0" dy="1.2em">46,46</tspan></text>
    </g>
  </g>
  <g transform="translate(400,85)">
    <g class="primitive">
      <text text-anchor="middle" dy="-0.85em">deposit<tspan x="0" dy="1.2em">-1,24,111</tspan><tspan x="0" dy="1.2em">46,46</tspan></text>
    </g>
  </g>
  <g transform="translate(380,85)">
    <g class="primitive">
      <text text-anchor="middle" dy="-0.85em">carry<tspan x="0" dy="1.2em">-1,24,111</tspan><tspan x="0" dy="1.2em">45,46</tspan></text>
    </g>
  </g>
  <g transform="translate(360,85)">
    <g class="primitive">
      <text text-anchor="middle" dy="-0.85em">collect<tspan x="0" dy="1.2em">-1,24,93</tspan><tspan x="0" dy="1.2em">45,45</tspan></text>
    </g>
  </g>
  <g transform="translate(120,50)">
    <g class="primitive">
      <text text-anchor="middle" dy="-0.85em">go<tspan x="0" dy="1.2em">-1,391,-1</tspan><tspan x="0" dy="1.2em">6,6</tspan></text>
    </g>
  </g>
  <g transform="translate(100,60)">
    <g class="primitive">
      <text text-anchor="middle" dy="-0.85em">deposit<tspan x="0" dy="1.2em">-1,19,391</tspan><tspan x="0" dy="1.2em">6,6</tspan></text>
    </g>
  </g>
  <g transform="translate(80,60)">
    <g class="primitive">
      <text text-anchor="middle" dy="-0.85em">carry<tspan x="0" dy="1.2em">-1,19,391</tspan><tspan x="0" dy="1.2em">0,6</tspan></text>
    </g>
  </g>
  <g transform="translate(60,60)">
    <g class="primitive">
      <text text-anchor="middle" dy="-0.85em">collect<tspan x="0" dy="1.2em">-1,19,410</tspan><tspan x="0" dy="1.2em">0,0</tspan></text>
    </g>
  </g>
  <g transform="translate(220,60)">
    <g class="primitive">
      <text text-anchor="middle" dy="-0.85em">go<tspan x="0" dy="1.2em">-1,387,-1</tspan><tspan x="0" dy="1.2em">15,15</tspan></text>
    </g>
  </g>
  <g transform="translate(200,65)">
    <g class="primitive">
      <text text-anchor="middle" dy="-0.85em">deposit<tspan x="0" dy="1.2em">-1,22,387</tspan><tspan x="0" dy="1.2em">15,15</tspan></text>
    </g>
  </g>
  <g transform="translate(180,65)">
    <g class="primitive">
      <text text-anchor="middle" dy="-0.85em">carry<tspan x="0" dy="1.2em">-1,22,387</tspan><tspan x="0" dy="1.2em">6,15</tspan></text>
    </g>
  </g>
  <g transform="translate(160,65)">
    <g class="primitive">
      <text text-anchor="middle" dy="-0.85em">collect<tspan x="0" dy="1.2em">-1,22,373</tspan><tspan x="0" dy="1.2em">6,6</tspan></text>
    </g>
  </g>
  <g transform="translate(120,30)">
    <g class="primitive">
      <text text-anchor="middle" dy="-0.85em">go<tspan x="0" dy="1.2em">-1,208,-1</tspan><tspan x="0" dy="1.2em">10,10</tspan></text>
    </g>
  </g>
  <g transform="translate(100,35)">
    <g class="primitive">
      <text text-anchor="middle" dy="-0.85em">deposit<tspan x="0" dy="1.2em">-1,21,208</tspan><tspan x="0" dy="1.2em">10,10</tspan></text>
    </g>
  </g>
  <g transform="translate(80,35)">
    <g class="primitive">
      <text text-anchor="middle" dy="-0.85em">carry<tspan x="0" dy="1.2em">-1,21,208</tspan><tspan x="0" dy="1.2em">0,10</tspan></text>
    </g>
  </g>
  <g transform="translate(60,35)">
    <g class="primitive">
      <text text-anchor="middle" dy="-0.85em">collect<tspan x="0" dy="1.2em">-1,21,388</tspan><tspan x="0" dy="1.2em">0,0</tspan></text>
    </g>
  </g>
  <g transform="translate(120,10)">
    <g class="primitive">
      <text text-anchor="middle" dy="-0.85em">go<tspan x="0" dy="1.2em">-1,374,-1</tspan><tspan x="0" dy="1.2em">27,27</tspan></text>
    </g>
  </g>
  <g transform="translate(100,15)">
    <g class="primitive">
      <text text-anchor="middle" dy="-0.85em">deposit<tspan x="0" dy="1.2em">-1,20,374</tspan><tspan x="0" dy="1.2em">27,27</tspan></text>
    </g>
  </g>
  <g transform="translate(80,15)">
    <g class="primitive">
      <text text-anchor="middle" dy="-0.85em">carry<tspan x="0" dy="1.2em">-1,20,374</tspan><tspan x="0" dy="1.2em">0,27</tspan></text>
    </g>
  </g>
  <g transform="translate(60,15)">
    <g class="primitive">
      <text text-anchor="middle" dy="-0.85em">collect<tspan x="0" dy="1.2em">-1,20,501</tspan><tspan x="0" dy="1.2em">0,0</tspan></text>
    </g>
  </g>
  <g transform="translate(320,70)">
    <g class="primitive">
      <text text-anchor="middle" dy="-0.85em">go<tspan x="0" dy="1.2em">-1,379,-1</tspan><tspan x="0" dy="1.2em">45,45</tspan></text>
    </g>
  </g>
  <g transform="translate(300,80)">
    <g class="primitive">
      <text text-anchor="middle" dy="-0.85em">deposit<tspan x="0" dy="1.2em">-1,23,379</tspan><tspan x="0" dy="1.2em">45,45</tspan></text>
    </g>
  </g>
  <g transform="translate(280,80)">
    <g class="primitive">
      <text text-anchor="middle" dy="-0.85em">carry<tspan x="0" dy="1.2em">-1,23,379</tspan><tspan x="0" dy="1.2em">27,45</tspan></text>
    </g>
  </g>
  <g transform="translate(260,80)">
    <g class="primitive">
      <text text-anchor="middle" dy="-0.85em">collect<tspan x="0" dy="1.2em">-1,23,489</tspan><tspan x="0" dy="1.2em">27,27</tspan></text>
    </g>
  </g>
  <g transform="translate(340,85)">
    <g class="primitive">
      <text text-anchor="middle" dy="-0.25em">O24-93<tspan x="0" dy="1.2em">45,45</tspan></text>
    </g>
  </g>
  <g transform="translate(240,80)">
    <g class="primitive">
      <text text-anchor="middle" dy="-0.25em">O23-489<tspan x="0" dy="1.2em">27,27</tspan></text>
    </g>
  </g>
  <g transform="translate(140,65)">
    <g class="primitive">
      <text text-anchor="middle" dy="-0.25em">O22-373<tspan x="0" dy="1.2em">6,6</tspan></text>
    </g>
  </g>
  <g transform="translate(40,35)">
    <g class="primitive">
      <text text-anchor="middle" dy="-0.25em">O21-388<tspan x="0" dy="1.2em">0,0</tspan></text>
    </g>
  </g>
  <g transform="translate(40,15)">
    <g class="primitive">
      <text text-anchor="middle" dy="-0.25em">O20-501<tspan x="0" dy="1.2em">0,0</tspan></text>
    </g>
  </g>
  <g transform="translate(40,60)">
    <g class="primitive">
      <text text-anchor="middle" dy="-0.25em">O19-410<tspan x="0" dy="1.2em">0,0</tspan></text>
    </g>
  </g>
  <g transform="translate(420,80)">
    <g class="primitive">
      <text text-anchor="middle" dy="-0.25em">op454<tspan x="0" dy="1.2em">46,46</tspan></text>
    </g>
  </g>
  <g transform="translate(120,65)">
    <g class="primitive">
      <text text-anchor="middle" dy="-0.25em">op453<tspan x="0" dy="1.2em">6,6</tspan></text>
    </g>
  </g>
  <g transform="translate(220,80)">
    <g class="primitive">
      <text text-anchor="middle" dy="-0.25em">op452<tspan x="0" dy="1.2em">27,27</tspan></text>
    </g>
  </g>
  <g transform="translate(320,85)">
    <g class="primitive">
      <text text-anchor="middle" dy="-0.25em">op451<tspan x="0" dy="1.2em">45,45</tspan></text>
    </g>
  </g>
</g>
</svg>
