<?xml version="1.0" encoding="UTF-8"?>
<svg xmlns="http://www.w3.org/2000/svg"
     xmlns:xlink="http://www.w3.org/1999/xlink"
     xmlns:gadfly="http://www.gadflyjl.org/ns"
     version="1.2"
     width="940mm" height="155mm" viewBox="0 0 940 155"
     stroke="none"
     fill="#000000"
     stroke-width="0.3"
     font-size="3.88"
>
<defs>
  <marker id="arrow" markerWidth="15" markerHeight="7" refX="5" refY="3.5" orient="auto" markerUnits="strokeWidth">
    <path d="M0,0 L15,3.5 L0,7 z" stroke="context-stroke" fill="context-stroke"/>
  </marker>
</defs>
<g stroke="#000000" id="img-8c10c81b-1">
  <g transform="translate(30,82.5)">
    <path fill="none" d="M-5.6,0 L 5.6 0" class="primitive"/>
  </g>
  <g transform="translate(30,27.5)">
    <path fill="none" d="M-5.6,0 L 5.6 0" class="primitive"/>
  </g>
  <g transform="translate(910,142.5)">
    <path fill="none" d="M-6.06,-1.52 L 6.06 1.52" class="primitive"/>
  </g>
  <g transform="translate(910,137.5)">
    <path fill="none" d="M-6.06,1.52 L 6.06 -1.52" class="primitive"/>
  </g>
  <g transform="translate(890,140)">
    <path fill="none" d="M-5.6,0 L 5.6 0" class="primitive"/>
  </g>
  <g transform="translate(870,140)">
    <path fill="none" d="M-5.6,0 L 5.6 0" class="primitive"/>
  </g>
  <g transform="translate(110,68.75)">
    <path fill="none" d="M-8.5,11.68 L 8.5 -11.68" class="primitive"/>
  </g>
  <g transform="translate(110,85)">
    <path fill="none" d="M-6.06,-1.52 L 6.06 1.52" class="primitive"/>
  </g>
  <g transform="translate(90,82.5)">
    <path fill="none" d="M-5.6,0 L 5.6 0" class="primitive"/>
  </g>
  <g transform="translate(70,82.5)">
    <path fill="none" d="M-5.6,0 L 5.6 0" class="primitive"/>
  </g>
  <g transform="translate(210,76.25)">
    <path fill="none" d="M-8.21,9.24 L 8.21 -9.24" class="primitive"/>
  </g>
  <g transform="translate(210,90)">
    <path fill="none" d="M-6.06,-1.52 L 6.06 1.52" class="primitive"/>
  </g>
  <g transform="translate(190,87.5)">
    <path fill="none" d="M-5.6,0 L 5.6 0" class="primitive"/>
  </g>
  <g transform="translate(170,87.5)">
    <path fill="none" d="M-5.6,0 L 5.6 0" class="primitive"/>
  </g>
  <g transform="translate(310,83.75)">
    <path fill="none" d="M-7.82,6.84 L 7.82 -6.84" class="primitive"/>
  </g>
  <g transform="translate(310,103.75)">
    <path fill="none" d="M-8.21,-9.24 L 8.21 9.24" class="primitive"/>
  </g>
  <g transform="translate(290,92.5)">
    <path fill="none" d="M-5.6,0 L 5.6 0" class="primitive"/>
  </g>
  <g transform="translate(270,92.5)">
    <path fill="none" d="M-5.6,0 L 5.6 0" class="primitive"/>
  </g>
  <g transform="translate(110,18.75)">
    <path fill="none" d="M-7.82,6.84 L 7.82 -6.84" class="primitive"/>
  </g>
  <g transform="translate(210,71.25)">
    <path fill="none" d="M-106.56,-42.38 L 106.56 42.38" class="primitive"/>
  </g>
  <g transform="translate(90,27.5)">
    <path fill="none" d="M-5.6,0 L 5.6 0" class="primitive"/>
  </g>
  <g transform="translate(70,27.5)">
    <path fill="none" d="M-5.6,0 L 5.6 0" class="primitive"/>
  </g>
  <g transform="translate(410,100)">
    <path fill="none" d="M-8.61,12.91 L 8.61 -12.91" class="primitive"/>
  </g>
  <g transform="translate(410,117.5)">
    <path fill="none" d="M-6.06,-1.52 L 6.06 1.52" class="primitive"/>
  </g>
  <g transform="translate(390,115)">
    <path fill="none" d="M-5.6,0 L 5.6 0" class="primitive"/>
  </g>
  <g transform="translate(370,115)">
    <path fill="none" d="M-5.6,0 L 5.6 0" class="primitive"/>
  </g>
  <g transform="translate(510,107.5)">
    <path fill="none" d="M-8.37,10.46 L 8.37 -10.46" class="primitive"/>
  </g>
  <g transform="translate(510,122.5)">
    <path fill="none" d="M-6.06,-1.52 L 6.06 1.52" class="primitive"/>
  </g>
  <g transform="translate(490,120)">
    <path fill="none" d="M-5.6,0 L 5.6 0" class="primitive"/>
  </g>
  <g transform="translate(470,120)">
    <path fill="none" d="M-5.6,0 L 5.6 0" class="primitive"/>
  </g>
  <g transform="translate(610,115)">
    <path fill="none" d="M-8.03,8.03 L 8.03 -8.03" class="primitive"/>
  </g>
  <g transform="translate(610,127.5)">
    <path fill="none" d="M-6.06,-1.52 L 6.06 1.52" class="primitive"/>
  </g>
  <g transform="translate(590,125)">
    <path fill="none" d="M-5.6,0 L 5.6 0" class="primitive"/>
  </g>
  <g transform="translate(570,125)">
    <path fill="none" d="M-5.6,0 L 5.6 0" class="primitive"/>
  </g>
  <g transform="translate(710,122.5)">
    <path fill="none" d="M-7.56,5.67 L 7.56 -5.67" class="primitive"/>
  </g>
  <g transform="translate(710,132.5)">
    <path fill="none" d="M-6.06,-1.52 L 6.06 1.52" class="primitive"/>
  </g>
  <g transform="translate(690,130)">
    <path fill="none" d="M-5.6,0 L 5.6 0" class="primitive"/>
  </g>
  <g transform="translate(670,130)">
    <path fill="none" d="M-5.6,0 L 5.6 0" class="primitive"/>
  </g>
  <g transform="translate(810,130)">
    <path fill="none" d="M-6.89,3.44 L 6.89 -3.44" class="primitive"/>
  </g>
  <g transform="translate(810,137.5)">
    <path fill="none" d="M-6.06,-1.52 L 6.06 1.52" class="primitive"/>
  </g>
  <g transform="translate(790,135)">
    <path fill="none" d="M-5.6,0 L 5.6 0" class="primitive"/>
  </g>
  <g transform="translate(770,135)">
    <path fill="none" d="M-5.6,0 L 5.6 0" class="primitive"/>
  </g>
  <g transform="translate(850,140)">
    <path fill="none" d="M-5.6,0 L 5.6 0" class="primitive"/>
  </g>
  <g transform="translate(750,135)">
    <path fill="none" d="M-5.6,0 L 5.6 0" class="primitive"/>
  </g>
  <g transform="translate(650,130)">
    <path fill="none" d="M-5.6,0 L 5.6 0" class="primitive"/>
  </g>
  <g transform="translate(550,125)">
    <path fill="none" d="M-5.6,0 L 5.6 0" class="primitive"/>
  </g>
  <g transform="translate(450,120)">
    <path fill="none" d="M-5.6,0 L 5.6 0" class="primitive"/>
  </g>
  <g transform="translate(350,115)">
    <path fill="none" d="M-5.6,0 L 5.6 0" class="primitive"/>
  </g>
  <g transform="translate(250,92.5)">
    <path fill="none" d="M-5.6,0 L 5.6 0" class="primitive"/>
  </g>
  <g transform="translate(50,27.5)">
    <path fill="none" d="M-5.6,0 L 5.6 0" class="primitive"/>
  </g>
  <g transform="translate(150,87.5)">
    <path fill="none" d="M-5.6,0 L 5.6 0" class="primitive"/>
  </g>
  <g transform="translate(50,82.5)">
    <path fill="none" d="M-5.6,0 L 5.6 0" class="primitive"/>
  </g>
  <g transform="translate(130,87.5)">
    <path fill="none" d="M-5.6,0 L 5.6 0" class="primitive"/>
  </g>
  <g transform="translate(230,92.5)">
    <path fill="none" d="M-5.6,0 L 5.6 0" class="primitive"/>
  </g>
  <g transform="translate(330,115)">
    <path fill="none" d="M-5.6,0 L 5.6 0" class="primitive"/>
  </g>
  <g transform="translate(430,120)">
    <path fill="none" d="M-5.6,0 L 5.6 0" class="primitive"/>
  </g>
  <g transform="translate(530,125)">
    <path fill="none" d="M-5.6,0 L 5.6 0" class="primitive"/>
  </g>
  <g transform="translate(630,130)">
    <path fill="none" d="M-5.6,0 L 5.6 0" class="primitive"/>
  </g>
  <g transform="translate(730,135)">
    <path fill="none" d="M-5.6,0 L 5.6 0" class="primitive"/>
  </g>
  <g transform="translate(830,140)">
    <path fill="none" d="M-5.6,0 L 5.6 0" class="primitive"/>
  </g>
</g>
<g fill="#FF0000" id="img-8c10c81b-2">
  <g transform="translate(20,82.5)">
    <circle cx="0" cy="0" r="4" class="primitive"/>
  </g>
</g>
<g fill="#FF0000" id="img-8c10c81b-3">
  <g transform="translate(20,27.5)">
    <circle cx="0" cy="0" r="4" class="primitive"/>
  </g>
</g>
<g fill="#00FFFF" id="img-8c10c81b-4">
  <g transform="translate(920,145)">
    <circle cx="0" cy="0" r="4" class="primitive"/>
  </g>
</g>
<g fill="#00FFFF" id="img-8c10c81b-5">
  <g transform="translate(900,140)">
    <circle cx="0" cy="0" r="4" class="primitive"/>
  </g>
</g>
<g fill="#00FFFF" id="img-8c10c81b-6">
  <g transform="translate(880,140)">
    <circle cx="0" cy="0" r="4" class="primitive"/>
  </g>
</g>
<g fill="#00FFFF" id="img-8c10c81b-7">
  <g transform="translate(860,140)">
    <circle cx="0" cy="0" r="4" class="primitive"/>
  </g>
</g>
<g fill="#00FFFF" id="img-8c10c81b-8">
  <g transform="translate(120,55)">
    <circle cx="0" cy="0" r="4" class="primitive"/>
  </g>
</g>
<g fill="#00FFFF" id="img-8c10c81b-9">
  <g transform="translate(100,82.5)">
    <circle cx="0" cy="0" r="4" class="primitive"/>
  </g>
</g>
<g fill="#00FFFF" id="img-8c10c81b-10">
  <g transform="translate(80,82.5)">
    <circle cx="0" cy="0" r="4" class="primitive"/>
  </g>
</g>
<g fill="#00FFFF" id="img-8c10c81b-11">
  <g transform="translate(60,82.5)">
    <circle cx="0" cy="0" r="4" class="primitive"/>
  </g>
</g>
<g fill="#00FFFF" id="img-8c10c81b-12">
  <g transform="translate(220,65)">
    <circle cx="0" cy="0" r="4" class="primitive"/>
  </g>
</g>
<g fill="#00FFFF" id="img-8c10c81b-13">
  <g transform="translate(200,87.5)">
    <circle cx="0" cy="0" r="4" class="primitive"/>
  </g>
</g>
<g fill="#00FFFF" id="img-8c10c81b-14">
  <g transform="translate(180,87.5)">
    <circle cx="0" cy="0" r="4" class="primitive"/>
  </g>
</g>
<g fill="#00FFFF" id="img-8c10c81b-15">
  <g transform="translate(160,87.5)">
    <circle cx="0" cy="0" r="4" class="primitive"/>
  </g>
</g>
<g fill="#00FFFF" id="img-8c10c81b-16">
  <g transform="translate(320,75)">
    <circle cx="0" cy="0" r="4" class="primitive"/>
  </g>
</g>
<g fill="#00FFFF" id="img-8c10c81b-17">
  <g transform="translate(300,92.5)">
    <circle cx="0" cy="0" r="4" class="primitive"/>
  </g>
</g>
<g fill="#00FFFF" id="img-8c10c81b-18">
  <g transform="translate(280,92.5)">
    <circle cx="0" cy="0" r="4" class="primitive"/>
  </g>
</g>
<g fill="#00FFFF" id="img-8c10c81b-19">
  <g transform="translate(260,92.5)">
    <circle cx="0" cy="0" r="4" class="primitive"/>
  </g>
</g>
<g fill="#00FFFF" id="img-8c10c81b-20">
  <g transform="translate(120,10)">
    <circle cx="0" cy="0" r="4" class="primitive"/>
  </g>
</g>
<g fill="#00FFFF" id="img-8c10c81b-21">
  <g transform="translate(100,27.5)">
    <circle cx="0" cy="0" r="4" class="primitive"/>
  </g>
</g>
<g fill="#00FFFF" id="img-8c10c81b-22">
  <g transform="translate(80,27.5)">
    <circle cx="0" cy="0" r="4" class="primitive"/>
  </g>
</g>
<g fill="#00FFFF" id="img-8c10c81b-23">
  <g transform="translate(60,27.5)">
    <circle cx="0" cy="0" r="4" class="primitive"/>
  </g>
</g>
<g fill="#00FFFF" id="img-8c10c81b-24">
  <g transform="translate(420,85)">
    <circle cx="0" cy="0" r="4" class="primitive"/>
  </g>
</g>
<g fill="#00FFFF" id="img-8c10c81b-25">
  <g transform="translate(400,115)">
    <circle cx="0" cy="0" r="4" class="primitive"/>
  </g>
</g>
<g fill="#00FFFF" id="img-8c10c81b-26">
  <g transform="translate(380,115)">
    <circle cx="0" cy="0" r="4" class="primitive"/>
  </g>
</g>
<g fill="#00FFFF" id="img-8c10c81b-27">
  <g transform="translate(360,115)">
    <circle cx="0" cy="0" r="4" class="primitive"/>
  </g>
</g>
<g fill="#00FFFF" id="img-8c10c81b-28">
  <g transform="translate(520,95)">
    <circle cx="0" cy="0" r="4" class="primitive"/>
  </g>
</g>
<g fill="#00FFFF" id="img-8c10c81b-29">
  <g transform="translate(500,120)">
    <circle cx="0" cy="0" r="4" class="primitive"/>
  </g>
</g>
<g fill="#00FFFF" id="img-8c10c81b-30">
  <g transform="translate(480,120)">
    <circle cx="0" cy="0" r="4" class="primitive"/>
  </g>
</g>
<g fill="#00FFFF" id="img-8c10c81b-31">
  <g transform="translate(460,120)">
    <circle cx="0" cy="0" r="4" class="primitive"/>
  </g>
</g>
<g fill="#00FFFF" id="img-8c10c81b-32">
  <g transform="translate(620,105)">
    <circle cx="0" cy="0" r="4" class="primitive"/>
  </g>
</g>
<g fill="#00FFFF" id="img-8c10c81b-33">
  <g transform="translate(600,125)">
    <circle cx="0" cy="0" r="4" class="primitive"/>
  </g>
</g>
<g fill="#00FFFF" id="img-8c10c81b-34">
  <g transform="translate(580,125)">
    <circle cx="0" cy="0" r="4" class="primitive"/>
  </g>
</g>
<g fill="#00FFFF" id="img-8c10c81b-35">
  <g transform="translate(560,125)">
    <circle cx="0" cy="0" r="4" class="primitive"/>
  </g>
</g>
<g fill="#00FFFF" id="img-8c10c81b-36">
  <g transform="translate(720,115)">
    <circle cx="0" cy="0" r="4" class="primitive"/>
  </g>
</g>
<g fill="#00FFFF" id="img-8c10c81b-37">
  <g transform="translate(700,130)">
    <circle cx="0" cy="0" r="4" class="primitive"/>
  </g>
</g>
<g fill="#00FFFF" id="img-8c10c81b-38">
  <g transform="translate(680,130)">
    <circle cx="0" cy="0" r="4" class="primitive"/>
  </g>
</g>
<g fill="#00FFFF" id="img-8c10c81b-39">
  <g transform="translate(660,130)">
    <circle cx="0" cy="0" r="4" class="primitive"/>
  </g>
</g>
<g fill="#00FFFF" id="img-8c10c81b-40">
  <g transform="translate(820,125)">
    <circle cx="0" cy="0" r="4" class="primitive"/>
  </g>
</g>
<g fill="#00FFFF" id="img-8c10c81b-41">
  <g transform="translate(800,135)">
    <circle cx="0" cy="0" r="4" class="primitive"/>
  </g>
</g>
<g fill="#00FFFF" id="img-8c10c81b-42">
  <g transform="translate(780,135)">
    <circle cx="0" cy="0" r="4" class="primitive"/>
  </g>
</g>
<g fill="#00FFFF" id="img-8c10c81b-43">
  <g transform="translate(760,135)">
    <circle cx="0" cy="0" r="4" class="primitive"/>
  </g>
</g>
<g fill="#FFA500" id="img-8c10c81b-44">
  <g transform="translate(840,140)">
    <circle cx="0" cy="0" r="4" class="primitive"/>
  </g>
</g>
<g fill="#FFA500" id="img-8c10c81b-45">
  <g transform="translate(740,135)">
    <circle cx="0" cy="0" r="4" class="primitive"/>
  </g>
</g>
<g fill="#FFA500" id="img-8c10c81b-46">
  <g transform="translate(640,130)">
    <circle cx="0" cy="0" r="4" class="primitive"/>
  </g>
</g>
<g fill="#FFA500" id="img-8c10c81b-47">
  <g transform="translate(540,125)">
    <circle cx="0" cy="0" r="4" class="primitive"/>
  </g>
</g>
<g fill="#FFA500" id="img-8c10c81b-48">
  <g transform="translate(440,120)">
    <circle cx="0" cy="0" r="4" class="primitive"/>
  </g>
</g>
<g fill="#FFA500" id="img-8c10c81b-49">
  <g transform="translate(340,115)">
    <circle cx="0" cy="0" r="4" class="primitive"/>
  </g>
</g>
<g fill="#FFA500" id="img-8c10c81b-50">
  <g transform="translate(240,92.5)">
    <circle cx="0" cy="0" r="4" class="primitive"/>
  </g>
</g>
<g fill="#FFA500" id="img-8c10c81b-51">
  <g transform="translate(40,27.5)">
    <circle cx="0" cy="0" r="4" class="primitive"/>
  </g>
</g>
<g fill="#FFA500" id="img-8c10c81b-52">
  <g transform="translate(140,87.5)">
    <circle cx="0" cy="0" r="4" class="primitive"/>
  </g>
</g>
<g fill="#FFA500" id="img-8c10c81b-53">
  <g transform="translate(40,82.5)">
    <circle cx="0" cy="0" r="4" class="primitive"/>
  </g>
</g>
<g fill="#FF0000" id="img-8c10c81b-54">
  <g transform="translate(920,135)">
    <circle cx="0" cy="0" r="4" class="primitive"/>
  </g>
</g>
<g fill="#FF0000" id="img-8c10c81b-55">
  <g transform="translate(120,87.5)">
    <circle cx="0" cy="0" r="4" class="primitive"/>
  </g>
</g>
<g fill="#FF0000" id="img-8c10c81b-56">
  <g transform="translate(220,92.5)">
    <circle cx="0" cy="0" r="4" class="primitive"/>
  </g>
</g>
<g fill="#FF0000" id="img-8c10c81b-57">
  <g transform="translate(320,115)">
    <circle cx="0" cy="0" r="4" class="primitive"/>
  </g>
</g>
<g fill="#FF0000" id="img-8c10c81b-58">
  <g transform="translate(420,120)">
    <circle cx="0" cy="0" r="4" class="primitive"/>
  </g>
</g>
<g fill="#FF0000" id="img-8c10c81b-59">
  <g transform="translate(520,125)">
    <circle cx="0" cy="0" r="4" class="primitive"/>
  </g>
</g>
<g fill="#FF0000" id="img-8c10c81b-60">
  <g transform="translate(620,130)">
    <circle cx="0" cy="0" r="4" class="primitive"/>
  </g>
</g>
<g fill="#FF0000" id="img-8c10c81b-61">
  <g transform="translate(720,135)">
    <circle cx="0" cy="0" r="4" class="primitive"/>
  </g>
</g>
<g fill="#FF0000" id="img-8c10c81b-62">
  <g transform="translate(820,140)">
    <circle cx="0" cy="0" r="4" class="primitive"/>
  </g>
</g>
<g font-family="futura" font-size="3.53" stroke="#000000" id="img-8c10c81b-63">
  <g transform="translate(20,82.5)">
    <g class="primitive">
      <text text-anchor="middle" dy="-0.25em">op33<tspan x="0" dy="1.2em">0,0</tspan></text>
    </g>
  </g>
  <g transform="translate(20,27.5)">
    <g class="primitive">
      <text text-anchor="middle" dy="-0.25em">op32<tspan x="0" dy="1.2em">0,0</tspan></text>
    </g>
  </g>
  <g transform="translate(920,145)">
    <g class="primitive">
      <text text-anchor="middle" dy="-0.85em">go<tspan x="0" dy="1.2em">-1,399,-1</tspan><tspan x="0" dy="1.2em">149,149</tspan></text>
    </g>
  </g>
  <g transform="translate(900,140)">
    <g class="primitive">
      <text text-anchor="middle" dy="-0.85em">deposit<tspan x="0" dy="1.2em">-1,30,399</tspan><tspan x="0" dy="1.2em">149,149</tspan></text>
    </g>
  </g>
  <g transform="translate(880,140)">
    <g class="primitive">
      <text text-anchor="middle" dy="-0.85em">carry<tspan x="0" dy="1.2em">-1,30,399</tspan><tspan x="0" dy="1.2em">134,149</tspan></text>
    </g>
  </g>
  <g transform="translate(860,140)">
    <g class="primitive">
      <text text-anchor="middle" dy="-0.85em">collect<tspan x="0" dy="1.2em">-1,30,118</tspan><tspan x="0" dy="1.2em">134,134</tspan></text>
    </g>
  </g>
  <g transform="translate(120,55)">
    <g class="primitive">
      <text text-anchor="middle" dy="-0.85em">go<tspan x="0" dy="1.2em">-1,383,-1</tspan><tspan x="0" dy="1.2em">18,18</tspan></text>
    </g>
  </g>
  <g transform="translate(100,82.5)">
    <g class="primitive">
      <text text-anchor="middle" dy="-0.85em">deposit<tspan x="0" dy="1.2em">-1,21,383</tspan><tspan x="0" dy="1.2em">18,18</tspan></text>
    </g>
  </g>
  <g transform="translate(80,82.5)">
    <g class="primitive">
      <text text-anchor="middle" dy="-0.85em">carry<tspan x="0" dy="1.2em">-1,21,383</tspan><tspan x="0" dy="1.2em">0,18</tspan></text>
    </g>
  </g>
  <g transform="translate(60,82.5)">
    <g class="primitive">
      <text text-anchor="middle" dy="-0.85em">collect<tspan x="0" dy="1.2em">-1,21,130</tspan><tspan x="0" dy="1.2em">0,0</tspan></text>
    </g>
  </g>
  <g transform="translate(220,65)">
    <g class="primitive">
      <text text-anchor="middle" dy="-0.85em">go<tspan x="0" dy="1.2em">-1,531,-1</tspan><tspan x="0" dy="1.2em">43,43</tspan></text>
    </g>
  </g>
  <g transform="translate(200,87.5)">
    <g class="primitive">
      <text text-anchor="middle" dy="-0.85em">deposit<tspan x="0" dy="1.2em">-1,22,531</tspan><tspan x="0" dy="1.2em">43,43</tspan></text>
    </g>
  </g>
  <g transform="translate(180,87.5)">
    <g class="primitive">
      <text text-anchor="middle" dy="-0.85em">carry<tspan x="0" dy="1.2em">-1,22,531</tspan><tspan x="0" dy="1.2em">18,43</tspan></text>
    </g>
  </g>
  <g transform="translate(160,87.5)">
    <g class="primitive">
      <text text-anchor="middle" dy="-0.85em">collect<tspan x="0" dy="1.2em">-1,22,89</tspan><tspan x="0" dy="1.2em">18,18</tspan></text>
    </g>
  </g>
  <g transform="translate(320,75)">
    <g class="primitive">
      <text text-anchor="middle" dy="-0.85em">go<tspan x="0" dy="1.2em">-1,379,-1</tspan><tspan x="0" dy="1.2em">57,57</tspan></text>
    </g>
  </g>
  <g transform="translate(300,92.5)">
    <g class="primitive">
      <text text-anchor="middle" dy="-0.85em">deposit<tspan x="0" dy="1.2em">-1,24,379</tspan><tspan x="0" dy="1.2em">57,57</tspan></text>
    </g>
  </g>
  <g transform="translate(280,92.5)">
    <g class="primitive">
      <text text-anchor="middle" dy="-0.85em">carry<tspan x="0" dy="1.2em">-1,24,379</tspan><tspan x="0" dy="1.2em">43,57</tspan></text>
    </g>
  </g>
  <g transform="translate(260,92.5)">
    <g class="primitive">
      <text text-anchor="middle" dy="-0.85em">collect<tspan x="0" dy="1.2em">-1,24,410</tspan><tspan x="0" dy="1.2em">43,43</tspan></text>
    </g>
  </g>
  <g transform="translate(120,10)">
    <g class="primitive">
      <text text-anchor="middle" dy="-0.85em">go<tspan x="0" dy="1.2em">-1,74,-1</tspan><tspan x="0" dy="1.2em">5,5</tspan></text>
    </g>
  </g>
  <g transform="translate(100,27.5)">
    <g class="primitive">
      <text text-anchor="middle" dy="-0.85em">deposit<tspan x="0" dy="1.2em">-1,23,74</tspan><tspan x="0" dy="1.2em">5,5</tspan></text>
    </g>
  </g>
  <g transform="translate(80,27.5)">
    <g class="primitive">
      <text text-anchor="middle" dy="-0.85em">carry<tspan x="0" dy="1.2em">-1,23,74</tspan><tspan x="0" dy="1.2em">0,5</tspan></text>
    </g>
  </g>
  <g transform="translate(60,27.5)">
    <g class="primitive">
      <text text-anchor="middle" dy="-0.85em">collect<tspan x="0" dy="1.2em">-1,23,69</tspan><tspan x="0" dy="1.2em">0,0</tspan></text>
    </g>
  </g>
  <g transform="translate(420,85)">
    <g class="primitive">
      <text text-anchor="middle" dy="-0.85em">go<tspan x="0" dy="1.2em">-1,259,-1</tspan><tspan x="0" dy="1.2em">66,66</tspan></text>
    </g>
  </g>
  <g transform="translate(400,115)">
    <g class="primitive">
      <text text-anchor="middle" dy="-0.85em">deposit<tspan x="0" dy="1.2em">-1,25,259</tspan><tspan x="0" dy="1.2em">66,66</tspan></text>
    </g>
  </g>
  <g transform="translate(380,115)">
    <g class="primitive">
      <text text-anchor="middle" dy="-0.85em">carry<tspan x="0" dy="1.2em">-1,25,259</tspan><tspan x="0" dy="1.2em">57,66</tspan></text>
    </g>
  </g>
  <g transform="translate(360,115)">
    <g class="primitive">
      <text text-anchor="middle" dy="-0.85em">collect<tspan x="0" dy="1.2em">-1,25,203</tspan><tspan x="0" dy="1.2em">57,57</tspan></text>
    </g>
  </g>
  <g transform="translate(520,95)">
    <g class="primitive">
      <text text-anchor="middle" dy="-0.85em">go<tspan x="0" dy="1.2em">-1,519,-1</tspan><tspan x="0" dy="1.2em">86,86</tspan></text>
    </g>
  </g>
  <g transform="translate(500,120)">
    <g class="primitive">
      <text text-anchor="middle" dy="-0.85em">deposit<tspan x="0" dy="1.2em">-1,26,519</tspan><tspan x="0" dy="1.2em">86,86</tspan></text>
    </g>
  </g>
  <g transform="translate(480,120)">
    <g class="primitive">
      <text text-anchor="middle" dy="-0.85em">carry<tspan x="0" dy="1.2em">-1,26,519</tspan><tspan x="0" dy="1.2em">66,86</tspan></text>
    </g>
  </g>
  <g transform="translate(460,120)">
    <g class="primitive">
      <text text-anchor="middle" dy="-0.85em">collect<tspan x="0" dy="1.2em">-1,26,556</tspan><tspan x="0" dy="1.2em">66,66</tspan></text>
    </g>
  </g>
  <g transform="translate(620,105)">
    <g class="primitive">
      <text text-anchor="middle" dy="-0.85em">go<tspan x="0" dy="1.2em">-1,417,-1</tspan><tspan x="0" dy="1.2em">104,104</tspan></text>
    </g>
  </g>
  <g transform="translate(600,125)">
    <g class="primitive">
      <text text-anchor="middle" dy="-0.85em">deposit<tspan x="0" dy="1.2em">-1,27,417</tspan><tspan x="0" dy="1.2em">104,104</tspan></text>
    </g>
  </g>
  <g transform="translate(580,125)">
    <g class="primitive">
      <text text-anchor="middle" dy="-0.85em">carry<tspan x="0" dy="1.2em">-1,27,417</tspan><tspan x="0" dy="1.2em">86,104</tspan></text>
    </g>
  </g>
  <g transform="translate(560,125)">
    <g class="primitive">
      <text text-anchor="middle" dy="-0.85em">collect<tspan x="0" dy="1.2em">-1,27,244</tspan><tspan x="0" dy="1.2em">86,86</tspan></text>
    </g>
  </g>
  <g transform="translate(720,115)">
    <g class="primitive">
      <text text-anchor="middle" dy="-0.85em">go<tspan x="0" dy="1.2em">-1,90,-1</tspan><tspan x="0" dy="1.2em">119,119</tspan></text>
    </g>
  </g>
  <g transform="translate(700,130)">
    <g class="primitive">
      <text text-anchor="middle" dy="-0.85em">deposit<tspan x="0" dy="1.2em">-1,28,90</tspan><tspan x="0" dy="1.2em">119,119</tspan></text>
    </g>
  </g>
  <g transform="translate(680,130)">
    <g class="primitive">
      <text text-anchor="middle" dy="-0.85em">carry<tspan x="0" dy="1.2em">-1,28,90</tspan><tspan x="0" dy="1.2em">104,119</tspan></text>
    </g>
  </g>
  <g transform="translate(660,130)">
    <g class="primitive">
      <text text-anchor="middle" dy="-0.85em">collect<tspan x="0" dy="1.2em">-1,28,373</tspan><tspan x="0" dy="1.2em">104,104</tspan></text>
    </g>
  </g>
  <g transform="translate(820,125)">
    <g class="primitive">
      <text text-anchor="middle" dy="-0.85em">go<tspan x="0" dy="1.2em">-1,510,-1</tspan><tspan x="0" dy="1.2em">134,134</tspan></text>
    </g>
  </g>
  <g transform="translate(800,135)">
    <g class="primitive">
      <text text-anchor="middle" dy="-0.85em">deposit<tspan x="0" dy="1.2em">-1,29,510</tspan><tspan x="0" dy="1.2em">134,134</tspan></text>
    </g>
  </g>
  <g transform="translate(780,135)">
    <g class="primitive">
      <text text-anchor="middle" dy="-0.85em">carry<tspan x="0" dy="1.2em">-1,29,510</tspan><tspan x="0" dy="1.2em">119,134</tspan></text>
    </g>
  </g>
  <g transform="translate(760,135)">
    <g class="primitive">
      <text text-anchor="middle" dy="-0.85em">collect<tspan x="0" dy="1.2em">-1,29,365</tspan><tspan x="0" dy="1.2em">119,119</tspan></text>
    </g>
  </g>
  <g transform="translate(840,140)">
    <g class="primitive">
      <text text-anchor="middle" dy="-0.25em">O30-118<tspan x="0" dy="1.2em">134,134</tspan></text>
    </g>
  </g>
  <g transform="translate(740,135)">
    <g class="primitive">
      <text text-anchor="middle" dy="-0.25em">O29-365<tspan x="0" dy="1.2em">119,119</tspan></text>
    </g>
  </g>
  <g transform="translate(640,130)">
    <g class="primitive">
      <text text-anchor="middle" dy="-0.25em">O28-373<tspan x="0" dy="1.2em">104,104</tspan></text>
    </g>
  </g>
  <g transform="translate(540,125)">
    <g class="primitive">
      <text text-anchor="middle" dy="-0.25em">O27-244<tspan x="0" dy="1.2em">86,86</tspan></text>
    </g>
  </g>
  <g transform="translate(440,120)">
    <g class="primitive">
      <text text-anchor="middle" dy="-0.25em">O26-556<tspan x="0" dy="1.2em">66,66</tspan></text>
    </g>
  </g>
  <g transform="translate(340,115)">
    <g class="primitive">
      <text text-anchor="middle" dy="-0.25em">O25-203<tspan x="0" dy="1.2em">57,57</tspan></text>
    </g>
  </g>
  <g transform="translate(240,92.5)">
    <g class="primitive">
      <text text-anchor="middle" dy="-0.25em">O24-410<tspan x="0" dy="1.2em">43,43</tspan></text>
    </g>
  </g>
  <g transform="translate(40,27.5)">
    <g class="primitive">
      <text text-anchor="middle" dy="-0.25em">O23-69<tspan x="0" dy="1.2em">0,0</tspan></text>
    </g>
  </g>
  <g transform="translate(140,87.5)">
    <g class="primitive">
      <text text-anchor="middle" dy="-0.25em">O22-89<tspan x="0" dy="1.2em">18,18</tspan></text>
    </g>
  </g>
  <g transform="translate(40,82.5)">
    <g class="primitive">
      <text text-anchor="middle" dy="-0.25em">O21-130<tspan x="0" dy="1.2em">0,0</tspan></text>
    </g>
  </g>
  <g transform="translate(920,135)">
    <g class="primitive">
      <text text-anchor="middle" dy="-0.25em">op31<tspan x="0" dy="1.2em">149,149</tspan></text>
    </g>
  </g>
  <g transform="translate(120,87.5)">
    <g class="primitive">
      <text text-anchor="middle" dy="-0.25em">op30<tspan x="0" dy="1.2em">18,18</tspan></text>
    </g>
  </g>
  <g transform="translate(220,92.5)">
    <g class="primitive">
      <text text-anchor="middle" dy="-0.25em">op29<tspan x="0" dy="1.2em">43,43</tspan></text>
    </g>
  </g>
  <g transform="translate(320,115)">
    <g class="primitive">
      <text text-anchor="middle" dy="-0.25em">op28<tspan x="0" dy="1.2em">57,57</tspan></text>
    </g>
  </g>
  <g transform="translate(420,120)">
    <g class="primitive">
      <text text-anchor="middle" dy="-0.25em">op27<tspan x="0" dy="1.2em">66,66</tspan></text>
    </g>
  </g>
  <g transform="translate(520,125)">
    <g class="primitive">
      <text text-anchor="middle" dy="-0.25em">op26<tspan x="0" dy="1.2em">86,86</tspan></text>
    </g>
  </g>
  <g transform="translate(620,130)">
    <g class="primitive">
      <text text-anchor="middle" dy="-0.25em">op25<tspan x="0" dy="1.2em">104,104</tspan></text>
    </g>
  </g>
  <g transform="translate(720,135)">
    <g class="primitive">
      <text text-anchor="middle" dy="-0.25em">op24<tspan x="0" dy="1.2em">119,119</tspan></text>
    </g>
  </g>
  <g transform="translate(820,140)">
    <g class="primitive">
      <text text-anchor="middle" dy="-0.25em">op23<tspan x="0" dy="1.2em">134,134</tspan></text>
    </g>
  </g>
</g>
</svg>
