<?xml version="1.0" encoding="UTF-8"?>
<svg xmlns="http://www.w3.org/2000/svg"
     xmlns:xlink="http://www.w3.org/1999/xlink"
     xmlns:gadfly="http://www.gadflyjl.org/ns"
     version="1.2"
     width="740mm" height="420.56mm" viewBox="0 0 740 420.56"
     stroke="none"
     fill="#000000"
     stroke-width="0.3"
     font-size="3.88"
>
<defs>
  <marker id="arrow" markerWidth="15" markerHeight="7" refX="5" refY="3.5" orient="auto" markerUnits="strokeWidth">
    <path d="M0,0 L15,3.5 L0,7 z" stroke="context-stroke" fill="context-stroke"/>
  </marker>
</defs>
<g stroke="#000000" id="img-ad41b678-1">
  <g transform="translate(30,100.56)">
    <path fill="none" d="M-5.6,0 L 5.6 0" class="primitive"/>
  </g>
  <g transform="translate(30,38.89)">
    <path fill="none" d="M-5.6,0 L 5.6 0" class="primitive"/>
  </g>
  <g transform="translate(30,67.78)">
    <path fill="none" d="M-5.6,0 L 5.6 0" class="primitive"/>
  </g>
  <g transform="translate(30,137.22)">
    <path fill="none" d="M-5.6,0 L 5.6 0" class="primitive"/>
  </g>
  <g transform="translate(30,10)">
    <path fill="none" d="M-5.6,0 L 5.6 0" class="primitive"/>
  </g>
  <g transform="translate(710,408.06)">
    <path fill="none" d="M-6.06,-1.52 L 6.06 1.52" class="primitive"/>
  </g>
  <g transform="translate(710,403.06)">
    <path fill="none" d="M-6.06,1.52 L 6.06 -1.52" class="primitive"/>
  </g>
  <g transform="translate(690,405.56)">
    <path fill="none" d="M-5.6,0 L 5.6 0" class="primitive"/>
  </g>
  <g transform="translate(670,405.56)">
    <path fill="none" d="M-5.6,0 L 5.6 0" class="primitive"/>
  </g>
  <g transform="translate(110,132.22)">
    <path fill="none" d="M-9.31,-29.49 L 9.31 29.49" class="primitive"/>
  </g>
  <g transform="translate(110,169.72)">
    <path fill="none" d="M-9.68,-66.97 L 9.68 66.97" class="primitive"/>
  </g>
  <g transform="translate(90,100.56)">
    <path fill="none" d="M-5.6,0 L 5.6 0" class="primitive"/>
  </g>
  <g transform="translate(70,100.56)">
    <path fill="none" d="M-5.6,0 L 5.6 0" class="primitive"/>
  </g>
  <g transform="translate(110,110.83)">
    <path fill="none" d="M-9.49,-40.87 L 9.49 40.87" class="primitive"/>
  </g>
  <g transform="translate(110,132.5)">
    <path fill="none" d="M-9.66,-62.53 L 9.66 62.53" class="primitive"/>
  </g>
  <g transform="translate(90,67.78)">
    <path fill="none" d="M-5.6,0 L 5.6 0" class="primitive"/>
  </g>
  <g transform="translate(70,67.78)">
    <path fill="none" d="M-5.6,0 L 5.6 0" class="primitive"/>
  </g>
  <g transform="translate(110,91.39)">
    <path fill="none" d="M-9.58,-50.31 L 9.58 50.31" class="primitive"/>
  </g>
  <g transform="translate(110,118.06)">
    <path fill="none" d="M-9.72,-76.97 L 9.72 76.97" class="primitive"/>
  </g>
  <g transform="translate(90,38.89)">
    <path fill="none" d="M-5.6,0 L 5.6 0" class="primitive"/>
  </g>
  <g transform="translate(70,38.89)">
    <path fill="none" d="M-5.6,0 L 5.6 0" class="primitive"/>
  </g>
  <g transform="translate(110,71.94)">
    <path fill="none" d="M-9.65,-59.75 L 9.65 59.75" class="primitive"/>
  </g>
  <g transform="translate(110,103.61)">
    <path fill="none" d="M-9.77,-91.41 L 9.77 91.41" class="primitive"/>
  </g>
  <g transform="translate(90,10)">
    <path fill="none" d="M-5.6,0 L 5.6 0" class="primitive"/>
  </g>
  <g transform="translate(70,10)">
    <path fill="none" d="M-5.6,0 L 5.6 0" class="primitive"/>
  </g>
  <g transform="translate(210,237.22)">
    <path fill="none" d="M-9.45,-37.82 L 9.45 37.82" class="primitive"/>
  </g>
  <g transform="translate(210,251.39)">
    <path fill="none" d="M-9.6,-51.98 L 9.6 51.98" class="primitive"/>
  </g>
  <g transform="translate(190,197.22)">
    <path fill="none" d="M-5.6,0 L 5.6 0" class="primitive"/>
  </g>
  <g transform="translate(170,197.22)">
    <path fill="none" d="M-5.6,0 L 5.6 0" class="primitive"/>
  </g>
  <g transform="translate(210,253.06)">
    <path fill="none" d="M-8.54,-12.09 L 8.54 12.09" class="primitive"/>
  </g>
  <g transform="translate(210,288.06)">
    <path fill="none" d="M-9.55,-46.98 L 9.55 46.98" class="primitive"/>
  </g>
  <g transform="translate(190,238.89)">
    <path fill="none" d="M-5.6,0 L 5.6 0" class="primitive"/>
  </g>
  <g transform="translate(170,238.89)">
    <path fill="none" d="M-5.6,0 L 5.6 0" class="primitive"/>
  </g>
  <g transform="translate(310,333.06)">
    <path fill="none" d="M-9.21,-25.34 L 9.21 25.34" class="primitive"/>
  </g>
  <g transform="translate(310,344.72)">
    <path fill="none" d="M-9.44,-36.98 L 9.44 36.98" class="primitive"/>
  </g>
  <g transform="translate(290,305.56)">
    <path fill="none" d="M-5.6,0 L 5.6 0" class="primitive"/>
  </g>
  <g transform="translate(270,305.56)">
    <path fill="none" d="M-5.6,0 L 5.6 0" class="primitive"/>
  </g>
  <g transform="translate(110,130.56)">
    <path fill="none" d="M-7.36,4.91 L 7.36 -4.91" class="primitive"/>
  </g>
  <g transform="translate(110,201.39)">
    <path fill="none" d="M-9.66,-61.97 L 9.66 61.97" class="primitive"/>
  </g>
  <g transform="translate(90,137.22)">
    <path fill="none" d="M-5.6,0 L 5.6 0" class="primitive"/>
  </g>
  <g transform="translate(70,137.22)">
    <path fill="none" d="M-5.6,0 L 5.6 0" class="primitive"/>
  </g>
  <g transform="translate(210,261.39)">
    <path fill="none" d="M-6.62,2.76 L 6.62 -2.76" class="primitive"/>
  </g>
  <g transform="translate(210,309.72)">
    <path fill="none" d="M-9.51,-41.98 L 9.51 41.98" class="primitive"/>
  </g>
  <g transform="translate(190,265.56)">
    <path fill="none" d="M-5.6,0 L 5.6 0" class="primitive"/>
  </g>
  <g transform="translate(170,265.56)">
    <path fill="none" d="M-5.6,0 L 5.6 0" class="primitive"/>
  </g>
  <g transform="translate(410,377.22)">
    <path fill="none" d="M-7.36,4.91 L 7.36 -4.91" class="primitive"/>
  </g>
  <g transform="translate(410,386.39)">
    <path fill="none" d="M-6.06,-1.52 L 6.06 1.52" class="primitive"/>
  </g>
  <g transform="translate(390,383.89)">
    <path fill="none" d="M-5.6,0 L 5.6 0" class="primitive"/>
  </g>
  <g transform="translate(370,383.89)">
    <path fill="none" d="M-5.6,0 L 5.6 0" class="primitive"/>
  </g>
  <g transform="translate(510,384.72)">
    <path fill="none" d="M-6.62,2.76 L 6.62 -2.76" class="primitive"/>
  </g>
  <g transform="translate(510,391.39)">
    <path fill="none" d="M-6.06,-1.52 L 6.06 1.52" class="primitive"/>
  </g>
  <g transform="translate(490,388.89)">
    <path fill="none" d="M-5.6,0 L 5.6 0" class="primitive"/>
  </g>
  <g transform="translate(470,388.89)">
    <path fill="none" d="M-5.6,0 L 5.6 0" class="primitive"/>
  </g>
  <g transform="translate(310,352.22)">
    <path fill="none" d="M-5.83,0.97 L 5.83 -0.97" class="primitive"/>
  </g>
  <g transform="translate(460,379.72)">
    <path fill="none" d="M-155.81,-25.16 L 155.81 25.16" class="primitive"/>
  </g>
  <g transform="translate(290,353.89)">
    <path fill="none" d="M-5.6,0 L 5.6 0" class="primitive"/>
  </g>
  <g transform="translate(270,353.89)">
    <path fill="none" d="M-5.6,0 L 5.6 0" class="primitive"/>
  </g>
  <g transform="translate(310,335.56)">
    <path fill="none" d="M-5.83,0.97 L 5.83 -0.97" class="primitive"/>
  </g>
  <g transform="translate(460,371.39)">
    <path fill="none" d="M-155.95,-33.3 L 155.95 33.3" class="primitive"/>
  </g>
  <g transform="translate(290,337.22)">
    <path fill="none" d="M-5.6,0 L 5.6 0" class="primitive"/>
  </g>
  <g transform="translate(270,337.22)">
    <path fill="none" d="M-5.6,0 L 5.6 0" class="primitive"/>
  </g>
  <g transform="translate(610,392.22)">
    <path fill="none" d="M-5.83,0.97 L 5.83 -0.97" class="primitive"/>
  </g>
  <g transform="translate(610,399.72)">
    <path fill="none" d="M-7.14,-4.16 L 7.14 4.16" class="primitive"/>
  </g>
  <g transform="translate(590,393.89)">
    <path fill="none" d="M-5.6,0 L 5.6 0" class="primitive"/>
  </g>
  <g transform="translate(570,393.89)">
    <path fill="none" d="M-5.6,0 L 5.6 0" class="primitive"/>
  </g>
  <g transform="translate(650,405.56)">
    <path fill="none" d="M-5.6,0 L 5.6 0" class="primitive"/>
  </g>
  <g transform="translate(250,353.89)">
    <path fill="none" d="M-5.6,0 L 5.6 0" class="primitive"/>
  </g>
  <g transform="translate(250,337.22)">
    <path fill="none" d="M-5.6,0 L 5.6 0" class="primitive"/>
  </g>
  <g transform="translate(550,393.89)">
    <path fill="none" d="M-5.6,0 L 5.6 0" class="primitive"/>
  </g>
  <g transform="translate(450,388.89)">
    <path fill="none" d="M-5.6,0 L 5.6 0" class="primitive"/>
  </g>
  <g transform="translate(350,383.89)">
    <path fill="none" d="M-5.6,0 L 5.6 0" class="primitive"/>
  </g>
  <g transform="translate(150,265.56)">
    <path fill="none" d="M-5.6,0 L 5.6 0" class="primitive"/>
  </g>
  <g transform="translate(50,137.22)">
    <path fill="none" d="M-5.6,0 L 5.6 0" class="primitive"/>
  </g>
  <g transform="translate(250,305.56)">
    <path fill="none" d="M-5.6,0 L 5.6 0" class="primitive"/>
  </g>
  <g transform="translate(150,238.89)">
    <path fill="none" d="M-5.6,0 L 5.6 0" class="primitive"/>
  </g>
  <g transform="translate(150,197.22)">
    <path fill="none" d="M-5.6,0 L 5.6 0" class="primitive"/>
  </g>
  <g transform="translate(50,67.78)">
    <path fill="none" d="M-5.6,0 L 5.6 0" class="primitive"/>
  </g>
  <g transform="translate(50,38.89)">
    <path fill="none" d="M-5.6,0 L 5.6 0" class="primitive"/>
  </g>
  <g transform="translate(50,10)">
    <path fill="none" d="M-5.6,0 L 5.6 0" class="primitive"/>
  </g>
  <g transform="translate(50,100.56)">
    <path fill="none" d="M-5.6,0 L 5.6 0" class="primitive"/>
  </g>
  <g transform="translate(130,238.89)">
    <path fill="none" d="M-5.6,0 L 5.6 0" class="primitive"/>
  </g>
  <g transform="translate(130,197.22)">
    <path fill="none" d="M-5.6,0 L 5.6 0" class="primitive"/>
  </g>
  <g transform="translate(230,305.56)">
    <path fill="none" d="M-5.6,0 L 5.6 0" class="primitive"/>
  </g>
  <g transform="translate(230,337.22)">
    <path fill="none" d="M-5.6,0 L 5.6 0" class="primitive"/>
  </g>
  <g transform="translate(330,383.89)">
    <path fill="none" d="M-5.6,0 L 5.6 0" class="primitive"/>
  </g>
  <g transform="translate(130,265.56)">
    <path fill="none" d="M-5.6,0 L 5.6 0" class="primitive"/>
  </g>
  <g transform="translate(230,353.89)">
    <path fill="none" d="M-5.6,0 L 5.6 0" class="primitive"/>
  </g>
  <g transform="translate(430,388.89)">
    <path fill="none" d="M-5.6,0 L 5.6 0" class="primitive"/>
  </g>
  <g transform="translate(530,393.89)">
    <path fill="none" d="M-5.6,0 L 5.6 0" class="primitive"/>
  </g>
  <g transform="translate(630,405.56)">
    <path fill="none" d="M-5.6,0 L 5.6 0" class="primitive"/>
  </g>
</g>
<g fill="#FF0000" id="img-ad41b678-2">
  <g transform="translate(20,100.56)">
    <circle cx="0" cy="0" r="4" class="primitive"/>
  </g>
</g>
<g fill="#FF0000" id="img-ad41b678-3">
  <g transform="translate(20,38.89)">
    <circle cx="0" cy="0" r="4" class="primitive"/>
  </g>
</g>
<g fill="#FF0000" id="img-ad41b678-4">
  <g transform="translate(20,67.78)">
    <circle cx="0" cy="0" r="4" class="primitive"/>
  </g>
</g>
<g fill="#FF0000" id="img-ad41b678-5">
  <g transform="translate(20,137.22)">
    <circle cx="0" cy="0" r="4" class="primitive"/>
  </g>
</g>
<g fill="#FF0000" id="img-ad41b678-6">
  <g transform="translate(20,10)">
    <circle cx="0" cy="0" r="4" class="primitive"/>
  </g>
</g>
<g fill="#00FFFF" id="img-ad41b678-7">
  <g transform="translate(720,410.56)">
    <circle cx="0" cy="0" r="4" class="primitive"/>
  </g>
</g>
<g fill="#00FFFF" id="img-ad41b678-8">
  <g transform="translate(700,405.56)">
    <circle cx="0" cy="0" r="4" class="primitive"/>
  </g>
</g>
<g fill="#00FFFF" id="img-ad41b678-9">
  <g transform="translate(680,405.56)">
    <circle cx="0" cy="0" r="4" class="primitive"/>
  </g>
</g>
<g fill="#00FFFF" id="img-ad41b678-10">
  <g transform="translate(660,405.56)">
    <circle cx="0" cy="0" r="4" class="primitive"/>
  </g>
</g>
<g fill="#00FFFF" id="img-ad41b678-11">
  <g transform="translate(120,163.89)">
    <circle cx="0" cy="0" r="4" class="primitive"/>
  </g>
</g>
<g fill="#00FFFF" id="img-ad41b678-12">
  <g transform="translate(100,100.56)">
    <circle cx="0" cy="0" r="4" class="primitive"/>
  </g>
</g>
<g fill="#00FFFF" id="img-ad41b678-13">
  <g transform="translate(80,100.56)">
    <circle cx="0" cy="0" r="4" class="primitive"/>
  </g>
</g>
<g fill="#00FFFF" id="img-ad41b678-14">
  <g transform="translate(60,100.56)">
    <circle cx="0" cy="0" r="4" class="primitive"/>
  </g>
</g>
<g fill="#00FFFF" id="img-ad41b678-15">
  <g transform="translate(120,153.89)">
    <circle cx="0" cy="0" r="4" class="primitive"/>
  </g>
</g>
<g fill="#00FFFF" id="img-ad41b678-16">
  <g transform="translate(100,67.78)">
    <circle cx="0" cy="0" r="4" class="primitive"/>
  </g>
</g>
<g fill="#00FFFF" id="img-ad41b678-17">
  <g transform="translate(80,67.78)">
    <circle cx="0" cy="0" r="4" class="primitive"/>
  </g>
</g>
<g fill="#00FFFF" id="img-ad41b678-18">
  <g transform="translate(60,67.78)">
    <circle cx="0" cy="0" r="4" class="primitive"/>
  </g>
</g>
<g fill="#00FFFF" id="img-ad41b678-19">
  <g transform="translate(120,143.89)">
    <circle cx="0" cy="0" r="4" class="primitive"/>
  </g>
</g>
<g fill="#00FFFF" id="img-ad41b678-20">
  <g transform="translate(100,38.89)">
    <circle cx="0" cy="0" r="4" class="primitive"/>
  </g>
</g>
<g fill="#00FFFF" id="img-ad41b678-21">
  <g transform="translate(80,38.89)">
    <circle cx="0" cy="0" r="4" class="primitive"/>
  </g>
</g>
<g fill="#00FFFF" id="img-ad41b678-22">
  <g transform="translate(60,38.89)">
    <circle cx="0" cy="0" r="4" class="primitive"/>
  </g>
</g>
<g fill="#00FFFF" id="img-ad41b678-23">
  <g transform="translate(120,133.89)">
    <circle cx="0" cy="0" r="4" class="primitive"/>
  </g>
</g>
<g fill="#00FFFF" id="img-ad41b678-24">
  <g transform="translate(100,10)">
    <circle cx="0" cy="0" r="4" class="primitive"/>
  </g>
</g>
<g fill="#00FFFF" id="img-ad41b678-25">
  <g transform="translate(80,10)">
    <circle cx="0" cy="0" r="4" class="primitive"/>
  </g>
</g>
<g fill="#00FFFF" id="img-ad41b678-26">
  <g transform="translate(60,10)">
    <circle cx="0" cy="0" r="4" class="primitive"/>
  </g>
</g>
<g fill="#00FFFF" id="img-ad41b678-27">
  <g transform="translate(220,277.22)">
    <circle cx="0" cy="0" r="4" class="primitive"/>
  </g>
</g>
<g fill="#00FFFF" id="img-ad41b678-28">
  <g transform="translate(200,197.22)">
    <circle cx="0" cy="0" r="4" class="primitive"/>
  </g>
</g>
<g fill="#00FFFF" id="img-ad41b678-29">
  <g transform="translate(180,197.22)">
    <circle cx="0" cy="0" r="4" class="primitive"/>
  </g>
</g>
<g fill="#00FFFF" id="img-ad41b678-30">
  <g transform="translate(160,197.22)">
    <circle cx="0" cy="0" r="4" class="primitive"/>
  </g>
</g>
<g fill="#00FFFF" id="img-ad41b678-31">
  <g transform="translate(220,267.22)">
    <circle cx="0" cy="0" r="4" class="primitive"/>
  </g>
</g>
<g fill="#00FFFF" id="img-ad41b678-32">
  <g transform="translate(200,238.89)">
    <circle cx="0" cy="0" r="4" class="primitive"/>
  </g>
</g>
<g fill="#00FFFF" id="img-ad41b678-33">
  <g transform="translate(180,238.89)">
    <circle cx="0" cy="0" r="4" class="primitive"/>
  </g>
</g>
<g fill="#00FFFF" id="img-ad41b678-34">
  <g transform="translate(160,238.89)">
    <circle cx="0" cy="0" r="4" class="primitive"/>
  </g>
</g>
<g fill="#00FFFF" id="img-ad41b678-35">
  <g transform="translate(320,360.56)">
    <circle cx="0" cy="0" r="4" class="primitive"/>
  </g>
</g>
<g fill="#00FFFF" id="img-ad41b678-36">
  <g transform="translate(300,305.56)">
    <circle cx="0" cy="0" r="4" class="primitive"/>
  </g>
</g>
<g fill="#00FFFF" id="img-ad41b678-37">
  <g transform="translate(280,305.56)">
    <circle cx="0" cy="0" r="4" class="primitive"/>
  </g>
</g>
<g fill="#00FFFF" id="img-ad41b678-38">
  <g transform="translate(260,305.56)">
    <circle cx="0" cy="0" r="4" class="primitive"/>
  </g>
</g>
<g fill="#00FFFF" id="img-ad41b678-39">
  <g transform="translate(120,123.89)">
    <circle cx="0" cy="0" r="4" class="primitive"/>
  </g>
</g>
<g fill="#00FFFF" id="img-ad41b678-40">
  <g transform="translate(100,137.22)">
    <circle cx="0" cy="0" r="4" class="primitive"/>
  </g>
</g>
<g fill="#00FFFF" id="img-ad41b678-41">
  <g transform="translate(80,137.22)">
    <circle cx="0" cy="0" r="4" class="primitive"/>
  </g>
</g>
<g fill="#00FFFF" id="img-ad41b678-42">
  <g transform="translate(60,137.22)">
    <circle cx="0" cy="0" r="4" class="primitive"/>
  </g>
</g>
<g fill="#00FFFF" id="img-ad41b678-43">
  <g transform="translate(220,257.22)">
    <circle cx="0" cy="0" r="4" class="primitive"/>
  </g>
</g>
<g fill="#00FFFF" id="img-ad41b678-44">
  <g transform="translate(200,265.56)">
    <circle cx="0" cy="0" r="4" class="primitive"/>
  </g>
</g>
<g fill="#00FFFF" id="img-ad41b678-45">
  <g transform="translate(180,265.56)">
    <circle cx="0" cy="0" r="4" class="primitive"/>
  </g>
</g>
<g fill="#00FFFF" id="img-ad41b678-46">
  <g transform="translate(160,265.56)">
    <circle cx="0" cy="0" r="4" class="primitive"/>
  </g>
</g>
<g fill="#00FFFF" id="img-ad41b678-47">
  <g transform="translate(420,370.56)">
    <circle cx="0" cy="0" r="4" class="primitive"/>
  </g>
</g>
<g fill="#00FFFF" id="img-ad41b678-48">
  <g transform="translate(400,383.89)">
    <circle cx="0" cy="0" r="4" class="primitive"/>
  </g>
</g>
<g fill="#00FFFF" id="img-ad41b678-49">
  <g transform="translate(380,383.89)">
    <circle cx="0" cy="0" r="4" class="primitive"/>
  </g>
</g>
<g fill="#00FFFF" id="img-ad41b678-50">
  <g transform="translate(360,383.89)">
    <circle cx="0" cy="0" r="4" class="primitive"/>
  </g>
</g>
<g fill="#00FFFF" id="img-ad41b678-51">
  <g transform="translate(520,380.56)">
    <circle cx="0" cy="0" r="4" class="primitive"/>
  </g>
</g>
<g fill="#00FFFF" id="img-ad41b678-52">
  <g transform="translate(500,388.89)">
    <circle cx="0" cy="0" r="4" class="primitive"/>
  </g>
</g>
<g fill="#00FFFF" id="img-ad41b678-53">
  <g transform="translate(480,388.89)">
    <circle cx="0" cy="0" r="4" class="primitive"/>
  </g>
</g>
<g fill="#00FFFF" id="img-ad41b678-54">
  <g transform="translate(460,388.89)">
    <circle cx="0" cy="0" r="4" class="primitive"/>
  </g>
</g>
<g fill="#00FFFF" id="img-ad41b678-55">
  <g transform="translate(320,350.56)">
    <circle cx="0" cy="0" r="4" class="primitive"/>
  </g>
</g>
<g fill="#00FFFF" id="img-ad41b678-56">
  <g transform="translate(300,353.89)">
    <circle cx="0" cy="0" r="4" class="primitive"/>
  </g>
</g>
<g fill="#00FFFF" id="img-ad41b678-57">
  <g transform="translate(280,353.89)">
    <circle cx="0" cy="0" r="4" class="primitive"/>
  </g>
</g>
<g fill="#00FFFF" id="img-ad41b678-58">
  <g transform="translate(260,353.89)">
    <circle cx="0" cy="0" r="4" class="primitive"/>
  </g>
</g>
<g fill="#00FFFF" id="img-ad41b678-59">
  <g transform="translate(320,333.89)">
    <circle cx="0" cy="0" r="4" class="primitive"/>
  </g>
</g>
<g fill="#00FFFF" id="img-ad41b678-60">
  <g transform="translate(300,337.22)">
    <circle cx="0" cy="0" r="4" class="primitive"/>
  </g>
</g>
<g fill="#00FFFF" id="img-ad41b678-61">
  <g transform="translate(280,337.22)">
    <circle cx="0" cy="0" r="4" class="primitive"/>
  </g>
</g>
<g fill="#00FFFF" id="img-ad41b678-62">
  <g transform="translate(260,337.22)">
    <circle cx="0" cy="0" r="4" class="primitive"/>
  </g>
</g>
<g fill="#00FFFF" id="img-ad41b678-63">
  <g transform="translate(620,390.56)">
    <circle cx="0" cy="0" r="4" class="primitive"/>
  </g>
</g>
<g fill="#00FFFF" id="img-ad41b678-64">
  <g transform="translate(600,393.89)">
    <circle cx="0" cy="0" r="4" class="primitive"/>
  </g>
</g>
<g fill="#00FFFF" id="img-ad41b678-65">
  <g transform="translate(580,393.89)">
    <circle cx="0" cy="0" r="4" class="primitive"/>
  </g>
</g>
<g fill="#00FFFF" id="img-ad41b678-66">
  <g transform="translate(560,393.89)">
    <circle cx="0" cy="0" r="4" class="primitive"/>
  </g>
</g>
<g fill="#FFA500" id="img-ad41b678-67">
  <g transform="translate(640,405.56)">
    <circle cx="0" cy="0" r="4" class="primitive"/>
  </g>
</g>
<g fill="#FFA500" id="img-ad41b678-68">
  <g transform="translate(240,353.89)">
    <circle cx="0" cy="0" r="4" class="primitive"/>
  </g>
</g>
<g fill="#FFA500" id="img-ad41b678-69">
  <g transform="translate(240,337.22)">
    <circle cx="0" cy="0" r="4" class="primitive"/>
  </g>
</g>
<g fill="#FFA500" id="img-ad41b678-70">
  <g transform="translate(540,393.89)">
    <circle cx="0" cy="0" r="4" class="primitive"/>
  </g>
</g>
<g fill="#FFA500" id="img-ad41b678-71">
  <g transform="translate(440,388.89)">
    <circle cx="0" cy="0" r="4" class="primitive"/>
  </g>
</g>
<g fill="#FFA500" id="img-ad41b678-72">
  <g transform="translate(340,383.89)">
    <circle cx="0" cy="0" r="4" class="primitive"/>
  </g>
</g>
<g fill="#FFA500" id="img-ad41b678-73">
  <g transform="translate(140,265.56)">
    <circle cx="0" cy="0" r="4" class="primitive"/>
  </g>
</g>
<g fill="#FFA500" id="img-ad41b678-74">
  <g transform="translate(40,137.22)">
    <circle cx="0" cy="0" r="4" class="primitive"/>
  </g>
</g>
<g fill="#FFA500" id="img-ad41b678-75">
  <g transform="translate(240,305.56)">
    <circle cx="0" cy="0" r="4" class="primitive"/>
  </g>
</g>
<g fill="#FFA500" id="img-ad41b678-76">
  <g transform="translate(140,238.89)">
    <circle cx="0" cy="0" r="4" class="primitive"/>
  </g>
</g>
<g fill="#FFA500" id="img-ad41b678-77">
  <g transform="translate(140,197.22)">
    <circle cx="0" cy="0" r="4" class="primitive"/>
  </g>
</g>
<g fill="#FFA500" id="img-ad41b678-78">
  <g transform="translate(40,67.78)">
    <circle cx="0" cy="0" r="4" class="primitive"/>
  </g>
</g>
<g fill="#FFA500" id="img-ad41b678-79">
  <g transform="translate(40,38.89)">
    <circle cx="0" cy="0" r="4" class="primitive"/>
  </g>
</g>
<g fill="#FFA500" id="img-ad41b678-80">
  <g transform="translate(40,10)">
    <circle cx="0" cy="0" r="4" class="primitive"/>
  </g>
</g>
<g fill="#FFA500" id="img-ad41b678-81">
  <g transform="translate(40,100.56)">
    <circle cx="0" cy="0" r="4" class="primitive"/>
  </g>
</g>
<g fill="#FF0000" id="img-ad41b678-82">
  <g transform="translate(720,400.56)">
    <circle cx="0" cy="0" r="4" class="primitive"/>
  </g>
</g>
<g fill="#FF0000" id="img-ad41b678-83">
  <g transform="translate(120,238.89)">
    <circle cx="0" cy="0" r="4" class="primitive"/>
  </g>
</g>
<g fill="#FF0000" id="img-ad41b678-84">
  <g transform="translate(120,197.22)">
    <circle cx="0" cy="0" r="4" class="primitive"/>
  </g>
</g>
<g fill="#FF0000" id="img-ad41b678-85">
  <g transform="translate(220,305.56)">
    <circle cx="0" cy="0" r="4" class="primitive"/>
  </g>
</g>
<g fill="#FF0000" id="img-ad41b678-86">
  <g transform="translate(220,337.22)">
    <circle cx="0" cy="0" r="4" class="primitive"/>
  </g>
</g>
<g fill="#FF0000" id="img-ad41b678-87">
  <g transform="translate(320,383.89)">
    <circle cx="0" cy="0" r="4" class="primitive"/>
  </g>
</g>
<g fill="#FF0000" id="img-ad41b678-88">
  <g transform="translate(120,265.56)">
    <circle cx="0" cy="0" r="4" class="primitive"/>
  </g>
</g>
<g fill="#FF0000" id="img-ad41b678-89">
  <g transform="translate(220,353.89)">
    <circle cx="0" cy="0" r="4" class="primitive"/>
  </g>
</g>
<g fill="#FF0000" id="img-ad41b678-90">
  <g transform="translate(420,388.89)">
    <circle cx="0" cy="0" r="4" class="primitive"/>
  </g>
</g>
<g fill="#FF0000" id="img-ad41b678-91">
  <g transform="translate(520,393.89)">
    <circle cx="0" cy="0" r="4" class="primitive"/>
  </g>
</g>
<g fill="#FF0000" id="img-ad41b678-92">
  <g transform="translate(620,405.56)">
    <circle cx="0" cy="0" r="4" class="primitive"/>
  </g>
</g>
<g font-family="futura" font-size="3.53" stroke="#000000" id="img-ad41b678-93">
  <g transform="translate(20,100.56)">
    <g class="primitive">
      <text text-anchor="middle" dy="-0.25em">op387<tspan x="0" dy="1.2em">0,0</tspan></text>
    </g>
  </g>
  <g transform="translate(20,38.89)">
    <g class="primitive">
      <text text-anchor="middle" dy="-0.25em">op386<tspan x="0" dy="1.2em">0,0</tspan></text>
    </g>
  </g>
  <g transform="translate(20,67.78)">
    <g class="primitive">
      <text text-anchor="middle" dy="-0.25em">op385<tspan x="0" dy="1.2em">0,0</tspan></text>
    </g>
  </g>
  <g transform="translate(20,137.22)">
    <g class="primitive">
      <text text-anchor="middle" dy="-0.25em">op384<tspan x="0" dy="1.2em">0,0</tspan></text>
    </g>
  </g>
  <g transform="translate(20,10)">
    <g class="primitive">
      <text text-anchor="middle" dy="-0.25em">op383<tspan x="0" dy="1.2em">0,0</tspan></text>
    </g>
  </g>
  <g transform="translate(720,410.56)">
    <g class="primitive">
      <text text-anchor="middle" dy="-0.85em">go<tspan x="0" dy="1.2em">-1,99,-1</tspan><tspan x="0" dy="1.2em">128,128</tspan></text>
    </g>
  </g>
  <g transform="translate(700,405.56)">
    <g class="primitive">
      <text text-anchor="middle" dy="-0.85em">deposit<tspan x="0" dy="1.2em">-1,45,99</tspan><tspan x="0" dy="1.2em">128,128</tspan></text>
    </g>
  </g>
  <g transform="translate(680,405.56)">
    <g class="primitive">
      <text text-anchor="middle" dy="-0.85em">carry<tspan x="0" dy="1.2em">-1,45,99</tspan><tspan x="0" dy="1.2em">105,128</tspan></text>
    </g>
  </g>
  <g transform="translate(660,405.56)">
    <g class="primitive">
      <text text-anchor="middle" dy="-0.85em">collect<tspan x="0" dy="1.2em">-1,45,112</tspan><tspan x="0" dy="1.2em">105,105</tspan></text>
    </g>
  </g>
  <g transform="translate(120,163.89)">
    <g class="primitive">
      <text text-anchor="middle" dy="-0.85em">go<tspan x="0" dy="1.2em">-1,374,-1</tspan><tspan x="0" dy="1.2em">21,21</tspan></text>
    </g>
  </g>
  <g transform="translate(100,100.56)">
    <g class="primitive">
      <text text-anchor="middle" dy="-0.85em">deposit<tspan x="0" dy="1.2em">-1,31,374</tspan><tspan x="0" dy="1.2em">21,21</tspan></text>
    </g>
  </g>
  <g transform="translate(80,100.56)">
    <g class="primitive">
      <text text-anchor="middle" dy="-0.85em">carry<tspan x="0" dy="1.2em">-1,31,374</tspan><tspan x="0" dy="1.2em">0,21</tspan></text>
    </g>
  </g>
  <g transform="translate(60,100.56)">
    <g class="primitive">
      <text text-anchor="middle" dy="-0.85em">collect<tspan x="0" dy="1.2em">-1,31,505</tspan><tspan x="0" dy="1.2em">0,0</tspan></text>
    </g>
  </g>
  <g transform="translate(120,153.89)">
    <g class="primitive">
      <text text-anchor="middle" dy="-0.85em">go<tspan x="0" dy="1.2em">-1,277,-1</tspan><tspan x="0" dy="1.2em">5,5</tspan></text>
    </g>
  </g>
  <g transform="translate(100,67.78)">
    <g class="primitive">
      <text text-anchor="middle" dy="-0.85em">deposit<tspan x="0" dy="1.2em">-1,34,277</tspan><tspan x="0" dy="1.2em">5,5</tspan></text>
    </g>
  </g>
  <g transform="translate(80,67.78)">
    <g class="primitive">
      <text text-anchor="middle" dy="-0.85em">carry<tspan x="0" dy="1.2em">-1,34,277</tspan><tspan x="0" dy="1.2em">0,5</tspan></text>
    </g>
  </g>
  <g transform="translate(60,67.78)">
    <g class="primitive">
      <text text-anchor="middle" dy="-0.85em">collect<tspan x="0" dy="1.2em">-1,34,215</tspan><tspan x="0" dy="1.2em">0,0</tspan></text>
    </g>
  </g>
  <g transform="translate(120,143.89)">
    <g class="primitive">
      <text text-anchor="middle" dy="-0.85em">go<tspan x="0" dy="1.2em">-1,399,-1</tspan><tspan x="0" dy="1.2em">12,12</tspan></text>
    </g>
  </g>
  <g transform="translate(100,38.89)">
    <g class="primitive">
      <text text-anchor="middle" dy="-0.85em">deposit<tspan x="0" dy="1.2em">-1,33,399</tspan><tspan x="0" dy="1.2em">12,12</tspan></text>
    </g>
  </g>
  <g transform="translate(80,38.89)">
    <g class="primitive">
      <text text-anchor="middle" dy="-0.85em">carry<tspan x="0" dy="1.2em">-1,33,399</tspan><tspan x="0" dy="1.2em">0,12</tspan></text>
    </g>
  </g>
  <g transform="translate(60,38.89)">
    <g class="primitive">
      <text text-anchor="middle" dy="-0.85em">collect<tspan x="0" dy="1.2em">-1,33,225</tspan><tspan x="0" dy="1.2em">0,0</tspan></text>
    </g>
  </g>
  <g transform="translate(120,133.89)">
    <g class="primitive">
      <text text-anchor="middle" dy="-0.85em">go<tspan x="0" dy="1.2em">-1,243,-1</tspan><tspan x="0" dy="1.2em">17,17</tspan></text>
    </g>
  </g>
  <g transform="translate(100,10)">
    <g class="primitive">
      <text text-anchor="middle" dy="-0.85em">deposit<tspan x="0" dy="1.2em">-1,32,243</tspan><tspan x="0" dy="1.2em">17,17</tspan></text>
    </g>
  </g>
  <g transform="translate(80,10)">
    <g class="primitive">
      <text text-anchor="middle" dy="-0.85em">carry<tspan x="0" dy="1.2em">-1,32,243</tspan><tspan x="0" dy="1.2em">0,17</tspan></text>
    </g>
  </g>
  <g transform="translate(60,10)">
    <g class="primitive">
      <text text-anchor="middle" dy="-0.85em">collect<tspan x="0" dy="1.2em">-1,32,509</tspan><tspan x="0" dy="1.2em">0,0</tspan></text>
    </g>
  </g>
  <g transform="translate(220,277.22)">
    <g class="primitive">
      <text text-anchor="middle" dy="-0.85em">go<tspan x="0" dy="1.2em">-1,417,-1</tspan><tspan x="0" dy="1.2em">38,38</tspan></text>
    </g>
  </g>
  <g transform="translate(200,197.22)">
    <g class="primitive">
      <text text-anchor="middle" dy="-0.85em">deposit<tspan x="0" dy="1.2em">-1,35,417</tspan><tspan x="0" dy="1.2em">38,38</tspan></text>
    </g>
  </g>
  <g transform="translate(180,197.22)">
    <g class="primitive">
      <text text-anchor="middle" dy="-0.85em">carry<tspan x="0" dy="1.2em">-1,35,417</tspan><tspan x="0" dy="1.2em">17,38</tspan></text>
    </g>
  </g>
  <g transform="translate(160,197.22)">
    <g class="primitive">
      <text text-anchor="middle" dy="-0.85em">collect<tspan x="0" dy="1.2em">-1,35,203</tspan><tspan x="0" dy="1.2em">17,17</tspan></text>
    </g>
  </g>
  <g transform="translate(220,267.22)">
    <g class="primitive">
      <text text-anchor="middle" dy="-0.85em">go<tspan x="0" dy="1.2em">-1,362,-1</tspan><tspan x="0" dy="1.2em">29,29</tspan></text>
    </g>
  </g>
  <g transform="translate(200,238.89)">
    <g class="primitive">
      <text text-anchor="middle" dy="-0.85em">deposit<tspan x="0" dy="1.2em">-1,36,362</tspan><tspan x="0" dy="1.2em">29,29</tspan></text>
    </g>
  </g>
  <g transform="translate(180,238.89)">
    <g class="primitive">
      <text text-anchor="middle" dy="-0.85em">carry<tspan x="0" dy="1.2em">-1,36,362</tspan><tspan x="0" dy="1.2em">21,29</tspan></text>
    </g>
  </g>
  <g transform="translate(160,238.89)">
    <g class="primitive">
      <text text-anchor="middle" dy="-0.85em">collect<tspan x="0" dy="1.2em">-1,36,264</tspan><tspan x="0" dy="1.2em">21,21</tspan></text>
    </g>
  </g>
  <g transform="translate(320,360.56)">
    <g class="primitive">
      <text text-anchor="middle" dy="-0.85em">go<tspan x="0" dy="1.2em">-1,366,-1</tspan><tspan x="0" dy="1.2em">47,47</tspan></text>
    </g>
  </g>
  <g transform="translate(300,305.56)">
    <g class="primitive">
      <text text-anchor="middle" dy="-0.85em">deposit<tspan x="0" dy="1.2em">-1,37,366</tspan><tspan x="0" dy="1.2em">47,47</tspan></text>
    </g>
  </g>
  <g transform="translate(280,305.56)">
    <g class="primitive">
      <text text-anchor="middle" dy="-0.85em">carry<tspan x="0" dy="1.2em">-1,37,366</tspan><tspan x="0" dy="1.2em">38,47</tspan></text>
    </g>
  </g>
  <g transform="translate(260,305.56)">
    <g class="primitive">
      <text text-anchor="middle" dy="-0.85em">collect<tspan x="0" dy="1.2em">-1,37,229</tspan><tspan x="0" dy="1.2em">38,38</tspan></text>
    </g>
  </g>
  <g transform="translate(120,123.89)">
    <g class="primitive">
      <text text-anchor="middle" dy="-0.85em">go<tspan x="0" dy="1.2em">-1,383,-1</tspan><tspan x="0" dy="1.2em">12,12</tspan></text>
    </g>
  </g>
  <g transform="translate(100,137.22)">
    <g class="primitive">
      <text text-anchor="middle" dy="-0.85em">deposit<tspan x="0" dy="1.2em">-1,38,383</tspan><tspan x="0" dy="1.2em">12,12</tspan></text>
    </g>
  </g>
  <g transform="translate(80,137.22)">
    <g class="primitive">
      <text text-anchor="middle" dy="-0.85em">carry<tspan x="0" dy="1.2em">-1,38,383</tspan><tspan x="0" dy="1.2em">0,12</tspan></text>
    </g>
  </g>
  <g transform="translate(60,137.22)">
    <g class="primitive">
      <text text-anchor="middle" dy="-0.85em">collect<tspan x="0" dy="1.2em">-1,38,489</tspan><tspan x="0" dy="1.2em">0,0</tspan></text>
    </g>
  </g>
  <g transform="translate(220,257.22)">
    <g class="primitive">
      <text text-anchor="middle" dy="-0.85em">go<tspan x="0" dy="1.2em">-1,259,-1</tspan><tspan x="0" dy="1.2em">23,23</tspan></text>
    </g>
  </g>
  <g transform="translate(200,265.56)">
    <g class="primitive">
      <text text-anchor="middle" dy="-0.85em">deposit<tspan x="0" dy="1.2em">-1,39,259</tspan><tspan x="0" dy="1.2em">23,23</tspan></text>
    </g>
  </g>
  <g transform="translate(180,265.56)">
    <g class="primitive">
      <text text-anchor="middle" dy="-0.85em">carry<tspan x="0" dy="1.2em">-1,39,259</tspan><tspan x="0" dy="1.2em">12,23</tspan></text>
    </g>
  </g>
  <g transform="translate(160,265.56)">
    <g class="primitive">
      <text text-anchor="middle" dy="-0.85em">collect<tspan x="0" dy="1.2em">-1,39,124</tspan><tspan x="0" dy="1.2em">12,12</tspan></text>
    </g>
  </g>
  <g transform="translate(420,370.56)">
    <g class="primitive">
      <text text-anchor="middle" dy="-0.85em">go<tspan x="0" dy="1.2em">-1,379,-1</tspan><tspan x="0" dy="1.2em">74,74</tspan></text>
    </g>
  </g>
  <g transform="translate(400,383.89)">
    <g class="primitive">
      <text text-anchor="middle" dy="-0.85em">deposit<tspan x="0" dy="1.2em">-1,40,379</tspan><tspan x="0" dy="1.2em">74,74</tspan></text>
    </g>
  </g>
  <g transform="translate(380,383.89)">
    <g class="primitive">
      <text text-anchor="middle" dy="-0.85em">carry<tspan x="0" dy="1.2em">-1,40,379</tspan><tspan x="0" dy="1.2em">47,74</tspan></text>
    </g>
  </g>
  <g transform="translate(360,383.89)">
    <g class="primitive">
      <text text-anchor="middle" dy="-0.85em">collect<tspan x="0" dy="1.2em">-1,40,252</tspan><tspan x="0" dy="1.2em">47,47</tspan></text>
    </g>
  </g>
  <g transform="translate(520,380.56)">
    <g class="primitive">
      <text text-anchor="middle" dy="-0.85em">go<tspan x="0" dy="1.2em">-1,222,-1</tspan><tspan x="0" dy="1.2em">83,83</tspan></text>
    </g>
  </g>
  <g transform="translate(500,388.89)">
    <g class="primitive">
      <text text-anchor="middle" dy="-0.85em">deposit<tspan x="0" dy="1.2em">-1,41,222</tspan><tspan x="0" dy="1.2em">83,83</tspan></text>
    </g>
  </g>
  <g transform="translate(480,388.89)">
    <g class="primitive">
      <text text-anchor="middle" dy="-0.85em">carry<tspan x="0" dy="1.2em">-1,41,222</tspan><tspan x="0" dy="1.2em">74,83</tspan></text>
    </g>
  </g>
  <g transform="translate(460,388.89)">
    <g class="primitive">
      <text text-anchor="middle" dy="-0.85em">collect<tspan x="0" dy="1.2em">-1,41,361</tspan><tspan x="0" dy="1.2em">74,74</tspan></text>
    </g>
  </g>
  <g transform="translate(320,350.56)">
    <g class="primitive">
      <text text-anchor="middle" dy="-0.85em">go<tspan x="0" dy="1.2em">-1,510,-1</tspan><tspan x="0" dy="1.2em">32,32</tspan></text>
    </g>
  </g>
  <g transform="translate(300,353.89)">
    <g class="primitive">
      <text text-anchor="middle" dy="-0.85em">deposit<tspan x="0" dy="1.2em">-1,44,510</tspan><tspan x="0" dy="1.2em">32,32</tspan></text>
    </g>
  </g>
  <g transform="translate(280,353.89)">
    <g class="primitive">
      <text text-anchor="middle" dy="-0.85em">carry<tspan x="0" dy="1.2em">-1,44,510</tspan><tspan x="0" dy="1.2em">23,32</tspan></text>
    </g>
  </g>
  <g transform="translate(260,353.89)">
    <g class="primitive">
      <text text-anchor="middle" dy="-0.85em">collect<tspan x="0" dy="1.2em">-1,44,369</tspan><tspan x="0" dy="1.2em">23,23</tspan></text>
    </g>
  </g>
  <g transform="translate(320,333.89)">
    <g class="primitive">
      <text text-anchor="middle" dy="-0.85em">go<tspan x="0" dy="1.2em">-1,125,-1</tspan><tspan x="0" dy="1.2em">59,59</tspan></text>
    </g>
  </g>
  <g transform="translate(300,337.22)">
    <g class="primitive">
      <text text-anchor="middle" dy="-0.85em">deposit<tspan x="0" dy="1.2em">-1,43,125</tspan><tspan x="0" dy="1.2em">59,59</tspan></text>
    </g>
  </g>
  <g transform="translate(280,337.22)">
    <g class="primitive">
      <text text-anchor="middle" dy="-0.85em">carry<tspan x="0" dy="1.2em">-1,43,125</tspan><tspan x="0" dy="1.2em">29,59</tspan></text>
    </g>
  </g>
  <g transform="translate(260,337.22)">
    <g class="primitive">
      <text text-anchor="middle" dy="-0.85em">collect<tspan x="0" dy="1.2em">-1,43,532</tspan><tspan x="0" dy="1.2em">29,29</tspan></text>
    </g>
  </g>
  <g transform="translate(620,390.56)">
    <g class="primitive">
      <text text-anchor="middle" dy="-0.85em">go<tspan x="0" dy="1.2em">-1,94,-1</tspan><tspan x="0" dy="1.2em">105,105</tspan></text>
    </g>
  </g>
  <g transform="translate(600,393.89)">
    <g class="primitive">
      <text text-anchor="middle" dy="-0.85em">deposit<tspan x="0" dy="1.2em">-1,42,94</tspan><tspan x="0" dy="1.2em">105,105</tspan></text>
    </g>
  </g>
  <g transform="translate(580,393.89)">
    <g class="primitive">
      <text text-anchor="middle" dy="-0.85em">carry<tspan x="0" dy="1.2em">-1,42,94</tspan><tspan x="0" dy="1.2em">83,105</tspan></text>
    </g>
  </g>
  <g transform="translate(560,393.89)">
    <g class="primitive">
      <text text-anchor="middle" dy="-0.85em">collect<tspan x="0" dy="1.2em">-1,42,556</tspan><tspan x="0" dy="1.2em">83,83</tspan></text>
    </g>
  </g>
  <g transform="translate(640,405.56)">
    <g class="primitive">
      <text text-anchor="middle" dy="-0.25em">O45-112<tspan x="0" dy="1.2em">105,105</tspan></text>
    </g>
  </g>
  <g transform="translate(240,353.89)">
    <g class="primitive">
      <text text-anchor="middle" dy="-0.25em">O44-369<tspan x="0" dy="1.2em">23,23</tspan></text>
    </g>
  </g>
  <g transform="translate(240,337.22)">
    <g class="primitive">
      <text text-anchor="middle" dy="-0.25em">O43-532<tspan x="0" dy="1.2em">29,29</tspan></text>
    </g>
  </g>
  <g transform="translate(540,393.89)">
    <g class="primitive">
      <text text-anchor="middle" dy="-0.25em">O42-556<tspan x="0" dy="1.2em">83,83</tspan></text>
    </g>
  </g>
  <g transform="translate(440,388.89)">
    <g class="primitive">
      <text text-anchor="middle" dy="-0.25em">O41-361<tspan x="0" dy="1.2em">74,74</tspan></text>
    </g>
  </g>
  <g transform="translate(340,383.89)">
    <g class="primitive">
      <text text-anchor="middle" dy="-0.25em">O40-252<tspan x="0" dy="1.2em">47,47</tspan></text>
    </g>
  </g>
  <g transform="translate(140,265.56)">
    <g class="primitive">
      <text text-anchor="middle" dy="-0.25em">O39-124<tspan x="0" dy="1.2em">12,12</tspan></text>
    </g>
  </g>
  <g transform="translate(40,137.22)">
    <g class="primitive">
      <text text-anchor="middle" dy="-0.25em">O38-489<tspan x="0" dy="1.2em">0,0</tspan></text>
    </g>
  </g>
  <g transform="translate(240,305.56)">
    <g class="primitive">
      <text text-anchor="middle" dy="-0.25em">O37-229<tspan x="0" dy="1.2em">38,38</tspan></text>
    </g>
  </g>
  <g transform="translate(140,238.89)">
    <g class="primitive">
      <text text-anchor="middle" dy="-0.25em">O36-264<tspan x="0" dy="1.2em">21,21</tspan></text>
    </g>
  </g>
  <g transform="translate(140,197.22)">
    <g class="primitive">
      <text text-anchor="middle" dy="-0.25em">O35-203<tspan x="0" dy="1.2em">17,17</tspan></text>
    </g>
  </g>
  <g transform="translate(40,67.78)">
    <g class="primitive">
      <text text-anchor="middle" dy="-0.25em">O34-215<tspan x="0" dy="1.2em">0,0</tspan></text>
    </g>
  </g>
  <g transform="translate(40,38.89)">
    <g class="primitive">
      <text text-anchor="middle" dy="-0.25em">O33-225<tspan x="0" dy="1.2em">0,0</tspan></text>
    </g>
  </g>
  <g transform="translate(40,10)">
    <g class="primitive">
      <text text-anchor="middle" dy="-0.25em">O32-509<tspan x="0" dy="1.2em">0,0</tspan></text>
    </g>
  </g>
  <g transform="translate(40,100.56)">
    <g class="primitive">
      <text text-anchor="middle" dy="-0.25em">O31-505<tspan x="0" dy="1.2em">0,0</tspan></text>
    </g>
  </g>
  <g transform="translate(720,400.56)">
    <g class="primitive">
      <text text-anchor="middle" dy="-0.25em">op382<tspan x="0" dy="1.2em">128,128</tspan></text>
    </g>
  </g>
  <g transform="translate(120,238.89)">
    <g class="primitive">
      <text text-anchor="middle" dy="-0.25em">op381<tspan x="0" dy="1.2em">21,21</tspan></text>
    </g>
  </g>
  <g transform="translate(120,197.22)">
    <g class="primitive">
      <text text-anchor="middle" dy="-0.25em">op380<tspan x="0" dy="1.2em">17,17</tspan></text>
    </g>
  </g>
  <g transform="translate(220,305.56)">
    <g class="primitive">
      <text text-anchor="middle" dy="-0.25em">op379<tspan x="0" dy="1.2em">38,38</tspan></text>
    </g>
  </g>
  <g transform="translate(220,337.22)">
    <g class="primitive">
      <text text-anchor="middle" dy="-0.25em">op378<tspan x="0" dy="1.2em">29,29</tspan></text>
    </g>
  </g>
  <g transform="translate(320,383.89)">
    <g class="primitive">
      <text text-anchor="middle" dy="-0.25em">op377<tspan x="0" dy="1.2em">47,47</tspan></text>
    </g>
  </g>
  <g transform="translate(120,265.56)">
    <g class="primitive">
      <text text-anchor="middle" dy="-0.25em">op376<tspan x="0" dy="1.2em">12,12</tspan></text>
    </g>
  </g>
  <g transform="translate(220,353.89)">
    <g class="primitive">
      <text text-anchor="middle" dy="-0.25em">op375<tspan x="0" dy="1.2em">23,23</tspan></text>
    </g>
  </g>
  <g transform="translate(420,388.89)">
    <g class="primitive">
      <text text-anchor="middle" dy="-0.25em">op374<tspan x="0" dy="1.2em">74,74</tspan></text>
    </g>
  </g>
  <g transform="translate(520,393.89)">
    <g class="primitive">
      <text text-anchor="middle" dy="-0.25em">op373<tspan x="0" dy="1.2em">83,83</tspan></text>
    </g>
  </g>
  <g transform="translate(620,405.56)">
    <g class="primitive">
      <text text-anchor="middle" dy="-0.25em">op372<tspan x="0" dy="1.2em">105,105</tspan></text>
    </g>
  </g>
</g>
</svg>
