<?xml version="1.0" encoding="UTF-8"?>
<svg xmlns="http://www.w3.org/2000/svg"
     xmlns:xlink="http://www.w3.org/1999/xlink"
     xmlns:gadfly="http://www.gadflyjl.org/ns"
     version="1.2"
     width="260mm" height="90mm" viewBox="0 0 260 90"
     stroke="none"
     fill="#000000"
     stroke-width="0.3"
     font-size="3.88"
>
<defs>
  <marker id="arrow" markerWidth="15" markerHeight="7" refX="5" refY="3.5" orient="auto" markerUnits="strokeWidth">
    <path d="M0,0 L15,3.5 L0,7 z" stroke="context-stroke" fill="context-stroke"/>
  </marker>
</defs>
<g fill="#FFFFFF" id="img-d17a5975-1">
  <g transform="translate(130,45)">
    <path d="M-130,-45 L 130 -45 130 45 -130 45 z" class="primitive"/>
  </g>
</g>
<g stroke="#000000" id="img-d17a5975-2">
  <g transform="translate(30,35)">
    <path fill="none" d="M-5.6,0 L 5.6 0" class="primitive"/>
  </g>
  <g transform="translate(30,55)">
    <path fill="none" d="M-5.6,0 L 5.6 0" class="primitive"/>
  </g>
  <g transform="translate(210,67.5)">
    <path fill="none" d="M-6.06,-1.52 L 6.06 1.52" class="primitive"/>
  </g>
  <g transform="translate(210,62.5)">
    <path fill="none" d="M-6.06,1.52 L 6.06 -1.52" class="primitive"/>
  </g>
  <g transform="translate(190,65)">
    <path fill="none" d="M-5.6,0 L 5.6 0" class="primitive"/>
  </g>
  <g transform="translate(170,65)">
    <path fill="none" d="M-5.6,0 L 5.6 0" class="primitive"/>
  </g>
  <g transform="translate(110,52.5)">
    <path fill="none" d="M-6.06,1.52 L 6.06 -1.52" class="primitive"/>
  </g>
  <g transform="translate(110,60)">
    <path fill="none" d="M-6.89,-3.44 L 6.89 3.44" class="primitive"/>
  </g>
  <g transform="translate(90,55)">
    <path fill="none" d="M-5.6,0 L 5.6 0" class="primitive"/>
  </g>
  <g transform="translate(70,55)">
    <path fill="none" d="M-5.6,0 L 5.6 0" class="primitive"/>
  </g>
  <g transform="translate(110,32.5)">
    <path fill="none" d="M-6.06,1.52 L 6.06 -1.52" class="primitive"/>
  </g>
  <g transform="translate(110,50)">
    <path fill="none" d="M-8.61,-12.91 L 8.61 12.91" class="primitive"/>
  </g>
  <g transform="translate(90,35)">
    <path fill="none" d="M-5.6,0 L 5.6 0" class="primitive"/>
  </g>
  <g transform="translate(70,35)">
    <path fill="none" d="M-5.6,0 L 5.6 0" class="primitive"/>
  </g>
  <g transform="translate(30,20)">
    <path fill="none" d="M-5.6,0 L 5.6 0" class="primitive"/>
  </g>
  <g transform="translate(30,10)">
    <path fill="none" d="M-5.6,0 L 5.6 0" class="primitive"/>
  </g>
  <g transform="translate(150,65)">
    <path fill="none" d="M-5.6,0 L 5.6 0" class="primitive"/>
  </g>
  <g transform="translate(50,55)">
    <path fill="none" d="M-5.6,0 L 5.6 0" class="primitive"/>
  </g>
  <g transform="translate(50,35)">
    <path fill="none" d="M-5.6,0 L 5.6 0" class="primitive"/>
  </g>
  <g transform="translate(130,65)">
    <path fill="none" d="M-5.6,0 L 5.6 0" class="primitive"/>
  </g>
</g>
<g fill="#FF0000" id="img-d17a5975-3">
  <g transform="translate(20,35)">
    <circle cx="0" cy="0" r="4" class="primitive"/>
  </g>
</g>
<g fill="#FF0000" id="img-d17a5975-4">
  <g transform="translate(20,55)">
    <circle cx="0" cy="0" r="4" class="primitive"/>
  </g>
</g>
<g fill="#00FFFF" id="img-d17a5975-5">
  <g transform="translate(220,70)">
    <circle cx="0" cy="0" r="4" class="primitive"/>
  </g>
</g>
<g fill="#00FFFF" id="img-d17a5975-6">
  <g transform="translate(200,65)">
    <circle cx="0" cy="0" r="4" class="primitive"/>
  </g>
</g>
<g fill="#00FFFF" id="img-d17a5975-7">
  <g transform="translate(180,65)">
    <circle cx="0" cy="0" r="4" class="primitive"/>
  </g>
</g>
<g fill="#00FFFF" id="img-d17a5975-8">
  <g transform="translate(160,65)">
    <circle cx="0" cy="0" r="4" class="primitive"/>
  </g>
</g>
<g fill="#00FFFF" id="img-d17a5975-9">
  <g transform="translate(120,50)">
    <circle cx="0" cy="0" r="4" class="primitive"/>
  </g>
</g>
<g fill="#00FFFF" id="img-d17a5975-10">
  <g transform="translate(100,55)">
    <circle cx="0" cy="0" r="4" class="primitive"/>
  </g>
</g>
<g fill="#00FFFF" id="img-d17a5975-11">
  <g transform="translate(80,55)">
    <circle cx="0" cy="0" r="4" class="primitive"/>
  </g>
</g>
<g fill="#00FFFF" id="img-d17a5975-12">
  <g transform="translate(60,55)">
    <circle cx="0" cy="0" r="4" class="primitive"/>
  </g>
</g>
<g fill="#00FFFF" id="img-d17a5975-13">
  <g transform="translate(120,30)">
    <circle cx="0" cy="0" r="4" class="primitive"/>
  </g>
</g>
<g fill="#00FFFF" id="img-d17a5975-14">
  <g transform="translate(100,35)">
    <circle cx="0" cy="0" r="4" class="primitive"/>
  </g>
</g>
<g fill="#00FFFF" id="img-d17a5975-15">
  <g transform="translate(80,35)">
    <circle cx="0" cy="0" r="4" class="primitive"/>
  </g>
</g>
<g fill="#00FFFF" id="img-d17a5975-16">
  <g transform="translate(60,35)">
    <circle cx="0" cy="0" r="4" class="primitive"/>
  </g>
</g>
<g fill="#00FFFF" id="img-d17a5975-17">
  <g transform="translate(40,20)">
    <circle cx="0" cy="0" r="4" class="primitive"/>
  </g>
</g>
<g fill="#00FF00" id="img-d17a5975-18">
  <g transform="translate(20,20)">
    <circle cx="0" cy="0" r="4" class="primitive"/>
  </g>
</g>
<g fill="#00FFFF" id="img-d17a5975-19">
  <g transform="translate(40,10)">
    <circle cx="0" cy="0" r="4" class="primitive"/>
  </g>
</g>
<g fill="#00FF00" id="img-d17a5975-20">
  <g transform="translate(20,10)">
    <circle cx="0" cy="0" r="4" class="primitive"/>
  </g>
</g>
<g fill="#FFA500" id="img-d17a5975-21">
  <g transform="translate(140,65)">
    <circle cx="0" cy="0" r="4" class="primitive"/>
  </g>
</g>
<g fill="#FFA500" id="img-d17a5975-22">
  <g transform="translate(40,55)">
    <circle cx="0" cy="0" r="4" class="primitive"/>
  </g>
</g>
<g fill="#FFA500" id="img-d17a5975-23">
  <g transform="translate(40,35)">
    <circle cx="0" cy="0" r="4" class="primitive"/>
  </g>
</g>
<g fill="#FF0000" id="img-d17a5975-24">
  <g transform="translate(220,60)">
    <circle cx="0" cy="0" r="4" class="primitive"/>
  </g>
</g>
<g fill="#FF0000" id="img-d17a5975-25">
  <g transform="translate(120,65)">
    <circle cx="0" cy="0" r="4" class="primitive"/>
  </g>
</g>
<g font-family="futura" font-size="3.53" stroke="#000000" id="img-d17a5975-26">
  <g transform="translate(20,35)">
    <g class="primitive">
      <text text-anchor="middle" dy="-0.25em">op12<tspan x="0" dy="1.2em">0,0,0</tspan></text>
    </g>
  </g>
  <g transform="translate(20,55)">
    <g class="primitive">
      <text text-anchor="middle" dy="-0.25em">op11<tspan x="0" dy="1.2em">0,0,1</tspan></text>
    </g>
  </g>
  <g transform="translate(220,70)">
    <g class="primitive">
      <text text-anchor="middle" dy="-0.85em">go<tspan x="0" dy="1.2em">-1,15,-1</tspan><tspan x="0" dy="1.2em">3,3,Inf</tspan></text>
    </g>
  </g>
  <g transform="translate(200,65)">
    <g class="primitive">
      <text text-anchor="middle" dy="-0.85em">deposit<tspan x="0" dy="1.2em">-1,3,15</tspan><tspan x="0" dy="1.2em">3,3,0</tspan></text>
    </g>
  </g>
  <g transform="translate(180,65)">
    <g class="primitive">
      <text text-anchor="middle" dy="-0.85em">carry<tspan x="0" dy="1.2em">-1,3,15</tspan><tspan x="0" dy="1.2em">2,3,0</tspan></text>
    </g>
  </g>
  <g transform="translate(160,65)">
    <g class="primitive">
      <text text-anchor="middle" dy="-0.85em">collect<tspan x="0" dy="1.2em">-1,3,14</tspan><tspan x="0" dy="1.2em">2,2,0</tspan></text>
    </g>
  </g>
  <g transform="translate(120,50)">
    <g class="primitive">
      <text text-anchor="middle" dy="-0.85em">go<tspan x="0" dy="1.2em">-1,12,-1</tspan><tspan x="0" dy="1.2em">1,1,Inf</tspan></text>
    </g>
  </g>
  <g transform="translate(100,55)">
    <g class="primitive">
      <text text-anchor="middle" dy="-0.85em">deposit<tspan x="0" dy="1.2em">-1,2,12</tspan><tspan x="0" dy="1.2em">1,1,1</tspan></text>
    </g>
  </g>
  <g transform="translate(80,55)">
    <g class="primitive">
      <text text-anchor="middle" dy="-0.85em">carry<tspan x="0" dy="1.2em">-1,2,12</tspan><tspan x="0" dy="1.2em">0,1,1</tspan></text>
    </g>
  </g>
  <g transform="translate(60,55)">
    <g class="primitive">
      <text text-anchor="middle" dy="-0.85em">collect<tspan x="0" dy="1.2em">-1,2,8</tspan><tspan x="0" dy="1.2em">0,0,1</tspan></text>
    </g>
  </g>
  <g transform="translate(120,30)">
    <g class="primitive">
      <text text-anchor="middle" dy="-0.85em">go<tspan x="0" dy="1.2em">-1,13,-1</tspan><tspan x="0" dy="1.2em">2,2,Inf</tspan></text>
    </g>
  </g>
  <g transform="translate(100,35)">
    <g class="primitive">
      <text text-anchor="middle" dy="-0.85em">deposit<tspan x="0" dy="1.2em">-1,1,13</tspan><tspan x="0" dy="1.2em">2,2,0</tspan></text>
    </g>
  </g>
  <g transform="translate(80,35)">
    <g class="primitive">
      <text text-anchor="middle" dy="-0.85em">carry<tspan x="0" dy="1.2em">-1,1,13</tspan><tspan x="0" dy="1.2em">0,2,0</tspan></text>
    </g>
  </g>
  <g transform="translate(60,35)">
    <g class="primitive">
      <text text-anchor="middle" dy="-0.85em">collect<tspan x="0" dy="1.2em">-1,1,5</tspan><tspan x="0" dy="1.2em">0,0,0</tspan></text>
    </g>
  </g>
  <g transform="translate(40,20)">
    <g class="primitive">
      <text text-anchor="middle" dy="-0.85em">go<tspan x="0" dy="1.2em">2,4,-1</tspan><tspan x="0" dy="1.2em">0,0,Inf</tspan></text>
    </g>
  </g>
  <g transform="translate(20,20)">
    <g class="primitive">
      <text text-anchor="middle" dy="-0.25em">R2-4<tspan x="0" dy="1.2em">0,0,Inf</tspan></text>
    </g>
  </g>
  <g transform="translate(40,10)">
    <g class="primitive">
      <text text-anchor="middle" dy="-0.85em">go<tspan x="0" dy="1.2em">1,1,-1</tspan><tspan x="0" dy="1.2em">0,0,Inf</tspan></text>
    </g>
  </g>
  <g transform="translate(20,10)">
    <g class="primitive">
      <text text-anchor="middle" dy="-0.25em">R1-1<tspan x="0" dy="1.2em">0,0,Inf</tspan></text>
    </g>
  </g>
  <g transform="translate(140,65)">
    <g class="primitive">
      <text text-anchor="middle" dy="-0.25em">O3-14<tspan x="0" dy="1.2em">2,2,0</tspan></text>
    </g>
  </g>
  <g transform="translate(40,55)">
    <g class="primitive">
      <text text-anchor="middle" dy="-0.25em">O2-8<tspan x="0" dy="1.2em">0,0,1</tspan></text>
    </g>
  </g>
  <g transform="translate(40,35)">
    <g class="primitive">
      <text text-anchor="middle" dy="-0.25em">O1-5<tspan x="0" dy="1.2em">0,0,0</tspan></text>
    </g>
  </g>
  <g transform="translate(220,60)">
    <g class="primitive">
      <text text-anchor="middle" dy="-0.25em">op10<tspan x="0" dy="1.2em">3,3,0</tspan></text>
    </g>
  </g>
  <g transform="translate(120,65)">
    <g class="primitive">
      <text text-anchor="middle" dy="-0.25em">op9<tspan x="0" dy="1.2em">2,2,0</tspan></text>
    </g>
  </g>
</g>
</svg>
