<?xml version="1.0" encoding="UTF-8"?>
<svg xmlns="http://www.w3.org/2000/svg"
     xmlns:xlink="http://www.w3.org/1999/xlink"
     xmlns:gadfly="http://www.gadflyjl.org/ns"
     version="1.2"
     width="420mm" height="340mm" viewBox="0 0 420 340"
     stroke="none"
     fill="#000000"
     stroke-width="0.3"
     font-size="3.88"
>
<defs>
  <marker id="arrow" markerWidth="15" markerHeight="7" refX="5" refY="3.5" orient="auto" markerUnits="strokeWidth">
    <path d="M0,0 L15,3.5 L0,7 z" stroke="context-stroke" fill="context-stroke"/>
  </marker>
</defs>
<g stroke="#000000" id="img-829972b6-1">
  <g transform="translate(20,325)">
    <path fill="none" d="M-5.6,0 L 5.6 0" class="primitive"/>
  </g>
  <g transform="translate(20,305)">
    <path fill="none" d="M-5.6,0 L 5.6 0" class="primitive"/>
  </g>
  <g transform="translate(400,310.62)">
    <path fill="none" d="M-5.6,0 L 5.6 0" class="primitive"/>
  </g>
  <g transform="translate(400,190.62)">
    <path fill="none" d="M-9.82,117.8 L 9.82 -117.8" class="primitive"/>
  </g>
  <g transform="translate(380,310.62)">
    <path fill="none" d="M-5.6,0 L 5.6 0" class="primitive"/>
  </g>
  <g transform="translate(360,310.62)">
    <path fill="none" d="M-5.6,0 L 5.6 0" class="primitive"/>
  </g>
  <g transform="translate(230,320.31)">
    <path fill="none" d="M-115.66,9.34 L 115.66 -9.34" class="primitive"/>
  </g>
  <g transform="translate(100,330)">
    <path fill="none" d="M-5.6,0 L 5.6 0" class="primitive"/>
  </g>
  <g transform="translate(100,305)">
    <path fill="none" d="M-9.14,22.84 L 9.14 -22.84" class="primitive"/>
  </g>
  <g transform="translate(80,330)">
    <path fill="none" d="M-5.6,0 L 5.6 0" class="primitive"/>
  </g>
  <g transform="translate(60,330)">
    <path fill="none" d="M-5.6,0 L 5.6 0" class="primitive"/>
  </g>
  <g transform="translate(180,300.62)">
    <path fill="none" d="M-65.75,8.81 L 65.75 -8.81" class="primitive"/>
  </g>
  <g transform="translate(100,310)">
    <path fill="none" d="M-5.6,0 L 5.6 0" class="primitive"/>
  </g>
  <g transform="translate(100,280)">
    <path fill="none" d="M-9.28,27.83 L 9.28 -27.83" class="primitive"/>
  </g>
  <g transform="translate(80,310)">
    <path fill="none" d="M-5.6,0 L 5.6 0" class="primitive"/>
  </g>
  <g transform="translate(60,310)">
    <path fill="none" d="M-5.6,0 L 5.6 0" class="primitive"/>
  </g>
  <g transform="translate(200,257.5)">
    <path fill="none" d="M-9.28,27.83 L 9.28 -27.83" class="primitive"/>
  </g>
  <g transform="translate(200,280)">
    <path fill="none" d="M-7.56,5.67 L 7.56 -5.67" class="primitive"/>
  </g>
  <g transform="translate(180,287.5)">
    <path fill="none" d="M-5.6,0 L 5.6 0" class="primitive"/>
  </g>
  <g transform="translate(160,287.5)">
    <path fill="none" d="M-5.6,0 L 5.6 0" class="primitive"/>
  </g>
  <g transform="translate(200,227.5)">
    <path fill="none" d="M-9.28,27.83 L 9.28 -27.83" class="primitive"/>
  </g>
  <g transform="translate(200,265)">
    <path fill="none" d="M-7.56,-5.67 L 7.56 5.67" class="primitive"/>
  </g>
  <g transform="translate(180,257.5)">
    <path fill="none" d="M-5.6,0 L 5.6 0" class="primitive"/>
  </g>
  <g transform="translate(160,257.5)">
    <path fill="none" d="M-5.6,0 L 5.6 0" class="primitive"/>
  </g>
  <g transform="translate(300,221.25)">
    <path fill="none" d="M-9.69,67.81 L 9.69 -67.81" class="primitive"/>
  </g>
  <g transform="translate(300,291.25)">
    <path fill="none" d="M-5.6,0 L 5.6 0" class="primitive"/>
  </g>
  <g transform="translate(280,291.25)">
    <path fill="none" d="M-5.6,0 L 5.6 0" class="primitive"/>
  </g>
  <g transform="translate(260,291.25)">
    <path fill="none" d="M-5.6,0 L 5.6 0" class="primitive"/>
  </g>
  <g transform="translate(90,291.25)">
    <path fill="none" d="M-55.63,3.48 L 55.63 -3.48" class="primitive"/>
  </g>
  <g transform="translate(20,295)">
    <path fill="none" d="M-5.6,0 L 5.6 0" class="primitive"/>
  </g>
  <g transform="translate(90,261.25)">
    <path fill="none" d="M-55.63,3.48 L 55.63 -3.48" class="primitive"/>
  </g>
  <g transform="translate(20,265)">
    <path fill="none" d="M-5.6,0 L 5.6 0" class="primitive"/>
  </g>
  <g transform="translate(40,312.5)">
    <path fill="none" d="M-6.06,1.52 L 6.06 -1.52" class="primitive"/>
  </g>
  <g transform="translate(20,315)">
    <path fill="none" d="M-5.6,0 L 5.6 0" class="primitive"/>
  </g>
  <g transform="translate(40,332.5)">
    <path fill="none" d="M-6.06,1.52 L 6.06 -1.52" class="primitive"/>
  </g>
  <g transform="translate(20,335)">
    <path fill="none" d="M-5.6,0 L 5.6 0" class="primitive"/>
  </g>
  <g transform="translate(340,300.94)">
    <path fill="none" d="M-7.98,-7.73 L 7.98 7.73" class="primitive"/>
  </g>
  <g transform="translate(240,281.88)">
    <path fill="none" d="M-7.93,-7.43 L 7.93 7.43" class="primitive"/>
  </g>
  <g transform="translate(140,283.75)">
    <path fill="none" d="M-6.48,-2.43 L 6.48 2.43" class="primitive"/>
  </g>
  <g transform="translate(140,253.75)">
    <path fill="none" d="M-6.48,-2.43 L 6.48 2.43" class="primitive"/>
  </g>
  <g transform="translate(40,307.5)">
    <path fill="none" d="M-6.06,-1.52 L 6.06 1.52" class="primitive"/>
  </g>
  <g transform="translate(40,327.5)">
    <path fill="none" d="M-6.06,-1.52 L 6.06 1.52" class="primitive"/>
  </g>
  <g transform="translate(120,280)">
    <path fill="none" d="M-5.6,0 L 5.6 0" class="primitive"/>
  </g>
  <g transform="translate(120,250)">
    <path fill="none" d="M-5.6,0 L 5.6 0" class="primitive"/>
  </g>
  <g transform="translate(220,272.5)">
    <path fill="none" d="M-5.6,0 L 5.6 0" class="primitive"/>
  </g>
  <g transform="translate(320,291.25)">
    <path fill="none" d="M-5.6,0 L 5.6 0" class="primitive"/>
  </g>
</g>
<g fill="#FF0000" id="img-829972b6-2">
  <g transform="translate(10,325)">
    <circle cx="0" cy="0" r="4" class="primitive"/>
  </g>
</g>
<g fill="#FF0000" id="img-829972b6-3">
  <g transform="translate(10,305)">
    <circle cx="0" cy="0" r="4" class="primitive"/>
  </g>
</g>
<g fill="#00FFFF" id="img-829972b6-4">
  <g transform="translate(410,310.62)">
    <circle cx="0" cy="0" r="4" class="primitive"/>
  </g>
</g>
<g fill="#00FFFF" id="img-829972b6-5">
  <g transform="translate(390,310.62)">
    <circle cx="0" cy="0" r="4" class="primitive"/>
  </g>
</g>
<g fill="#00FFFF" id="img-829972b6-6">
  <g transform="translate(370,310.62)">
    <circle cx="0" cy="0" r="4" class="primitive"/>
  </g>
</g>
<g fill="#00FFFF" id="img-829972b6-7">
  <g transform="translate(350,310.62)">
    <circle cx="0" cy="0" r="4" class="primitive"/>
  </g>
</g>
<g fill="#00FFFF" id="img-829972b6-8">
  <g transform="translate(110,330)">
    <circle cx="0" cy="0" r="4" class="primitive"/>
  </g>
</g>
<g fill="#00FFFF" id="img-829972b6-9">
  <g transform="translate(90,330)">
    <circle cx="0" cy="0" r="4" class="primitive"/>
  </g>
</g>
<g fill="#00FFFF" id="img-829972b6-10">
  <g transform="translate(70,330)">
    <circle cx="0" cy="0" r="4" class="primitive"/>
  </g>
</g>
<g fill="#00FFFF" id="img-829972b6-11">
  <g transform="translate(50,330)">
    <circle cx="0" cy="0" r="4" class="primitive"/>
  </g>
</g>
<g fill="#00FFFF" id="img-829972b6-12">
  <g transform="translate(110,310)">
    <circle cx="0" cy="0" r="4" class="primitive"/>
  </g>
</g>
<g fill="#00FFFF" id="img-829972b6-13">
  <g transform="translate(90,310)">
    <circle cx="0" cy="0" r="4" class="primitive"/>
  </g>
</g>
<g fill="#00FFFF" id="img-829972b6-14">
  <g transform="translate(70,310)">
    <circle cx="0" cy="0" r="4" class="primitive"/>
  </g>
</g>
<g fill="#00FFFF" id="img-829972b6-15">
  <g transform="translate(50,310)">
    <circle cx="0" cy="0" r="4" class="primitive"/>
  </g>
</g>
<g fill="#00FFFF" id="img-829972b6-16">
  <g transform="translate(210,227.5)">
    <circle cx="0" cy="0" r="4" class="primitive"/>
  </g>
</g>
<g fill="#00FFFF" id="img-829972b6-17">
  <g transform="translate(190,287.5)">
    <circle cx="0" cy="0" r="4" class="primitive"/>
  </g>
</g>
<g fill="#00FFFF" id="img-829972b6-18">
  <g transform="translate(170,287.5)">
    <circle cx="0" cy="0" r="4" class="primitive"/>
  </g>
</g>
<g fill="#00FFFF" id="img-829972b6-19">
  <g transform="translate(150,287.5)">
    <circle cx="0" cy="0" r="4" class="primitive"/>
  </g>
</g>
<g fill="#00FFFF" id="img-829972b6-20">
  <g transform="translate(210,197.5)">
    <circle cx="0" cy="0" r="4" class="primitive"/>
  </g>
</g>
<g fill="#00FFFF" id="img-829972b6-21">
  <g transform="translate(190,257.5)">
    <circle cx="0" cy="0" r="4" class="primitive"/>
  </g>
</g>
<g fill="#00FFFF" id="img-829972b6-22">
  <g transform="translate(170,257.5)">
    <circle cx="0" cy="0" r="4" class="primitive"/>
  </g>
</g>
<g fill="#00FFFF" id="img-829972b6-23">
  <g transform="translate(150,257.5)">
    <circle cx="0" cy="0" r="4" class="primitive"/>
  </g>
</g>
<g fill="#00FFFF" id="img-829972b6-24">
  <g transform="translate(310,151.25)">
    <circle cx="0" cy="0" r="4" class="primitive"/>
  </g>
</g>
<g fill="#00FFFF" id="img-829972b6-25">
  <g transform="translate(290,291.25)">
    <circle cx="0" cy="0" r="4" class="primitive"/>
  </g>
</g>
<g fill="#00FFFF" id="img-829972b6-26">
  <g transform="translate(270,291.25)">
    <circle cx="0" cy="0" r="4" class="primitive"/>
  </g>
</g>
<g fill="#00FFFF" id="img-829972b6-27">
  <g transform="translate(250,291.25)">
    <circle cx="0" cy="0" r="4" class="primitive"/>
  </g>
</g>
<g fill="#00FFFF" id="img-829972b6-28">
  <g transform="translate(30,295)">
    <circle cx="0" cy="0" r="4" class="primitive"/>
  </g>
</g>
<g fill="#00FF00" id="img-829972b6-29">
  <g transform="translate(10,295)">
    <circle cx="0" cy="0" r="4" class="primitive"/>
  </g>
</g>
<g fill="#00FFFF" id="img-829972b6-30">
  <g transform="translate(30,265)">
    <circle cx="0" cy="0" r="4" class="primitive"/>
  </g>
</g>
<g fill="#00FF00" id="img-829972b6-31">
  <g transform="translate(10,265)">
    <circle cx="0" cy="0" r="4" class="primitive"/>
  </g>
</g>
<g fill="#00FFFF" id="img-829972b6-32">
  <g transform="translate(30,315)">
    <circle cx="0" cy="0" r="4" class="primitive"/>
  </g>
</g>
<g fill="#00FF00" id="img-829972b6-33">
  <g transform="translate(10,315)">
    <circle cx="0" cy="0" r="4" class="primitive"/>
  </g>
</g>
<g fill="#00FFFF" id="img-829972b6-34">
  <g transform="translate(30,335)">
    <circle cx="0" cy="0" r="4" class="primitive"/>
  </g>
</g>
<g fill="#00FF00" id="img-829972b6-35">
  <g transform="translate(10,335)">
    <circle cx="0" cy="0" r="4" class="primitive"/>
  </g>
</g>
<g fill="#FFA500" id="img-829972b6-36">
  <g transform="translate(330,291.25)">
    <circle cx="0" cy="0" r="4" class="primitive"/>
  </g>
</g>
<g fill="#FFA500" id="img-829972b6-37">
  <g transform="translate(230,272.5)">
    <circle cx="0" cy="0" r="4" class="primitive"/>
  </g>
</g>
<g fill="#FFA500" id="img-829972b6-38">
  <g transform="translate(130,280)">
    <circle cx="0" cy="0" r="4" class="primitive"/>
  </g>
</g>
<g fill="#FFA500" id="img-829972b6-39">
  <g transform="translate(130,250)">
    <circle cx="0" cy="0" r="4" class="primitive"/>
  </g>
</g>
<g fill="#FFA500" id="img-829972b6-40">
  <g transform="translate(30,305)">
    <circle cx="0" cy="0" r="4" class="primitive"/>
  </g>
</g>
<g fill="#FFA500" id="img-829972b6-41">
  <g transform="translate(30,325)">
    <circle cx="0" cy="0" r="4" class="primitive"/>
  </g>
</g>
<g fill="#FF0000" id="img-829972b6-42">
  <g transform="translate(410,70.62)">
    <circle cx="0" cy="0" r="4" class="primitive"/>
  </g>
</g>
<g fill="#FF0000" id="img-829972b6-43">
  <g transform="translate(110,280)">
    <circle cx="0" cy="0" r="4" class="primitive"/>
  </g>
</g>
<g fill="#FF0000" id="img-829972b6-44">
  <g transform="translate(110,250)">
    <circle cx="0" cy="0" r="4" class="primitive"/>
  </g>
</g>
<g fill="#FF0000" id="img-829972b6-45">
  <g transform="translate(210,272.5)">
    <circle cx="0" cy="0" r="4" class="primitive"/>
  </g>
</g>
<g fill="#FF0000" id="img-829972b6-46">
  <g transform="translate(310,291.25)">
    <circle cx="0" cy="0" r="4" class="primitive"/>
  </g>
</g>
<g font-family="futura" font-size="3.53" stroke="#000000" id="img-829972b6-47">
  <g transform="translate(10,325)">
    <g class="primitive">
      <text text-anchor="middle" dy="-0.25em">op536<tspan x="0" dy="1.2em">0,0</tspan></text>
    </g>
  </g>
  <g transform="translate(10,305)">
    <g class="primitive">
      <text text-anchor="middle" dy="-0.25em">op535<tspan x="0" dy="1.2em">0,0</tspan></text>
    </g>
  </g>
  <g transform="translate(410,310.62)">
    <g class="primitive">
      <text text-anchor="middle" dy="-0.85em">go<tspan x="0" dy="1.2em">1,539,-1</tspan><tspan x="0" dy="1.2em">88,88</tspan></text>
    </g>
  </g>
  <g transform="translate(390,310.62)">
    <g class="primitive">
      <text text-anchor="middle" dy="-0.85em">deposit<tspan x="0" dy="1.2em">1,6,539</tspan><tspan x="0" dy="1.2em">88,88</tspan></text>
    </g>
  </g>
  <g transform="translate(370,310.62)">
    <g class="primitive">
      <text text-anchor="middle" dy="-0.85em">carry<tspan x="0" dy="1.2em">1,6,539</tspan><tspan x="0" dy="1.2em">76,88</tspan></text>
    </g>
  </g>
  <g transform="translate(350,310.62)">
    <g class="primitive">
      <text text-anchor="middle" dy="-0.85em">collect<tspan x="0" dy="1.2em">1,6,509</tspan><tspan x="0" dy="1.2em">76,76</tspan></text>
    </g>
  </g>
  <g transform="translate(110,330)">
    <g class="primitive">
      <text text-anchor="middle" dy="-0.85em">go<tspan x="0" dy="1.2em">1,271,509</tspan><tspan x="0" dy="1.2em">18,76</tspan></text>
    </g>
  </g>
  <g transform="translate(90,330)">
    <g class="primitive">
      <text text-anchor="middle" dy="-0.85em">deposit<tspan x="0" dy="1.2em">1,1,271</tspan><tspan x="0" dy="1.2em">18,18</tspan></text>
    </g>
  </g>
  <g transform="translate(70,330)">
    <g class="primitive">
      <text text-anchor="middle" dy="-0.85em">carry<tspan x="0" dy="1.2em">1,1,271</tspan><tspan x="0" dy="1.2em">10,18</tspan></text>
    </g>
  </g>
  <g transform="translate(50,330)">
    <g class="primitive">
      <text text-anchor="middle" dy="-0.85em">collect<tspan x="0" dy="1.2em">1,1,108</tspan><tspan x="0" dy="1.2em">10,10</tspan></text>
    </g>
  </g>
  <g transform="translate(110,310)">
    <g class="primitive">
      <text text-anchor="middle" dy="-0.85em">go<tspan x="0" dy="1.2em">2,196,197</tspan><tspan x="0" dy="1.2em">38,55</tspan></text>
    </g>
  </g>
  <g transform="translate(90,310)">
    <g class="primitive">
      <text text-anchor="middle" dy="-0.85em">deposit<tspan x="0" dy="1.2em">2,2,196</tspan><tspan x="0" dy="1.2em">38,38</tspan></text>
    </g>
  </g>
  <g transform="translate(70,310)">
    <g class="primitive">
      <text text-anchor="middle" dy="-0.85em">carry<tspan x="0" dy="1.2em">2,2,196</tspan><tspan x="0" dy="1.2em">8,38</tspan></text>
    </g>
  </g>
  <g transform="translate(50,310)">
    <g class="primitive">
      <text text-anchor="middle" dy="-0.85em">collect<tspan x="0" dy="1.2em">2,2,513</tspan><tspan x="0" dy="1.2em">8,8</tspan></text>
    </g>
  </g>
  <g transform="translate(210,227.5)">
    <g class="primitive">
      <text text-anchor="middle" dy="-0.85em">go<tspan x="0" dy="1.2em">4,119,-1</tspan><tspan x="0" dy="1.2em">39,88</tspan></text>
    </g>
  </g>
  <g transform="translate(190,287.5)">
    <g class="primitive">
      <text text-anchor="middle" dy="-0.85em">deposit<tspan x="0" dy="1.2em">4,4,119</tspan><tspan x="0" dy="1.2em">39,39</tspan></text>
    </g>
  </g>
  <g transform="translate(170,287.5)">
    <g class="primitive">
      <text text-anchor="middle" dy="-0.85em">carry<tspan x="0" dy="1.2em">4,4,119</tspan><tspan x="0" dy="1.2em">18,39</tspan></text>
    </g>
  </g>
  <g transform="translate(150,287.5)">
    <g class="primitive">
      <text text-anchor="middle" dy="-0.85em">collect<tspan x="0" dy="1.2em">4,4,349</tspan><tspan x="0" dy="1.2em">18,18</tspan></text>
    </g>
  </g>
  <g transform="translate(210,197.5)">
    <g class="primitive">
      <text text-anchor="middle" dy="-0.85em">go<tspan x="0" dy="1.2em">3,545,-1</tspan><tspan x="0" dy="1.2em">55,88</tspan></text>
    </g>
  </g>
  <g transform="translate(190,257.5)">
    <g class="primitive">
      <text text-anchor="middle" dy="-0.85em">deposit<tspan x="0" dy="1.2em">3,3,545</tspan><tspan x="0" dy="1.2em">55,55</tspan></text>
    </g>
  </g>
  <g transform="translate(170,257.5)">
    <g class="primitive">
      <text text-anchor="middle" dy="-0.85em">carry<tspan x="0" dy="1.2em">3,3,545</tspan><tspan x="0" dy="1.2em">38,55</tspan></text>
    </g>
  </g>
  <g transform="translate(150,257.5)">
    <g class="primitive">
      <text text-anchor="middle" dy="-0.85em">collect<tspan x="0" dy="1.2em">3,3,270</tspan><tspan x="0" dy="1.2em">38,38</tspan></text>
    </g>
  </g>
  <g transform="translate(310,151.25)">
    <g class="primitive">
      <text text-anchor="middle" dy="-0.85em">go<tspan x="0" dy="1.2em">2,277,-1</tspan><tspan x="0" dy="1.2em">76,88</tspan></text>
    </g>
  </g>
  <g transform="translate(290,291.25)">
    <g class="primitive">
      <text text-anchor="middle" dy="-0.85em">deposit<tspan x="0" dy="1.2em">2,5,277</tspan><tspan x="0" dy="1.2em">76,76</tspan></text>
    </g>
  </g>
  <g transform="translate(270,291.25)">
    <g class="primitive">
      <text text-anchor="middle" dy="-0.85em">carry<tspan x="0" dy="1.2em">2,5,277</tspan><tspan x="0" dy="1.2em">55,76</tspan></text>
    </g>
  </g>
  <g transform="translate(250,291.25)">
    <g class="primitive">
      <text text-anchor="middle" dy="-0.85em">collect<tspan x="0" dy="1.2em">2,5,197</tspan><tspan x="0" dy="1.2em">55,55</tspan></text>
    </g>
  </g>
  <g transform="translate(30,295)">
    <g class="primitive">
      <text text-anchor="middle" dy="-0.85em">go<tspan x="0" dy="1.2em">4,338,349</tspan><tspan x="0" dy="1.2em">0,18</tspan></text>
    </g>
  </g>
  <g transform="translate(10,295)">
    <g class="primitive">
      <text text-anchor="middle" dy="-0.25em">R4-338<tspan x="0" dy="1.2em">0,0</tspan></text>
    </g>
  </g>
  <g transform="translate(30,265)">
    <g class="primitive">
      <text text-anchor="middle" dy="-0.85em">go<tspan x="0" dy="1.2em">3,216,270</tspan><tspan x="0" dy="1.2em">0,38</tspan></text>
    </g>
  </g>
  <g transform="translate(10,265)">
    <g class="primitive">
      <text text-anchor="middle" dy="-0.25em">R3-216<tspan x="0" dy="1.2em">0,0</tspan></text>
    </g>
  </g>
  <g transform="translate(30,315)">
    <g class="primitive">
      <text text-anchor="middle" dy="-0.85em">go<tspan x="0" dy="1.2em">2,586,513</tspan><tspan x="0" dy="1.2em">0,8</tspan></text>
    </g>
  </g>
  <g transform="translate(10,315)">
    <g class="primitive">
      <text text-anchor="middle" dy="-0.25em">R2-586<tspan x="0" dy="1.2em">0,0</tspan></text>
    </g>
  </g>
  <g transform="translate(30,335)">
    <g class="primitive">
      <text text-anchor="middle" dy="-0.85em">go<tspan x="0" dy="1.2em">1,150,108</tspan><tspan x="0" dy="1.2em">0,10</tspan></text>
    </g>
  </g>
  <g transform="translate(10,335)">
    <g class="primitive">
      <text text-anchor="middle" dy="-0.25em">R1-150<tspan x="0" dy="1.2em">0,0</tspan></text>
    </g>
  </g>
  <g transform="translate(330,291.25)">
    <g class="primitive">
      <text text-anchor="middle" dy="-0.25em">O6-509<tspan x="0" dy="1.2em">76,76</tspan></text>
    </g>
  </g>
  <g transform="translate(230,272.5)">
    <g class="primitive">
      <text text-anchor="middle" dy="-0.25em">O5-197<tspan x="0" dy="1.2em">55,55</tspan></text>
    </g>
  </g>
  <g transform="translate(130,280)">
    <g class="primitive">
      <text text-anchor="middle" dy="-0.25em">O4-349<tspan x="0" dy="1.2em">18,18</tspan></text>
    </g>
  </g>
  <g transform="translate(130,250)">
    <g class="primitive">
      <text text-anchor="middle" dy="-0.25em">O3-270<tspan x="0" dy="1.2em">38,38</tspan></text>
    </g>
  </g>
  <g transform="translate(30,305)">
    <g class="primitive">
      <text text-anchor="middle" dy="-0.25em">O2-513<tspan x="0" dy="1.2em">0,0</tspan></text>
    </g>
  </g>
  <g transform="translate(30,325)">
    <g class="primitive">
      <text text-anchor="middle" dy="-0.25em">O1-108<tspan x="0" dy="1.2em">0,0</tspan></text>
    </g>
  </g>
  <g transform="translate(410,70.62)">
    <g class="primitive">
      <text text-anchor="middle" dy="-0.25em">op532<tspan x="0" dy="1.2em">88,88</tspan></text>
    </g>
  </g>
  <g transform="translate(110,280)">
    <g class="primitive">
      <text text-anchor="middle" dy="-0.25em">op531<tspan x="0" dy="1.2em">18,18</tspan></text>
    </g>
  </g>
  <g transform="translate(110,250)">
    <g class="primitive">
      <text text-anchor="middle" dy="-0.25em">op530<tspan x="0" dy="1.2em">38,38</tspan></text>
    </g>
  </g>
  <g transform="translate(210,272.5)">
    <g class="primitive">
      <text text-anchor="middle" dy="-0.25em">op529<tspan x="0" dy="1.2em">55,55</tspan></text>
    </g>
  </g>
  <g transform="translate(310,291.25)">
    <g class="primitive">
      <text text-anchor="middle" dy="-0.25em">op528<tspan x="0" dy="1.2em">76,76</tspan></text>
    </g>
  </g>
</g>
</svg>
