<?xml version="1.0" encoding="UTF-8"?>
<svg xmlns="http://www.w3.org/2000/svg"
     xmlns:xlink="http://www.w3.org/1999/xlink"
     version="1.2"
     width="620mm" height="480mm" viewBox="0 0 620 480"
     stroke="none"
     fill="#000000"
     stroke-width="0.3"
     font-size="3.88"
>
<defs>
  <marker id="arrow" markerWidth="15" markerHeight="7" refX="5" refY="3.5" orient="auto" markerUnits="strokeWidth">
    <path d="M0,0 L15,3.5 L0,7 z" stroke="context-stroke" fill="context-stroke"/>
  </marker>
</defs>
<g stroke="#000000" id="img-3f7e92b8-1">
  <g transform="translate(600,362.16)">
    <path fill="none" d="M-5.6,0 L 5.6 0" class="primitive"/>
  </g>
  <g transform="translate(580,362.16)">
    <path fill="none" d="M-5.6,0 L 5.6 0" class="primitive"/>
  </g>
  <g transform="translate(560,362.16)">
    <path fill="none" d="M-5.6,0 L 5.6 0" class="primitive"/>
  </g>
  <g transform="translate(380,407.96)">
    <path fill="none" d="M-166.13,44.75 L 166.13 -44.75" class="primitive"/>
  </g>
  <g transform="translate(140,462.5)">
    <path fill="none" d="M-5.6,0 L 5.6 0" class="primitive"/>
  </g>
  <g transform="translate(120,462.5)">
    <path fill="none" d="M-5.6,0 L 5.6 0" class="primitive"/>
  </g>
  <g transform="translate(100,462.5)">
    <path fill="none" d="M-5.6,0 L 5.6 0" class="primitive"/>
  </g>
  <g transform="translate(80,466.25)">
    <path fill="none" d="M-6.48,2.43 L 6.48 -2.43" class="primitive"/>
  </g>
  <g transform="translate(210,369.69)">
    <path fill="none" d="M-96,21.9 L 96 -21.9" class="primitive"/>
  </g>
  <g transform="translate(100,392.5)">
    <path fill="none" d="M-5.6,0 L 5.6 0" class="primitive"/>
  </g>
  <g transform="translate(80,392.5)">
    <path fill="none" d="M-5.6,0 L 5.6 0" class="primitive"/>
  </g>
  <g transform="translate(60,396.25)">
    <path fill="none" d="M-6.48,2.43 L 6.48 -2.43" class="primitive"/>
  </g>
  <g transform="translate(300,345.62)">
    <path fill="none" d="M-5.73,-0.72 L 5.73 0.72" class="primitive"/>
  </g>
  <g transform="translate(280,344.38)">
    <path fill="none" d="M-5.6,0 L 5.6 0" class="primitive"/>
  </g>
  <g transform="translate(260,344.38)">
    <path fill="none" d="M-5.6,0 L 5.6 0" class="primitive"/>
  </g>
  <g transform="translate(260,279.38)">
    <path fill="none" d="M-9.66,62.81 L 9.66 -62.81" class="primitive"/>
  </g>
  <g transform="translate(240,349.06)">
    <path fill="none" d="M-6.79,3.18 L 6.79 -3.18" class="primitive"/>
  </g>
  <g transform="translate(270,325.31)">
    <path fill="none" d="M-37.01,-19.95 L 37.01 19.95" class="primitive"/>
  </g>
  <g transform="translate(220,353.75)">
    <path fill="none" d="M-5.6,0 L 5.6 0" class="primitive"/>
  </g>
  <g transform="translate(220,328.75)">
    <path fill="none" d="M-9.14,22.84 L 9.14 -22.84" class="primitive"/>
  </g>
  <g transform="translate(200,453.75)">
    <path fill="none" d="M-5.6,0 L 5.6 0" class="primitive"/>
  </g>
  <g transform="translate(200,403.75)">
    <path fill="none" d="M-9.56,47.81 L 9.56 -47.81" class="primitive"/>
  </g>
  <g transform="translate(180,458.12)">
    <path fill="none" d="M-6.69,2.93 L 6.69 -2.93" class="primitive"/>
  </g>
  <g transform="translate(80,280)">
    <path fill="none" d="M-5.6,0 L 5.6 0" class="primitive"/>
  </g>
  <g transform="translate(60,470)">
    <path fill="none" d="M-5.6,0 L 5.6 0" class="primitive"/>
  </g>
  <g transform="translate(60,375)">
    <path fill="none" d="M-9.77,92.8 L 9.77 -92.8" class="primitive"/>
  </g>
  <g transform="translate(40,435)">
    <path fill="none" d="M-9.38,32.82 L 9.38 -32.82" class="primitive"/>
  </g>
  <g transform="translate(40,470)">
    <path fill="none" d="M-5.6,0 L 5.6 0" class="primitive"/>
  </g>
  <g transform="translate(20,472.5)">
    <path fill="none" d="M-6.06,1.52 L 6.06 -1.52" class="primitive"/>
  </g>
  <g transform="translate(400,99.69)">
    <path fill="none" d="M-5.6,0 L 5.6 0" class="primitive"/>
  </g>
  <g transform="translate(380,99.69)">
    <path fill="none" d="M-5.6,0 L 5.6 0" class="primitive"/>
  </g>
  <g transform="translate(360,99.69)">
    <path fill="none" d="M-5.6,0 L 5.6 0" class="primitive"/>
  </g>
  <g transform="translate(340,118.28)">
    <path fill="none" d="M-8.86,16.47 L 8.86 -16.47" class="primitive"/>
  </g>
  <g transform="translate(450,327.63)">
    <path fill="none" d="M-57.95,55.11 L 57.95 -55.11" class="primitive"/>
  </g>
  <g transform="translate(380,384.69)">
    <path fill="none" d="M-5.6,0 L 5.6 0" class="primitive"/>
  </g>
  <g transform="translate(360,384.69)">
    <path fill="none" d="M-5.6,0 L 5.6 0" class="primitive"/>
  </g>
  <g transform="translate(260,403.59)">
    <path fill="none" d="M-85.94,18.05 L 85.94 -18.05" class="primitive"/>
  </g>
  <g transform="translate(340,270.29)">
    <path fill="none" d="M-165.6,-0.28 L 165.6 0.28" class="primitive"/>
  </g>
  <g transform="translate(160,270)">
    <path fill="none" d="M-5.6,0 L 5.6 0" class="primitive"/>
  </g>
  <g transform="translate(140,270)">
    <path fill="none" d="M-5.6,0 L 5.6 0" class="primitive"/>
  </g>
  <g transform="translate(120,275)">
    <path fill="none" d="M-6.89,3.44 L 6.89 -3.44" class="primitive"/>
  </g>
  <g transform="translate(500,213.8)">
    <path fill="none" d="M-9.61,-54.58 L 9.61 54.58" class="primitive"/>
  </g>
  <g transform="translate(480,157.03)">
    <path fill="none" d="M-5.6,0 L 5.6 0" class="primitive"/>
  </g>
  <g transform="translate(460,157.03)">
    <path fill="none" d="M-5.6,0 L 5.6 0" class="primitive"/>
  </g>
  <g transform="translate(360,185.7)">
    <path fill="none" d="M-86.29,27.49 L 86.29 -27.49" class="primitive"/>
  </g>
  <g transform="translate(160,462.5)">
    <path fill="none" d="M-5.6,0 L 5.6 0" class="primitive"/>
  </g>
  <g transform="translate(160,442.5)">
    <path fill="none" d="M-8.93,17.87 L 8.93 -17.87" class="primitive"/>
  </g>
  <g transform="translate(160,262.5)">
    <path fill="none" d="M-9.89,197.8 L 9.89 -197.8" class="primitive"/>
  </g>
  <g transform="translate(320,241.88)">
    <path fill="none" d="M-9.79,102.8 L 9.79 -102.8" class="primitive"/>
  </g>
  <g transform="translate(320,346.88)">
    <path fill="none" d="M-5.6,0 L 5.6 0" class="primitive"/>
  </g>
  <g transform="translate(100,280)">
    <path fill="none" d="M-5.6,0 L 5.6 0" class="primitive"/>
  </g>
  <g transform="translate(100,270)">
    <path fill="none" d="M-8.03,8.03 L 8.03 -8.03" class="primitive"/>
  </g>
  <g transform="translate(420,99.69)">
    <path fill="none" d="M-5.6,0 L 5.6 0" class="primitive"/>
  </g>
  <g transform="translate(520,270.57)">
    <path fill="none" d="M-5.6,0 L 5.6 0" class="primitive"/>
  </g>
  <g transform="translate(540,316.37)">
    <path fill="none" d="M-9.52,-43.61 L 9.52 43.61" class="primitive"/>
  </g>
  <g transform="translate(120,265)">
    <path fill="none" d="M-6.89,-3.44 L 6.89 3.44" class="primitive"/>
  </g>
  <g transform="translate(340,365.78)">
    <path fill="none" d="M-8.88,-16.78 L 8.88 16.78" class="primitive"/>
  </g>
  <g transform="translate(440,128.36)">
    <path fill="none" d="M-9.24,-26.5 L 9.24 26.5" class="primitive"/>
  </g>
  <g transform="translate(260,81.09)">
    <path fill="none" d="M-85.93,-17.75 L 85.93 17.75" class="primitive"/>
  </g>
  <g transform="translate(20,467.5)">
    <path fill="none" d="M-6.06,-1.52 L 6.06 1.52" class="primitive"/>
  </g>
  <g transform="translate(100,449.38)">
    <path fill="none" d="M-85.62,-4.16 L 85.62 4.16" class="primitive"/>
  </g>
  <g transform="translate(40,388.75)">
    <path fill="none" d="M-25.73,-3.22 L 25.73 3.22" class="primitive"/>
  </g>
  <g transform="translate(130,339.69)">
    <path fill="none" d="M-115.61,-4.52 L 115.61 4.52" class="primitive"/>
  </g>
  <g transform="translate(50,458.75)">
    <path fill="none" d="M-35.68,-3.34 L 35.68 3.34" class="primitive"/>
  </g>
</g>
<g fill="#00FFFF" id="img-3f7e92b8-2">
  <g transform="translate(590,362.16)">
    <circle cx="0" cy="0" r="4" class="primitive"/>
  </g>
</g>
<g fill="#00FFFF" id="img-3f7e92b8-3">
  <g transform="translate(570,362.16)">
    <circle cx="0" cy="0" r="4" class="primitive"/>
  </g>
</g>
<g fill="#00FFFF" id="img-3f7e92b8-4">
  <g transform="translate(550,362.16)">
    <circle cx="0" cy="0" r="4" class="primitive"/>
  </g>
</g>
<g fill="#00FFFF" id="img-3f7e92b8-5">
  <g transform="translate(210,453.75)">
    <circle cx="0" cy="0" r="4" class="primitive"/>
  </g>
</g>
<g fill="#00FFFF" id="img-3f7e92b8-6">
  <g transform="translate(130,462.5)">
    <circle cx="0" cy="0" r="4" class="primitive"/>
  </g>
</g>
<g fill="#00FFFF" id="img-3f7e92b8-7">
  <g transform="translate(110,462.5)">
    <circle cx="0" cy="0" r="4" class="primitive"/>
  </g>
</g>
<g fill="#00FFFF" id="img-3f7e92b8-8">
  <g transform="translate(90,462.5)">
    <circle cx="0" cy="0" r="4" class="primitive"/>
  </g>
</g>
<g fill="#00FFFF" id="img-3f7e92b8-9">
  <g transform="translate(70,470)">
    <circle cx="0" cy="0" r="4" class="primitive"/>
  </g>
</g>
<g fill="#00FFFF" id="img-3f7e92b8-10">
  <g transform="translate(110,392.5)">
    <circle cx="0" cy="0" r="4" class="primitive"/>
  </g>
</g>
<g fill="#00FFFF" id="img-3f7e92b8-11">
  <g transform="translate(90,392.5)">
    <circle cx="0" cy="0" r="4" class="primitive"/>
  </g>
</g>
<g fill="#00FFFF" id="img-3f7e92b8-12">
  <g transform="translate(70,392.5)">
    <circle cx="0" cy="0" r="4" class="primitive"/>
  </g>
</g>
<g fill="#00FFFF" id="img-3f7e92b8-13">
  <g transform="translate(50,400)">
    <circle cx="0" cy="0" r="4" class="primitive"/>
  </g>
</g>
<g fill="#00FFFF" id="img-3f7e92b8-14">
  <g transform="translate(290,344.38)">
    <circle cx="0" cy="0" r="4" class="primitive"/>
  </g>
</g>
<g fill="#00FFFF" id="img-3f7e92b8-15">
  <g transform="translate(270,344.38)">
    <circle cx="0" cy="0" r="4" class="primitive"/>
  </g>
</g>
<g fill="#00FFFF" id="img-3f7e92b8-16">
  <g transform="translate(250,344.38)">
    <circle cx="0" cy="0" r="4" class="primitive"/>
  </g>
</g>
<g fill="#00FFFF" id="img-3f7e92b8-17">
  <g transform="translate(230,353.75)">
    <circle cx="0" cy="0" r="4" class="primitive"/>
  </g>
</g>
<g fill="#00FFFF" id="img-3f7e92b8-18">
  <g transform="translate(230,303.75)">
    <circle cx="0" cy="0" r="4" class="primitive"/>
  </g>
</g>
<g fill="#00FFFF" id="img-3f7e92b8-19">
  <g transform="translate(210,353.75)">
    <circle cx="0" cy="0" r="4" class="primitive"/>
  </g>
</g>
<g fill="#00FFFF" id="img-3f7e92b8-20">
  <g transform="translate(190,453.75)">
    <circle cx="0" cy="0" r="4" class="primitive"/>
  </g>
</g>
<g fill="#00FFFF" id="img-3f7e92b8-21">
  <g transform="translate(170,462.5)">
    <circle cx="0" cy="0" r="4" class="primitive"/>
  </g>
</g>
<g fill="#00FFFF" id="img-3f7e92b8-22">
  <g transform="translate(70,280)">
    <circle cx="0" cy="0" r="4" class="primitive"/>
  </g>
</g>
<g fill="#00FFFF" id="img-3f7e92b8-23">
  <g transform="translate(50,470)">
    <circle cx="0" cy="0" r="4" class="primitive"/>
  </g>
</g>
<g fill="#00FFFF" id="img-3f7e92b8-24">
  <g transform="translate(30,470)">
    <circle cx="0" cy="0" r="4" class="primitive"/>
  </g>
</g>
<g fill="#00FFFF" id="img-3f7e92b8-25">
  <g transform="translate(10,475)">
    <circle cx="0" cy="0" r="4" class="primitive"/>
  </g>
</g>
<g fill="#00FFFF" id="img-3f7e92b8-26">
  <g transform="translate(390,99.69)">
    <circle cx="0" cy="0" r="4" class="primitive"/>
  </g>
</g>
<g fill="#00FFFF" id="img-3f7e92b8-27">
  <g transform="translate(370,99.69)">
    <circle cx="0" cy="0" r="4" class="primitive"/>
  </g>
</g>
<g fill="#00FFFF" id="img-3f7e92b8-28">
  <g transform="translate(350,99.69)">
    <circle cx="0" cy="0" r="4" class="primitive"/>
  </g>
</g>
<g fill="#00FFFF" id="img-3f7e92b8-29">
  <g transform="translate(330,136.88)">
    <circle cx="0" cy="0" r="4" class="primitive"/>
  </g>
</g>
<g fill="#00FFFF" id="img-3f7e92b8-30">
  <g transform="translate(390,384.69)">
    <circle cx="0" cy="0" r="4" class="primitive"/>
  </g>
</g>
<g fill="#00FFFF" id="img-3f7e92b8-31">
  <g transform="translate(370,384.69)">
    <circle cx="0" cy="0" r="4" class="primitive"/>
  </g>
</g>
<g fill="#00FFFF" id="img-3f7e92b8-32">
  <g transform="translate(350,384.69)">
    <circle cx="0" cy="0" r="4" class="primitive"/>
  </g>
</g>
<g fill="#00FFFF" id="img-3f7e92b8-33">
  <g transform="translate(170,422.5)">
    <circle cx="0" cy="0" r="4" class="primitive"/>
  </g>
</g>
<g fill="#00FFFF" id="img-3f7e92b8-34">
  <g transform="translate(170,270)">
    <circle cx="0" cy="0" r="4" class="primitive"/>
  </g>
</g>
<g fill="#00FFFF" id="img-3f7e92b8-35">
  <g transform="translate(150,270)">
    <circle cx="0" cy="0" r="4" class="primitive"/>
  </g>
</g>
<g fill="#00FFFF" id="img-3f7e92b8-36">
  <g transform="translate(130,270)">
    <circle cx="0" cy="0" r="4" class="primitive"/>
  </g>
</g>
<g fill="#00FFFF" id="img-3f7e92b8-37">
  <g transform="translate(110,280)">
    <circle cx="0" cy="0" r="4" class="primitive"/>
  </g>
</g>
<g fill="#00FFFF" id="img-3f7e92b8-38">
  <g transform="translate(490,157.03)">
    <circle cx="0" cy="0" r="4" class="primitive"/>
  </g>
</g>
<g fill="#00FFFF" id="img-3f7e92b8-39">
  <g transform="translate(470,157.03)">
    <circle cx="0" cy="0" r="4" class="primitive"/>
  </g>
</g>
<g fill="#00FFFF" id="img-3f7e92b8-40">
  <g transform="translate(450,157.03)">
    <circle cx="0" cy="0" r="4" class="primitive"/>
  </g>
</g>
<g fill="#00FFFF" id="img-3f7e92b8-41">
  <g transform="translate(270,214.38)">
    <circle cx="0" cy="0" r="4" class="primitive"/>
  </g>
</g>
<g fill="#FF0000" id="img-3f7e92b8-42">
  <g transform="translate(610,362.16)">
    <circle cx="0" cy="0" r="4" class="primitive"/>
  </g>
</g>
<g fill="#FF0000" id="img-3f7e92b8-43">
  <g transform="translate(150,462.5)">
    <circle cx="0" cy="0" r="4" class="primitive"/>
  </g>
</g>
<g fill="#FF0000" id="img-3f7e92b8-44">
  <g transform="translate(310,346.88)">
    <circle cx="0" cy="0" r="4" class="primitive"/>
  </g>
</g>
<g fill="#FF0000" id="img-3f7e92b8-45">
  <g transform="translate(90,280)">
    <circle cx="0" cy="0" r="4" class="primitive"/>
  </g>
</g>
<g fill="#FF0000" id="img-3f7e92b8-46">
  <g transform="translate(410,99.69)">
    <circle cx="0" cy="0" r="4" class="primitive"/>
  </g>
</g>
<g fill="#FF0000" id="img-3f7e92b8-47">
  <g transform="translate(510,270.57)">
    <circle cx="0" cy="0" r="4" class="primitive"/>
  </g>
</g>
<g fill="#00FF00" id="img-3f7e92b8-48">
  <g transform="translate(10,45)">
    <circle cx="0" cy="0" r="4" class="primitive"/>
  </g>
</g>
<g fill="#00FF00" id="img-3f7e92b8-49">
  <g transform="translate(10,35)">
    <circle cx="0" cy="0" r="4" class="primitive"/>
  </g>
</g>
<g fill="#00FF00" id="img-3f7e92b8-50">
  <g transform="translate(10,25)">
    <circle cx="0" cy="0" r="4" class="primitive"/>
  </g>
</g>
<g fill="#00FF00" id="img-3f7e92b8-51">
  <g transform="translate(10,15)">
    <circle cx="0" cy="0" r="4" class="primitive"/>
  </g>
</g>
<g fill="#00FF00" id="img-3f7e92b8-52">
  <g transform="translate(10,5)">
    <circle cx="0" cy="0" r="4" class="primitive"/>
  </g>
</g>
<g fill="#FFA500" id="img-3f7e92b8-53">
  <g transform="translate(530,270.57)">
    <circle cx="0" cy="0" r="4" class="primitive"/>
  </g>
</g>
<g fill="#FFA500" id="img-3f7e92b8-54">
  <g transform="translate(110,260)">
    <circle cx="0" cy="0" r="4" class="primitive"/>
  </g>
</g>
<g fill="#FFA500" id="img-3f7e92b8-55">
  <g transform="translate(330,346.88)">
    <circle cx="0" cy="0" r="4" class="primitive"/>
  </g>
</g>
<g fill="#FFA500" id="img-3f7e92b8-56">
  <g transform="translate(430,99.69)">
    <circle cx="0" cy="0" r="4" class="primitive"/>
  </g>
</g>
<g fill="#FFA500" id="img-3f7e92b8-57">
  <g transform="translate(170,62.5)">
    <circle cx="0" cy="0" r="4" class="primitive"/>
  </g>
</g>
<g fill="#FFA500" id="img-3f7e92b8-58">
  <g transform="translate(10,465)">
    <circle cx="0" cy="0" r="4" class="primitive"/>
  </g>
</g>
<g fill="#FFA500" id="img-3f7e92b8-59">
  <g transform="translate(10,445)">
    <circle cx="0" cy="0" r="4" class="primitive"/>
  </g>
</g>
<g fill="#FFA500" id="img-3f7e92b8-60">
  <g transform="translate(10,385)">
    <circle cx="0" cy="0" r="4" class="primitive"/>
  </g>
</g>
<g fill="#FFA500" id="img-3f7e92b8-61">
  <g transform="translate(10,335)">
    <circle cx="0" cy="0" r="4" class="primitive"/>
  </g>
</g>
<g fill="#FFA500" id="img-3f7e92b8-62">
  <g transform="translate(10,455)">
    <circle cx="0" cy="0" r="4" class="primitive"/>
  </g>
</g>
<g font-family="futura" font-size="3.53" stroke="#000000" id="img-3f7e92b8-63">
  <g transform="translate(590,362.16)">
    <g class="primitive">
      <text text-anchor="middle" dy="0.35em">deposit</text>
    </g>
  </g>
  <g transform="translate(570,362.16)">
    <g class="primitive">
      <text text-anchor="middle" dy="0.35em">carry</text>
    </g>
  </g>
  <g transform="translate(550,362.16)">
    <g class="primitive">
      <text text-anchor="middle" dy="0.35em">collect</text>
    </g>
  </g>
  <g transform="translate(210,453.75)">
    <g class="primitive">
      <text text-anchor="middle" dy="0.35em">go</text>
    </g>
  </g>
  <g transform="translate(130,462.5)">
    <g class="primitive">
      <text text-anchor="middle" dy="0.35em">deposit</text>
    </g>
  </g>
  <g transform="translate(110,462.5)">
    <g class="primitive">
      <text text-anchor="middle" dy="0.35em">carry</text>
    </g>
  </g>
  <g transform="translate(90,462.5)">
    <g class="primitive">
      <text text-anchor="middle" dy="0.35em">collect</text>
    </g>
  </g>
  <g transform="translate(70,470)">
    <g class="primitive">
      <text text-anchor="middle" dy="0.35em">go</text>
    </g>
  </g>
  <g transform="translate(110,392.5)">
    <g class="primitive">
      <text text-anchor="middle" dy="0.35em">deposit</text>
    </g>
  </g>
  <g transform="translate(90,392.5)">
    <g class="primitive">
      <text text-anchor="middle" dy="0.35em">carry</text>
    </g>
  </g>
  <g transform="translate(70,392.5)">
    <g class="primitive">
      <text text-anchor="middle" dy="0.35em">collect</text>
    </g>
  </g>
  <g transform="translate(50,400)">
    <g class="primitive">
      <text text-anchor="middle" dy="0.35em">go</text>
    </g>
  </g>
  <g transform="translate(290,344.38)">
    <g class="primitive">
      <text text-anchor="middle" dy="0.35em">deposit</text>
    </g>
  </g>
  <g transform="translate(270,344.38)">
    <g class="primitive">
      <text text-anchor="middle" dy="0.35em">carry</text>
    </g>
  </g>
  <g transform="translate(250,344.38)">
    <g class="primitive">
      <text text-anchor="middle" dy="0.35em">collect</text>
    </g>
  </g>
  <g transform="translate(230,353.75)">
    <g class="primitive">
      <text text-anchor="middle" dy="0.35em">go</text>
    </g>
  </g>
  <g transform="translate(230,303.75)">
    <g class="primitive">
      <text text-anchor="middle" dy="0.35em">deposit</text>
    </g>
  </g>
  <g transform="translate(210,353.75)">
    <g class="primitive">
      <text text-anchor="middle" dy="0.35em">carry</text>
    </g>
  </g>
  <g transform="translate(190,453.75)">
    <g class="primitive">
      <text text-anchor="middle" dy="0.35em">collect</text>
    </g>
  </g>
  <g transform="translate(170,462.5)">
    <g class="primitive">
      <text text-anchor="middle" dy="0.35em">go</text>
    </g>
  </g>
  <g transform="translate(70,280)">
    <g class="primitive">
      <text text-anchor="middle" dy="0.35em">deposit</text>
    </g>
  </g>
  <g transform="translate(50,470)">
    <g class="primitive">
      <text text-anchor="middle" dy="0.35em">carry</text>
    </g>
  </g>
  <g transform="translate(30,470)">
    <g class="primitive">
      <text text-anchor="middle" dy="0.35em">collect</text>
    </g>
  </g>
  <g transform="translate(10,475)">
    <g class="primitive">
      <text text-anchor="middle" dy="0.35em">go</text>
    </g>
  </g>
  <g transform="translate(390,99.69)">
    <g class="primitive">
      <text text-anchor="middle" dy="0.35em">deposit</text>
    </g>
  </g>
  <g transform="translate(370,99.69)">
    <g class="primitive">
      <text text-anchor="middle" dy="0.35em">carry</text>
    </g>
  </g>
  <g transform="translate(350,99.69)">
    <g class="primitive">
      <text text-anchor="middle" dy="0.35em">collect</text>
    </g>
  </g>
  <g transform="translate(330,136.88)">
    <g class="primitive">
      <text text-anchor="middle" dy="0.35em">go</text>
    </g>
  </g>
  <g transform="translate(390,384.69)">
    <g class="primitive">
      <text text-anchor="middle" dy="0.35em">deposit</text>
    </g>
  </g>
  <g transform="translate(370,384.69)">
    <g class="primitive">
      <text text-anchor="middle" dy="0.35em">carry</text>
    </g>
  </g>
  <g transform="translate(350,384.69)">
    <g class="primitive">
      <text text-anchor="middle" dy="0.35em">collect</text>
    </g>
  </g>
  <g transform="translate(170,422.5)">
    <g class="primitive">
      <text text-anchor="middle" dy="0.35em">go</text>
    </g>
  </g>
  <g transform="translate(170,270)">
    <g class="primitive">
      <text text-anchor="middle" dy="0.35em">deposit</text>
    </g>
  </g>
  <g transform="translate(150,270)">
    <g class="primitive">
      <text text-anchor="middle" dy="0.35em">carry</text>
    </g>
  </g>
  <g transform="translate(130,270)">
    <g class="primitive">
      <text text-anchor="middle" dy="0.35em">collect</text>
    </g>
  </g>
  <g transform="translate(110,280)">
    <g class="primitive">
      <text text-anchor="middle" dy="0.35em">go</text>
    </g>
  </g>
  <g transform="translate(490,157.03)">
    <g class="primitive">
      <text text-anchor="middle" dy="0.35em">deposit</text>
    </g>
  </g>
  <g transform="translate(470,157.03)">
    <g class="primitive">
      <text text-anchor="middle" dy="0.35em">carry</text>
    </g>
  </g>
  <g transform="translate(450,157.03)">
    <g class="primitive">
      <text text-anchor="middle" dy="0.35em">collect</text>
    </g>
  </g>
  <g transform="translate(270,214.38)">
    <g class="primitive">
      <text text-anchor="middle" dy="0.35em">go</text>
    </g>
  </g>
  <g transform="translate(610,362.16)">
    <g class="primitive">
      <text text-anchor="middle" dy="0.35em">op</text>
    </g>
  </g>
  <g transform="translate(150,462.5)">
    <g class="primitive">
      <text text-anchor="middle" dy="0.35em">op</text>
    </g>
  </g>
  <g transform="translate(310,346.88)">
    <g class="primitive">
      <text text-anchor="middle" dy="0.35em">op</text>
    </g>
  </g>
  <g transform="translate(90,280)">
    <g class="primitive">
      <text text-anchor="middle" dy="0.35em">op</text>
    </g>
  </g>
  <g transform="translate(410,99.69)">
    <g class="primitive">
      <text text-anchor="middle" dy="0.35em">op</text>
    </g>
  </g>
  <g transform="translate(510,270.57)">
    <g class="primitive">
      <text text-anchor="middle" dy="0.35em">op</text>
    </g>
  </g>
  <g transform="translate(10,45)">
    <g class="primitive">
      <text text-anchor="middle" dy="0.35em">R5</text>
    </g>
  </g>
  <g transform="translate(10,35)">
    <g class="primitive">
      <text text-anchor="middle" dy="0.35em">R4</text>
    </g>
  </g>
  <g transform="translate(10,25)">
    <g class="primitive">
      <text text-anchor="middle" dy="0.35em">R3</text>
    </g>
  </g>
  <g transform="translate(10,15)">
    <g class="primitive">
      <text text-anchor="middle" dy="0.35em">R2</text>
    </g>
  </g>
  <g transform="translate(10,5)">
    <g class="primitive">
      <text text-anchor="middle" dy="0.35em">R1</text>
    </g>
  </g>
  <g transform="translate(530,270.57)">
    <g class="primitive">
      <text text-anchor="middle" dy="0.35em">O10</text>
    </g>
  </g>
  <g transform="translate(110,260)">
    <g class="primitive">
      <text text-anchor="middle" dy="0.35em">O9</text>
    </g>
  </g>
  <g transform="translate(330,346.88)">
    <g class="primitive">
      <text text-anchor="middle" dy="0.35em">O8</text>
    </g>
  </g>
  <g transform="translate(430,99.69)">
    <g class="primitive">
      <text text-anchor="middle" dy="0.35em">O7</text>
    </g>
  </g>
  <g transform="translate(170,62.5)">
    <g class="primitive">
      <text text-anchor="middle" dy="0.35em">O6</text>
    </g>
  </g>
  <g transform="translate(10,465)">
    <g class="primitive">
      <text text-anchor="middle" dy="0.35em">O5</text>
    </g>
  </g>
  <g transform="translate(10,445)">
    <g class="primitive">
      <text text-anchor="middle" dy="0.35em">O4</text>
    </g>
  </g>
  <g transform="translate(10,385)">
    <g class="primitive">
      <text text-anchor="middle" dy="0.35em">O3</text>
    </g>
  </g>
  <g transform="translate(10,335)">
    <g class="primitive">
      <text text-anchor="middle" dy="0.35em">O2</text>
    </g>
  </g>
  <g transform="translate(10,455)">
    <g class="primitive">
      <text text-anchor="middle" dy="0.35em">O1</text>
    </g>
  </g>
</g>
</svg>
