<?xml version="1.0" encoding="UTF-8"?>
<svg xmlns="http://www.w3.org/2000/svg"
     xmlns:xlink="http://www.w3.org/1999/xlink"
     xmlns:gadfly="http://www.gadflyjl.org/ns"
     version="1.2"
     width="220mm" height="170mm" viewBox="0 0 220 170"
     stroke="none"
     fill="#000000"
     stroke-width="0.3"
     font-size="3.88"
>
<defs>
  <marker id="arrow" markerWidth="15" markerHeight="7" refX="5" refY="3.5" orient="auto" markerUnits="strokeWidth">
    <path d="M0,0 L15,3.5 L0,7 z" stroke="context-stroke" fill="context-stroke"/>
  </marker>
</defs>
<g stroke="#000000" id="img-8ed9355a-1">
  <g transform="translate(20,155)">
    <path fill="none" d="M-5.6,0 L 5.6 0" class="primitive"/>
  </g>
  <g transform="translate(200,145)">
    <path fill="none" d="M-5.6,0 L 5.6 0" class="primitive"/>
  </g>
  <g transform="translate(200,120)">
    <path fill="none" d="M-9.14,22.84 L 9.14 -22.84" class="primitive"/>
  </g>
  <g transform="translate(200,85)">
    <path fill="none" d="M-9.63,57.81 L 9.63 -57.81" class="primitive"/>
  </g>
  <g transform="translate(180,145)">
    <path fill="none" d="M-5.6,0 L 5.6 0" class="primitive"/>
  </g>
  <g transform="translate(140,152.5)">
    <path fill="none" d="M-7.56,5.67 L 7.56 -5.67" class="primitive"/>
  </g>
  <g transform="translate(140,145)">
    <path fill="none" d="M-5.6,0 L 5.6 0" class="primitive"/>
  </g>
  <g transform="translate(160,145)">
    <path fill="none" d="M-5.6,0 L 5.6 0" class="primitive"/>
  </g>
  <g transform="translate(120,160)">
    <path fill="none" d="M-5.6,0 L 5.6 0" class="primitive"/>
  </g>
  <g transform="translate(100,160)">
    <path fill="none" d="M-5.6,0 L 5.6 0" class="primitive"/>
  </g>
  <g transform="translate(100,145)">
    <path fill="none" d="M-8.61,12.91 L 8.61 -12.91" class="primitive"/>
  </g>
  <g transform="translate(80,160)">
    <path fill="none" d="M-5.6,0 L 5.6 0" class="primitive"/>
  </g>
  <g transform="translate(60,160)">
    <path fill="none" d="M-5.6,0 L 5.6 0" class="primitive"/>
  </g>
  <g transform="translate(120,145)">
    <path fill="none" d="M-5.6,0 L 5.6 0" class="primitive"/>
  </g>
  <g transform="translate(100,145)">
    <path fill="none" d="M-5.6,0 L 5.6 0" class="primitive"/>
  </g>
  <g transform="translate(200,65)">
    <path fill="none" d="M-5.6,0 L 5.6 0" class="primitive"/>
  </g>
  <g transform="translate(40,162.5)">
    <path fill="none" d="M-6.06,1.52 L 6.06 -1.52" class="primitive"/>
  </g>
  <g transform="translate(20,165)">
    <path fill="none" d="M-5.6,0 L 5.6 0" class="primitive"/>
  </g>
  <g transform="translate(200,55)">
    <path fill="none" d="M-5.6,0 L 5.6 0" class="primitive"/>
  </g>
  <g transform="translate(140,137.5)">
    <path fill="none" d="M-7.56,-5.67 L 7.56 5.67" class="primitive"/>
  </g>
  <g transform="translate(40,157.5)">
    <path fill="none" d="M-6.06,-1.52 L 6.06 1.52" class="primitive"/>
  </g>
  <g transform="translate(120,130)">
    <path fill="none" d="M-5.6,0 L 5.6 0" class="primitive"/>
  </g>
</g>
<g fill="#FF0000" id="img-8ed9355a-2">
  <g transform="translate(10,155)">
    <circle cx="0" cy="0" r="4" class="primitive"/>
  </g>
</g>
<g fill="#00FFFF" id="img-8ed9355a-3">
  <g transform="translate(210,145)">
    <circle cx="0" cy="0" r="4" class="primitive"/>
  </g>
</g>
<g fill="#00FFFF" id="img-8ed9355a-4">
  <g transform="translate(210,95)">
    <circle cx="0" cy="0" r="4" class="primitive"/>
  </g>
</g>
<g fill="#00FFFF" id="img-8ed9355a-5">
  <g transform="translate(190,145)">
    <circle cx="0" cy="0" r="4" class="primitive"/>
  </g>
</g>
<g fill="#00FFFF" id="img-8ed9355a-6">
  <g transform="translate(170,145)">
    <circle cx="0" cy="0" r="4" class="primitive"/>
  </g>
</g>
<g fill="#00FFFF" id="img-8ed9355a-7">
  <g transform="translate(130,160)">
    <circle cx="0" cy="0" r="4" class="primitive"/>
  </g>
</g>
<g fill="#00FFFF" id="img-8ed9355a-8">
  <g transform="translate(130,145)">
    <circle cx="0" cy="0" r="4" class="primitive"/>
  </g>
</g>
<g fill="#00FFFF" id="img-8ed9355a-9">
  <g transform="translate(150,145)">
    <circle cx="0" cy="0" r="4" class="primitive"/>
  </g>
</g>
<g fill="#00FFFF" id="img-8ed9355a-10">
  <g transform="translate(110,160)">
    <circle cx="0" cy="0" r="4" class="primitive"/>
  </g>
</g>
<g fill="#00FFFF" id="img-8ed9355a-11">
  <g transform="translate(90,160)">
    <circle cx="0" cy="0" r="4" class="primitive"/>
  </g>
</g>
<g fill="#00FFFF" id="img-8ed9355a-12">
  <g transform="translate(70,160)">
    <circle cx="0" cy="0" r="4" class="primitive"/>
  </g>
</g>
<g fill="#00FFFF" id="img-8ed9355a-13">
  <g transform="translate(50,160)">
    <circle cx="0" cy="0" r="4" class="primitive"/>
  </g>
</g>
<g fill="#00FFFF" id="img-8ed9355a-14">
  <g transform="translate(110,145)">
    <circle cx="0" cy="0" r="4" class="primitive"/>
  </g>
</g>
<g fill="#00FF00" id="img-8ed9355a-15">
  <g transform="translate(90,145)">
    <circle cx="0" cy="0" r="4" class="primitive"/>
  </g>
</g>
<g fill="#00FFFF" id="img-8ed9355a-16">
  <g transform="translate(210,65)">
    <circle cx="0" cy="0" r="4" class="primitive"/>
  </g>
</g>
<g fill="#00FF00" id="img-8ed9355a-17">
  <g transform="translate(190,65)">
    <circle cx="0" cy="0" r="4" class="primitive"/>
  </g>
</g>
<g fill="#00FFFF" id="img-8ed9355a-18">
  <g transform="translate(30,165)">
    <circle cx="0" cy="0" r="4" class="primitive"/>
  </g>
</g>
<g fill="#00FF00" id="img-8ed9355a-19">
  <g transform="translate(10,165)">
    <circle cx="0" cy="0" r="4" class="primitive"/>
  </g>
</g>
<g fill="#00FFFF" id="img-8ed9355a-20">
  <g transform="translate(210,55)">
    <circle cx="0" cy="0" r="4" class="primitive"/>
  </g>
</g>
<g fill="#00FF00" id="img-8ed9355a-21">
  <g transform="translate(190,55)">
    <circle cx="0" cy="0" r="4" class="primitive"/>
  </g>
</g>
<g fill="#FFA500" id="img-8ed9355a-22">
  <g transform="translate(130,130)">
    <circle cx="0" cy="0" r="4" class="primitive"/>
  </g>
</g>
<g fill="#FFA500" id="img-8ed9355a-23">
  <g transform="translate(30,155)">
    <circle cx="0" cy="0" r="4" class="primitive"/>
  </g>
</g>
<g fill="#FF0000" id="img-8ed9355a-24">
  <g transform="translate(210,25)">
    <circle cx="0" cy="0" r="4" class="primitive"/>
  </g>
</g>
<g fill="#FF0000" id="img-8ed9355a-25">
  <g transform="translate(110,130)">
    <circle cx="0" cy="0" r="4" class="primitive"/>
  </g>
</g>
<g font-family="futura" font-size="3.53" stroke="#000000" id="img-8ed9355a-26">
  <g transform="translate(10,155)">
    <g class="primitive">
      <text text-anchor="middle" dy="-0.25em">op144<tspan x="0" dy="1.2em">0,0,</tspan></text>
    </g>
  </g>
  <g transform="translate(210,145)">
    <g class="primitive">
      <text text-anchor="middle" dy="-0.85em">go<tspan x="0" dy="1.2em">2,476,-1</tspan><tspan x="0" dy="1.2em">57,57,</tspan></text>
    </g>
  </g>
  <g transform="translate(210,95)">
    <g class="primitive">
      <text text-anchor="middle" dy="-0.85em">go<tspan x="0" dy="1.2em">4,475,-1</tspan><tspan x="0" dy="1.2em">57,57,</tspan></text>
    </g>
  </g>
  <g transform="translate(190,145)">
    <g class="primitive">
      <text text-anchor="middle" dy="-0.85em">teamDEPOSIT<tspan x="0" dy="1.2em">r: (4,2,)</tspan><tspan x="0" dy="1.2em">57,57,</tspan></text>
    </g>
  </g>
  <g transform="translate(170,145)">
    <g class="primitive">
      <text text-anchor="middle" dy="-0.85em">teamCARRY<tspan x="0" dy="1.2em">r: (4,2,)</tspan><tspan x="0" dy="1.2em">40,57,</tspan></text>
    </g>
  </g>
  <g transform="translate(130,160)">
    <g class="primitive">
      <text text-anchor="middle" dy="-0.85em">go<tspan x="0" dy="1.2em">2,118,118</tspan><tspan x="0" dy="1.2em">40,40,</tspan></text>
    </g>
  </g>
  <g transform="translate(130,145)">
    <g class="primitive">
      <text text-anchor="middle" dy="-0.85em">go<tspan x="0" dy="1.2em">4,117,117</tspan><tspan x="0" dy="1.2em">6,6,</tspan></text>
    </g>
  </g>
  <g transform="translate(150,145)">
    <g class="primitive">
      <text text-anchor="middle" dy="-0.85em">teamCOLLECT<tspan x="0" dy="1.2em">r: (4,2,)</tspan><tspan x="0" dy="1.2em">40,40,</tspan></text>
    </g>
  </g>
  <g transform="translate(110,160)">
    <g class="primitive">
      <text text-anchor="middle" dy="-0.85em">go<tspan x="0" dy="1.2em">2,383,118</tspan><tspan x="0" dy="1.2em">24,40,</tspan></text>
    </g>
  </g>
  <g transform="translate(90,160)">
    <g class="primitive">
      <text text-anchor="middle" dy="-0.85em">deposit<tspan x="0" dy="1.2em">2,1,383</tspan><tspan x="0" dy="1.2em">24,24,</tspan></text>
    </g>
  </g>
  <g transform="translate(70,160)">
    <g class="primitive">
      <text text-anchor="middle" dy="-0.85em">carry<tspan x="0" dy="1.2em">2,1,383</tspan><tspan x="0" dy="1.2em">10,24,</tspan></text>
    </g>
  </g>
  <g transform="translate(50,160)">
    <g class="primitive">
      <text text-anchor="middle" dy="-0.85em">collect<tspan x="0" dy="1.2em">2,1,550</tspan><tspan x="0" dy="1.2em">10,10,</tspan></text>
    </g>
  </g>
  <g transform="translate(110,145)">
    <g class="primitive">
      <text text-anchor="middle" dy="-0.85em">go<tspan x="0" dy="1.2em">4,4,117</tspan><tspan x="0" dy="1.2em">0,6,</tspan></text>
    </g>
  </g>
  <g transform="translate(90,145)">
    <g class="primitive">
      <text text-anchor="middle" dy="-0.25em">R4-4<tspan x="0" dy="1.2em">0,0,</tspan></text>
    </g>
  </g>
  <g transform="translate(210,65)">
    <g class="primitive">
      <text text-anchor="middle" dy="-0.85em">go<tspan x="0" dy="1.2em">3,517,-1</tspan><tspan x="0" dy="1.2em">0,0,</tspan></text>
    </g>
  </g>
  <g transform="translate(190,65)">
    <g class="primitive">
      <text text-anchor="middle" dy="-0.25em">R3-517<tspan x="0" dy="1.2em">0,0,</tspan></text>
    </g>
  </g>
  <g transform="translate(30,165)">
    <g class="primitive">
      <text text-anchor="middle" dy="-0.85em">go<tspan x="0" dy="1.2em">2,441,550</tspan><tspan x="0" dy="1.2em">0,10,</tspan></text>
    </g>
  </g>
  <g transform="translate(10,165)">
    <g class="primitive">
      <text text-anchor="middle" dy="-0.25em">R2-441<tspan x="0" dy="1.2em">0,0,</tspan></text>
    </g>
  </g>
  <g transform="translate(210,55)">
    <g class="primitive">
      <text text-anchor="middle" dy="-0.85em">go<tspan x="0" dy="1.2em">1,472,-1</tspan><tspan x="0" dy="1.2em">0,0,</tspan></text>
    </g>
  </g>
  <g transform="translate(190,55)">
    <g class="primitive">
      <text text-anchor="middle" dy="-0.25em">R1-472<tspan x="0" dy="1.2em">0,0,</tspan></text>
    </g>
  </g>
  <g transform="translate(130,130)">
    <g class="primitive">
      <text text-anchor="middle" dy="-0.25em">O2-117<tspan x="0" dy="1.2em">24,24,</tspan></text>
    </g>
  </g>
  <g transform="translate(30,155)">
    <g class="primitive">
      <text text-anchor="middle" dy="-0.25em">O1-550<tspan x="0" dy="1.2em">0,0,</tspan></text>
    </g>
  </g>
  <g transform="translate(210,25)">
    <g class="primitive">
      <text text-anchor="middle" dy="-0.25em">op143<tspan x="0" dy="1.2em">57,57,</tspan></text>
    </g>
  </g>
  <g transform="translate(110,130)">
    <g class="primitive">
      <text text-anchor="middle" dy="-0.25em">op142<tspan x="0" dy="1.2em">24,24,</tspan></text>
    </g>
  </g>
</g>
</svg>
