<?xml version="1.0" encoding="UTF-8"?>
<svg xmlns="http://www.w3.org/2000/svg"
     xmlns:xlink="http://www.w3.org/1999/xlink"
     version="1.2"
     width="120mm" height="20mm" viewBox="0 0 120 20"
     stroke="none"
     fill="#000000"
     stroke-width="0.3"
     font-size="3.88"
>
<defs>
  <marker id="arrow" markerWidth="15" markerHeight="7" refX="5" refY="3.5" orient="auto" markerUnits="strokeWidth">
    <path d="M0,0 L15,3.5 L0,7 z" stroke="context-stroke" fill="context-stroke"/>
  </marker>
</defs>
<g stroke="#000000" id="img-4313da2e-1">
  <g transform="translate(100,10)">
    <path fill="none" d="M-5.6,0 L 5.6 0" class="primitive"/>
  </g>
  <g transform="translate(80,10)">
    <path fill="none" d="M-5.6,0 L 5.6 0" class="primitive"/>
  </g>
  <g transform="translate(60,10)">
    <path fill="none" d="M-5.6,0 L 5.6 0" class="primitive"/>
  </g>
  <g transform="translate(40,12.5)">
    <path fill="none" d="M-6.06,1.52 L 6.06 -1.52" class="primitive"/>
  </g>
  <g transform="translate(20,15)">
    <path fill="none" d="M-5.6,0 L 5.6 0" class="primitive"/>
  </g>
  <g transform="translate(30,7.5)">
    <path fill="none" d="M-15.73,-1.97 L 15.73 1.97" class="primitive"/>
  </g>
</g>
<g fill="#00FFFF" id="img-4313da2e-2">
  <g transform="translate(90,10)">
    <circle cx="0" cy="0" r="4" class="primitive"/>
  </g>
</g>
<g fill="#00FFFF" id="img-4313da2e-3">
  <g transform="translate(70,10)">
    <circle cx="0" cy="0" r="4" class="primitive"/>
  </g>
</g>
<g fill="#00FFFF" id="img-4313da2e-4">
  <g transform="translate(50,10)">
    <circle cx="0" cy="0" r="4" class="primitive"/>
  </g>
</g>
<g fill="#00FFFF" id="img-4313da2e-5">
  <g transform="translate(30,15)">
    <circle cx="0" cy="0" r="4" class="primitive"/>
  </g>
</g>
<g fill="#FF0000" id="img-4313da2e-6">
  <g transform="translate(110,10)">
    <circle cx="0" cy="0" r="4" class="primitive"/>
  </g>
</g>
<g fill="#00FF00" id="img-4313da2e-7">
  <g transform="translate(10,15)">
    <circle cx="0" cy="0" r="4" class="primitive"/>
  </g>
</g>
<g fill="#FFA500" id="img-4313da2e-8">
  <g transform="translate(10,5)">
    <circle cx="0" cy="0" r="4" class="primitive"/>
  </g>
</g>
<g font-family="futura" font-size="3.53" stroke="#000000" id="img-4313da2e-9">
  <g transform="translate(90,10)">
    <g class="primitive">
      <text text-anchor="middle" dy="0.35em">deposit</text>
    </g>
  </g>
  <g transform="translate(70,10)">
    <g class="primitive">
      <text text-anchor="middle" dy="0.35em">carry</text>
    </g>
  </g>
  <g transform="translate(50,10)">
    <g class="primitive">
      <text text-anchor="middle" dy="0.35em">collect</text>
    </g>
  </g>
  <g transform="translate(30,15)">
    <g class="primitive">
      <text text-anchor="middle" dy="0.35em">go</text>
    </g>
  </g>
  <g transform="translate(110,10)">
    <g class="primitive">
      <text text-anchor="middle" dy="0.35em">op</text>
    </g>
  </g>
  <g transform="translate(10,15)">
    <g class="primitive">
      <text text-anchor="middle" dy="0.35em">R1</text>
    </g>
  </g>
  <g transform="translate(10,5)">
    <g class="primitive">
      <text text-anchor="middle" dy="0.35em">O1</text>
    </g>
  </g>
</g>
</svg>
