<?xml version="1.0" encoding="UTF-8"?>
<svg xmlns="http://www.w3.org/2000/svg"
     xmlns:xlink="http://www.w3.org/1999/xlink"
     version="1.2"
     width="100mm" height="60mm" viewBox="0 0 100 60"
     stroke="none"
     fill="#000000"
     stroke-width="0.3"
     font-size="3.88"
>
<defs>
  <marker id="arrow" markerWidth="15" markerHeight="7" refX="5" refY="3.5" orient="auto" markerUnits="strokeWidth">
    <path d="M0,0 L15,3.5 L0,7 z" stroke="context-stroke" fill="context-stroke"/>
  </marker>
</defs>
<g stroke="#000000" id="img-83b30193-1">
  <g transform="translate(80,55)">
    <path fill="none" d="M-5.6,0 L 5.6 0" class="primitive"/>
  </g>
  <g transform="translate(80,32.5)">
    <path fill="none" d="M-9.05,20.35 L 9.05 -20.35" class="primitive"/>
  </g>
  <g transform="translate(60,55)">
    <path fill="none" d="M-5.6,0 L 5.6 0" class="primitive"/>
  </g>
  <g transform="translate(40,55)">
    <path fill="none" d="M-5.6,0 L 5.6 0" class="primitive"/>
  </g>
  <g transform="translate(80,45)">
    <path fill="none" d="M-5.6,0 L 5.6 0" class="primitive"/>
  </g>
  <g transform="translate(80,27.5)">
    <path fill="none" d="M-8.79,15.38 L 8.79 -15.38" class="primitive"/>
  </g>
  <g transform="translate(60,45)">
    <path fill="none" d="M-5.6,0 L 5.6 0" class="primitive"/>
  </g>
  <g transform="translate(40,45)">
    <path fill="none" d="M-5.6,0 L 5.6 0" class="primitive"/>
  </g>
  <g transform="translate(80,35)">
    <path fill="none" d="M-5.6,0 L 5.6 0" class="primitive"/>
  </g>
  <g transform="translate(80,25)">
    <path fill="none" d="M-5.6,0 L 5.6 0" class="primitive"/>
  </g>
  <g transform="translate(20,45)">
    <path fill="none" d="M-5.6,0 L 5.6 0" class="primitive"/>
  </g>
  <g transform="translate(20,55)">
    <path fill="none" d="M-5.6,0 L 5.6 0" class="primitive"/>
  </g>
</g>
<g fill="#00FFFF" id="img-83b30193-2">
  <g transform="translate(90,55)">
    <circle cx="0" cy="0" r="4" class="primitive"/>
  </g>
</g>
<g fill="#00FFFF" id="img-83b30193-3">
  <g transform="translate(70,55)">
    <circle cx="0" cy="0" r="4" class="primitive"/>
  </g>
</g>
<g fill="#00FFFF" id="img-83b30193-4">
  <g transform="translate(50,55)">
    <circle cx="0" cy="0" r="4" class="primitive"/>
  </g>
</g>
<g fill="#00FFFF" id="img-83b30193-5">
  <g transform="translate(30,55)">
    <circle cx="0" cy="0" r="4" class="primitive"/>
  </g>
</g>
<g fill="#00FFFF" id="img-83b30193-6">
  <g transform="translate(90,45)">
    <circle cx="0" cy="0" r="4" class="primitive"/>
  </g>
</g>
<g fill="#00FFFF" id="img-83b30193-7">
  <g transform="translate(70,45)">
    <circle cx="0" cy="0" r="4" class="primitive"/>
  </g>
</g>
<g fill="#00FFFF" id="img-83b30193-8">
  <g transform="translate(50,45)">
    <circle cx="0" cy="0" r="4" class="primitive"/>
  </g>
</g>
<g fill="#00FFFF" id="img-83b30193-9">
  <g transform="translate(30,45)">
    <circle cx="0" cy="0" r="4" class="primitive"/>
  </g>
</g>
<g fill="#00FFFF" id="img-83b30193-10">
  <g transform="translate(90,35)">
    <circle cx="0" cy="0" r="4" class="primitive"/>
  </g>
</g>
<g fill="#00FF00" id="img-83b30193-11">
  <g transform="translate(70,35)">
    <circle cx="0" cy="0" r="4" class="primitive"/>
  </g>
</g>
<g fill="#00FFFF" id="img-83b30193-12">
  <g transform="translate(90,25)">
    <circle cx="0" cy="0" r="4" class="primitive"/>
  </g>
</g>
<g fill="#00FF00" id="img-83b30193-13">
  <g transform="translate(70,25)">
    <circle cx="0" cy="0" r="4" class="primitive"/>
  </g>
</g>
<g fill="#FFA500" id="img-83b30193-14">
  <g transform="translate(10,45)">
    <circle cx="0" cy="0" r="4" class="primitive"/>
  </g>
</g>
<g fill="#FFA500" id="img-83b30193-15">
  <g transform="translate(10,55)">
    <circle cx="0" cy="0" r="4" class="primitive"/>
  </g>
</g>
<g fill="#FF0000" id="img-83b30193-16">
  <g transform="translate(90,10)">
    <circle cx="0" cy="0" r="4" class="primitive"/>
  </g>
</g>
<g font-family="futura" font-size="3.53" stroke="#000000" id="img-83b30193-17">
  <g transform="translate(90,55)">
    <g class="primitive">
      <text text-anchor="middle" dy="-0.85em">go<tspan x="0" dy="1.2em">-1,8,-1</tspan><tspan x="0" dy="1.2em">2,2,</tspan></text>
    </g>
  </g>
  <g transform="translate(70,55)">
    <g class="primitive">
      <text text-anchor="middle" dy="-0.85em">deposit<tspan x="0" dy="1.2em">-1,1,8</tspan><tspan x="0" dy="1.2em">2,2,</tspan></text>
    </g>
  </g>
  <g transform="translate(50,55)">
    <g class="primitive">
      <text text-anchor="middle" dy="-0.85em">carry<tspan x="0" dy="1.2em">-1,1,8</tspan><tspan x="0" dy="1.2em">0,2,</tspan></text>
    </g>
  </g>
  <g transform="translate(30,55)">
    <g class="primitive">
      <text text-anchor="middle" dy="-0.85em">collect<tspan x="0" dy="1.2em">-1,1,2</tspan><tspan x="0" dy="1.2em">0,0,</tspan></text>
    </g>
  </g>
  <g transform="translate(90,45)">
    <g class="primitive">
      <text text-anchor="middle" dy="-0.85em">go<tspan x="0" dy="1.2em">-1,6,-1</tspan><tspan x="0" dy="1.2em">2,2,</tspan></text>
    </g>
  </g>
  <g transform="translate(70,45)">
    <g class="primitive">
      <text text-anchor="middle" dy="-0.85em">deposit<tspan x="0" dy="1.2em">-1,2,6</tspan><tspan x="0" dy="1.2em">2,2,</tspan></text>
    </g>
  </g>
  <g transform="translate(50,45)">
    <g class="primitive">
      <text text-anchor="middle" dy="-0.85em">carry<tspan x="0" dy="1.2em">-1,2,6</tspan><tspan x="0" dy="1.2em">0,2,</tspan></text>
    </g>
  </g>
  <g transform="translate(30,45)">
    <g class="primitive">
      <text text-anchor="middle" dy="-0.85em">collect<tspan x="0" dy="1.2em">-1,2,4</tspan><tspan x="0" dy="1.2em">0,0,</tspan></text>
    </g>
  </g>
  <g transform="translate(90,35)">
    <g class="primitive">
      <text text-anchor="middle" dy="-0.85em">go<tspan x="0" dy="1.2em">2,4,-1</tspan><tspan x="0" dy="1.2em">0,0,</tspan></text>
    </g>
  </g>
  <g transform="translate(70,35)">
    <g class="primitive">
      <text text-anchor="middle" dy="-0.25em">R2-4<tspan x="0" dy="1.2em">0,0,</tspan></text>
    </g>
  </g>
  <g transform="translate(90,25)">
    <g class="primitive">
      <text text-anchor="middle" dy="-0.85em">go<tspan x="0" dy="1.2em">1,2,-1</tspan><tspan x="0" dy="1.2em">0,0,</tspan></text>
    </g>
  </g>
  <g transform="translate(70,25)">
    <g class="primitive">
      <text text-anchor="middle" dy="-0.25em">R1-2<tspan x="0" dy="1.2em">0,0,</tspan></text>
    </g>
  </g>
  <g transform="translate(10,45)">
    <g class="primitive">
      <text text-anchor="middle" dy="-0.25em">O2-4<tspan x="0" dy="1.2em">0,0,</tspan></text>
    </g>
  </g>
  <g transform="translate(10,55)">
    <g class="primitive">
      <text text-anchor="middle" dy="-0.25em">O1-2<tspan x="0" dy="1.2em">0,0,</tspan></text>
    </g>
  </g>
  <g transform="translate(90,10)">
    <g class="primitive">
      <text text-anchor="middle" dy="-0.25em">op<tspan x="0" dy="1.2em">2,2,</tspan></text>
    </g>
  </g>
</g>
</svg>
