<?xml version="1.0" encoding="UTF-8"?>
<svg xmlns="http://www.w3.org/2000/svg"
     xmlns:xlink="http://www.w3.org/1999/xlink"
     version="1.2"
     width="220mm" height="80mm" viewBox="0 0 220 80"
     stroke="none"
     fill="#000000"
     stroke-width="0.3"
     font-size="3.88"
>
<defs>
  <marker id="arrow" markerWidth="15" markerHeight="7" refX="5" refY="3.5" orient="auto" markerUnits="strokeWidth">
    <path d="M0,0 L15,3.5 L0,7 z" stroke="context-stroke" fill="context-stroke"/>
  </marker>
</defs>
<g stroke="#000000" id="img-c7be09f1-1">
  <g transform="translate(200,60)">
    <path fill="none" d="M-5.6,0 L 5.6 0" class="primitive"/>
  </g>
  <g transform="translate(180,60)">
    <path fill="none" d="M-5.6,0 L 5.6 0" class="primitive"/>
  </g>
  <g transform="translate(160,60)">
    <path fill="none" d="M-5.6,0 L 5.6 0" class="primitive"/>
  </g>
  <g transform="translate(140,65)">
    <path fill="none" d="M-6.89,3.44 L 6.89 -3.44" class="primitive"/>
  </g>
  <g transform="translate(200,20)">
    <path fill="none" d="M-5.6,0 L 5.6 0" class="primitive"/>
  </g>
  <g transform="translate(180,20)">
    <path fill="none" d="M-5.6,0 L 5.6 0" class="primitive"/>
  </g>
  <g transform="translate(160,20)">
    <path fill="none" d="M-5.6,0 L 5.6 0" class="primitive"/>
  </g>
  <g transform="translate(140,25)">
    <path fill="none" d="M-6.89,3.44 L 6.89 -3.44" class="primitive"/>
  </g>
  <g transform="translate(110,40)">
    <path fill="none" d="M-16.89,8.44 L 16.89 -8.44" class="primitive"/>
  </g>
  <g transform="translate(100,50)">
    <path fill="none" d="M-5.6,0 L 5.6 0" class="primitive"/>
  </g>
  <g transform="translate(80,50)">
    <path fill="none" d="M-5.6,0 L 5.6 0" class="primitive"/>
  </g>
  <g transform="translate(60,50)">
    <path fill="none" d="M-5.6,0 L 5.6 0" class="primitive"/>
  </g>
  <g transform="translate(40,52.5)">
    <path fill="none" d="M-6.06,1.52 L 6.06 -1.52" class="primitive"/>
  </g>
  <g transform="translate(120,70)">
    <path fill="none" d="M-5.6,0 L 5.6 0" class="primitive"/>
  </g>
  <g transform="translate(110,40)">
    <path fill="none" d="M0,27.8 L 0 -27.8" class="primitive"/>
  </g>
  <g transform="translate(100,70)">
    <path fill="none" d="M-5.6,0 L 5.6 0" class="primitive"/>
  </g>
  <g transform="translate(80,70)">
    <path fill="none" d="M-5.6,0 L 5.6 0" class="primitive"/>
  </g>
  <g transform="translate(60,72.5)">
    <path fill="none" d="M-6.06,1.52 L 6.06 -1.52" class="primitive"/>
  </g>
  <g transform="translate(120,50)">
    <path fill="none" d="M-5.6,0 L 5.6 0" class="primitive"/>
  </g>
  <g transform="translate(120,10)">
    <path fill="none" d="M-5.6,0 L 5.6 0" class="primitive"/>
  </g>
  <g transform="translate(20,55)">
    <path fill="none" d="M-5.6,0 L 5.6 0" class="primitive"/>
  </g>
  <g transform="translate(40,75)">
    <path fill="none" d="M-5.6,0 L 5.6 0" class="primitive"/>
  </g>
  <g transform="translate(140,15)">
    <path fill="none" d="M-6.89,-3.44 L 6.89 3.44" class="primitive"/>
  </g>
  <g transform="translate(140,55)">
    <path fill="none" d="M-6.89,-3.44 L 6.89 3.44" class="primitive"/>
  </g>
  <g transform="translate(40,47.5)">
    <path fill="none" d="M-6.06,-1.52 L 6.06 1.52" class="primitive"/>
  </g>
  <g transform="translate(60,67.5)">
    <path fill="none" d="M-6.06,-1.52 L 6.06 1.52" class="primitive"/>
  </g>
</g>
<g fill="#00FFFF" id="img-c7be09f1-2">
  <g transform="translate(190,60)">
    <circle cx="0" cy="0" r="4" class="primitive"/>
  </g>
</g>
<g fill="#00FFFF" id="img-c7be09f1-3">
  <g transform="translate(170,60)">
    <circle cx="0" cy="0" r="4" class="primitive"/>
  </g>
</g>
<g fill="#00FFFF" id="img-c7be09f1-4">
  <g transform="translate(150,60)">
    <circle cx="0" cy="0" r="4" class="primitive"/>
  </g>
</g>
<g fill="#00FFFF" id="img-c7be09f1-5">
  <g transform="translate(130,70)">
    <circle cx="0" cy="0" r="4" class="primitive"/>
  </g>
</g>
<g fill="#00FFFF" id="img-c7be09f1-6">
  <g transform="translate(190,20)">
    <circle cx="0" cy="0" r="4" class="primitive"/>
  </g>
</g>
<g fill="#00FFFF" id="img-c7be09f1-7">
  <g transform="translate(170,20)">
    <circle cx="0" cy="0" r="4" class="primitive"/>
  </g>
</g>
<g fill="#00FFFF" id="img-c7be09f1-8">
  <g transform="translate(150,20)">
    <circle cx="0" cy="0" r="4" class="primitive"/>
  </g>
</g>
<g fill="#00FFFF" id="img-c7be09f1-9">
  <g transform="translate(130,30)">
    <circle cx="0" cy="0" r="4" class="primitive"/>
  </g>
</g>
<g fill="#00FFFF" id="img-c7be09f1-10">
  <g transform="translate(90,50)">
    <circle cx="0" cy="0" r="4" class="primitive"/>
  </g>
</g>
<g fill="#00FFFF" id="img-c7be09f1-11">
  <g transform="translate(70,50)">
    <circle cx="0" cy="0" r="4" class="primitive"/>
  </g>
</g>
<g fill="#00FFFF" id="img-c7be09f1-12">
  <g transform="translate(50,50)">
    <circle cx="0" cy="0" r="4" class="primitive"/>
  </g>
</g>
<g fill="#00FFFF" id="img-c7be09f1-13">
  <g transform="translate(30,55)">
    <circle cx="0" cy="0" r="4" class="primitive"/>
  </g>
</g>
<g fill="#00FFFF" id="img-c7be09f1-14">
  <g transform="translate(110,70)">
    <circle cx="0" cy="0" r="4" class="primitive"/>
  </g>
</g>
<g fill="#00FFFF" id="img-c7be09f1-15">
  <g transform="translate(90,70)">
    <circle cx="0" cy="0" r="4" class="primitive"/>
  </g>
</g>
<g fill="#00FFFF" id="img-c7be09f1-16">
  <g transform="translate(70,70)">
    <circle cx="0" cy="0" r="4" class="primitive"/>
  </g>
</g>
<g fill="#00FFFF" id="img-c7be09f1-17">
  <g transform="translate(50,75)">
    <circle cx="0" cy="0" r="4" class="primitive"/>
  </g>
</g>
<g fill="#FF0000" id="img-c7be09f1-18">
  <g transform="translate(210,60)">
    <circle cx="0" cy="0" r="4" class="primitive"/>
  </g>
</g>
<g fill="#FF0000" id="img-c7be09f1-19">
  <g transform="translate(210,20)">
    <circle cx="0" cy="0" r="4" class="primitive"/>
  </g>
</g>
<g fill="#FF0000" id="img-c7be09f1-20">
  <g transform="translate(110,50)">
    <circle cx="0" cy="0" r="4" class="primitive"/>
  </g>
</g>
<g fill="#FF0000" id="img-c7be09f1-21">
  <g transform="translate(110,10)">
    <circle cx="0" cy="0" r="4" class="primitive"/>
  </g>
</g>
<g fill="#00FF00" id="img-c7be09f1-22">
  <g transform="translate(10,55)">
    <circle cx="0" cy="0" r="4" class="primitive"/>
  </g>
</g>
<g fill="#00FF00" id="img-c7be09f1-23">
  <g transform="translate(30,75)">
    <circle cx="0" cy="0" r="4" class="primitive"/>
  </g>
</g>
<g fill="#FFA500" id="img-c7be09f1-24">
  <g transform="translate(130,10)">
    <circle cx="0" cy="0" r="4" class="primitive"/>
  </g>
</g>
<g fill="#FFA500" id="img-c7be09f1-25">
  <g transform="translate(130,50)">
    <circle cx="0" cy="0" r="4" class="primitive"/>
  </g>
</g>
<g fill="#FFA500" id="img-c7be09f1-26">
  <g transform="translate(30,45)">
    <circle cx="0" cy="0" r="4" class="primitive"/>
  </g>
</g>
<g fill="#FFA500" id="img-c7be09f1-27">
  <g transform="translate(50,65)">
    <circle cx="0" cy="0" r="4" class="primitive"/>
  </g>
</g>
<g font-family="futura" font-size="3.53" stroke="#000000" id="img-c7be09f1-28">
  <g transform="translate(190,60)">
    <g class="primitive">
      <text text-anchor="middle" dy="-0.85em">deposit<tspan x="0" dy="1.2em">1,3,9</tspan><tspan x="0" dy="1.2em">8,8,-8,8</tspan></text>
    </g>
  </g>
  <g transform="translate(170,60)">
    <g class="primitive">
      <text text-anchor="middle" dy="-0.85em">carry<tspan x="0" dy="1.2em">1,3,9</tspan><tspan x="0" dy="1.2em">5,8,-5,8</tspan></text>
    </g>
  </g>
  <g transform="translate(150,60)">
    <g class="primitive">
      <text text-anchor="middle" dy="-0.85em">collect<tspan x="0" dy="1.2em">1,3,12</tspan><tspan x="0" dy="1.2em">5,5,-5,5</tspan></text>
    </g>
  </g>
  <g transform="translate(130,70)">
    <g class="primitive">
      <text text-anchor="middle" dy="-0.85em">go<tspan x="0" dy="1.2em">1,8,12</tspan><tspan x="0" dy="1.2em">4,5,-4,5</tspan></text>
    </g>
  </g>
  <g transform="translate(190,20)">
    <g class="primitive">
      <text text-anchor="middle" dy="-0.85em">deposit<tspan x="0" dy="1.2em">2,4,21</tspan><tspan x="0" dy="1.2em">8,8,-8,8</tspan></text>
    </g>
  </g>
  <g transform="translate(170,20)">
    <g class="primitive">
      <text text-anchor="middle" dy="-0.85em">carry<tspan x="0" dy="1.2em">2,4,21</tspan><tspan x="0" dy="1.2em">5,8,-5,8</tspan></text>
    </g>
  </g>
  <g transform="translate(150,20)">
    <g class="primitive">
      <text text-anchor="middle" dy="-0.85em">collect<tspan x="0" dy="1.2em">2,4,24</tspan><tspan x="0" dy="1.2em">5,5,-5,5</tspan></text>
    </g>
  </g>
  <g transform="translate(130,30)">
    <g class="primitive">
      <text text-anchor="middle" dy="-0.85em">go<tspan x="0" dy="1.2em">2,28,24</tspan><tspan x="0" dy="1.2em">4,5,-4,5</tspan></text>
    </g>
  </g>
  <g transform="translate(90,50)">
    <g class="primitive">
      <text text-anchor="middle" dy="-0.85em">deposit<tspan x="0" dy="1.2em">2,2,28</tspan><tspan x="0" dy="1.2em">4,4,-4,4</tspan></text>
    </g>
  </g>
  <g transform="translate(70,50)">
    <g class="primitive">
      <text text-anchor="middle" dy="-0.85em">carry<tspan x="0" dy="1.2em">2,2,28</tspan><tspan x="0" dy="1.2em">1,4,-1,4</tspan></text>
    </g>
  </g>
  <g transform="translate(50,50)">
    <g class="primitive">
      <text text-anchor="middle" dy="-0.85em">collect<tspan x="0" dy="1.2em">2,2,25</tspan><tspan x="0" dy="1.2em">1,1,-1,1</tspan></text>
    </g>
  </g>
  <g transform="translate(30,55)">
    <g class="primitive">
      <text text-anchor="middle" dy="-0.85em">go<tspan x="0" dy="1.2em">2,29,25</tspan><tspan x="0" dy="1.2em">0,1,-0,1</tspan></text>
    </g>
  </g>
  <g transform="translate(110,70)">
    <g class="primitive">
      <text text-anchor="middle" dy="-0.85em">deposit<tspan x="0" dy="1.2em">1,1,8</tspan><tspan x="0" dy="1.2em">4,4,-4,4</tspan></text>
    </g>
  </g>
  <g transform="translate(90,70)">
    <g class="primitive">
      <text text-anchor="middle" dy="-0.85em">carry<tspan x="0" dy="1.2em">1,1,8</tspan><tspan x="0" dy="1.2em">1,4,-1,4</tspan></text>
    </g>
  </g>
  <g transform="translate(70,70)">
    <g class="primitive">
      <text text-anchor="middle" dy="-0.85em">collect<tspan x="0" dy="1.2em">1,1,5</tspan><tspan x="0" dy="1.2em">1,1,-1,1</tspan></text>
    </g>
  </g>
  <g transform="translate(50,75)">
    <g class="primitive">
      <text text-anchor="middle" dy="-0.85em">go<tspan x="0" dy="1.2em">1,1,5</tspan><tspan x="0" dy="1.2em">0,1,-0,1</tspan></text>
    </g>
  </g>
  <g transform="translate(210,60)">
    <g class="primitive">
      <text text-anchor="middle" dy="-0.25em">op<tspan x="0" dy="1.2em">8,8,-8,8</tspan></text>
    </g>
  </g>
  <g transform="translate(210,20)">
    <g class="primitive">
      <text text-anchor="middle" dy="-0.25em">op<tspan x="0" dy="1.2em">8,8,-8,8</tspan></text>
    </g>
  </g>
  <g transform="translate(110,50)">
    <g class="primitive">
      <text text-anchor="middle" dy="-0.25em">op<tspan x="0" dy="1.2em">4,4,-5,5</tspan></text>
    </g>
  </g>
  <g transform="translate(110,10)">
    <g class="primitive">
      <text text-anchor="middle" dy="-0.25em">op<tspan x="0" dy="1.2em">4,4,-5,5</tspan></text>
    </g>
  </g>
  <g transform="translate(10,55)">
    <g class="primitive">
      <text text-anchor="middle" dy="-0.25em">R2-29<tspan x="0" dy="1.2em">0,0,-0,0</tspan></text>
    </g>
  </g>
  <g transform="translate(30,75)">
    <g class="primitive">
      <text text-anchor="middle" dy="-0.25em">R1-1<tspan x="0" dy="1.2em">0,0,-0,0</tspan></text>
    </g>
  </g>
  <g transform="translate(130,10)">
    <g class="primitive">
      <text text-anchor="middle" dy="-0.25em">O4-24<tspan x="0" dy="1.2em">4,4,-5,5</tspan></text>
    </g>
  </g>
  <g transform="translate(130,50)">
    <g class="primitive">
      <text text-anchor="middle" dy="-0.25em">O3-12<tspan x="0" dy="1.2em">4,4,-5,5</tspan></text>
    </g>
  </g>
  <g transform="translate(30,45)">
    <g class="primitive">
      <text text-anchor="middle" dy="-0.25em">O2-25<tspan x="0" dy="1.2em">0,0,-0,0</tspan></text>
    </g>
  </g>
  <g transform="translate(50,65)">
    <g class="primitive">
      <text text-anchor="middle" dy="-0.25em">O1-5<tspan x="0" dy="1.2em">0,0,-0,0</tspan></text>
    </g>
  </g>
</g>
</svg>
