<?xml version="1.0" encoding="UTF-8"?>
<svg xmlns="http://www.w3.org/2000/svg"
     xmlns:xlink="http://www.w3.org/1999/xlink"
     xmlns:gadfly="http://www.gadflyjl.org/ns"
     version="1.2"
     width="240mm" height="650mm" viewBox="0 0 240 650"
     stroke="none"
     fill="#000000"
     stroke-width="0.3"
     font-size="3.88"
>
<defs>
  <marker id="arrow" markerWidth="15" markerHeight="7" refX="5" refY="3.5" orient="auto" markerUnits="strokeWidth">
    <path d="M0,0 L15,3.5 L0,7 z" stroke="context-stroke" fill="context-stroke"/>
  </marker>
</defs>
<g stroke="#000000" id="img-901e3469-1">
  <g transform="translate(40,565)">
    <path fill="none" d="M-5.6,0 L 5.6 0" class="primitive"/>
  </g>
  <g transform="translate(220,621)">
    <path fill="none" d="M-5.6,0 L 5.6 0" class="primitive"/>
  </g>
  <g transform="translate(220,576)">
    <path fill="none" d="M-9.51,42.81 L 9.51 -42.81" class="primitive"/>
  </g>
  <g transform="translate(220,531)">
    <path fill="none" d="M-9.76,87.8 L 9.76 -87.8" class="primitive"/>
  </g>
  <g transform="translate(220,486)">
    <path fill="none" d="M-9.84,132.8 L 9.84 -132.8" class="primitive"/>
  </g>
  <g transform="translate(220,341)">
    <path fill="none" d="M-9.92,277.8 L 9.92 -277.8" class="primitive"/>
  </g>
  <g transform="translate(200,621)">
    <path fill="none" d="M-5.6,0 L 5.6 0" class="primitive"/>
  </g>
  <g transform="translate(160,633)">
    <path fill="none" d="M-8.31,9.97 L 8.31 -9.97" class="primitive"/>
  </g>
  <g transform="translate(160,628)">
    <path fill="none" d="M-7.44,5.21 L 7.44 -5.21" class="primitive"/>
  </g>
  <g transform="translate(160,623)">
    <path fill="none" d="M-5.91,1.18 L 5.91 -1.18" class="primitive"/>
  </g>
  <g transform="translate(160,618)">
    <path fill="none" d="M-6.23,-1.87 L 6.23 1.87" class="primitive"/>
  </g>
  <g transform="translate(180,621)">
    <path fill="none" d="M-5.6,0 L 5.6 0" class="primitive"/>
  </g>
  <g transform="translate(170,425)">
    <path fill="none" d="M-59.19,157.84 L 59.19 -157.84" class="primitive"/>
  </g>
  <g transform="translate(170,400)">
    <path fill="none" d="M-59.3,182.83 L 59.3 -182.83" class="primitive"/>
  </g>
  <g transform="translate(170,375)">
    <path fill="none" d="M-59.38,207.82 L 59.38 -207.82" class="primitive"/>
  </g>
  <g transform="translate(170,350)">
    <path fill="none" d="M-59.44,232.82 L 59.44 -232.82" class="primitive"/>
  </g>
  <g transform="translate(120,585)">
    <path fill="none" d="M-5.6,0 L 5.6 0" class="primitive"/>
  </g>
  <g transform="translate(100,585)">
    <path fill="none" d="M-5.6,0 L 5.6 0" class="primitive"/>
  </g>
  <g transform="translate(60,595)">
    <path fill="none" d="M-8.03,8.03 L 8.03 -8.03" class="primitive"/>
  </g>
  <g transform="translate(60,590)">
    <path fill="none" d="M-6.89,3.44 L 6.89 -3.44" class="primitive"/>
  </g>
  <g transform="translate(60,585)">
    <path fill="none" d="M-5.6,0 L 5.6 0" class="primitive"/>
  </g>
  <g transform="translate(60,580)">
    <path fill="none" d="M-6.89,-3.44 L 6.89 3.44" class="primitive"/>
  </g>
  <g transform="translate(80,585)">
    <path fill="none" d="M-5.6,0 L 5.6 0" class="primitive"/>
  </g>
  <g transform="translate(140,625)">
    <path fill="none" d="M-5.6,0 L 5.6 0" class="primitive"/>
  </g>
  <g transform="translate(120,625)">
    <path fill="none" d="M-5.6,0 L 5.6 0" class="primitive"/>
  </g>
  <g transform="translate(40,595)">
    <path fill="none" d="M-5.6,0 L 5.6 0" class="primitive"/>
  </g>
  <g transform="translate(20,595)">
    <path fill="none" d="M-5.6,0 L 5.6 0" class="primitive"/>
  </g>
  <g transform="translate(140,615)">
    <path fill="none" d="M-5.6,0 L 5.6 0" class="primitive"/>
  </g>
  <g transform="translate(120,615)">
    <path fill="none" d="M-5.6,0 L 5.6 0" class="primitive"/>
  </g>
  <g transform="translate(40,575)">
    <path fill="none" d="M-5.6,0 L 5.6 0" class="primitive"/>
  </g>
  <g transform="translate(20,575)">
    <path fill="none" d="M-5.6,0 L 5.6 0" class="primitive"/>
  </g>
  <g transform="translate(160,603)">
    <path fill="none" d="M-8.82,-15.88 L 8.82 15.88" class="primitive"/>
  </g>
  <g transform="translate(60,575)">
    <path fill="none" d="M-8.03,-8.03 L 8.03 8.03" class="primitive"/>
  </g>
  <g transform="translate(140,585)">
    <path fill="none" d="M-5.6,0 L 5.6 0" class="primitive"/>
  </g>
</g>
<g fill="#FF0000" id="img-901e3469-2">
  <g transform="translate(30,565)">
    <circle cx="0" cy="0" r="4" class="primitive"/>
  </g>
</g>
<g fill="#00FFFF" id="img-901e3469-3">
  <g transform="translate(230,621)">
    <circle cx="0" cy="0" r="4" class="primitive"/>
  </g>
</g>
<g fill="#00FFFF" id="img-901e3469-4">
  <g transform="translate(230,531)">
    <circle cx="0" cy="0" r="4" class="primitive"/>
  </g>
</g>
<g fill="#00FFFF" id="img-901e3469-5">
  <g transform="translate(230,441)">
    <circle cx="0" cy="0" r="4" class="primitive"/>
  </g>
</g>
<g fill="#00FFFF" id="img-901e3469-6">
  <g transform="translate(230,351)">
    <circle cx="0" cy="0" r="4" class="primitive"/>
  </g>
</g>
<g fill="#00FFFF" id="img-901e3469-7">
  <g transform="translate(210,621)">
    <circle cx="0" cy="0" r="4" class="primitive"/>
  </g>
</g>
<g fill="#00FFFF" id="img-901e3469-8">
  <g transform="translate(190,621)">
    <circle cx="0" cy="0" r="4" class="primitive"/>
  </g>
</g>
<g fill="#00FFFF" id="img-901e3469-9">
  <g transform="translate(150,645)">
    <circle cx="0" cy="0" r="4" class="primitive"/>
  </g>
</g>
<g fill="#00FFFF" id="img-901e3469-10">
  <g transform="translate(150,635)">
    <circle cx="0" cy="0" r="4" class="primitive"/>
  </g>
</g>
<g fill="#00FFFF" id="img-901e3469-11">
  <g transform="translate(150,625)">
    <circle cx="0" cy="0" r="4" class="primitive"/>
  </g>
</g>
<g fill="#00FFFF" id="img-901e3469-12">
  <g transform="translate(150,615)">
    <circle cx="0" cy="0" r="4" class="primitive"/>
  </g>
</g>
<g fill="#00FFFF" id="img-901e3469-13">
  <g transform="translate(170,621)">
    <circle cx="0" cy="0" r="4" class="primitive"/>
  </g>
</g>
<g fill="#00FFFF" id="img-901e3469-14">
  <g transform="translate(230,265)">
    <circle cx="0" cy="0" r="4" class="primitive"/>
  </g>
</g>
<g fill="#00FFFF" id="img-901e3469-15">
  <g transform="translate(230,215)">
    <circle cx="0" cy="0" r="4" class="primitive"/>
  </g>
</g>
<g fill="#00FFFF" id="img-901e3469-16">
  <g transform="translate(230,165)">
    <circle cx="0" cy="0" r="4" class="primitive"/>
  </g>
</g>
<g fill="#00FFFF" id="img-901e3469-17">
  <g transform="translate(230,115)">
    <circle cx="0" cy="0" r="4" class="primitive"/>
  </g>
</g>
<g fill="#00FFFF" id="img-901e3469-18">
  <g transform="translate(110,585)">
    <circle cx="0" cy="0" r="4" class="primitive"/>
  </g>
</g>
<g fill="#00FFFF" id="img-901e3469-19">
  <g transform="translate(90,585)">
    <circle cx="0" cy="0" r="4" class="primitive"/>
  </g>
</g>
<g fill="#00FFFF" id="img-901e3469-20">
  <g transform="translate(50,605)">
    <circle cx="0" cy="0" r="4" class="primitive"/>
  </g>
</g>
<g fill="#00FFFF" id="img-901e3469-21">
  <g transform="translate(50,595)">
    <circle cx="0" cy="0" r="4" class="primitive"/>
  </g>
</g>
<g fill="#00FFFF" id="img-901e3469-22">
  <g transform="translate(50,585)">
    <circle cx="0" cy="0" r="4" class="primitive"/>
  </g>
</g>
<g fill="#00FFFF" id="img-901e3469-23">
  <g transform="translate(50,575)">
    <circle cx="0" cy="0" r="4" class="primitive"/>
  </g>
</g>
<g fill="#00FFFF" id="img-901e3469-24">
  <g transform="translate(70,585)">
    <circle cx="0" cy="0" r="4" class="primitive"/>
  </g>
</g>
<g fill="#00FFFF" id="img-901e3469-25">
  <g transform="translate(130,625)">
    <circle cx="0" cy="0" r="4" class="primitive"/>
  </g>
</g>
<g fill="#00FF00" id="img-901e3469-26">
  <g transform="translate(110,625)">
    <circle cx="0" cy="0" r="4" class="primitive"/>
  </g>
</g>
<g fill="#00FFFF" id="img-901e3469-27">
  <g transform="translate(30,595)">
    <circle cx="0" cy="0" r="4" class="primitive"/>
  </g>
</g>
<g fill="#00FF00" id="img-901e3469-28">
  <g transform="translate(10,595)">
    <circle cx="0" cy="0" r="4" class="primitive"/>
  </g>
</g>
<g fill="#00FFFF" id="img-901e3469-29">
  <g transform="translate(130,615)">
    <circle cx="0" cy="0" r="4" class="primitive"/>
  </g>
</g>
<g fill="#00FF00" id="img-901e3469-30">
  <g transform="translate(110,615)">
    <circle cx="0" cy="0" r="4" class="primitive"/>
  </g>
</g>
<g fill="#00FFFF" id="img-901e3469-31">
  <g transform="translate(30,575)">
    <circle cx="0" cy="0" r="4" class="primitive"/>
  </g>
</g>
<g fill="#00FF00" id="img-901e3469-32">
  <g transform="translate(10,575)">
    <circle cx="0" cy="0" r="4" class="primitive"/>
  </g>
</g>
<g fill="#FFA500" id="img-901e3469-33">
  <g transform="translate(150,585)">
    <circle cx="0" cy="0" r="4" class="primitive"/>
  </g>
</g>
<g fill="#FFA500" id="img-901e3469-34">
  <g transform="translate(50,565)">
    <circle cx="0" cy="0" r="4" class="primitive"/>
  </g>
</g>
<g fill="#FF0000" id="img-901e3469-35">
  <g transform="translate(230,61)">
    <circle cx="0" cy="0" r="4" class="primitive"/>
  </g>
</g>
<g fill="#FF0000" id="img-901e3469-36">
  <g transform="translate(130,585)">
    <circle cx="0" cy="0" r="4" class="primitive"/>
  </g>
</g>
<g font-family="futura" font-size="3.53" stroke="#000000" id="img-901e3469-37">
  <g transform="translate(30,565)">
    <g class="primitive">
      <text text-anchor="middle" dy="-0.25em">op15325<tspan x="0" dy="1.2em">0,0,</tspan></text>
    </g>
  </g>
  <g transform="translate(230,621)">
    <g class="primitive">
      <text text-anchor="middle" dy="-0.85em">go<tspan x="0" dy="1.2em">-1,415,-1</tspan><tspan x="0" dy="1.2em">36,36,</tspan></text>
    </g>
  </g>
  <g transform="translate(230,531)">
    <g class="primitive">
      <text text-anchor="middle" dy="-0.85em">go<tspan x="0" dy="1.2em">-1,414,-1</tspan><tspan x="0" dy="1.2em">36,36,</tspan></text>
    </g>
  </g>
  <g transform="translate(230,441)">
    <g class="primitive">
      <text text-anchor="middle" dy="-0.85em">go<tspan x="0" dy="1.2em">-1,391,-1</tspan><tspan x="0" dy="1.2em">36,36,</tspan></text>
    </g>
  </g>
  <g transform="translate(230,351)">
    <g class="primitive">
      <text text-anchor="middle" dy="-0.85em">go<tspan x="0" dy="1.2em">-1,390,-1</tspan><tspan x="0" dy="1.2em">36,36,</tspan></text>
    </g>
  </g>
  <g transform="translate(210,621)">
    <g class="primitive">
      <text text-anchor="middle" dy="-0.85em">teamDEPOSIT<tspan x="0" dy="1.2em">r: (-1,-1,-1,-1,)</tspan><tspan x="0" dy="1.2em">36,36,</tspan></text>
    </g>
  </g>
  <g transform="translate(190,621)">
    <g class="primitive">
      <text text-anchor="middle" dy="-0.85em">teamCARRY<tspan x="0" dy="1.2em">r: (-1,-1,-1,-1,)</tspan><tspan x="0" dy="1.2em">20,36,</tspan></text>
    </g>
  </g>
  <g transform="translate(150,645)">
    <g class="primitive">
      <text text-anchor="middle" dy="-0.85em">go<tspan x="0" dy="1.2em">-1,505,505</tspan><tspan x="0" dy="1.2em">0,0,</tspan></text>
    </g>
  </g>
  <g transform="translate(150,635)">
    <g class="primitive">
      <text text-anchor="middle" dy="-0.85em">go<tspan x="0" dy="1.2em">-1,504,504</tspan><tspan x="0" dy="1.2em">0,0,</tspan></text>
    </g>
  </g>
  <g transform="translate(150,625)">
    <g class="primitive">
      <text text-anchor="middle" dy="-0.85em">go<tspan x="0" dy="1.2em">-1,481,481</tspan><tspan x="0" dy="1.2em">0,0,</tspan></text>
    </g>
  </g>
  <g transform="translate(150,615)">
    <g class="primitive">
      <text text-anchor="middle" dy="-0.85em">go<tspan x="0" dy="1.2em">-1,480,480</tspan><tspan x="0" dy="1.2em">0,0,</tspan></text>
    </g>
  </g>
  <g transform="translate(170,621)">
    <g class="primitive">
      <text text-anchor="middle" dy="-0.85em">teamCOLLECT<tspan x="0" dy="1.2em">r: (-1,-1,-1,-1,)</tspan><tspan x="0" dy="1.2em">20,20,</tspan></text>
    </g>
  </g>
  <g transform="translate(230,265)">
    <g class="primitive">
      <text text-anchor="middle" dy="-0.85em">go<tspan x="0" dy="1.2em">-1,74,-1</tspan><tspan x="0" dy="1.2em">20,20,</tspan></text>
    </g>
  </g>
  <g transform="translate(230,215)">
    <g class="primitive">
      <text text-anchor="middle" dy="-0.85em">go<tspan x="0" dy="1.2em">-1,73,-1</tspan><tspan x="0" dy="1.2em">20,20,</tspan></text>
    </g>
  </g>
  <g transform="translate(230,165)">
    <g class="primitive">
      <text text-anchor="middle" dy="-0.85em">go<tspan x="0" dy="1.2em">-1,48,-1</tspan><tspan x="0" dy="1.2em">20,20,</tspan></text>
    </g>
  </g>
  <g transform="translate(230,115)">
    <g class="primitive">
      <text text-anchor="middle" dy="-0.85em">go<tspan x="0" dy="1.2em">-1,47,-1</tspan><tspan x="0" dy="1.2em">20,20,</tspan></text>
    </g>
  </g>
  <g transform="translate(110,585)">
    <g class="primitive">
      <text text-anchor="middle" dy="-0.85em">teamDEPOSIT<tspan x="0" dy="1.2em">r: (-1,-1,-1,-1,)</tspan><tspan x="0" dy="1.2em">20,20,</tspan></text>
    </g>
  </g>
  <g transform="translate(90,585)">
    <g class="primitive">
      <text text-anchor="middle" dy="-0.85em">teamCARRY<tspan x="0" dy="1.2em">r: (-1,-1,-1,-1,)</tspan><tspan x="0" dy="1.2em">0,20,</tspan></text>
    </g>
  </g>
  <g transform="translate(50,605)">
    <g class="primitive">
      <text text-anchor="middle" dy="-0.85em">go<tspan x="0" dy="1.2em">-1,513,513</tspan><tspan x="0" dy="1.2em">0,0,</tspan></text>
    </g>
  </g>
  <g transform="translate(50,595)">
    <g class="primitive">
      <text text-anchor="middle" dy="-0.85em">go<tspan x="0" dy="1.2em">-1,512,512</tspan><tspan x="0" dy="1.2em">0,0,</tspan></text>
    </g>
  </g>
  <g transform="translate(50,585)">
    <g class="primitive">
      <text text-anchor="middle" dy="-0.85em">go<tspan x="0" dy="1.2em">-1,493,493</tspan><tspan x="0" dy="1.2em">0,0,</tspan></text>
    </g>
  </g>
  <g transform="translate(50,575)">
    <g class="primitive">
      <text text-anchor="middle" dy="-0.85em">go<tspan x="0" dy="1.2em">-1,492,492</tspan><tspan x="0" dy="1.2em">0,0,</tspan></text>
    </g>
  </g>
  <g transform="translate(70,585)">
    <g class="primitive">
      <text text-anchor="middle" dy="-0.85em">teamCOLLECT<tspan x="0" dy="1.2em">r: (-1,-1,-1,-1,)</tspan><tspan x="0" dy="1.2em">0,0,</tspan></text>
    </g>
  </g>
  <g transform="translate(130,625)">
    <g class="primitive">
      <text text-anchor="middle" dy="-0.85em">go<tspan x="0" dy="1.2em">4,286,-1</tspan><tspan x="0" dy="1.2em">0,0,</tspan></text>
    </g>
  </g>
  <g transform="translate(110,625)">
    <g class="primitive">
      <text text-anchor="middle" dy="-0.25em">R4-286<tspan x="0" dy="1.2em">0,0,</tspan></text>
    </g>
  </g>
  <g transform="translate(30,595)">
    <g class="primitive">
      <text text-anchor="middle" dy="-0.85em">go<tspan x="0" dy="1.2em">3,352,-1</tspan><tspan x="0" dy="1.2em">0,0,</tspan></text>
    </g>
  </g>
  <g transform="translate(10,595)">
    <g class="primitive">
      <text text-anchor="middle" dy="-0.25em">R3-352<tspan x="0" dy="1.2em">0,0,</tspan></text>
    </g>
  </g>
  <g transform="translate(130,615)">
    <g class="primitive">
      <text text-anchor="middle" dy="-0.85em">go<tspan x="0" dy="1.2em">2,158,-1</tspan><tspan x="0" dy="1.2em">0,0,</tspan></text>
    </g>
  </g>
  <g transform="translate(110,615)">
    <g class="primitive">
      <text text-anchor="middle" dy="-0.25em">R2-158<tspan x="0" dy="1.2em">0,0,</tspan></text>
    </g>
  </g>
  <g transform="translate(30,575)">
    <g class="primitive">
      <text text-anchor="middle" dy="-0.85em">go<tspan x="0" dy="1.2em">1,444,-1</tspan><tspan x="0" dy="1.2em">0,0,</tspan></text>
    </g>
  </g>
  <g transform="translate(10,575)">
    <g class="primitive">
      <text text-anchor="middle" dy="-0.25em">R1-444<tspan x="0" dy="1.2em">0,0,</tspan></text>
    </g>
  </g>
  <g transform="translate(150,585)">
    <g class="primitive">
      <text text-anchor="middle" dy="-0.25em">O2-480<tspan x="0" dy="1.2em">20,20,</tspan></text>
    </g>
  </g>
  <g transform="translate(50,565)">
    <g class="primitive">
      <text text-anchor="middle" dy="-0.25em">O1-492<tspan x="0" dy="1.2em">0,0,</tspan></text>
    </g>
  </g>
  <g transform="translate(230,61)">
    <g class="primitive">
      <text text-anchor="middle" dy="-0.25em">op15324<tspan x="0" dy="1.2em">36,36,</tspan></text>
    </g>
  </g>
  <g transform="translate(130,585)">
    <g class="primitive">
      <text text-anchor="middle" dy="-0.25em">op15323<tspan x="0" dy="1.2em">20,20,</tspan></text>
    </g>
  </g>
</g>
</svg>
