<?xml version="1.0" encoding="UTF-8"?>
<svg xmlns="http://www.w3.org/2000/svg"
     xmlns:xlink="http://www.w3.org/1999/xlink"
     xmlns:gadfly="http://www.gadflyjl.org/ns"
     version="1.2"
     width="220mm" height="160mm" viewBox="0 0 220 160"
     stroke="none"
     fill="#000000"
     stroke-width="0.3"
     font-size="3.88"
>
<defs>
  <marker id="arrow" markerWidth="15" markerHeight="7" refX="5" refY="3.5" orient="auto" markerUnits="strokeWidth">
    <path d="M0,0 L15,3.5 L0,7 z" stroke="context-stroke" fill="context-stroke"/>
  </marker>
</defs>
<g stroke="#000000" id="img-6bf405ee-1">
  <g transform="translate(200,140)">
    <path fill="none" d="M-5.6,0 L 5.6 0" class="primitive"/>
  </g>
  <g transform="translate(200,100)">
    <path fill="none" d="M-9.45,37.82 L 9.45 -37.82" class="primitive"/>
  </g>
  <g transform="translate(180,140)">
    <path fill="none" d="M-5.6,0 L 5.6 0" class="primitive"/>
  </g>
  <g transform="translate(160,140)">
    <path fill="none" d="M-5.6,0 L 5.6 0" class="primitive"/>
  </g>
  <g transform="translate(140,145)">
    <path fill="none" d="M-6.89,3.44 L 6.89 -3.44" class="primitive"/>
  </g>
  <g transform="translate(200,100)">
    <path fill="none" d="M-5.6,0 L 5.6 0" class="primitive"/>
  </g>
  <g transform="translate(200,60)">
    <path fill="none" d="M-9.45,37.82 L 9.45 -37.82" class="primitive"/>
  </g>
  <g transform="translate(180,100)">
    <path fill="none" d="M-5.6,0 L 5.6 0" class="primitive"/>
  </g>
  <g transform="translate(160,100)">
    <path fill="none" d="M-5.6,0 L 5.6 0" class="primitive"/>
  </g>
  <g transform="translate(140,105)">
    <path fill="none" d="M-6.89,3.44 L 6.89 -3.44" class="primitive"/>
  </g>
  <g transform="translate(120,150)">
    <path fill="none" d="M-5.6,0 L 5.6 0" class="primitive"/>
  </g>
  <g transform="translate(110,120)">
    <path fill="none" d="M0,27.8 L 0 -27.8" class="primitive"/>
  </g>
  <g transform="translate(100,150)">
    <path fill="none" d="M-5.6,0 L 5.6 0" class="primitive"/>
  </g>
  <g transform="translate(80,150)">
    <path fill="none" d="M-5.6,0 L 5.6 0" class="primitive"/>
  </g>
  <g transform="translate(60,152.5)">
    <path fill="none" d="M-6.06,1.52 L 6.06 -1.52" class="primitive"/>
  </g>
  <g transform="translate(110,120)">
    <path fill="none" d="M-16.89,8.44 L 16.89 -8.44" class="primitive"/>
  </g>
  <g transform="translate(100,130)">
    <path fill="none" d="M-5.6,0 L 5.6 0" class="primitive"/>
  </g>
  <g transform="translate(80,130)">
    <path fill="none" d="M-5.6,0 L 5.6 0" class="primitive"/>
  </g>
  <g transform="translate(60,130)">
    <path fill="none" d="M-5.6,0 L 5.6 0" class="primitive"/>
  </g>
  <g transform="translate(40,132.5)">
    <path fill="none" d="M-6.06,1.52 L 6.06 -1.52" class="primitive"/>
  </g>
  <g transform="translate(120,130)">
    <path fill="none" d="M-5.6,0 L 5.6 0" class="primitive"/>
  </g>
  <g transform="translate(120,90)">
    <path fill="none" d="M-5.6,0 L 5.6 0" class="primitive"/>
  </g>
  <g transform="translate(40,155)">
    <path fill="none" d="M-5.6,0 L 5.6 0" class="primitive"/>
  </g>
  <g transform="translate(20,135)">
    <path fill="none" d="M-5.6,0 L 5.6 0" class="primitive"/>
  </g>
  <g transform="translate(140,135)">
    <path fill="none" d="M-6.89,-3.44 L 6.89 3.44" class="primitive"/>
  </g>
  <g transform="translate(140,95)">
    <path fill="none" d="M-6.89,-3.44 L 6.89 3.44" class="primitive"/>
  </g>
  <g transform="translate(60,147.5)">
    <path fill="none" d="M-6.06,-1.52 L 6.06 1.52" class="primitive"/>
  </g>
  <g transform="translate(40,127.5)">
    <path fill="none" d="M-6.06,-1.52 L 6.06 1.52" class="primitive"/>
  </g>
</g>
<g fill="#00FFFF" id="img-6bf405ee-2">
  <g transform="translate(210,140)">
    <circle cx="0" cy="0" r="4" class="primitive"/>
  </g>
</g>
<g fill="#00FFFF" id="img-6bf405ee-3">
  <g transform="translate(210,100)">
    <circle cx="0" cy="0" r="4" class="primitive"/>
  </g>
</g>
<g fill="#00FFFF" id="img-6bf405ee-4">
  <g transform="translate(190,140)">
    <circle cx="0" cy="0" r="4" class="primitive"/>
  </g>
</g>
<g fill="#00FFFF" id="img-6bf405ee-5">
  <g transform="translate(170,140)">
    <circle cx="0" cy="0" r="4" class="primitive"/>
  </g>
</g>
<g fill="#00FFFF" id="img-6bf405ee-6">
  <g transform="translate(150,140)">
    <circle cx="0" cy="0" r="4" class="primitive"/>
  </g>
</g>
<g fill="#00FFFF" id="img-6bf405ee-7">
  <g transform="translate(130,150)">
    <circle cx="0" cy="0" r="4" class="primitive"/>
  </g>
</g>
<g fill="#00FFFF" id="img-6bf405ee-8">
  <g transform="translate(190,100)">
    <circle cx="0" cy="0" r="4" class="primitive"/>
  </g>
</g>
<g fill="#00FFFF" id="img-6bf405ee-9">
  <g transform="translate(170,100)">
    <circle cx="0" cy="0" r="4" class="primitive"/>
  </g>
</g>
<g fill="#00FFFF" id="img-6bf405ee-10">
  <g transform="translate(150,100)">
    <circle cx="0" cy="0" r="4" class="primitive"/>
  </g>
</g>
<g fill="#00FFFF" id="img-6bf405ee-11">
  <g transform="translate(130,110)">
    <circle cx="0" cy="0" r="4" class="primitive"/>
  </g>
</g>
<g fill="#00FFFF" id="img-6bf405ee-12">
  <g transform="translate(110,150)">
    <circle cx="0" cy="0" r="4" class="primitive"/>
  </g>
</g>
<g fill="#00FFFF" id="img-6bf405ee-13">
  <g transform="translate(90,150)">
    <circle cx="0" cy="0" r="4" class="primitive"/>
  </g>
</g>
<g fill="#00FFFF" id="img-6bf405ee-14">
  <g transform="translate(70,150)">
    <circle cx="0" cy="0" r="4" class="primitive"/>
  </g>
</g>
<g fill="#00FFFF" id="img-6bf405ee-15">
  <g transform="translate(50,155)">
    <circle cx="0" cy="0" r="4" class="primitive"/>
  </g>
</g>
<g fill="#00FFFF" id="img-6bf405ee-16">
  <g transform="translate(90,130)">
    <circle cx="0" cy="0" r="4" class="primitive"/>
  </g>
</g>
<g fill="#00FFFF" id="img-6bf405ee-17">
  <g transform="translate(70,130)">
    <circle cx="0" cy="0" r="4" class="primitive"/>
  </g>
</g>
<g fill="#00FFFF" id="img-6bf405ee-18">
  <g transform="translate(50,130)">
    <circle cx="0" cy="0" r="4" class="primitive"/>
  </g>
</g>
<g fill="#00FFFF" id="img-6bf405ee-19">
  <g transform="translate(30,135)">
    <circle cx="0" cy="0" r="4" class="primitive"/>
  </g>
</g>
<g fill="#FF0000" id="img-6bf405ee-20">
  <g transform="translate(210,60)">
    <circle cx="0" cy="0" r="4" class="primitive"/>
  </g>
</g>
<g fill="#FF0000" id="img-6bf405ee-21">
  <g transform="translate(110,130)">
    <circle cx="0" cy="0" r="4" class="primitive"/>
  </g>
</g>
<g fill="#FF0000" id="img-6bf405ee-22">
  <g transform="translate(210,20)">
    <circle cx="0" cy="0" r="4" class="primitive"/>
  </g>
</g>
<g fill="#FF0000" id="img-6bf405ee-23">
  <g transform="translate(110,90)">
    <circle cx="0" cy="0" r="4" class="primitive"/>
  </g>
</g>
<g fill="#00FF00" id="img-6bf405ee-24">
  <g transform="translate(30,155)">
    <circle cx="0" cy="0" r="4" class="primitive"/>
  </g>
</g>
<g fill="#00FF00" id="img-6bf405ee-25">
  <g transform="translate(10,135)">
    <circle cx="0" cy="0" r="4" class="primitive"/>
  </g>
</g>
<g fill="#FFA500" id="img-6bf405ee-26">
  <g transform="translate(130,130)">
    <circle cx="0" cy="0" r="4" class="primitive"/>
  </g>
</g>
<g fill="#FFA500" id="img-6bf405ee-27">
  <g transform="translate(130,90)">
    <circle cx="0" cy="0" r="4" class="primitive"/>
  </g>
</g>
<g fill="#FFA500" id="img-6bf405ee-28">
  <g transform="translate(50,145)">
    <circle cx="0" cy="0" r="4" class="primitive"/>
  </g>
</g>
<g fill="#FFA500" id="img-6bf405ee-29">
  <g transform="translate(30,125)">
    <circle cx="0" cy="0" r="4" class="primitive"/>
  </g>
</g>
<g font-family="futura" font-size="3.53" stroke="#000000" id="img-6bf405ee-30">
  <g transform="translate(210,140)">
    <g class="primitive">
      <text text-anchor="middle" dy="-0.85em">go<tspan x="0" dy="1.2em">2,21,-1</tspan><tspan x="0" dy="1.2em">8,8,</tspan></text>
    </g>
  </g>
  <g transform="translate(210,100)">
    <g class="primitive">
      <text text-anchor="middle" dy="-0.85em">go<tspan x="0" dy="1.2em">1,9,-1</tspan><tspan x="0" dy="1.2em">8,8,</tspan></text>
    </g>
  </g>
  <g transform="translate(190,140)">
    <g class="primitive">
      <text text-anchor="middle" dy="-0.85em">deposit<tspan x="0" dy="1.2em">2,4,21</tspan><tspan x="0" dy="1.2em">8,8,</tspan></text>
    </g>
  </g>
  <g transform="translate(170,140)">
    <g class="primitive">
      <text text-anchor="middle" dy="-0.85em">carry<tspan x="0" dy="1.2em">2,4,21</tspan><tspan x="0" dy="1.2em">5,8,</tspan></text>
    </g>
  </g>
  <g transform="translate(150,140)">
    <g class="primitive">
      <text text-anchor="middle" dy="-0.85em">collect<tspan x="0" dy="1.2em">2,4,24</tspan><tspan x="0" dy="1.2em">5,5,</tspan></text>
    </g>
  </g>
  <g transform="translate(130,150)">
    <g class="primitive">
      <text text-anchor="middle" dy="-0.85em">go<tspan x="0" dy="1.2em">2,28,24</tspan><tspan x="0" dy="1.2em">4,5,</tspan></text>
    </g>
  </g>
  <g transform="translate(190,100)">
    <g class="primitive">
      <text text-anchor="middle" dy="-0.85em">deposit<tspan x="0" dy="1.2em">1,3,9</tspan><tspan x="0" dy="1.2em">8,8,</tspan></text>
    </g>
  </g>
  <g transform="translate(170,100)">
    <g class="primitive">
      <text text-anchor="middle" dy="-0.85em">carry<tspan x="0" dy="1.2em">1,3,9</tspan><tspan x="0" dy="1.2em">5,8,</tspan></text>
    </g>
  </g>
  <g transform="translate(150,100)">
    <g class="primitive">
      <text text-anchor="middle" dy="-0.85em">collect<tspan x="0" dy="1.2em">1,3,12</tspan><tspan x="0" dy="1.2em">5,5,</tspan></text>
    </g>
  </g>
  <g transform="translate(130,110)">
    <g class="primitive">
      <text text-anchor="middle" dy="-0.85em">go<tspan x="0" dy="1.2em">1,8,12</tspan><tspan x="0" dy="1.2em">4,5,</tspan></text>
    </g>
  </g>
  <g transform="translate(110,150)">
    <g class="primitive">
      <text text-anchor="middle" dy="-0.85em">deposit<tspan x="0" dy="1.2em">2,2,28</tspan><tspan x="0" dy="1.2em">4,4,</tspan></text>
    </g>
  </g>
  <g transform="translate(90,150)">
    <g class="primitive">
      <text text-anchor="middle" dy="-0.85em">carry<tspan x="0" dy="1.2em">2,2,28</tspan><tspan x="0" dy="1.2em">1,4,</tspan></text>
    </g>
  </g>
  <g transform="translate(70,150)">
    <g class="primitive">
      <text text-anchor="middle" dy="-0.85em">collect<tspan x="0" dy="1.2em">2,2,25</tspan><tspan x="0" dy="1.2em">1,1,</tspan></text>
    </g>
  </g>
  <g transform="translate(50,155)">
    <g class="primitive">
      <text text-anchor="middle" dy="-0.85em">go<tspan x="0" dy="1.2em">2,29,25</tspan><tspan x="0" dy="1.2em">0,1,</tspan></text>
    </g>
  </g>
  <g transform="translate(90,130)">
    <g class="primitive">
      <text text-anchor="middle" dy="-0.85em">deposit<tspan x="0" dy="1.2em">1,1,8</tspan><tspan x="0" dy="1.2em">4,4,</tspan></text>
    </g>
  </g>
  <g transform="translate(70,130)">
    <g class="primitive">
      <text text-anchor="middle" dy="-0.85em">carry<tspan x="0" dy="1.2em">1,1,8</tspan><tspan x="0" dy="1.2em">1,4,</tspan></text>
    </g>
  </g>
  <g transform="translate(50,130)">
    <g class="primitive">
      <text text-anchor="middle" dy="-0.85em">collect<tspan x="0" dy="1.2em">1,1,5</tspan><tspan x="0" dy="1.2em">1,1,</tspan></text>
    </g>
  </g>
  <g transform="translate(30,135)">
    <g class="primitive">
      <text text-anchor="middle" dy="-0.85em">go<tspan x="0" dy="1.2em">1,1,5</tspan><tspan x="0" dy="1.2em">0,1,</tspan></text>
    </g>
  </g>
  <g transform="translate(210,60)">
    <g class="primitive">
      <text text-anchor="middle" dy="-0.25em">op<tspan x="0" dy="1.2em">8,8,</tspan></text>
    </g>
  </g>
  <g transform="translate(110,130)">
    <g class="primitive">
      <text text-anchor="middle" dy="-0.25em">op<tspan x="0" dy="1.2em">4,4,</tspan></text>
    </g>
  </g>
  <g transform="translate(210,20)">
    <g class="primitive">
      <text text-anchor="middle" dy="-0.25em">op<tspan x="0" dy="1.2em">8,8,</tspan></text>
    </g>
  </g>
  <g transform="translate(110,90)">
    <g class="primitive">
      <text text-anchor="middle" dy="-0.25em">op<tspan x="0" dy="1.2em">4,4,</tspan></text>
    </g>
  </g>
  <g transform="translate(30,155)">
    <g class="primitive">
      <text text-anchor="middle" dy="-0.25em">R2-29<tspan x="0" dy="1.2em">0,0,</tspan></text>
    </g>
  </g>
  <g transform="translate(10,135)">
    <g class="primitive">
      <text text-anchor="middle" dy="-0.25em">R1-1<tspan x="0" dy="1.2em">0,0,</tspan></text>
    </g>
  </g>
  <g transform="translate(130,130)">
    <g class="primitive">
      <text text-anchor="middle" dy="-0.25em">O4-24<tspan x="0" dy="1.2em">4,4,</tspan></text>
    </g>
  </g>
  <g transform="translate(130,90)">
    <g class="primitive">
      <text text-anchor="middle" dy="-0.25em">O3-12<tspan x="0" dy="1.2em">4,4,</tspan></text>
    </g>
  </g>
  <g transform="translate(50,145)">
    <g class="primitive">
      <text text-anchor="middle" dy="-0.25em">O2-25<tspan x="0" dy="1.2em">0,0,</tspan></text>
    </g>
  </g>
  <g transform="translate(30,125)">
    <g class="primitive">
      <text text-anchor="middle" dy="-0.25em">O1-5<tspan x="0" dy="1.2em">0,0,</tspan></text>
    </g>
  </g>
</g>
</svg>
