<?xml version="1.0" encoding="UTF-8"?>
<svg xmlns="http://www.w3.org/2000/svg"
     xmlns:xlink="http://www.w3.org/1999/xlink"
     xmlns:gadfly="http://www.gadflyjl.org/ns"
     version="1.2"
     width="220mm" height="140mm" viewBox="0 0 220 140"
     stroke="none"
     fill="#000000"
     stroke-width="0.3"
     font-size="3.88"
>
<defs>
  <marker id="arrow" markerWidth="15" markerHeight="7" refX="5" refY="3.5" orient="auto" markerUnits="strokeWidth">
    <path d="M0,0 L15,3.5 L0,7 z" stroke="context-stroke" fill="context-stroke"/>
  </marker>
</defs>
<g stroke="#000000" id="img-f36dc19a-1">
  <g transform="translate(20,115)">
    <path fill="none" d="M-5.6,0 L 5.6 0" class="primitive"/>
  </g>
  <g transform="translate(200,125)">
    <path fill="none" d="M-5.6,0 L 5.6 0" class="primitive"/>
  </g>
  <g transform="translate(200,110)">
    <path fill="none" d="M-8.61,12.91 L 8.61 -12.91" class="primitive"/>
  </g>
  <g transform="translate(200,70)">
    <path fill="none" d="M-9.6,52.81 L 9.6 -52.81" class="primitive"/>
  </g>
  <g transform="translate(180,125)">
    <path fill="none" d="M-5.6,0 L 5.6 0" class="primitive"/>
  </g>
  <g transform="translate(140,130)">
    <path fill="none" d="M-6.89,3.44 L 6.89 -3.44" class="primitive"/>
  </g>
  <g transform="translate(140,125)">
    <path fill="none" d="M-5.6,0 L 5.6 0" class="primitive"/>
  </g>
  <g transform="translate(160,125)">
    <path fill="none" d="M-5.6,0 L 5.6 0" class="primitive"/>
  </g>
  <g transform="translate(150,95)">
    <path fill="none" d="M-56.34,18.78 L 56.34 -18.78" class="primitive"/>
  </g>
  <g transform="translate(100,115)">
    <path fill="none" d="M-5.6,0 L 5.6 0" class="primitive"/>
  </g>
  <g transform="translate(80,115)">
    <path fill="none" d="M-5.6,0 L 5.6 0" class="primitive"/>
  </g>
  <g transform="translate(60,115)">
    <path fill="none" d="M-5.6,0 L 5.6 0" class="primitive"/>
  </g>
  <g transform="translate(200,65)">
    <path fill="none" d="M-5.6,0 L 5.6 0" class="primitive"/>
  </g>
  <g transform="translate(200,55)">
    <path fill="none" d="M-5.6,0 L 5.6 0" class="primitive"/>
  </g>
  <g transform="translate(200,45)">
    <path fill="none" d="M-5.6,0 L 5.6 0" class="primitive"/>
  </g>
  <g transform="translate(200,35)">
    <path fill="none" d="M-5.6,0 L 5.6 0" class="primitive"/>
  </g>
  <g transform="translate(140,120)">
    <path fill="none" d="M-6.89,-3.44 L 6.89 3.44" class="primitive"/>
  </g>
  <g transform="translate(40,115)">
    <path fill="none" d="M-5.6,0 L 5.6 0" class="primitive"/>
  </g>
  <g transform="translate(120,115)">
    <path fill="none" d="M-5.6,0 L 5.6 0" class="primitive"/>
  </g>
</g>
<g fill="#FF0000" id="img-f36dc19a-2">
  <g transform="translate(10,115)">
    <circle cx="0" cy="0" r="4" class="primitive"/>
  </g>
</g>
<g fill="#00FFFF" id="img-f36dc19a-3">
  <g transform="translate(210,125)">
    <circle cx="0" cy="0" r="4" class="primitive"/>
  </g>
</g>
<g fill="#00FFFF" id="img-f36dc19a-4">
  <g transform="translate(210,95)">
    <circle cx="0" cy="0" r="4" class="primitive"/>
  </g>
</g>
<g fill="#00FFFF" id="img-f36dc19a-5">
  <g transform="translate(190,125)">
    <circle cx="0" cy="0" r="4" class="primitive"/>
  </g>
</g>
<g fill="#00FFFF" id="img-f36dc19a-6">
  <g transform="translate(170,125)">
    <circle cx="0" cy="0" r="4" class="primitive"/>
  </g>
</g>
<g fill="#00FFFF" id="img-f36dc19a-7">
  <g transform="translate(130,135)">
    <circle cx="0" cy="0" r="4" class="primitive"/>
  </g>
</g>
<g fill="#00FFFF" id="img-f36dc19a-8">
  <g transform="translate(130,125)">
    <circle cx="0" cy="0" r="4" class="primitive"/>
  </g>
</g>
<g fill="#00FFFF" id="img-f36dc19a-9">
  <g transform="translate(150,125)">
    <circle cx="0" cy="0" r="4" class="primitive"/>
  </g>
</g>
<g fill="#00FFFF" id="img-f36dc19a-10">
  <g transform="translate(210,75)">
    <circle cx="0" cy="0" r="4" class="primitive"/>
  </g>
</g>
<g fill="#00FFFF" id="img-f36dc19a-11">
  <g transform="translate(90,115)">
    <circle cx="0" cy="0" r="4" class="primitive"/>
  </g>
</g>
<g fill="#00FFFF" id="img-f36dc19a-12">
  <g transform="translate(70,115)">
    <circle cx="0" cy="0" r="4" class="primitive"/>
  </g>
</g>
<g fill="#00FFFF" id="img-f36dc19a-13">
  <g transform="translate(50,115)">
    <circle cx="0" cy="0" r="4" class="primitive"/>
  </g>
</g>
<g fill="#00FFFF" id="img-f36dc19a-14">
  <g transform="translate(210,65)">
    <circle cx="0" cy="0" r="4" class="primitive"/>
  </g>
</g>
<g fill="#00FF00" id="img-f36dc19a-15">
  <g transform="translate(190,65)">
    <circle cx="0" cy="0" r="4" class="primitive"/>
  </g>
</g>
<g fill="#00FFFF" id="img-f36dc19a-16">
  <g transform="translate(210,55)">
    <circle cx="0" cy="0" r="4" class="primitive"/>
  </g>
</g>
<g fill="#00FF00" id="img-f36dc19a-17">
  <g transform="translate(190,55)">
    <circle cx="0" cy="0" r="4" class="primitive"/>
  </g>
</g>
<g fill="#00FFFF" id="img-f36dc19a-18">
  <g transform="translate(210,45)">
    <circle cx="0" cy="0" r="4" class="primitive"/>
  </g>
</g>
<g fill="#00FF00" id="img-f36dc19a-19">
  <g transform="translate(190,45)">
    <circle cx="0" cy="0" r="4" class="primitive"/>
  </g>
</g>
<g fill="#00FFFF" id="img-f36dc19a-20">
  <g transform="translate(210,35)">
    <circle cx="0" cy="0" r="4" class="primitive"/>
  </g>
</g>
<g fill="#00FF00" id="img-f36dc19a-21">
  <g transform="translate(190,35)">
    <circle cx="0" cy="0" r="4" class="primitive"/>
  </g>
</g>
<g fill="#FFA500" id="img-f36dc19a-22">
  <g transform="translate(130,115)">
    <circle cx="0" cy="0" r="4" class="primitive"/>
  </g>
</g>
<g fill="#FFA500" id="img-f36dc19a-23">
  <g transform="translate(30,115)">
    <circle cx="0" cy="0" r="4" class="primitive"/>
  </g>
</g>
<g fill="#FF0000" id="img-f36dc19a-24">
  <g transform="translate(210,15)">
    <circle cx="0" cy="0" r="4" class="primitive"/>
  </g>
</g>
<g fill="#FF0000" id="img-f36dc19a-25">
  <g transform="translate(110,115)">
    <circle cx="0" cy="0" r="4" class="primitive"/>
  </g>
</g>
<g font-family="futura" font-size="3.53" stroke="#000000" id="img-f36dc19a-26">
  <g transform="translate(10,115)">
    <g class="primitive">
      <text text-anchor="middle" dy="-0.25em">op144<tspan x="0" dy="1.2em">0,0,</tspan></text>
    </g>
  </g>
  <g transform="translate(210,125)">
    <g class="primitive">
      <text text-anchor="middle" dy="-0.85em">go<tspan x="0" dy="1.2em">-1,476,-1</tspan><tspan x="0" dy="1.2em">31,31,</tspan></text>
    </g>
  </g>
  <g transform="translate(210,95)">
    <g class="primitive">
      <text text-anchor="middle" dy="-0.85em">go<tspan x="0" dy="1.2em">-1,475,-1</tspan><tspan x="0" dy="1.2em">31,31,</tspan></text>
    </g>
  </g>
  <g transform="translate(190,125)">
    <g class="primitive">
      <text text-anchor="middle" dy="-0.85em">teamDEPOSIT<tspan x="0" dy="1.2em">r: (-1,-1,)</tspan><tspan x="0" dy="1.2em">31,31,</tspan></text>
    </g>
  </g>
  <g transform="translate(170,125)">
    <g class="primitive">
      <text text-anchor="middle" dy="-0.85em">teamCARRY<tspan x="0" dy="1.2em">r: (-1,-1,)</tspan><tspan x="0" dy="1.2em">14,31,</tspan></text>
    </g>
  </g>
  <g transform="translate(130,135)">
    <g class="primitive">
      <text text-anchor="middle" dy="-0.85em">go<tspan x="0" dy="1.2em">-1,118,118</tspan><tspan x="0" dy="1.2em">0,0,</tspan></text>
    </g>
  </g>
  <g transform="translate(130,125)">
    <g class="primitive">
      <text text-anchor="middle" dy="-0.85em">go<tspan x="0" dy="1.2em">-1,117,117</tspan><tspan x="0" dy="1.2em">0,0,</tspan></text>
    </g>
  </g>
  <g transform="translate(150,125)">
    <g class="primitive">
      <text text-anchor="middle" dy="-0.85em">teamCOLLECT<tspan x="0" dy="1.2em">r: (-1,-1,)</tspan><tspan x="0" dy="1.2em">14,14,</tspan></text>
    </g>
  </g>
  <g transform="translate(210,75)">
    <g class="primitive">
      <text text-anchor="middle" dy="-0.85em">go<tspan x="0" dy="1.2em">-1,383,-1</tspan><tspan x="0" dy="1.2em">14,14,</tspan></text>
    </g>
  </g>
  <g transform="translate(90,115)">
    <g class="primitive">
      <text text-anchor="middle" dy="-0.85em">deposit<tspan x="0" dy="1.2em">-1,1,383</tspan><tspan x="0" dy="1.2em">14,14,</tspan></text>
    </g>
  </g>
  <g transform="translate(70,115)">
    <g class="primitive">
      <text text-anchor="middle" dy="-0.85em">carry<tspan x="0" dy="1.2em">-1,1,383</tspan><tspan x="0" dy="1.2em">0,14,</tspan></text>
    </g>
  </g>
  <g transform="translate(50,115)">
    <g class="primitive">
      <text text-anchor="middle" dy="-0.85em">collect<tspan x="0" dy="1.2em">-1,1,550</tspan><tspan x="0" dy="1.2em">0,0,</tspan></text>
    </g>
  </g>
  <g transform="translate(210,65)">
    <g class="primitive">
      <text text-anchor="middle" dy="-0.85em">go<tspan x="0" dy="1.2em">4,4,-1</tspan><tspan x="0" dy="1.2em">0,0,</tspan></text>
    </g>
  </g>
  <g transform="translate(190,65)">
    <g class="primitive">
      <text text-anchor="middle" dy="-0.25em">R4-4<tspan x="0" dy="1.2em">0,0,</tspan></text>
    </g>
  </g>
  <g transform="translate(210,55)">
    <g class="primitive">
      <text text-anchor="middle" dy="-0.85em">go<tspan x="0" dy="1.2em">3,517,-1</tspan><tspan x="0" dy="1.2em">0,0,</tspan></text>
    </g>
  </g>
  <g transform="translate(190,55)">
    <g class="primitive">
      <text text-anchor="middle" dy="-0.25em">R3-517<tspan x="0" dy="1.2em">0,0,</tspan></text>
    </g>
  </g>
  <g transform="translate(210,45)">
    <g class="primitive">
      <text text-anchor="middle" dy="-0.85em">go<tspan x="0" dy="1.2em">2,441,-1</tspan><tspan x="0" dy="1.2em">0,0,</tspan></text>
    </g>
  </g>
  <g transform="translate(190,45)">
    <g class="primitive">
      <text text-anchor="middle" dy="-0.25em">R2-441<tspan x="0" dy="1.2em">0,0,</tspan></text>
    </g>
  </g>
  <g transform="translate(210,35)">
    <g class="primitive">
      <text text-anchor="middle" dy="-0.85em">go<tspan x="0" dy="1.2em">1,472,-1</tspan><tspan x="0" dy="1.2em">0,0,</tspan></text>
    </g>
  </g>
  <g transform="translate(190,35)">
    <g class="primitive">
      <text text-anchor="middle" dy="-0.25em">R1-472<tspan x="0" dy="1.2em">0,0,</tspan></text>
    </g>
  </g>
  <g transform="translate(130,115)">
    <g class="primitive">
      <text text-anchor="middle" dy="-0.25em">O2-117<tspan x="0" dy="1.2em">14,14,</tspan></text>
    </g>
  </g>
  <g transform="translate(30,115)">
    <g class="primitive">
      <text text-anchor="middle" dy="-0.25em">O1-550<tspan x="0" dy="1.2em">0,0,</tspan></text>
    </g>
  </g>
  <g transform="translate(210,15)">
    <g class="primitive">
      <text text-anchor="middle" dy="-0.25em">op143<tspan x="0" dy="1.2em">31,31,</tspan></text>
    </g>
  </g>
  <g transform="translate(110,115)">
    <g class="primitive">
      <text text-anchor="middle" dy="-0.25em">op142<tspan x="0" dy="1.2em">14,14,</tspan></text>
    </g>
  </g>
</g>
</svg>
