<?xml version="1.0" encoding="UTF-8"?>
<svg xmlns="http://www.w3.org/2000/svg"
     xmlns:xlink="http://www.w3.org/1999/xlink"
     version="1.2"
     width="100mm" height="60mm" viewBox="0 0 100 60"
     stroke="none"
     fill="#000000"
     stroke-width="0.3"
     font-size="3.88"
>
<defs>
  <marker id="arrow" markerWidth="15" markerHeight="7" refX="5" refY="3.5" orient="auto" markerUnits="strokeWidth">
    <path d="M0,0 L15,3.5 L0,7 z" stroke="context-stroke" fill="context-stroke"/>
  </marker>
</defs>
<g stroke="#000000" id="img-026f347c-1">
  <g transform="translate(80,45)">
    <path fill="none" d="M-6.89,3.44 L 6.89 -3.44" class="primitive"/>
  </g>
  <g transform="translate(60,50)">
    <path fill="none" d="M-5.6,0 L 5.6 0" class="primitive"/>
  </g>
  <g transform="translate(40,50)">
    <path fill="none" d="M-5.6,0 L 5.6 0" class="primitive"/>
  </g>
  <g transform="translate(20,52.5)">
    <path fill="none" d="M-6.06,1.52 L 6.06 -1.52" class="primitive"/>
  </g>
  <g transform="translate(80,35)">
    <path fill="none" d="M-6.89,-3.44 L 6.89 3.44" class="primitive"/>
  </g>
  <g transform="translate(60,30)">
    <path fill="none" d="M-5.6,0 L 5.6 0" class="primitive"/>
  </g>
  <g transform="translate(40,30)">
    <path fill="none" d="M-5.6,0 L 5.6 0" class="primitive"/>
  </g>
  <g transform="translate(20,32.5)">
    <path fill="none" d="M-6.06,1.52 L 6.06 -1.52" class="primitive"/>
  </g>
  <g transform="translate(20,27.5)">
    <path fill="none" d="M-6.06,-1.52 L 6.06 1.52" class="primitive"/>
  </g>
  <g transform="translate(20,47.5)">
    <path fill="none" d="M-6.06,-1.52 L 6.06 1.52" class="primitive"/>
  </g>
</g>
<g fill="#00FFFF" id="img-026f347c-2">
  <g transform="translate(70,50)">
    <circle cx="0" cy="0" r="4" class="primitive"/>
  </g>
</g>
<g fill="#00FFFF" id="img-026f347c-3">
  <g transform="translate(50,50)">
    <circle cx="0" cy="0" r="4" class="primitive"/>
  </g>
</g>
<g fill="#00FFFF" id="img-026f347c-4">
  <g transform="translate(30,50)">
    <circle cx="0" cy="0" r="4" class="primitive"/>
  </g>
</g>
<g fill="#00FFFF" id="img-026f347c-5">
  <g transform="translate(10,55)">
    <circle cx="0" cy="0" r="4" class="primitive"/>
  </g>
</g>
<g fill="#00FFFF" id="img-026f347c-6">
  <g transform="translate(70,30)">
    <circle cx="0" cy="0" r="4" class="primitive"/>
  </g>
</g>
<g fill="#00FFFF" id="img-026f347c-7">
  <g transform="translate(50,30)">
    <circle cx="0" cy="0" r="4" class="primitive"/>
  </g>
</g>
<g fill="#00FFFF" id="img-026f347c-8">
  <g transform="translate(30,30)">
    <circle cx="0" cy="0" r="4" class="primitive"/>
  </g>
</g>
<g fill="#00FFFF" id="img-026f347c-9">
  <g transform="translate(10,35)">
    <circle cx="0" cy="0" r="4" class="primitive"/>
  </g>
</g>
<g fill="#FF0000" id="img-026f347c-10">
  <g transform="translate(90,40)">
    <circle cx="0" cy="0" r="4" class="primitive"/>
  </g>
</g>
<g fill="#00FF00" id="img-026f347c-11">
  <g transform="translate(90,15)">
    <circle cx="0" cy="0" r="4" class="primitive"/>
  </g>
</g>
<g fill="#00FF00" id="img-026f347c-12">
  <g transform="translate(90,5)">
    <circle cx="0" cy="0" r="4" class="primitive"/>
  </g>
</g>
<g fill="#FFA500" id="img-026f347c-13">
  <g transform="translate(10,25)">
    <circle cx="0" cy="0" r="4" class="primitive"/>
  </g>
</g>
<g fill="#FFA500" id="img-026f347c-14">
  <g transform="translate(10,45)">
    <circle cx="0" cy="0" r="4" class="primitive"/>
  </g>
</g>
<g font-family="futura" font-size="3.53" stroke="#000000" id="img-026f347c-15">
  <g transform="translate(70,50)">
    <g class="primitive">
      <text text-anchor="middle" dy="-0.25em">deposit<tspan x="0" dy="1.2em">-1,1,8</tspan></text>
    </g>
  </g>
  <g transform="translate(50,50)">
    <g class="primitive">
      <text text-anchor="middle" dy="-0.25em">carry<tspan x="0" dy="1.2em">-1,1,8</tspan></text>
    </g>
  </g>
  <g transform="translate(30,50)">
    <g class="primitive">
      <text text-anchor="middle" dy="-0.25em">collect<tspan x="0" dy="1.2em">-1,1,2</tspan></text>
    </g>
  </g>
  <g transform="translate(10,55)">
    <g class="primitive">
      <text text-anchor="middle" dy="-0.25em">go<tspan x="0" dy="1.2em">-1,-1,2</tspan></text>
    </g>
  </g>
  <g transform="translate(70,30)">
    <g class="primitive">
      <text text-anchor="middle" dy="-0.25em">deposit<tspan x="0" dy="1.2em">-1,2,6</tspan></text>
    </g>
  </g>
  <g transform="translate(50,30)">
    <g class="primitive">
      <text text-anchor="middle" dy="-0.25em">carry<tspan x="0" dy="1.2em">-1,2,6</tspan></text>
    </g>
  </g>
  <g transform="translate(30,30)">
    <g class="primitive">
      <text text-anchor="middle" dy="-0.25em">collect<tspan x="0" dy="1.2em">-1,2,4</tspan></text>
    </g>
  </g>
  <g transform="translate(10,35)">
    <g class="primitive">
      <text text-anchor="middle" dy="-0.25em">go<tspan x="0" dy="1.2em">-1,-1,4</tspan></text>
    </g>
  </g>
  <g transform="translate(90,40)">
    <g class="primitive">
      <text text-anchor="middle" dy="0.35em">op</text>
    </g>
  </g>
  <g transform="translate(90,15)">
    <g class="primitive">
      <text text-anchor="middle" dy="0.35em">R2-4</text>
    </g>
  </g>
  <g transform="translate(90,5)">
    <g class="primitive">
      <text text-anchor="middle" dy="0.35em">R1-2</text>
    </g>
  </g>
  <g transform="translate(10,25)">
    <g class="primitive">
      <text text-anchor="middle" dy="0.35em">O2-4</text>
    </g>
  </g>
  <g transform="translate(10,45)">
    <g class="primitive">
      <text text-anchor="middle" dy="0.35em">O1-2</text>
    </g>
  </g>
</g>
</svg>
