<?xml version="1.0" encoding="UTF-8"?>
<svg xmlns="http://www.w3.org/2000/svg"
     xmlns:xlink="http://www.w3.org/1999/xlink"
     version="1.2"
     width="220mm" height="40mm" viewBox="0 0 220 40"
     stroke="none"
     fill="#000000"
     stroke-width="0.3"
     font-size="3.88"
>
<defs>
  <marker id="arrow" markerWidth="15" markerHeight="7" refX="5" refY="3.5" orient="auto" markerUnits="strokeWidth">
    <path d="M0,0 L15,3.5 L0,7 z" stroke="context-stroke" fill="context-stroke"/>
  </marker>
</defs>
<g stroke="#000000" id="img-8cad5c38-1">
  <g transform="translate(200,20)">
    <path fill="none" d="M-5.6,0 L 5.6 0" class="primitive"/>
  </g>
  <g transform="translate(180,20)">
    <path fill="none" d="M-5.6,0 L 5.6 0" class="primitive"/>
  </g>
  <g transform="translate(160,20)">
    <path fill="none" d="M-5.6,0 L 5.6 0" class="primitive"/>
  </g>
  <g transform="translate(140,25)">
    <path fill="none" d="M-6.89,3.44 L 6.89 -3.44" class="primitive"/>
  </g>
  <g transform="translate(120,30)">
    <path fill="none" d="M-5.6,0 L 5.6 0" class="primitive"/>
  </g>
  <g transform="translate(110,20)">
    <path fill="none" d="M0,7.8 L 0 -7.8" class="primitive"/>
  </g>
  <g transform="translate(100,30)">
    <path fill="none" d="M-5.6,0 L 5.6 0" class="primitive"/>
  </g>
  <g transform="translate(80,30)">
    <path fill="none" d="M-5.6,0 L 5.6 0" class="primitive"/>
  </g>
  <g transform="translate(60,32.5)">
    <path fill="none" d="M-6.06,1.52 L 6.06 -1.52" class="primitive"/>
  </g>
  <g transform="translate(120,10)">
    <path fill="none" d="M-5.6,0 L 5.6 0" class="primitive"/>
  </g>
  <g transform="translate(40,35)">
    <path fill="none" d="M-5.6,0 L 5.6 0" class="primitive"/>
  </g>
  <g transform="translate(140,15)">
    <path fill="none" d="M-6.89,-3.44 L 6.89 3.44" class="primitive"/>
  </g>
  <g transform="translate(60,27.5)">
    <path fill="none" d="M-6.06,-1.52 L 6.06 1.52" class="primitive"/>
  </g>
</g>
<g fill="#00FFFF" id="img-8cad5c38-2">
  <g transform="translate(190,20)">
    <circle cx="0" cy="0" r="4" class="primitive"/>
  </g>
</g>
<g fill="#00FFFF" id="img-8cad5c38-3">
  <g transform="translate(170,20)">
    <circle cx="0" cy="0" r="4" class="primitive"/>
  </g>
</g>
<g fill="#00FFFF" id="img-8cad5c38-4">
  <g transform="translate(150,20)">
    <circle cx="0" cy="0" r="4" class="primitive"/>
  </g>
</g>
<g fill="#00FFFF" id="img-8cad5c38-5">
  <g transform="translate(130,30)">
    <circle cx="0" cy="0" r="4" class="primitive"/>
  </g>
</g>
<g fill="#00FFFF" id="img-8cad5c38-6">
  <g transform="translate(110,30)">
    <circle cx="0" cy="0" r="4" class="primitive"/>
  </g>
</g>
<g fill="#00FFFF" id="img-8cad5c38-7">
  <g transform="translate(90,30)">
    <circle cx="0" cy="0" r="4" class="primitive"/>
  </g>
</g>
<g fill="#00FFFF" id="img-8cad5c38-8">
  <g transform="translate(70,30)">
    <circle cx="0" cy="0" r="4" class="primitive"/>
  </g>
</g>
<g fill="#00FFFF" id="img-8cad5c38-9">
  <g transform="translate(50,35)">
    <circle cx="0" cy="0" r="4" class="primitive"/>
  </g>
</g>
<g fill="#FF0000" id="img-8cad5c38-10">
  <g transform="translate(210,20)">
    <circle cx="0" cy="0" r="4" class="primitive"/>
  </g>
</g>
<g fill="#FF0000" id="img-8cad5c38-11">
  <g transform="translate(110,10)">
    <circle cx="0" cy="0" r="4" class="primitive"/>
  </g>
</g>
<g fill="#00FF00" id="img-8cad5c38-12">
  <g transform="translate(30,35)">
    <circle cx="0" cy="0" r="4" class="primitive"/>
  </g>
</g>
<g fill="#FFA500" id="img-8cad5c38-13">
  <g transform="translate(130,10)">
    <circle cx="0" cy="0" r="4" class="primitive"/>
  </g>
</g>
<g fill="#FFA500" id="img-8cad5c38-14">
  <g transform="translate(50,25)">
    <circle cx="0" cy="0" r="4" class="primitive"/>
  </g>
</g>
<g font-family="futura" font-size="3.53" stroke="#000000" id="img-8cad5c38-15">
  <g transform="translate(190,20)">
    <g class="primitive">
      <text text-anchor="middle" dy="-0.25em">deposit<tspan x="0" dy="1.2em">1,2,4</tspan></text>
    </g>
  </g>
  <g transform="translate(170,20)">
    <g class="primitive">
      <text text-anchor="middle" dy="-0.25em">carry<tspan x="0" dy="1.2em">1,2,4</tspan></text>
    </g>
  </g>
  <g transform="translate(150,20)">
    <g class="primitive">
      <text text-anchor="middle" dy="-0.25em">collect<tspan x="0" dy="1.2em">1,2,2</tspan></text>
    </g>
  </g>
  <g transform="translate(130,30)">
    <g class="primitive">
      <text text-anchor="middle" dy="-0.25em">go<tspan x="0" dy="1.2em">1,3,2</tspan></text>
    </g>
  </g>
  <g transform="translate(110,30)">
    <g class="primitive">
      <text text-anchor="middle" dy="-0.25em">deposit<tspan x="0" dy="1.2em">1,1,3</tspan></text>
    </g>
  </g>
  <g transform="translate(90,30)">
    <g class="primitive">
      <text text-anchor="middle" dy="-0.25em">carry<tspan x="0" dy="1.2em">1,1,3</tspan></text>
    </g>
  </g>
  <g transform="translate(70,30)">
    <g class="primitive">
      <text text-anchor="middle" dy="-0.25em">collect<tspan x="0" dy="1.2em">1,1,1</tspan></text>
    </g>
  </g>
  <g transform="translate(50,35)">
    <g class="primitive">
      <text text-anchor="middle" dy="-0.25em">go<tspan x="0" dy="1.2em">1,1,1</tspan></text>
    </g>
  </g>
  <g transform="translate(210,20)">
    <g class="primitive">
      <text text-anchor="middle" dy="0.35em">op</text>
    </g>
  </g>
  <g transform="translate(110,10)">
    <g class="primitive">
      <text text-anchor="middle" dy="0.35em">op</text>
    </g>
  </g>
  <g transform="translate(30,35)">
    <g class="primitive">
      <text text-anchor="middle" dy="0.35em">R1-1</text>
    </g>
  </g>
  <g transform="translate(130,10)">
    <g class="primitive">
      <text text-anchor="middle" dy="0.35em">O2-2</text>
    </g>
  </g>
  <g transform="translate(50,25)">
    <g class="primitive">
      <text text-anchor="middle" dy="0.35em">O1-1</text>
    </g>
  </g>
</g>
</svg>
