<?xml version="1.0" encoding="UTF-8"?>
<svg xmlns="http://www.w3.org/2000/svg"
     xmlns:xlink="http://www.w3.org/1999/xlink"
     xmlns:gadfly="http://www.gadflyjl.org/ns"
     version="1.2"
     width="120mm" height="290mm" viewBox="0 0 120 290"
     stroke="none"
     fill="#000000"
     stroke-width="0.3"
     font-size="3.88"
>
<defs>
  <marker id="arrow" markerWidth="15" markerHeight="7" refX="5" refY="3.5" orient="auto" markerUnits="strokeWidth">
    <path d="M0,0 L15,3.5 L0,7 z" stroke="context-stroke" fill="context-stroke"/>
  </marker>
</defs>
<g stroke="#000000" id="img-8f35241a-1">
  <g transform="translate(20,245)">
    <path fill="none" d="M-5.6,0 L 5.6 0" class="primitive"/>
  </g>
  <g transform="translate(100,265)">
    <path fill="none" d="M-5.6,0 L 5.6 0" class="primitive"/>
  </g>
  <g transform="translate(100,240)">
    <path fill="none" d="M-9.14,22.84 L 9.14 -22.84" class="primitive"/>
  </g>
  <g transform="translate(100,215)">
    <path fill="none" d="M-9.56,47.81 L 9.56 -47.81" class="primitive"/>
  </g>
  <g transform="translate(100,190)">
    <path fill="none" d="M-9.71,72.8 L 9.71 -72.8" class="primitive"/>
  </g>
  <g transform="translate(100,145)">
    <path fill="none" d="M-9.82,117.8 L 9.82 -117.8" class="primitive"/>
  </g>
  <g transform="translate(80,265)">
    <path fill="none" d="M-5.6,0 L 5.6 0" class="primitive"/>
  </g>
  <g transform="translate(40,275)">
    <path fill="none" d="M-8.03,8.03 L 8.03 -8.03" class="primitive"/>
  </g>
  <g transform="translate(40,270)">
    <path fill="none" d="M-6.89,3.44 L 6.89 -3.44" class="primitive"/>
  </g>
  <g transform="translate(40,265)">
    <path fill="none" d="M-5.6,0 L 5.6 -0" class="primitive"/>
  </g>
  <g transform="translate(40,260)">
    <path fill="none" d="M-6.89,-3.44 L 6.89 3.44" class="primitive"/>
  </g>
  <g transform="translate(60,265)">
    <path fill="none" d="M-5.6,0 L 5.6 0" class="primitive"/>
  </g>
  <g transform="translate(100,85)">
    <path fill="none" d="M-5.6,0 L 5.6 0" class="primitive"/>
  </g>
  <g transform="translate(100,75)">
    <path fill="none" d="M-5.6,0 L 5.6 0" class="primitive"/>
  </g>
  <g transform="translate(100,65)">
    <path fill="none" d="M-5.6,0 L 5.6 0" class="primitive"/>
  </g>
  <g transform="translate(100,55)">
    <path fill="none" d="M-5.6,0 L 5.6 0" class="primitive"/>
  </g>
  <g transform="translate(40,255)">
    <path fill="none" d="M-8.03,-8.03 L 8.03 8.03" class="primitive"/>
  </g>
</g>
<g fill="#FF0000" id="img-8f35241a-2">
  <g transform="translate(10,245)">
    <circle cx="0" cy="0" r="4" class="primitive"/>
  </g>
</g>
<g fill="#00FFFF" id="img-8f35241a-3">
  <g transform="translate(110,265)">
    <circle cx="0" cy="0" r="4" class="primitive"/>
  </g>
</g>
<g fill="#00FFFF" id="img-8f35241a-4">
  <g transform="translate(110,215)">
    <circle cx="0" cy="0" r="4" class="primitive"/>
  </g>
</g>
<g fill="#00FFFF" id="img-8f35241a-5">
  <g transform="translate(110,165)">
    <circle cx="0" cy="0" r="4" class="primitive"/>
  </g>
</g>
<g fill="#00FFFF" id="img-8f35241a-6">
  <g transform="translate(110,115)">
    <circle cx="0" cy="0" r="4" class="primitive"/>
  </g>
</g>
<g fill="#00FFFF" id="img-8f35241a-7">
  <g transform="translate(90,265)">
    <circle cx="0" cy="0" r="4" class="primitive"/>
  </g>
</g>
<g fill="#00FFFF" id="img-8f35241a-8">
  <g transform="translate(70,265)">
    <circle cx="0" cy="0" r="4" class="primitive"/>
  </g>
</g>
<g fill="#00FFFF" id="img-8f35241a-9">
  <g transform="translate(30,285)">
    <circle cx="0" cy="0" r="4" class="primitive"/>
  </g>
</g>
<g fill="#00FFFF" id="img-8f35241a-10">
  <g transform="translate(30,275)">
    <circle cx="0" cy="0" r="4" class="primitive"/>
  </g>
</g>
<g fill="#00FFFF" id="img-8f35241a-11">
  <g transform="translate(30,265)">
    <circle cx="0" cy="0" r="4" class="primitive"/>
  </g>
</g>
<g fill="#00FFFF" id="img-8f35241a-12">
  <g transform="translate(30,255)">
    <circle cx="0" cy="0" r="4" class="primitive"/>
  </g>
</g>
<g fill="#00FFFF" id="img-8f35241a-13">
  <g transform="translate(50,265)">
    <circle cx="0" cy="0" r="4" class="primitive"/>
  </g>
</g>
<g fill="#00FFFF" id="img-8f35241a-14">
  <g transform="translate(110,85)">
    <circle cx="0" cy="0" r="4" class="primitive"/>
  </g>
</g>
<g fill="#00FF00" id="img-8f35241a-15">
  <g transform="translate(90,85)">
    <circle cx="0" cy="0" r="4" class="primitive"/>
  </g>
</g>
<g fill="#00FFFF" id="img-8f35241a-16">
  <g transform="translate(110,75)">
    <circle cx="0" cy="0" r="4" class="primitive"/>
  </g>
</g>
<g fill="#00FF00" id="img-8f35241a-17">
  <g transform="translate(90,75)">
    <circle cx="0" cy="0" r="4" class="primitive"/>
  </g>
</g>
<g fill="#00FFFF" id="img-8f35241a-18">
  <g transform="translate(110,65)">
    <circle cx="0" cy="0" r="4" class="primitive"/>
  </g>
</g>
<g fill="#00FF00" id="img-8f35241a-19">
  <g transform="translate(90,65)">
    <circle cx="0" cy="0" r="4" class="primitive"/>
  </g>
</g>
<g fill="#00FFFF" id="img-8f35241a-20">
  <g transform="translate(110,55)">
    <circle cx="0" cy="0" r="4" class="primitive"/>
  </g>
</g>
<g fill="#00FF00" id="img-8f35241a-21">
  <g transform="translate(90,55)">
    <circle cx="0" cy="0" r="4" class="primitive"/>
  </g>
</g>
<g fill="#FFA500" id="img-8f35241a-22">
  <g transform="translate(30,245)">
    <circle cx="0" cy="0" r="4" class="primitive"/>
  </g>
</g>
<g fill="#FF0000" id="img-8f35241a-23">
  <g transform="translate(110,25)">
    <circle cx="0" cy="0" r="4" class="primitive"/>
  </g>
</g>
<g font-family="futura" font-size="3.53" stroke="#000000" id="img-8f35241a-24">
  <g transform="translate(10,245)">
    <g class="primitive">
      <text text-anchor="middle" dy="-0.25em">op15145<tspan x="0" dy="1.2em">0,0,</tspan></text>
    </g>
  </g>
  <g transform="translate(110,265)">
    <g class="primitive">
      <text text-anchor="middle" dy="-0.85em">go<tspan x="0" dy="1.2em">-1,51,-1</tspan><tspan x="0" dy="1.2em">4,4,</tspan></text>
    </g>
  </g>
  <g transform="translate(110,215)">
    <g class="primitive">
      <text text-anchor="middle" dy="-0.85em">go<tspan x="0" dy="1.2em">-1,43,-1</tspan><tspan x="0" dy="1.2em">4,4,</tspan></text>
    </g>
  </g>
  <g transform="translate(110,165)">
    <g class="primitive">
      <text text-anchor="middle" dy="-0.85em">go<tspan x="0" dy="1.2em">-1,50,-1</tspan><tspan x="0" dy="1.2em">4,4,</tspan></text>
    </g>
  </g>
  <g transform="translate(110,115)">
    <g class="primitive">
      <text text-anchor="middle" dy="-0.85em">go<tspan x="0" dy="1.2em">-1,42,-1</tspan><tspan x="0" dy="1.2em">4,4,</tspan></text>
    </g>
  </g>
  <g transform="translate(90,265)">
    <g class="primitive">
      <text text-anchor="middle" dy="-0.85em">teamDEPOSIT<tspan x="0" dy="1.2em">r: (-1,-1,-1,-1,)</tspan><tspan x="0" dy="1.2em">4,4,</tspan></text>
    </g>
  </g>
  <g transform="translate(70,265)">
    <g class="primitive">
      <text text-anchor="middle" dy="-0.85em">teamCARRY<tspan x="0" dy="1.2em">r: (-1,-1,-1,-1,)</tspan><tspan x="0" dy="1.2em">0,4,</tspan></text>
    </g>
  </g>
  <g transform="translate(30,285)">
    <g class="primitive">
      <text text-anchor="middle" dy="-0.85em">go<tspan x="0" dy="1.2em">-1,19,19</tspan><tspan x="0" dy="1.2em">0,0,</tspan></text>
    </g>
  </g>
  <g transform="translate(30,275)">
    <g class="primitive">
      <text text-anchor="middle" dy="-0.85em">go<tspan x="0" dy="1.2em">-1,11,11</tspan><tspan x="0" dy="1.2em">0,0,</tspan></text>
    </g>
  </g>
  <g transform="translate(30,265)">
    <g class="primitive">
      <text text-anchor="middle" dy="-0.85em">go<tspan x="0" dy="1.2em">-1,18,18</tspan><tspan x="0" dy="1.2em">0,0,</tspan></text>
    </g>
  </g>
  <g transform="translate(30,255)">
    <g class="primitive">
      <text text-anchor="middle" dy="-0.85em">go<tspan x="0" dy="1.2em">-1,10,10</tspan><tspan x="0" dy="1.2em">0,0,</tspan></text>
    </g>
  </g>
  <g transform="translate(50,265)">
    <g class="primitive">
      <text text-anchor="middle" dy="-0.85em">teamCOLLECT<tspan x="0" dy="1.2em">r: (-1,-1,-1,-1,)</tspan><tspan x="0" dy="1.2em">0,0,</tspan></text>
    </g>
  </g>
  <g transform="translate(110,85)">
    <g class="primitive">
      <text text-anchor="middle" dy="-0.85em">go<tspan x="0" dy="1.2em">4,29,-1</tspan><tspan x="0" dy="1.2em">0,0,</tspan></text>
    </g>
  </g>
  <g transform="translate(90,85)">
    <g class="primitive">
      <text text-anchor="middle" dy="-0.25em">R4-29<tspan x="0" dy="1.2em">0,0,</tspan></text>
    </g>
  </g>
  <g transform="translate(110,75)">
    <g class="primitive">
      <text text-anchor="middle" dy="-0.85em">go<tspan x="0" dy="1.2em">3,4,-1</tspan><tspan x="0" dy="1.2em">0,0,</tspan></text>
    </g>
  </g>
  <g transform="translate(90,75)">
    <g class="primitive">
      <text text-anchor="middle" dy="-0.25em">R3-4<tspan x="0" dy="1.2em">0,0,</tspan></text>
    </g>
  </g>
  <g transform="translate(110,65)">
    <g class="primitive">
      <text text-anchor="middle" dy="-0.85em">go<tspan x="0" dy="1.2em">2,25,-1</tspan><tspan x="0" dy="1.2em">0,0,</tspan></text>
    </g>
  </g>
  <g transform="translate(90,65)">
    <g class="primitive">
      <text text-anchor="middle" dy="-0.25em">R2-25<tspan x="0" dy="1.2em">0,0,</tspan></text>
    </g>
  </g>
  <g transform="translate(110,55)">
    <g class="primitive">
      <text text-anchor="middle" dy="-0.85em">go<tspan x="0" dy="1.2em">1,1,-1</tspan><tspan x="0" dy="1.2em">0,0,</tspan></text>
    </g>
  </g>
  <g transform="translate(90,55)">
    <g class="primitive">
      <text text-anchor="middle" dy="-0.25em">R1-1<tspan x="0" dy="1.2em">0,0,</tspan></text>
    </g>
  </g>
  <g transform="translate(30,245)">
    <g class="primitive">
      <text text-anchor="middle" dy="-0.25em">O1-10<tspan x="0" dy="1.2em">0,0,</tspan></text>
    </g>
  </g>
  <g transform="translate(110,25)">
    <g class="primitive">
      <text text-anchor="middle" dy="-0.25em">op15142<tspan x="0" dy="1.2em">4,4,</tspan></text>
    </g>
  </g>
</g>
</svg>
