<?xml version="1.0" encoding="UTF-8"?>
<svg xmlns="http://www.w3.org/2000/svg"
     xmlns:xlink="http://www.w3.org/1999/xlink"
     version="1.2"
     width="220mm" height="140mm" viewBox="0 0 220 140"
     stroke="none"
     fill="#000000"
     stroke-width="0.3"
     font-size="3.88"
>
<defs>
  <marker id="arrow" markerWidth="15" markerHeight="7" refX="5" refY="3.5" orient="auto" markerUnits="strokeWidth">
    <path d="M0,0 L15,3.5 L0,7 z" stroke="context-stroke" fill="context-stroke"/>
  </marker>
</defs>
<g stroke="#000000" id="img-f9ce06c7-1">
  <g transform="translate(200,115)">
    <path fill="none" d="M-5.6,0 L 5.6 0" class="primitive"/>
  </g>
  <g transform="translate(200,75)">
    <path fill="none" d="M-9.45,37.82 L 9.45 -37.82" class="primitive"/>
  </g>
  <g transform="translate(180,115)">
    <path fill="none" d="M-5.6,0 L 5.6 0" class="primitive"/>
  </g>
  <g transform="translate(160,115)">
    <path fill="none" d="M-5.6,0 L 5.6 0" class="primitive"/>
  </g>
  <g transform="translate(140,122.5)">
    <path fill="none" d="M-7.56,5.67 L 7.56 -5.67" class="primitive"/>
  </g>
  <g transform="translate(120,130)">
    <path fill="none" d="M-5.6,0 L 5.6 0" class="primitive"/>
  </g>
  <g transform="translate(110,115)">
    <path fill="none" d="M0,12.8 L 0 -12.8" class="primitive"/>
  </g>
  <g transform="translate(100,130)">
    <path fill="none" d="M-5.6,0 L 5.6 0" class="primitive"/>
  </g>
  <g transform="translate(80,130)">
    <path fill="none" d="M-5.6,0 L 5.6 0" class="primitive"/>
  </g>
  <g transform="translate(150,80)">
    <path fill="none" d="M-55.83,9.3 L 55.83 -9.3" class="primitive"/>
  </g>
  <g transform="translate(100,95)">
    <path fill="none" d="M-6.89,-3.44 L 6.89 3.44" class="primitive"/>
  </g>
  <g transform="translate(80,90)">
    <path fill="none" d="M-5.6,0 L 5.6 0" class="primitive"/>
  </g>
  <g transform="translate(60,90)">
    <path fill="none" d="M-5.6,0 L 5.6 0" class="primitive"/>
  </g>
  <g transform="translate(40,92.5)">
    <path fill="none" d="M-6.06,1.52 L 6.06 -1.52" class="primitive"/>
  </g>
  <g transform="translate(20,95)">
    <path fill="none" d="M-5.6,0 L 5.6 0" class="primitive"/>
  </g>
  <g transform="translate(60,132.5)">
    <path fill="none" d="M-6.06,1.52 L 6.06 -1.52" class="primitive"/>
  </g>
  <g transform="translate(40,135)">
    <path fill="none" d="M-5.6,0 L 5.6 0" class="primitive"/>
  </g>
  <g transform="translate(140,107.5)">
    <path fill="none" d="M-7.56,-5.67 L 7.56 5.67" class="primitive"/>
  </g>
  <g transform="translate(40,87.5)">
    <path fill="none" d="M-6.06,-1.52 L 6.06 1.52" class="primitive"/>
  </g>
  <g transform="translate(60,127.5)">
    <path fill="none" d="M-6.06,-1.52 L 6.06 1.52" class="primitive"/>
  </g>
  <g transform="translate(120,100)">
    <path fill="none" d="M-5.6,0 L 5.6 0" class="primitive"/>
  </g>
</g>
<g fill="#00FFFF" id="img-f9ce06c7-2">
  <g transform="translate(210,115)">
    <circle cx="0" cy="0" r="4" class="primitive"/>
  </g>
</g>
<g fill="#00FFFF" id="img-f9ce06c7-3">
  <g transform="translate(190,115)">
    <circle cx="0" cy="0" r="4" class="primitive"/>
  </g>
</g>
<g fill="#00FFFF" id="img-f9ce06c7-4">
  <g transform="translate(170,115)">
    <circle cx="0" cy="0" r="4" class="primitive"/>
  </g>
</g>
<g fill="#00FFFF" id="img-f9ce06c7-5">
  <g transform="translate(150,115)">
    <circle cx="0" cy="0" r="4" class="primitive"/>
  </g>
</g>
<g fill="#00FFFF" id="img-f9ce06c7-6">
  <g transform="translate(130,130)">
    <circle cx="0" cy="0" r="4" class="primitive"/>
  </g>
</g>
<g fill="#00FFFF" id="img-f9ce06c7-7">
  <g transform="translate(110,130)">
    <circle cx="0" cy="0" r="4" class="primitive"/>
  </g>
</g>
<g fill="#00FFFF" id="img-f9ce06c7-8">
  <g transform="translate(90,130)">
    <circle cx="0" cy="0" r="4" class="primitive"/>
  </g>
</g>
<g fill="#00FFFF" id="img-f9ce06c7-9">
  <g transform="translate(70,130)">
    <circle cx="0" cy="0" r="4" class="primitive"/>
  </g>
</g>
<g fill="#00FFFF" id="img-f9ce06c7-10">
  <g transform="translate(210,70)">
    <circle cx="0" cy="0" r="4" class="primitive"/>
  </g>
</g>
<g fill="#00FFFF" id="img-f9ce06c7-11">
  <g transform="translate(90,90)">
    <circle cx="0" cy="0" r="4" class="primitive"/>
  </g>
</g>
<g fill="#00FFFF" id="img-f9ce06c7-12">
  <g transform="translate(70,90)">
    <circle cx="0" cy="0" r="4" class="primitive"/>
  </g>
</g>
<g fill="#00FFFF" id="img-f9ce06c7-13">
  <g transform="translate(50,90)">
    <circle cx="0" cy="0" r="4" class="primitive"/>
  </g>
</g>
<g fill="#00FFFF" id="img-f9ce06c7-14">
  <g transform="translate(30,95)">
    <circle cx="0" cy="0" r="4" class="primitive"/>
  </g>
</g>
<g fill="#00FF00" id="img-f9ce06c7-15">
  <g transform="translate(10,95)">
    <circle cx="0" cy="0" r="4" class="primitive"/>
  </g>
</g>
<g fill="#00FFFF" id="img-f9ce06c7-16">
  <g transform="translate(50,135)">
    <circle cx="0" cy="0" r="4" class="primitive"/>
  </g>
</g>
<g fill="#00FF00" id="img-f9ce06c7-17">
  <g transform="translate(30,135)">
    <circle cx="0" cy="0" r="4" class="primitive"/>
  </g>
</g>
<g fill="#FFA500" id="img-f9ce06c7-18">
  <g transform="translate(130,100)">
    <circle cx="0" cy="0" r="4" class="primitive"/>
  </g>
</g>
<g fill="#FFA500" id="img-f9ce06c7-19">
  <g transform="translate(30,85)">
    <circle cx="0" cy="0" r="4" class="primitive"/>
  </g>
</g>
<g fill="#FFA500" id="img-f9ce06c7-20">
  <g transform="translate(50,125)">
    <circle cx="0" cy="0" r="4" class="primitive"/>
  </g>
</g>
<g fill="#FF0000" id="img-f9ce06c7-21">
  <g transform="translate(210,35)">
    <circle cx="0" cy="0" r="4" class="primitive"/>
  </g>
</g>
<g fill="#FF0000" id="img-f9ce06c7-22">
  <g transform="translate(110,100)">
    <circle cx="0" cy="0" r="4" class="primitive"/>
  </g>
</g>
<g font-family="futura" font-size="3.53" stroke="#000000" id="img-f9ce06c7-23">
  <g transform="translate(210,115)">
    <g class="primitive">
      <text text-anchor="middle" dy="-0.85em">go<tspan x="0" dy="1.2em">1,16,-1</tspan><tspan x="0" dy="1.2em">10,10,</tspan></text>
    </g>
  </g>
  <g transform="translate(190,115)">
    <g class="primitive">
      <text text-anchor="middle" dy="-0.85em">deposit<tspan x="0" dy="1.2em">1,3,16</tspan><tspan x="0" dy="1.2em">10,10,</tspan></text>
    </g>
  </g>
  <g transform="translate(170,115)">
    <g class="primitive">
      <text text-anchor="middle" dy="-0.85em">carry<tspan x="0" dy="1.2em">1,3,16</tspan><tspan x="0" dy="1.2em">9,10,</tspan></text>
    </g>
  </g>
  <g transform="translate(150,115)">
    <g class="primitive">
      <text text-anchor="middle" dy="-0.85em">collect<tspan x="0" dy="1.2em">1,3,12</tspan><tspan x="0" dy="1.2em">9,9,</tspan></text>
    </g>
  </g>
  <g transform="translate(130,130)">
    <g class="primitive">
      <text text-anchor="middle" dy="-0.85em">go<tspan x="0" dy="1.2em">1,8,12</tspan><tspan x="0" dy="1.2em">3,4,</tspan></text>
    </g>
  </g>
  <g transform="translate(110,130)">
    <g class="primitive">
      <text text-anchor="middle" dy="-0.85em">deposit<tspan x="0" dy="1.2em">1,1,8</tspan><tspan x="0" dy="1.2em">3,3,</tspan></text>
    </g>
  </g>
  <g transform="translate(90,130)">
    <g class="primitive">
      <text text-anchor="middle" dy="-0.85em">carry<tspan x="0" dy="1.2em">1,1,8</tspan><tspan x="0" dy="1.2em">2,3,</tspan></text>
    </g>
  </g>
  <g transform="translate(70,130)">
    <g class="primitive">
      <text text-anchor="middle" dy="-0.85em">collect<tspan x="0" dy="1.2em">1,1,7</tspan><tspan x="0" dy="1.2em">2,2,</tspan></text>
    </g>
  </g>
  <g transform="translate(210,70)">
    <g class="primitive">
      <text text-anchor="middle" dy="-0.85em">go<tspan x="0" dy="1.2em">2,32,-1</tspan><tspan x="0" dy="1.2em">9,9,</tspan></text>
    </g>
  </g>
  <g transform="translate(90,90)">
    <g class="primitive">
      <text text-anchor="middle" dy="-0.85em">deposit<tspan x="0" dy="1.2em">2,2,32</tspan><tspan x="0" dy="1.2em">9,9,</tspan></text>
    </g>
  </g>
  <g transform="translate(70,90)">
    <g class="primitive">
      <text text-anchor="middle" dy="-0.85em">carry<tspan x="0" dy="1.2em">2,2,32</tspan><tspan x="0" dy="1.2em">7,9,</tspan></text>
    </g>
  </g>
  <g transform="translate(50,90)">
    <g class="primitive">
      <text text-anchor="middle" dy="-0.85em">collect<tspan x="0" dy="1.2em">2,2,30</tspan><tspan x="0" dy="1.2em">7,7,</tspan></text>
    </g>
  </g>
  <g transform="translate(30,95)">
    <g class="primitive">
      <text text-anchor="middle" dy="-0.85em">go<tspan x="0" dy="1.2em">2,2,30</tspan><tspan x="0" dy="1.2em">0,7,</tspan></text>
    </g>
  </g>
  <g transform="translate(10,95)">
    <g class="primitive">
      <text text-anchor="middle" dy="-0.25em">R2-2<tspan x="0" dy="1.2em">0,0,</tspan></text>
    </g>
  </g>
  <g transform="translate(50,135)">
    <g class="primitive">
      <text text-anchor="middle" dy="-0.85em">go<tspan x="0" dy="1.2em">1,5,7</tspan><tspan x="0" dy="1.2em">0,2,</tspan></text>
    </g>
  </g>
  <g transform="translate(30,135)">
    <g class="primitive">
      <text text-anchor="middle" dy="-0.25em">R1-5<tspan x="0" dy="1.2em">0,0,</tspan></text>
    </g>
  </g>
  <g transform="translate(130,100)">
    <g class="primitive">
      <text text-anchor="middle" dy="-0.25em">O3-12<tspan x="0" dy="1.2em">9,9,</tspan></text>
    </g>
  </g>
  <g transform="translate(30,85)">
    <g class="primitive">
      <text text-anchor="middle" dy="-0.25em">O2-30<tspan x="0" dy="1.2em">0,0,</tspan></text>
    </g>
  </g>
  <g transform="translate(50,125)">
    <g class="primitive">
      <text text-anchor="middle" dy="-0.25em">O1-7<tspan x="0" dy="1.2em">0,0,</tspan></text>
    </g>
  </g>
  <g transform="translate(210,35)">
    <g class="primitive">
      <text text-anchor="middle" dy="-0.25em">op<tspan x="0" dy="1.2em">10,10,</tspan></text>
    </g>
  </g>
  <g transform="translate(110,100)">
    <g class="primitive">
      <text text-anchor="middle" dy="-0.25em">op<tspan x="0" dy="1.2em">9,9,</tspan></text>
    </g>
  </g>
</g>
</svg>
