<?xml version="1.0" encoding="UTF-8"?>
<svg xmlns="http://www.w3.org/2000/svg"
     xmlns:xlink="http://www.w3.org/1999/xlink"
     version="1.2"
     width="220mm" height="60mm" viewBox="0 0 220 60"
     stroke="none"
     fill="#000000"
     stroke-width="0.3"
     font-size="3.88"
>
<defs>
  <marker id="arrow" markerWidth="15" markerHeight="7" refX="5" refY="3.5" orient="auto" markerUnits="strokeWidth">
    <path d="M0,0 L15,3.5 L0,7 z" stroke="context-stroke" fill="context-stroke"/>
  </marker>
</defs>
<g stroke="#000000" id="img-2ffc4d75-1">
  <g transform="translate(200,35)">
    <path fill="none" d="M-5.6,0 L 5.6 0" class="primitive"/>
  </g>
  <g transform="translate(180,35)">
    <path fill="none" d="M-5.6,0 L 5.6 0" class="primitive"/>
  </g>
  <g transform="translate(160,35)">
    <path fill="none" d="M-5.6,0 L 5.6 0" class="primitive"/>
  </g>
  <g transform="translate(140,42.5)">
    <path fill="none" d="M-7.56,5.67 L 7.56 -5.67" class="primitive"/>
  </g>
  <g transform="translate(120,50)">
    <path fill="none" d="M-5.6,0 L 5.6 0" class="primitive"/>
  </g>
  <g transform="translate(110,35)">
    <path fill="none" d="M0,12.8 L 0 -12.8" class="primitive"/>
  </g>
  <g transform="translate(100,50)">
    <path fill="none" d="M-5.6,0 L 5.6 0" class="primitive"/>
  </g>
  <g transform="translate(80,50)">
    <path fill="none" d="M-5.6,0 L 5.6 0" class="primitive"/>
  </g>
  <g transform="translate(60,52.5)">
    <path fill="none" d="M-6.06,1.52 L 6.06 -1.52" class="primitive"/>
  </g>
  <g transform="translate(100,15)">
    <path fill="none" d="M-6.89,-3.44 L 6.89 3.44" class="primitive"/>
  </g>
  <g transform="translate(80,10)">
    <path fill="none" d="M-5.6,0 L 5.6 0" class="primitive"/>
  </g>
  <g transform="translate(60,10)">
    <path fill="none" d="M-5.6,0 L 5.6 0" class="primitive"/>
  </g>
  <g transform="translate(40,12.5)">
    <path fill="none" d="M-6.06,1.52 L 6.06 -1.52" class="primitive"/>
  </g>
  <g transform="translate(120,20)">
    <path fill="none" d="M-5.6,0 L 5.6 0" class="primitive"/>
  </g>
  <g transform="translate(20,15)">
    <path fill="none" d="M-5.6,0 L 5.6 0" class="primitive"/>
  </g>
  <g transform="translate(40,55)">
    <path fill="none" d="M-5.6,0 L 5.6 0" class="primitive"/>
  </g>
  <g transform="translate(140,27.5)">
    <path fill="none" d="M-7.56,-5.67 L 7.56 5.67" class="primitive"/>
  </g>
  <g transform="translate(40,7.5)">
    <path fill="none" d="M-6.06,-1.52 L 6.06 1.52" class="primitive"/>
  </g>
  <g transform="translate(60,47.5)">
    <path fill="none" d="M-6.06,-1.52 L 6.06 1.52" class="primitive"/>
  </g>
</g>
<g fill="#00FFFF" id="img-2ffc4d75-2">
  <g transform="translate(190,35)">
    <circle cx="0" cy="0" r="4" class="primitive"/>
  </g>
</g>
<g fill="#00FFFF" id="img-2ffc4d75-3">
  <g transform="translate(170,35)">
    <circle cx="0" cy="0" r="4" class="primitive"/>
  </g>
</g>
<g fill="#00FFFF" id="img-2ffc4d75-4">
  <g transform="translate(150,35)">
    <circle cx="0" cy="0" r="4" class="primitive"/>
  </g>
</g>
<g fill="#00FFFF" id="img-2ffc4d75-5">
  <g transform="translate(130,50)">
    <circle cx="0" cy="0" r="4" class="primitive"/>
  </g>
</g>
<g fill="#00FFFF" id="img-2ffc4d75-6">
  <g transform="translate(110,50)">
    <circle cx="0" cy="0" r="4" class="primitive"/>
  </g>
</g>
<g fill="#00FFFF" id="img-2ffc4d75-7">
  <g transform="translate(90,50)">
    <circle cx="0" cy="0" r="4" class="primitive"/>
  </g>
</g>
<g fill="#00FFFF" id="img-2ffc4d75-8">
  <g transform="translate(70,50)">
    <circle cx="0" cy="0" r="4" class="primitive"/>
  </g>
</g>
<g fill="#00FFFF" id="img-2ffc4d75-9">
  <g transform="translate(50,55)">
    <circle cx="0" cy="0" r="4" class="primitive"/>
  </g>
</g>
<g fill="#00FFFF" id="img-2ffc4d75-10">
  <g transform="translate(90,10)">
    <circle cx="0" cy="0" r="4" class="primitive"/>
  </g>
</g>
<g fill="#00FFFF" id="img-2ffc4d75-11">
  <g transform="translate(70,10)">
    <circle cx="0" cy="0" r="4" class="primitive"/>
  </g>
</g>
<g fill="#00FFFF" id="img-2ffc4d75-12">
  <g transform="translate(50,10)">
    <circle cx="0" cy="0" r="4" class="primitive"/>
  </g>
</g>
<g fill="#00FFFF" id="img-2ffc4d75-13">
  <g transform="translate(30,15)">
    <circle cx="0" cy="0" r="4" class="primitive"/>
  </g>
</g>
<g fill="#FF0000" id="img-2ffc4d75-14">
  <g transform="translate(210,35)">
    <circle cx="0" cy="0" r="4" class="primitive"/>
  </g>
</g>
<g fill="#FF0000" id="img-2ffc4d75-15">
  <g transform="translate(110,20)">
    <circle cx="0" cy="0" r="4" class="primitive"/>
  </g>
</g>
<g fill="#00FF00" id="img-2ffc4d75-16">
  <g transform="translate(10,15)">
    <circle cx="0" cy="0" r="4" class="primitive"/>
  </g>
</g>
<g fill="#00FF00" id="img-2ffc4d75-17">
  <g transform="translate(30,55)">
    <circle cx="0" cy="0" r="4" class="primitive"/>
  </g>
</g>
<g fill="#FFA500" id="img-2ffc4d75-18">
  <g transform="translate(130,20)">
    <circle cx="0" cy="0" r="4" class="primitive"/>
  </g>
</g>
<g fill="#FFA500" id="img-2ffc4d75-19">
  <g transform="translate(30,5)">
    <circle cx="0" cy="0" r="4" class="primitive"/>
  </g>
</g>
<g fill="#FFA500" id="img-2ffc4d75-20">
  <g transform="translate(50,45)">
    <circle cx="0" cy="0" r="4" class="primitive"/>
  </g>
</g>
<g font-family="futura" font-size="3.53" stroke="#000000" id="img-2ffc4d75-21">
  <g transform="translate(190,35)">
    <g class="primitive">
      <text text-anchor="middle" dy="-0.85em">deposit<tspan x="0" dy="1.2em">1,3,17</tspan><tspan x="0" dy="1.2em">9,9,-9,9</tspan></text>
    </g>
  </g>
  <g transform="translate(170,35)">
    <g class="primitive">
      <text text-anchor="middle" dy="-0.85em">carry<tspan x="0" dy="1.2em">1,3,17</tspan><tspan x="0" dy="1.2em">8,9,-8,9</tspan></text>
    </g>
  </g>
  <g transform="translate(150,35)">
    <g class="primitive">
      <text text-anchor="middle" dy="-0.85em">collect<tspan x="0" dy="1.2em">1,3,13</tspan><tspan x="0" dy="1.2em">8,8,-8,8</tspan></text>
    </g>
  </g>
  <g transform="translate(130,50)">
    <g class="primitive">
      <text text-anchor="middle" dy="-0.85em">go<tspan x="0" dy="1.2em">1,9,13</tspan><tspan x="0" dy="1.2em">2,3,-2,8</tspan></text>
    </g>
  </g>
  <g transform="translate(110,50)">
    <g class="primitive">
      <text text-anchor="middle" dy="-0.85em">deposit<tspan x="0" dy="1.2em">1,1,9</tspan><tspan x="0" dy="1.2em">2,2,-2,2</tspan></text>
    </g>
  </g>
  <g transform="translate(90,50)">
    <g class="primitive">
      <text text-anchor="middle" dy="-0.85em">carry<tspan x="0" dy="1.2em">1,1,9</tspan><tspan x="0" dy="1.2em">1,2,-1,2</tspan></text>
    </g>
  </g>
  <g transform="translate(70,50)">
    <g class="primitive">
      <text text-anchor="middle" dy="-0.85em">collect<tspan x="0" dy="1.2em">1,1,5</tspan><tspan x="0" dy="1.2em">1,1,-1,1</tspan></text>
    </g>
  </g>
  <g transform="translate(50,55)">
    <g class="primitive">
      <text text-anchor="middle" dy="-0.85em">go<tspan x="0" dy="1.2em">1,1,5</tspan><tspan x="0" dy="1.2em">0,1,-0,1</tspan></text>
    </g>
  </g>
  <g transform="translate(90,10)">
    <g class="primitive">
      <text text-anchor="middle" dy="-0.85em">deposit<tspan x="0" dy="1.2em">2,2,32</tspan><tspan x="0" dy="1.2em">7,7,-7,7</tspan></text>
    </g>
  </g>
  <g transform="translate(70,10)">
    <g class="primitive">
      <text text-anchor="middle" dy="-0.85em">carry<tspan x="0" dy="1.2em">2,2,32</tspan><tspan x="0" dy="1.2em">2,7,-2,7</tspan></text>
    </g>
  </g>
  <g transform="translate(50,10)">
    <g class="primitive">
      <text text-anchor="middle" dy="-0.85em">collect<tspan x="0" dy="1.2em">2,2,12</tspan><tspan x="0" dy="1.2em">2,2,-2,2</tspan></text>
    </g>
  </g>
  <g transform="translate(30,15)">
    <g class="primitive">
      <text text-anchor="middle" dy="-0.85em">go<tspan x="0" dy="1.2em">2,4,12</tspan><tspan x="0" dy="1.2em">0,2,-0,2</tspan></text>
    </g>
  </g>
  <g transform="translate(210,35)">
    <g class="primitive">
      <text text-anchor="middle" dy="-0.25em">op<tspan x="0" dy="1.2em">9,10,-9,10</tspan></text>
    </g>
  </g>
  <g transform="translate(110,20)">
    <g class="primitive">
      <text text-anchor="middle" dy="-0.25em">op<tspan x="0" dy="1.2em">7,8,-7,8</tspan></text>
    </g>
  </g>
  <g transform="translate(10,15)">
    <g class="primitive">
      <text text-anchor="middle" dy="-0.25em">R2-4<tspan x="0" dy="1.2em">0,0,-0,0</tspan></text>
    </g>
  </g>
  <g transform="translate(30,55)">
    <g class="primitive">
      <text text-anchor="middle" dy="-0.25em">R1-1<tspan x="0" dy="1.2em">0,0,-0,0</tspan></text>
    </g>
  </g>
  <g transform="translate(130,20)">
    <g class="primitive">
      <text text-anchor="middle" dy="-0.25em">O3-13<tspan x="0" dy="1.2em">8,8,-8,8</tspan></text>
    </g>
  </g>
  <g transform="translate(30,5)">
    <g class="primitive">
      <text text-anchor="middle" dy="-0.25em">O2-12<tspan x="0" dy="1.2em">0,0,-0,0</tspan></text>
    </g>
  </g>
  <g transform="translate(50,45)">
    <g class="primitive">
      <text text-anchor="middle" dy="-0.25em">O1-5<tspan x="0" dy="1.2em">0,0,-0,0</tspan></text>
    </g>
  </g>
</g>
</svg>
