<?xml version="1.0" encoding="UTF-8"?>
<svg xmlns="http://www.w3.org/2000/svg"
     xmlns:xlink="http://www.w3.org/1999/xlink"
     version="1.2"
     width="600mm" height="260mm" viewBox="0 0 600 260"
     stroke="none"
     fill="#000000"
     stroke-width="0.3"
     font-size="3.88"
>
<defs>
  <marker id="arrow" markerWidth="15" markerHeight="7" refX="5" refY="3.5" orient="auto" markerUnits="strokeWidth">
    <path d="M0,0 L15,3.5 L0,7 z" stroke="context-stroke" fill="context-stroke"/>
  </marker>
</defs>
<g stroke="#000000" id="img-3f835ec9-1">
  <g transform="translate(580,182.88)">
    <path fill="none" d="M-5.6,0 L 5.6 0" class="primitive"/>
  </g>
  <g transform="translate(560,182.88)">
    <path fill="none" d="M-5.6,0 L 5.6 0" class="primitive"/>
  </g>
  <g transform="translate(540,182.88)">
    <path fill="none" d="M-5.6,0 L 5.6 0" class="primitive"/>
  </g>
  <g transform="translate(520,218.94)">
    <path fill="none" d="M-9.4,33.88 L 9.4 -33.88" class="primitive"/>
  </g>
  <g transform="translate(300,222.5)">
    <path fill="none" d="M-5.6,0 L 5.6 0" class="primitive"/>
  </g>
  <g transform="translate(240,195)">
    <path fill="none" d="M47.04,25.87 L -47.04 -25.87" class="primitive"/>
  </g>
  <g transform="translate(280,222.5)">
    <path fill="none" d="M-5.6,0 L 5.6 0" class="primitive"/>
  </g>
  <g transform="translate(260,222.5)">
    <path fill="none" d="M-5.6,0 L 5.6 0" class="primitive"/>
  </g>
  <g transform="translate(240,226.25)">
    <path fill="none" d="M-6.48,2.43 L 6.48 -2.43" class="primitive"/>
  </g>
  <g transform="translate(190,127.5)">
    <path fill="none" d="M-18.37,22.96 L 18.37 -22.96" class="primitive"/>
  </g>
  <g transform="translate(180,160)">
    <path fill="none" d="M-7.56,-5.67 L 7.56 5.67" class="primitive"/>
  </g>
  <g transform="translate(160,152.5)">
    <path fill="none" d="M-5.6,0 L 5.6 0" class="primitive"/>
  </g>
  <g transform="translate(140,152.5)">
    <path fill="none" d="M-5.6,0 L 5.6 0" class="primitive"/>
  </g>
  <g transform="translate(120,156.25)">
    <path fill="none" d="M-6.48,2.43 L 6.48 -2.43" class="primitive"/>
  </g>
  <g transform="translate(280,161.46)">
    <path fill="none" d="M-9.13,22.64 L 9.13 -22.64" class="primitive"/>
  </g>
  <g transform="translate(260,186.25)">
    <path fill="none" d="M-5.6,0 L 5.6 0" class="primitive"/>
  </g>
  <g transform="translate(240,186.25)">
    <path fill="none" d="M-5.6,0 L 5.6 0" class="primitive"/>
  </g>
  <g transform="translate(220,195.62)">
    <path fill="none" d="M-7.93,7.43 L 7.93 -7.43" class="primitive"/>
  </g>
  <g transform="translate(220,230)">
    <path fill="none" d="M-5.6,0 L 5.6 0" class="primitive"/>
  </g>
  <g transform="translate(250,183.33)">
    <path fill="none" d="M-38.27,44.64 L 38.27 -44.64" class="primitive"/>
  </g>
  <g transform="translate(200,230)">
    <path fill="none" d="M-5.6,0 L 5.6 0" class="primitive"/>
  </g>
  <g transform="translate(180,230)">
    <path fill="none" d="M-5.6,0 L 5.6 0" class="primitive"/>
  </g>
  <g transform="translate(160,232.5)">
    <path fill="none" d="M-6.06,1.52 L 6.06 -1.52" class="primitive"/>
  </g>
  <g transform="translate(280,115.21)">
    <path fill="none" d="M-9,-19.32 L 9 19.32" class="primitive"/>
  </g>
  <g transform="translate(260,93.75)">
    <path fill="none" d="M-5.6,0 L 5.6 0" class="primitive"/>
  </g>
  <g transform="translate(240,93.75)">
    <path fill="none" d="M-5.6,0 L 5.6 0" class="primitive"/>
  </g>
  <g transform="translate(220,98.12)">
    <path fill="none" d="M-6.69,2.93 L 6.69 -2.93" class="primitive"/>
  </g>
  <g transform="translate(380,179.58)">
    <path fill="none" d="M-5.6,0 L 5.6 0" class="primitive"/>
  </g>
  <g transform="translate(360,179.58)">
    <path fill="none" d="M-5.6,0 L 5.6 0" class="primitive"/>
  </g>
  <g transform="translate(340,179.58)">
    <path fill="none" d="M-5.6,0 L 5.6 0" class="primitive"/>
  </g>
  <g transform="translate(320,201.04)">
    <path fill="none" d="M-9,19.32 L 9 -19.32" class="primitive"/>
  </g>
  <g transform="translate(480,161.53)">
    <path fill="none" d="M-9.57,48.57 L 9.57 -48.57" class="primitive"/>
  </g>
  <g transform="translate(460,212.29)">
    <path fill="none" d="M-5.6,0 L 5.6 0" class="primitive"/>
  </g>
  <g transform="translate(440,212.29)">
    <path fill="none" d="M-5.6,0 L 5.6 0" class="primitive"/>
  </g>
  <g transform="translate(420,228.65)">
    <path fill="none" d="M-8.71,14.25 L 8.71 -14.25" class="primitive"/>
  </g>
  <g transform="translate(480,90.38)">
    <path fill="none" d="M-8.95,-18.25 L 8.95 18.25" class="primitive"/>
  </g>
  <g transform="translate(460,70)">
    <path fill="none" d="M-5.6,0 L 5.6 0" class="primitive"/>
  </g>
  <g transform="translate(440,70)">
    <path fill="none" d="M-5.6,0 L 5.6 0" class="primitive"/>
  </g>
  <g transform="translate(420,72.5)">
    <path fill="none" d="M-6.06,1.52 L 6.06 -1.52" class="primitive"/>
  </g>
  <g transform="translate(100,160)">
    <path fill="none" d="M-5.6,0 L 5.6 0" class="primitive"/>
  </g>
  <g transform="translate(290,135.38)">
    <path fill="none" d="M-195.73,24.09 L 195.73 -24.09" class="primitive"/>
  </g>
  <g transform="translate(80,160)">
    <path fill="none" d="M-5.6,0 L 5.6 0" class="primitive"/>
  </g>
  <g transform="translate(60,160)">
    <path fill="none" d="M-5.6,0 L 5.6 0" class="primitive"/>
  </g>
  <g transform="translate(40,162.5)">
    <path fill="none" d="M-6.06,1.52 L 6.06 -1.52" class="primitive"/>
  </g>
  <g transform="translate(200,167.5)">
    <path fill="none" d="M-5.6,0 L 5.6 0" class="primitive"/>
  </g>
  <g transform="translate(300,136.67)">
    <path fill="none" d="M-5.6,0 L 5.6 0" class="primitive"/>
  </g>
  <g transform="translate(400,179.58)">
    <path fill="none" d="M-5.6,0 L 5.6 0" class="primitive"/>
  </g>
  <g transform="translate(500,110.76)">
    <path fill="none" d="M-5.6,0 L 5.6 0" class="primitive"/>
  </g>
  <g transform="translate(500,255)">
    <path fill="none" d="M-5.6,0 L 5.6 0" class="primitive"/>
  </g>
  <g transform="translate(20,165)">
    <path fill="none" d="M-5.6,0 L 5.6 0" class="primitive"/>
  </g>
  <g transform="translate(200,205)">
    <path fill="none" d="M-5.6,0 L 5.6 0" class="primitive"/>
  </g>
  <g transform="translate(400,75)">
    <path fill="none" d="M-5.6,0 L 5.6 0" class="primitive"/>
  </g>
  <g transform="translate(140,235)">
    <path fill="none" d="M-5.6,0 L 5.6 0" class="primitive"/>
  </g>
  <g transform="translate(400,245)">
    <path fill="none" d="M-5.6,0 L 5.6 0" class="primitive"/>
  </g>
  <g transform="translate(160,227.5)">
    <path fill="none" d="M-6.06,-1.52 L 6.06 1.52" class="primitive"/>
  </g>
  <g transform="translate(420,67.5)">
    <path fill="none" d="M-6.06,-1.52 L 6.06 1.52" class="primitive"/>
  </g>
  <g transform="translate(320,158.12)">
    <path fill="none" d="M-9,-19.32 L 9 19.32" class="primitive"/>
  </g>
  <g transform="translate(220,176.88)">
    <path fill="none" d="M-7.93,-7.43 L 7.93 7.43" class="primitive"/>
  </g>
  <g transform="translate(40,157.5)">
    <path fill="none" d="M-6.06,-1.52 L 6.06 1.52" class="primitive"/>
  </g>
  <g transform="translate(120,148.75)">
    <path fill="none" d="M-6.48,-2.43 L 6.48 2.43" class="primitive"/>
  </g>
  <g transform="translate(520,146.82)">
    <path fill="none" d="M-9.4,-33.88 L 9.4 33.88" class="primitive"/>
  </g>
  <g transform="translate(240,218.75)">
    <path fill="none" d="M-6.48,-2.43 L 6.48 2.43" class="primitive"/>
  </g>
  <g transform="translate(220,89.38)">
    <path fill="none" d="M-6.69,-2.93 L 6.69 2.93" class="primitive"/>
  </g>
  <g transform="translate(420,195.94)">
    <path fill="none" d="M-8.71,-14.25 L 8.71 14.25" class="primitive"/>
  </g>
</g>
<g fill="#00FFFF" id="img-3f835ec9-2">
  <g transform="translate(570,182.88)">
    <circle cx="0" cy="0" r="4" class="primitive"/>
  </g>
</g>
<g fill="#00FFFF" id="img-3f835ec9-3">
  <g transform="translate(550,182.88)">
    <circle cx="0" cy="0" r="4" class="primitive"/>
  </g>
</g>
<g fill="#00FFFF" id="img-3f835ec9-4">
  <g transform="translate(530,182.88)">
    <circle cx="0" cy="0" r="4" class="primitive"/>
  </g>
</g>
<g fill="#00FFFF" id="img-3f835ec9-5">
  <g transform="translate(510,255)">
    <circle cx="0" cy="0" r="4" class="primitive"/>
  </g>
</g>
<g fill="#00FFFF" id="img-3f835ec9-6">
  <g transform="translate(290,222.5)">
    <circle cx="0" cy="0" r="4" class="primitive"/>
  </g>
</g>
<g fill="#00FFFF" id="img-3f835ec9-7">
  <g transform="translate(270,222.5)">
    <circle cx="0" cy="0" r="4" class="primitive"/>
  </g>
</g>
<g fill="#00FFFF" id="img-3f835ec9-8">
  <g transform="translate(250,222.5)">
    <circle cx="0" cy="0" r="4" class="primitive"/>
  </g>
</g>
<g fill="#00FFFF" id="img-3f835ec9-9">
  <g transform="translate(230,230)">
    <circle cx="0" cy="0" r="4" class="primitive"/>
  </g>
</g>
<g fill="#00FFFF" id="img-3f835ec9-10">
  <g transform="translate(170,152.5)">
    <circle cx="0" cy="0" r="4" class="primitive"/>
  </g>
</g>
<g fill="#00FFFF" id="img-3f835ec9-11">
  <g transform="translate(150,152.5)">
    <circle cx="0" cy="0" r="4" class="primitive"/>
  </g>
</g>
<g fill="#00FFFF" id="img-3f835ec9-12">
  <g transform="translate(130,152.5)">
    <circle cx="0" cy="0" r="4" class="primitive"/>
  </g>
</g>
<g fill="#00FFFF" id="img-3f835ec9-13">
  <g transform="translate(110,160)">
    <circle cx="0" cy="0" r="4" class="primitive"/>
  </g>
</g>
<g fill="#00FFFF" id="img-3f835ec9-14">
  <g transform="translate(270,186.25)">
    <circle cx="0" cy="0" r="4" class="primitive"/>
  </g>
</g>
<g fill="#00FFFF" id="img-3f835ec9-15">
  <g transform="translate(250,186.25)">
    <circle cx="0" cy="0" r="4" class="primitive"/>
  </g>
</g>
<g fill="#00FFFF" id="img-3f835ec9-16">
  <g transform="translate(230,186.25)">
    <circle cx="0" cy="0" r="4" class="primitive"/>
  </g>
</g>
<g fill="#00FFFF" id="img-3f835ec9-17">
  <g transform="translate(210,205)">
    <circle cx="0" cy="0" r="4" class="primitive"/>
  </g>
</g>
<g fill="#00FFFF" id="img-3f835ec9-18">
  <g transform="translate(210,230)">
    <circle cx="0" cy="0" r="4" class="primitive"/>
  </g>
</g>
<g fill="#00FFFF" id="img-3f835ec9-19">
  <g transform="translate(190,230)">
    <circle cx="0" cy="0" r="4" class="primitive"/>
  </g>
</g>
<g fill="#00FFFF" id="img-3f835ec9-20">
  <g transform="translate(170,230)">
    <circle cx="0" cy="0" r="4" class="primitive"/>
  </g>
</g>
<g fill="#00FFFF" id="img-3f835ec9-21">
  <g transform="translate(150,235)">
    <circle cx="0" cy="0" r="4" class="primitive"/>
  </g>
</g>
<g fill="#00FFFF" id="img-3f835ec9-22">
  <g transform="translate(270,93.75)">
    <circle cx="0" cy="0" r="4" class="primitive"/>
  </g>
</g>
<g fill="#00FFFF" id="img-3f835ec9-23">
  <g transform="translate(250,93.75)">
    <circle cx="0" cy="0" r="4" class="primitive"/>
  </g>
</g>
<g fill="#00FFFF" id="img-3f835ec9-24">
  <g transform="translate(230,93.75)">
    <circle cx="0" cy="0" r="4" class="primitive"/>
  </g>
</g>
<g fill="#00FFFF" id="img-3f835ec9-25">
  <g transform="translate(210,102.5)">
    <circle cx="0" cy="0" r="4" class="primitive"/>
  </g>
</g>
<g fill="#00FFFF" id="img-3f835ec9-26">
  <g transform="translate(370,179.58)">
    <circle cx="0" cy="0" r="4" class="primitive"/>
  </g>
</g>
<g fill="#00FFFF" id="img-3f835ec9-27">
  <g transform="translate(350,179.58)">
    <circle cx="0" cy="0" r="4" class="primitive"/>
  </g>
</g>
<g fill="#00FFFF" id="img-3f835ec9-28">
  <g transform="translate(330,179.58)">
    <circle cx="0" cy="0" r="4" class="primitive"/>
  </g>
</g>
<g fill="#00FFFF" id="img-3f835ec9-29">
  <g transform="translate(310,222.5)">
    <circle cx="0" cy="0" r="4" class="primitive"/>
  </g>
</g>
<g fill="#00FFFF" id="img-3f835ec9-30">
  <g transform="translate(470,212.29)">
    <circle cx="0" cy="0" r="4" class="primitive"/>
  </g>
</g>
<g fill="#00FFFF" id="img-3f835ec9-31">
  <g transform="translate(450,212.29)">
    <circle cx="0" cy="0" r="4" class="primitive"/>
  </g>
</g>
<g fill="#00FFFF" id="img-3f835ec9-32">
  <g transform="translate(430,212.29)">
    <circle cx="0" cy="0" r="4" class="primitive"/>
  </g>
</g>
<g fill="#00FFFF" id="img-3f835ec9-33">
  <g transform="translate(410,245)">
    <circle cx="0" cy="0" r="4" class="primitive"/>
  </g>
</g>
<g fill="#00FFFF" id="img-3f835ec9-34">
  <g transform="translate(470,70)">
    <circle cx="0" cy="0" r="4" class="primitive"/>
  </g>
</g>
<g fill="#00FFFF" id="img-3f835ec9-35">
  <g transform="translate(450,70)">
    <circle cx="0" cy="0" r="4" class="primitive"/>
  </g>
</g>
<g fill="#00FFFF" id="img-3f835ec9-36">
  <g transform="translate(430,70)">
    <circle cx="0" cy="0" r="4" class="primitive"/>
  </g>
</g>
<g fill="#00FFFF" id="img-3f835ec9-37">
  <g transform="translate(410,75)">
    <circle cx="0" cy="0" r="4" class="primitive"/>
  </g>
</g>
<g fill="#00FFFF" id="img-3f835ec9-38">
  <g transform="translate(90,160)">
    <circle cx="0" cy="0" r="4" class="primitive"/>
  </g>
</g>
<g fill="#00FFFF" id="img-3f835ec9-39">
  <g transform="translate(70,160)">
    <circle cx="0" cy="0" r="4" class="primitive"/>
  </g>
</g>
<g fill="#00FFFF" id="img-3f835ec9-40">
  <g transform="translate(50,160)">
    <circle cx="0" cy="0" r="4" class="primitive"/>
  </g>
</g>
<g fill="#00FFFF" id="img-3f835ec9-41">
  <g transform="translate(30,165)">
    <circle cx="0" cy="0" r="4" class="primitive"/>
  </g>
</g>
<g fill="#FF0000" id="img-3f835ec9-42">
  <g transform="translate(590,182.88)">
    <circle cx="0" cy="0" r="4" class="primitive"/>
  </g>
</g>
<g fill="#FF0000" id="img-3f835ec9-43">
  <g transform="translate(190,167.5)">
    <circle cx="0" cy="0" r="4" class="primitive"/>
  </g>
</g>
<g fill="#FF0000" id="img-3f835ec9-44">
  <g transform="translate(290,136.67)">
    <circle cx="0" cy="0" r="4" class="primitive"/>
  </g>
</g>
<g fill="#FF0000" id="img-3f835ec9-45">
  <g transform="translate(390,179.58)">
    <circle cx="0" cy="0" r="4" class="primitive"/>
  </g>
</g>
<g fill="#FF0000" id="img-3f835ec9-46">
  <g transform="translate(490,110.76)">
    <circle cx="0" cy="0" r="4" class="primitive"/>
  </g>
</g>
<g fill="#00FF00" id="img-3f835ec9-47">
  <g transform="translate(590,35)">
    <circle cx="0" cy="0" r="4" class="primitive"/>
  </g>
</g>
<g fill="#00FF00" id="img-3f835ec9-48">
  <g transform="translate(490,255)">
    <circle cx="0" cy="0" r="4" class="primitive"/>
  </g>
</g>
<g fill="#00FF00" id="img-3f835ec9-49">
  <g transform="translate(590,25)">
    <circle cx="0" cy="0" r="4" class="primitive"/>
  </g>
</g>
<g fill="#00FF00" id="img-3f835ec9-50">
  <g transform="translate(590,15)">
    <circle cx="0" cy="0" r="4" class="primitive"/>
  </g>
</g>
<g fill="#00FF00" id="img-3f835ec9-51">
  <g transform="translate(590,5)">
    <circle cx="0" cy="0" r="4" class="primitive"/>
  </g>
</g>
<g fill="#00FF00" id="img-3f835ec9-52">
  <g transform="translate(10,165)">
    <circle cx="0" cy="0" r="4" class="primitive"/>
  </g>
</g>
<g fill="#00FF00" id="img-3f835ec9-53">
  <g transform="translate(190,205)">
    <circle cx="0" cy="0" r="4" class="primitive"/>
  </g>
</g>
<g fill="#00FF00" id="img-3f835ec9-54">
  <g transform="translate(390,75)">
    <circle cx="0" cy="0" r="4" class="primitive"/>
  </g>
</g>
<g fill="#00FF00" id="img-3f835ec9-55">
  <g transform="translate(130,235)">
    <circle cx="0" cy="0" r="4" class="primitive"/>
  </g>
</g>
<g fill="#00FF00" id="img-3f835ec9-56">
  <g transform="translate(390,245)">
    <circle cx="0" cy="0" r="4" class="primitive"/>
  </g>
</g>
<g fill="#FFA500" id="img-3f835ec9-57">
  <g transform="translate(150,225)">
    <circle cx="0" cy="0" r="4" class="primitive"/>
  </g>
</g>
<g fill="#FFA500" id="img-3f835ec9-58">
  <g transform="translate(410,65)">
    <circle cx="0" cy="0" r="4" class="primitive"/>
  </g>
</g>
<g fill="#FFA500" id="img-3f835ec9-59">
  <g transform="translate(310,136.67)">
    <circle cx="0" cy="0" r="4" class="primitive"/>
  </g>
</g>
<g fill="#FFA500" id="img-3f835ec9-60">
  <g transform="translate(210,167.5)">
    <circle cx="0" cy="0" r="4" class="primitive"/>
  </g>
</g>
<g fill="#FFA500" id="img-3f835ec9-61">
  <g transform="translate(30,155)">
    <circle cx="0" cy="0" r="4" class="primitive"/>
  </g>
</g>
<g fill="#FFA500" id="img-3f835ec9-62">
  <g transform="translate(110,145)">
    <circle cx="0" cy="0" r="4" class="primitive"/>
  </g>
</g>
<g fill="#FFA500" id="img-3f835ec9-63">
  <g transform="translate(510,110.76)">
    <circle cx="0" cy="0" r="4" class="primitive"/>
  </g>
</g>
<g fill="#FFA500" id="img-3f835ec9-64">
  <g transform="translate(230,215)">
    <circle cx="0" cy="0" r="4" class="primitive"/>
  </g>
</g>
<g fill="#FFA500" id="img-3f835ec9-65">
  <g transform="translate(210,85)">
    <circle cx="0" cy="0" r="4" class="primitive"/>
  </g>
</g>
<g fill="#FFA500" id="img-3f835ec9-66">
  <g transform="translate(410,179.58)">
    <circle cx="0" cy="0" r="4" class="primitive"/>
  </g>
</g>
<g font-family="futura" font-size="3.53" stroke="#000000" id="img-3f835ec9-67">
  <g transform="translate(570,182.88)">
    <g class="primitive">
      <text text-anchor="middle" dy="-0.25em">deposit<tspan x="0" dy="1.2em">9,10,103</tspan></text>
    </g>
  </g>
  <g transform="translate(550,182.88)">
    <g class="primitive">
      <text text-anchor="middle" dy="-0.25em">carry<tspan x="0" dy="1.2em">9,10,103</tspan></text>
    </g>
  </g>
  <g transform="translate(530,182.88)">
    <g class="primitive">
      <text text-anchor="middle" dy="-0.25em">collect<tspan x="0" dy="1.2em">9,10,524</tspan></text>
    </g>
  </g>
  <g transform="translate(510,255)">
    <g class="primitive">
      <text text-anchor="middle" dy="-0.25em">go<tspan x="0" dy="1.2em">9,526,524</tspan></text>
    </g>
  </g>
  <g transform="translate(290,222.5)">
    <g class="primitive">
      <text text-anchor="middle" dy="-0.25em">deposit<tspan x="0" dy="1.2em">2,1,74</tspan></text>
    </g>
  </g>
  <g transform="translate(270,222.5)">
    <g class="primitive">
      <text text-anchor="middle" dy="-0.25em">carry<tspan x="0" dy="1.2em">2,1,74</tspan></text>
    </g>
  </g>
  <g transform="translate(250,222.5)">
    <g class="primitive">
      <text text-anchor="middle" dy="-0.25em">collect<tspan x="0" dy="1.2em">2,1,89</tspan></text>
    </g>
  </g>
  <g transform="translate(230,230)">
    <g class="primitive">
      <text text-anchor="middle" dy="-0.25em">go<tspan x="0" dy="1.2em">2,137,89</tspan></text>
    </g>
  </g>
  <g transform="translate(170,152.5)">
    <g class="primitive">
      <text text-anchor="middle" dy="-0.25em">deposit<tspan x="0" dy="1.2em">5,2,239</tspan></text>
    </g>
  </g>
  <g transform="translate(150,152.5)">
    <g class="primitive">
      <text text-anchor="middle" dy="-0.25em">carry<tspan x="0" dy="1.2em">5,2,239</tspan></text>
    </g>
  </g>
  <g transform="translate(130,152.5)">
    <g class="primitive">
      <text text-anchor="middle" dy="-0.25em">collect<tspan x="0" dy="1.2em">5,2,248</tspan></text>
    </g>
  </g>
  <g transform="translate(110,160)">
    <g class="primitive">
      <text text-anchor="middle" dy="-0.25em">go<tspan x="0" dy="1.2em">5,90,248</tspan></text>
    </g>
  </g>
  <g transform="translate(270,186.25)">
    <g class="primitive">
      <text text-anchor="middle" dy="-0.25em">deposit<tspan x="0" dy="1.2em">4,5,336</tspan></text>
    </g>
  </g>
  <g transform="translate(250,186.25)">
    <g class="primitive">
      <text text-anchor="middle" dy="-0.25em">carry<tspan x="0" dy="1.2em">4,5,336</tspan></text>
    </g>
  </g>
  <g transform="translate(230,186.25)">
    <g class="primitive">
      <text text-anchor="middle" dy="-0.25em">collect<tspan x="0" dy="1.2em">4,5,57</tspan></text>
    </g>
  </g>
  <g transform="translate(210,205)">
    <g class="primitive">
      <text text-anchor="middle" dy="-0.25em">go<tspan x="0" dy="1.2em">4,28,57</tspan></text>
    </g>
  </g>
  <g transform="translate(210,230)">
    <g class="primitive">
      <text text-anchor="middle" dy="-0.25em">deposit<tspan x="0" dy="1.2em">2,3,137</tspan></text>
    </g>
  </g>
  <g transform="translate(190,230)">
    <g class="primitive">
      <text text-anchor="middle" dy="-0.25em">carry<tspan x="0" dy="1.2em">2,3,137</tspan></text>
    </g>
  </g>
  <g transform="translate(170,230)">
    <g class="primitive">
      <text text-anchor="middle" dy="-0.25em">collect<tspan x="0" dy="1.2em">2,3,75</tspan></text>
    </g>
  </g>
  <g transform="translate(150,235)">
    <g class="primitive">
      <text text-anchor="middle" dy="-0.25em">go<tspan x="0" dy="1.2em">2,493,75</tspan></text>
    </g>
  </g>
  <g transform="translate(270,93.75)">
    <g class="primitive">
      <text text-anchor="middle" dy="-0.25em">deposit<tspan x="0" dy="1.2em">5,4,383</tspan></text>
    </g>
  </g>
  <g transform="translate(250,93.75)">
    <g class="primitive">
      <text text-anchor="middle" dy="-0.25em">carry<tspan x="0" dy="1.2em">5,4,383</tspan></text>
    </g>
  </g>
  <g transform="translate(230,93.75)">
    <g class="primitive">
      <text text-anchor="middle" dy="-0.25em">collect<tspan x="0" dy="1.2em">5,4,203</tspan></text>
    </g>
  </g>
  <g transform="translate(210,102.5)">
    <g class="primitive">
      <text text-anchor="middle" dy="-0.25em">go<tspan x="0" dy="1.2em">5,239,203</tspan></text>
    </g>
  </g>
  <g transform="translate(370,179.58)">
    <g class="primitive">
      <text text-anchor="middle" dy="-0.25em">deposit<tspan x="0" dy="1.2em">2,6,99</tspan></text>
    </g>
  </g>
  <g transform="translate(350,179.58)">
    <g class="primitive">
      <text text-anchor="middle" dy="-0.25em">carry<tspan x="0" dy="1.2em">2,6,99</tspan></text>
    </g>
  </g>
  <g transform="translate(330,179.58)">
    <g class="primitive">
      <text text-anchor="middle" dy="-0.25em">collect<tspan x="0" dy="1.2em">2,6,112</tspan></text>
    </g>
  </g>
  <g transform="translate(310,222.5)">
    <g class="primitive">
      <text text-anchor="middle" dy="-0.25em">go<tspan x="0" dy="1.2em">2,74,112</tspan></text>
    </g>
  </g>
  <g transform="translate(470,212.29)">
    <g class="primitive">
      <text text-anchor="middle" dy="-0.25em">deposit<tspan x="0" dy="1.2em">1,8,208</tspan></text>
    </g>
  </g>
  <g transform="translate(450,212.29)">
    <g class="primitive">
      <text text-anchor="middle" dy="-0.25em">carry<tspan x="0" dy="1.2em">1,8,208</tspan></text>
    </g>
  </g>
  <g transform="translate(430,212.29)">
    <g class="primitive">
      <text text-anchor="middle" dy="-0.25em">collect<tspan x="0" dy="1.2em">1,8,495</tspan></text>
    </g>
  </g>
  <g transform="translate(410,245)">
    <g class="primitive">
      <text text-anchor="middle" dy="-0.25em">go<tspan x="0" dy="1.2em">1,590,495</tspan></text>
    </g>
  </g>
  <g transform="translate(470,70)">
    <g class="primitive">
      <text text-anchor="middle" dy="-0.25em">deposit<tspan x="0" dy="1.2em">3,9,391</tspan></text>
    </g>
  </g>
  <g transform="translate(450,70)">
    <g class="primitive">
      <text text-anchor="middle" dy="-0.25em">carry<tspan x="0" dy="1.2em">3,9,391</tspan></text>
    </g>
  </g>
  <g transform="translate(430,70)">
    <g class="primitive">
      <text text-anchor="middle" dy="-0.25em">collect<tspan x="0" dy="1.2em">3,9,85</tspan></text>
    </g>
  </g>
  <g transform="translate(410,75)">
    <g class="primitive">
      <text text-anchor="middle" dy="-0.25em">go<tspan x="0" dy="1.2em">3,113,85</tspan></text>
    </g>
  </g>
  <g transform="translate(90,160)">
    <g class="primitive">
      <text text-anchor="middle" dy="-0.25em">deposit<tspan x="0" dy="1.2em">5,7,90</tspan></text>
    </g>
  </g>
  <g transform="translate(70,160)">
    <g class="primitive">
      <text text-anchor="middle" dy="-0.25em">carry<tspan x="0" dy="1.2em">5,7,90</tspan></text>
    </g>
  </g>
  <g transform="translate(50,160)">
    <g class="primitive">
      <text text-anchor="middle" dy="-0.25em">collect<tspan x="0" dy="1.2em">5,7,229</tspan></text>
    </g>
  </g>
  <g transform="translate(30,165)">
    <g class="primitive">
      <text text-anchor="middle" dy="-0.25em">go<tspan x="0" dy="1.2em">5,433,229</tspan></text>
    </g>
  </g>
  <g transform="translate(590,182.88)">
    <g class="primitive">
      <text text-anchor="middle" dy="0.35em">op</text>
    </g>
  </g>
  <g transform="translate(190,167.5)">
    <g class="primitive">
      <text text-anchor="middle" dy="0.35em">op</text>
    </g>
  </g>
  <g transform="translate(290,136.67)">
    <g class="primitive">
      <text text-anchor="middle" dy="0.35em">op</text>
    </g>
  </g>
  <g transform="translate(390,179.58)">
    <g class="primitive">
      <text text-anchor="middle" dy="0.35em">op</text>
    </g>
  </g>
  <g transform="translate(490,110.76)">
    <g class="primitive">
      <text text-anchor="middle" dy="0.35em">op</text>
    </g>
  </g>
  <g transform="translate(590,35)">
    <g class="primitive">
      <text text-anchor="middle" dy="0.35em">R10-592</text>
    </g>
  </g>
  <g transform="translate(490,255)">
    <g class="primitive">
      <text text-anchor="middle" dy="0.35em">R9-526</text>
    </g>
  </g>
  <g transform="translate(590,25)">
    <g class="primitive">
      <text text-anchor="middle" dy="0.35em">R8-415</text>
    </g>
  </g>
  <g transform="translate(590,15)">
    <g class="primitive">
      <text text-anchor="middle" dy="0.35em">R7-395</text>
    </g>
  </g>
  <g transform="translate(590,5)">
    <g class="primitive">
      <text text-anchor="middle" dy="0.35em">R6-586</text>
    </g>
  </g>
  <g transform="translate(10,165)">
    <g class="primitive">
      <text text-anchor="middle" dy="0.35em">R5-433</text>
    </g>
  </g>
  <g transform="translate(190,205)">
    <g class="primitive">
      <text text-anchor="middle" dy="0.35em">R4-28</text>
    </g>
  </g>
  <g transform="translate(390,75)">
    <g class="primitive">
      <text text-anchor="middle" dy="0.35em">R3-113</text>
    </g>
  </g>
  <g transform="translate(130,235)">
    <g class="primitive">
      <text text-anchor="middle" dy="0.35em">R2-493</text>
    </g>
  </g>
  <g transform="translate(390,245)">
    <g class="primitive">
      <text text-anchor="middle" dy="0.35em">R1-590</text>
    </g>
  </g>
  <g transform="translate(150,225)">
    <g class="primitive">
      <text text-anchor="middle" dy="0.35em">O3-75</text>
    </g>
  </g>
  <g transform="translate(410,65)">
    <g class="primitive">
      <text text-anchor="middle" dy="0.35em">O9-85</text>
    </g>
  </g>
  <g transform="translate(310,136.67)">
    <g class="primitive">
      <text text-anchor="middle" dy="0.35em">O6-112</text>
    </g>
  </g>
  <g transform="translate(210,167.5)">
    <g class="primitive">
      <text text-anchor="middle" dy="0.35em">O5-57</text>
    </g>
  </g>
  <g transform="translate(30,155)">
    <g class="primitive">
      <text text-anchor="middle" dy="0.35em">O7-229</text>
    </g>
  </g>
  <g transform="translate(110,145)">
    <g class="primitive">
      <text text-anchor="middle" dy="0.35em">O2-248</text>
    </g>
  </g>
  <g transform="translate(510,110.76)">
    <g class="primitive">
      <text text-anchor="middle" dy="0.35em">O10-524</text>
    </g>
  </g>
  <g transform="translate(230,215)">
    <g class="primitive">
      <text text-anchor="middle" dy="0.35em">O1-89</text>
    </g>
  </g>
  <g transform="translate(210,85)">
    <g class="primitive">
      <text text-anchor="middle" dy="0.35em">O4-203</text>
    </g>
  </g>
  <g transform="translate(410,179.58)">
    <g class="primitive">
      <text text-anchor="middle" dy="0.35em">O8-495</text>
    </g>
  </g>
</g>
</svg>
