<?xml version="1.0" encoding="UTF-8"?>
<svg xmlns="http://www.w3.org/2000/svg"
     xmlns:xlink="http://www.w3.org/1999/xlink"
     xmlns:gadfly="http://www.gadflyjl.org/ns"
     version="1.2"
     width="440mm" height="80mm" viewBox="0 0 440 80"
     stroke="none"
     fill="#000000"
     stroke-width="0.3"
     font-size="3.88"
>
<defs>
  <marker id="arrow" markerWidth="15" markerHeight="7" refX="5" refY="3.5" orient="auto" markerUnits="strokeWidth">
    <path d="M0,0 L15,3.5 L0,7 z" stroke="context-stroke" fill="context-stroke"/>
  </marker>
</defs>
<g stroke="#000000" id="img-6e225eb0-1">
  <g transform="translate(30,50)">
    <path fill="none" d="M-5.6,0 L 5.6 0" class="primitive"/>
  </g>
  <g transform="translate(30,30)">
    <path fill="none" d="M-5.6,0 L 5.6 0" class="primitive"/>
  </g>
  <g transform="translate(410,65.62)">
    <path fill="none" d="M-6.27,-1.96 L 6.27 1.96" class="primitive"/>
  </g>
  <g transform="translate(410,59.38)">
    <path fill="none" d="M-6.27,1.96 L 6.27 -1.96" class="primitive"/>
  </g>
  <g transform="translate(390,62.5)">
    <path fill="none" d="M-5.6,0 L 5.6 0" class="primitive"/>
  </g>
  <g transform="translate(370,62.5)">
    <path fill="none" d="M-5.6,0 L 5.6 0" class="primitive"/>
  </g>
  <g transform="translate(240,66.25)">
    <path fill="none" d="M-115.61,3.61 L 115.61 -3.61" class="primitive"/>
  </g>
  <g transform="translate(110,62.5)">
    <path fill="none" d="M-7.56,-5.67 L 7.56 5.67" class="primitive"/>
  </g>
  <g transform="translate(110,52.5)">
    <path fill="none" d="M-6.06,1.52 L 6.06 -1.52" class="primitive"/>
  </g>
  <g transform="translate(90,55)">
    <path fill="none" d="M-5.6,0 L 5.6 0" class="primitive"/>
  </g>
  <g transform="translate(70,55)">
    <path fill="none" d="M-5.6,0 L 5.6 0" class="primitive"/>
  </g>
  <g transform="translate(190,55)">
    <path fill="none" d="M-65.64,4.69 L 65.64 -4.69" class="primitive"/>
  </g>
  <g transform="translate(110,47.5)">
    <path fill="none" d="M-8.37,-10.46 L 8.37 10.46" class="primitive"/>
  </g>
  <g transform="translate(110,32.5)">
    <path fill="none" d="M-6.06,1.52 L 6.06 -1.52" class="primitive"/>
  </g>
  <g transform="translate(90,35)">
    <path fill="none" d="M-5.6,0 L 5.6 0" class="primitive"/>
  </g>
  <g transform="translate(70,35)">
    <path fill="none" d="M-5.6,0 L 5.6 0" class="primitive"/>
  </g>
  <g transform="translate(210,32.5)">
    <path fill="none" d="M-6.06,1.52 L 6.06 -1.52" class="primitive"/>
  </g>
  <g transform="translate(210,40)">
    <path fill="none" d="M-6.89,-3.44 L 6.89 3.44" class="primitive"/>
  </g>
  <g transform="translate(190,35)">
    <path fill="none" d="M-5.6,0 L 5.6 0" class="primitive"/>
  </g>
  <g transform="translate(170,35)">
    <path fill="none" d="M-5.6,0 L 5.6 0" class="primitive"/>
  </g>
  <g transform="translate(210,12.5)">
    <path fill="none" d="M-6.06,1.52 L 6.06 -1.52" class="primitive"/>
  </g>
  <g transform="translate(210,30)">
    <path fill="none" d="M-8.61,-12.91 L 8.61 12.91" class="primitive"/>
  </g>
  <g transform="translate(190,15)">
    <path fill="none" d="M-5.6,0 L 5.6 0" class="primitive"/>
  </g>
  <g transform="translate(170,15)">
    <path fill="none" d="M-5.6,0 L 5.6 0" class="primitive"/>
  </g>
  <g transform="translate(310,46.25)">
    <path fill="none" d="M-6.48,2.43 L 6.48 -2.43" class="primitive"/>
  </g>
  <g transform="translate(310,53.75)">
    <path fill="none" d="M-6.48,-2.43 L 6.48 2.43" class="primitive"/>
  </g>
  <g transform="translate(290,50)">
    <path fill="none" d="M-5.6,0 L 5.6 0" class="primitive"/>
  </g>
  <g transform="translate(270,50)">
    <path fill="none" d="M-5.6,0 L 5.6 0" class="primitive"/>
  </g>
  <g transform="translate(100,27.5)">
    <path fill="none" d="M-55.73,-6.97 L 55.73 6.97" class="primitive"/>
  </g>
  <g transform="translate(30,20)">
    <path fill="none" d="M-5.6,0 L 5.6 0" class="primitive"/>
  </g>
  <g transform="translate(100,12.5)">
    <path fill="none" d="M-55.62,-2.32 L 55.62 2.32" class="primitive"/>
  </g>
  <g transform="translate(30,10)">
    <path fill="none" d="M-5.6,0 L 5.6 0" class="primitive"/>
  </g>
  <g transform="translate(50,37.5)">
    <path fill="none" d="M-6.06,1.52 L 6.06 -1.52" class="primitive"/>
  </g>
  <g transform="translate(30,40)">
    <path fill="none" d="M-5.6,0 L 5.6 0" class="primitive"/>
  </g>
  <g transform="translate(50,57.5)">
    <path fill="none" d="M-6.06,1.52 L 6.06 -1.52" class="primitive"/>
  </g>
  <g transform="translate(30,60)">
    <path fill="none" d="M-5.6,0 L 5.6 0" class="primitive"/>
  </g>
  <g transform="translate(350,60)">
    <path fill="none" d="M-6.06,-1.52 L 6.06 1.52" class="primitive"/>
  </g>
  <g transform="translate(250,47.5)">
    <path fill="none" d="M-6.06,-1.52 L 6.06 1.52" class="primitive"/>
  </g>
  <g transform="translate(150,42.5)">
    <path fill="none" d="M-7.56,5.67 L 7.56 -5.67" class="primitive"/>
  </g>
  <g transform="translate(150,22.5)">
    <path fill="none" d="M-7.56,5.67 L 7.56 -5.67" class="primitive"/>
  </g>
  <g transform="translate(50,32.5)">
    <path fill="none" d="M-6.06,-1.52 L 6.06 1.52" class="primitive"/>
  </g>
  <g transform="translate(50,52.5)">
    <path fill="none" d="M-6.06,-1.52 L 6.06 1.52" class="primitive"/>
  </g>
  <g transform="translate(130,50)">
    <path fill="none" d="M-5.6,0 L 5.6 0" class="primitive"/>
  </g>
  <g transform="translate(130,30)">
    <path fill="none" d="M-5.6,0 L 5.6 0" class="primitive"/>
  </g>
  <g transform="translate(230,45)">
    <path fill="none" d="M-5.6,0 L 5.6 0" class="primitive"/>
  </g>
  <g transform="translate(330,57.5)">
    <path fill="none" d="M-5.6,0 L 5.6 0" class="primitive"/>
  </g>
</g>
<g fill="#FF0000" id="img-6e225eb0-2">
  <g transform="translate(20,50)">
    <circle cx="0" cy="0" r="4" class="primitive"/>
  </g>
</g>
<g fill="#FF0000" id="img-6e225eb0-3">
  <g transform="translate(20,30)">
    <circle cx="0" cy="0" r="4" class="primitive"/>
  </g>
</g>
<g fill="#00FFFF" id="img-6e225eb0-4">
  <g transform="translate(420,68.75)">
    <circle cx="0" cy="0" r="4" class="primitive"/>
  </g>
</g>
<g fill="#00FFFF" id="img-6e225eb0-5">
  <g transform="translate(400,62.5)">
    <circle cx="0" cy="0" r="4" class="primitive"/>
  </g>
</g>
<g fill="#00FFFF" id="img-6e225eb0-6">
  <g transform="translate(380,62.5)">
    <circle cx="0" cy="0" r="4" class="primitive"/>
  </g>
</g>
<g fill="#00FFFF" id="img-6e225eb0-7">
  <g transform="translate(360,62.5)">
    <circle cx="0" cy="0" r="4" class="primitive"/>
  </g>
</g>
<g fill="#00FFFF" id="img-6e225eb0-8">
  <g transform="translate(120,70)">
    <circle cx="0" cy="0" r="4" class="primitive"/>
  </g>
</g>
<g fill="#00FFFF" id="img-6e225eb0-9">
  <g transform="translate(100,55)">
    <circle cx="0" cy="0" r="4" class="primitive"/>
  </g>
</g>
<g fill="#00FFFF" id="img-6e225eb0-10">
  <g transform="translate(80,55)">
    <circle cx="0" cy="0" r="4" class="primitive"/>
  </g>
</g>
<g fill="#00FFFF" id="img-6e225eb0-11">
  <g transform="translate(60,55)">
    <circle cx="0" cy="0" r="4" class="primitive"/>
  </g>
</g>
<g fill="#00FFFF" id="img-6e225eb0-12">
  <g transform="translate(120,60)">
    <circle cx="0" cy="0" r="4" class="primitive"/>
  </g>
</g>
<g fill="#00FFFF" id="img-6e225eb0-13">
  <g transform="translate(100,35)">
    <circle cx="0" cy="0" r="4" class="primitive"/>
  </g>
</g>
<g fill="#00FFFF" id="img-6e225eb0-14">
  <g transform="translate(80,35)">
    <circle cx="0" cy="0" r="4" class="primitive"/>
  </g>
</g>
<g fill="#00FFFF" id="img-6e225eb0-15">
  <g transform="translate(60,35)">
    <circle cx="0" cy="0" r="4" class="primitive"/>
  </g>
</g>
<g fill="#00FFFF" id="img-6e225eb0-16">
  <g transform="translate(220,30)">
    <circle cx="0" cy="0" r="4" class="primitive"/>
  </g>
</g>
<g fill="#00FFFF" id="img-6e225eb0-17">
  <g transform="translate(200,35)">
    <circle cx="0" cy="0" r="4" class="primitive"/>
  </g>
</g>
<g fill="#00FFFF" id="img-6e225eb0-18">
  <g transform="translate(180,35)">
    <circle cx="0" cy="0" r="4" class="primitive"/>
  </g>
</g>
<g fill="#00FFFF" id="img-6e225eb0-19">
  <g transform="translate(160,35)">
    <circle cx="0" cy="0" r="4" class="primitive"/>
  </g>
</g>
<g fill="#00FFFF" id="img-6e225eb0-20">
  <g transform="translate(220,10)">
    <circle cx="0" cy="0" r="4" class="primitive"/>
  </g>
</g>
<g fill="#00FFFF" id="img-6e225eb0-21">
  <g transform="translate(200,15)">
    <circle cx="0" cy="0" r="4" class="primitive"/>
  </g>
</g>
<g fill="#00FFFF" id="img-6e225eb0-22">
  <g transform="translate(180,15)">
    <circle cx="0" cy="0" r="4" class="primitive"/>
  </g>
</g>
<g fill="#00FFFF" id="img-6e225eb0-23">
  <g transform="translate(160,15)">
    <circle cx="0" cy="0" r="4" class="primitive"/>
  </g>
</g>
<g fill="#00FFFF" id="img-6e225eb0-24">
  <g transform="translate(320,42.5)">
    <circle cx="0" cy="0" r="4" class="primitive"/>
  </g>
</g>
<g fill="#00FFFF" id="img-6e225eb0-25">
  <g transform="translate(300,50)">
    <circle cx="0" cy="0" r="4" class="primitive"/>
  </g>
</g>
<g fill="#00FFFF" id="img-6e225eb0-26">
  <g transform="translate(280,50)">
    <circle cx="0" cy="0" r="4" class="primitive"/>
  </g>
</g>
<g fill="#00FFFF" id="img-6e225eb0-27">
  <g transform="translate(260,50)">
    <circle cx="0" cy="0" r="4" class="primitive"/>
  </g>
</g>
<g fill="#00FFFF" id="img-6e225eb0-28">
  <g transform="translate(40,20)">
    <circle cx="0" cy="0" r="4" class="primitive"/>
  </g>
</g>
<g fill="#00FF00" id="img-6e225eb0-29">
  <g transform="translate(20,20)">
    <circle cx="0" cy="0" r="4" class="primitive"/>
  </g>
</g>
<g fill="#00FFFF" id="img-6e225eb0-30">
  <g transform="translate(40,10)">
    <circle cx="0" cy="0" r="4" class="primitive"/>
  </g>
</g>
<g fill="#00FF00" id="img-6e225eb0-31">
  <g transform="translate(20,10)">
    <circle cx="0" cy="0" r="4" class="primitive"/>
  </g>
</g>
<g fill="#00FFFF" id="img-6e225eb0-32">
  <g transform="translate(40,40)">
    <circle cx="0" cy="0" r="4" class="primitive"/>
  </g>
</g>
<g fill="#00FF00" id="img-6e225eb0-33">
  <g transform="translate(20,40)">
    <circle cx="0" cy="0" r="4" class="primitive"/>
  </g>
</g>
<g fill="#00FFFF" id="img-6e225eb0-34">
  <g transform="translate(40,60)">
    <circle cx="0" cy="0" r="4" class="primitive"/>
  </g>
</g>
<g fill="#00FF00" id="img-6e225eb0-35">
  <g transform="translate(20,60)">
    <circle cx="0" cy="0" r="4" class="primitive"/>
  </g>
</g>
<g fill="#FFA500" id="img-6e225eb0-36">
  <g transform="translate(340,57.5)">
    <circle cx="0" cy="0" r="4" class="primitive"/>
  </g>
</g>
<g fill="#FFA500" id="img-6e225eb0-37">
  <g transform="translate(240,45)">
    <circle cx="0" cy="0" r="4" class="primitive"/>
  </g>
</g>
<g fill="#FFA500" id="img-6e225eb0-38">
  <g transform="translate(140,50)">
    <circle cx="0" cy="0" r="4" class="primitive"/>
  </g>
</g>
<g fill="#FFA500" id="img-6e225eb0-39">
  <g transform="translate(140,30)">
    <circle cx="0" cy="0" r="4" class="primitive"/>
  </g>
</g>
<g fill="#FFA500" id="img-6e225eb0-40">
  <g transform="translate(40,30)">
    <circle cx="0" cy="0" r="4" class="primitive"/>
  </g>
</g>
<g fill="#FFA500" id="img-6e225eb0-41">
  <g transform="translate(40,50)">
    <circle cx="0" cy="0" r="4" class="primitive"/>
  </g>
</g>
<g fill="#FF0000" id="img-6e225eb0-42">
  <g transform="translate(420,56.25)">
    <circle cx="0" cy="0" r="4" class="primitive"/>
  </g>
</g>
<g fill="#FF0000" id="img-6e225eb0-43">
  <g transform="translate(120,50)">
    <circle cx="0" cy="0" r="4" class="primitive"/>
  </g>
</g>
<g fill="#FF0000" id="img-6e225eb0-44">
  <g transform="translate(120,30)">
    <circle cx="0" cy="0" r="4" class="primitive"/>
  </g>
</g>
<g fill="#FF0000" id="img-6e225eb0-45">
  <g transform="translate(220,45)">
    <circle cx="0" cy="0" r="4" class="primitive"/>
  </g>
</g>
<g fill="#FF0000" id="img-6e225eb0-46">
  <g transform="translate(320,57.5)">
    <circle cx="0" cy="0" r="4" class="primitive"/>
  </g>
</g>
<g font-family="futura" font-size="3.53" stroke="#000000" id="img-6e225eb0-47">
  <g transform="translate(20,50)">
    <g class="primitive">
      <text text-anchor="middle" dy="-0.25em">op436<tspan x="0" dy="1.2em">0,0</tspan></text>
    </g>
  </g>
  <g transform="translate(20,30)">
    <g class="primitive">
      <text text-anchor="middle" dy="-0.25em">op435<tspan x="0" dy="1.2em">0,0</tspan></text>
    </g>
  </g>
  <g transform="translate(420,68.75)">
    <g class="primitive">
      <text text-anchor="middle" dy="-0.85em">go<tspan x="0" dy="1.2em">1,539,-1</tspan><tspan x="0" dy="1.2em">88,88</tspan></text>
    </g>
  </g>
  <g transform="translate(400,62.5)">
    <g class="primitive">
      <text text-anchor="middle" dy="-0.85em">deposit<tspan x="0" dy="1.2em">1,6,539</tspan><tspan x="0" dy="1.2em">88,88</tspan></text>
    </g>
  </g>
  <g transform="translate(380,62.5)">
    <g class="primitive">
      <text text-anchor="middle" dy="-0.85em">carry<tspan x="0" dy="1.2em">1,6,539</tspan><tspan x="0" dy="1.2em">76,88</tspan></text>
    </g>
  </g>
  <g transform="translate(360,62.5)">
    <g class="primitive">
      <text text-anchor="middle" dy="-0.85em">collect<tspan x="0" dy="1.2em">1,6,509</tspan><tspan x="0" dy="1.2em">76,76</tspan></text>
    </g>
  </g>
  <g transform="translate(120,70)">
    <g class="primitive">
      <text text-anchor="middle" dy="-0.85em">go<tspan x="0" dy="1.2em">1,271,509</tspan><tspan x="0" dy="1.2em">18,30</tspan></text>
    </g>
  </g>
  <g transform="translate(100,55)">
    <g class="primitive">
      <text text-anchor="middle" dy="-0.85em">deposit<tspan x="0" dy="1.2em">1,1,271</tspan><tspan x="0" dy="1.2em">18,18</tspan></text>
    </g>
  </g>
  <g transform="translate(80,55)">
    <g class="primitive">
      <text text-anchor="middle" dy="-0.85em">carry<tspan x="0" dy="1.2em">1,1,271</tspan><tspan x="0" dy="1.2em">10,18</tspan></text>
    </g>
  </g>
  <g transform="translate(60,55)">
    <g class="primitive">
      <text text-anchor="middle" dy="-0.85em">collect<tspan x="0" dy="1.2em">1,1,108</tspan><tspan x="0" dy="1.2em">10,10</tspan></text>
    </g>
  </g>
  <g transform="translate(120,60)">
    <g class="primitive">
      <text text-anchor="middle" dy="-0.85em">go<tspan x="0" dy="1.2em">2,196,197</tspan><tspan x="0" dy="1.2em">38,39</tspan></text>
    </g>
  </g>
  <g transform="translate(100,35)">
    <g class="primitive">
      <text text-anchor="middle" dy="-0.85em">deposit<tspan x="0" dy="1.2em">2,2,196</tspan><tspan x="0" dy="1.2em">38,38</tspan></text>
    </g>
  </g>
  <g transform="translate(80,35)">
    <g class="primitive">
      <text text-anchor="middle" dy="-0.85em">carry<tspan x="0" dy="1.2em">2,2,196</tspan><tspan x="0" dy="1.2em">8,38</tspan></text>
    </g>
  </g>
  <g transform="translate(60,35)">
    <g class="primitive">
      <text text-anchor="middle" dy="-0.85em">collect<tspan x="0" dy="1.2em">2,2,513</tspan><tspan x="0" dy="1.2em">8,8</tspan></text>
    </g>
  </g>
  <g transform="translate(220,30)">
    <g class="primitive">
      <text text-anchor="middle" dy="-0.85em">go<tspan x="0" dy="1.2em">4,119,-1</tspan><tspan x="0" dy="1.2em">39,39</tspan></text>
    </g>
  </g>
  <g transform="translate(200,35)">
    <g class="primitive">
      <text text-anchor="middle" dy="-0.85em">deposit<tspan x="0" dy="1.2em">4,4,119</tspan><tspan x="0" dy="1.2em">39,39</tspan></text>
    </g>
  </g>
  <g transform="translate(180,35)">
    <g class="primitive">
      <text text-anchor="middle" dy="-0.85em">carry<tspan x="0" dy="1.2em">4,4,119</tspan><tspan x="0" dy="1.2em">18,39</tspan></text>
    </g>
  </g>
  <g transform="translate(160,35)">
    <g class="primitive">
      <text text-anchor="middle" dy="-0.85em">collect<tspan x="0" dy="1.2em">4,4,349</tspan><tspan x="0" dy="1.2em">18,18</tspan></text>
    </g>
  </g>
  <g transform="translate(220,10)">
    <g class="primitive">
      <text text-anchor="middle" dy="-0.85em">go<tspan x="0" dy="1.2em">3,545,-1</tspan><tspan x="0" dy="1.2em">55,55</tspan></text>
    </g>
  </g>
  <g transform="translate(200,15)">
    <g class="primitive">
      <text text-anchor="middle" dy="-0.85em">deposit<tspan x="0" dy="1.2em">3,3,545</tspan><tspan x="0" dy="1.2em">55,55</tspan></text>
    </g>
  </g>
  <g transform="translate(180,15)">
    <g class="primitive">
      <text text-anchor="middle" dy="-0.85em">carry<tspan x="0" dy="1.2em">3,3,545</tspan><tspan x="0" dy="1.2em">38,55</tspan></text>
    </g>
  </g>
  <g transform="translate(160,15)">
    <g class="primitive">
      <text text-anchor="middle" dy="-0.85em">collect<tspan x="0" dy="1.2em">3,3,270</tspan><tspan x="0" dy="1.2em">38,38</tspan></text>
    </g>
  </g>
  <g transform="translate(320,42.5)">
    <g class="primitive">
      <text text-anchor="middle" dy="-0.85em">go<tspan x="0" dy="1.2em">2,277,-1</tspan><tspan x="0" dy="1.2em">76,76</tspan></text>
    </g>
  </g>
  <g transform="translate(300,50)">
    <g class="primitive">
      <text text-anchor="middle" dy="-0.85em">deposit<tspan x="0" dy="1.2em">2,5,277</tspan><tspan x="0" dy="1.2em">76,76</tspan></text>
    </g>
  </g>
  <g transform="translate(280,50)">
    <g class="primitive">
      <text text-anchor="middle" dy="-0.85em">carry<tspan x="0" dy="1.2em">2,5,277</tspan><tspan x="0" dy="1.2em">55,76</tspan></text>
    </g>
  </g>
  <g transform="translate(260,50)">
    <g class="primitive">
      <text text-anchor="middle" dy="-0.85em">collect<tspan x="0" dy="1.2em">2,5,197</tspan><tspan x="0" dy="1.2em">55,55</tspan></text>
    </g>
  </g>
  <g transform="translate(40,20)">
    <g class="primitive">
      <text text-anchor="middle" dy="-0.85em">go<tspan x="0" dy="1.2em">4,338,349</tspan><tspan x="0" dy="1.2em">0,11</tspan></text>
    </g>
  </g>
  <g transform="translate(20,20)">
    <g class="primitive">
      <text text-anchor="middle" dy="-0.25em">R4-338<tspan x="0" dy="1.2em">0,0</tspan></text>
    </g>
  </g>
  <g transform="translate(40,10)">
    <g class="primitive">
      <text text-anchor="middle" dy="-0.85em">go<tspan x="0" dy="1.2em">3,216,270</tspan><tspan x="0" dy="1.2em">0,11</tspan></text>
    </g>
  </g>
  <g transform="translate(20,10)">
    <g class="primitive">
      <text text-anchor="middle" dy="-0.25em">R3-216<tspan x="0" dy="1.2em">0,0</tspan></text>
    </g>
  </g>
  <g transform="translate(40,40)">
    <g class="primitive">
      <text text-anchor="middle" dy="-0.85em">go<tspan x="0" dy="1.2em">2,586,513</tspan><tspan x="0" dy="1.2em">0,8</tspan></text>
    </g>
  </g>
  <g transform="translate(20,40)">
    <g class="primitive">
      <text text-anchor="middle" dy="-0.25em">R2-586<tspan x="0" dy="1.2em">0,0</tspan></text>
    </g>
  </g>
  <g transform="translate(40,60)">
    <g class="primitive">
      <text text-anchor="middle" dy="-0.85em">go<tspan x="0" dy="1.2em">1,150,108</tspan><tspan x="0" dy="1.2em">0,10</tspan></text>
    </g>
  </g>
  <g transform="translate(20,60)">
    <g class="primitive">
      <text text-anchor="middle" dy="-0.25em">R1-150<tspan x="0" dy="1.2em">0,0</tspan></text>
    </g>
  </g>
  <g transform="translate(340,57.5)">
    <g class="primitive">
      <text text-anchor="middle" dy="-0.25em">O6-509<tspan x="0" dy="1.2em">76,76</tspan></text>
    </g>
  </g>
  <g transform="translate(240,45)">
    <g class="primitive">
      <text text-anchor="middle" dy="-0.25em">O5-197<tspan x="0" dy="1.2em">55,55</tspan></text>
    </g>
  </g>
  <g transform="translate(140,50)">
    <g class="primitive">
      <text text-anchor="middle" dy="-0.25em">O4-349<tspan x="0" dy="1.2em">18,18</tspan></text>
    </g>
  </g>
  <g transform="translate(140,30)">
    <g class="primitive">
      <text text-anchor="middle" dy="-0.25em">O3-270<tspan x="0" dy="1.2em">38,38</tspan></text>
    </g>
  </g>
  <g transform="translate(40,30)">
    <g class="primitive">
      <text text-anchor="middle" dy="-0.25em">O2-513<tspan x="0" dy="1.2em">0,0</tspan></text>
    </g>
  </g>
  <g transform="translate(40,50)">
    <g class="primitive">
      <text text-anchor="middle" dy="-0.25em">O1-108<tspan x="0" dy="1.2em">0,0</tspan></text>
    </g>
  </g>
  <g transform="translate(420,56.25)">
    <g class="primitive">
      <text text-anchor="middle" dy="-0.25em">op434<tspan x="0" dy="1.2em">88,88</tspan></text>
    </g>
  </g>
  <g transform="translate(120,50)">
    <g class="primitive">
      <text text-anchor="middle" dy="-0.25em">op433<tspan x="0" dy="1.2em">18,18</tspan></text>
    </g>
  </g>
  <g transform="translate(120,30)">
    <g class="primitive">
      <text text-anchor="middle" dy="-0.25em">op432<tspan x="0" dy="1.2em">38,38</tspan></text>
    </g>
  </g>
  <g transform="translate(220,45)">
    <g class="primitive">
      <text text-anchor="middle" dy="-0.25em">op431<tspan x="0" dy="1.2em">55,55</tspan></text>
    </g>
  </g>
  <g transform="translate(320,57.5)">
    <g class="primitive">
      <text text-anchor="middle" dy="-0.25em">op430<tspan x="0" dy="1.2em">76,76</tspan></text>
    </g>
  </g>
</g>
</svg>
