<?xml version="1.0" encoding="UTF-8"?>
<svg xmlns="http://www.w3.org/2000/svg"
     xmlns:xlink="http://www.w3.org/1999/xlink"
     xmlns:gadfly="http://www.gadflyjl.org/ns"
     version="1.2"
     width="1060mm" height="140mm" viewBox="0 0 1060 140"
     stroke="none"
     fill="#000000"
     stroke-width="0.3"
     font-size="3.88"
>
<defs>
  <marker id="arrow" markerWidth="15" markerHeight="7" refX="5" refY="3.5" orient="auto" markerUnits="strokeWidth">
    <path d="M0,0 L15,3.5 L0,7 z" stroke="context-stroke" fill="context-stroke"/>
  </marker>
</defs>
<g stroke="#000000" id="img-b3eb81ab-1">
  <g transform="translate(30,20)">
    <path fill="none" d="M-5.6,0 L 5.6 0" class="primitive"/>
  </g>
  <g transform="translate(30,110)">
    <path fill="none" d="M-5.6,0 L 5.6 0" class="primitive"/>
  </g>
  <g transform="translate(30,50)">
    <path fill="none" d="M-5.6,0 L 5.6 0" class="primitive"/>
  </g>
  <g transform="translate(1030,57.19)">
    <path fill="none" d="M-7.17,-4.25 L 7.17 4.25" class="primitive"/>
  </g>
  <g transform="translate(1030,45.31)">
    <path fill="none" d="M-7.17,4.25 L 7.17 -4.25" class="primitive"/>
  </g>
  <g transform="translate(1010,51.25)">
    <path fill="none" d="M-5.6,0 L 5.6 0" class="primitive"/>
  </g>
  <g transform="translate(990,51.25)">
    <path fill="none" d="M-5.6,0 L 5.6 0" class="primitive"/>
  </g>
  <g transform="translate(620,85.62)">
    <path fill="none" d="M-155.96,33.51 L 155.96 -33.51" class="primitive"/>
  </g>
  <g transform="translate(450,122.5)">
    <path fill="none" d="M-6.06,1.52 L 6.06 -1.52" class="primitive"/>
  </g>
  <g transform="translate(590,85.62)">
    <path fill="none" d="M-146.1,38.35 L 146.1 -38.35" class="primitive"/>
  </g>
  <g transform="translate(430,125)">
    <path fill="none" d="M-5.6,0 L 5.6 0" class="primitive"/>
  </g>
  <g transform="translate(410,125)">
    <path fill="none" d="M-5.6,0 L 5.6 0" class="primitive"/>
  </g>
  <g transform="translate(670,40)">
    <path fill="none" d="M-8.37,10.46 L 8.37 -10.46" class="primitive"/>
  </g>
  <g transform="translate(650,56.25)">
    <path fill="none" d="M-6.48,2.43 L 6.48 -2.43" class="primitive"/>
  </g>
  <g transform="translate(690,53.12)">
    <path fill="none" d="M-45.76,6.29 L 45.76 -6.29" class="primitive"/>
  </g>
  <g transform="translate(630,60)">
    <path fill="none" d="M-5.6,0 L 5.6 0" class="primitive"/>
  </g>
  <g transform="translate(610,60)">
    <path fill="none" d="M-5.6,0 L 5.6 0" class="primitive"/>
  </g>
  <g transform="translate(730,24.38)">
    <path fill="none" d="M-6.27,1.96 L 6.27 -1.96" class="primitive"/>
  </g>
  <g transform="translate(730,36.88)">
    <path fill="none" d="M-7.93,-7.43 L 7.93 7.43" class="primitive"/>
  </g>
  <g transform="translate(710,27.5)">
    <path fill="none" d="M-5.6,0 L 5.6 0" class="primitive"/>
  </g>
  <g transform="translate(690,27.5)">
    <path fill="none" d="M-5.6,0 L 5.6 0" class="primitive"/>
  </g>
  <g transform="translate(860,57.19)">
    <path fill="none" d="M-16.22,4.81 L 16.22 -4.81" class="primitive"/>
  </g>
  <g transform="translate(830,57.19)">
    <path fill="none" d="M-7.17,-4.25 L 7.17 4.25" class="primitive"/>
  </g>
  <g transform="translate(830,45.31)">
    <path fill="none" d="M-7.17,4.25 L 7.17 -4.25" class="primitive"/>
  </g>
  <g transform="translate(810,51.25)">
    <path fill="none" d="M-5.6,0 L 5.6 0" class="primitive"/>
  </g>
  <g transform="translate(790,51.25)">
    <path fill="none" d="M-5.6,0 L 5.6 0" class="primitive"/>
  </g>
  <g transform="translate(960,57.19)">
    <path fill="none" d="M-16.22,4.81 L 16.22 -4.81" class="primitive"/>
  </g>
  <g transform="translate(930,57.19)">
    <path fill="none" d="M-7.17,-4.25 L 7.17 4.25" class="primitive"/>
  </g>
  <g transform="translate(930,45.31)">
    <path fill="none" d="M-7.17,4.25 L 7.17 -4.25" class="primitive"/>
  </g>
  <g transform="translate(910,51.25)">
    <path fill="none" d="M-5.6,0 L 5.6 0" class="primitive"/>
  </g>
  <g transform="translate(890,51.25)">
    <path fill="none" d="M-5.6,0 L 5.6 0" class="primitive"/>
  </g>
  <g transform="translate(970,45.31)">
    <path fill="none" d="M-7.17,-4.25 L 7.17 4.25" class="primitive"/>
  </g>
  <g transform="translate(870,45.31)">
    <path fill="none" d="M-7.17,-4.25 L 7.17 4.25" class="primitive"/>
  </g>
  <g transform="translate(770,48.75)">
    <path fill="none" d="M-6.06,-1.52 L 6.06 1.52" class="primitive"/>
  </g>
  <g transform="translate(220,117.5)">
    <path fill="none" d="M-175.62,-7.32 L 175.62 7.32" class="primitive"/>
  </g>
  <g transform="translate(320,55)">
    <path fill="none" d="M-275.6,-4.92 L 275.6 4.92" class="primitive"/>
  </g>
  <g transform="translate(360,23.75)">
    <path fill="none" d="M-315.6,-3.7 L 315.6 3.7" class="primitive"/>
  </g>
  <g transform="translate(750,46.25)">
    <path fill="none" d="M-5.6,0 L 5.6 0" class="primitive"/>
  </g>
  <g transform="translate(850,39.38)">
    <path fill="none" d="M-5.6,0 L 5.6 0" class="primitive"/>
  </g>
  <g transform="translate(950,39.38)">
    <path fill="none" d="M-5.6,0 L 5.6 0" class="primitive"/>
  </g>
  <g transform="translate(200,32.5)">
    <path fill="none" d="M-135.6,-2.42 L 135.6 2.42" class="primitive"/>
  </g>
  <g transform="translate(130,87.5)">
    <path fill="none" d="M-25.66,2.14 L 25.66 -2.14" class="primitive"/>
  </g>
  <g transform="translate(110,77.5)">
    <path fill="none" d="M-6.06,-1.52 L 6.06 1.52" class="primitive"/>
  </g>
  <g transform="translate(110,72.5)">
    <path fill="none" d="M-6.06,1.52 L 6.06 -1.52" class="primitive"/>
  </g>
  <g transform="translate(130,97.5)">
    <path fill="none" d="M-105.6,2.4 L 105.6 -2.4" class="primitive"/>
  </g>
  <g transform="translate(30,70)">
    <path fill="none" d="M-5.6,0 L 5.6 0" class="primitive"/>
  </g>
  <g transform="translate(410,107.5)">
    <path fill="none" d="M-6.06,1.52 L 6.06 -1.52" class="primitive"/>
  </g>
  <g transform="translate(330,105)">
    <path fill="none" d="M-5.6,0 L 5.6 0" class="primitive"/>
  </g>
  <g transform="translate(250,95)">
    <path fill="none" d="M-5.6,0 L 5.6 0" class="primitive"/>
  </g>
  <g transform="translate(350,35)">
    <path fill="none" d="M-5.6,0 L 5.6 0" class="primitive"/>
  </g>
  <g transform="translate(90,75)">
    <path fill="none" d="M-5.6,0 L 5.6 0" class="primitive"/>
  </g>
  <g transform="translate(310,102.5)">
    <path fill="none" d="M-6.06,-1.52 L 6.06 1.52" class="primitive"/>
  </g>
  <g transform="translate(330,82.5)">
    <path fill="none" d="M-146.06,-36.52 L 146.06 36.52" class="primitive"/>
  </g>
  <g transform="translate(190,42.5)">
    <path fill="none" d="M-6.06,1.52 L 6.06 -1.52" class="primitive"/>
  </g>
  <g transform="translate(130,80)">
    <path fill="none" d="M-5.6,0 L 5.6 0" class="primitive"/>
  </g>
  <g transform="translate(530,55)">
    <path fill="none" d="M-5.6,0 L 5.6 0" class="primitive"/>
  </g>
  <g transform="translate(70,75)">
    <path fill="none" d="M-5.6,0 L 5.6 0" class="primitive"/>
  </g>
  <g transform="translate(150,82.5)">
    <path fill="none" d="M-6.06,-1.52 L 6.06 1.52" class="primitive"/>
  </g>
  <g transform="translate(450,105)">
    <path fill="none" d="M-5.6,0 L 5.6 0" class="primitive"/>
  </g>
  <g transform="translate(50,10)">
    <path fill="none" d="M-5.6,0 L 5.6 0" class="primitive"/>
  </g>
  <g transform="translate(40,77.5)">
    <path fill="none" d="M-15.73,1.97 L 15.73 -1.97" class="primitive"/>
  </g>
  <g transform="translate(570,50)">
    <path fill="none" d="M-6.89,3.44 L 6.89 -3.44" class="primitive"/>
  </g>
  <g transform="translate(570,60)">
    <path fill="none" d="M-6.89,-3.44 L 6.89 3.44" class="primitive"/>
  </g>
  <g transform="translate(170,45)">
    <path fill="none" d="M-5.6,0 L 5.6 0" class="primitive"/>
  </g>
  <g transform="translate(190,85)">
    <path fill="none" d="M-5.6,0 L 5.6 0" class="primitive"/>
  </g>
  <g transform="translate(50,90)">
    <path fill="none" d="M-5.6,0 L 5.6 0" class="primitive"/>
  </g>
  <g transform="translate(470,102.5)">
    <path fill="none" d="M-6.06,1.52 L 6.06 -1.52" class="primitive"/>
  </g>
  <g transform="translate(470,112.5)">
    <path fill="none" d="M-7.56,-5.67 L 7.56 5.67" class="primitive"/>
  </g>
  <g transform="translate(590,62.5)">
    <path fill="none" d="M-6.06,1.52 L 6.06 -1.52" class="primitive"/>
  </g>
  <g transform="translate(130,57.5)">
    <path fill="none" d="M-8.37,10.46 L 8.37 -10.46" class="primitive"/>
  </g>
  <g transform="translate(270,95)">
    <path fill="none" d="M-5.6,0 L 5.6 0" class="primitive"/>
  </g>
  <g transform="translate(290,97.5)">
    <path fill="none" d="M-6.06,-1.52 L 6.06 1.52" class="primitive"/>
  </g>
  <g transform="translate(290,92.5)">
    <path fill="none" d="M-6.06,1.52 L 6.06 -1.52" class="primitive"/>
  </g>
  <g transform="translate(50,72.5)">
    <path fill="none" d="M-6.06,-1.52 L 6.06 1.52" class="primitive"/>
  </g>
  <g transform="translate(390,100)">
    <path fill="none" d="M-5.6,0 L 5.6 0" class="primitive"/>
  </g>
  <g transform="translate(50,30)">
    <path fill="none" d="M-5.6,0 L 5.6 0" class="primitive"/>
  </g>
  <g transform="translate(410,102.5)">
    <path fill="none" d="M-6.06,-1.52 L 6.06 1.52" class="primitive"/>
  </g>
  <g transform="translate(90,90)">
    <path fill="none" d="M-5.6,0 L 5.6 0" class="primitive"/>
  </g>
  <g transform="translate(30,90)">
    <path fill="none" d="M-5.6,0 L 5.6 0" class="primitive"/>
  </g>
  <g transform="translate(350,105)">
    <path fill="none" d="M-5.6,0 L 5.6 0" class="primitive"/>
  </g>
  <g transform="translate(430,105)">
    <path fill="none" d="M-5.6,0 L 5.6 0" class="primitive"/>
  </g>
  <g transform="translate(370,75)">
    <path fill="none" d="M-9.45,-37.82 L 9.45 37.82" class="primitive"/>
  </g>
  <g transform="translate(150,45)">
    <path fill="none" d="M-5.6,0 L 5.6 0" class="primitive"/>
  </g>
  <g transform="translate(310,90)">
    <path fill="none" d="M-5.6,0 L 5.6 0" class="primitive"/>
  </g>
  <g transform="translate(370,102.5)">
    <path fill="none" d="M-6.06,1.52 L 6.06 -1.52" class="primitive"/>
  </g>
  <g transform="translate(370,117.5)">
    <path fill="none" d="M-8.37,-10.46 L 8.37 10.46" class="primitive"/>
  </g>
  <g transform="translate(210,82.5)">
    <path fill="none" d="M-6.06,1.52 L 6.06 -1.52" class="primitive"/>
  </g>
  <g transform="translate(210,87.5)">
    <path fill="none" d="M-6.06,-1.52 L 6.06 1.52" class="primitive"/>
  </g>
  <g transform="translate(170,82.5)">
    <path fill="none" d="M-145.79,-21.87 L 145.79 21.87" class="primitive"/>
  </g>
  <g transform="translate(230,92.5)">
    <path fill="none" d="M-6.06,-1.52 L 6.06 1.52" class="primitive"/>
  </g>
  <g transform="translate(390,112.5)">
    <path fill="none" d="M-6.06,1.52 L 6.06 -1.52" class="primitive"/>
  </g>
  <g transform="translate(430,117.5)">
    <path fill="none" d="M-45.62,-2.28 L 45.62 2.28" class="primitive"/>
  </g>
  <g transform="translate(70,90)">
    <path fill="none" d="M-5.6,0 L 5.6 0" class="primitive"/>
  </g>
  <g transform="translate(390,127.5)">
    <path fill="none" d="M-6.06,1.52 L 6.06 -1.52" class="primitive"/>
  </g>
  <g transform="translate(490,120)">
    <path fill="none" d="M-5.6,0 L 5.6 0" class="primitive"/>
  </g>
  <g transform="translate(30,30)">
    <path fill="none" d="M-5.6,0 L 5.6 0" class="primitive"/>
  </g>
  <g transform="translate(330,62.5)">
    <path fill="none" d="M-9.21,25.34 L 9.21 -25.34" class="primitive"/>
  </g>
  <g transform="translate(80,42.5)">
    <path fill="none" d="M-55.62,-2.32 L 55.62 2.32" class="primitive"/>
  </g>
  <g transform="translate(170,85)">
    <path fill="none" d="M-5.6,0 L 5.6 0" class="primitive"/>
  </g>
  <g transform="translate(550,55)">
    <path fill="none" d="M-5.6,0 L 5.6 0" class="primitive"/>
  </g>
  <g transform="translate(510,87.5)">
    <path fill="none" d="M-9.33,30.33 L 9.33 -30.33" class="primitive"/>
  </g>
  <g transform="translate(30,10)">
    <path fill="none" d="M-5.6,0 L 5.6 0" class="primitive"/>
  </g>
  <g transform="translate(360,47.5)">
    <path fill="none" d="M-155.62,-7.29 L 155.62 7.29" class="primitive"/>
  </g>
</g>
<g fill="#FF0000" id="img-b3eb81ab-2">
  <g transform="translate(20,20)">
    <circle cx="0" cy="0" r="4" class="primitive"/>
  </g>
</g>
<g fill="#FF0000" id="img-b3eb81ab-3">
  <g transform="translate(20,110)">
    <circle cx="0" cy="0" r="4" class="primitive"/>
  </g>
</g>
<g fill="#FF0000" id="img-b3eb81ab-4">
  <g transform="translate(20,50)">
    <circle cx="0" cy="0" r="4" class="primitive"/>
  </g>
</g>
<g fill="#00FFFF" id="img-b3eb81ab-5">
  <g transform="translate(1040,63.12)">
    <circle cx="0" cy="0" r="4" class="primitive"/>
  </g>
</g>
<g fill="#00FFFF" id="img-b3eb81ab-6">
  <g transform="translate(1020,51.25)">
    <circle cx="0" cy="0" r="4" class="primitive"/>
  </g>
</g>
<g fill="#00FFFF" id="img-b3eb81ab-7">
  <g transform="translate(1000,51.25)">
    <circle cx="0" cy="0" r="4" class="primitive"/>
  </g>
</g>
<g fill="#00FFFF" id="img-b3eb81ab-8">
  <g transform="translate(980,51.25)">
    <circle cx="0" cy="0" r="4" class="primitive"/>
  </g>
</g>
<g fill="#00FFFF" id="img-b3eb81ab-9">
  <g transform="translate(460,120)">
    <circle cx="0" cy="0" r="4" class="primitive"/>
  </g>
</g>
<g fill="#00FFFF" id="img-b3eb81ab-10">
  <g transform="translate(440,125)">
    <circle cx="0" cy="0" r="4" class="primitive"/>
  </g>
</g>
<g fill="#00FFFF" id="img-b3eb81ab-11">
  <g transform="translate(420,125)">
    <circle cx="0" cy="0" r="4" class="primitive"/>
  </g>
</g>
<g fill="#00FFFF" id="img-b3eb81ab-12">
  <g transform="translate(400,125)">
    <circle cx="0" cy="0" r="4" class="primitive"/>
  </g>
</g>
<g fill="#00FFFF" id="img-b3eb81ab-13">
  <g transform="translate(660,52.5)">
    <circle cx="0" cy="0" r="4" class="primitive"/>
  </g>
</g>
<g fill="#00FFFF" id="img-b3eb81ab-14">
  <g transform="translate(640,60)">
    <circle cx="0" cy="0" r="4" class="primitive"/>
  </g>
</g>
<g fill="#00FFFF" id="img-b3eb81ab-15">
  <g transform="translate(620,60)">
    <circle cx="0" cy="0" r="4" class="primitive"/>
  </g>
</g>
<g fill="#00FFFF" id="img-b3eb81ab-16">
  <g transform="translate(600,60)">
    <circle cx="0" cy="0" r="4" class="primitive"/>
  </g>
</g>
<g fill="#00FFFF" id="img-b3eb81ab-17">
  <g transform="translate(740,21.25)">
    <circle cx="0" cy="0" r="4" class="primitive"/>
  </g>
</g>
<g fill="#00FFFF" id="img-b3eb81ab-18">
  <g transform="translate(720,27.5)">
    <circle cx="0" cy="0" r="4" class="primitive"/>
  </g>
</g>
<g fill="#00FFFF" id="img-b3eb81ab-19">
  <g transform="translate(700,27.5)">
    <circle cx="0" cy="0" r="4" class="primitive"/>
  </g>
</g>
<g fill="#00FFFF" id="img-b3eb81ab-20">
  <g transform="translate(680,27.5)">
    <circle cx="0" cy="0" r="4" class="primitive"/>
  </g>
</g>
<g fill="#00FFFF" id="img-b3eb81ab-21">
  <g transform="translate(840,63.12)">
    <circle cx="0" cy="0" r="4" class="primitive"/>
  </g>
</g>
<g fill="#00FFFF" id="img-b3eb81ab-22">
  <g transform="translate(820,51.25)">
    <circle cx="0" cy="0" r="4" class="primitive"/>
  </g>
</g>
<g fill="#00FFFF" id="img-b3eb81ab-23">
  <g transform="translate(800,51.25)">
    <circle cx="0" cy="0" r="4" class="primitive"/>
  </g>
</g>
<g fill="#00FFFF" id="img-b3eb81ab-24">
  <g transform="translate(780,51.25)">
    <circle cx="0" cy="0" r="4" class="primitive"/>
  </g>
</g>
<g fill="#00FFFF" id="img-b3eb81ab-25">
  <g transform="translate(940,63.12)">
    <circle cx="0" cy="0" r="4" class="primitive"/>
  </g>
</g>
<g fill="#00FFFF" id="img-b3eb81ab-26">
  <g transform="translate(920,51.25)">
    <circle cx="0" cy="0" r="4" class="primitive"/>
  </g>
</g>
<g fill="#00FFFF" id="img-b3eb81ab-27">
  <g transform="translate(900,51.25)">
    <circle cx="0" cy="0" r="4" class="primitive"/>
  </g>
</g>
<g fill="#00FFFF" id="img-b3eb81ab-28">
  <g transform="translate(880,51.25)">
    <circle cx="0" cy="0" r="4" class="primitive"/>
  </g>
</g>
<g fill="#FFA500" id="img-b3eb81ab-29">
  <g transform="translate(960,39.38)">
    <circle cx="0" cy="0" r="4" class="primitive"/>
  </g>
</g>
<g fill="#FFA500" id="img-b3eb81ab-30">
  <g transform="translate(860,39.38)">
    <circle cx="0" cy="0" r="4" class="primitive"/>
  </g>
</g>
<g fill="#FFA500" id="img-b3eb81ab-31">
  <g transform="translate(760,46.25)">
    <circle cx="0" cy="0" r="4" class="primitive"/>
  </g>
</g>
<g fill="#FFA500" id="img-b3eb81ab-32">
  <g transform="translate(40,110)">
    <circle cx="0" cy="0" r="4" class="primitive"/>
  </g>
</g>
<g fill="#FFA500" id="img-b3eb81ab-33">
  <g transform="translate(40,50)">
    <circle cx="0" cy="0" r="4" class="primitive"/>
  </g>
</g>
<g fill="#FFA500" id="img-b3eb81ab-34">
  <g transform="translate(40,20)">
    <circle cx="0" cy="0" r="4" class="primitive"/>
  </g>
</g>
<g fill="#FF0000" id="img-b3eb81ab-35">
  <g transform="translate(1040,39.38)">
    <circle cx="0" cy="0" r="4" class="primitive"/>
  </g>
</g>
<g fill="#FF0000" id="img-b3eb81ab-36">
  <g transform="translate(740,46.25)">
    <circle cx="0" cy="0" r="4" class="primitive"/>
  </g>
</g>
<g fill="#FF0000" id="img-b3eb81ab-37">
  <g transform="translate(840,39.38)">
    <circle cx="0" cy="0" r="4" class="primitive"/>
  </g>
</g>
<g fill="#FF0000" id="img-b3eb81ab-38">
  <g transform="translate(940,39.38)">
    <circle cx="0" cy="0" r="4" class="primitive"/>
  </g>
</g>
<g fill="#00FFFF" id="img-b3eb81ab-39">
  <g transform="translate(60,10)">
    <circle cx="0" cy="0" r="4" class="primitive"/>
  </g>
</g>
<g fill="#00FFFF" id="img-b3eb81ab-40">
  <g transform="translate(60,30)">
    <circle cx="0" cy="0" r="4" class="primitive"/>
  </g>
</g>
<g fill="#00FFFF" id="img-b3eb81ab-41">
  <g transform="translate(100,90)">
    <circle cx="0" cy="0" r="4" class="primitive"/>
  </g>
</g>
<g fill="#00FFFF" id="img-b3eb81ab-42">
  <g transform="translate(100,75)">
    <circle cx="0" cy="0" r="4" class="primitive"/>
  </g>
</g>
<g fill="#FF0000" id="img-b3eb81ab-43">
  <g transform="translate(220,80)">
    <circle cx="0" cy="0" r="4" class="primitive"/>
  </g>
</g>
<g fill="#FF0000" id="img-b3eb81ab-44">
  <g transform="translate(580,45)">
    <circle cx="0" cy="0" r="4" class="primitive"/>
  </g>
</g>
<g fill="#00FFFF" id="img-b3eb81ab-45">
  <g transform="translate(480,100)">
    <circle cx="0" cy="0" r="4" class="primitive"/>
  </g>
</g>
<g fill="#FFA500" id="img-b3eb81ab-46">
  <g transform="translate(20,100)">
    <circle cx="0" cy="0" r="4" class="primitive"/>
  </g>
</g>
<g fill="#00FF00" id="img-b3eb81ab-47">
  <g transform="translate(20,70)">
    <circle cx="0" cy="0" r="4" class="primitive"/>
  </g>
</g>
<g fill="#00FFFF" id="img-b3eb81ab-48">
  <g transform="translate(400,110)">
    <circle cx="0" cy="0" r="4" class="primitive"/>
  </g>
</g>
<g fill="#00FFFF" id="img-b3eb81ab-49">
  <g transform="translate(320,105)">
    <circle cx="0" cy="0" r="4" class="primitive"/>
  </g>
</g>
<g fill="#00FFFF" id="img-b3eb81ab-50">
  <g transform="translate(240,95)">
    <circle cx="0" cy="0" r="4" class="primitive"/>
  </g>
</g>
<g fill="#00FFFF" id="img-b3eb81ab-51">
  <g transform="translate(340,35)">
    <circle cx="0" cy="0" r="4" class="primitive"/>
  </g>
</g>
<g fill="#00FFFF" id="img-b3eb81ab-52">
  <g transform="translate(80,75)">
    <circle cx="0" cy="0" r="4" class="primitive"/>
  </g>
</g>
<g fill="#00FFFF" id="img-b3eb81ab-53">
  <g transform="translate(300,100)">
    <circle cx="0" cy="0" r="4" class="primitive"/>
  </g>
</g>
<g fill="#00FFFF" id="img-b3eb81ab-54">
  <g transform="translate(180,45)">
    <circle cx="0" cy="0" r="4" class="primitive"/>
  </g>
</g>
<g fill="#FF0000" id="img-b3eb81ab-55">
  <g transform="translate(120,80)">
    <circle cx="0" cy="0" r="4" class="primitive"/>
  </g>
</g>
<g fill="#00FFFF" id="img-b3eb81ab-56">
  <g transform="translate(520,55)">
    <circle cx="0" cy="0" r="4" class="primitive"/>
  </g>
</g>
<g fill="#00FFFF" id="img-b3eb81ab-57">
  <g transform="translate(60,75)">
    <circle cx="0" cy="0" r="4" class="primitive"/>
  </g>
</g>
<g fill="#FFA500" id="img-b3eb81ab-58">
  <g transform="translate(140,80)">
    <circle cx="0" cy="0" r="4" class="primitive"/>
  </g>
</g>
<g fill="#00FFFF" id="img-b3eb81ab-59">
  <g transform="translate(440,105)">
    <circle cx="0" cy="0" r="4" class="primitive"/>
  </g>
</g>
<g fill="#00FFFF" id="img-b3eb81ab-60">
  <g transform="translate(40,10)">
    <circle cx="0" cy="0" r="4" class="primitive"/>
  </g>
</g>
<g fill="#FFA500" id="img-b3eb81ab-61">
  <g transform="translate(20,80)">
    <circle cx="0" cy="0" r="4" class="primitive"/>
  </g>
</g>
<g fill="#00FFFF" id="img-b3eb81ab-62">
  <g transform="translate(560,55)">
    <circle cx="0" cy="0" r="4" class="primitive"/>
  </g>
</g>
<g fill="#00FFFF" id="img-b3eb81ab-63">
  <g transform="translate(160,45)">
    <circle cx="0" cy="0" r="4" class="primitive"/>
  </g>
</g>
<g fill="#00FFFF" id="img-b3eb81ab-64">
  <g transform="translate(180,85)">
    <circle cx="0" cy="0" r="4" class="primitive"/>
  </g>
</g>
<g fill="#00FFFF" id="img-b3eb81ab-65">
  <g transform="translate(40,90)">
    <circle cx="0" cy="0" r="4" class="primitive"/>
  </g>
</g>
<g fill="#00FFFF" id="img-b3eb81ab-66">
  <g transform="translate(460,105)">
    <circle cx="0" cy="0" r="4" class="primitive"/>
  </g>
</g>
<g fill="#00FFFF" id="img-b3eb81ab-67">
  <g transform="translate(580,65)">
    <circle cx="0" cy="0" r="4" class="primitive"/>
  </g>
</g>
<g fill="#00FFFF" id="img-b3eb81ab-68">
  <g transform="translate(120,70)">
    <circle cx="0" cy="0" r="4" class="primitive"/>
  </g>
</g>
<g fill="#00FFFF" id="img-b3eb81ab-69">
  <g transform="translate(260,95)">
    <circle cx="0" cy="0" r="4" class="primitive"/>
  </g>
</g>
<g fill="#00FFFF" id="img-b3eb81ab-70">
  <g transform="translate(280,95)">
    <circle cx="0" cy="0" r="4" class="primitive"/>
  </g>
</g>
<g fill="#00FFFF" id="img-b3eb81ab-71">
  <g transform="translate(40,70)">
    <circle cx="0" cy="0" r="4" class="primitive"/>
  </g>
</g>
<g fill="#FF0000" id="img-b3eb81ab-72">
  <g transform="translate(380,100)">
    <circle cx="0" cy="0" r="4" class="primitive"/>
  </g>
</g>
<g fill="#00FFFF" id="img-b3eb81ab-73">
  <g transform="translate(40,30)">
    <circle cx="0" cy="0" r="4" class="primitive"/>
  </g>
</g>
<g fill="#FFA500" id="img-b3eb81ab-74">
  <g transform="translate(400,100)">
    <circle cx="0" cy="0" r="4" class="primitive"/>
  </g>
</g>
<g fill="#00FFFF" id="img-b3eb81ab-75">
  <g transform="translate(80,90)">
    <circle cx="0" cy="0" r="4" class="primitive"/>
  </g>
</g>
<g fill="#00FF00" id="img-b3eb81ab-76">
  <g transform="translate(20,90)">
    <circle cx="0" cy="0" r="4" class="primitive"/>
  </g>
</g>
<g fill="#00FFFF" id="img-b3eb81ab-77">
  <g transform="translate(340,105)">
    <circle cx="0" cy="0" r="4" class="primitive"/>
  </g>
</g>
<g fill="#00FFFF" id="img-b3eb81ab-78">
  <g transform="translate(420,105)">
    <circle cx="0" cy="0" r="4" class="primitive"/>
  </g>
</g>
<g fill="#00FFFF" id="img-b3eb81ab-79">
  <g transform="translate(360,35)">
    <circle cx="0" cy="0" r="4" class="primitive"/>
  </g>
</g>
<g fill="#00FFFF" id="img-b3eb81ab-80">
  <g transform="translate(140,45)">
    <circle cx="0" cy="0" r="4" class="primitive"/>
  </g>
</g>
<g fill="#FF0000" id="img-b3eb81ab-81">
  <g transform="translate(300,90)">
    <circle cx="0" cy="0" r="4" class="primitive"/>
  </g>
</g>
<g fill="#00FFFF" id="img-b3eb81ab-82">
  <g transform="translate(360,105)">
    <circle cx="0" cy="0" r="4" class="primitive"/>
  </g>
</g>
<g fill="#00FFFF" id="img-b3eb81ab-83">
  <g transform="translate(200,85)">
    <circle cx="0" cy="0" r="4" class="primitive"/>
  </g>
</g>
<g fill="#FFA500" id="img-b3eb81ab-84">
  <g transform="translate(20,60)">
    <circle cx="0" cy="0" r="4" class="primitive"/>
  </g>
</g>
<g fill="#00FFFF" id="img-b3eb81ab-85">
  <g transform="translate(220,90)">
    <circle cx="0" cy="0" r="4" class="primitive"/>
  </g>
</g>
<g fill="#00FFFF" id="img-b3eb81ab-86">
  <g transform="translate(380,115)">
    <circle cx="0" cy="0" r="4" class="primitive"/>
  </g>
</g>
<g fill="#00FFFF" id="img-b3eb81ab-87">
  <g transform="translate(60,90)">
    <circle cx="0" cy="0" r="4" class="primitive"/>
  </g>
</g>
<g fill="#00FFFF" id="img-b3eb81ab-88">
  <g transform="translate(380,130)">
    <circle cx="0" cy="0" r="4" class="primitive"/>
  </g>
</g>
<g fill="#FF0000" id="img-b3eb81ab-89">
  <g transform="translate(480,120)">
    <circle cx="0" cy="0" r="4" class="primitive"/>
  </g>
</g>
<g fill="#00FF00" id="img-b3eb81ab-90">
  <g transform="translate(20,30)">
    <circle cx="0" cy="0" r="4" class="primitive"/>
  </g>
</g>
<g fill="#FFA500" id="img-b3eb81ab-91">
  <g transform="translate(320,90)">
    <circle cx="0" cy="0" r="4" class="primitive"/>
  </g>
</g>
<g fill="#FFA500" id="img-b3eb81ab-92">
  <g transform="translate(20,40)">
    <circle cx="0" cy="0" r="4" class="primitive"/>
  </g>
</g>
<g fill="#00FFFF" id="img-b3eb81ab-93">
  <g transform="translate(160,85)">
    <circle cx="0" cy="0" r="4" class="primitive"/>
  </g>
</g>
<g fill="#00FFFF" id="img-b3eb81ab-94">
  <g transform="translate(540,55)">
    <circle cx="0" cy="0" r="4" class="primitive"/>
  </g>
</g>
<g fill="#FFA500" id="img-b3eb81ab-95">
  <g transform="translate(500,120)">
    <circle cx="0" cy="0" r="4" class="primitive"/>
  </g>
</g>
<g fill="#00FF00" id="img-b3eb81ab-96">
  <g transform="translate(20,10)">
    <circle cx="0" cy="0" r="4" class="primitive"/>
  </g>
</g>
<g fill="#00FFFF" id="img-b3eb81ab-97">
  <g transform="translate(200,40)">
    <circle cx="0" cy="0" r="4" class="primitive"/>
  </g>
</g>
<g font-family="futura" font-size="3.53" stroke="#000000" id="img-b3eb81ab-98">
  <g transform="translate(20,20)">
    <g class="primitive">
      <text text-anchor="middle" dy="-0.25em">op450<tspan x="0" dy="1.2em">0,0</tspan></text>
    </g>
  </g>
  <g transform="translate(20,110)">
    <g class="primitive">
      <text text-anchor="middle" dy="-0.25em">op449<tspan x="0" dy="1.2em">0,0</tspan></text>
    </g>
  </g>
  <g transform="translate(20,50)">
    <g class="primitive">
      <text text-anchor="middle" dy="-0.25em">op448<tspan x="0" dy="1.2em">0,0</tspan></text>
    </g>
  </g>
  <g transform="translate(1040,63.12)">
    <g class="primitive">
      <text text-anchor="middle" dy="-0.85em">go<tspan x="0" dy="1.2em">1,362,-1</tspan><tspan x="0" dy="1.2em">242,242</tspan></text>
    </g>
  </g>
  <g transform="translate(1020,51.25)">
    <g class="primitive">
      <text text-anchor="middle" dy="-0.85em">deposit<tspan x="0" dy="1.2em">1,18,362</tspan><tspan x="0" dy="1.2em">242,242</tspan></text>
    </g>
  </g>
  <g transform="translate(1000,51.25)">
    <g class="primitive">
      <text text-anchor="middle" dy="-0.85em">carry<tspan x="0" dy="1.2em">1,18,362</tspan><tspan x="0" dy="1.2em">234,242</tspan></text>
    </g>
  </g>
  <g transform="translate(980,51.25)">
    <g class="primitive">
      <text text-anchor="middle" dy="-0.85em">collect<tspan x="0" dy="1.2em">1,18,197</tspan><tspan x="0" dy="1.2em">234,234</tspan></text>
    </g>
  </g>
  <g transform="translate(460,120)">
    <g class="primitive">
      <text text-anchor="middle" dy="-0.85em">go<tspan x="0" dy="1.2em">1,247,244</tspan><tspan x="0" dy="1.2em">155,158</tspan></text>
    </g>
  </g>
  <g transform="translate(440,125)">
    <g class="primitive">
      <text text-anchor="middle" dy="-0.85em">deposit<tspan x="0" dy="1.2em">1,15,247</tspan><tspan x="0" dy="1.2em">155,155</tspan></text>
    </g>
  </g>
  <g transform="translate(420,125)">
    <g class="primitive">
      <text text-anchor="middle" dy="-0.85em">carry<tspan x="0" dy="1.2em">1,15,247</tspan><tspan x="0" dy="1.2em">137,155</tspan></text>
    </g>
  </g>
  <g transform="translate(400,125)">
    <g class="primitive">
      <text text-anchor="middle" dy="-0.85em">collect<tspan x="0" dy="1.2em">1,15,57</tspan><tspan x="0" dy="1.2em">137,137</tspan></text>
    </g>
  </g>
  <g transform="translate(660,52.5)">
    <g class="primitive">
      <text text-anchor="middle" dy="-0.85em">go<tspan x="0" dy="1.2em">2,239,221</tspan><tspan x="0" dy="1.2em">167,168</tspan></text>
    </g>
  </g>
  <g transform="translate(640,60)">
    <g class="primitive">
      <text text-anchor="middle" dy="-0.85em">deposit<tspan x="0" dy="1.2em">2,14,239</tspan><tspan x="0" dy="1.2em">167,167</tspan></text>
    </g>
  </g>
  <g transform="translate(620,60)">
    <g class="primitive">
      <text text-anchor="middle" dy="-0.85em">carry<tspan x="0" dy="1.2em">2,14,239</tspan><tspan x="0" dy="1.2em">149,167</tspan></text>
    </g>
  </g>
  <g transform="translate(600,60)">
    <g class="primitive">
      <text text-anchor="middle" dy="-0.85em">collect<tspan x="0" dy="1.2em">2,14,349</tspan><tspan x="0" dy="1.2em">149,149</tspan></text>
    </g>
  </g>
  <g transform="translate(740,21.25)">
    <g class="primitive">
      <text text-anchor="middle" dy="-0.85em">go<tspan x="0" dy="1.2em">2,510,-1</tspan><tspan x="0" dy="1.2em">195,195</tspan></text>
    </g>
  </g>
  <g transform="translate(720,27.5)">
    <g class="primitive">
      <text text-anchor="middle" dy="-0.85em">deposit<tspan x="0" dy="1.2em">2,13,510</tspan><tspan x="0" dy="1.2em">195,195</tspan></text>
    </g>
  </g>
  <g transform="translate(700,27.5)">
    <g class="primitive">
      <text text-anchor="middle" dy="-0.85em">carry<tspan x="0" dy="1.2em">2,13,510</tspan><tspan x="0" dy="1.2em">168,195</tspan></text>
    </g>
  </g>
  <g transform="translate(680,27.5)">
    <g class="primitive">
      <text text-anchor="middle" dy="-0.85em">collect<tspan x="0" dy="1.2em">2,13,221</tspan><tspan x="0" dy="1.2em">168,168</tspan></text>
    </g>
  </g>
  <g transform="translate(840,63.12)">
    <g class="primitive">
      <text text-anchor="middle" dy="-0.85em">go<tspan x="0" dy="1.2em">1,111,108</tspan><tspan x="0" dy="1.2em">210,213</tspan></text>
    </g>
  </g>
  <g transform="translate(820,51.25)">
    <g class="primitive">
      <text text-anchor="middle" dy="-0.85em">deposit<tspan x="0" dy="1.2em">1,16,111</tspan><tspan x="0" dy="1.2em">210,210</tspan></text>
    </g>
  </g>
  <g transform="translate(800,51.25)">
    <g class="primitive">
      <text text-anchor="middle" dy="-0.85em">carry<tspan x="0" dy="1.2em">1,16,111</tspan><tspan x="0" dy="1.2em">195,210</tspan></text>
    </g>
  </g>
  <g transform="translate(780,51.25)">
    <g class="primitive">
      <text text-anchor="middle" dy="-0.85em">collect<tspan x="0" dy="1.2em">1,16,244</tspan><tspan x="0" dy="1.2em">195,195</tspan></text>
    </g>
  </g>
  <g transform="translate(940,63.12)">
    <g class="primitive">
      <text text-anchor="middle" dy="-0.85em">go<tspan x="0" dy="1.2em">1,62,197</tspan><tspan x="0" dy="1.2em">223,234</tspan></text>
    </g>
  </g>
  <g transform="translate(920,51.25)">
    <g class="primitive">
      <text text-anchor="middle" dy="-0.85em">deposit<tspan x="0" dy="1.2em">1,17,62</tspan><tspan x="0" dy="1.2em">223,223</tspan></text>
    </g>
  </g>
  <g transform="translate(900,51.25)">
    <g class="primitive">
      <text text-anchor="middle" dy="-0.85em">carry<tspan x="0" dy="1.2em">1,17,62</tspan><tspan x="0" dy="1.2em">213,223</tspan></text>
    </g>
  </g>
  <g transform="translate(880,51.25)">
    <g class="primitive">
      <text text-anchor="middle" dy="-0.85em">collect<tspan x="0" dy="1.2em">1,17,108</tspan><tspan x="0" dy="1.2em">213,213</tspan></text>
    </g>
  </g>
  <g transform="translate(960,39.38)">
    <g class="primitive">
      <text text-anchor="middle" dy="-0.25em">O18-197<tspan x="0" dy="1.2em">223,223</tspan></text>
    </g>
  </g>
  <g transform="translate(860,39.38)">
    <g class="primitive">
      <text text-anchor="middle" dy="-0.25em">O17-108<tspan x="0" dy="1.2em">210,210</tspan></text>
    </g>
  </g>
  <g transform="translate(760,46.25)">
    <g class="primitive">
      <text text-anchor="middle" dy="-0.25em">O16-244<tspan x="0" dy="1.2em">195,195</tspan></text>
    </g>
  </g>
  <g transform="translate(40,110)">
    <g class="primitive">
      <text text-anchor="middle" dy="-0.25em">O15-57<tspan x="0" dy="1.2em">0,0</tspan></text>
    </g>
  </g>
  <g transform="translate(40,50)">
    <g class="primitive">
      <text text-anchor="middle" dy="-0.25em">O14-349<tspan x="0" dy="1.2em">0,0</tspan></text>
    </g>
  </g>
  <g transform="translate(40,20)">
    <g class="primitive">
      <text text-anchor="middle" dy="-0.25em">O13-221<tspan x="0" dy="1.2em">0,0</tspan></text>
    </g>
  </g>
  <g transform="translate(1040,39.38)">
    <g class="primitive">
      <text text-anchor="middle" dy="-0.25em">op447<tspan x="0" dy="1.2em">242,242</tspan></text>
    </g>
  </g>
  <g transform="translate(740,46.25)">
    <g class="primitive">
      <text text-anchor="middle" dy="-0.25em">op446<tspan x="0" dy="1.2em">195,195</tspan></text>
    </g>
  </g>
  <g transform="translate(840,39.38)">
    <g class="primitive">
      <text text-anchor="middle" dy="-0.25em">op445<tspan x="0" dy="1.2em">210,210</tspan></text>
    </g>
  </g>
  <g transform="translate(940,39.38)">
    <g class="primitive">
      <text text-anchor="middle" dy="-0.25em">op444<tspan x="0" dy="1.2em">223,223</tspan></text>
    </g>
  </g>
  <g transform="translate(60,10)">
    <g class="primitive">
      <text text-anchor="middle" dy="-0.85em">go<tspan x="0" dy="1.2em">3,545,-1</tspan><tspan x="0" dy="1.2em">7,7</tspan></text>
    </g>
  </g>
  <g transform="translate(60,30)">
    <g class="primitive">
      <text text-anchor="middle" dy="-0.85em">go<tspan x="0" dy="1.2em">4,221,221</tspan><tspan x="0" dy="1.2em">23,23</tspan></text>
    </g>
  </g>
  <g transform="translate(100,90)">
    <g class="primitive">
      <text text-anchor="middle" dy="-0.85em">go<tspan x="0" dy="1.2em">1,509,509</tspan><tspan x="0" dy="1.2em">44,44</tspan></text>
    </g>
  </g>
  <g transform="translate(100,75)">
    <g class="primitive">
      <text text-anchor="middle" dy="-0.85em">deposit<tspan x="0" dy="1.2em">2,5,277</tspan><tspan x="0" dy="1.2em">22,22</tspan></text>
    </g>
  </g>
  <g transform="translate(220,80)">
    <g class="primitive">
      <text text-anchor="middle" dy="-0.25em">op434<tspan x="0" dy="1.2em">56,56</tspan></text>
    </g>
  </g>
  <g transform="translate(580,45)">
    <g class="primitive">
      <text text-anchor="middle" dy="-0.25em">op440<tspan x="0" dy="1.2em">143,143</tspan></text>
    </g>
  </g>
  <g transform="translate(480,100)">
    <g class="primitive">
      <text text-anchor="middle" dy="-0.85em">go<tspan x="0" dy="1.2em">4,510,-1</tspan><tspan x="0" dy="1.2em">131,131</tspan></text>
    </g>
  </g>
  <g transform="translate(20,100)">
    <g class="primitive">
      <text text-anchor="middle" dy="-0.25em">O8-380<tspan x="0" dy="1.2em">0,0</tspan></text>
    </g>
  </g>
  <g transform="translate(20,70)">
    <g class="primitive">
      <text text-anchor="middle" dy="-0.25em">R2-196<tspan x="0" dy="1.2em">0,0</tspan></text>
    </g>
  </g>
  <g transform="translate(400,110)">
    <g class="primitive">
      <text text-anchor="middle" dy="-0.85em">go<tspan x="0" dy="1.2em">4,502,505</tspan><tspan x="0" dy="1.2em">110,113</tspan></text>
    </g>
  </g>
  <g transform="translate(320,105)">
    <g class="primitive">
      <text text-anchor="middle" dy="-0.85em">collect<tspan x="0" dy="1.2em">1,7,63</tspan><tspan x="0" dy="1.2em">109,109</tspan></text>
    </g>
  </g>
  <g transform="translate(240,95)">
    <g class="primitive">
      <text text-anchor="middle" dy="-0.85em">collect<tspan x="0" dy="1.2em">1,8,380</tspan><tspan x="0" dy="1.2em">64,64</tspan></text>
    </g>
  </g>
  <g transform="translate(340,35)">
    <g class="primitive">
      <text text-anchor="middle" dy="-0.85em">collect<tspan x="0" dy="1.2em">4,9,221</tspan><tspan x="0" dy="1.2em">95,95</tspan></text>
    </g>
  </g>
  <g transform="translate(80,75)">
    <g class="primitive">
      <text text-anchor="middle" dy="-0.85em">carry<tspan x="0" dy="1.2em">2,5,277</tspan><tspan x="0" dy="1.2em">1,22</tspan></text>
    </g>
  </g>
  <g transform="translate(300,100)">
    <g class="primitive">
      <text text-anchor="middle" dy="-0.85em">go<tspan x="0" dy="1.2em">1,94,63</tspan><tspan x="0" dy="1.2em">95,109</tspan></text>
    </g>
  </g>
  <g transform="translate(180,45)">
    <g class="primitive">
      <text text-anchor="middle" dy="-0.85em">deposit<tspan x="0" dy="1.2em">2,10,374</tspan><tspan x="0" dy="1.2em">29,29</tspan></text>
    </g>
  </g>
  <g transform="translate(120,80)">
    <g class="primitive">
      <text text-anchor="middle" dy="-0.25em">op430<tspan x="0" dy="1.2em">22,22</tspan></text>
    </g>
  </g>
  <g transform="translate(520,55)">
    <g class="primitive">
      <text text-anchor="middle" dy="-0.85em">collect<tspan x="0" dy="1.2em">2,12,355</tspan><tspan x="0" dy="1.2em">131,131</tspan></text>
    </g>
  </g>
  <g transform="translate(60,75)">
    <g class="primitive">
      <text text-anchor="middle" dy="-0.85em">collect<tspan x="0" dy="1.2em">2,5,197</tspan><tspan x="0" dy="1.2em">1,1</tspan></text>
    </g>
  </g>
  <g transform="translate(140,80)">
    <g class="primitive">
      <text text-anchor="middle" dy="-0.25em">O6-509<tspan x="0" dy="1.2em">22,22</tspan></text>
    </g>
  </g>
  <g transform="translate(440,105)">
    <g class="primitive">
      <text text-anchor="middle" dy="-0.85em">carry<tspan x="0" dy="1.2em">4,11,510</tspan><tspan x="0" dy="1.2em">120,131</tspan></text>
    </g>
  </g>
  <g transform="translate(40,10)">
    <g class="primitive">
      <text text-anchor="middle" dy="-0.85em">go<tspan x="0" dy="1.2em">3,545,545</tspan><tspan x="0" dy="1.2em">0,7</tspan></text>
    </g>
  </g>
  <g transform="translate(20,80)">
    <g class="primitive">
      <text text-anchor="middle" dy="-0.25em">O5-197<tspan x="0" dy="1.2em">0,0</tspan></text>
    </g>
  </g>
  <g transform="translate(560,55)">
    <g class="primitive">
      <text text-anchor="middle" dy="-0.85em">deposit<tspan x="0" dy="1.2em">2,12,247</tspan><tspan x="0" dy="1.2em">143,143</tspan></text>
    </g>
  </g>
  <g transform="translate(160,45)">
    <g class="primitive">
      <text text-anchor="middle" dy="-0.85em">carry<tspan x="0" dy="1.2em">2,10,374</tspan><tspan x="0" dy="1.2em">24,29</tspan></text>
    </g>
  </g>
  <g transform="translate(180,85)">
    <g class="primitive">
      <text text-anchor="middle" dy="-0.85em">carry<tspan x="0" dy="1.2em">1,6,539</tspan><tspan x="0" dy="1.2em">44,56</tspan></text>
    </g>
  </g>
  <g transform="translate(40,90)">
    <g class="primitive">
      <text text-anchor="middle" dy="-0.85em">go<tspan x="0" dy="1.2em">1,271,509</tspan><tspan x="0" dy="1.2em">0,14</tspan></text>
    </g>
  </g>
  <g transform="translate(460,105)">
    <g class="primitive">
      <text text-anchor="middle" dy="-0.85em">deposit<tspan x="0" dy="1.2em">4,11,510</tspan><tspan x="0" dy="1.2em">131,131</tspan></text>
    </g>
  </g>
  <g transform="translate(580,65)">
    <g class="primitive">
      <text text-anchor="middle" dy="-0.85em">go<tspan x="0" dy="1.2em">2,247,349</tspan><tspan x="0" dy="1.2em">143,149</tspan></text>
    </g>
  </g>
  <g transform="translate(120,70)">
    <g class="primitive">
      <text text-anchor="middle" dy="-0.85em">go<tspan x="0" dy="1.2em">2,277,252</tspan><tspan x="0" dy="1.2em">22,24</tspan></text>
    </g>
  </g>
  <g transform="translate(260,95)">
    <g class="primitive">
      <text text-anchor="middle" dy="-0.85em">carry<tspan x="0" dy="1.2em">1,8,94</tspan><tspan x="0" dy="1.2em">64,95</tspan></text>
    </g>
  </g>
  <g transform="translate(280,95)">
    <g class="primitive">
      <text text-anchor="middle" dy="-0.85em">deposit<tspan x="0" dy="1.2em">1,8,94</tspan><tspan x="0" dy="1.2em">95,95</tspan></text>
    </g>
  </g>
  <g transform="translate(40,70)">
    <g class="primitive">
      <text text-anchor="middle" dy="-0.85em">go<tspan x="0" dy="1.2em">2,196,197</tspan><tspan x="0" dy="1.2em">0,1</tspan></text>
    </g>
  </g>
  <g transform="translate(380,100)">
    <g class="primitive">
      <text text-anchor="middle" dy="-0.25em">op439<tspan x="0" dy="1.2em">120,120</tspan></text>
    </g>
  </g>
  <g transform="translate(40,30)">
    <g class="primitive">
      <text text-anchor="middle" dy="-0.85em">go<tspan x="0" dy="1.2em">4,119,221</tspan><tspan x="0" dy="1.2em">0,23</tspan></text>
    </g>
  </g>
  <g transform="translate(400,100)">
    <g class="primitive">
      <text text-anchor="middle" dy="-0.25em">O11-505<tspan x="0" dy="1.2em">120,120</tspan></text>
    </g>
  </g>
  <g transform="translate(80,90)">
    <g class="primitive">
      <text text-anchor="middle" dy="-0.85em">go<tspan x="0" dy="1.2em">1,509,509</tspan><tspan x="0" dy="1.2em">17,44</tspan></text>
    </g>
  </g>
  <g transform="translate(20,90)">
    <g class="primitive">
      <text text-anchor="middle" dy="-0.25em">R1-271<tspan x="0" dy="1.2em">0,0</tspan></text>
    </g>
  </g>
  <g transform="translate(340,105)">
    <g class="primitive">
      <text text-anchor="middle" dy="-0.85em">carry<tspan x="0" dy="1.2em">1,7,74</tspan><tspan x="0" dy="1.2em">109,120</tspan></text>
    </g>
  </g>
  <g transform="translate(420,105)">
    <g class="primitive">
      <text text-anchor="middle" dy="-0.85em">collect<tspan x="0" dy="1.2em">4,11,505</tspan><tspan x="0" dy="1.2em">120,120</tspan></text>
    </g>
  </g>
  <g transform="translate(360,35)">
    <g class="primitive">
      <text text-anchor="middle" dy="-0.85em">carry<tspan x="0" dy="1.2em">4,9,502</tspan><tspan x="0" dy="1.2em">95,110</tspan></text>
    </g>
  </g>
  <g transform="translate(140,45)">
    <g class="primitive">
      <text text-anchor="middle" dy="-0.85em">collect<tspan x="0" dy="1.2em">2,10,252</tspan><tspan x="0" dy="1.2em">24,24</tspan></text>
    </g>
  </g>
  <g transform="translate(300,90)">
    <g class="primitive">
      <text text-anchor="middle" dy="-0.25em">op438<tspan x="0" dy="1.2em">95,95</tspan></text>
    </g>
  </g>
  <g transform="translate(360,105)">
    <g class="primitive">
      <text text-anchor="middle" dy="-0.85em">deposit<tspan x="0" dy="1.2em">1,7,74</tspan><tspan x="0" dy="1.2em">120,120</tspan></text>
    </g>
  </g>
  <g transform="translate(200,85)">
    <g class="primitive">
      <text text-anchor="middle" dy="-0.85em">deposit<tspan x="0" dy="1.2em">1,6,539</tspan><tspan x="0" dy="1.2em">56,56</tspan></text>
    </g>
  </g>
  <g transform="translate(20,60)">
    <g class="primitive">
      <text text-anchor="middle" dy="-0.25em">O7-63<tspan x="0" dy="1.2em">0,0</tspan></text>
    </g>
  </g>
  <g transform="translate(220,90)">
    <g class="primitive">
      <text text-anchor="middle" dy="-0.85em">go<tspan x="0" dy="1.2em">1,539,380</tspan><tspan x="0" dy="1.2em">56,64</tspan></text>
    </g>
  </g>
  <g transform="translate(380,115)">
    <g class="primitive">
      <text text-anchor="middle" dy="-0.85em">deposit<tspan x="0" dy="1.2em">4,9,502</tspan><tspan x="0" dy="1.2em">110,110</tspan></text>
    </g>
  </g>
  <g transform="translate(60,90)">
    <g class="primitive">
      <text text-anchor="middle" dy="-0.85em">go<tspan x="0" dy="1.2em">1,509,509</tspan><tspan x="0" dy="1.2em">14,17</tspan></text>
    </g>
  </g>
  <g transform="translate(380,130)">
    <g class="primitive">
      <text text-anchor="middle" dy="-0.85em">go<tspan x="0" dy="1.2em">1,74,57</tspan><tspan x="0" dy="1.2em">120,137</tspan></text>
    </g>
  </g>
  <g transform="translate(480,120)">
    <g class="primitive">
      <text text-anchor="middle" dy="-0.25em">op437<tspan x="0" dy="1.2em">131,131</tspan></text>
    </g>
  </g>
  <g transform="translate(20,30)">
    <g class="primitive">
      <text text-anchor="middle" dy="-0.25em">R4-119<tspan x="0" dy="1.2em">0,0</tspan></text>
    </g>
  </g>
  <g transform="translate(320,90)">
    <g class="primitive">
      <text text-anchor="middle" dy="-0.25em">O9-221<tspan x="0" dy="1.2em">95,95</tspan></text>
    </g>
  </g>
  <g transform="translate(20,40)">
    <g class="primitive">
      <text text-anchor="middle" dy="-0.25em">O10-252<tspan x="0" dy="1.2em">0,0</tspan></text>
    </g>
  </g>
  <g transform="translate(160,85)">
    <g class="primitive">
      <text text-anchor="middle" dy="-0.85em">collect<tspan x="0" dy="1.2em">1,6,509</tspan><tspan x="0" dy="1.2em">44,44</tspan></text>
    </g>
  </g>
  <g transform="translate(540,55)">
    <g class="primitive">
      <text text-anchor="middle" dy="-0.85em">carry<tspan x="0" dy="1.2em">2,12,247</tspan><tspan x="0" dy="1.2em">131,143</tspan></text>
    </g>
  </g>
  <g transform="translate(500,120)">
    <g class="primitive">
      <text text-anchor="middle" dy="-0.25em">O12-355<tspan x="0" dy="1.2em">131,131</tspan></text>
    </g>
  </g>
  <g transform="translate(20,10)">
    <g class="primitive">
      <text text-anchor="middle" dy="-0.25em">R3-545<tspan x="0" dy="1.2em">0,0</tspan></text>
    </g>
  </g>
  <g transform="translate(200,40)">
    <g class="primitive">
      <text text-anchor="middle" dy="-0.85em">go<tspan x="0" dy="1.2em">2,374,355</tspan><tspan x="0" dy="1.2em">29,31</tspan></text>
    </g>
  </g>
</g>
</svg>
