<?xml version="1.0" encoding="UTF-8"?>
<svg xmlns="http://www.w3.org/2000/svg"
     xmlns:xlink="http://www.w3.org/1999/xlink"
     xmlns:gadfly="http://www.gadflyjl.org/ns"
     version="1.2"
     width="1060mm" height="120mm" viewBox="0 0 1060 120"
     stroke="none"
     fill="#000000"
     stroke-width="0.3"
     font-size="3.88"
>
<defs>
  <marker id="arrow" markerWidth="15" markerHeight="7" refX="5" refY="3.5" orient="auto" markerUnits="strokeWidth">
    <path d="M0,0 L15,3.5 L0,7 z" stroke="context-stroke" fill="context-stroke"/>
  </marker>
</defs>
<g stroke="#000000" id="img-9ae254d9-1">
  <g transform="translate(140,97.5)">
    <path fill="none" d="M-15.73,1.97 L 15.73 -1.97" class="primitive"/>
  </g>
  <g transform="translate(210,52.5)">
    <path fill="none" d="M-125.6,-2.42 L 125.6 2.42" class="primitive"/>
  </g>
  <g transform="translate(110,87.5)">
    <path fill="none" d="M-6.06,-1.52 L 6.06 1.52" class="primitive"/>
  </g>
  <g transform="translate(110,82.5)">
    <path fill="none" d="M-6.06,1.52 L 6.06 -1.52" class="primitive"/>
  </g>
  <g transform="translate(50,87.5)">
    <path fill="none" d="M-6.06,1.52 L 6.06 -1.52" class="primitive"/>
  </g>
  <g transform="translate(90,100)">
    <path fill="none" d="M-5.6,0 L 5.6 0" class="primitive"/>
  </g>
  <g transform="translate(960,34.69)">
    <path fill="none" d="M-16.22,4.81 L 16.22 -4.81" class="primitive"/>
  </g>
  <g transform="translate(410,102.5)">
    <path fill="none" d="M-7.56,5.67 L 7.56 -5.67" class="primitive"/>
  </g>
  <g transform="translate(80,22.5)">
    <path fill="none" d="M-55.62,-2.32 L 55.62 2.32" class="primitive"/>
  </g>
  <g transform="translate(30,100)">
    <path fill="none" d="M-5.6,0 L 5.6 0" class="primitive"/>
  </g>
  <g transform="translate(30,90)">
    <path fill="none" d="M-5.6,0 L 5.6 0" class="primitive"/>
  </g>
  <g transform="translate(370,75)">
    <path fill="none" d="M-8.93,-17.87 L 8.93 17.87" class="primitive"/>
  </g>
  <g transform="translate(250,75)">
    <path fill="none" d="M-5.6,0 L 5.6 0" class="primitive"/>
  </g>
  <g transform="translate(570,30)">
    <path fill="none" d="M-6.89,3.44 L 6.89 -3.44" class="primitive"/>
  </g>
  <g transform="translate(570,40)">
    <path fill="none" d="M-6.89,-3.44 L 6.89 3.44" class="primitive"/>
  </g>
  <g transform="translate(50,110)">
    <path fill="none" d="M-5.6,0 L 5.6 0" class="primitive"/>
  </g>
  <g transform="translate(850,40.62)">
    <path fill="none" d="M-5.6,0 L 5.6 0" class="primitive"/>
  </g>
  <g transform="translate(510,32.5)">
    <path fill="none" d="M-6.06,-1.52 L 6.06 1.52" class="primitive"/>
  </g>
  <g transform="translate(430,15)">
    <path fill="none" d="M-5.6,0 L 5.6 0" class="primitive"/>
  </g>
  <g transform="translate(810,28.75)">
    <path fill="none" d="M-5.6,0 L 5.6 0" class="primitive"/>
  </g>
  <g transform="translate(130,90)">
    <path fill="none" d="M-5.6,0 L 5.6 0" class="primitive"/>
  </g>
  <g transform="translate(490,30)">
    <path fill="none" d="M-5.6,0 L 5.6 0" class="primitive"/>
  </g>
  <g transform="translate(330,62.5)">
    <path fill="none" d="M-7.56,5.67 L 7.56 -5.67" class="primitive"/>
  </g>
  <g transform="translate(1010,28.75)">
    <path fill="none" d="M-5.6,0 L 5.6 0" class="primitive"/>
  </g>
  <g transform="translate(610,40)">
    <path fill="none" d="M-5.6,0 L 5.6 0" class="primitive"/>
  </g>
  <g transform="translate(470,92.5)">
    <path fill="none" d="M-6.06,1.52 L 6.06 -1.52" class="primitive"/>
  </g>
  <g transform="translate(470,62.5)">
    <path fill="none" d="M-9.33,30.33 L 9.33 -30.33" class="primitive"/>
  </g>
  <g transform="translate(350,55)">
    <path fill="none" d="M-5.6,0 L 5.6 0" class="primitive"/>
  </g>
  <g transform="translate(360,27.5)">
    <path fill="none" d="M-155.62,-7.29 L 155.62 7.29" class="primitive"/>
  </g>
  <g transform="translate(130,52.5)">
    <path fill="none" d="M-9.21,25.34 L 9.21 -25.34" class="primitive"/>
  </g>
  <g transform="translate(770,26.25)">
    <path fill="none" d="M-6.06,-1.52 L 6.06 1.52" class="primitive"/>
  </g>
  <g transform="translate(410,15)">
    <path fill="none" d="M-5.6,0 L 5.6 0" class="primitive"/>
  </g>
  <g transform="translate(230,87.5)">
    <path fill="none" d="M-8.37,10.46 L 8.37 -10.46" class="primitive"/>
  </g>
  <g transform="translate(310,82.5)">
    <path fill="none" d="M-6.06,-1.52 L 6.06 1.52" class="primitive"/>
  </g>
  <g transform="translate(40,82.5)">
    <path fill="none" d="M-15.73,-1.97 L 15.73 1.97" class="primitive"/>
  </g>
  <g transform="translate(330,27.5)">
    <path fill="none" d="M-145.6,-2.43 L 145.6 2.43" class="primitive"/>
  </g>
  <g transform="translate(190,22.5)">
    <path fill="none" d="M-6.06,1.52 L 6.06 -1.52" class="primitive"/>
  </g>
  <g transform="translate(320,35)">
    <path fill="none" d="M-275.6,-4.92 L 275.6 4.92" class="primitive"/>
  </g>
  <g transform="translate(360,38.75)">
    <path fill="none" d="M-315.6,1.23 L 315.6 -1.23" class="primitive"/>
  </g>
  <g transform="translate(310,70)">
    <path fill="none" d="M-5.6,0 L 5.6 0" class="primitive"/>
  </g>
  <g transform="translate(630,40)">
    <path fill="none" d="M-5.6,0 L 5.6 0" class="primitive"/>
  </g>
  <g transform="translate(170,25)">
    <path fill="none" d="M-5.6,0 L 5.6 0" class="primitive"/>
  </g>
  <g transform="translate(970,22.81)">
    <path fill="none" d="M-7.17,-4.25 L 7.17 4.25" class="primitive"/>
  </g>
  <g transform="translate(150,25)">
    <path fill="none" d="M-5.6,0 L 5.6 0" class="primitive"/>
  </g>
  <g transform="translate(130,72.5)">
    <path fill="none" d="M-105.6,-2.4 L 105.6 2.4" class="primitive"/>
  </g>
  <g transform="translate(170,72.5)">
    <path fill="none" d="M-145.66,-12.14 L 145.66 12.14" class="primitive"/>
  </g>
  <g transform="translate(430,95)">
    <path fill="none" d="M-5.6,0 L 5.6 0" class="primitive"/>
  </g>
  <g transform="translate(990,28.75)">
    <path fill="none" d="M-5.6,0 L 5.6 0" class="primitive"/>
  </g>
  <g transform="translate(30,10)">
    <path fill="none" d="M-5.6,0 L 5.6 0" class="primitive"/>
  </g>
  <g transform="translate(30,50)">
    <path fill="none" d="M-5.6,0 L 5.6 0" class="primitive"/>
  </g>
  <g transform="translate(70,110)">
    <path fill="none" d="M-5.6,0 L 5.6 0" class="primitive"/>
  </g>
  <g transform="translate(70,50)">
    <path fill="none" d="M-5.6,0 L 5.6 0" class="primitive"/>
  </g>
  <g transform="translate(220,12.5)">
    <path fill="none" d="M-175.6,-2.44 L 175.6 2.44" class="primitive"/>
  </g>
  <g transform="translate(530,35)">
    <path fill="none" d="M-5.6,0 L 5.6 0" class="primitive"/>
  </g>
  <g transform="translate(50,50)">
    <path fill="none" d="M-5.6,0 L 5.6 0" class="primitive"/>
  </g>
  <g transform="translate(670,35)">
    <path fill="none" d="M-6.06,-1.52 L 6.06 1.52" class="primitive"/>
  </g>
  <g transform="translate(90,85)">
    <path fill="none" d="M-5.6,0 L 5.6 0" class="primitive"/>
  </g>
  <g transform="translate(450,95)">
    <path fill="none" d="M-5.6,0 L 5.6 0" class="primitive"/>
  </g>
  <g transform="translate(870,34.69)">
    <path fill="none" d="M-7.17,4.25 L 7.17 -4.25" class="primitive"/>
  </g>
  <g transform="translate(70,85)">
    <path fill="none" d="M-5.6,0 L 5.6 0" class="primitive"/>
  </g>
  <g transform="translate(210,97.5)">
    <path fill="none" d="M-6.06,-1.52 L 6.06 1.52" class="primitive"/>
  </g>
  <g transform="translate(210,92.5)">
    <path fill="none" d="M-6.06,1.52 L 6.06 -1.52" class="primitive"/>
  </g>
  <g transform="translate(170,95)">
    <path fill="none" d="M-5.6,0 L 5.6 0" class="primitive"/>
  </g>
  <g transform="translate(290,77.5)">
    <path fill="none" d="M-6.06,-1.52 L 6.06 1.52" class="primitive"/>
  </g>
  <g transform="translate(290,72.5)">
    <path fill="none" d="M-6.06,1.52 L 6.06 -1.52" class="primitive"/>
  </g>
  <g transform="translate(930,34.69)">
    <path fill="none" d="M-7.17,-4.25 L 7.17 4.25" class="primitive"/>
  </g>
  <g transform="translate(930,22.81)">
    <path fill="none" d="M-7.17,4.25 L 7.17 -4.25" class="primitive"/>
  </g>
  <g transform="translate(1030,34.69)">
    <path fill="none" d="M-7.17,-4.25 L 7.17 4.25" class="primitive"/>
  </g>
  <g transform="translate(1030,22.81)">
    <path fill="none" d="M-7.17,4.25 L 7.17 -4.25" class="primitive"/>
  </g>
  <g transform="translate(590,19.38)">
    <path fill="none" d="M-145.61,-4.25 L 145.61 4.25" class="primitive"/>
  </g>
  <g transform="translate(450,12.5)">
    <path fill="none" d="M-6.06,1.52 L 6.06 -1.52" class="primitive"/>
  </g>
  <g transform="translate(390,47.5)">
    <path fill="none" d="M-9.33,30.33 L 9.33 -30.33" class="primitive"/>
  </g>
  <g transform="translate(350,85)">
    <path fill="none" d="M-5.6,0 L 5.6 0" class="primitive"/>
  </g>
  <g transform="translate(750,23.75)">
    <path fill="none" d="M-5.6,0 L 5.6 0" class="primitive"/>
  </g>
  <g transform="translate(370,82.5)">
    <path fill="none" d="M-6.06,1.52 L 6.06 -1.52" class="primitive"/>
  </g>
  <g transform="translate(370,97.5)">
    <path fill="none" d="M-8.37,-10.46 L 8.37 10.46" class="primitive"/>
  </g>
  <g transform="translate(430,62.5)">
    <path fill="none" d="M-47.32,30.76 L 47.32 -30.76" class="primitive"/>
  </g>
  <g transform="translate(390,92.5)">
    <path fill="none" d="M-6.06,1.52 L 6.06 -1.52" class="primitive"/>
  </g>
  <g transform="translate(830,34.69)">
    <path fill="none" d="M-7.17,-4.25 L 7.17 4.25" class="primitive"/>
  </g>
  <g transform="translate(830,22.81)">
    <path fill="none" d="M-7.17,4.25 L 7.17 -4.25" class="primitive"/>
  </g>
  <g transform="translate(910,28.75)">
    <path fill="none" d="M-5.6,0 L 5.6 0" class="primitive"/>
  </g>
  <g transform="translate(710,37.5)">
    <path fill="none" d="M-5.6,0 L 5.6 0" class="primitive"/>
  </g>
  <g transform="translate(190,95)">
    <path fill="none" d="M-5.6,0 L 5.6 0" class="primitive"/>
  </g>
  <g transform="translate(950,16.88)">
    <path fill="none" d="M-5.6,0 L 5.6 0" class="primitive"/>
  </g>
  <g transform="translate(150,92.5)">
    <path fill="none" d="M-6.06,-1.52 L 6.06 1.52" class="primitive"/>
  </g>
  <g transform="translate(730,43.12)">
    <path fill="none" d="M-7.08,-3.98 L 7.08 3.98" class="primitive"/>
  </g>
  <g transform="translate(730,30.62)">
    <path fill="none" d="M-7.41,5.1 L 7.41 -5.1" class="primitive"/>
  </g>
  <g transform="translate(860,22.81)">
    <path fill="none" d="M-16.22,-4.81 L 16.22 4.81" class="primitive"/>
  </g>
  <g transform="translate(410,92.5)">
    <path fill="none" d="M-6.06,-1.52 L 6.06 1.52" class="primitive"/>
  </g>
  <g transform="translate(30,30)">
    <path fill="none" d="M-5.6,0 L 5.6 0" class="primitive"/>
  </g>
  <g transform="translate(550,35)">
    <path fill="none" d="M-5.6,0 L 5.6 0" class="primitive"/>
  </g>
  <g transform="translate(650,36.25)">
    <path fill="none" d="M-6.48,2.43 L 6.48 -2.43" class="primitive"/>
  </g>
  <g transform="translate(690,31.88)">
    <path fill="none" d="M-45.82,7.45 L 45.82 -7.45" class="primitive"/>
  </g>
  <g transform="translate(330,85)">
    <path fill="none" d="M-5.6,0 L 5.6 0" class="primitive"/>
  </g>
  <g transform="translate(390,110)">
    <path fill="none" d="M-5.6,0 L 5.6 0" class="primitive"/>
  </g>
  <g transform="translate(30,40)">
    <path fill="none" d="M-5.6,0 L 5.6 0" class="primitive"/>
  </g>
  <g transform="translate(50,100)">
    <path fill="none" d="M-5.6,0 L 5.6 0" class="primitive"/>
  </g>
  <g transform="translate(890,28.75)">
    <path fill="none" d="M-5.6,0 L 5.6 0" class="primitive"/>
  </g>
  <g transform="translate(690,37.5)">
    <path fill="none" d="M-5.6,0 L 5.6 0" class="primitive"/>
  </g>
  <g transform="translate(590,42.5)">
    <path fill="none" d="M-6.06,1.52 L 6.06 -1.52" class="primitive"/>
  </g>
  <g transform="translate(110,100)">
    <path fill="none" d="M-5.6,0 L 5.6 0" class="primitive"/>
  </g>
  <g transform="translate(790,28.75)">
    <path fill="none" d="M-5.6,0 L 5.6 0" class="primitive"/>
  </g>
  <g transform="translate(270,75)">
    <path fill="none" d="M-5.6,0 L 5.6 0" class="primitive"/>
  </g>
  <g transform="translate(70,100)">
    <path fill="none" d="M-5.6,0 L 5.6 0" class="primitive"/>
  </g>
  <g transform="translate(620,19.38)">
    <path fill="none" d="M-155.63,-9.12 L 155.63 9.12" class="primitive"/>
  </g>
  <g transform="translate(30,110)">
    <path fill="none" d="M-5.6,0 L 5.6 0" class="primitive"/>
  </g>
</g>
<g fill="#00FFFF" id="img-9ae254d9-2">
  <g transform="translate(120,100)">
    <circle cx="0" cy="0" r="4" class="primitive"/>
  </g>
</g>
<g fill="#00FFFF" id="img-9ae254d9-3">
  <g transform="translate(80,50)">
    <circle cx="0" cy="0" r="4" class="primitive"/>
  </g>
</g>
<g fill="#00FFFF" id="img-9ae254d9-4">
  <g transform="translate(80,110)">
    <circle cx="0" cy="0" r="4" class="primitive"/>
  </g>
</g>
<g fill="#00FFFF" id="img-9ae254d9-5">
  <g transform="translate(100,85)">
    <circle cx="0" cy="0" r="4" class="primitive"/>
  </g>
</g>
<g fill="#00FFFF" id="img-9ae254d9-6">
  <g transform="translate(40,90)">
    <circle cx="0" cy="0" r="4" class="primitive"/>
  </g>
</g>
<g fill="#00FFFF" id="img-9ae254d9-7">
  <g transform="translate(80,100)">
    <circle cx="0" cy="0" r="4" class="primitive"/>
  </g>
</g>
<g fill="#00FFFF" id="img-9ae254d9-8">
  <g transform="translate(480,90)">
    <circle cx="0" cy="0" r="4" class="primitive"/>
  </g>
</g>
<g fill="#00FFFF" id="img-9ae254d9-9">
  <g transform="translate(940,40.62)">
    <circle cx="0" cy="0" r="4" class="primitive"/>
  </g>
</g>
<g fill="#FFA500" id="img-9ae254d9-10">
  <g transform="translate(400,110)">
    <circle cx="0" cy="0" r="4" class="primitive"/>
  </g>
</g>
<g fill="#FFA500" id="img-9ae254d9-11">
  <g transform="translate(20,20)">
    <circle cx="0" cy="0" r="4" class="primitive"/>
  </g>
</g>
<g fill="#00FF00" id="img-9ae254d9-12">
  <g transform="translate(20,100)">
    <circle cx="0" cy="0" r="4" class="primitive"/>
  </g>
</g>
<g fill="#00FF00" id="img-9ae254d9-13">
  <g transform="translate(20,90)">
    <circle cx="0" cy="0" r="4" class="primitive"/>
  </g>
</g>
<g fill="#00FFFF" id="img-9ae254d9-14">
  <g transform="translate(360,55)">
    <circle cx="0" cy="0" r="4" class="primitive"/>
  </g>
</g>
<g fill="#00FFFF" id="img-9ae254d9-15">
  <g transform="translate(740,48.75)">
    <circle cx="0" cy="0" r="4" class="primitive"/>
  </g>
</g>
<g fill="#00FFFF" id="img-9ae254d9-16">
  <g transform="translate(240,75)">
    <circle cx="0" cy="0" r="4" class="primitive"/>
  </g>
</g>
<g fill="#00FFFF" id="img-9ae254d9-17">
  <g transform="translate(560,35)">
    <circle cx="0" cy="0" r="4" class="primitive"/>
  </g>
</g>
<g fill="#00FFFF" id="img-9ae254d9-18">
  <g transform="translate(40,110)">
    <circle cx="0" cy="0" r="4" class="primitive"/>
  </g>
</g>
<g fill="#FF0000" id="img-9ae254d9-19">
  <g transform="translate(840,40.62)">
    <circle cx="0" cy="0" r="4" class="primitive"/>
  </g>
</g>
<g fill="#FFA500" id="img-9ae254d9-20">
  <g transform="translate(500,30)">
    <circle cx="0" cy="0" r="4" class="primitive"/>
  </g>
</g>
<g fill="#00FFFF" id="img-9ae254d9-21">
  <g transform="translate(420,15)">
    <circle cx="0" cy="0" r="4" class="primitive"/>
  </g>
</g>
<g fill="#00FFFF" id="img-9ae254d9-22">
  <g transform="translate(800,28.75)">
    <circle cx="0" cy="0" r="4" class="primitive"/>
  </g>
</g>
<g fill="#FF0000" id="img-9ae254d9-23">
  <g transform="translate(120,90)">
    <circle cx="0" cy="0" r="4" class="primitive"/>
  </g>
</g>
<g fill="#FF0000" id="img-9ae254d9-24">
  <g transform="translate(480,30)">
    <circle cx="0" cy="0" r="4" class="primitive"/>
  </g>
</g>
<g fill="#FFA500" id="img-9ae254d9-25">
  <g transform="translate(320,70)">
    <circle cx="0" cy="0" r="4" class="primitive"/>
  </g>
</g>
<g fill="#00FFFF" id="img-9ae254d9-26">
  <g transform="translate(1000,28.75)">
    <circle cx="0" cy="0" r="4" class="primitive"/>
  </g>
</g>
<g fill="#00FFFF" id="img-9ae254d9-27">
  <g transform="translate(600,40)">
    <circle cx="0" cy="0" r="4" class="primitive"/>
  </g>
</g>
<g fill="#00FFFF" id="img-9ae254d9-28">
  <g transform="translate(460,95)">
    <circle cx="0" cy="0" r="4" class="primitive"/>
  </g>
</g>
<g fill="#00FFFF" id="img-9ae254d9-29">
  <g transform="translate(340,55)">
    <circle cx="0" cy="0" r="4" class="primitive"/>
  </g>
</g>
<g fill="#00FFFF" id="img-9ae254d9-30">
  <g transform="translate(200,20)">
    <circle cx="0" cy="0" r="4" class="primitive"/>
  </g>
</g>
<g fill="#00FFFF" id="img-9ae254d9-31">
  <g transform="translate(120,80)">
    <circle cx="0" cy="0" r="4" class="primitive"/>
  </g>
</g>
<g fill="#FFA500" id="img-9ae254d9-32">
  <g transform="translate(760,23.75)">
    <circle cx="0" cy="0" r="4" class="primitive"/>
  </g>
</g>
<g fill="#00FFFF" id="img-9ae254d9-33">
  <g transform="translate(400,15)">
    <circle cx="0" cy="0" r="4" class="primitive"/>
  </g>
</g>
<g fill="#00FFFF" id="img-9ae254d9-34">
  <g transform="translate(220,100)">
    <circle cx="0" cy="0" r="4" class="primitive"/>
  </g>
</g>
<g fill="#00FFFF" id="img-9ae254d9-35">
  <g transform="translate(300,80)">
    <circle cx="0" cy="0" r="4" class="primitive"/>
  </g>
</g>
<g fill="#FFA500" id="img-9ae254d9-36">
  <g transform="translate(20,80)">
    <circle cx="0" cy="0" r="4" class="primitive"/>
  </g>
</g>
<g fill="#00FFFF" id="img-9ae254d9-37">
  <g transform="translate(180,25)">
    <circle cx="0" cy="0" r="4" class="primitive"/>
  </g>
</g>
<g fill="#FFA500" id="img-9ae254d9-38">
  <g transform="translate(40,30)">
    <circle cx="0" cy="0" r="4" class="primitive"/>
  </g>
</g>
<g fill="#FFA500" id="img-9ae254d9-39">
  <g transform="translate(40,40)">
    <circle cx="0" cy="0" r="4" class="primitive"/>
  </g>
</g>
<g fill="#FF0000" id="img-9ae254d9-40">
  <g transform="translate(300,70)">
    <circle cx="0" cy="0" r="4" class="primitive"/>
  </g>
</g>
<g fill="#00FFFF" id="img-9ae254d9-41">
  <g transform="translate(620,40)">
    <circle cx="0" cy="0" r="4" class="primitive"/>
  </g>
</g>
<g fill="#00FFFF" id="img-9ae254d9-42">
  <g transform="translate(160,25)">
    <circle cx="0" cy="0" r="4" class="primitive"/>
  </g>
</g>
<g fill="#FFA500" id="img-9ae254d9-43">
  <g transform="translate(960,16.88)">
    <circle cx="0" cy="0" r="4" class="primitive"/>
  </g>
</g>
<g fill="#00FFFF" id="img-9ae254d9-44">
  <g transform="translate(140,25)">
    <circle cx="0" cy="0" r="4" class="primitive"/>
  </g>
</g>
<g fill="#FFA500" id="img-9ae254d9-45">
  <g transform="translate(20,70)">
    <circle cx="0" cy="0" r="4" class="primitive"/>
  </g>
</g>
<g fill="#FFA500" id="img-9ae254d9-46">
  <g transform="translate(20,60)">
    <circle cx="0" cy="0" r="4" class="primitive"/>
  </g>
</g>
<g fill="#00FFFF" id="img-9ae254d9-47">
  <g transform="translate(420,95)">
    <circle cx="0" cy="0" r="4" class="primitive"/>
  </g>
</g>
<g fill="#00FFFF" id="img-9ae254d9-48">
  <g transform="translate(980,28.75)">
    <circle cx="0" cy="0" r="4" class="primitive"/>
  </g>
</g>
<g fill="#FF0000" id="img-9ae254d9-49">
  <g transform="translate(20,10)">
    <circle cx="0" cy="0" r="4" class="primitive"/>
  </g>
</g>
<g fill="#00FF00" id="img-9ae254d9-50">
  <g transform="translate(20,50)">
    <circle cx="0" cy="0" r="4" class="primitive"/>
  </g>
</g>
<g fill="#00FFFF" id="img-9ae254d9-51">
  <g transform="translate(60,110)">
    <circle cx="0" cy="0" r="4" class="primitive"/>
  </g>
</g>
<g fill="#00FFFF" id="img-9ae254d9-52">
  <g transform="translate(60,50)">
    <circle cx="0" cy="0" r="4" class="primitive"/>
  </g>
</g>
<g fill="#FFA500" id="img-9ae254d9-53">
  <g transform="translate(40,10)">
    <circle cx="0" cy="0" r="4" class="primitive"/>
  </g>
</g>
<g fill="#00FFFF" id="img-9ae254d9-54">
  <g transform="translate(520,35)">
    <circle cx="0" cy="0" r="4" class="primitive"/>
  </g>
</g>
<g fill="#FF0000" id="img-9ae254d9-55">
  <g transform="translate(220,90)">
    <circle cx="0" cy="0" r="4" class="primitive"/>
  </g>
</g>
<g fill="#00FFFF" id="img-9ae254d9-56">
  <g transform="translate(40,50)">
    <circle cx="0" cy="0" r="4" class="primitive"/>
  </g>
</g>
<g fill="#00FFFF" id="img-9ae254d9-57">
  <g transform="translate(660,32.5)">
    <circle cx="0" cy="0" r="4" class="primitive"/>
  </g>
</g>
<g fill="#00FFFF" id="img-9ae254d9-58">
  <g transform="translate(80,85)">
    <circle cx="0" cy="0" r="4" class="primitive"/>
  </g>
</g>
<g fill="#00FFFF" id="img-9ae254d9-59">
  <g transform="translate(440,95)">
    <circle cx="0" cy="0" r="4" class="primitive"/>
  </g>
</g>
<g fill="#FFA500" id="img-9ae254d9-60">
  <g transform="translate(860,40.62)">
    <circle cx="0" cy="0" r="4" class="primitive"/>
  </g>
</g>
<g fill="#00FFFF" id="img-9ae254d9-61">
  <g transform="translate(60,85)">
    <circle cx="0" cy="0" r="4" class="primitive"/>
  </g>
</g>
<g fill="#00FFFF" id="img-9ae254d9-62">
  <g transform="translate(200,95)">
    <circle cx="0" cy="0" r="4" class="primitive"/>
  </g>
</g>
<g fill="#FF0000" id="img-9ae254d9-63">
  <g transform="translate(1040,40.62)">
    <circle cx="0" cy="0" r="4" class="primitive"/>
  </g>
</g>
<g fill="#00FFFF" id="img-9ae254d9-64">
  <g transform="translate(160,95)">
    <circle cx="0" cy="0" r="4" class="primitive"/>
  </g>
</g>
<g fill="#00FFFF" id="img-9ae254d9-65">
  <g transform="translate(280,75)">
    <circle cx="0" cy="0" r="4" class="primitive"/>
  </g>
</g>
<g fill="#00FFFF" id="img-9ae254d9-66">
  <g transform="translate(920,28.75)">
    <circle cx="0" cy="0" r="4" class="primitive"/>
  </g>
</g>
<g fill="#00FFFF" id="img-9ae254d9-67">
  <g transform="translate(1020,28.75)">
    <circle cx="0" cy="0" r="4" class="primitive"/>
  </g>
</g>
<g fill="#00FFFF" id="img-9ae254d9-68">
  <g transform="translate(440,15)">
    <circle cx="0" cy="0" r="4" class="primitive"/>
  </g>
</g>
<g fill="#00FFFF" id="img-9ae254d9-69">
  <g transform="translate(380,80)">
    <circle cx="0" cy="0" r="4" class="primitive"/>
  </g>
</g>
<g fill="#00FFFF" id="img-9ae254d9-70">
  <g transform="translate(340,85)">
    <circle cx="0" cy="0" r="4" class="primitive"/>
  </g>
</g>
<g fill="#FF0000" id="img-9ae254d9-71">
  <g transform="translate(740,23.75)">
    <circle cx="0" cy="0" r="4" class="primitive"/>
  </g>
</g>
<g fill="#00FFFF" id="img-9ae254d9-72">
  <g transform="translate(360,85)">
    <circle cx="0" cy="0" r="4" class="primitive"/>
  </g>
</g>
<g fill="#00FFFF" id="img-9ae254d9-73">
  <g transform="translate(380,95)">
    <circle cx="0" cy="0" r="4" class="primitive"/>
  </g>
</g>
<g fill="#00FFFF" id="img-9ae254d9-74">
  <g transform="translate(820,28.75)">
    <circle cx="0" cy="0" r="4" class="primitive"/>
  </g>
</g>
<g fill="#00FFFF" id="img-9ae254d9-75">
  <g transform="translate(900,28.75)">
    <circle cx="0" cy="0" r="4" class="primitive"/>
  </g>
</g>
<g fill="#00FFFF" id="img-9ae254d9-76">
  <g transform="translate(700,37.5)">
    <circle cx="0" cy="0" r="4" class="primitive"/>
  </g>
</g>
<g fill="#00FFFF" id="img-9ae254d9-77">
  <g transform="translate(180,95)">
    <circle cx="0" cy="0" r="4" class="primitive"/>
  </g>
</g>
<g fill="#FF0000" id="img-9ae254d9-78">
  <g transform="translate(940,16.88)">
    <circle cx="0" cy="0" r="4" class="primitive"/>
  </g>
</g>
<g fill="#FFA500" id="img-9ae254d9-79">
  <g transform="translate(140,90)">
    <circle cx="0" cy="0" r="4" class="primitive"/>
  </g>
</g>
<g fill="#00FFFF" id="img-9ae254d9-80">
  <g transform="translate(720,37.5)">
    <circle cx="0" cy="0" r="4" class="primitive"/>
  </g>
</g>
<g fill="#00FFFF" id="img-9ae254d9-81">
  <g transform="translate(840,16.88)">
    <circle cx="0" cy="0" r="4" class="primitive"/>
  </g>
</g>
<g fill="#00FFFF" id="img-9ae254d9-82">
  <g transform="translate(400,90)">
    <circle cx="0" cy="0" r="4" class="primitive"/>
  </g>
</g>
<g fill="#FF0000" id="img-9ae254d9-83">
  <g transform="translate(580,25)">
    <circle cx="0" cy="0" r="4" class="primitive"/>
  </g>
</g>
<g fill="#FF0000" id="img-9ae254d9-84">
  <g transform="translate(20,30)">
    <circle cx="0" cy="0" r="4" class="primitive"/>
  </g>
</g>
<g fill="#00FFFF" id="img-9ae254d9-85">
  <g transform="translate(1040,16.88)">
    <circle cx="0" cy="0" r="4" class="primitive"/>
  </g>
</g>
<g fill="#00FFFF" id="img-9ae254d9-86">
  <g transform="translate(540,35)">
    <circle cx="0" cy="0" r="4" class="primitive"/>
  </g>
</g>
<g fill="#00FFFF" id="img-9ae254d9-87">
  <g transform="translate(640,40)">
    <circle cx="0" cy="0" r="4" class="primitive"/>
  </g>
</g>
<g fill="#00FFFF" id="img-9ae254d9-88">
  <g transform="translate(320,85)">
    <circle cx="0" cy="0" r="4" class="primitive"/>
  </g>
</g>
<g fill="#FF0000" id="img-9ae254d9-89">
  <g transform="translate(380,110)">
    <circle cx="0" cy="0" r="4" class="primitive"/>
  </g>
</g>
<g fill="#FF0000" id="img-9ae254d9-90">
  <g transform="translate(20,40)">
    <circle cx="0" cy="0" r="4" class="primitive"/>
  </g>
</g>
<g fill="#00FFFF" id="img-9ae254d9-91">
  <g transform="translate(40,100)">
    <circle cx="0" cy="0" r="4" class="primitive"/>
  </g>
</g>
<g fill="#00FFFF" id="img-9ae254d9-92">
  <g transform="translate(880,28.75)">
    <circle cx="0" cy="0" r="4" class="primitive"/>
  </g>
</g>
<g fill="#00FFFF" id="img-9ae254d9-93">
  <g transform="translate(680,37.5)">
    <circle cx="0" cy="0" r="4" class="primitive"/>
  </g>
</g>
<g fill="#00FFFF" id="img-9ae254d9-94">
  <g transform="translate(580,45)">
    <circle cx="0" cy="0" r="4" class="primitive"/>
  </g>
</g>
<g fill="#00FFFF" id="img-9ae254d9-95">
  <g transform="translate(100,100)">
    <circle cx="0" cy="0" r="4" class="primitive"/>
  </g>
</g>
<g fill="#00FFFF" id="img-9ae254d9-96">
  <g transform="translate(780,28.75)">
    <circle cx="0" cy="0" r="4" class="primitive"/>
  </g>
</g>
<g fill="#00FFFF" id="img-9ae254d9-97">
  <g transform="translate(260,75)">
    <circle cx="0" cy="0" r="4" class="primitive"/>
  </g>
</g>
<g fill="#00FFFF" id="img-9ae254d9-98">
  <g transform="translate(60,100)">
    <circle cx="0" cy="0" r="4" class="primitive"/>
  </g>
</g>
<g fill="#00FFFF" id="img-9ae254d9-99">
  <g transform="translate(460,10)">
    <circle cx="0" cy="0" r="4" class="primitive"/>
  </g>
</g>
<g fill="#00FF00" id="img-9ae254d9-100">
  <g transform="translate(20,110)">
    <circle cx="0" cy="0" r="4" class="primitive"/>
  </g>
</g>
<g font-family="futura" font-size="3.53" stroke="#000000" id="img-9ae254d9-101">
  <g transform="translate(120,100)">
    <g class="primitive">
      <text text-anchor="middle" dy="-0.85em">go<tspan x="0" dy="1.2em">1,509,509</tspan><tspan x="0" dy="1.2em">47,58</tspan></text>
    </g>
  </g>
  <g transform="translate(80,50)">
    <g class="primitive">
      <text text-anchor="middle" dy="-0.85em">go<tspan x="0" dy="1.2em">4,221,221</tspan><tspan x="0" dy="1.2em">26,88</tspan></text>
    </g>
  </g>
  <g transform="translate(80,110)">
    <g class="primitive">
      <text text-anchor="middle" dy="-0.85em">go<tspan x="0" dy="1.2em">3,545,-1</tspan><tspan x="0" dy="1.2em">10,219</tspan></text>
    </g>
  </g>
  <g transform="translate(100,85)">
    <g class="primitive">
      <text text-anchor="middle" dy="-0.85em">deposit<tspan x="0" dy="1.2em">2,5,277</tspan><tspan x="0" dy="1.2em">22,22</tspan></text>
    </g>
  </g>
  <g transform="translate(40,90)">
    <g class="primitive">
      <text text-anchor="middle" dy="-0.85em">go<tspan x="0" dy="1.2em">2,196,197</tspan><tspan x="0" dy="1.2em">0,1</tspan></text>
    </g>
  </g>
  <g transform="translate(80,100)">
    <g class="primitive">
      <text text-anchor="middle" dy="-0.85em">go<tspan x="0" dy="1.2em">1,509,509</tspan><tspan x="0" dy="1.2em">17,44</tspan></text>
    </g>
  </g>
  <g transform="translate(480,90)">
    <g class="primitive">
      <text text-anchor="middle" dy="-0.85em">go<tspan x="0" dy="1.2em">4,510,-1</tspan><tspan x="0" dy="1.2em">145,145</tspan></text>
    </g>
  </g>
  <g transform="translate(940,40.62)">
    <g class="primitive">
      <text text-anchor="middle" dy="-0.85em">go<tspan x="0" dy="1.2em">1,62,197</tspan><tspan x="0" dy="1.2em">237,248</tspan></text>
    </g>
  </g>
  <g transform="translate(400,110)">
    <g class="primitive">
      <text text-anchor="middle" dy="-0.25em">O11-505<tspan x="0" dy="1.2em">134,134</tspan></text>
    </g>
  </g>
  <g transform="translate(20,20)">
    <g class="primitive">
      <text text-anchor="middle" dy="-0.25em">O10-252<tspan x="0" dy="1.2em">0,0</tspan></text>
    </g>
  </g>
  <g transform="translate(20,100)">
    <g class="primitive">
      <text text-anchor="middle" dy="-0.25em">R1-271<tspan x="0" dy="1.2em">0,0</tspan></text>
    </g>
  </g>
  <g transform="translate(20,90)">
    <g class="primitive">
      <text text-anchor="middle" dy="-0.25em">R2-196<tspan x="0" dy="1.2em">0,0</tspan></text>
    </g>
  </g>
  <g transform="translate(360,55)">
    <g class="primitive">
      <text text-anchor="middle" dy="-0.85em">carry<tspan x="0" dy="1.2em">4,9,502</tspan><tspan x="0" dy="1.2em">109,124</tspan></text>
    </g>
  </g>
  <g transform="translate(740,48.75)">
    <g class="primitive">
      <text text-anchor="middle" dy="-0.85em">go<tspan x="0" dy="1.2em">2,510,-1</tspan><tspan x="0" dy="1.2em">209,209</tspan></text>
    </g>
  </g>
  <g transform="translate(240,75)">
    <g class="primitive">
      <text text-anchor="middle" dy="-0.85em">collect<tspan x="0" dy="1.2em">1,8,380</tspan><tspan x="0" dy="1.2em">78,78</tspan></text>
    </g>
  </g>
  <g transform="translate(560,35)">
    <g class="primitive">
      <text text-anchor="middle" dy="-0.85em">deposit<tspan x="0" dy="1.2em">2,12,247</tspan><tspan x="0" dy="1.2em">157,157</tspan></text>
    </g>
  </g>
  <g transform="translate(40,110)">
    <g class="primitive">
      <text text-anchor="middle" dy="-0.85em">go<tspan x="0" dy="1.2em">3,545,545</tspan><tspan x="0" dy="1.2em">0,7</tspan></text>
    </g>
  </g>
  <g transform="translate(840,40.62)">
    <g class="primitive">
      <text text-anchor="middle" dy="-0.25em">op445<tspan x="0" dy="1.2em">224,224</tspan></text>
    </g>
  </g>
  <g transform="translate(500,30)">
    <g class="primitive">
      <text text-anchor="middle" dy="-0.25em">O12-355<tspan x="0" dy="1.2em">145,145</tspan></text>
    </g>
  </g>
  <g transform="translate(420,15)">
    <g class="primitive">
      <text text-anchor="middle" dy="-0.85em">carry<tspan x="0" dy="1.2em">1,15,247</tspan><tspan x="0" dy="1.2em">151,169</tspan></text>
    </g>
  </g>
  <g transform="translate(800,28.75)">
    <g class="primitive">
      <text text-anchor="middle" dy="-0.85em">carry<tspan x="0" dy="1.2em">1,16,111</tspan><tspan x="0" dy="1.2em">209,224</tspan></text>
    </g>
  </g>
  <g transform="translate(120,90)">
    <g class="primitive">
      <text text-anchor="middle" dy="-0.25em">op430<tspan x="0" dy="1.2em">22,22</tspan></text>
    </g>
  </g>
  <g transform="translate(480,30)">
    <g class="primitive">
      <text text-anchor="middle" dy="-0.25em">op437<tspan x="0" dy="1.2em">145,145</tspan></text>
    </g>
  </g>
  <g transform="translate(320,70)">
    <g class="primitive">
      <text text-anchor="middle" dy="-0.25em">O9-221<tspan x="0" dy="1.2em">109,109</tspan></text>
    </g>
  </g>
  <g transform="translate(1000,28.75)">
    <g class="primitive">
      <text text-anchor="middle" dy="-0.85em">carry<tspan x="0" dy="1.2em">1,18,362</tspan><tspan x="0" dy="1.2em">248,256</tspan></text>
    </g>
  </g>
  <g transform="translate(600,40)">
    <g class="primitive">
      <text text-anchor="middle" dy="-0.85em">collect<tspan x="0" dy="1.2em">2,14,349</tspan><tspan x="0" dy="1.2em">163,163</tspan></text>
    </g>
  </g>
  <g transform="translate(460,95)">
    <g class="primitive">
      <text text-anchor="middle" dy="-0.85em">deposit<tspan x="0" dy="1.2em">4,11,510</tspan><tspan x="0" dy="1.2em">145,145</tspan></text>
    </g>
  </g>
  <g transform="translate(340,55)">
    <g class="primitive">
      <text text-anchor="middle" dy="-0.85em">collect<tspan x="0" dy="1.2em">4,9,221</tspan><tspan x="0" dy="1.2em">109,109</tspan></text>
    </g>
  </g>
  <g transform="translate(200,20)">
    <g class="primitive">
      <text text-anchor="middle" dy="-0.85em">go<tspan x="0" dy="1.2em">2,374,355</tspan><tspan x="0" dy="1.2em">29,31</tspan></text>
    </g>
  </g>
  <g transform="translate(120,80)">
    <g class="primitive">
      <text text-anchor="middle" dy="-0.85em">go<tspan x="0" dy="1.2em">2,277,252</tspan><tspan x="0" dy="1.2em">22,24</tspan></text>
    </g>
  </g>
  <g transform="translate(760,23.75)">
    <g class="primitive">
      <text text-anchor="middle" dy="-0.25em">O16-244<tspan x="0" dy="1.2em">209,209</tspan></text>
    </g>
  </g>
  <g transform="translate(400,15)">
    <g class="primitive">
      <text text-anchor="middle" dy="-0.85em">collect<tspan x="0" dy="1.2em">1,15,57</tspan><tspan x="0" dy="1.2em">151,151</tspan></text>
    </g>
  </g>
  <g transform="translate(220,100)">
    <g class="primitive">
      <text text-anchor="middle" dy="-0.85em">go<tspan x="0" dy="1.2em">1,539,380</tspan><tspan x="0" dy="1.2em">70,78</tspan></text>
    </g>
  </g>
  <g transform="translate(300,80)">
    <g class="primitive">
      <text text-anchor="middle" dy="-0.85em">go<tspan x="0" dy="1.2em">1,94,63</tspan><tspan x="0" dy="1.2em">109,123</tspan></text>
    </g>
  </g>
  <g transform="translate(20,80)">
    <g class="primitive">
      <text text-anchor="middle" dy="-0.25em">O5-197<tspan x="0" dy="1.2em">0,0</tspan></text>
    </g>
  </g>
  <g transform="translate(180,25)">
    <g class="primitive">
      <text text-anchor="middle" dy="-0.85em">deposit<tspan x="0" dy="1.2em">2,10,374</tspan><tspan x="0" dy="1.2em">29,29</tspan></text>
    </g>
  </g>
  <g transform="translate(40,30)">
    <g class="primitive">
      <text text-anchor="middle" dy="-0.25em">O14-349<tspan x="0" dy="1.2em">0,0</tspan></text>
    </g>
  </g>
  <g transform="translate(40,40)">
    <g class="primitive">
      <text text-anchor="middle" dy="-0.25em">O13-221<tspan x="0" dy="1.2em">0,0</tspan></text>
    </g>
  </g>
  <g transform="translate(300,70)">
    <g class="primitive">
      <text text-anchor="middle" dy="-0.25em">op438<tspan x="0" dy="1.2em">109,109</tspan></text>
    </g>
  </g>
  <g transform="translate(620,40)">
    <g class="primitive">
      <text text-anchor="middle" dy="-0.85em">carry<tspan x="0" dy="1.2em">2,14,239</tspan><tspan x="0" dy="1.2em">163,181</tspan></text>
    </g>
  </g>
  <g transform="translate(160,25)">
    <g class="primitive">
      <text text-anchor="middle" dy="-0.85em">carry<tspan x="0" dy="1.2em">2,10,374</tspan><tspan x="0" dy="1.2em">24,29</tspan></text>
    </g>
  </g>
  <g transform="translate(960,16.88)">
    <g class="primitive">
      <text text-anchor="middle" dy="-0.25em">O18-197<tspan x="0" dy="1.2em">237,237</tspan></text>
    </g>
  </g>
  <g transform="translate(140,25)">
    <g class="primitive">
      <text text-anchor="middle" dy="-0.85em">collect<tspan x="0" dy="1.2em">2,10,252</tspan><tspan x="0" dy="1.2em">24,24</tspan></text>
    </g>
  </g>
  <g transform="translate(20,70)">
    <g class="primitive">
      <text text-anchor="middle" dy="-0.25em">O8-380<tspan x="0" dy="1.2em">0,0</tspan></text>
    </g>
  </g>
  <g transform="translate(20,60)">
    <g class="primitive">
      <text text-anchor="middle" dy="-0.25em">O7-63<tspan x="0" dy="1.2em">0,0</tspan></text>
    </g>
  </g>
  <g transform="translate(420,95)">
    <g class="primitive">
      <text text-anchor="middle" dy="-0.85em">collect<tspan x="0" dy="1.2em">4,11,505</tspan><tspan x="0" dy="1.2em">134,134</tspan></text>
    </g>
  </g>
  <g transform="translate(980,28.75)">
    <g class="primitive">
      <text text-anchor="middle" dy="-0.85em">collect<tspan x="0" dy="1.2em">1,18,197</tspan><tspan x="0" dy="1.2em">248,248</tspan></text>
    </g>
  </g>
  <g transform="translate(20,10)">
    <g class="primitive">
      <text text-anchor="middle" dy="-0.25em">op449<tspan x="0" dy="1.2em">0,0</tspan></text>
    </g>
  </g>
  <g transform="translate(20,50)">
    <g class="primitive">
      <text text-anchor="middle" dy="-0.25em">R4-119<tspan x="0" dy="1.2em">0,0</tspan></text>
    </g>
  </g>
  <g transform="translate(60,110)">
    <g class="primitive">
      <text text-anchor="middle" dy="-0.85em">go<tspan x="0" dy="1.2em">3,545,545</tspan><tspan x="0" dy="1.2em">7,10</tspan></text>
    </g>
  </g>
  <g transform="translate(60,50)">
    <g class="primitive">
      <text text-anchor="middle" dy="-0.85em">go<tspan x="0" dy="1.2em">4,221,221</tspan><tspan x="0" dy="1.2em">23,26</tspan></text>
    </g>
  </g>
  <g transform="translate(40,10)">
    <g class="primitive">
      <text text-anchor="middle" dy="-0.25em">O15-57<tspan x="0" dy="1.2em">0,0</tspan></text>
    </g>
  </g>
  <g transform="translate(520,35)">
    <g class="primitive">
      <text text-anchor="middle" dy="-0.85em">collect<tspan x="0" dy="1.2em">2,12,355</tspan><tspan x="0" dy="1.2em">145,145</tspan></text>
    </g>
  </g>
  <g transform="translate(220,90)">
    <g class="primitive">
      <text text-anchor="middle" dy="-0.25em">op434<tspan x="0" dy="1.2em">70,70</tspan></text>
    </g>
  </g>
  <g transform="translate(40,50)">
    <g class="primitive">
      <text text-anchor="middle" dy="-0.85em">go<tspan x="0" dy="1.2em">4,119,221</tspan><tspan x="0" dy="1.2em">0,23</tspan></text>
    </g>
  </g>
  <g transform="translate(660,32.5)">
    <g class="primitive">
      <text text-anchor="middle" dy="-0.85em">go<tspan x="0" dy="1.2em">2,239,221</tspan><tspan x="0" dy="1.2em">181,182</tspan></text>
    </g>
  </g>
  <g transform="translate(80,85)">
    <g class="primitive">
      <text text-anchor="middle" dy="-0.85em">carry<tspan x="0" dy="1.2em">2,5,277</tspan><tspan x="0" dy="1.2em">1,22</tspan></text>
    </g>
  </g>
  <g transform="translate(440,95)">
    <g class="primitive">
      <text text-anchor="middle" dy="-0.85em">carry<tspan x="0" dy="1.2em">4,11,510</tspan><tspan x="0" dy="1.2em">134,145</tspan></text>
    </g>
  </g>
  <g transform="translate(860,40.62)">
    <g class="primitive">
      <text text-anchor="middle" dy="-0.25em">O17-108<tspan x="0" dy="1.2em">224,224</tspan></text>
    </g>
  </g>
  <g transform="translate(60,85)">
    <g class="primitive">
      <text text-anchor="middle" dy="-0.85em">collect<tspan x="0" dy="1.2em">2,5,197</tspan><tspan x="0" dy="1.2em">1,1</tspan></text>
    </g>
  </g>
  <g transform="translate(200,95)">
    <g class="primitive">
      <text text-anchor="middle" dy="-0.85em">deposit<tspan x="0" dy="1.2em">1,6,539</tspan><tspan x="0" dy="1.2em">70,70</tspan></text>
    </g>
  </g>
  <g transform="translate(1040,40.62)">
    <g class="primitive">
      <text text-anchor="middle" dy="-0.25em">op447<tspan x="0" dy="1.2em">256,256</tspan></text>
    </g>
  </g>
  <g transform="translate(160,95)">
    <g class="primitive">
      <text text-anchor="middle" dy="-0.85em">collect<tspan x="0" dy="1.2em">1,6,509</tspan><tspan x="0" dy="1.2em">58,58</tspan></text>
    </g>
  </g>
  <g transform="translate(280,75)">
    <g class="primitive">
      <text text-anchor="middle" dy="-0.85em">deposit<tspan x="0" dy="1.2em">1,8,94</tspan><tspan x="0" dy="1.2em">109,109</tspan></text>
    </g>
  </g>
  <g transform="translate(920,28.75)">
    <g class="primitive">
      <text text-anchor="middle" dy="-0.85em">deposit<tspan x="0" dy="1.2em">1,17,62</tspan><tspan x="0" dy="1.2em">237,237</tspan></text>
    </g>
  </g>
  <g transform="translate(1020,28.75)">
    <g class="primitive">
      <text text-anchor="middle" dy="-0.85em">deposit<tspan x="0" dy="1.2em">1,18,362</tspan><tspan x="0" dy="1.2em">256,256</tspan></text>
    </g>
  </g>
  <g transform="translate(440,15)">
    <g class="primitive">
      <text text-anchor="middle" dy="-0.85em">deposit<tspan x="0" dy="1.2em">1,15,247</tspan><tspan x="0" dy="1.2em">169,169</tspan></text>
    </g>
  </g>
  <g transform="translate(380,80)">
    <g class="primitive">
      <text text-anchor="middle" dy="-0.85em">go<tspan x="0" dy="1.2em">1,74,57</tspan><tspan x="0" dy="1.2em">134,151</tspan></text>
    </g>
  </g>
  <g transform="translate(340,85)">
    <g class="primitive">
      <text text-anchor="middle" dy="-0.85em">carry<tspan x="0" dy="1.2em">1,7,74</tspan><tspan x="0" dy="1.2em">123,134</tspan></text>
    </g>
  </g>
  <g transform="translate(740,23.75)">
    <g class="primitive">
      <text text-anchor="middle" dy="-0.25em">op446<tspan x="0" dy="1.2em">209,209</tspan></text>
    </g>
  </g>
  <g transform="translate(360,85)">
    <g class="primitive">
      <text text-anchor="middle" dy="-0.85em">deposit<tspan x="0" dy="1.2em">1,7,74</tspan><tspan x="0" dy="1.2em">134,134</tspan></text>
    </g>
  </g>
  <g transform="translate(380,95)">
    <g class="primitive">
      <text text-anchor="middle" dy="-0.85em">deposit<tspan x="0" dy="1.2em">4,9,502</tspan><tspan x="0" dy="1.2em">124,124</tspan></text>
    </g>
  </g>
  <g transform="translate(820,28.75)">
    <g class="primitive">
      <text text-anchor="middle" dy="-0.85em">deposit<tspan x="0" dy="1.2em">1,16,111</tspan><tspan x="0" dy="1.2em">224,224</tspan></text>
    </g>
  </g>
  <g transform="translate(900,28.75)">
    <g class="primitive">
      <text text-anchor="middle" dy="-0.85em">carry<tspan x="0" dy="1.2em">1,17,62</tspan><tspan x="0" dy="1.2em">227,237</tspan></text>
    </g>
  </g>
  <g transform="translate(700,37.5)">
    <g class="primitive">
      <text text-anchor="middle" dy="-0.85em">carry<tspan x="0" dy="1.2em">2,13,510</tspan><tspan x="0" dy="1.2em">182,209</tspan></text>
    </g>
  </g>
  <g transform="translate(180,95)">
    <g class="primitive">
      <text text-anchor="middle" dy="-0.85em">carry<tspan x="0" dy="1.2em">1,6,539</tspan><tspan x="0" dy="1.2em">58,70</tspan></text>
    </g>
  </g>
  <g transform="translate(940,16.88)">
    <g class="primitive">
      <text text-anchor="middle" dy="-0.25em">op444<tspan x="0" dy="1.2em">237,237</tspan></text>
    </g>
  </g>
  <g transform="translate(140,90)">
    <g class="primitive">
      <text text-anchor="middle" dy="-0.25em">O6-509<tspan x="0" dy="1.2em">22,22</tspan></text>
    </g>
  </g>
  <g transform="translate(720,37.5)">
    <g class="primitive">
      <text text-anchor="middle" dy="-0.85em">deposit<tspan x="0" dy="1.2em">2,13,510</tspan><tspan x="0" dy="1.2em">209,209</tspan></text>
    </g>
  </g>
  <g transform="translate(840,16.88)">
    <g class="primitive">
      <text text-anchor="middle" dy="-0.85em">go<tspan x="0" dy="1.2em">1,111,108</tspan><tspan x="0" dy="1.2em">224,227</tspan></text>
    </g>
  </g>
  <g transform="translate(400,90)">
    <g class="primitive">
      <text text-anchor="middle" dy="-0.85em">go<tspan x="0" dy="1.2em">4,502,505</tspan><tspan x="0" dy="1.2em">124,127</tspan></text>
    </g>
  </g>
  <g transform="translate(580,25)">
    <g class="primitive">
      <text text-anchor="middle" dy="-0.25em">op440<tspan x="0" dy="1.2em">157,157</tspan></text>
    </g>
  </g>
  <g transform="translate(20,30)">
    <g class="primitive">
      <text text-anchor="middle" dy="-0.25em">op448<tspan x="0" dy="1.2em">0,0</tspan></text>
    </g>
  </g>
  <g transform="translate(1040,16.88)">
    <g class="primitive">
      <text text-anchor="middle" dy="-0.85em">go<tspan x="0" dy="1.2em">1,362,-1</tspan><tspan x="0" dy="1.2em">256,256</tspan></text>
    </g>
  </g>
  <g transform="translate(540,35)">
    <g class="primitive">
      <text text-anchor="middle" dy="-0.85em">carry<tspan x="0" dy="1.2em">2,12,247</tspan><tspan x="0" dy="1.2em">145,157</tspan></text>
    </g>
  </g>
  <g transform="translate(640,40)">
    <g class="primitive">
      <text text-anchor="middle" dy="-0.85em">deposit<tspan x="0" dy="1.2em">2,14,239</tspan><tspan x="0" dy="1.2em">181,181</tspan></text>
    </g>
  </g>
  <g transform="translate(320,85)">
    <g class="primitive">
      <text text-anchor="middle" dy="-0.85em">collect<tspan x="0" dy="1.2em">1,7,63</tspan><tspan x="0" dy="1.2em">123,123</tspan></text>
    </g>
  </g>
  <g transform="translate(380,110)">
    <g class="primitive">
      <text text-anchor="middle" dy="-0.25em">op439<tspan x="0" dy="1.2em">134,134</tspan></text>
    </g>
  </g>
  <g transform="translate(20,40)">
    <g class="primitive">
      <text text-anchor="middle" dy="-0.25em">op450<tspan x="0" dy="1.2em">0,0</tspan></text>
    </g>
  </g>
  <g transform="translate(40,100)">
    <g class="primitive">
      <text text-anchor="middle" dy="-0.85em">go<tspan x="0" dy="1.2em">1,271,509</tspan><tspan x="0" dy="1.2em">0,14</tspan></text>
    </g>
  </g>
  <g transform="translate(880,28.75)">
    <g class="primitive">
      <text text-anchor="middle" dy="-0.85em">collect<tspan x="0" dy="1.2em">1,17,108</tspan><tspan x="0" dy="1.2em">227,227</tspan></text>
    </g>
  </g>
  <g transform="translate(680,37.5)">
    <g class="primitive">
      <text text-anchor="middle" dy="-0.85em">collect<tspan x="0" dy="1.2em">2,13,221</tspan><tspan x="0" dy="1.2em">182,182</tspan></text>
    </g>
  </g>
  <g transform="translate(580,45)">
    <g class="primitive">
      <text text-anchor="middle" dy="-0.85em">go<tspan x="0" dy="1.2em">2,247,349</tspan><tspan x="0" dy="1.2em">157,163</tspan></text>
    </g>
  </g>
  <g transform="translate(100,100)">
    <g class="primitive">
      <text text-anchor="middle" dy="-0.85em">go<tspan x="0" dy="1.2em">1,509,509</tspan><tspan x="0" dy="1.2em">44,47</tspan></text>
    </g>
  </g>
  <g transform="translate(780,28.75)">
    <g class="primitive">
      <text text-anchor="middle" dy="-0.85em">collect<tspan x="0" dy="1.2em">1,16,244</tspan><tspan x="0" dy="1.2em">209,209</tspan></text>
    </g>
  </g>
  <g transform="translate(260,75)">
    <g class="primitive">
      <text text-anchor="middle" dy="-0.85em">carry<tspan x="0" dy="1.2em">1,8,94</tspan><tspan x="0" dy="1.2em">78,109</tspan></text>
    </g>
  </g>
  <g transform="translate(60,100)">
    <g class="primitive">
      <text text-anchor="middle" dy="-0.85em">go<tspan x="0" dy="1.2em">1,509,509</tspan><tspan x="0" dy="1.2em">14,17</tspan></text>
    </g>
  </g>
  <g transform="translate(460,10)">
    <g class="primitive">
      <text text-anchor="middle" dy="-0.85em">go<tspan x="0" dy="1.2em">1,247,244</tspan><tspan x="0" dy="1.2em">169,172</tspan></text>
    </g>
  </g>
  <g transform="translate(20,110)">
    <g class="primitive">
      <text text-anchor="middle" dy="-0.25em">R3-545<tspan x="0" dy="1.2em">0,0</tspan></text>
    </g>
  </g>
</g>
</svg>
