<?xml version="1.0" encoding="UTF-8"?>
<svg xmlns="http://www.w3.org/2000/svg"
     xmlns:xlink="http://www.w3.org/1999/xlink"
     xmlns:gadfly="http://www.gadflyjl.org/ns"
     version="1.2"
     width="420mm" height="310mm" viewBox="0 0 420 310"
     stroke="none"
     fill="#000000"
     stroke-width="0.3"
     font-size="3.88"
>
<defs>
  <marker id="arrow" markerWidth="15" markerHeight="7" refX="5" refY="3.5" orient="auto" markerUnits="strokeWidth">
    <path d="M0,0 L15,3.5 L0,7 z" stroke="context-stroke" fill="context-stroke"/>
  </marker>
</defs>
<g stroke="#000000" id="img-46b95f1e-1">
  <g transform="translate(20,305)">
    <path fill="none" d="M-5.6,0 L 5.6 0" class="primitive"/>
  </g>
  <g transform="translate(20,285)">
    <path fill="none" d="M-5.6,0 L 5.6 0" class="primitive"/>
  </g>
  <g transform="translate(20,295)">
    <path fill="none" d="M-5.6,0 L 5.6 0" class="primitive"/>
  </g>
  <g transform="translate(300,295)">
    <path fill="none" d="M-5.6,0 L 5.6 0" class="primitive"/>
  </g>
  <g transform="translate(300,255)">
    <path fill="none" d="M-9.45,37.82 L 9.45 -37.82" class="primitive"/>
  </g>
  <g transform="translate(280,295)">
    <path fill="none" d="M-5.6,0 L 5.6 0" class="primitive"/>
  </g>
  <g transform="translate(260,295)">
    <path fill="none" d="M-5.6,0 L 5.6 0" class="primitive"/>
  </g>
  <g transform="translate(100,290)">
    <path fill="none" d="M-8.61,12.91 L 8.61 -12.91" class="primitive"/>
  </g>
  <g transform="translate(100,305)">
    <path fill="none" d="M-5.6,0 L 5.6 0" class="primitive"/>
  </g>
  <g transform="translate(80,305)">
    <path fill="none" d="M-5.6,0 L 5.6 0" class="primitive"/>
  </g>
  <g transform="translate(60,305)">
    <path fill="none" d="M-5.6,0 L 5.6 0" class="primitive"/>
  </g>
  <g transform="translate(100,275)">
    <path fill="none" d="M-8.03,8.03 L 8.03 -8.03" class="primitive"/>
  </g>
  <g transform="translate(100,285)">
    <path fill="none" d="M-5.6,0 L 5.6 0" class="primitive"/>
  </g>
  <g transform="translate(80,285)">
    <path fill="none" d="M-5.6,0 L 5.6 0" class="primitive"/>
  </g>
  <g transform="translate(60,285)">
    <path fill="none" d="M-5.6,0 L 5.6 0" class="primitive"/>
  </g>
  <g transform="translate(200,280)">
    <path fill="none" d="M-9.14,22.84 L 9.14 -22.84" class="primitive"/>
  </g>
  <g transform="translate(200,300)">
    <path fill="none" d="M-6.89,3.44 L 6.89 -3.44" class="primitive"/>
  </g>
  <g transform="translate(180,305)">
    <path fill="none" d="M-5.6,0 L 5.6 0" class="primitive"/>
  </g>
  <g transform="translate(160,305)">
    <path fill="none" d="M-5.6,0 L 5.6 0" class="primitive"/>
  </g>
  <g transform="translate(100,270)">
    <path fill="none" d="M-9.14,22.84 L 9.14 -22.84" class="primitive"/>
  </g>
  <g transform="translate(150,295)">
    <path fill="none" d="M-55.6,0 L 55.6 0" class="primitive"/>
  </g>
  <g transform="translate(80,295)">
    <path fill="none" d="M-5.6,0 L 5.6 0" class="primitive"/>
  </g>
  <g transform="translate(60,295)">
    <path fill="none" d="M-5.6,0 L 5.6 0" class="primitive"/>
  </g>
  <g transform="translate(200,260)">
    <path fill="none" d="M-9.14,22.84 L 9.14 -22.84" class="primitive"/>
  </g>
  <g transform="translate(200,290)">
    <path fill="none" d="M-6.89,-3.44 L 6.89 3.44" class="primitive"/>
  </g>
  <g transform="translate(180,285)">
    <path fill="none" d="M-5.6,0 L 5.6 0" class="primitive"/>
  </g>
  <g transform="translate(160,285)">
    <path fill="none" d="M-5.6,0 L 5.6 0" class="primitive"/>
  </g>
  <g transform="translate(240,295)">
    <path fill="none" d="M-5.6,0 L 5.6 0" class="primitive"/>
  </g>
  <g transform="translate(140,305)">
    <path fill="none" d="M-5.6,0 L 5.6 0" class="primitive"/>
  </g>
  <g transform="translate(40,295)">
    <path fill="none" d="M-5.6,0 L 5.6 0" class="primitive"/>
  </g>
  <g transform="translate(140,285)">
    <path fill="none" d="M-5.6,0 L 5.6 0" class="primitive"/>
  </g>
  <g transform="translate(40,285)">
    <path fill="none" d="M-5.6,0 L 5.6 0" class="primitive"/>
  </g>
  <g transform="translate(40,305)">
    <path fill="none" d="M-5.6,0 L 5.6 0" class="primitive"/>
  </g>
  <g transform="translate(120,305)">
    <path fill="none" d="M-5.6,0 L 5.6 0" class="primitive"/>
  </g>
  <g transform="translate(120,285)">
    <path fill="none" d="M-5.6,0 L 5.6 0" class="primitive"/>
  </g>
  <g transform="translate(220,295)">
    <path fill="none" d="M-5.6,0 L 5.6 0" class="primitive"/>
  </g>
  <g transform="translate(40,172.5)">
    <path fill="none" d="M-6.06,1.52 L 6.06 -1.52" class="primitive"/>
  </g>
  <g transform="translate(380,100)">
    <path fill="none" d="M-5.6,0 L 5.6 0" class="primitive"/>
  </g>
  <g transform="translate(60,150)">
    <path fill="none" d="M-5.6,0 L 5.6 0" class="primitive"/>
  </g>
  <g transform="translate(160,170)">
    <path fill="none" d="M-5.6,0 L 5.6 0" class="primitive"/>
  </g>
  <g transform="translate(300,140)">
    <path fill="none" d="M-5.6,0 L 5.6 0" class="primitive"/>
  </g>
  <g transform="translate(300,120)">
    <path fill="none" d="M-8.93,17.87 L 8.93 -17.87" class="primitive"/>
  </g>
  <g transform="translate(40,152.5)">
    <path fill="none" d="M-6.06,1.52 L 6.06 -1.52" class="primitive"/>
  </g>
  <g transform="translate(240,140)">
    <path fill="none" d="M-5.6,0 L 5.6 0" class="primitive"/>
  </g>
  <g transform="translate(280,140)">
    <path fill="none" d="M-5.6,0 L 5.6 0" class="primitive"/>
  </g>
  <g transform="translate(20,185)">
    <path fill="none" d="M-5.6,0 L 5.6 0" class="primitive"/>
  </g>
  <g transform="translate(20,195)">
    <path fill="none" d="M-5.6,0 L 5.6 0" class="primitive"/>
  </g>
  <g transform="translate(120,170)">
    <path fill="none" d="M-5.6,0 L 5.6 0" class="primitive"/>
  </g>
  <g transform="translate(100,170)">
    <path fill="none" d="M-5.6,0 L 5.6 0" class="primitive"/>
  </g>
  <g transform="translate(100,100)">
    <path fill="none" d="M-9.69,67.81 L 9.69 -67.81" class="primitive"/>
  </g>
  <g transform="translate(30,147.5)">
    <path fill="none" d="M-15.73,-1.97 L 15.73 1.97" class="primitive"/>
  </g>
  <g transform="translate(30,167.5)">
    <path fill="none" d="M-15.73,-1.97 L 15.73 1.97" class="primitive"/>
  </g>
  <g transform="translate(360,100)">
    <path fill="none" d="M-5.6,0 L 5.6 0" class="primitive"/>
  </g>
  <g transform="translate(60,170)">
    <path fill="none" d="M-5.6,0 L 5.6 0" class="primitive"/>
  </g>
  <g transform="translate(320,100)">
    <path fill="none" d="M-5.6,0 L 5.6 0" class="primitive"/>
  </g>
  <g transform="translate(100,80)">
    <path fill="none" d="M-9.69,67.81 L 9.69 -67.81" class="primitive"/>
  </g>
  <g transform="translate(150,145)">
    <path fill="none" d="M-55.66,4.64 L 55.66 -4.64" class="primitive"/>
  </g>
  <g transform="translate(40,185)">
    <path fill="none" d="M-5.6,0 L 5.6 0" class="primitive"/>
  </g>
  <g transform="translate(200,170)">
    <path fill="none" d="M-5.6,0 L 5.6 0" class="primitive"/>
  </g>
  <g transform="translate(200,155)">
    <path fill="none" d="M-8.61,12.91 L 8.61 -12.91" class="primitive"/>
  </g>
  <g transform="translate(20,155)">
    <path fill="none" d="M-5.6,0 L 5.6 0" class="primitive"/>
  </g>
  <g transform="translate(80,170)">
    <path fill="none" d="M-5.6,0 L 5.6 0" class="primitive"/>
  </g>
  <g transform="translate(20,175)">
    <path fill="none" d="M-5.6,0 L 5.6 0" class="primitive"/>
  </g>
  <g transform="translate(260,140)">
    <path fill="none" d="M-5.6,0 L 5.6 0" class="primitive"/>
  </g>
  <g transform="translate(140,170)">
    <path fill="none" d="M-5.6,0 L 5.6 0" class="primitive"/>
  </g>
  <g transform="translate(80,150)">
    <path fill="none" d="M-5.6,0 L 5.6 0" class="primitive"/>
  </g>
  <g transform="translate(400,100)">
    <path fill="none" d="M-5.6,0 L 5.6 0" class="primitive"/>
  </g>
  <g transform="translate(400,80)">
    <path fill="none" d="M-8.93,17.87 L 8.93 -17.87" class="primitive"/>
  </g>
  <g transform="translate(180,170)">
    <path fill="none" d="M-5.6,0 L 5.6 0" class="primitive"/>
  </g>
  <g transform="translate(40,195)">
    <path fill="none" d="M-5.6,0 L 5.6 0" class="primitive"/>
  </g>
  <g transform="translate(340,100)">
    <path fill="none" d="M-5.6,0 L 5.6 0" class="primitive"/>
  </g>
  <g transform="translate(220,140)">
    <path fill="none" d="M-5.6,0 L 5.6 0" class="primitive"/>
  </g>
</g>
<g fill="#FF0000" id="img-46b95f1e-2">
  <g transform="translate(10,305)">
    <circle cx="0" cy="0" r="4" class="primitive"/>
  </g>
</g>
<g fill="#FF0000" id="img-46b95f1e-3">
  <g transform="translate(10,285)">
    <circle cx="0" cy="0" r="4" class="primitive"/>
  </g>
</g>
<g fill="#FF0000" id="img-46b95f1e-4">
  <g transform="translate(10,295)">
    <circle cx="0" cy="0" r="4" class="primitive"/>
  </g>
</g>
<g fill="#00FFFF" id="img-46b95f1e-5">
  <g transform="translate(310,295)">
    <circle cx="0" cy="0" r="4" class="primitive"/>
  </g>
</g>
<g fill="#00FFFF" id="img-46b95f1e-6">
  <g transform="translate(290,295)">
    <circle cx="0" cy="0" r="4" class="primitive"/>
  </g>
</g>
<g fill="#00FFFF" id="img-46b95f1e-7">
  <g transform="translate(270,295)">
    <circle cx="0" cy="0" r="4" class="primitive"/>
  </g>
</g>
<g fill="#00FFFF" id="img-46b95f1e-8">
  <g transform="translate(250,295)">
    <circle cx="0" cy="0" r="4" class="primitive"/>
  </g>
</g>
<g fill="#00FFFF" id="img-46b95f1e-9">
  <g transform="translate(110,275)">
    <circle cx="0" cy="0" r="4" class="primitive"/>
  </g>
</g>
<g fill="#00FFFF" id="img-46b95f1e-10">
  <g transform="translate(90,305)">
    <circle cx="0" cy="0" r="4" class="primitive"/>
  </g>
</g>
<g fill="#00FFFF" id="img-46b95f1e-11">
  <g transform="translate(70,305)">
    <circle cx="0" cy="0" r="4" class="primitive"/>
  </g>
</g>
<g fill="#00FFFF" id="img-46b95f1e-12">
  <g transform="translate(50,305)">
    <circle cx="0" cy="0" r="4" class="primitive"/>
  </g>
</g>
<g fill="#00FFFF" id="img-46b95f1e-13">
  <g transform="translate(110,265)">
    <circle cx="0" cy="0" r="4" class="primitive"/>
  </g>
</g>
<g fill="#00FFFF" id="img-46b95f1e-14">
  <g transform="translate(90,285)">
    <circle cx="0" cy="0" r="4" class="primitive"/>
  </g>
</g>
<g fill="#00FFFF" id="img-46b95f1e-15">
  <g transform="translate(70,285)">
    <circle cx="0" cy="0" r="4" class="primitive"/>
  </g>
</g>
<g fill="#00FFFF" id="img-46b95f1e-16">
  <g transform="translate(50,285)">
    <circle cx="0" cy="0" r="4" class="primitive"/>
  </g>
</g>
<g fill="#00FFFF" id="img-46b95f1e-17">
  <g transform="translate(210,255)">
    <circle cx="0" cy="0" r="4" class="primitive"/>
  </g>
</g>
<g fill="#00FFFF" id="img-46b95f1e-18">
  <g transform="translate(190,305)">
    <circle cx="0" cy="0" r="4" class="primitive"/>
  </g>
</g>
<g fill="#00FFFF" id="img-46b95f1e-19">
  <g transform="translate(170,305)">
    <circle cx="0" cy="0" r="4" class="primitive"/>
  </g>
</g>
<g fill="#00FFFF" id="img-46b95f1e-20">
  <g transform="translate(150,305)">
    <circle cx="0" cy="0" r="4" class="primitive"/>
  </g>
</g>
<g fill="#00FFFF" id="img-46b95f1e-21">
  <g transform="translate(110,245)">
    <circle cx="0" cy="0" r="4" class="primitive"/>
  </g>
</g>
<g fill="#00FFFF" id="img-46b95f1e-22">
  <g transform="translate(90,295)">
    <circle cx="0" cy="0" r="4" class="primitive"/>
  </g>
</g>
<g fill="#00FFFF" id="img-46b95f1e-23">
  <g transform="translate(70,295)">
    <circle cx="0" cy="0" r="4" class="primitive"/>
  </g>
</g>
<g fill="#00FFFF" id="img-46b95f1e-24">
  <g transform="translate(50,295)">
    <circle cx="0" cy="0" r="4" class="primitive"/>
  </g>
</g>
<g fill="#00FFFF" id="img-46b95f1e-25">
  <g transform="translate(210,235)">
    <circle cx="0" cy="0" r="4" class="primitive"/>
  </g>
</g>
<g fill="#00FFFF" id="img-46b95f1e-26">
  <g transform="translate(190,285)">
    <circle cx="0" cy="0" r="4" class="primitive"/>
  </g>
</g>
<g fill="#00FFFF" id="img-46b95f1e-27">
  <g transform="translate(170,285)">
    <circle cx="0" cy="0" r="4" class="primitive"/>
  </g>
</g>
<g fill="#00FFFF" id="img-46b95f1e-28">
  <g transform="translate(150,285)">
    <circle cx="0" cy="0" r="4" class="primitive"/>
  </g>
</g>
<g fill="#FFA500" id="img-46b95f1e-29">
  <g transform="translate(230,295)">
    <circle cx="0" cy="0" r="4" class="primitive"/>
  </g>
</g>
<g fill="#FFA500" id="img-46b95f1e-30">
  <g transform="translate(130,305)">
    <circle cx="0" cy="0" r="4" class="primitive"/>
  </g>
</g>
<g fill="#FFA500" id="img-46b95f1e-31">
  <g transform="translate(30,295)">
    <circle cx="0" cy="0" r="4" class="primitive"/>
  </g>
</g>
<g fill="#FFA500" id="img-46b95f1e-32">
  <g transform="translate(130,285)">
    <circle cx="0" cy="0" r="4" class="primitive"/>
  </g>
</g>
<g fill="#FFA500" id="img-46b95f1e-33">
  <g transform="translate(30,285)">
    <circle cx="0" cy="0" r="4" class="primitive"/>
  </g>
</g>
<g fill="#FFA500" id="img-46b95f1e-34">
  <g transform="translate(30,305)">
    <circle cx="0" cy="0" r="4" class="primitive"/>
  </g>
</g>
<g fill="#FF0000" id="img-46b95f1e-35">
  <g transform="translate(310,215)">
    <circle cx="0" cy="0" r="4" class="primitive"/>
  </g>
</g>
<g fill="#FF0000" id="img-46b95f1e-36">
  <g transform="translate(110,305)">
    <circle cx="0" cy="0" r="4" class="primitive"/>
  </g>
</g>
<g fill="#FF0000" id="img-46b95f1e-37">
  <g transform="translate(110,285)">
    <circle cx="0" cy="0" r="4" class="primitive"/>
  </g>
</g>
<g fill="#FF0000" id="img-46b95f1e-38">
  <g transform="translate(210,295)">
    <circle cx="0" cy="0" r="4" class="primitive"/>
  </g>
</g>
<g fill="#00FFFF" id="img-46b95f1e-39">
  <g transform="translate(50,195)">
    <circle cx="0" cy="0" r="4" class="primitive"/>
  </g>
</g>
<g fill="#00FFFF" id="img-46b95f1e-40">
  <g transform="translate(50,185)">
    <circle cx="0" cy="0" r="4" class="primitive"/>
  </g>
</g>
<g fill="#00FFFF" id="img-46b95f1e-41">
  <g transform="translate(30,175)">
    <circle cx="0" cy="0" r="4" class="primitive"/>
  </g>
</g>
<g fill="#00FFFF" id="img-46b95f1e-42">
  <g transform="translate(370,100)">
    <circle cx="0" cy="0" r="4" class="primitive"/>
  </g>
</g>
<g fill="#00FFFF" id="img-46b95f1e-43">
  <g transform="translate(210,170)">
    <circle cx="0" cy="0" r="4" class="primitive"/>
  </g>
</g>
<g fill="#00FFFF" id="img-46b95f1e-44">
  <g transform="translate(310,140)">
    <circle cx="0" cy="0" r="4" class="primitive"/>
  </g>
</g>
<g fill="#FF0000" id="img-46b95f1e-45">
  <g transform="translate(410,100)">
    <circle cx="0" cy="0" r="4" class="primitive"/>
  </g>
</g>
<g fill="#00FFFF" id="img-46b95f1e-46">
  <g transform="translate(50,150)">
    <circle cx="0" cy="0" r="4" class="primitive"/>
  </g>
</g>
<g fill="#00FFFF" id="img-46b95f1e-47">
  <g transform="translate(150,170)">
    <circle cx="0" cy="0" r="4" class="primitive"/>
  </g>
</g>
<g fill="#00FFFF" id="img-46b95f1e-48">
  <g transform="translate(290,140)">
    <circle cx="0" cy="0" r="4" class="primitive"/>
  </g>
</g>
<g fill="#00FFFF" id="img-46b95f1e-49">
  <g transform="translate(30,155)">
    <circle cx="0" cy="0" r="4" class="primitive"/>
  </g>
</g>
<g fill="#FFA500" id="img-46b95f1e-50">
  <g transform="translate(230,140)">
    <circle cx="0" cy="0" r="4" class="primitive"/>
  </g>
</g>
<g fill="#00FFFF" id="img-46b95f1e-51">
  <g transform="translate(270,140)">
    <circle cx="0" cy="0" r="4" class="primitive"/>
  </g>
</g>
<g fill="#00FF00" id="img-46b95f1e-52">
  <g transform="translate(10,185)">
    <circle cx="0" cy="0" r="4" class="primitive"/>
  </g>
</g>
<g fill="#00FF00" id="img-46b95f1e-53">
  <g transform="translate(10,195)">
    <circle cx="0" cy="0" r="4" class="primitive"/>
  </g>
</g>
<g fill="#FF0000" id="img-46b95f1e-54">
  <g transform="translate(110,170)">
    <circle cx="0" cy="0" r="4" class="primitive"/>
  </g>
</g>
<g fill="#00FFFF" id="img-46b95f1e-55">
  <g transform="translate(90,170)">
    <circle cx="0" cy="0" r="4" class="primitive"/>
  </g>
</g>
<g fill="#00FFFF" id="img-46b95f1e-56">
  <g transform="translate(410,60)">
    <circle cx="0" cy="0" r="4" class="primitive"/>
  </g>
</g>
<g fill="#FFA500" id="img-46b95f1e-57">
  <g transform="translate(10,145)">
    <circle cx="0" cy="0" r="4" class="primitive"/>
  </g>
</g>
<g fill="#FFA500" id="img-46b95f1e-58">
  <g transform="translate(10,165)">
    <circle cx="0" cy="0" r="4" class="primitive"/>
  </g>
</g>
<g fill="#00FFFF" id="img-46b95f1e-59">
  <g transform="translate(350,100)">
    <circle cx="0" cy="0" r="4" class="primitive"/>
  </g>
</g>
<g fill="#00FFFF" id="img-46b95f1e-60">
  <g transform="translate(50,170)">
    <circle cx="0" cy="0" r="4" class="primitive"/>
  </g>
</g>
<g fill="#FF0000" id="img-46b95f1e-61">
  <g transform="translate(310,100)">
    <circle cx="0" cy="0" r="4" class="primitive"/>
  </g>
</g>
<g fill="#00FFFF" id="img-46b95f1e-62">
  <g transform="translate(90,150)">
    <circle cx="0" cy="0" r="4" class="primitive"/>
  </g>
</g>
<g fill="#00FFFF" id="img-46b95f1e-63">
  <g transform="translate(30,185)">
    <circle cx="0" cy="0" r="4" class="primitive"/>
  </g>
</g>
<g fill="#00FFFF" id="img-46b95f1e-64">
  <g transform="translate(110,30)">
    <circle cx="0" cy="0" r="4" class="primitive"/>
  </g>
</g>
<g fill="#00FFFF" id="img-46b95f1e-65">
  <g transform="translate(190,170)">
    <circle cx="0" cy="0" r="4" class="primitive"/>
  </g>
</g>
<g fill="#00FF00" id="img-46b95f1e-66">
  <g transform="translate(10,155)">
    <circle cx="0" cy="0" r="4" class="primitive"/>
  </g>
</g>
<g fill="#00FFFF" id="img-46b95f1e-67">
  <g transform="translate(70,170)">
    <circle cx="0" cy="0" r="4" class="primitive"/>
  </g>
</g>
<g fill="#00FFFF" id="img-46b95f1e-68">
  <g transform="translate(110,10)">
    <circle cx="0" cy="0" r="4" class="primitive"/>
  </g>
</g>
<g fill="#00FF00" id="img-46b95f1e-69">
  <g transform="translate(10,175)">
    <circle cx="0" cy="0" r="4" class="primitive"/>
  </g>
</g>
<g fill="#00FFFF" id="img-46b95f1e-70">
  <g transform="translate(250,140)">
    <circle cx="0" cy="0" r="4" class="primitive"/>
  </g>
</g>
<g fill="#FFA500" id="img-46b95f1e-71">
  <g transform="translate(130,170)">
    <circle cx="0" cy="0" r="4" class="primitive"/>
  </g>
</g>
<g fill="#00FFFF" id="img-46b95f1e-72">
  <g transform="translate(70,150)">
    <circle cx="0" cy="0" r="4" class="primitive"/>
  </g>
</g>
<g fill="#00FFFF" id="img-46b95f1e-73">
  <g transform="translate(390,100)">
    <circle cx="0" cy="0" r="4" class="primitive"/>
  </g>
</g>
<g fill="#00FFFF" id="img-46b95f1e-74">
  <g transform="translate(170,170)">
    <circle cx="0" cy="0" r="4" class="primitive"/>
  </g>
</g>
<g fill="#00FFFF" id="img-46b95f1e-75">
  <g transform="translate(30,195)">
    <circle cx="0" cy="0" r="4" class="primitive"/>
  </g>
</g>
<g fill="#FFA500" id="img-46b95f1e-76">
  <g transform="translate(330,100)">
    <circle cx="0" cy="0" r="4" class="primitive"/>
  </g>
</g>
<g fill="#FF0000" id="img-46b95f1e-77">
  <g transform="translate(210,140)">
    <circle cx="0" cy="0" r="4" class="primitive"/>
  </g>
</g>
<g font-family="futura" font-size="3.53" stroke="#000000" id="img-46b95f1e-78">
  <g transform="translate(10,305)">
    <g class="primitive">
      <text text-anchor="middle" dy="-0.25em">op631<tspan x="0" dy="1.2em">30,30</tspan></text>
    </g>
  </g>
  <g transform="translate(10,285)">
    <g class="primitive">
      <text text-anchor="middle" dy="-0.25em">op630<tspan x="0" dy="1.2em">30,30</tspan></text>
    </g>
  </g>
  <g transform="translate(10,295)">
    <g class="primitive">
      <text text-anchor="middle" dy="-0.25em">op629<tspan x="0" dy="1.2em">30,30</tspan></text>
    </g>
  </g>
  <g transform="translate(310,295)">
    <g class="primitive">
      <text text-anchor="middle" dy="-0.85em">go<tspan x="0" dy="1.2em">-1,247,-1</tspan><tspan x="0" dy="1.2em">88,88</tspan></text>
    </g>
  </g>
  <g transform="translate(290,295)">
    <g class="primitive">
      <text text-anchor="middle" dy="-0.85em">deposit<tspan x="0" dy="1.2em">-1,12,247</tspan><tspan x="0" dy="1.2em">88,88</tspan></text>
    </g>
  </g>
  <g transform="translate(270,295)">
    <g class="primitive">
      <text text-anchor="middle" dy="-0.85em">carry<tspan x="0" dy="1.2em">-1,12,247</tspan><tspan x="0" dy="1.2em">76,88</tspan></text>
    </g>
  </g>
  <g transform="translate(250,295)">
    <g class="primitive">
      <text text-anchor="middle" dy="-0.85em">collect<tspan x="0" dy="1.2em">-1,12,355</tspan><tspan x="0" dy="1.2em">76,76</tspan></text>
    </g>
  </g>
  <g transform="translate(110,275)">
    <g class="primitive">
      <text text-anchor="middle" dy="-0.85em">go<tspan x="0" dy="1.2em">-1,74,-1</tspan><tspan x="0" dy="1.2em">41,41</tspan></text>
    </g>
  </g>
  <g transform="translate(90,305)">
    <g class="primitive">
      <text text-anchor="middle" dy="-0.85em">deposit<tspan x="0" dy="1.2em">-1,7,74</tspan><tspan x="0" dy="1.2em">41,41</tspan></text>
    </g>
  </g>
  <g transform="translate(70,305)">
    <g class="primitive">
      <text text-anchor="middle" dy="-0.85em">carry<tspan x="0" dy="1.2em">-1,7,74</tspan><tspan x="0" dy="1.2em">30,41</tspan></text>
    </g>
  </g>
  <g transform="translate(50,305)">
    <g class="primitive">
      <text text-anchor="middle" dy="-0.85em">collect<tspan x="0" dy="1.2em">-1,7,63</tspan><tspan x="0" dy="1.2em">30,30</tspan></text>
    </g>
  </g>
  <g transform="translate(110,265)">
    <g class="primitive">
      <text text-anchor="middle" dy="-0.85em">go<tspan x="0" dy="1.2em">-1,94,-1</tspan><tspan x="0" dy="1.2em">61,61</tspan></text>
    </g>
  </g>
  <g transform="translate(90,285)">
    <g class="primitive">
      <text text-anchor="middle" dy="-0.85em">deposit<tspan x="0" dy="1.2em">-1,8,94</tspan><tspan x="0" dy="1.2em">61,61</tspan></text>
    </g>
  </g>
  <g transform="translate(70,285)">
    <g class="primitive">
      <text text-anchor="middle" dy="-0.85em">carry<tspan x="0" dy="1.2em">-1,8,94</tspan><tspan x="0" dy="1.2em">30,61</tspan></text>
    </g>
  </g>
  <g transform="translate(50,285)">
    <g class="primitive">
      <text text-anchor="middle" dy="-0.85em">collect<tspan x="0" dy="1.2em">-1,8,380</tspan><tspan x="0" dy="1.2em">30,30</tspan></text>
    </g>
  </g>
  <g transform="translate(210,255)">
    <g class="primitive">
      <text text-anchor="middle" dy="-0.85em">go<tspan x="0" dy="1.2em">-1,510,-1</tspan><tspan x="0" dy="1.2em">52,52</tspan></text>
    </g>
  </g>
  <g transform="translate(190,305)">
    <g class="primitive">
      <text text-anchor="middle" dy="-0.85em">deposit<tspan x="0" dy="1.2em">-1,11,510</tspan><tspan x="0" dy="1.2em">52,52</tspan></text>
    </g>
  </g>
  <g transform="translate(170,305)">
    <g class="primitive">
      <text text-anchor="middle" dy="-0.85em">carry<tspan x="0" dy="1.2em">-1,11,510</tspan><tspan x="0" dy="1.2em">41,52</tspan></text>
    </g>
  </g>
  <g transform="translate(150,305)">
    <g class="primitive">
      <text text-anchor="middle" dy="-0.85em">collect<tspan x="0" dy="1.2em">-1,11,505</tspan><tspan x="0" dy="1.2em">41,41</tspan></text>
    </g>
  </g>
  <g transform="translate(110,245)">
    <g class="primitive">
      <text text-anchor="middle" dy="-0.85em">go<tspan x="0" dy="1.2em">-1,374,-1</tspan><tspan x="0" dy="1.2em">35,35</tspan></text>
    </g>
  </g>
  <g transform="translate(90,295)">
    <g class="primitive">
      <text text-anchor="middle" dy="-0.85em">deposit<tspan x="0" dy="1.2em">-1,10,374</tspan><tspan x="0" dy="1.2em">35,35</tspan></text>
    </g>
  </g>
  <g transform="translate(70,295)">
    <g class="primitive">
      <text text-anchor="middle" dy="-0.85em">carry<tspan x="0" dy="1.2em">-1,10,374</tspan><tspan x="0" dy="1.2em">30,35</tspan></text>
    </g>
  </g>
  <g transform="translate(50,295)">
    <g class="primitive">
      <text text-anchor="middle" dy="-0.85em">collect<tspan x="0" dy="1.2em">-1,10,252</tspan><tspan x="0" dy="1.2em">30,30</tspan></text>
    </g>
  </g>
  <g transform="translate(210,235)">
    <g class="primitive">
      <text text-anchor="middle" dy="-0.85em">go<tspan x="0" dy="1.2em">-1,502,-1</tspan><tspan x="0" dy="1.2em">76,76</tspan></text>
    </g>
  </g>
  <g transform="translate(190,285)">
    <g class="primitive">
      <text text-anchor="middle" dy="-0.85em">deposit<tspan x="0" dy="1.2em">-1,9,502</tspan><tspan x="0" dy="1.2em">76,76</tspan></text>
    </g>
  </g>
  <g transform="translate(170,285)">
    <g class="primitive">
      <text text-anchor="middle" dy="-0.85em">carry<tspan x="0" dy="1.2em">-1,9,502</tspan><tspan x="0" dy="1.2em">61,76</tspan></text>
    </g>
  </g>
  <g transform="translate(150,285)">
    <g class="primitive">
      <text text-anchor="middle" dy="-0.85em">collect<tspan x="0" dy="1.2em">-1,9,221</tspan><tspan x="0" dy="1.2em">61,61</tspan></text>
    </g>
  </g>
  <g transform="translate(230,295)">
    <g class="primitive">
      <text text-anchor="middle" dy="-0.25em">O12-355<tspan x="0" dy="1.2em">76,76</tspan></text>
    </g>
  </g>
  <g transform="translate(130,305)">
    <g class="primitive">
      <text text-anchor="middle" dy="-0.25em">O11-505<tspan x="0" dy="1.2em">41,41</tspan></text>
    </g>
  </g>
  <g transform="translate(30,295)">
    <g class="primitive">
      <text text-anchor="middle" dy="-0.25em">O10-252<tspan x="0" dy="1.2em">30,30</tspan></text>
    </g>
  </g>
  <g transform="translate(130,285)">
    <g class="primitive">
      <text text-anchor="middle" dy="-0.25em">O9-221<tspan x="0" dy="1.2em">61,61</tspan></text>
    </g>
  </g>
  <g transform="translate(30,285)">
    <g class="primitive">
      <text text-anchor="middle" dy="-0.25em">O8-380<tspan x="0" dy="1.2em">30,30</tspan></text>
    </g>
  </g>
  <g transform="translate(30,305)">
    <g class="primitive">
      <text text-anchor="middle" dy="-0.25em">O7-63<tspan x="0" dy="1.2em">30,30</tspan></text>
    </g>
  </g>
  <g transform="translate(310,215)">
    <g class="primitive">
      <text text-anchor="middle" dy="-0.25em">op628<tspan x="0" dy="1.2em">88,88</tspan></text>
    </g>
  </g>
  <g transform="translate(110,305)">
    <g class="primitive">
      <text text-anchor="middle" dy="-0.25em">op627<tspan x="0" dy="1.2em">41,41</tspan></text>
    </g>
  </g>
  <g transform="translate(110,285)">
    <g class="primitive">
      <text text-anchor="middle" dy="-0.25em">op626<tspan x="0" dy="1.2em">61,61</tspan></text>
    </g>
  </g>
  <g transform="translate(210,295)">
    <g class="primitive">
      <text text-anchor="middle" dy="-0.25em">op625<tspan x="0" dy="1.2em">76,76</tspan></text>
    </g>
  </g>
  <g transform="translate(50,195)">
    <g class="primitive">
      <text text-anchor="middle" dy="-0.85em">go<tspan x="0" dy="1.2em">1,509,-1</tspan><tspan x="0" dy="1.2em">30,30</tspan></text>
    </g>
  </g>
  <g transform="translate(50,185)">
    <g class="primitive">
      <text text-anchor="middle" dy="-0.85em">go<tspan x="0" dy="1.2em">3,270,-1</tspan><tspan x="0" dy="1.2em">30,30</tspan></text>
    </g>
  </g>
  <g transform="translate(30,175)">
    <g class="primitive">
      <text text-anchor="middle" dy="-0.85em">go<tspan x="0" dy="1.2em">2,586,513</tspan><tspan x="0" dy="1.2em">0,8</tspan></text>
    </g>
  </g>
  <g transform="translate(370,100)">
    <g class="primitive">
      <text text-anchor="middle" dy="-0.85em">carry<tspan x="0" dy="1.2em">-1,6,539</tspan><tspan x="0" dy="1.2em">76,88</tspan></text>
    </g>
  </g>
  <g transform="translate(210,170)">
    <g class="primitive">
      <text text-anchor="middle" dy="-0.85em">go<tspan x="0" dy="1.2em">-1,545,-1</tspan><tspan x="0" dy="1.2em">55,55</tspan></text>
    </g>
  </g>
  <g transform="translate(310,140)">
    <g class="primitive">
      <text text-anchor="middle" dy="-0.85em">go<tspan x="0" dy="1.2em">-1,277,-1</tspan><tspan x="0" dy="1.2em">76,76</tspan></text>
    </g>
  </g>
  <g transform="translate(410,100)">
    <g class="primitive">
      <text text-anchor="middle" dy="-0.25em">op620<tspan x="0" dy="1.2em">88,88</tspan></text>
    </g>
  </g>
  <g transform="translate(50,150)">
    <g class="primitive">
      <text text-anchor="middle" dy="-0.85em">collect<tspan x="0" dy="1.2em">4,4,349</tspan><tspan x="0" dy="1.2em">18,18</tspan></text>
    </g>
  </g>
  <g transform="translate(150,170)">
    <g class="primitive">
      <text text-anchor="middle" dy="-0.85em">collect<tspan x="0" dy="1.2em">-1,3,270</tspan><tspan x="0" dy="1.2em">38,38</tspan></text>
    </g>
  </g>
  <g transform="translate(290,140)">
    <g class="primitive">
      <text text-anchor="middle" dy="-0.85em">deposit<tspan x="0" dy="1.2em">-1,5,277</tspan><tspan x="0" dy="1.2em">76,76</tspan></text>
    </g>
  </g>
  <g transform="translate(30,155)">
    <g class="primitive">
      <text text-anchor="middle" dy="-0.85em">go<tspan x="0" dy="1.2em">4,338,349</tspan><tspan x="0" dy="1.2em">0,11</tspan></text>
    </g>
  </g>
  <g transform="translate(230,140)">
    <g class="primitive">
      <text text-anchor="middle" dy="-0.25em">O5-197<tspan x="0" dy="1.2em">55,55</tspan></text>
    </g>
  </g>
  <g transform="translate(270,140)">
    <g class="primitive">
      <text text-anchor="middle" dy="-0.85em">carry<tspan x="0" dy="1.2em">-1,5,277</tspan><tspan x="0" dy="1.2em">55,76</tspan></text>
    </g>
  </g>
  <g transform="translate(10,185)">
    <g class="primitive">
      <text text-anchor="middle" dy="-0.25em">R3-216<tspan x="0" dy="1.2em">0,0</tspan></text>
    </g>
  </g>
  <g transform="translate(10,195)">
    <g class="primitive">
      <text text-anchor="middle" dy="-0.25em">R1-271<tspan x="0" dy="1.2em">18,18</tspan></text>
    </g>
  </g>
  <g transform="translate(110,170)">
    <g class="primitive">
      <text text-anchor="middle" dy="-0.25em">op618<tspan x="0" dy="1.2em">38,38</tspan></text>
    </g>
  </g>
  <g transform="translate(90,170)">
    <g class="primitive">
      <text text-anchor="middle" dy="-0.85em">deposit<tspan x="0" dy="1.2em">2,2,196</tspan><tspan x="0" dy="1.2em">38,38</tspan></text>
    </g>
  </g>
  <g transform="translate(410,60)">
    <g class="primitive">
      <text text-anchor="middle" dy="-0.85em">go<tspan x="0" dy="1.2em">-1,539,-1</tspan><tspan x="0" dy="1.2em">88,88</tspan></text>
    </g>
  </g>
  <g transform="translate(10,145)">
    <g class="primitive">
      <text text-anchor="middle" dy="-0.25em">O4-349<tspan x="0" dy="1.2em">18,18</tspan></text>
    </g>
  </g>
  <g transform="translate(10,165)">
    <g class="primitive">
      <text text-anchor="middle" dy="-0.25em">O2-513<tspan x="0" dy="1.2em">0,0</tspan></text>
    </g>
  </g>
  <g transform="translate(350,100)">
    <g class="primitive">
      <text text-anchor="middle" dy="-0.85em">collect<tspan x="0" dy="1.2em">-1,6,509</tspan><tspan x="0" dy="1.2em">76,76</tspan></text>
    </g>
  </g>
  <g transform="translate(50,170)">
    <g class="primitive">
      <text text-anchor="middle" dy="-0.85em">collect<tspan x="0" dy="1.2em">2,2,513</tspan><tspan x="0" dy="1.2em">8,8</tspan></text>
    </g>
  </g>
  <g transform="translate(310,100)">
    <g class="primitive">
      <text text-anchor="middle" dy="-0.25em">op616<tspan x="0" dy="1.2em">76,76</tspan></text>
    </g>
  </g>
  <g transform="translate(90,150)">
    <g class="primitive">
      <text text-anchor="middle" dy="-0.85em">deposit<tspan x="0" dy="1.2em">4,4,119</tspan><tspan x="0" dy="1.2em">39,39</tspan></text>
    </g>
  </g>
  <g transform="translate(30,185)">
    <g class="primitive">
      <text text-anchor="middle" dy="-0.85em">go<tspan x="0" dy="1.2em">3,216,270</tspan><tspan x="0" dy="1.2em">0,30</tspan></text>
    </g>
  </g>
  <g transform="translate(110,30)">
    <g class="primitive">
      <text text-anchor="middle" dy="-0.85em">go<tspan x="0" dy="1.2em">2,196,-1</tspan><tspan x="0" dy="1.2em">38,38</tspan></text>
    </g>
  </g>
  <g transform="translate(190,170)">
    <g class="primitive">
      <text text-anchor="middle" dy="-0.85em">deposit<tspan x="0" dy="1.2em">-1,3,545</tspan><tspan x="0" dy="1.2em">55,55</tspan></text>
    </g>
  </g>
  <g transform="translate(10,155)">
    <g class="primitive">
      <text text-anchor="middle" dy="-0.25em">R4-338<tspan x="0" dy="1.2em">0,0</tspan></text>
    </g>
  </g>
  <g transform="translate(70,170)">
    <g class="primitive">
      <text text-anchor="middle" dy="-0.85em">carry<tspan x="0" dy="1.2em">2,2,196</tspan><tspan x="0" dy="1.2em">8,38</tspan></text>
    </g>
  </g>
  <g transform="translate(110,10)">
    <g class="primitive">
      <text text-anchor="middle" dy="-0.85em">go<tspan x="0" dy="1.2em">4,119,-1</tspan><tspan x="0" dy="1.2em">39,39</tspan></text>
    </g>
  </g>
  <g transform="translate(10,175)">
    <g class="primitive">
      <text text-anchor="middle" dy="-0.25em">R2-586<tspan x="0" dy="1.2em">0,0</tspan></text>
    </g>
  </g>
  <g transform="translate(250,140)">
    <g class="primitive">
      <text text-anchor="middle" dy="-0.85em">collect<tspan x="0" dy="1.2em">-1,5,197</tspan><tspan x="0" dy="1.2em">55,55</tspan></text>
    </g>
  </g>
  <g transform="translate(130,170)">
    <g class="primitive">
      <text text-anchor="middle" dy="-0.25em">O3-270<tspan x="0" dy="1.2em">38,38</tspan></text>
    </g>
  </g>
  <g transform="translate(70,150)">
    <g class="primitive">
      <text text-anchor="middle" dy="-0.85em">carry<tspan x="0" dy="1.2em">4,4,119</tspan><tspan x="0" dy="1.2em">18,39</tspan></text>
    </g>
  </g>
  <g transform="translate(390,100)">
    <g class="primitive">
      <text text-anchor="middle" dy="-0.85em">deposit<tspan x="0" dy="1.2em">-1,6,539</tspan><tspan x="0" dy="1.2em">88,88</tspan></text>
    </g>
  </g>
  <g transform="translate(170,170)">
    <g class="primitive">
      <text text-anchor="middle" dy="-0.85em">carry<tspan x="0" dy="1.2em">-1,3,545</tspan><tspan x="0" dy="1.2em">38,55</tspan></text>
    </g>
  </g>
  <g transform="translate(30,195)">
    <g class="primitive">
      <text text-anchor="middle" dy="-0.85em">go<tspan x="0" dy="1.2em">1,271,509</tspan><tspan x="0" dy="1.2em">18,30</tspan></text>
    </g>
  </g>
  <g transform="translate(330,100)">
    <g class="primitive">
      <text text-anchor="middle" dy="-0.25em">O6-509<tspan x="0" dy="1.2em">76,76</tspan></text>
    </g>
  </g>
  <g transform="translate(210,140)">
    <g class="primitive">
      <text text-anchor="middle" dy="-0.25em">op617<tspan x="0" dy="1.2em">55,55</tspan></text>
    </g>
  </g>
</g>
</svg>
