<?xml version="1.0" encoding="UTF-8"?>
<svg xmlns="http://www.w3.org/2000/svg"
     xmlns:xlink="http://www.w3.org/1999/xlink"
     xmlns:gadfly="http://www.gadflyjl.org/ns"
     version="1.2"
     width="320mm" height="110mm" viewBox="0 0 320 110"
     stroke="none"
     fill="#000000"
     stroke-width="0.3"
     font-size="3.88"
>
<defs>
  <marker id="arrow" markerWidth="15" markerHeight="7" refX="5" refY="3.5" orient="auto" markerUnits="strokeWidth">
    <path d="M0,0 L15,3.5 L0,7 z" stroke="context-stroke" fill="context-stroke"/>
  </marker>
</defs>
<g stroke="#000000" id="img-178f72cb-1">
  <g transform="translate(20,105)">
    <path fill="none" d="M-5.6,0 L 5.6 0" class="primitive"/>
  </g>
  <g transform="translate(300,105)">
    <path fill="none" d="M-5.6,0 L 5.6 0" class="primitive"/>
  </g>
  <g transform="translate(300,90)">
    <path fill="none" d="M-8.61,12.91 L 8.61 -12.91" class="primitive"/>
  </g>
  <g transform="translate(280,105)">
    <path fill="none" d="M-5.6,0 L 5.6 0" class="primitive"/>
  </g>
  <g transform="translate(260,105)">
    <path fill="none" d="M-5.6,0 L 5.6 0" class="primitive"/>
  </g>
  <g transform="translate(100,100)">
    <path fill="none" d="M-6.89,3.44 L 6.89 -3.44" class="primitive"/>
  </g>
  <g transform="translate(100,105)">
    <path fill="none" d="M-5.6,0 L 5.6 0" class="primitive"/>
  </g>
  <g transform="translate(80,105)">
    <path fill="none" d="M-5.6,0 L 5.6 0" class="primitive"/>
  </g>
  <g transform="translate(60,105)">
    <path fill="none" d="M-5.6,0 L 5.6 0" class="primitive"/>
  </g>
  <g transform="translate(200,95)">
    <path fill="none" d="M-8.03,8.03 L 8.03 -8.03" class="primitive"/>
  </g>
  <g transform="translate(200,105)">
    <path fill="none" d="M-5.6,0 L 5.6 0" class="primitive"/>
  </g>
  <g transform="translate(180,105)">
    <path fill="none" d="M-5.6,0 L 5.6 0" class="primitive"/>
  </g>
  <g transform="translate(160,105)">
    <path fill="none" d="M-5.6,0 L 5.6 0" class="primitive"/>
  </g>
  <g transform="translate(240,105)">
    <path fill="none" d="M-5.6,0 L 5.6 0" class="primitive"/>
  </g>
  <g transform="translate(140,105)">
    <path fill="none" d="M-5.6,0 L 5.6 0" class="primitive"/>
  </g>
  <g transform="translate(40,105)">
    <path fill="none" d="M-5.6,0 L 5.6 0" class="primitive"/>
  </g>
  <g transform="translate(120,105)">
    <path fill="none" d="M-5.6,0 L 5.6 0" class="primitive"/>
  </g>
  <g transform="translate(220,105)">
    <path fill="none" d="M-5.6,0 L 5.6 0" class="primitive"/>
  </g>
  <g transform="translate(120,60)">
    <path fill="none" d="M-5.6,0 L 5.6 0" class="primitive"/>
  </g>
  <g transform="translate(100,60)">
    <path fill="none" d="M-5.6,0 L 5.6 0" class="primitive"/>
  </g>
  <g transform="translate(100,45)">
    <path fill="none" d="M-8.61,12.91 L 8.61 -12.91" class="primitive"/>
  </g>
  <g transform="translate(30,62.5)">
    <path fill="none" d="M-15.73,1.97 L 15.73 -1.97" class="primitive"/>
  </g>
  <g transform="translate(140,60)">
    <path fill="none" d="M-5.6,0 L 5.6 0" class="primitive"/>
  </g>
  <g transform="translate(160,60)">
    <path fill="none" d="M-5.6,0 L 5.6 0" class="primitive"/>
  </g>
  <g transform="translate(40,57.5)">
    <path fill="none" d="M-6.06,-1.52 L 6.06 1.52" class="primitive"/>
  </g>
  <g transform="translate(200,60)">
    <path fill="none" d="M-5.6,0 L 5.6 0" class="primitive"/>
  </g>
  <g transform="translate(200,35)">
    <path fill="none" d="M-9.14,22.84 L 9.14 -22.84" class="primitive"/>
  </g>
  <g transform="translate(80,60)">
    <path fill="none" d="M-5.6,0 L 5.6 0" class="primitive"/>
  </g>
  <g transform="translate(180,60)">
    <path fill="none" d="M-5.6,0 L 5.6 0" class="primitive"/>
  </g>
  <g transform="translate(20,55)">
    <path fill="none" d="M-5.6,0 L 5.6 0" class="primitive"/>
  </g>
  <g transform="translate(20,45)">
    <path fill="none" d="M-5.6,0 L 5.6 0" class="primitive"/>
  </g>
  <g transform="translate(60,60)">
    <path fill="none" d="M-5.6,0 L 5.6 0" class="primitive"/>
  </g>
</g>
<g fill="#FF0000" id="img-178f72cb-2">
  <g transform="translate(10,105)">
    <circle cx="0" cy="0" r="4" class="primitive"/>
  </g>
</g>
<g fill="#00FFFF" id="img-178f72cb-3">
  <g transform="translate(310,105)">
    <circle cx="0" cy="0" r="4" class="primitive"/>
  </g>
</g>
<g fill="#00FFFF" id="img-178f72cb-4">
  <g transform="translate(290,105)">
    <circle cx="0" cy="0" r="4" class="primitive"/>
  </g>
</g>
<g fill="#00FFFF" id="img-178f72cb-5">
  <g transform="translate(270,105)">
    <circle cx="0" cy="0" r="4" class="primitive"/>
  </g>
</g>
<g fill="#00FFFF" id="img-178f72cb-6">
  <g transform="translate(250,105)">
    <circle cx="0" cy="0" r="4" class="primitive"/>
  </g>
</g>
<g fill="#00FFFF" id="img-178f72cb-7">
  <g transform="translate(110,95)">
    <circle cx="0" cy="0" r="4" class="primitive"/>
  </g>
</g>
<g fill="#00FFFF" id="img-178f72cb-8">
  <g transform="translate(90,105)">
    <circle cx="0" cy="0" r="4" class="primitive"/>
  </g>
</g>
<g fill="#00FFFF" id="img-178f72cb-9">
  <g transform="translate(70,105)">
    <circle cx="0" cy="0" r="4" class="primitive"/>
  </g>
</g>
<g fill="#00FFFF" id="img-178f72cb-10">
  <g transform="translate(50,105)">
    <circle cx="0" cy="0" r="4" class="primitive"/>
  </g>
</g>
<g fill="#00FFFF" id="img-178f72cb-11">
  <g transform="translate(210,85)">
    <circle cx="0" cy="0" r="4" class="primitive"/>
  </g>
</g>
<g fill="#00FFFF" id="img-178f72cb-12">
  <g transform="translate(190,105)">
    <circle cx="0" cy="0" r="4" class="primitive"/>
  </g>
</g>
<g fill="#00FFFF" id="img-178f72cb-13">
  <g transform="translate(170,105)">
    <circle cx="0" cy="0" r="4" class="primitive"/>
  </g>
</g>
<g fill="#00FFFF" id="img-178f72cb-14">
  <g transform="translate(150,105)">
    <circle cx="0" cy="0" r="4" class="primitive"/>
  </g>
</g>
<g fill="#FFA500" id="img-178f72cb-15">
  <g transform="translate(230,105)">
    <circle cx="0" cy="0" r="4" class="primitive"/>
  </g>
</g>
<g fill="#FFA500" id="img-178f72cb-16">
  <g transform="translate(130,105)">
    <circle cx="0" cy="0" r="4" class="primitive"/>
  </g>
</g>
<g fill="#FFA500" id="img-178f72cb-17">
  <g transform="translate(30,105)">
    <circle cx="0" cy="0" r="4" class="primitive"/>
  </g>
</g>
<g fill="#FF0000" id="img-178f72cb-18">
  <g transform="translate(310,75)">
    <circle cx="0" cy="0" r="4" class="primitive"/>
  </g>
</g>
<g fill="#FF0000" id="img-178f72cb-19">
  <g transform="translate(110,105)">
    <circle cx="0" cy="0" r="4" class="primitive"/>
  </g>
</g>
<g fill="#FF0000" id="img-178f72cb-20">
  <g transform="translate(210,105)">
    <circle cx="0" cy="0" r="4" class="primitive"/>
  </g>
</g>
<g fill="#FF0000" id="img-178f72cb-21">
  <g transform="translate(110,60)">
    <circle cx="0" cy="0" r="4" class="primitive"/>
  </g>
</g>
<g fill="#00FFFF" id="img-178f72cb-22">
  <g transform="translate(90,60)">
    <circle cx="0" cy="0" r="4" class="primitive"/>
  </g>
</g>
<g fill="#FFA500" id="img-178f72cb-23">
  <g transform="translate(10,65)">
    <circle cx="0" cy="0" r="4" class="primitive"/>
  </g>
</g>
<g fill="#FFA500" id="img-178f72cb-24">
  <g transform="translate(130,60)">
    <circle cx="0" cy="0" r="4" class="primitive"/>
  </g>
</g>
<g fill="#00FFFF" id="img-178f72cb-25">
  <g transform="translate(210,60)">
    <circle cx="0" cy="0" r="4" class="primitive"/>
  </g>
</g>
<g fill="#00FFFF" id="img-178f72cb-26">
  <g transform="translate(150,60)">
    <circle cx="0" cy="0" r="4" class="primitive"/>
  </g>
</g>
<g fill="#00FFFF" id="img-178f72cb-27">
  <g transform="translate(30,55)">
    <circle cx="0" cy="0" r="4" class="primitive"/>
  </g>
</g>
<g fill="#00FFFF" id="img-178f72cb-28">
  <g transform="translate(190,60)">
    <circle cx="0" cy="0" r="4" class="primitive"/>
  </g>
</g>
<g fill="#00FFFF" id="img-178f72cb-29">
  <g transform="translate(30,45)">
    <circle cx="0" cy="0" r="4" class="primitive"/>
  </g>
</g>
<g fill="#00FFFF" id="img-178f72cb-30">
  <g transform="translate(70,60)">
    <circle cx="0" cy="0" r="4" class="primitive"/>
  </g>
</g>
<g fill="#00FFFF" id="img-178f72cb-31">
  <g transform="translate(110,30)">
    <circle cx="0" cy="0" r="4" class="primitive"/>
  </g>
</g>
<g fill="#00FFFF" id="img-178f72cb-32">
  <g transform="translate(170,60)">
    <circle cx="0" cy="0" r="4" class="primitive"/>
  </g>
</g>
<g fill="#FF0000" id="img-178f72cb-33">
  <g transform="translate(210,10)">
    <circle cx="0" cy="0" r="4" class="primitive"/>
  </g>
</g>
<g fill="#00FF00" id="img-178f72cb-34">
  <g transform="translate(10,55)">
    <circle cx="0" cy="0" r="4" class="primitive"/>
  </g>
</g>
<g fill="#00FF00" id="img-178f72cb-35">
  <g transform="translate(10,45)">
    <circle cx="0" cy="0" r="4" class="primitive"/>
  </g>
</g>
<g fill="#00FFFF" id="img-178f72cb-36">
  <g transform="translate(50,60)">
    <circle cx="0" cy="0" r="4" class="primitive"/>
  </g>
</g>
<g font-family="futura" font-size="3.53" stroke="#000000" id="img-178f72cb-37">
  <g transform="translate(10,105)">
    <g class="primitive">
      <text text-anchor="middle" dy="-0.25em">op723<tspan x="0" dy="1.2em">30,30</tspan></text>
    </g>
  </g>
  <g transform="translate(310,105)">
    <g class="primitive">
      <text text-anchor="middle" dy="-0.85em">go<tspan x="0" dy="1.2em">-1,502,-1</tspan><tspan x="0" dy="1.2em">72,72</tspan></text>
    </g>
  </g>
  <g transform="translate(290,105)">
    <g class="primitive">
      <text text-anchor="middle" dy="-0.85em">deposit<tspan x="0" dy="1.2em">-1,6,502</tspan><tspan x="0" dy="1.2em">72,72</tspan></text>
    </g>
  </g>
  <g transform="translate(270,105)">
    <g class="primitive">
      <text text-anchor="middle" dy="-0.85em">carry<tspan x="0" dy="1.2em">-1,6,502</tspan><tspan x="0" dy="1.2em">69,72</tspan></text>
    </g>
  </g>
  <g transform="translate(250,105)">
    <g class="primitive">
      <text text-anchor="middle" dy="-0.85em">collect<tspan x="0" dy="1.2em">-1,6,505</tspan><tspan x="0" dy="1.2em">69,69</tspan></text>
    </g>
  </g>
  <g transform="translate(110,95)">
    <g class="primitive">
      <text text-anchor="middle" dy="-0.85em">go<tspan x="0" dy="1.2em">-1,196,-1</tspan><tspan x="0" dy="1.2em">55,55</tspan></text>
    </g>
  </g>
  <g transform="translate(90,105)">
    <g class="primitive">
      <text text-anchor="middle" dy="-0.85em">deposit<tspan x="0" dy="1.2em">-1,4,196</tspan><tspan x="0" dy="1.2em">55,55</tspan></text>
    </g>
  </g>
  <g transform="translate(70,105)">
    <g class="primitive">
      <text text-anchor="middle" dy="-0.85em">carry<tspan x="0" dy="1.2em">-1,4,196</tspan><tspan x="0" dy="1.2em">30,55</tspan></text>
    </g>
  </g>
  <g transform="translate(50,105)">
    <g class="primitive">
      <text text-anchor="middle" dy="-0.85em">collect<tspan x="0" dy="1.2em">-1,4,75</tspan><tspan x="0" dy="1.2em">30,30</tspan></text>
    </g>
  </g>
  <g transform="translate(210,85)">
    <g class="primitive">
      <text text-anchor="middle" dy="-0.85em">go<tspan x="0" dy="1.2em">-1,222,-1</tspan><tspan x="0" dy="1.2em">69,69</tspan></text>
    </g>
  </g>
  <g transform="translate(190,105)">
    <g class="primitive">
      <text text-anchor="middle" dy="-0.85em">deposit<tspan x="0" dy="1.2em">-1,5,222</tspan><tspan x="0" dy="1.2em">69,69</tspan></text>
    </g>
  </g>
  <g transform="translate(170,105)">
    <g class="primitive">
      <text text-anchor="middle" dy="-0.85em">carry<tspan x="0" dy="1.2em">-1,5,222</tspan><tspan x="0" dy="1.2em">55,69</tspan></text>
    </g>
  </g>
  <g transform="translate(150,105)">
    <g class="primitive">
      <text text-anchor="middle" dy="-0.85em">collect<tspan x="0" dy="1.2em">-1,5,130</tspan><tspan x="0" dy="1.2em">55,55</tspan></text>
    </g>
  </g>
  <g transform="translate(230,105)">
    <g class="primitive">
      <text text-anchor="middle" dy="-0.25em">O6-505<tspan x="0" dy="1.2em">69,69</tspan></text>
    </g>
  </g>
  <g transform="translate(130,105)">
    <g class="primitive">
      <text text-anchor="middle" dy="-0.25em">O5-130<tspan x="0" dy="1.2em">55,55</tspan></text>
    </g>
  </g>
  <g transform="translate(30,105)">
    <g class="primitive">
      <text text-anchor="middle" dy="-0.25em">O4-75<tspan x="0" dy="1.2em">30,30</tspan></text>
    </g>
  </g>
  <g transform="translate(310,75)">
    <g class="primitive">
      <text text-anchor="middle" dy="-0.25em">op722<tspan x="0" dy="1.2em">72,72</tspan></text>
    </g>
  </g>
  <g transform="translate(110,105)">
    <g class="primitive">
      <text text-anchor="middle" dy="-0.25em">op721<tspan x="0" dy="1.2em">55,55</tspan></text>
    </g>
  </g>
  <g transform="translate(210,105)">
    <g class="primitive">
      <text text-anchor="middle" dy="-0.25em">op720<tspan x="0" dy="1.2em">69,69</tspan></text>
    </g>
  </g>
  <g transform="translate(110,60)">
    <g class="primitive">
      <text text-anchor="middle" dy="-0.25em">op715<tspan x="0" dy="1.2em">48,48</tspan></text>
    </g>
  </g>
  <g transform="translate(90,60)">
    <g class="primitive">
      <text text-anchor="middle" dy="-0.85em">deposit<tspan x="0" dy="1.2em">2,2,196</tspan><tspan x="0" dy="1.2em">48,48</tspan></text>
    </g>
  </g>
  <g transform="translate(10,65)">
    <g class="primitive">
      <text text-anchor="middle" dy="-0.25em">O2-513<tspan x="0" dy="1.2em">18,18</tspan></text>
    </g>
  </g>
  <g transform="translate(130,60)">
    <g class="primitive">
      <text text-anchor="middle" dy="-0.25em">O3-270<tspan x="0" dy="1.2em">48,48</tspan></text>
    </g>
  </g>
  <g transform="translate(210,60)">
    <g class="primitive">
      <text text-anchor="middle" dy="-0.85em">go<tspan x="0" dy="1.2em">-1,545,-1</tspan><tspan x="0" dy="1.2em">65,65</tspan></text>
    </g>
  </g>
  <g transform="translate(150,60)">
    <g class="primitive">
      <text text-anchor="middle" dy="-0.85em">collect<tspan x="0" dy="1.2em">-1,3,270</tspan><tspan x="0" dy="1.2em">48,48</tspan></text>
    </g>
  </g>
  <g transform="translate(30,55)">
    <g class="primitive">
      <text text-anchor="middle" dy="-0.85em">go<tspan x="0" dy="1.2em">2,586,513</tspan><tspan x="0" dy="1.2em">0,8</tspan></text>
    </g>
  </g>
  <g transform="translate(190,60)">
    <g class="primitive">
      <text text-anchor="middle" dy="-0.85em">deposit<tspan x="0" dy="1.2em">-1,3,545</tspan><tspan x="0" dy="1.2em">65,65</tspan></text>
    </g>
  </g>
  <g transform="translate(30,45)">
    <g class="primitive">
      <text text-anchor="middle" dy="-0.85em">go<tspan x="0" dy="1.2em">1,271,-1</tspan><tspan x="0" dy="1.2em">18,18</tspan></text>
    </g>
  </g>
  <g transform="translate(70,60)">
    <g class="primitive">
      <text text-anchor="middle" dy="-0.85em">carry<tspan x="0" dy="1.2em">2,2,196</tspan><tspan x="0" dy="1.2em">18,48</tspan></text>
    </g>
  </g>
  <g transform="translate(110,30)">
    <g class="primitive">
      <text text-anchor="middle" dy="-0.85em">go<tspan x="0" dy="1.2em">2,196,-1</tspan><tspan x="0" dy="1.2em">48,48</tspan></text>
    </g>
  </g>
  <g transform="translate(170,60)">
    <g class="primitive">
      <text text-anchor="middle" dy="-0.85em">carry<tspan x="0" dy="1.2em">-1,3,545</tspan><tspan x="0" dy="1.2em">48,65</tspan></text>
    </g>
  </g>
  <g transform="translate(210,10)">
    <g class="primitive">
      <text text-anchor="middle" dy="-0.25em">op717<tspan x="0" dy="1.2em">65,65</tspan></text>
    </g>
  </g>
  <g transform="translate(10,55)">
    <g class="primitive">
      <text text-anchor="middle" dy="-0.25em">R2-586<tspan x="0" dy="1.2em">0,0</tspan></text>
    </g>
  </g>
  <g transform="translate(10,45)">
    <g class="primitive">
      <text text-anchor="middle" dy="-0.25em">R1-270<tspan x="0" dy="1.2em">18,18</tspan></text>
    </g>
  </g>
  <g transform="translate(50,60)">
    <g class="primitive">
      <text text-anchor="middle" dy="-0.85em">collect<tspan x="0" dy="1.2em">2,2,513</tspan><tspan x="0" dy="1.2em">18,18</tspan></text>
    </g>
  </g>
</g>
</svg>
