<?xml version="1.0" encoding="UTF-8"?>
<svg xmlns="http://www.w3.org/2000/svg"
     xmlns:xlink="http://www.w3.org/1999/xlink"
     xmlns:gadfly="http://www.gadflyjl.org/ns"
     version="1.2"
     width="320mm" height="140mm" viewBox="0 0 320 140"
     stroke="none"
     fill="#000000"
     stroke-width="0.3"
     font-size="3.88"
>
<defs>
  <marker id="arrow" markerWidth="15" markerHeight="7" refX="5" refY="3.5" orient="auto" markerUnits="strokeWidth">
    <path d="M0,0 L15,3.5 L0,7 z" stroke="context-stroke" fill="context-stroke"/>
  </marker>
</defs>
<g stroke="#000000" id="img-d96da114-1">
  <g transform="translate(20,135)">
    <path fill="none" d="M-5.6,0 L 5.6 0" class="primitive"/>
  </g>
  <g transform="translate(300,135)">
    <path fill="none" d="M-5.6,0 L 5.6 0" class="primitive"/>
  </g>
  <g transform="translate(300,120)">
    <path fill="none" d="M-8.61,12.91 L 8.61 -12.91" class="primitive"/>
  </g>
  <g transform="translate(280,135)">
    <path fill="none" d="M-5.6,0 L 5.6 0" class="primitive"/>
  </g>
  <g transform="translate(260,135)">
    <path fill="none" d="M-5.6,0 L 5.6 0" class="primitive"/>
  </g>
  <g transform="translate(100,130)">
    <path fill="none" d="M-6.89,3.44 L 6.89 -3.44" class="primitive"/>
  </g>
  <g transform="translate(100,135)">
    <path fill="none" d="M-5.6,0 L 5.6 0" class="primitive"/>
  </g>
  <g transform="translate(80,135)">
    <path fill="none" d="M-5.6,0 L 5.6 0" class="primitive"/>
  </g>
  <g transform="translate(60,135)">
    <path fill="none" d="M-5.6,0 L 5.6 0" class="primitive"/>
  </g>
  <g transform="translate(200,125)">
    <path fill="none" d="M-8.03,8.03 L 8.03 -8.03" class="primitive"/>
  </g>
  <g transform="translate(200,135)">
    <path fill="none" d="M-5.6,0 L 5.6 0" class="primitive"/>
  </g>
  <g transform="translate(180,135)">
    <path fill="none" d="M-5.6,0 L 5.6 0" class="primitive"/>
  </g>
  <g transform="translate(160,135)">
    <path fill="none" d="M-5.6,0 L 5.6 0" class="primitive"/>
  </g>
  <g transform="translate(240,135)">
    <path fill="none" d="M-5.6,0 L 5.6 0" class="primitive"/>
  </g>
  <g transform="translate(140,135)">
    <path fill="none" d="M-5.6,0 L 5.6 0" class="primitive"/>
  </g>
  <g transform="translate(40,135)">
    <path fill="none" d="M-5.6,0 L 5.6 0" class="primitive"/>
  </g>
  <g transform="translate(120,135)">
    <path fill="none" d="M-5.6,0 L 5.6 0" class="primitive"/>
  </g>
  <g transform="translate(220,135)">
    <path fill="none" d="M-5.6,0 L 5.6 0" class="primitive"/>
  </g>
  <g transform="translate(120,47.5)">
    <path fill="none" d="M-5.6,0 L 5.6 0" class="primitive"/>
  </g>
  <g transform="translate(60,65)">
    <path fill="none" d="M-5.6,0 L 5.6 0" class="primitive"/>
  </g>
  <g transform="translate(140,47.5)">
    <path fill="none" d="M-5.6,0 L 5.6 0" class="primitive"/>
  </g>
  <g transform="translate(20,65)">
    <path fill="none" d="M-5.6,0 L 5.6 0" class="primitive"/>
  </g>
  <g transform="translate(20,75)">
    <path fill="none" d="M-5.6,0 L 5.6 0" class="primitive"/>
  </g>
  <g transform="translate(180,47.5)">
    <path fill="none" d="M-5.6,0 L 5.6 0" class="primitive"/>
  </g>
  <g transform="translate(60,80)">
    <path fill="none" d="M-5.6,0 L 5.6 0" class="primitive"/>
  </g>
  <g transform="translate(90,56.25)">
    <path fill="none" d="M-16.69,7.3 L 16.69 -7.3" class="primitive"/>
  </g>
  <g transform="translate(80,65)">
    <path fill="none" d="M-5.6,0 L 5.6 0" class="primitive"/>
  </g>
  <g transform="translate(160,47.5)">
    <path fill="none" d="M-5.6,0 L 5.6 0" class="primitive"/>
  </g>
  <g transform="translate(100,63.75)">
    <path fill="none" d="M-8.71,14.15 L 8.71 -14.15" class="primitive"/>
  </g>
  <g transform="translate(100,80)">
    <path fill="none" d="M-5.6,0 L 5.6 0" class="primitive"/>
  </g>
  <g transform="translate(40,65)">
    <path fill="none" d="M-5.6,0 L 5.6 0" class="primitive"/>
  </g>
  <g transform="translate(200,47.5)">
    <path fill="none" d="M-5.6,0 L 5.6 0" class="primitive"/>
  </g>
  <g transform="translate(200,32.5)">
    <path fill="none" d="M-8.61,12.91 L 8.61 -12.91" class="primitive"/>
  </g>
  <g transform="translate(30,82.5)">
    <path fill="none" d="M-15.73,1.97 L 15.73 -1.97" class="primitive"/>
  </g>
  <g transform="translate(20,95)">
    <path fill="none" d="M-5.6,0 L 5.6 0" class="primitive"/>
  </g>
  <g transform="translate(40,95)">
    <path fill="none" d="M-5.6,0 L 5.6 0" class="primitive"/>
  </g>
  <g transform="translate(40,77.5)">
    <path fill="none" d="M-6.06,-1.52 L 6.06 1.52" class="primitive"/>
  </g>
  <g transform="translate(80,80)">
    <path fill="none" d="M-5.6,0 L 5.6 0" class="primitive"/>
  </g>
</g>
<g fill="#FF0000" id="img-d96da114-2">
  <g transform="translate(10,135)">
    <circle cx="0" cy="0" r="4" class="primitive"/>
  </g>
</g>
<g fill="#00FFFF" id="img-d96da114-3">
  <g transform="translate(310,135)">
    <circle cx="0" cy="0" r="4" class="primitive"/>
  </g>
</g>
<g fill="#00FFFF" id="img-d96da114-4">
  <g transform="translate(290,135)">
    <circle cx="0" cy="0" r="4" class="primitive"/>
  </g>
</g>
<g fill="#00FFFF" id="img-d96da114-5">
  <g transform="translate(270,135)">
    <circle cx="0" cy="0" r="4" class="primitive"/>
  </g>
</g>
<g fill="#00FFFF" id="img-d96da114-6">
  <g transform="translate(250,135)">
    <circle cx="0" cy="0" r="4" class="primitive"/>
  </g>
</g>
<g fill="#00FFFF" id="img-d96da114-7">
  <g transform="translate(110,125)">
    <circle cx="0" cy="0" r="4" class="primitive"/>
  </g>
</g>
<g fill="#00FFFF" id="img-d96da114-8">
  <g transform="translate(90,135)">
    <circle cx="0" cy="0" r="4" class="primitive"/>
  </g>
</g>
<g fill="#00FFFF" id="img-d96da114-9">
  <g transform="translate(70,135)">
    <circle cx="0" cy="0" r="4" class="primitive"/>
  </g>
</g>
<g fill="#00FFFF" id="img-d96da114-10">
  <g transform="translate(50,135)">
    <circle cx="0" cy="0" r="4" class="primitive"/>
  </g>
</g>
<g fill="#00FFFF" id="img-d96da114-11">
  <g transform="translate(210,115)">
    <circle cx="0" cy="0" r="4" class="primitive"/>
  </g>
</g>
<g fill="#00FFFF" id="img-d96da114-12">
  <g transform="translate(190,135)">
    <circle cx="0" cy="0" r="4" class="primitive"/>
  </g>
</g>
<g fill="#00FFFF" id="img-d96da114-13">
  <g transform="translate(170,135)">
    <circle cx="0" cy="0" r="4" class="primitive"/>
  </g>
</g>
<g fill="#00FFFF" id="img-d96da114-14">
  <g transform="translate(150,135)">
    <circle cx="0" cy="0" r="4" class="primitive"/>
  </g>
</g>
<g fill="#FFA500" id="img-d96da114-15">
  <g transform="translate(230,135)">
    <circle cx="0" cy="0" r="4" class="primitive"/>
  </g>
</g>
<g fill="#FFA500" id="img-d96da114-16">
  <g transform="translate(130,135)">
    <circle cx="0" cy="0" r="4" class="primitive"/>
  </g>
</g>
<g fill="#FFA500" id="img-d96da114-17">
  <g transform="translate(30,135)">
    <circle cx="0" cy="0" r="4" class="primitive"/>
  </g>
</g>
<g fill="#FF0000" id="img-d96da114-18">
  <g transform="translate(310,105)">
    <circle cx="0" cy="0" r="4" class="primitive"/>
  </g>
</g>
<g fill="#FF0000" id="img-d96da114-19">
  <g transform="translate(110,135)">
    <circle cx="0" cy="0" r="4" class="primitive"/>
  </g>
</g>
<g fill="#FF0000" id="img-d96da114-20">
  <g transform="translate(210,135)">
    <circle cx="0" cy="0" r="4" class="primitive"/>
  </g>
</g>
<g fill="#00FFFF" id="img-d96da114-21">
  <g transform="translate(50,95)">
    <circle cx="0" cy="0" r="4" class="primitive"/>
  </g>
</g>
<g fill="#FF0000" id="img-d96da114-22">
  <g transform="translate(110,47.5)">
    <circle cx="0" cy="0" r="4" class="primitive"/>
  </g>
</g>
<g fill="#00FFFF" id="img-d96da114-23">
  <g transform="translate(50,65)">
    <circle cx="0" cy="0" r="4" class="primitive"/>
  </g>
</g>
<g fill="#00FFFF" id="img-d96da114-24">
  <g transform="translate(110,80)">
    <circle cx="0" cy="0" r="4" class="primitive"/>
  </g>
</g>
<g fill="#FFA500" id="img-d96da114-25">
  <g transform="translate(130,47.5)">
    <circle cx="0" cy="0" r="4" class="primitive"/>
  </g>
</g>
<g fill="#FFA500" id="img-d96da114-26">
  <g transform="translate(10,65)">
    <circle cx="0" cy="0" r="4" class="primitive"/>
  </g>
</g>
<g fill="#00FF00" id="img-d96da114-27">
  <g transform="translate(10,75)">
    <circle cx="0" cy="0" r="4" class="primitive"/>
  </g>
</g>
<g fill="#00FFFF" id="img-d96da114-28">
  <g transform="translate(90,65)">
    <circle cx="0" cy="0" r="4" class="primitive"/>
  </g>
</g>
<g fill="#00FFFF" id="img-d96da114-29">
  <g transform="translate(170,47.5)">
    <circle cx="0" cy="0" r="4" class="primitive"/>
  </g>
</g>
<g fill="#00FFFF" id="img-d96da114-30">
  <g transform="translate(50,80)">
    <circle cx="0" cy="0" r="4" class="primitive"/>
  </g>
</g>
<g fill="#00FFFF" id="img-d96da114-31">
  <g transform="translate(210,47.5)">
    <circle cx="0" cy="0" r="4" class="primitive"/>
  </g>
</g>
<g fill="#00FFFF" id="img-d96da114-32">
  <g transform="translate(70,65)">
    <circle cx="0" cy="0" r="4" class="primitive"/>
  </g>
</g>
<g fill="#00FFFF" id="img-d96da114-33">
  <g transform="translate(150,47.5)">
    <circle cx="0" cy="0" r="4" class="primitive"/>
  </g>
</g>
<g fill="#00FFFF" id="img-d96da114-34">
  <g transform="translate(90,80)">
    <circle cx="0" cy="0" r="4" class="primitive"/>
  </g>
</g>
<g fill="#00FFFF" id="img-d96da114-35">
  <g transform="translate(30,65)">
    <circle cx="0" cy="0" r="4" class="primitive"/>
  </g>
</g>
<g fill="#00FFFF" id="img-d96da114-36">
  <g transform="translate(190,47.5)">
    <circle cx="0" cy="0" r="4" class="primitive"/>
  </g>
</g>
<g fill="#FFA500" id="img-d96da114-37">
  <g transform="translate(10,85)">
    <circle cx="0" cy="0" r="4" class="primitive"/>
  </g>
</g>
<g fill="#00FF00" id="img-d96da114-38">
  <g transform="translate(10,95)">
    <circle cx="0" cy="0" r="4" class="primitive"/>
  </g>
</g>
<g fill="#00FFFF" id="img-d96da114-39">
  <g transform="translate(30,95)">
    <circle cx="0" cy="0" r="4" class="primitive"/>
  </g>
</g>
<g fill="#00FFFF" id="img-d96da114-40">
  <g transform="translate(30,75)">
    <circle cx="0" cy="0" r="4" class="primitive"/>
  </g>
</g>
<g fill="#00FFFF" id="img-d96da114-41">
  <g transform="translate(70,80)">
    <circle cx="0" cy="0" r="4" class="primitive"/>
  </g>
</g>
<g fill="#FF0000" id="img-d96da114-42">
  <g transform="translate(210,17.5)">
    <circle cx="0" cy="0" r="4" class="primitive"/>
  </g>
</g>
<g font-family="futura" font-size="3.53" stroke="#000000" id="img-d96da114-43">
  <g transform="translate(10,135)">
    <g class="primitive">
      <text text-anchor="middle" dy="-0.25em">op2754<tspan x="0" dy="1.2em">10,10</tspan></text>
    </g>
  </g>
  <g transform="translate(310,135)">
    <g class="primitive">
      <text text-anchor="middle" dy="-0.85em">go<tspan x="0" dy="1.2em">-1,108,-1</tspan><tspan x="0" dy="1.2em">32,32</tspan></text>
    </g>
  </g>
  <g transform="translate(290,135)">
    <g class="primitive">
      <text text-anchor="middle" dy="-0.85em">deposit<tspan x="0" dy="1.2em">-1,6,108</tspan><tspan x="0" dy="1.2em">32,32</tspan></text>
    </g>
  </g>
  <g transform="translate(270,135)">
    <g class="primitive">
      <text text-anchor="middle" dy="-0.85em">carry<tspan x="0" dy="1.2em">-1,6,108</tspan><tspan x="0" dy="1.2em">22,32</tspan></text>
    </g>
  </g>
  <g transform="translate(250,135)">
    <g class="primitive">
      <text text-anchor="middle" dy="-0.85em">collect<tspan x="0" dy="1.2em">-1,6,49</tspan><tspan x="0" dy="1.2em">22,22</tspan></text>
    </g>
  </g>
  <g transform="translate(110,125)">
    <g class="primitive">
      <text text-anchor="middle" dy="-0.85em">go<tspan x="0" dy="1.2em">-1,55,-1</tspan><tspan x="0" dy="1.2em">20,20</tspan></text>
    </g>
  </g>
  <g transform="translate(90,135)">
    <g class="primitive">
      <text text-anchor="middle" dy="-0.85em">deposit<tspan x="0" dy="1.2em">-1,4,55</tspan><tspan x="0" dy="1.2em">20,20</tspan></text>
    </g>
  </g>
  <g transform="translate(70,135)">
    <g class="primitive">
      <text text-anchor="middle" dy="-0.85em">carry<tspan x="0" dy="1.2em">-1,4,55</tspan><tspan x="0" dy="1.2em">10,20</tspan></text>
    </g>
  </g>
  <g transform="translate(50,135)">
    <g class="primitive">
      <text text-anchor="middle" dy="-0.85em">collect<tspan x="0" dy="1.2em">-1,4,39</tspan><tspan x="0" dy="1.2em">10,10</tspan></text>
    </g>
  </g>
  <g transform="translate(210,115)">
    <g class="primitive">
      <text text-anchor="middle" dy="-0.85em">go<tspan x="0" dy="1.2em">-1,73,-1</tspan><tspan x="0" dy="1.2em">22,22</tspan></text>
    </g>
  </g>
  <g transform="translate(190,135)">
    <g class="primitive">
      <text text-anchor="middle" dy="-0.85em">deposit<tspan x="0" dy="1.2em">-1,5,73</tspan><tspan x="0" dy="1.2em">22,22</tspan></text>
    </g>
  </g>
  <g transform="translate(170,135)">
    <g class="primitive">
      <text text-anchor="middle" dy="-0.85em">carry<tspan x="0" dy="1.2em">-1,5,73</tspan><tspan x="0" dy="1.2em">20,22</tspan></text>
    </g>
  </g>
  <g transform="translate(150,135)">
    <g class="primitive">
      <text text-anchor="middle" dy="-0.85em">collect<tspan x="0" dy="1.2em">-1,5,60</tspan><tspan x="0" dy="1.2em">20,20</tspan></text>
    </g>
  </g>
  <g transform="translate(230,135)">
    <g class="primitive">
      <text text-anchor="middle" dy="-0.25em">O6-49<tspan x="0" dy="1.2em">22,22</tspan></text>
    </g>
  </g>
  <g transform="translate(130,135)">
    <g class="primitive">
      <text text-anchor="middle" dy="-0.25em">O5-60<tspan x="0" dy="1.2em">20,20</tspan></text>
    </g>
  </g>
  <g transform="translate(30,135)">
    <g class="primitive">
      <text text-anchor="middle" dy="-0.25em">O4-39<tspan x="0" dy="1.2em">10,10</tspan></text>
    </g>
  </g>
  <g transform="translate(310,105)">
    <g class="primitive">
      <text text-anchor="middle" dy="-0.25em">op2753<tspan x="0" dy="1.2em">32,32</tspan></text>
    </g>
  </g>
  <g transform="translate(110,135)">
    <g class="primitive">
      <text text-anchor="middle" dy="-0.25em">op2752<tspan x="0" dy="1.2em">20,20</tspan></text>
    </g>
  </g>
  <g transform="translate(210,135)">
    <g class="primitive">
      <text text-anchor="middle" dy="-0.25em">op2751<tspan x="0" dy="1.2em">22,22</tspan></text>
    </g>
  </g>
  <g transform="translate(50,95)">
    <g class="primitive">
      <text text-anchor="middle" dy="-0.85em">go<tspan x="0" dy="1.2em">2,65,-1</tspan><tspan x="0" dy="1.2em">10,10</tspan></text>
    </g>
  </g>
  <g transform="translate(110,47.5)">
    <g class="primitive">
      <text text-anchor="middle" dy="-0.25em">op2745<tspan x="0" dy="1.2em">23,23</tspan></text>
    </g>
  </g>
  <g transform="translate(50,65)">
    <g class="primitive">
      <text text-anchor="middle" dy="-0.85em">carry<tspan x="0" dy="1.2em">-1,2,50</tspan><tspan x="0" dy="1.2em">12,23</tspan></text>
    </g>
  </g>
  <g transform="translate(110,80)">
    <g class="primitive">
      <text text-anchor="middle" dy="-0.85em">go<tspan x="0" dy="1.2em">1,126,-1</tspan><tspan x="0" dy="1.2em">18,18</tspan></text>
    </g>
  </g>
  <g transform="translate(130,47.5)">
    <g class="primitive">
      <text text-anchor="middle" dy="-0.25em">O3-60<tspan x="0" dy="1.2em">23,23</tspan></text>
    </g>
  </g>
  <g transform="translate(10,65)">
    <g class="primitive">
      <text text-anchor="middle" dy="-0.25em">O2-45<tspan x="0" dy="1.2em">0,0</tspan></text>
    </g>
  </g>
  <g transform="translate(10,75)">
    <g class="primitive">
      <text text-anchor="middle" dy="-0.25em">R1-150<tspan x="0" dy="1.2em">0,0</tspan></text>
    </g>
  </g>
  <g transform="translate(90,65)">
    <g class="primitive">
      <text text-anchor="middle" dy="-0.85em">go<tspan x="0" dy="1.2em">-1,50,-1</tspan><tspan x="0" dy="1.2em">23,23</tspan></text>
    </g>
  </g>
  <g transform="translate(170,47.5)">
    <g class="primitive">
      <text text-anchor="middle" dy="-0.85em">carry<tspan x="0" dy="1.2em">-1,3,73</tspan><tspan x="0" dy="1.2em">23,25</tspan></text>
    </g>
  </g>
  <g transform="translate(50,80)">
    <g class="primitive">
      <text text-anchor="middle" dy="-0.85em">collect<tspan x="0" dy="1.2em">1,1,39</tspan><tspan x="0" dy="1.2em">10,10</tspan></text>
    </g>
  </g>
  <g transform="translate(210,47.5)">
    <g class="primitive">
      <text text-anchor="middle" dy="-0.85em">go<tspan x="0" dy="1.2em">-1,73,-1</tspan><tspan x="0" dy="1.2em">25,25</tspan></text>
    </g>
  </g>
  <g transform="translate(70,65)">
    <g class="primitive">
      <text text-anchor="middle" dy="-0.85em">deposit<tspan x="0" dy="1.2em">-1,2,50</tspan><tspan x="0" dy="1.2em">23,23</tspan></text>
    </g>
  </g>
  <g transform="translate(150,47.5)">
    <g class="primitive">
      <text text-anchor="middle" dy="-0.85em">collect<tspan x="0" dy="1.2em">-1,3,60</tspan><tspan x="0" dy="1.2em">23,23</tspan></text>
    </g>
  </g>
  <g transform="translate(90,80)">
    <g class="primitive">
      <text text-anchor="middle" dy="-0.85em">deposit<tspan x="0" dy="1.2em">1,1,126</tspan><tspan x="0" dy="1.2em">18,18</tspan></text>
    </g>
  </g>
  <g transform="translate(30,65)">
    <g class="primitive">
      <text text-anchor="middle" dy="-0.85em">collect<tspan x="0" dy="1.2em">-1,2,45</tspan><tspan x="0" dy="1.2em">12,12</tspan></text>
    </g>
  </g>
  <g transform="translate(190,47.5)">
    <g class="primitive">
      <text text-anchor="middle" dy="-0.85em">deposit<tspan x="0" dy="1.2em">-1,3,73</tspan><tspan x="0" dy="1.2em">25,25</tspan></text>
    </g>
  </g>
  <g transform="translate(10,85)">
    <g class="primitive">
      <text text-anchor="middle" dy="-0.25em">O1-39<tspan x="0" dy="1.2em">0,0</tspan></text>
    </g>
  </g>
  <g transform="translate(10,95)">
    <g class="primitive">
      <text text-anchor="middle" dy="-0.25em">R2-171<tspan x="0" dy="1.2em">0,0</tspan></text>
    </g>
  </g>
  <g transform="translate(30,95)">
    <g class="primitive">
      <text text-anchor="middle" dy="-0.85em">go<tspan x="0" dy="1.2em">2,171,65</tspan><tspan x="0" dy="1.2em">0,10</tspan></text>
    </g>
  </g>
  <g transform="translate(30,75)">
    <g class="primitive">
      <text text-anchor="middle" dy="-0.85em">go<tspan x="0" dy="1.2em">1,150,39</tspan><tspan x="0" dy="1.2em">0,10</tspan></text>
    </g>
  </g>
  <g transform="translate(70,80)">
    <g class="primitive">
      <text text-anchor="middle" dy="-0.85em">carry<tspan x="0" dy="1.2em">1,1,126</tspan><tspan x="0" dy="1.2em">10,18</tspan></text>
    </g>
  </g>
  <g transform="translate(210,17.5)">
    <g class="primitive">
      <text text-anchor="middle" dy="-0.25em">op2746<tspan x="0" dy="1.2em">25,25</tspan></text>
    </g>
  </g>
</g>
</svg>
