<?xml version="1.0" encoding="UTF-8"?>
<svg xmlns="http://www.w3.org/2000/svg"
     xmlns:xlink="http://www.w3.org/1999/xlink"
     xmlns:gadfly="http://www.gadflyjl.org/ns"
     version="1.2"
     width="120mm" height="200mm" viewBox="0 0 120 200"
     stroke="none"
     fill="#000000"
     stroke-width="0.3"
     font-size="3.88"
>
<defs>
  <marker id="arrow" markerWidth="15" markerHeight="7" refX="5" refY="3.5" orient="auto" markerUnits="strokeWidth">
    <path d="M0,0 L15,3.5 L0,7 z" stroke="context-stroke" fill="context-stroke"/>
  </marker>
</defs>
<g stroke="#000000" id="img-53fa254e-1">
  <g transform="translate(100,180)">
    <path fill="none" d="M-5.6,0 L 5.6 0" class="primitive"/>
  </g>
  <g transform="translate(100,160)">
    <path fill="none" d="M-8.93,17.87 L 8.93 -17.87" class="primitive"/>
  </g>
  <g transform="translate(100,140)">
    <path fill="none" d="M-9.45,37.82 L 9.45 -37.82" class="primitive"/>
  </g>
  <g transform="translate(100,120)">
    <path fill="none" d="M-9.63,57.81 L 9.63 -57.81" class="primitive"/>
  </g>
  <g transform="translate(100,100)">
    <path fill="none" d="M-9.73,77.8 L 9.73 -77.8" class="primitive"/>
  </g>
  <g transform="translate(80,180)">
    <path fill="none" d="M-5.6,0 L 5.6 0" class="primitive"/>
  </g>
  <g transform="translate(40,187.5)">
    <path fill="none" d="M-7.56,5.67 L 7.56 -5.67" class="primitive"/>
  </g>
  <g transform="translate(20,195)">
    <path fill="none" d="M-5.6,0 L 5.6 0" class="primitive"/>
  </g>
  <g transform="translate(40,182.5)">
    <path fill="none" d="M-6.06,1.52 L 6.06 -1.52" class="primitive"/>
  </g>
  <g transform="translate(20,185)">
    <path fill="none" d="M-5.6,0 L 5.6 0" class="primitive"/>
  </g>
  <g transform="translate(40,177.5)">
    <path fill="none" d="M-6.06,-1.52 L 6.06 1.52" class="primitive"/>
  </g>
  <g transform="translate(20,175)">
    <path fill="none" d="M-5.6,0 L 5.6 0" class="primitive"/>
  </g>
  <g transform="translate(40,172.5)">
    <path fill="none" d="M-7.56,-5.67 L 7.56 5.67" class="primitive"/>
  </g>
  <g transform="translate(20,165)">
    <path fill="none" d="M-5.6,0 L 5.6 0" class="primitive"/>
  </g>
  <g transform="translate(60,180)">
    <path fill="none" d="M-5.6,0 L 5.6 0" class="primitive"/>
  </g>
</g>
<g fill="#00FFFF" id="img-53fa254e-2">
  <g transform="translate(110,180)">
    <circle cx="0" cy="0" r="4" class="primitive"/>
  </g>
</g>
<g fill="#00FFFF" id="img-53fa254e-3">
  <g transform="translate(110,140)">
    <circle cx="0" cy="0" r="4" class="primitive"/>
  </g>
</g>
<g fill="#00FFFF" id="img-53fa254e-4">
  <g transform="translate(110,100)">
    <circle cx="0" cy="0" r="4" class="primitive"/>
  </g>
</g>
<g fill="#00FFFF" id="img-53fa254e-5">
  <g transform="translate(110,60)">
    <circle cx="0" cy="0" r="4" class="primitive"/>
  </g>
</g>
<g fill="#FF0000" id="img-53fa254e-6">
  <g transform="translate(110,20)">
    <circle cx="0" cy="0" r="4" class="primitive"/>
  </g>
</g>
<g fill="#00FFFF" id="img-53fa254e-7">
  <g transform="translate(90,180)">
    <circle cx="0" cy="0" r="4" class="primitive"/>
  </g>
</g>
<g fill="#00FFFF" id="img-53fa254e-8">
  <g transform="translate(70,180)">
    <circle cx="0" cy="0" r="4" class="primitive"/>
  </g>
</g>
<g fill="#00FFFF" id="img-53fa254e-9">
  <g transform="translate(30,195)">
    <circle cx="0" cy="0" r="4" class="primitive"/>
  </g>
</g>
<g fill="#00FF00" id="img-53fa254e-10">
  <g transform="translate(10,195)">
    <circle cx="0" cy="0" r="4" class="primitive"/>
  </g>
</g>
<g fill="#00FFFF" id="img-53fa254e-11">
  <g transform="translate(30,185)">
    <circle cx="0" cy="0" r="4" class="primitive"/>
  </g>
</g>
<g fill="#00FF00" id="img-53fa254e-12">
  <g transform="translate(10,185)">
    <circle cx="0" cy="0" r="4" class="primitive"/>
  </g>
</g>
<g fill="#00FFFF" id="img-53fa254e-13">
  <g transform="translate(30,175)">
    <circle cx="0" cy="0" r="4" class="primitive"/>
  </g>
</g>
<g fill="#00FF00" id="img-53fa254e-14">
  <g transform="translate(10,175)">
    <circle cx="0" cy="0" r="4" class="primitive"/>
  </g>
</g>
<g fill="#00FFFF" id="img-53fa254e-15">
  <g transform="translate(30,165)">
    <circle cx="0" cy="0" r="4" class="primitive"/>
  </g>
</g>
<g fill="#00FF00" id="img-53fa254e-16">
  <g transform="translate(10,165)">
    <circle cx="0" cy="0" r="4" class="primitive"/>
  </g>
</g>
<g fill="#00FFFF" id="img-53fa254e-17">
  <g transform="translate(50,180)">
    <circle cx="0" cy="0" r="4" class="primitive"/>
  </g>
</g>
<g font-family="futura" font-size="3.53" stroke="#000000" id="img-53fa254e-18">
  <g transform="translate(110,180)">
    <g class="primitive">
      <text text-anchor="middle" dy="-0.85em">go<tspan x="0" dy="1.2em">4,51,-1</tspan><tspan x="0" dy="1.2em">10,10,</tspan></text>
    </g>
  </g>
  <g transform="translate(110,140)">
    <g class="primitive">
      <text text-anchor="middle" dy="-0.85em">go<tspan x="0" dy="1.2em">3,43,-1</tspan><tspan x="0" dy="1.2em">10,10,</tspan></text>
    </g>
  </g>
  <g transform="translate(110,100)">
    <g class="primitive">
      <text text-anchor="middle" dy="-0.85em">go<tspan x="0" dy="1.2em">2,50,-1</tspan><tspan x="0" dy="1.2em">10,10,</tspan></text>
    </g>
  </g>
  <g transform="translate(110,60)">
    <g class="primitive">
      <text text-anchor="middle" dy="-0.85em">go<tspan x="0" dy="1.2em">1,42,-1</tspan><tspan x="0" dy="1.2em">10,10,</tspan></text>
    </g>
  </g>
  <g transform="translate(110,20)">
    <g class="primitive">
      <text text-anchor="middle" dy="-0.25em">op250<tspan x="0" dy="1.2em">10,10,</tspan></text>
    </g>
  </g>
  <g transform="translate(90,180)">
    <g class="primitive">
      <text text-anchor="middle" dy="-0.25em">teamDEPOSIT<tspan x="0" dy="1.2em">10,10,</tspan></text>
    </g>
  </g>
  <g transform="translate(70,180)">
    <g class="primitive">
      <text text-anchor="middle" dy="-0.25em">teamCARRY<tspan x="0" dy="1.2em">6,10,</tspan></text>
    </g>
  </g>
  <g transform="translate(30,195)">
    <g class="primitive">
      <text text-anchor="middle" dy="-0.85em">go<tspan x="0" dy="1.2em">4,28,19</tspan><tspan x="0" dy="1.2em">0,2,</tspan></text>
    </g>
  </g>
  <g transform="translate(10,195)">
    <g class="primitive">
      <text text-anchor="middle" dy="-0.25em">R4-28<tspan x="0" dy="1.2em">0,0,</tspan></text>
    </g>
  </g>
  <g transform="translate(30,185)">
    <g class="primitive">
      <text text-anchor="middle" dy="-0.85em">go<tspan x="0" dy="1.2em">3,8,11</tspan><tspan x="0" dy="1.2em">0,6,</tspan></text>
    </g>
  </g>
  <g transform="translate(10,185)">
    <g class="primitive">
      <text text-anchor="middle" dy="-0.25em">R3-8<tspan x="0" dy="1.2em">0,0,</tspan></text>
    </g>
  </g>
  <g transform="translate(30,175)">
    <g class="primitive">
      <text text-anchor="middle" dy="-0.85em">go<tspan x="0" dy="1.2em">2,25,18</tspan><tspan x="0" dy="1.2em">0,2,</tspan></text>
    </g>
  </g>
  <g transform="translate(10,175)">
    <g class="primitive">
      <text text-anchor="middle" dy="-0.25em">R2-25<tspan x="0" dy="1.2em">0,0,</tspan></text>
    </g>
  </g>
  <g transform="translate(30,165)">
    <g class="primitive">
      <text text-anchor="middle" dy="-0.85em">go<tspan x="0" dy="1.2em">1,1,10</tspan><tspan x="0" dy="1.2em">0,2,</tspan></text>
    </g>
  </g>
  <g transform="translate(10,165)">
    <g class="primitive">
      <text text-anchor="middle" dy="-0.25em">R1-1<tspan x="0" dy="1.2em">0,0,</tspan></text>
    </g>
  </g>
  <g transform="translate(50,180)">
    <g class="primitive">
      <text text-anchor="middle" dy="-0.25em">teamCOLLECT<tspan x="0" dy="1.2em">6,6,</tspan></text>
    </g>
  </g>
</g>
</svg>
