<?xml version="1.0" encoding="UTF-8"?>
<svg xmlns="http://www.w3.org/2000/svg"
     xmlns:xlink="http://www.w3.org/1999/xlink"
     xmlns:gadfly="http://www.gadflyjl.org/ns"
     version="1.2"
     width="140mm" height="250mm" viewBox="0 0 140 250"
     stroke="none"
     fill="#000000"
     stroke-width="0.3"
     font-size="3.88"
>
<defs>
  <marker id="arrow" markerWidth="15" markerHeight="7" refX="5" refY="3.5" orient="auto" markerUnits="strokeWidth">
    <path d="M0,0 L15,3.5 L0,7 z" stroke="context-stroke" fill="context-stroke"/>
  </marker>
</defs>
<g stroke="#000000" id="img-58186ce0-1">
  <g transform="translate(120,225)">
    <path fill="none" d="M-5.6,0 L 5.6 0" class="primitive"/>
  </g>
  <g transform="translate(120,200)">
    <path fill="none" d="M-9.14,22.84 L 9.14 -22.84" class="primitive"/>
  </g>
  <g transform="translate(120,175)">
    <path fill="none" d="M-9.56,47.81 L 9.56 -47.81" class="primitive"/>
  </g>
  <g transform="translate(120,150)">
    <path fill="none" d="M-9.71,72.8 L 9.71 -72.8" class="primitive"/>
  </g>
  <g transform="translate(120,125)">
    <path fill="none" d="M-9.78,97.8 L 9.78 -97.8" class="primitive"/>
  </g>
  <g transform="translate(100,225)">
    <path fill="none" d="M-5.6,0 L 5.6 0" class="primitive"/>
  </g>
  <g transform="translate(60,235)">
    <path fill="none" d="M-8.03,8.03 L 8.03 -8.03" class="primitive"/>
  </g>
  <g transform="translate(60,230)">
    <path fill="none" d="M-6.89,3.44 L 6.89 -3.44" class="primitive"/>
  </g>
  <g transform="translate(60,225)">
    <path fill="none" d="M-5.6,0 L 5.6 0" class="primitive"/>
  </g>
  <g transform="translate(60,220)">
    <path fill="none" d="M-6.89,-3.44 L 6.89 3.44" class="primitive"/>
  </g>
  <g transform="translate(80,225)">
    <path fill="none" d="M-5.6,0 L 5.6 0" class="primitive"/>
  </g>
  <g transform="translate(40,225)">
    <path fill="none" d="M-5.6,0 L 5.6 0" class="primitive"/>
  </g>
  <g transform="translate(20,225)">
    <path fill="none" d="M-5.6,0 L 5.6 0" class="primitive"/>
  </g>
  <g transform="translate(40,235)">
    <path fill="none" d="M-5.6,0 L 5.6 0" class="primitive"/>
  </g>
  <g transform="translate(20,235)">
    <path fill="none" d="M-5.6,0 L 5.6 0" class="primitive"/>
  </g>
  <g transform="translate(40,215)">
    <path fill="none" d="M-5.6,0 L 5.6 0" class="primitive"/>
  </g>
  <g transform="translate(20,215)">
    <path fill="none" d="M-5.6,0 L 5.6 0" class="primitive"/>
  </g>
  <g transform="translate(40,245)">
    <path fill="none" d="M-5.6,0 L 5.6 0" class="primitive"/>
  </g>
  <g transform="translate(20,245)">
    <path fill="none" d="M-5.6,0 L 5.6 0" class="primitive"/>
  </g>
  <g transform="translate(60,215)">
    <path fill="none" d="M-8.03,-8.03 L 8.03 8.03" class="primitive"/>
  </g>
</g>
<g fill="#00FFFF" id="img-58186ce0-2">
  <g transform="translate(130,225)">
    <circle cx="0" cy="0" r="4" class="primitive"/>
  </g>
</g>
<g fill="#00FFFF" id="img-58186ce0-3">
  <g transform="translate(130,175)">
    <circle cx="0" cy="0" r="4" class="primitive"/>
  </g>
</g>
<g fill="#00FFFF" id="img-58186ce0-4">
  <g transform="translate(130,125)">
    <circle cx="0" cy="0" r="4" class="primitive"/>
  </g>
</g>
<g fill="#00FFFF" id="img-58186ce0-5">
  <g transform="translate(130,75)">
    <circle cx="0" cy="0" r="4" class="primitive"/>
  </g>
</g>
<g fill="#00FFFF" id="img-58186ce0-6">
  <g transform="translate(110,225)">
    <circle cx="0" cy="0" r="4" class="primitive"/>
  </g>
</g>
<g fill="#00FFFF" id="img-58186ce0-7">
  <g transform="translate(90,225)">
    <circle cx="0" cy="0" r="4" class="primitive"/>
  </g>
</g>
<g fill="#00FFFF" id="img-58186ce0-8">
  <g transform="translate(50,245)">
    <circle cx="0" cy="0" r="4" class="primitive"/>
  </g>
</g>
<g fill="#00FFFF" id="img-58186ce0-9">
  <g transform="translate(50,235)">
    <circle cx="0" cy="0" r="4" class="primitive"/>
  </g>
</g>
<g fill="#00FFFF" id="img-58186ce0-10">
  <g transform="translate(50,225)">
    <circle cx="0" cy="0" r="4" class="primitive"/>
  </g>
</g>
<g fill="#00FFFF" id="img-58186ce0-11">
  <g transform="translate(50,215)">
    <circle cx="0" cy="0" r="4" class="primitive"/>
  </g>
</g>
<g fill="#00FFFF" id="img-58186ce0-12">
  <g transform="translate(70,225)">
    <circle cx="0" cy="0" r="4" class="primitive"/>
  </g>
</g>
<g fill="#00FFFF" id="img-58186ce0-13">
  <g transform="translate(30,225)">
    <circle cx="0" cy="0" r="4" class="primitive"/>
  </g>
</g>
<g fill="#00FF00" id="img-58186ce0-14">
  <g transform="translate(10,225)">
    <circle cx="0" cy="0" r="4" class="primitive"/>
  </g>
</g>
<g fill="#00FFFF" id="img-58186ce0-15">
  <g transform="translate(30,235)">
    <circle cx="0" cy="0" r="4" class="primitive"/>
  </g>
</g>
<g fill="#00FF00" id="img-58186ce0-16">
  <g transform="translate(10,235)">
    <circle cx="0" cy="0" r="4" class="primitive"/>
  </g>
</g>
<g fill="#00FFFF" id="img-58186ce0-17">
  <g transform="translate(30,215)">
    <circle cx="0" cy="0" r="4" class="primitive"/>
  </g>
</g>
<g fill="#00FF00" id="img-58186ce0-18">
  <g transform="translate(10,215)">
    <circle cx="0" cy="0" r="4" class="primitive"/>
  </g>
</g>
<g fill="#00FFFF" id="img-58186ce0-19">
  <g transform="translate(30,245)">
    <circle cx="0" cy="0" r="4" class="primitive"/>
  </g>
</g>
<g fill="#00FF00" id="img-58186ce0-20">
  <g transform="translate(10,245)">
    <circle cx="0" cy="0" r="4" class="primitive"/>
  </g>
</g>
<g fill="#FFA500" id="img-58186ce0-21">
  <g transform="translate(50,205)">
    <circle cx="0" cy="0" r="4" class="primitive"/>
  </g>
</g>
<g fill="#FF0000" id="img-58186ce0-22">
  <g transform="translate(130,25)">
    <circle cx="0" cy="0" r="4" class="primitive"/>
  </g>
</g>
<g font-family="futura" font-size="3.53" stroke="#000000" id="img-58186ce0-23">
  <g transform="translate(130,225)">
    <g class="primitive">
      <text text-anchor="middle" dy="-0.85em">go<tspan x="0" dy="1.2em">1,51,-1</tspan><tspan x="0" dy="1.2em">10,10,</tspan></text>
    </g>
  </g>
  <g transform="translate(130,175)">
    <g class="primitive">
      <text text-anchor="middle" dy="-0.85em">go<tspan x="0" dy="1.2em">3,43,-1</tspan><tspan x="0" dy="1.2em">10,10,</tspan></text>
    </g>
  </g>
  <g transform="translate(130,125)">
    <g class="primitive">
      <text text-anchor="middle" dy="-0.85em">go<tspan x="0" dy="1.2em">4,50,-1</tspan><tspan x="0" dy="1.2em">10,10,</tspan></text>
    </g>
  </g>
  <g transform="translate(130,75)">
    <g class="primitive">
      <text text-anchor="middle" dy="-0.85em">go<tspan x="0" dy="1.2em">2,42,-1</tspan><tspan x="0" dy="1.2em">10,10,</tspan></text>
    </g>
  </g>
  <g transform="translate(110,225)">
    <g class="primitive">
      <text text-anchor="middle" dy="-0.85em">teamDEPOSIT<tspan x="0" dy="1.2em">r: (2,4,3,1,)</tspan><tspan x="0" dy="1.2em">10,10,</tspan></text>
    </g>
  </g>
  <g transform="translate(90,225)">
    <g class="primitive">
      <text text-anchor="middle" dy="-0.85em">teamCARRY<tspan x="0" dy="1.2em">r: (2,4,3,1,)</tspan><tspan x="0" dy="1.2em">6,10,</tspan></text>
    </g>
  </g>
  <g transform="translate(50,245)">
    <g class="primitive">
      <text text-anchor="middle" dy="-0.85em">go<tspan x="0" dy="1.2em">1,19,19</tspan><tspan x="0" dy="1.2em">4,4,</tspan></text>
    </g>
  </g>
  <g transform="translate(50,235)">
    <g class="primitive">
      <text text-anchor="middle" dy="-0.85em">go<tspan x="0" dy="1.2em">3,11,11</tspan><tspan x="0" dy="1.2em">6,6,</tspan></text>
    </g>
  </g>
  <g transform="translate(50,225)">
    <g class="primitive">
      <text text-anchor="middle" dy="-0.85em">go<tspan x="0" dy="1.2em">4,18,18</tspan><tspan x="0" dy="1.2em">3,3,</tspan></text>
    </g>
  </g>
  <g transform="translate(50,215)">
    <g class="primitive">
      <text text-anchor="middle" dy="-0.85em">go<tspan x="0" dy="1.2em">2,10,10</tspan><tspan x="0" dy="1.2em">3,3,</tspan></text>
    </g>
  </g>
  <g transform="translate(70,225)">
    <g class="primitive">
      <text text-anchor="middle" dy="-0.85em">teamCOLLECT<tspan x="0" dy="1.2em">r: (2,4,3,1,)</tspan><tspan x="0" dy="1.2em">6,6,</tspan></text>
    </g>
  </g>
  <g transform="translate(30,225)">
    <g class="primitive">
      <text text-anchor="middle" dy="-0.85em">go<tspan x="0" dy="1.2em">4,28,18</tspan><tspan x="0" dy="1.2em">0,3,</tspan></text>
    </g>
  </g>
  <g transform="translate(10,225)">
    <g class="primitive">
      <text text-anchor="middle" dy="-0.25em">R4-28<tspan x="0" dy="1.2em">0,0,</tspan></text>
    </g>
  </g>
  <g transform="translate(30,235)">
    <g class="primitive">
      <text text-anchor="middle" dy="-0.85em">go<tspan x="0" dy="1.2em">3,8,11</tspan><tspan x="0" dy="1.2em">0,6,</tspan></text>
    </g>
  </g>
  <g transform="translate(10,235)">
    <g class="primitive">
      <text text-anchor="middle" dy="-0.25em">R3-8<tspan x="0" dy="1.2em">0,0,</tspan></text>
    </g>
  </g>
  <g transform="translate(30,215)">
    <g class="primitive">
      <text text-anchor="middle" dy="-0.85em">go<tspan x="0" dy="1.2em">2,25,10</tspan><tspan x="0" dy="1.2em">0,3,</tspan></text>
    </g>
  </g>
  <g transform="translate(10,215)">
    <g class="primitive">
      <text text-anchor="middle" dy="-0.25em">R2-25<tspan x="0" dy="1.2em">0,0,</tspan></text>
    </g>
  </g>
  <g transform="translate(30,245)">
    <g class="primitive">
      <text text-anchor="middle" dy="-0.85em">go<tspan x="0" dy="1.2em">1,1,19</tspan><tspan x="0" dy="1.2em">0,4,</tspan></text>
    </g>
  </g>
  <g transform="translate(10,245)">
    <g class="primitive">
      <text text-anchor="middle" dy="-0.25em">R1-1<tspan x="0" dy="1.2em">0,0,</tspan></text>
    </g>
  </g>
  <g transform="translate(50,205)">
    <g class="primitive">
      <text text-anchor="middle" dy="-0.25em">O1-10<tspan x="0" dy="1.2em">0,0,</tspan></text>
    </g>
  </g>
  <g transform="translate(130,25)">
    <g class="primitive">
      <text text-anchor="middle" dy="-0.25em">op700<tspan x="0" dy="1.2em">10,10,</tspan></text>
    </g>
  </g>
</g>
</svg>
