<?xml version="1.0" encoding="UTF-8"?>
<svg xmlns="http://www.w3.org/2000/svg"
     xmlns:xlink="http://www.w3.org/1999/xlink"
     xmlns:gadfly="http://www.gadflyjl.org/ns"
     version="1.2"
     width="500mm" height="790mm" viewBox="0 0 500 790"
     stroke="none"
     fill="#000000"
     stroke-width="0.3"
     font-size="3.88"
>
<defs>
  <marker id="arrow" markerWidth="15" markerHeight="7" refX="5" refY="3.5" orient="auto" markerUnits="strokeWidth">
    <path d="M0,0 L15,3.5 L0,7 z" stroke="context-stroke" fill="context-stroke"/>
  </marker>
</defs>
<g stroke="#000000" id="img-1d1306d8-1">
  <g transform="translate(20,755)">
    <path fill="none" d="M-5.6,0 L 5.6 0" class="primitive"/>
  </g>
  <g transform="translate(20,785)">
    <path fill="none" d="M-5.6,0 L 5.6 0" class="primitive"/>
  </g>
  <g transform="translate(20,705)">
    <path fill="none" d="M-5.6,0 L 5.6 0" class="primitive"/>
  </g>
  <g transform="translate(480,726.51)">
    <path fill="none" d="M-5.6,0 L 5.6 0" class="primitive"/>
  </g>
  <g transform="translate(480,556.51)">
    <path fill="none" d="M-9.87,167.8 L 9.87 -167.8" class="primitive"/>
  </g>
  <g transform="translate(460,726.51)">
    <path fill="none" d="M-5.6,0 L 5.6 0" class="primitive"/>
  </g>
  <g transform="translate(440,726.51)">
    <path fill="none" d="M-5.6,0 L 5.6 0" class="primitive"/>
  </g>
  <g transform="translate(170,614.38)">
    <path fill="none" d="M-55.68,5.22 L 55.68 -5.22" class="primitive"/>
  </g>
  <g transform="translate(100,685)">
    <path fill="none" d="M-9.66,62.81 L 9.66 -62.81" class="primitive"/>
  </g>
  <g transform="translate(100,750)">
    <path fill="none" d="M-5.6,0 L 5.6 0" class="primitive"/>
  </g>
  <g transform="translate(80,750)">
    <path fill="none" d="M-5.6,0 L 5.6 0" class="primitive"/>
  </g>
  <g transform="translate(60,750)">
    <path fill="none" d="M-5.6,0 L 5.6 0" class="primitive"/>
  </g>
  <g transform="translate(310,752.01)">
    <path fill="none" d="M-115.95,24.63 L 115.95 -24.63" class="primitive"/>
  </g>
  <g transform="translate(180,777.5)">
    <path fill="none" d="M-5.6,0 L 5.6 0" class="primitive"/>
  </g>
  <g transform="translate(180,687.5)">
    <path fill="none" d="M-9.76,87.8 L 9.76 -87.8" class="primitive"/>
  </g>
  <g transform="translate(160,777.5)">
    <path fill="none" d="M-5.6,0 L 5.6 0" class="primitive"/>
  </g>
  <g transform="translate(140,777.5)">
    <path fill="none" d="M-5.6,0 L 5.6 0" class="primitive"/>
  </g>
  <g transform="translate(320,199.22)">
    <path fill="none" d="M-27.09,15.38 L 27.09 -15.38" class="primitive"/>
  </g>
  <g transform="translate(280,476.25)">
    <path fill="none" d="M-9.92,257.8 L 9.92 -257.8" class="primitive"/>
  </g>
  <g transform="translate(330,705.89)">
    <path fill="none" d="M-56.91,28.8 L 56.91 -28.8" class="primitive"/>
  </g>
  <g transform="translate(260,736.25)">
    <path fill="none" d="M-5.6,0 L 5.6 0" class="primitive"/>
  </g>
  <g transform="translate(240,736.25)">
    <path fill="none" d="M-5.6,0 L 5.6 0" class="primitive"/>
  </g>
  <g transform="translate(380,616.56)">
    <path fill="none" d="M-9.66,62.81 L 9.66 -62.81" class="primitive"/>
  </g>
  <g transform="translate(380,678.54)">
    <path fill="none" d="M-6.23,1.88 L 6.23 -1.88" class="primitive"/>
  </g>
  <g transform="translate(360,681.56)">
    <path fill="none" d="M-5.6,0 L 5.6 0" class="primitive"/>
  </g>
  <g transform="translate(340,681.56)">
    <path fill="none" d="M-5.6,0 L 5.6 0" class="primitive"/>
  </g>
  <g transform="translate(280,543.75)">
    <path fill="none" d="M-9.66,62.81 L 9.66 -62.81" class="primitive"/>
  </g>
  <g transform="translate(330,642.14)">
    <path fill="none" d="M-57.06,-31.75 L 57.06 31.75" class="primitive"/>
  </g>
  <g transform="translate(260,608.75)">
    <path fill="none" d="M-5.6,0 L 5.6 0" class="primitive"/>
  </g>
  <g transform="translate(240,608.75)">
    <path fill="none" d="M-5.6,0 L 5.6 0" class="primitive"/>
  </g>
  <g transform="translate(420,701.02)">
    <path fill="none" d="M-9.15,-23.34 L 9.15 23.34" class="primitive"/>
  </g>
  <g transform="translate(180,743.12)">
    <path fill="none" d="M-45.76,6.29 L 45.76 -6.29" class="primitive"/>
  </g>
  <g transform="translate(180,693.28)">
    <path fill="none" d="M-145.65,11.38 L 145.65 -11.38" class="primitive"/>
  </g>
  <g transform="translate(220,603.12)">
    <path fill="none" d="M-7.08,-3.98 L 7.08 3.98" class="primitive"/>
  </g>
  <g transform="translate(80,781.25)">
    <path fill="none" d="M-45.65,3.42 L 45.65 -3.42" class="primitive"/>
  </g>
  <g transform="translate(40,752.5)">
    <path fill="none" d="M-6.06,1.52 L 6.06 -1.52" class="primitive"/>
  </g>
  <g transform="translate(120,750)">
    <path fill="none" d="M-5.6,0 L 5.6 0" class="primitive"/>
  </g>
  <g transform="translate(200,597.5)">
    <path fill="none" d="M-5.6,0 L 5.6 0" class="primitive"/>
  </g>
  <g transform="translate(400,675.52)">
    <path fill="none" d="M-5.6,0 L 5.6 0" class="primitive"/>
  </g>
  <g transform="translate(40,772.5)">
    <path fill="none" d="M-6.06,1.52 L 6.06 -1.52" class="primitive"/>
  </g>
  <g transform="translate(380,182.19)">
    <path fill="none" d="M-5.6,0 L 5.6 0" class="primitive"/>
  </g>
  <g transform="translate(220,729.38)">
    <path fill="none" d="M-7.41,-5.1 L 7.41 5.1" class="primitive"/>
  </g>
  <g transform="translate(320,669.84)">
    <path fill="none" d="M-8.27,-9.7 L 8.27 9.7" class="primitive"/>
  </g>
  <g transform="translate(60,690)">
    <path fill="none" d="M-5.6,0 L 5.6 0" class="primitive"/>
  </g>
  <g transform="translate(160,722.5)">
    <path fill="none" d="M-5.6,0 L 5.6 0" class="primitive"/>
  </g>
  <g transform="translate(300,658.12)">
    <path fill="none" d="M-5.6,0 L 5.6 0" class="primitive"/>
  </g>
  <g transform="translate(300,403.12)">
    <path fill="none" d="M-9.91,252.8 L 9.91 -252.8" class="primitive"/>
  </g>
  <g transform="translate(40,692.5)">
    <path fill="none" d="M-6.06,1.52 L 6.06 -1.52" class="primitive"/>
  </g>
  <g transform="translate(240,667.19)">
    <path fill="none" d="M-7.87,7.14 L 7.87 -7.14" class="primitive"/>
  </g>
  <g transform="translate(280,658.12)">
    <path fill="none" d="M-5.6,0 L 5.6 0" class="primitive"/>
  </g>
  <g transform="translate(20,745)">
    <path fill="none" d="M-5.6,0 L 5.6 0" class="primitive"/>
  </g>
  <g transform="translate(20,715)">
    <path fill="none" d="M-5.6,0 L 5.6 0" class="primitive"/>
  </g>
  <g transform="translate(120,730)">
    <path fill="none" d="M-5.6,0 L 5.6 0" class="primitive"/>
  </g>
  <g transform="translate(100,750)">
    <path fill="none" d="M-8.93,17.87 L 8.93 -17.87" class="primitive"/>
  </g>
  <g transform="translate(100,770)">
    <path fill="none" d="M-5.6,0 L 5.6 0" class="primitive"/>
  </g>
  <g transform="translate(30,687.5)">
    <path fill="none" d="M-15.73,-1.97 L 15.73 1.97" class="primitive"/>
  </g>
  <g transform="translate(30,767.5)">
    <path fill="none" d="M-15.73,-1.97 L 15.73 1.97" class="primitive"/>
  </g>
  <g transform="translate(360,182.19)">
    <path fill="none" d="M-5.6,0 L 5.6 0" class="primitive"/>
  </g>
  <g transform="translate(60,770)">
    <path fill="none" d="M-5.6,0 L 5.6 0" class="primitive"/>
  </g>
  <g transform="translate(320,148.12)">
    <path fill="none" d="M-5.6,0 L 5.6 0" class="primitive"/>
  </g>
  <g transform="translate(100,665)">
    <path fill="none" d="M-9.14,22.84 L 9.14 -22.84" class="primitive"/>
  </g>
  <g transform="translate(150,683.12)">
    <path fill="none" d="M-55.71,6.38 L 55.71 -6.38" class="primitive"/>
  </g>
  <g transform="translate(40,747.5)">
    <path fill="none" d="M-6.06,-1.52 L 6.06 1.52" class="primitive"/>
  </g>
  <g transform="translate(120,773.75)">
    <path fill="none" d="M-6.48,-2.43 L 6.48 2.43" class="primitive"/>
  </g>
  <g transform="translate(200,722.5)">
    <path fill="none" d="M-5.6,0 L 5.6 0" class="primitive"/>
  </g>
  <g transform="translate(200,699.38)">
    <path fill="none" d="M-9.07,20.97 L 9.07 -20.97" class="primitive"/>
  </g>
  <g transform="translate(20,695)">
    <path fill="none" d="M-5.6,0 L 5.6 0" class="primitive"/>
  </g>
  <g transform="translate(80,770)">
    <path fill="none" d="M-5.6,0 L 5.6 0" class="primitive"/>
  </g>
  <g transform="translate(180,649.06)">
    <path fill="none" d="M-65.74,-8.51 L 65.74 8.51" class="primitive"/>
  </g>
  <g transform="translate(20,775)">
    <path fill="none" d="M-5.6,0 L 5.6 0" class="primitive"/>
  </g>
  <g transform="translate(260,658.12)">
    <path fill="none" d="M-5.6,0 L 5.6 0" class="primitive"/>
  </g>
  <g transform="translate(140,726.25)">
    <path fill="none" d="M-6.48,2.43 L 6.48 -2.43" class="primitive"/>
  </g>
  <g transform="translate(80,690)">
    <path fill="none" d="M-5.6,0 L 5.6 0" class="primitive"/>
  </g>
  <g transform="translate(400,182.19)">
    <path fill="none" d="M-5.6,0 L 5.6 0" class="primitive"/>
  </g>
  <g transform="translate(400,122.19)">
    <path fill="none" d="M-9.63,57.81 L 9.63 -57.81" class="primitive"/>
  </g>
  <g transform="translate(180,722.5)">
    <path fill="none" d="M-5.6,0 L 5.6 0" class="primitive"/>
  </g>
  <g transform="translate(90,718.75)">
    <path fill="none" d="M-55.63,-3.48 L 55.63 3.48" class="primitive"/>
  </g>
  <g transform="translate(340,165.16)">
    <path fill="none" d="M-8.76,-14.92 L 8.76 14.92" class="primitive"/>
  </g>
  <g transform="translate(220,676.25)">
    <path fill="none" d="M-5.6,0 L 5.6 0" class="primitive"/>
  </g>
</g>
<g fill="#FF0000" id="img-1d1306d8-2">
  <g transform="translate(10,755)">
    <circle cx="0" cy="0" r="4" class="primitive"/>
  </g>
</g>
<g fill="#FF0000" id="img-1d1306d8-3">
  <g transform="translate(10,785)">
    <circle cx="0" cy="0" r="4" class="primitive"/>
  </g>
</g>
<g fill="#FF0000" id="img-1d1306d8-4">
  <g transform="translate(10,705)">
    <circle cx="0" cy="0" r="4" class="primitive"/>
  </g>
</g>
<g fill="#00FFFF" id="img-1d1306d8-5">
  <g transform="translate(490,726.51)">
    <circle cx="0" cy="0" r="4" class="primitive"/>
  </g>
</g>
<g fill="#00FFFF" id="img-1d1306d8-6">
  <g transform="translate(470,726.51)">
    <circle cx="0" cy="0" r="4" class="primitive"/>
  </g>
</g>
<g fill="#00FFFF" id="img-1d1306d8-7">
  <g transform="translate(450,726.51)">
    <circle cx="0" cy="0" r="4" class="primitive"/>
  </g>
</g>
<g fill="#00FFFF" id="img-1d1306d8-8">
  <g transform="translate(430,726.51)">
    <circle cx="0" cy="0" r="4" class="primitive"/>
  </g>
</g>
<g fill="#00FFFF" id="img-1d1306d8-9">
  <g transform="translate(110,620)">
    <circle cx="0" cy="0" r="4" class="primitive"/>
  </g>
</g>
<g fill="#00FFFF" id="img-1d1306d8-10">
  <g transform="translate(90,750)">
    <circle cx="0" cy="0" r="4" class="primitive"/>
  </g>
</g>
<g fill="#00FFFF" id="img-1d1306d8-11">
  <g transform="translate(70,750)">
    <circle cx="0" cy="0" r="4" class="primitive"/>
  </g>
</g>
<g fill="#00FFFF" id="img-1d1306d8-12">
  <g transform="translate(50,750)">
    <circle cx="0" cy="0" r="4" class="primitive"/>
  </g>
</g>
<g fill="#00FFFF" id="img-1d1306d8-13">
  <g transform="translate(190,777.5)">
    <circle cx="0" cy="0" r="4" class="primitive"/>
  </g>
</g>
<g fill="#00FFFF" id="img-1d1306d8-14">
  <g transform="translate(170,777.5)">
    <circle cx="0" cy="0" r="4" class="primitive"/>
  </g>
</g>
<g fill="#00FFFF" id="img-1d1306d8-15">
  <g transform="translate(150,777.5)">
    <circle cx="0" cy="0" r="4" class="primitive"/>
  </g>
</g>
<g fill="#00FFFF" id="img-1d1306d8-16">
  <g transform="translate(130,777.5)">
    <circle cx="0" cy="0" r="4" class="primitive"/>
  </g>
</g>
<g fill="#00FFFF" id="img-1d1306d8-17">
  <g transform="translate(290,216.25)">
    <circle cx="0" cy="0" r="4" class="primitive"/>
  </g>
</g>
<g fill="#00FFFF" id="img-1d1306d8-18">
  <g transform="translate(270,736.25)">
    <circle cx="0" cy="0" r="4" class="primitive"/>
  </g>
</g>
<g fill="#00FFFF" id="img-1d1306d8-19">
  <g transform="translate(250,736.25)">
    <circle cx="0" cy="0" r="4" class="primitive"/>
  </g>
</g>
<g fill="#00FFFF" id="img-1d1306d8-20">
  <g transform="translate(230,736.25)">
    <circle cx="0" cy="0" r="4" class="primitive"/>
  </g>
</g>
<g fill="#00FFFF" id="img-1d1306d8-21">
  <g transform="translate(390,551.56)">
    <circle cx="0" cy="0" r="4" class="primitive"/>
  </g>
</g>
<g fill="#00FFFF" id="img-1d1306d8-22">
  <g transform="translate(370,681.56)">
    <circle cx="0" cy="0" r="4" class="primitive"/>
  </g>
</g>
<g fill="#00FFFF" id="img-1d1306d8-23">
  <g transform="translate(350,681.56)">
    <circle cx="0" cy="0" r="4" class="primitive"/>
  </g>
</g>
<g fill="#00FFFF" id="img-1d1306d8-24">
  <g transform="translate(330,681.56)">
    <circle cx="0" cy="0" r="4" class="primitive"/>
  </g>
</g>
<g fill="#00FFFF" id="img-1d1306d8-25">
  <g transform="translate(290,478.75)">
    <circle cx="0" cy="0" r="4" class="primitive"/>
  </g>
</g>
<g fill="#00FFFF" id="img-1d1306d8-26">
  <g transform="translate(270,608.75)">
    <circle cx="0" cy="0" r="4" class="primitive"/>
  </g>
</g>
<g fill="#00FFFF" id="img-1d1306d8-27">
  <g transform="translate(250,608.75)">
    <circle cx="0" cy="0" r="4" class="primitive"/>
  </g>
</g>
<g fill="#00FFFF" id="img-1d1306d8-28">
  <g transform="translate(230,608.75)">
    <circle cx="0" cy="0" r="4" class="primitive"/>
  </g>
</g>
<g fill="#FFA500" id="img-1d1306d8-29">
  <g transform="translate(410,675.52)">
    <circle cx="0" cy="0" r="4" class="primitive"/>
  </g>
</g>
<g fill="#FFA500" id="img-1d1306d8-30">
  <g transform="translate(130,750)">
    <circle cx="0" cy="0" r="4" class="primitive"/>
  </g>
</g>
<g fill="#FFA500" id="img-1d1306d8-31">
  <g transform="translate(30,705)">
    <circle cx="0" cy="0" r="4" class="primitive"/>
  </g>
</g>
<g fill="#FFA500" id="img-1d1306d8-32">
  <g transform="translate(210,597.5)">
    <circle cx="0" cy="0" r="4" class="primitive"/>
  </g>
</g>
<g fill="#FFA500" id="img-1d1306d8-33">
  <g transform="translate(30,785)">
    <circle cx="0" cy="0" r="4" class="primitive"/>
  </g>
</g>
<g fill="#FFA500" id="img-1d1306d8-34">
  <g transform="translate(30,755)">
    <circle cx="0" cy="0" r="4" class="primitive"/>
  </g>
</g>
<g fill="#FF0000" id="img-1d1306d8-35">
  <g transform="translate(490,386.51)">
    <circle cx="0" cy="0" r="4" class="primitive"/>
  </g>
</g>
<g fill="#FF0000" id="img-1d1306d8-36">
  <g transform="translate(110,750)">
    <circle cx="0" cy="0" r="4" class="primitive"/>
  </g>
</g>
<g fill="#FF0000" id="img-1d1306d8-37">
  <g transform="translate(190,597.5)">
    <circle cx="0" cy="0" r="4" class="primitive"/>
  </g>
</g>
<g fill="#FF0000" id="img-1d1306d8-38">
  <g transform="translate(390,675.52)">
    <circle cx="0" cy="0" r="4" class="primitive"/>
  </g>
</g>
<g fill="#00FFFF" id="img-1d1306d8-39">
  <g transform="translate(30,775)">
    <circle cx="0" cy="0" r="4" class="primitive"/>
  </g>
</g>
<g fill="#00FFFF" id="img-1d1306d8-40">
  <g transform="translate(370,182.19)">
    <circle cx="0" cy="0" r="4" class="primitive"/>
  </g>
</g>
<g fill="#00FFFF" id="img-1d1306d8-41">
  <g transform="translate(210,722.5)">
    <circle cx="0" cy="0" r="4" class="primitive"/>
  </g>
</g>
<g fill="#00FFFF" id="img-1d1306d8-42">
  <g transform="translate(310,658.12)">
    <circle cx="0" cy="0" r="4" class="primitive"/>
  </g>
</g>
<g fill="#FF0000" id="img-1d1306d8-43">
  <g transform="translate(410,182.19)">
    <circle cx="0" cy="0" r="4" class="primitive"/>
  </g>
</g>
<g fill="#00FFFF" id="img-1d1306d8-44">
  <g transform="translate(50,690)">
    <circle cx="0" cy="0" r="4" class="primitive"/>
  </g>
</g>
<g fill="#00FFFF" id="img-1d1306d8-45">
  <g transform="translate(150,722.5)">
    <circle cx="0" cy="0" r="4" class="primitive"/>
  </g>
</g>
<g fill="#00FFFF" id="img-1d1306d8-46">
  <g transform="translate(290,658.12)">
    <circle cx="0" cy="0" r="4" class="primitive"/>
  </g>
</g>
<g fill="#00FFFF" id="img-1d1306d8-47">
  <g transform="translate(30,695)">
    <circle cx="0" cy="0" r="4" class="primitive"/>
  </g>
</g>
<g fill="#FFA500" id="img-1d1306d8-48">
  <g transform="translate(230,676.25)">
    <circle cx="0" cy="0" r="4" class="primitive"/>
  </g>
</g>
<g fill="#00FFFF" id="img-1d1306d8-49">
  <g transform="translate(270,658.12)">
    <circle cx="0" cy="0" r="4" class="primitive"/>
  </g>
</g>
<g fill="#00FF00" id="img-1d1306d8-50">
  <g transform="translate(10,745)">
    <circle cx="0" cy="0" r="4" class="primitive"/>
  </g>
</g>
<g fill="#00FF00" id="img-1d1306d8-51">
  <g transform="translate(10,715)">
    <circle cx="0" cy="0" r="4" class="primitive"/>
  </g>
</g>
<g fill="#FF0000" id="img-1d1306d8-52">
  <g transform="translate(110,730)">
    <circle cx="0" cy="0" r="4" class="primitive"/>
  </g>
</g>
<g fill="#00FFFF" id="img-1d1306d8-53">
  <g transform="translate(90,770)">
    <circle cx="0" cy="0" r="4" class="primitive"/>
  </g>
</g>
<g fill="#00FFFF" id="img-1d1306d8-54">
  <g transform="translate(410,62.19)">
    <circle cx="0" cy="0" r="4" class="primitive"/>
  </g>
</g>
<g fill="#FFA500" id="img-1d1306d8-55">
  <g transform="translate(10,685)">
    <circle cx="0" cy="0" r="4" class="primitive"/>
  </g>
</g>
<g fill="#FFA500" id="img-1d1306d8-56">
  <g transform="translate(10,765)">
    <circle cx="0" cy="0" r="4" class="primitive"/>
  </g>
</g>
<g fill="#00FFFF" id="img-1d1306d8-57">
  <g transform="translate(350,182.19)">
    <circle cx="0" cy="0" r="4" class="primitive"/>
  </g>
</g>
<g fill="#00FFFF" id="img-1d1306d8-58">
  <g transform="translate(50,770)">
    <circle cx="0" cy="0" r="4" class="primitive"/>
  </g>
</g>
<g fill="#FF0000" id="img-1d1306d8-59">
  <g transform="translate(310,148.12)">
    <circle cx="0" cy="0" r="4" class="primitive"/>
  </g>
</g>
<g fill="#00FFFF" id="img-1d1306d8-60">
  <g transform="translate(90,690)">
    <circle cx="0" cy="0" r="4" class="primitive"/>
  </g>
</g>
<g fill="#00FFFF" id="img-1d1306d8-61">
  <g transform="translate(30,745)">
    <circle cx="0" cy="0" r="4" class="primitive"/>
  </g>
</g>
<g fill="#00FFFF" id="img-1d1306d8-62">
  <g transform="translate(110,770)">
    <circle cx="0" cy="0" r="4" class="primitive"/>
  </g>
</g>
<g fill="#00FFFF" id="img-1d1306d8-63">
  <g transform="translate(190,722.5)">
    <circle cx="0" cy="0" r="4" class="primitive"/>
  </g>
</g>
<g fill="#00FF00" id="img-1d1306d8-64">
  <g transform="translate(10,695)">
    <circle cx="0" cy="0" r="4" class="primitive"/>
  </g>
</g>
<g fill="#00FFFF" id="img-1d1306d8-65">
  <g transform="translate(70,770)">
    <circle cx="0" cy="0" r="4" class="primitive"/>
  </g>
</g>
<g fill="#00FFFF" id="img-1d1306d8-66">
  <g transform="translate(110,640)">
    <circle cx="0" cy="0" r="4" class="primitive"/>
  </g>
</g>
<g fill="#00FF00" id="img-1d1306d8-67">
  <g transform="translate(10,775)">
    <circle cx="0" cy="0" r="4" class="primitive"/>
  </g>
</g>
<g fill="#00FFFF" id="img-1d1306d8-68">
  <g transform="translate(250,658.12)">
    <circle cx="0" cy="0" r="4" class="primitive"/>
  </g>
</g>
<g fill="#FFA500" id="img-1d1306d8-69">
  <g transform="translate(130,730)">
    <circle cx="0" cy="0" r="4" class="primitive"/>
  </g>
</g>
<g fill="#00FFFF" id="img-1d1306d8-70">
  <g transform="translate(70,690)">
    <circle cx="0" cy="0" r="4" class="primitive"/>
  </g>
</g>
<g fill="#00FFFF" id="img-1d1306d8-71">
  <g transform="translate(390,182.19)">
    <circle cx="0" cy="0" r="4" class="primitive"/>
  </g>
</g>
<g fill="#00FFFF" id="img-1d1306d8-72">
  <g transform="translate(170,722.5)">
    <circle cx="0" cy="0" r="4" class="primitive"/>
  </g>
</g>
<g fill="#00FFFF" id="img-1d1306d8-73">
  <g transform="translate(30,715)">
    <circle cx="0" cy="0" r="4" class="primitive"/>
  </g>
</g>
<g fill="#FFA500" id="img-1d1306d8-74">
  <g transform="translate(330,148.12)">
    <circle cx="0" cy="0" r="4" class="primitive"/>
  </g>
</g>
<g fill="#FF0000" id="img-1d1306d8-75">
  <g transform="translate(210,676.25)">
    <circle cx="0" cy="0" r="4" class="primitive"/>
  </g>
</g>
<g font-family="futura" font-size="3.53" stroke="#000000" id="img-1d1306d8-76">
  <g transform="translate(10,755)">
    <g class="primitive">
      <text text-anchor="middle" dy="-0.25em">op1525<tspan x="0" dy="1.2em">30,30</tspan></text>
    </g>
  </g>
  <g transform="translate(10,785)">
    <g class="primitive">
      <text text-anchor="middle" dy="-0.25em">op1524<tspan x="0" dy="1.2em">30,30</tspan></text>
    </g>
  </g>
  <g transform="translate(10,705)">
    <g class="primitive">
      <text text-anchor="middle" dy="-0.25em">op1523<tspan x="0" dy="1.2em">30,30</tspan></text>
    </g>
  </g>
  <g transform="translate(490,726.51)">
    <g class="primitive">
      <text text-anchor="middle" dy="-0.85em">go<tspan x="0" dy="1.2em">2,247,-1</tspan><tspan x="0" dy="1.2em">106,106</tspan></text>
    </g>
  </g>
  <g transform="translate(470,726.51)">
    <g class="primitive">
      <text text-anchor="middle" dy="-0.85em">deposit<tspan x="0" dy="1.2em">2,12,247</tspan><tspan x="0" dy="1.2em">106,106</tspan></text>
    </g>
  </g>
  <g transform="translate(450,726.51)">
    <g class="primitive">
      <text text-anchor="middle" dy="-0.85em">carry<tspan x="0" dy="1.2em">2,12,247</tspan><tspan x="0" dy="1.2em">94,106</tspan></text>
    </g>
  </g>
  <g transform="translate(430,726.51)">
    <g class="primitive">
      <text text-anchor="middle" dy="-0.85em">collect<tspan x="0" dy="1.2em">2,12,355</tspan><tspan x="0" dy="1.2em">94,94</tspan></text>
    </g>
  </g>
  <g transform="translate(110,620)">
    <g class="primitive">
      <text text-anchor="middle" dy="-0.85em">go<tspan x="0" dy="1.2em">3,74,221</tspan><tspan x="0" dy="1.2em">41,67</tspan></text>
    </g>
  </g>
  <g transform="translate(90,750)">
    <g class="primitive">
      <text text-anchor="middle" dy="-0.85em">deposit<tspan x="0" dy="1.2em">3,7,74</tspan><tspan x="0" dy="1.2em">41,41</tspan></text>
    </g>
  </g>
  <g transform="translate(70,750)">
    <g class="primitive">
      <text text-anchor="middle" dy="-0.85em">carry<tspan x="0" dy="1.2em">3,7,74</tspan><tspan x="0" dy="1.2em">30,41</tspan></text>
    </g>
  </g>
  <g transform="translate(50,750)">
    <g class="primitive">
      <text text-anchor="middle" dy="-0.85em">collect<tspan x="0" dy="1.2em">3,7,63</tspan><tspan x="0" dy="1.2em">30,30</tspan></text>
    </g>
  </g>
  <g transform="translate(190,777.5)">
    <g class="primitive">
      <text text-anchor="middle" dy="-0.85em">go<tspan x="0" dy="1.2em">2,94,355</tspan><tspan x="0" dy="1.2em">79,91</tspan></text>
    </g>
  </g>
  <g transform="translate(170,777.5)">
    <g class="primitive">
      <text text-anchor="middle" dy="-0.85em">deposit<tspan x="0" dy="1.2em">2,8,94</tspan><tspan x="0" dy="1.2em">79,79</tspan></text>
    </g>
  </g>
  <g transform="translate(150,777.5)">
    <g class="primitive">
      <text text-anchor="middle" dy="-0.85em">carry<tspan x="0" dy="1.2em">2,8,94</tspan><tspan x="0" dy="1.2em">48,79</tspan></text>
    </g>
  </g>
  <g transform="translate(130,777.5)">
    <g class="primitive">
      <text text-anchor="middle" dy="-0.85em">collect<tspan x="0" dy="1.2em">2,8,380</tspan><tspan x="0" dy="1.2em">48,48</tspan></text>
    </g>
  </g>
  <g transform="translate(290,216.25)">
    <g class="primitive">
      <text text-anchor="middle" dy="-0.85em">go<tspan x="0" dy="1.2em">1,510,509</tspan><tspan x="0" dy="1.2em">72,77</tspan></text>
    </g>
  </g>
  <g transform="translate(270,736.25)">
    <g class="primitive">
      <text text-anchor="middle" dy="-0.85em">deposit<tspan x="0" dy="1.2em">1,11,510</tspan><tspan x="0" dy="1.2em">72,72</tspan></text>
    </g>
  </g>
  <g transform="translate(250,736.25)">
    <g class="primitive">
      <text text-anchor="middle" dy="-0.85em">carry<tspan x="0" dy="1.2em">1,11,510</tspan><tspan x="0" dy="1.2em">61,72</tspan></text>
    </g>
  </g>
  <g transform="translate(230,736.25)">
    <g class="primitive">
      <text text-anchor="middle" dy="-0.85em">collect<tspan x="0" dy="1.2em">1,11,505</tspan><tspan x="0" dy="1.2em">61,61</tspan></text>
    </g>
  </g>
  <g transform="translate(390,551.56)">
    <g class="primitive">
      <text text-anchor="middle" dy="-0.85em">go<tspan x="0" dy="1.2em">4,374,-1</tspan><tspan x="0" dy="1.2em">85,85</tspan></text>
    </g>
  </g>
  <g transform="translate(370,681.56)">
    <g class="primitive">
      <text text-anchor="middle" dy="-0.85em">deposit<tspan x="0" dy="1.2em">4,10,374</tspan><tspan x="0" dy="1.2em">85,85</tspan></text>
    </g>
  </g>
  <g transform="translate(350,681.56)">
    <g class="primitive">
      <text text-anchor="middle" dy="-0.85em">carry<tspan x="0" dy="1.2em">4,10,374</tspan><tspan x="0" dy="1.2em">80,85</tspan></text>
    </g>
  </g>
  <g transform="translate(330,681.56)">
    <g class="primitive">
      <text text-anchor="middle" dy="-0.85em">collect<tspan x="0" dy="1.2em">4,10,252</tspan><tspan x="0" dy="1.2em">80,80</tspan></text>
    </g>
  </g>
  <g transform="translate(290,478.75)">
    <g class="primitive">
      <text text-anchor="middle" dy="-0.85em">go<tspan x="0" dy="1.2em">3,502,-1</tspan><tspan x="0" dy="1.2em">94,94</tspan></text>
    </g>
  </g>
  <g transform="translate(270,608.75)">
    <g class="primitive">
      <text text-anchor="middle" dy="-0.85em">deposit<tspan x="0" dy="1.2em">3,9,502</tspan><tspan x="0" dy="1.2em">94,94</tspan></text>
    </g>
  </g>
  <g transform="translate(250,608.75)">
    <g class="primitive">
      <text text-anchor="middle" dy="-0.85em">carry<tspan x="0" dy="1.2em">3,9,502</tspan><tspan x="0" dy="1.2em">79,94</tspan></text>
    </g>
  </g>
  <g transform="translate(230,608.75)">
    <g class="primitive">
      <text text-anchor="middle" dy="-0.85em">collect<tspan x="0" dy="1.2em">3,9,221</tspan><tspan x="0" dy="1.2em">79,79</tspan></text>
    </g>
  </g>
  <g transform="translate(410,675.52)">
    <g class="primitive">
      <text text-anchor="middle" dy="-0.25em">O12-355<tspan x="0" dy="1.2em">94,94</tspan></text>
    </g>
  </g>
  <g transform="translate(130,750)">
    <g class="primitive">
      <text text-anchor="middle" dy="-0.25em">O11-505<tspan x="0" dy="1.2em">41,41</tspan></text>
    </g>
  </g>
  <g transform="translate(30,705)">
    <g class="primitive">
      <text text-anchor="middle" dy="-0.25em">O10-252<tspan x="0" dy="1.2em">30,30</tspan></text>
    </g>
  </g>
  <g transform="translate(210,597.5)">
    <g class="primitive">
      <text text-anchor="middle" dy="-0.25em">O9-221<tspan x="0" dy="1.2em">79,79</tspan></text>
    </g>
  </g>
  <g transform="translate(30,785)">
    <g class="primitive">
      <text text-anchor="middle" dy="-0.25em">O8-380<tspan x="0" dy="1.2em">30,30</tspan></text>
    </g>
  </g>
  <g transform="translate(30,755)">
    <g class="primitive">
      <text text-anchor="middle" dy="-0.25em">O7-63<tspan x="0" dy="1.2em">30,30</tspan></text>
    </g>
  </g>
  <g transform="translate(490,386.51)">
    <g class="primitive">
      <text text-anchor="middle" dy="-0.25em">op1522<tspan x="0" dy="1.2em">106,106</tspan></text>
    </g>
  </g>
  <g transform="translate(110,750)">
    <g class="primitive">
      <text text-anchor="middle" dy="-0.25em">op1521<tspan x="0" dy="1.2em">41,41</tspan></text>
    </g>
  </g>
  <g transform="translate(190,597.5)">
    <g class="primitive">
      <text text-anchor="middle" dy="-0.25em">op1520<tspan x="0" dy="1.2em">79,79</tspan></text>
    </g>
  </g>
  <g transform="translate(390,675.52)">
    <g class="primitive">
      <text text-anchor="middle" dy="-0.25em">op1519<tspan x="0" dy="1.2em">94,94</tspan></text>
    </g>
  </g>
  <g transform="translate(30,775)">
    <g class="primitive">
      <text text-anchor="middle" dy="-0.85em">go<tspan x="0" dy="1.2em">2,586,513</tspan><tspan x="0" dy="1.2em">0,8</tspan></text>
    </g>
  </g>
  <g transform="translate(370,182.19)">
    <g class="primitive">
      <text text-anchor="middle" dy="-0.85em">carry<tspan x="0" dy="1.2em">1,6,539</tspan><tspan x="0" dy="1.2em">78,90</tspan></text>
    </g>
  </g>
  <g transform="translate(210,722.5)">
    <g class="primitive">
      <text text-anchor="middle" dy="-0.85em">go<tspan x="0" dy="1.2em">1,545,505</tspan><tspan x="0" dy="1.2em">57,61</tspan></text>
    </g>
  </g>
  <g transform="translate(310,658.12)">
    <g class="primitive">
      <text text-anchor="middle" dy="-0.85em">go<tspan x="0" dy="1.2em">4,277,252</tspan><tspan x="0" dy="1.2em">78,80</tspan></text>
    </g>
  </g>
  <g transform="translate(410,182.19)">
    <g class="primitive">
      <text text-anchor="middle" dy="-0.25em">op1514<tspan x="0" dy="1.2em">90,90</tspan></text>
    </g>
  </g>
  <g transform="translate(50,690)">
    <g class="primitive">
      <text text-anchor="middle" dy="-0.85em">collect<tspan x="0" dy="1.2em">4,4,349</tspan><tspan x="0" dy="1.2em">18,18</tspan></text>
    </g>
  </g>
  <g transform="translate(150,722.5)">
    <g class="primitive">
      <text text-anchor="middle" dy="-0.85em">collect<tspan x="0" dy="1.2em">1,3,270</tspan><tspan x="0" dy="1.2em">40,40</tspan></text>
    </g>
  </g>
  <g transform="translate(290,658.12)">
    <g class="primitive">
      <text text-anchor="middle" dy="-0.85em">deposit<tspan x="0" dy="1.2em">4,5,277</tspan><tspan x="0" dy="1.2em">78,78</tspan></text>
    </g>
  </g>
  <g transform="translate(30,695)">
    <g class="primitive">
      <text text-anchor="middle" dy="-0.85em">go<tspan x="0" dy="1.2em">4,338,349</tspan><tspan x="0" dy="1.2em">0,11</tspan></text>
    </g>
  </g>
  <g transform="translate(230,676.25)">
    <g class="primitive">
      <text text-anchor="middle" dy="-0.25em">O5-197<tspan x="0" dy="1.2em">57,57</tspan></text>
    </g>
  </g>
  <g transform="translate(270,658.12)">
    <g class="primitive">
      <text text-anchor="middle" dy="-0.85em">carry<tspan x="0" dy="1.2em">4,5,277</tspan><tspan x="0" dy="1.2em">57,78</tspan></text>
    </g>
  </g>
  <g transform="translate(10,745)">
    <g class="primitive">
      <text text-anchor="middle" dy="-0.25em">R3-216<tspan x="0" dy="1.2em">0,0</tspan></text>
    </g>
  </g>
  <g transform="translate(10,715)">
    <g class="primitive">
      <text text-anchor="middle" dy="-0.25em">R1-487<tspan x="0" dy="1.2em">30,30</tspan></text>
    </g>
  </g>
  <g transform="translate(110,730)">
    <g class="primitive">
      <text text-anchor="middle" dy="-0.25em">op1512<tspan x="0" dy="1.2em">38,38</tspan></text>
    </g>
  </g>
  <g transform="translate(90,770)">
    <g class="primitive">
      <text text-anchor="middle" dy="-0.85em">deposit<tspan x="0" dy="1.2em">2,2,196</tspan><tspan x="0" dy="1.2em">38,38</tspan></text>
    </g>
  </g>
  <g transform="translate(410,62.19)">
    <g class="primitive">
      <text text-anchor="middle" dy="-0.85em">go<tspan x="0" dy="1.2em">1,539,-1</tspan><tspan x="0" dy="1.2em">90,90</tspan></text>
    </g>
  </g>
  <g transform="translate(10,685)">
    <g class="primitive">
      <text text-anchor="middle" dy="-0.25em">O4-349<tspan x="0" dy="1.2em">18,18</tspan></text>
    </g>
  </g>
  <g transform="translate(10,765)">
    <g class="primitive">
      <text text-anchor="middle" dy="-0.25em">O2-513<tspan x="0" dy="1.2em">0,0</tspan></text>
    </g>
  </g>
  <g transform="translate(350,182.19)">
    <g class="primitive">
      <text text-anchor="middle" dy="-0.85em">collect<tspan x="0" dy="1.2em">1,6,509</tspan><tspan x="0" dy="1.2em">78,78</tspan></text>
    </g>
  </g>
  <g transform="translate(50,770)">
    <g class="primitive">
      <text text-anchor="middle" dy="-0.85em">collect<tspan x="0" dy="1.2em">2,2,513</tspan><tspan x="0" dy="1.2em">8,8</tspan></text>
    </g>
  </g>
  <g transform="translate(310,148.12)">
    <g class="primitive">
      <text text-anchor="middle" dy="-0.25em">op1510<tspan x="0" dy="1.2em">78,78</tspan></text>
    </g>
  </g>
  <g transform="translate(90,690)">
    <g class="primitive">
      <text text-anchor="middle" dy="-0.85em">deposit<tspan x="0" dy="1.2em">4,4,119</tspan><tspan x="0" dy="1.2em">39,39</tspan></text>
    </g>
  </g>
  <g transform="translate(30,745)">
    <g class="primitive">
      <text text-anchor="middle" dy="-0.85em">go<tspan x="0" dy="1.2em">3,216,63</tspan><tspan x="0" dy="1.2em">0,19</tspan></text>
    </g>
  </g>
  <g transform="translate(110,770)">
    <g class="primitive">
      <text text-anchor="middle" dy="-0.85em">go<tspan x="0" dy="1.2em">2,196,380</tspan><tspan x="0" dy="1.2em">38,48</tspan></text>
    </g>
  </g>
  <g transform="translate(190,722.5)">
    <g class="primitive">
      <text text-anchor="middle" dy="-0.85em">deposit<tspan x="0" dy="1.2em">1,3,545</tspan><tspan x="0" dy="1.2em">57,57</tspan></text>
    </g>
  </g>
  <g transform="translate(10,695)">
    <g class="primitive">
      <text text-anchor="middle" dy="-0.25em">R4-338<tspan x="0" dy="1.2em">0,0</tspan></text>
    </g>
  </g>
  <g transform="translate(70,770)">
    <g class="primitive">
      <text text-anchor="middle" dy="-0.85em">carry<tspan x="0" dy="1.2em">2,2,196</tspan><tspan x="0" dy="1.2em">8,38</tspan></text>
    </g>
  </g>
  <g transform="translate(110,640)">
    <g class="primitive">
      <text text-anchor="middle" dy="-0.85em">go<tspan x="0" dy="1.2em">4,119,197</tspan><tspan x="0" dy="1.2em">39,42</tspan></text>
    </g>
  </g>
  <g transform="translate(10,775)">
    <g class="primitive">
      <text text-anchor="middle" dy="-0.25em">R2-586<tspan x="0" dy="1.2em">0,0</tspan></text>
    </g>
  </g>
  <g transform="translate(250,658.12)">
    <g class="primitive">
      <text text-anchor="middle" dy="-0.85em">collect<tspan x="0" dy="1.2em">4,5,197</tspan><tspan x="0" dy="1.2em">57,57</tspan></text>
    </g>
  </g>
  <g transform="translate(130,730)">
    <g class="primitive">
      <text text-anchor="middle" dy="-0.25em">O3-270<tspan x="0" dy="1.2em">38,38</tspan></text>
    </g>
  </g>
  <g transform="translate(70,690)">
    <g class="primitive">
      <text text-anchor="middle" dy="-0.85em">carry<tspan x="0" dy="1.2em">4,4,119</tspan><tspan x="0" dy="1.2em">18,39</tspan></text>
    </g>
  </g>
  <g transform="translate(390,182.19)">
    <g class="primitive">
      <text text-anchor="middle" dy="-0.85em">deposit<tspan x="0" dy="1.2em">1,6,539</tspan><tspan x="0" dy="1.2em">90,90</tspan></text>
    </g>
  </g>
  <g transform="translate(170,722.5)">
    <g class="primitive">
      <text text-anchor="middle" dy="-0.85em">carry<tspan x="0" dy="1.2em">1,3,545</tspan><tspan x="0" dy="1.2em">40,57</tspan></text>
    </g>
  </g>
  <g transform="translate(30,715)">
    <g class="primitive">
      <text text-anchor="middle" dy="-0.85em">go<tspan x="0" dy="1.2em">1,487,270</tspan><tspan x="0" dy="1.2em">30,40</tspan></text>
    </g>
  </g>
  <g transform="translate(330,148.12)">
    <g class="primitive">
      <text text-anchor="middle" dy="-0.25em">O6-509<tspan x="0" dy="1.2em">78,78</tspan></text>
    </g>
  </g>
  <g transform="translate(210,676.25)">
    <g class="primitive">
      <text text-anchor="middle" dy="-0.25em">op1511<tspan x="0" dy="1.2em">57,57</tspan></text>
    </g>
  </g>
</g>
</svg>
