<?xml version="1.0" encoding="UTF-8"?>
<svg xmlns="http://www.w3.org/2000/svg"
     xmlns:xlink="http://www.w3.org/1999/xlink"
     xmlns:gadfly="http://www.gadflyjl.org/ns"
     version="1.2"
     width="420mm" height="750mm" viewBox="0 0 420 750"
     stroke="none"
     fill="#000000"
     stroke-width="0.3"
     font-size="3.88"
>
<defs>
  <marker id="arrow" markerWidth="15" markerHeight="7" refX="5" refY="3.5" orient="auto" markerUnits="strokeWidth">
    <path d="M0,0 L15,3.5 L0,7 z" stroke="context-stroke" fill="context-stroke"/>
  </marker>
</defs>
<g stroke="#000000" id="img-ac75bc15-1">
  <g transform="translate(20,745)">
    <path fill="none" d="M-5.6,0 L 5.6 0" class="primitive"/>
  </g>
  <g transform="translate(20,695)">
    <path fill="none" d="M-5.6,0 L 5.6 0" class="primitive"/>
  </g>
  <g transform="translate(20,665)">
    <path fill="none" d="M-5.6,0 L 5.6 0" class="primitive"/>
  </g>
  <g transform="translate(380,625.31)">
    <path fill="none" d="M-5.6,0 L 5.6 0" class="primitive"/>
  </g>
  <g transform="translate(380,475.31)">
    <path fill="none" d="M-9.85,147.8 L 9.85 -147.8" class="primitive"/>
  </g>
  <g transform="translate(360,625.31)">
    <path fill="none" d="M-5.6,0 L 5.6 0" class="primitive"/>
  </g>
  <g transform="translate(340,625.31)">
    <path fill="none" d="M-5.6,0 L 5.6 0" class="primitive"/>
  </g>
  <g transform="translate(180,644.38)">
    <path fill="none" d="M-45.71,5.14 L 45.71 -5.14" class="primitive"/>
  </g>
  <g transform="translate(120,695)">
    <path fill="none" d="M-9.51,42.81 L 9.51 -42.81" class="primitive"/>
  </g>
  <g transform="translate(120,740)">
    <path fill="none" d="M-5.6,0 L 5.6 0" class="primitive"/>
  </g>
  <g transform="translate(100,740)">
    <path fill="none" d="M-5.6,0 L 5.6 0" class="primitive"/>
  </g>
  <g transform="translate(80,740)">
    <path fill="none" d="M-5.6,0 L 5.6 0" class="primitive"/>
  </g>
  <g transform="translate(200,681.88)">
    <path fill="none" d="M-7.08,3.98 L 7.08 -3.98" class="primitive"/>
  </g>
  <g transform="translate(180,687.5)">
    <path fill="none" d="M-5.6,0 L 5.6 0" class="primitive"/>
  </g>
  <g transform="translate(180,657.5)">
    <path fill="none" d="M-9.28,27.83 L 9.28 -27.83" class="primitive"/>
  </g>
  <g transform="translate(160,687.5)">
    <path fill="none" d="M-5.6,0 L 5.6 0" class="primitive"/>
  </g>
  <g transform="translate(140,687.5)">
    <path fill="none" d="M-5.6,0 L 5.6 0" class="primitive"/>
  </g>
  <g transform="translate(320,201.41)">
    <path fill="none" d="M-27.12,15.68 L 27.12 -15.68" class="primitive"/>
  </g>
  <g transform="translate(280,473.75)">
    <path fill="none" d="M-9.91,252.8 L 9.91 -252.8" class="primitive"/>
  </g>
  <g transform="translate(280,705)">
    <path fill="none" d="M-9.09,21.6 L 9.09 -21.6" class="primitive"/>
  </g>
  <g transform="translate(260,728.75)">
    <path fill="none" d="M-5.6,0 L 5.6 0" class="primitive"/>
  </g>
  <g transform="translate(240,728.75)">
    <path fill="none" d="M-5.6,0 L 5.6 0" class="primitive"/>
  </g>
  <g transform="translate(260,596.25)">
    <path fill="none" d="M-9.73,77.8 L 9.73 -77.8" class="primitive"/>
  </g>
  <g transform="translate(270,678.75)">
    <path fill="none" d="M-15.73,-1.97 L 15.73 1.97" class="primitive"/>
  </g>
  <g transform="translate(240,676.25)">
    <path fill="none" d="M-5.6,0 L 5.6 0" class="primitive"/>
  </g>
  <g transform="translate(220,676.25)">
    <path fill="none" d="M-5.6,0 L 5.6 0" class="primitive"/>
  </g>
  <g transform="translate(280,558.75)">
    <path fill="none" d="M-9.73,77.8 L 9.73 -77.8" class="primitive"/>
  </g>
  <g transform="translate(280,660)">
    <path fill="none" d="M-8.99,-19.11 L 8.99 19.11" class="primitive"/>
  </g>
  <g transform="translate(260,638.75)">
    <path fill="none" d="M-5.6,0 L 5.6 0" class="primitive"/>
  </g>
  <g transform="translate(240,638.75)">
    <path fill="none" d="M-5.6,0 L 5.6 0" class="primitive"/>
  </g>
  <g transform="translate(320,653.28)">
    <path fill="none" d="M-9.23,25.8 L 9.23 -25.8" class="primitive"/>
  </g>
  <g transform="translate(190,734.38)">
    <path fill="none" d="M-35.76,5.03 L 35.76 -5.03" class="primitive"/>
  </g>
  <g transform="translate(120,670.62)">
    <path fill="none" d="M-85.63,-5.35 L 85.63 5.35" class="primitive"/>
  </g>
  <g transform="translate(220,633.12)">
    <path fill="none" d="M-7.08,-3.98 L 7.08 3.98" class="primitive"/>
  </g>
  <g transform="translate(80,691.25)">
    <path fill="none" d="M-45.65,3.42 L 45.65 -3.42" class="primitive"/>
  </g>
  <g transform="translate(50,742.5)">
    <path fill="none" d="M-15.73,1.97 L 15.73 -1.97" class="primitive"/>
  </g>
  <g transform="translate(140,740)">
    <path fill="none" d="M-5.6,0 L 5.6 0" class="primitive"/>
  </g>
  <g transform="translate(200,627.5)">
    <path fill="none" d="M-5.6,0 L 5.6 0" class="primitive"/>
  </g>
  <g transform="translate(300,681.25)">
    <path fill="none" d="M-5.6,0 L 5.6 0" class="primitive"/>
  </g>
  <g transform="translate(100,721.25)">
    <path fill="none" d="M-45.65,3.42 L 45.65 -3.42" class="primitive"/>
  </g>
  <g transform="translate(60,737.5)">
    <path fill="none" d="M-6.06,-1.52 L 6.06 1.52" class="primitive"/>
  </g>
  <g transform="translate(40,712.5)">
    <path fill="none" d="M-6.06,1.52 L 6.06 -1.52" class="primitive"/>
  </g>
  <g transform="translate(380,184.06)">
    <path fill="none" d="M-5.6,0 L 5.6 0" class="primitive"/>
  </g>
  <g transform="translate(220,723.12)">
    <path fill="none" d="M-7.08,-3.98 L 7.08 3.98" class="primitive"/>
  </g>
  <g transform="translate(320,597.34)">
    <path fill="none" d="M-9.23,-25.8 L 9.23 25.8" class="primitive"/>
  </g>
  <g transform="translate(60,600)">
    <path fill="none" d="M-5.6,0 L 5.6 0" class="primitive"/>
  </g>
  <g transform="translate(160,717.5)">
    <path fill="none" d="M-5.6,0 L 5.6 0" class="primitive"/>
  </g>
  <g transform="translate(300,569.38)">
    <path fill="none" d="M-5.6,0 L 5.6 0" class="primitive"/>
  </g>
  <g transform="translate(300,359.38)">
    <path fill="none" d="M-9.9,207.8 L 9.9 -207.8" class="primitive"/>
  </g>
  <g transform="translate(40,602.5)">
    <path fill="none" d="M-6.06,1.52 L 6.06 -1.52" class="primitive"/>
  </g>
  <g transform="translate(240,579.06)">
    <path fill="none" d="M-7.98,7.73 L 7.98 -7.73" class="primitive"/>
  </g>
  <g transform="translate(280,569.38)">
    <path fill="none" d="M-5.6,0 L 5.6 0" class="primitive"/>
  </g>
  <g transform="translate(20,735)">
    <path fill="none" d="M-5.6,0 L 5.6 0" class="primitive"/>
  </g>
  <g transform="translate(20,725)">
    <path fill="none" d="M-5.6,0 L 5.6 0" class="primitive"/>
  </g>
  <g transform="translate(120,710)">
    <path fill="none" d="M-5.6,0 L 5.6 0" class="primitive"/>
  </g>
  <g transform="translate(100,710)">
    <path fill="none" d="M-5.6,0 L 5.6 0" class="primitive"/>
  </g>
  <g transform="translate(100,695)">
    <path fill="none" d="M-8.61,12.91 L 8.61 -12.91" class="primitive"/>
  </g>
  <g transform="translate(30,597.5)">
    <path fill="none" d="M-15.73,-1.97 L 15.73 1.97" class="primitive"/>
  </g>
  <g transform="translate(30,707.5)">
    <path fill="none" d="M-15.73,-1.97 L 15.73 1.97" class="primitive"/>
  </g>
  <g transform="translate(360,184.06)">
    <path fill="none" d="M-5.6,0 L 5.6 0" class="primitive"/>
  </g>
  <g transform="translate(60,710)">
    <path fill="none" d="M-5.6,0 L 5.6 0" class="primitive"/>
  </g>
  <g transform="translate(320,149.38)">
    <path fill="none" d="M-5.6,0 L 5.6 0" class="primitive"/>
  </g>
  <g transform="translate(100,575)">
    <path fill="none" d="M-9.14,22.84 L 9.14 -22.84" class="primitive"/>
  </g>
  <g transform="translate(150,594.38)">
    <path fill="none" d="M-55.68,5.22 L 55.68 -5.22" class="primitive"/>
  </g>
  <g transform="translate(40,735)">
    <path fill="none" d="M-5.6,0 L 5.6 0" class="primitive"/>
  </g>
  <g transform="translate(120,683.75)">
    <path fill="none" d="M-6.48,-2.43 L 6.48 2.43" class="primitive"/>
  </g>
  <g transform="translate(200,717.5)">
    <path fill="none" d="M-5.6,0 L 5.6 0" class="primitive"/>
  </g>
  <g transform="translate(200,653.12)">
    <path fill="none" d="M-9.66,62.18 L 9.66 -62.18" class="primitive"/>
  </g>
  <g transform="translate(20,605)">
    <path fill="none" d="M-5.6,0 L 5.6 0" class="primitive"/>
  </g>
  <g transform="translate(80,710)">
    <path fill="none" d="M-5.6,0 L 5.6 0" class="primitive"/>
  </g>
  <g transform="translate(180,559.69)">
    <path fill="none" d="M-65.76,-9.1 L 65.76 9.1" class="primitive"/>
  </g>
  <g transform="translate(20,715)">
    <path fill="none" d="M-5.6,0 L 5.6 0" class="primitive"/>
  </g>
  <g transform="translate(260,569.38)">
    <path fill="none" d="M-5.6,0 L 5.6 0" class="primitive"/>
  </g>
  <g transform="translate(140,713.75)">
    <path fill="none" d="M-6.48,-2.43 L 6.48 2.43" class="primitive"/>
  </g>
  <g transform="translate(80,600)">
    <path fill="none" d="M-5.6,0 L 5.6 0" class="primitive"/>
  </g>
  <g transform="translate(400,184.06)">
    <path fill="none" d="M-5.6,0 L 5.6 0" class="primitive"/>
  </g>
  <g transform="translate(400,124.06)">
    <path fill="none" d="M-9.63,57.81 L 9.63 -57.81" class="primitive"/>
  </g>
  <g transform="translate(180,717.5)">
    <path fill="none" d="M-5.6,0 L 5.6 0" class="primitive"/>
  </g>
  <g transform="translate(40,725)">
    <path fill="none" d="M-5.6,0 L 5.6 0" class="primitive"/>
  </g>
  <g transform="translate(340,166.72)">
    <path fill="none" d="M-8.78,-15.23 L 8.78 15.23" class="primitive"/>
  </g>
  <g transform="translate(220,588.75)">
    <path fill="none" d="M-5.6,0 L 5.6 0" class="primitive"/>
  </g>
</g>
<g fill="#FF0000" id="img-ac75bc15-2">
  <g transform="translate(10,745)">
    <circle cx="0" cy="0" r="4" class="primitive"/>
  </g>
</g>
<g fill="#FF0000" id="img-ac75bc15-3">
  <g transform="translate(10,695)">
    <circle cx="0" cy="0" r="4" class="primitive"/>
  </g>
</g>
<g fill="#FF0000" id="img-ac75bc15-4">
  <g transform="translate(10,665)">
    <circle cx="0" cy="0" r="4" class="primitive"/>
  </g>
</g>
<g fill="#00FFFF" id="img-ac75bc15-5">
  <g transform="translate(390,625.31)">
    <circle cx="0" cy="0" r="4" class="primitive"/>
  </g>
</g>
<g fill="#00FFFF" id="img-ac75bc15-6">
  <g transform="translate(370,625.31)">
    <circle cx="0" cy="0" r="4" class="primitive"/>
  </g>
</g>
<g fill="#00FFFF" id="img-ac75bc15-7">
  <g transform="translate(350,625.31)">
    <circle cx="0" cy="0" r="4" class="primitive"/>
  </g>
</g>
<g fill="#00FFFF" id="img-ac75bc15-8">
  <g transform="translate(330,625.31)">
    <circle cx="0" cy="0" r="4" class="primitive"/>
  </g>
</g>
<g fill="#00FFFF" id="img-ac75bc15-9">
  <g transform="translate(130,650)">
    <circle cx="0" cy="0" r="4" class="primitive"/>
  </g>
</g>
<g fill="#00FFFF" id="img-ac75bc15-10">
  <g transform="translate(110,740)">
    <circle cx="0" cy="0" r="4" class="primitive"/>
  </g>
</g>
<g fill="#00FFFF" id="img-ac75bc15-11">
  <g transform="translate(90,740)">
    <circle cx="0" cy="0" r="4" class="primitive"/>
  </g>
</g>
<g fill="#00FFFF" id="img-ac75bc15-12">
  <g transform="translate(70,740)">
    <circle cx="0" cy="0" r="4" class="primitive"/>
  </g>
</g>
<g fill="#00FFFF" id="img-ac75bc15-13">
  <g transform="translate(190,687.5)">
    <circle cx="0" cy="0" r="4" class="primitive"/>
  </g>
</g>
<g fill="#00FFFF" id="img-ac75bc15-14">
  <g transform="translate(170,687.5)">
    <circle cx="0" cy="0" r="4" class="primitive"/>
  </g>
</g>
<g fill="#00FFFF" id="img-ac75bc15-15">
  <g transform="translate(150,687.5)">
    <circle cx="0" cy="0" r="4" class="primitive"/>
  </g>
</g>
<g fill="#00FFFF" id="img-ac75bc15-16">
  <g transform="translate(130,687.5)">
    <circle cx="0" cy="0" r="4" class="primitive"/>
  </g>
</g>
<g fill="#00FFFF" id="img-ac75bc15-17">
  <g transform="translate(290,218.75)">
    <circle cx="0" cy="0" r="4" class="primitive"/>
  </g>
</g>
<g fill="#00FFFF" id="img-ac75bc15-18">
  <g transform="translate(270,728.75)">
    <circle cx="0" cy="0" r="4" class="primitive"/>
  </g>
</g>
<g fill="#00FFFF" id="img-ac75bc15-19">
  <g transform="translate(250,728.75)">
    <circle cx="0" cy="0" r="4" class="primitive"/>
  </g>
</g>
<g fill="#00FFFF" id="img-ac75bc15-20">
  <g transform="translate(230,728.75)">
    <circle cx="0" cy="0" r="4" class="primitive"/>
  </g>
</g>
<g fill="#00FFFF" id="img-ac75bc15-21">
  <g transform="translate(270,516.25)">
    <circle cx="0" cy="0" r="4" class="primitive"/>
  </g>
</g>
<g fill="#00FFFF" id="img-ac75bc15-22">
  <g transform="translate(250,676.25)">
    <circle cx="0" cy="0" r="4" class="primitive"/>
  </g>
</g>
<g fill="#00FFFF" id="img-ac75bc15-23">
  <g transform="translate(230,676.25)">
    <circle cx="0" cy="0" r="4" class="primitive"/>
  </g>
</g>
<g fill="#00FFFF" id="img-ac75bc15-24">
  <g transform="translate(210,676.25)">
    <circle cx="0" cy="0" r="4" class="primitive"/>
  </g>
</g>
<g fill="#00FFFF" id="img-ac75bc15-25">
  <g transform="translate(290,478.75)">
    <circle cx="0" cy="0" r="4" class="primitive"/>
  </g>
</g>
<g fill="#00FFFF" id="img-ac75bc15-26">
  <g transform="translate(270,638.75)">
    <circle cx="0" cy="0" r="4" class="primitive"/>
  </g>
</g>
<g fill="#00FFFF" id="img-ac75bc15-27">
  <g transform="translate(250,638.75)">
    <circle cx="0" cy="0" r="4" class="primitive"/>
  </g>
</g>
<g fill="#00FFFF" id="img-ac75bc15-28">
  <g transform="translate(230,638.75)">
    <circle cx="0" cy="0" r="4" class="primitive"/>
  </g>
</g>
<g fill="#FFA500" id="img-ac75bc15-29">
  <g transform="translate(310,681.25)">
    <circle cx="0" cy="0" r="4" class="primitive"/>
  </g>
</g>
<g fill="#FFA500" id="img-ac75bc15-30">
  <g transform="translate(150,740)">
    <circle cx="0" cy="0" r="4" class="primitive"/>
  </g>
</g>
<g fill="#FFA500" id="img-ac75bc15-31">
  <g transform="translate(30,665)">
    <circle cx="0" cy="0" r="4" class="primitive"/>
  </g>
</g>
<g fill="#FFA500" id="img-ac75bc15-32">
  <g transform="translate(210,627.5)">
    <circle cx="0" cy="0" r="4" class="primitive"/>
  </g>
</g>
<g fill="#FFA500" id="img-ac75bc15-33">
  <g transform="translate(30,695)">
    <circle cx="0" cy="0" r="4" class="primitive"/>
  </g>
</g>
<g fill="#FFA500" id="img-ac75bc15-34">
  <g transform="translate(30,745)">
    <circle cx="0" cy="0" r="4" class="primitive"/>
  </g>
</g>
<g fill="#FF0000" id="img-ac75bc15-35">
  <g transform="translate(390,325.31)">
    <circle cx="0" cy="0" r="4" class="primitive"/>
  </g>
</g>
<g fill="#FF0000" id="img-ac75bc15-36">
  <g transform="translate(130,740)">
    <circle cx="0" cy="0" r="4" class="primitive"/>
  </g>
</g>
<g fill="#FF0000" id="img-ac75bc15-37">
  <g transform="translate(190,627.5)">
    <circle cx="0" cy="0" r="4" class="primitive"/>
  </g>
</g>
<g fill="#FF0000" id="img-ac75bc15-38">
  <g transform="translate(290,681.25)">
    <circle cx="0" cy="0" r="4" class="primitive"/>
  </g>
</g>
<g fill="#00FFFF" id="img-ac75bc15-39">
  <g transform="translate(50,725)">
    <circle cx="0" cy="0" r="4" class="primitive"/>
  </g>
</g>
<g fill="#00FFFF" id="img-ac75bc15-40">
  <g transform="translate(50,735)">
    <circle cx="0" cy="0" r="4" class="primitive"/>
  </g>
</g>
<g fill="#00FFFF" id="img-ac75bc15-41">
  <g transform="translate(30,715)">
    <circle cx="0" cy="0" r="4" class="primitive"/>
  </g>
</g>
<g fill="#00FFFF" id="img-ac75bc15-42">
  <g transform="translate(370,184.06)">
    <circle cx="0" cy="0" r="4" class="primitive"/>
  </g>
</g>
<g fill="#00FFFF" id="img-ac75bc15-43">
  <g transform="translate(210,717.5)">
    <circle cx="0" cy="0" r="4" class="primitive"/>
  </g>
</g>
<g fill="#00FFFF" id="img-ac75bc15-44">
  <g transform="translate(310,569.38)">
    <circle cx="0" cy="0" r="4" class="primitive"/>
  </g>
</g>
<g fill="#FF0000" id="img-ac75bc15-45">
  <g transform="translate(410,184.06)">
    <circle cx="0" cy="0" r="4" class="primitive"/>
  </g>
</g>
<g fill="#00FFFF" id="img-ac75bc15-46">
  <g transform="translate(50,600)">
    <circle cx="0" cy="0" r="4" class="primitive"/>
  </g>
</g>
<g fill="#00FFFF" id="img-ac75bc15-47">
  <g transform="translate(150,717.5)">
    <circle cx="0" cy="0" r="4" class="primitive"/>
  </g>
</g>
<g fill="#00FFFF" id="img-ac75bc15-48">
  <g transform="translate(290,569.38)">
    <circle cx="0" cy="0" r="4" class="primitive"/>
  </g>
</g>
<g fill="#00FFFF" id="img-ac75bc15-49">
  <g transform="translate(30,605)">
    <circle cx="0" cy="0" r="4" class="primitive"/>
  </g>
</g>
<g fill="#FFA500" id="img-ac75bc15-50">
  <g transform="translate(230,588.75)">
    <circle cx="0" cy="0" r="4" class="primitive"/>
  </g>
</g>
<g fill="#00FFFF" id="img-ac75bc15-51">
  <g transform="translate(270,569.38)">
    <circle cx="0" cy="0" r="4" class="primitive"/>
  </g>
</g>
<g fill="#00FF00" id="img-ac75bc15-52">
  <g transform="translate(10,735)">
    <circle cx="0" cy="0" r="4" class="primitive"/>
  </g>
</g>
<g fill="#00FF00" id="img-ac75bc15-53">
  <g transform="translate(10,725)">
    <circle cx="0" cy="0" r="4" class="primitive"/>
  </g>
</g>
<g fill="#FF0000" id="img-ac75bc15-54">
  <g transform="translate(110,710)">
    <circle cx="0" cy="0" r="4" class="primitive"/>
  </g>
</g>
<g fill="#00FFFF" id="img-ac75bc15-55">
  <g transform="translate(90,710)">
    <circle cx="0" cy="0" r="4" class="primitive"/>
  </g>
</g>
<g fill="#00FFFF" id="img-ac75bc15-56">
  <g transform="translate(410,64.06)">
    <circle cx="0" cy="0" r="4" class="primitive"/>
  </g>
</g>
<g fill="#FFA500" id="img-ac75bc15-57">
  <g transform="translate(10,595)">
    <circle cx="0" cy="0" r="4" class="primitive"/>
  </g>
</g>
<g fill="#FFA500" id="img-ac75bc15-58">
  <g transform="translate(10,705)">
    <circle cx="0" cy="0" r="4" class="primitive"/>
  </g>
</g>
<g fill="#00FFFF" id="img-ac75bc15-59">
  <g transform="translate(350,184.06)">
    <circle cx="0" cy="0" r="4" class="primitive"/>
  </g>
</g>
<g fill="#00FFFF" id="img-ac75bc15-60">
  <g transform="translate(50,710)">
    <circle cx="0" cy="0" r="4" class="primitive"/>
  </g>
</g>
<g fill="#FF0000" id="img-ac75bc15-61">
  <g transform="translate(310,149.38)">
    <circle cx="0" cy="0" r="4" class="primitive"/>
  </g>
</g>
<g fill="#00FFFF" id="img-ac75bc15-62">
  <g transform="translate(90,600)">
    <circle cx="0" cy="0" r="4" class="primitive"/>
  </g>
</g>
<g fill="#00FFFF" id="img-ac75bc15-63">
  <g transform="translate(30,735)">
    <circle cx="0" cy="0" r="4" class="primitive"/>
  </g>
</g>
<g fill="#00FFFF" id="img-ac75bc15-64">
  <g transform="translate(110,680)">
    <circle cx="0" cy="0" r="4" class="primitive"/>
  </g>
</g>
<g fill="#00FFFF" id="img-ac75bc15-65">
  <g transform="translate(190,717.5)">
    <circle cx="0" cy="0" r="4" class="primitive"/>
  </g>
</g>
<g fill="#00FF00" id="img-ac75bc15-66">
  <g transform="translate(10,605)">
    <circle cx="0" cy="0" r="4" class="primitive"/>
  </g>
</g>
<g fill="#00FFFF" id="img-ac75bc15-67">
  <g transform="translate(70,710)">
    <circle cx="0" cy="0" r="4" class="primitive"/>
  </g>
</g>
<g fill="#00FFFF" id="img-ac75bc15-68">
  <g transform="translate(110,550)">
    <circle cx="0" cy="0" r="4" class="primitive"/>
  </g>
</g>
<g fill="#00FF00" id="img-ac75bc15-69">
  <g transform="translate(10,715)">
    <circle cx="0" cy="0" r="4" class="primitive"/>
  </g>
</g>
<g fill="#00FFFF" id="img-ac75bc15-70">
  <g transform="translate(250,569.38)">
    <circle cx="0" cy="0" r="4" class="primitive"/>
  </g>
</g>
<g fill="#FFA500" id="img-ac75bc15-71">
  <g transform="translate(130,710)">
    <circle cx="0" cy="0" r="4" class="primitive"/>
  </g>
</g>
<g fill="#00FFFF" id="img-ac75bc15-72">
  <g transform="translate(70,600)">
    <circle cx="0" cy="0" r="4" class="primitive"/>
  </g>
</g>
<g fill="#00FFFF" id="img-ac75bc15-73">
  <g transform="translate(390,184.06)">
    <circle cx="0" cy="0" r="4" class="primitive"/>
  </g>
</g>
<g fill="#00FFFF" id="img-ac75bc15-74">
  <g transform="translate(170,717.5)">
    <circle cx="0" cy="0" r="4" class="primitive"/>
  </g>
</g>
<g fill="#00FFFF" id="img-ac75bc15-75">
  <g transform="translate(30,725)">
    <circle cx="0" cy="0" r="4" class="primitive"/>
  </g>
</g>
<g fill="#FFA500" id="img-ac75bc15-76">
  <g transform="translate(330,149.38)">
    <circle cx="0" cy="0" r="4" class="primitive"/>
  </g>
</g>
<g fill="#FF0000" id="img-ac75bc15-77">
  <g transform="translate(210,588.75)">
    <circle cx="0" cy="0" r="4" class="primitive"/>
  </g>
</g>
<g font-family="futura" font-size="3.53" stroke="#000000" id="img-ac75bc15-78">
  <g transform="translate(10,745)">
    <g class="primitive">
      <text text-anchor="middle" dy="-0.25em">op158<tspan x="0" dy="1.2em">30,30</tspan></text>
    </g>
  </g>
  <g transform="translate(10,695)">
    <g class="primitive">
      <text text-anchor="middle" dy="-0.25em">op157<tspan x="0" dy="1.2em">30,30</tspan></text>
    </g>
  </g>
  <g transform="translate(10,665)">
    <g class="primitive">
      <text text-anchor="middle" dy="-0.25em">op156<tspan x="0" dy="1.2em">30,30</tspan></text>
    </g>
  </g>
  <g transform="translate(390,625.31)">
    <g class="primitive">
      <text text-anchor="middle" dy="-0.85em">go<tspan x="0" dy="1.2em">4,247,-1</tspan><tspan x="0" dy="1.2em">108,108</tspan></text>
    </g>
  </g>
  <g transform="translate(370,625.31)">
    <g class="primitive">
      <text text-anchor="middle" dy="-0.85em">deposit<tspan x="0" dy="1.2em">4,12,247</tspan><tspan x="0" dy="1.2em">108,108</tspan></text>
    </g>
  </g>
  <g transform="translate(350,625.31)">
    <g class="primitive">
      <text text-anchor="middle" dy="-0.85em">carry<tspan x="0" dy="1.2em">4,12,247</tspan><tspan x="0" dy="1.2em">96,108</tspan></text>
    </g>
  </g>
  <g transform="translate(330,625.31)">
    <g class="primitive">
      <text text-anchor="middle" dy="-0.85em">collect<tspan x="0" dy="1.2em">4,12,355</tspan><tspan x="0" dy="1.2em">96,96</tspan></text>
    </g>
  </g>
  <g transform="translate(130,650)">
    <g class="primitive">
      <text text-anchor="middle" dy="-0.85em">go<tspan x="0" dy="1.2em">3,74,221</tspan><tspan x="0" dy="1.2em">55,81</tspan></text>
    </g>
  </g>
  <g transform="translate(110,740)">
    <g class="primitive">
      <text text-anchor="middle" dy="-0.85em">deposit<tspan x="0" dy="1.2em">3,7,74</tspan><tspan x="0" dy="1.2em">55,55</tspan></text>
    </g>
  </g>
  <g transform="translate(90,740)">
    <g class="primitive">
      <text text-anchor="middle" dy="-0.85em">carry<tspan x="0" dy="1.2em">3,7,74</tspan><tspan x="0" dy="1.2em">44,55</tspan></text>
    </g>
  </g>
  <g transform="translate(70,740)">
    <g class="primitive">
      <text text-anchor="middle" dy="-0.85em">collect<tspan x="0" dy="1.2em">3,7,63</tspan><tspan x="0" dy="1.2em">44,44</tspan></text>
    </g>
  </g>
  <g transform="translate(190,687.5)">
    <g class="primitive">
      <text text-anchor="middle" dy="-0.85em">go<tspan x="0" dy="1.2em">2,94,252</tspan><tspan x="0" dy="1.2em">79,86</tspan></text>
    </g>
  </g>
  <g transform="translate(170,687.5)">
    <g class="primitive">
      <text text-anchor="middle" dy="-0.85em">deposit<tspan x="0" dy="1.2em">2,8,94</tspan><tspan x="0" dy="1.2em">79,79</tspan></text>
    </g>
  </g>
  <g transform="translate(150,687.5)">
    <g class="primitive">
      <text text-anchor="middle" dy="-0.85em">carry<tspan x="0" dy="1.2em">2,8,94</tspan><tspan x="0" dy="1.2em">48,79</tspan></text>
    </g>
  </g>
  <g transform="translate(130,687.5)">
    <g class="primitive">
      <text text-anchor="middle" dy="-0.85em">collect<tspan x="0" dy="1.2em">2,8,380</tspan><tspan x="0" dy="1.2em">48,48</tspan></text>
    </g>
  </g>
  <g transform="translate(290,218.75)">
    <g class="primitive">
      <text text-anchor="middle" dy="-0.85em">go<tspan x="0" dy="1.2em">1,510,509</tspan><tspan x="0" dy="1.2em">73,78</tspan></text>
    </g>
  </g>
  <g transform="translate(270,728.75)">
    <g class="primitive">
      <text text-anchor="middle" dy="-0.85em">deposit<tspan x="0" dy="1.2em">1,11,510</tspan><tspan x="0" dy="1.2em">73,73</tspan></text>
    </g>
  </g>
  <g transform="translate(250,728.75)">
    <g class="primitive">
      <text text-anchor="middle" dy="-0.85em">carry<tspan x="0" dy="1.2em">1,11,510</tspan><tspan x="0" dy="1.2em">62,73</tspan></text>
    </g>
  </g>
  <g transform="translate(230,728.75)">
    <g class="primitive">
      <text text-anchor="middle" dy="-0.85em">collect<tspan x="0" dy="1.2em">1,11,505</tspan><tspan x="0" dy="1.2em">62,62</tspan></text>
    </g>
  </g>
  <g transform="translate(270,516.25)">
    <g class="primitive">
      <text text-anchor="middle" dy="-0.85em">go<tspan x="0" dy="1.2em">2,374,-1</tspan><tspan x="0" dy="1.2em">91,91</tspan></text>
    </g>
  </g>
  <g transform="translate(250,676.25)">
    <g class="primitive">
      <text text-anchor="middle" dy="-0.85em">deposit<tspan x="0" dy="1.2em">2,10,374</tspan><tspan x="0" dy="1.2em">91,91</tspan></text>
    </g>
  </g>
  <g transform="translate(230,676.25)">
    <g class="primitive">
      <text text-anchor="middle" dy="-0.85em">carry<tspan x="0" dy="1.2em">2,10,374</tspan><tspan x="0" dy="1.2em">86,91</tspan></text>
    </g>
  </g>
  <g transform="translate(210,676.25)">
    <g class="primitive">
      <text text-anchor="middle" dy="-0.85em">collect<tspan x="0" dy="1.2em">2,10,252</tspan><tspan x="0" dy="1.2em">86,86</tspan></text>
    </g>
  </g>
  <g transform="translate(290,478.75)">
    <g class="primitive">
      <text text-anchor="middle" dy="-0.85em">go<tspan x="0" dy="1.2em">3,502,-1</tspan><tspan x="0" dy="1.2em">96,96</tspan></text>
    </g>
  </g>
  <g transform="translate(270,638.75)">
    <g class="primitive">
      <text text-anchor="middle" dy="-0.85em">deposit<tspan x="0" dy="1.2em">3,9,502</tspan><tspan x="0" dy="1.2em">96,96</tspan></text>
    </g>
  </g>
  <g transform="translate(250,638.75)">
    <g class="primitive">
      <text text-anchor="middle" dy="-0.85em">carry<tspan x="0" dy="1.2em">3,9,502</tspan><tspan x="0" dy="1.2em">81,96</tspan></text>
    </g>
  </g>
  <g transform="translate(230,638.75)">
    <g class="primitive">
      <text text-anchor="middle" dy="-0.85em">collect<tspan x="0" dy="1.2em">3,9,221</tspan><tspan x="0" dy="1.2em">81,81</tspan></text>
    </g>
  </g>
  <g transform="translate(310,681.25)">
    <g class="primitive">
      <text text-anchor="middle" dy="-0.25em">O12-355<tspan x="0" dy="1.2em">96,96</tspan></text>
    </g>
  </g>
  <g transform="translate(150,740)">
    <g class="primitive">
      <text text-anchor="middle" dy="-0.25em">O11-505<tspan x="0" dy="1.2em">55,55</tspan></text>
    </g>
  </g>
  <g transform="translate(30,665)">
    <g class="primitive">
      <text text-anchor="middle" dy="-0.25em">O10-252<tspan x="0" dy="1.2em">30,30</tspan></text>
    </g>
  </g>
  <g transform="translate(210,627.5)">
    <g class="primitive">
      <text text-anchor="middle" dy="-0.25em">O9-221<tspan x="0" dy="1.2em">79,79</tspan></text>
    </g>
  </g>
  <g transform="translate(30,695)">
    <g class="primitive">
      <text text-anchor="middle" dy="-0.25em">O8-380<tspan x="0" dy="1.2em">30,30</tspan></text>
    </g>
  </g>
  <g transform="translate(30,745)">
    <g class="primitive">
      <text text-anchor="middle" dy="-0.25em">O7-63<tspan x="0" dy="1.2em">30,30</tspan></text>
    </g>
  </g>
  <g transform="translate(390,325.31)">
    <g class="primitive">
      <text text-anchor="middle" dy="-0.25em">op155<tspan x="0" dy="1.2em">108,108</tspan></text>
    </g>
  </g>
  <g transform="translate(130,740)">
    <g class="primitive">
      <text text-anchor="middle" dy="-0.25em">op154<tspan x="0" dy="1.2em">55,55</tspan></text>
    </g>
  </g>
  <g transform="translate(190,627.5)">
    <g class="primitive">
      <text text-anchor="middle" dy="-0.25em">op153<tspan x="0" dy="1.2em">79,79</tspan></text>
    </g>
  </g>
  <g transform="translate(290,681.25)">
    <g class="primitive">
      <text text-anchor="middle" dy="-0.25em">op152<tspan x="0" dy="1.2em">96,96</tspan></text>
    </g>
  </g>
  <g transform="translate(50,725)">
    <g class="primitive">
      <text text-anchor="middle" dy="-0.85em">go<tspan x="0" dy="1.2em">1,509,270</tspan><tspan x="0" dy="1.2em">30,41</tspan></text>
    </g>
  </g>
  <g transform="translate(50,735)">
    <g class="primitive">
      <text text-anchor="middle" dy="-0.85em">go<tspan x="0" dy="1.2em">3,270,63</tspan><tspan x="0" dy="1.2em">30,44</tspan></text>
    </g>
  </g>
  <g transform="translate(30,715)">
    <g class="primitive">
      <text text-anchor="middle" dy="-0.85em">go<tspan x="0" dy="1.2em">2,586,513</tspan><tspan x="0" dy="1.2em">0,8</tspan></text>
    </g>
  </g>
  <g transform="translate(370,184.06)">
    <g class="primitive">
      <text text-anchor="middle" dy="-0.85em">carry<tspan x="0" dy="1.2em">1,6,539</tspan><tspan x="0" dy="1.2em">79,91</tspan></text>
    </g>
  </g>
  <g transform="translate(210,717.5)">
    <g class="primitive">
      <text text-anchor="middle" dy="-0.85em">go<tspan x="0" dy="1.2em">1,545,505</tspan><tspan x="0" dy="1.2em">58,62</tspan></text>
    </g>
  </g>
  <g transform="translate(310,569.38)">
    <g class="primitive">
      <text text-anchor="middle" dy="-0.85em">go<tspan x="0" dy="1.2em">4,277,355</tspan><tspan x="0" dy="1.2em">79,82</tspan></text>
    </g>
  </g>
  <g transform="translate(410,184.06)">
    <g class="primitive">
      <text text-anchor="middle" dy="-0.25em">op147<tspan x="0" dy="1.2em">91,91</tspan></text>
    </g>
  </g>
  <g transform="translate(50,600)">
    <g class="primitive">
      <text text-anchor="middle" dy="-0.85em">collect<tspan x="0" dy="1.2em">4,4,349</tspan><tspan x="0" dy="1.2em">18,18</tspan></text>
    </g>
  </g>
  <g transform="translate(150,717.5)">
    <g class="primitive">
      <text text-anchor="middle" dy="-0.85em">collect<tspan x="0" dy="1.2em">1,3,270</tspan><tspan x="0" dy="1.2em">41,41</tspan></text>
    </g>
  </g>
  <g transform="translate(290,569.38)">
    <g class="primitive">
      <text text-anchor="middle" dy="-0.85em">deposit<tspan x="0" dy="1.2em">4,5,277</tspan><tspan x="0" dy="1.2em">79,79</tspan></text>
    </g>
  </g>
  <g transform="translate(30,605)">
    <g class="primitive">
      <text text-anchor="middle" dy="-0.85em">go<tspan x="0" dy="1.2em">4,338,349</tspan><tspan x="0" dy="1.2em">0,11</tspan></text>
    </g>
  </g>
  <g transform="translate(230,588.75)">
    <g class="primitive">
      <text text-anchor="middle" dy="-0.25em">O5-197<tspan x="0" dy="1.2em">58,58</tspan></text>
    </g>
  </g>
  <g transform="translate(270,569.38)">
    <g class="primitive">
      <text text-anchor="middle" dy="-0.85em">carry<tspan x="0" dy="1.2em">4,5,277</tspan><tspan x="0" dy="1.2em">58,79</tspan></text>
    </g>
  </g>
  <g transform="translate(10,735)">
    <g class="primitive">
      <text text-anchor="middle" dy="-0.25em">R3-216<tspan x="0" dy="1.2em">0,0</tspan></text>
    </g>
  </g>
  <g transform="translate(10,725)">
    <g class="primitive">
      <text text-anchor="middle" dy="-0.25em">R1-271<tspan x="0" dy="1.2em">18,18</tspan></text>
    </g>
  </g>
  <g transform="translate(110,710)">
    <g class="primitive">
      <text text-anchor="middle" dy="-0.25em">op145<tspan x="0" dy="1.2em">38,38</tspan></text>
    </g>
  </g>
  <g transform="translate(90,710)">
    <g class="primitive">
      <text text-anchor="middle" dy="-0.85em">deposit<tspan x="0" dy="1.2em">2,2,196</tspan><tspan x="0" dy="1.2em">38,38</tspan></text>
    </g>
  </g>
  <g transform="translate(410,64.06)">
    <g class="primitive">
      <text text-anchor="middle" dy="-0.85em">go<tspan x="0" dy="1.2em">1,539,-1</tspan><tspan x="0" dy="1.2em">91,91</tspan></text>
    </g>
  </g>
  <g transform="translate(10,595)">
    <g class="primitive">
      <text text-anchor="middle" dy="-0.25em">O4-349<tspan x="0" dy="1.2em">18,18</tspan></text>
    </g>
  </g>
  <g transform="translate(10,705)">
    <g class="primitive">
      <text text-anchor="middle" dy="-0.25em">O2-513<tspan x="0" dy="1.2em">0,0</tspan></text>
    </g>
  </g>
  <g transform="translate(350,184.06)">
    <g class="primitive">
      <text text-anchor="middle" dy="-0.85em">collect<tspan x="0" dy="1.2em">1,6,509</tspan><tspan x="0" dy="1.2em">79,79</tspan></text>
    </g>
  </g>
  <g transform="translate(50,710)">
    <g class="primitive">
      <text text-anchor="middle" dy="-0.85em">collect<tspan x="0" dy="1.2em">2,2,513</tspan><tspan x="0" dy="1.2em">8,8</tspan></text>
    </g>
  </g>
  <g transform="translate(310,149.38)">
    <g class="primitive">
      <text text-anchor="middle" dy="-0.25em">op143<tspan x="0" dy="1.2em">79,79</tspan></text>
    </g>
  </g>
  <g transform="translate(90,600)">
    <g class="primitive">
      <text text-anchor="middle" dy="-0.85em">deposit<tspan x="0" dy="1.2em">4,4,119</tspan><tspan x="0" dy="1.2em">39,39</tspan></text>
    </g>
  </g>
  <g transform="translate(30,735)">
    <g class="primitive">
      <text text-anchor="middle" dy="-0.85em">go<tspan x="0" dy="1.2em">3,216,270</tspan><tspan x="0" dy="1.2em">0,30</tspan></text>
    </g>
  </g>
  <g transform="translate(110,680)">
    <g class="primitive">
      <text text-anchor="middle" dy="-0.85em">go<tspan x="0" dy="1.2em">2,196,380</tspan><tspan x="0" dy="1.2em">38,48</tspan></text>
    </g>
  </g>
  <g transform="translate(190,717.5)">
    <g class="primitive">
      <text text-anchor="middle" dy="-0.85em">deposit<tspan x="0" dy="1.2em">1,3,545</tspan><tspan x="0" dy="1.2em">58,58</tspan></text>
    </g>
  </g>
  <g transform="translate(10,605)">
    <g class="primitive">
      <text text-anchor="middle" dy="-0.25em">R4-338<tspan x="0" dy="1.2em">0,0</tspan></text>
    </g>
  </g>
  <g transform="translate(70,710)">
    <g class="primitive">
      <text text-anchor="middle" dy="-0.85em">carry<tspan x="0" dy="1.2em">2,2,196</tspan><tspan x="0" dy="1.2em">8,38</tspan></text>
    </g>
  </g>
  <g transform="translate(110,550)">
    <g class="primitive">
      <text text-anchor="middle" dy="-0.85em">go<tspan x="0" dy="1.2em">4,119,197</tspan><tspan x="0" dy="1.2em">39,42</tspan></text>
    </g>
  </g>
  <g transform="translate(10,715)">
    <g class="primitive">
      <text text-anchor="middle" dy="-0.25em">R2-586<tspan x="0" dy="1.2em">0,0</tspan></text>
    </g>
  </g>
  <g transform="translate(250,569.38)">
    <g class="primitive">
      <text text-anchor="middle" dy="-0.85em">collect<tspan x="0" dy="1.2em">4,5,197</tspan><tspan x="0" dy="1.2em">58,58</tspan></text>
    </g>
  </g>
  <g transform="translate(130,710)">
    <g class="primitive">
      <text text-anchor="middle" dy="-0.25em">O3-270<tspan x="0" dy="1.2em">38,38</tspan></text>
    </g>
  </g>
  <g transform="translate(70,600)">
    <g class="primitive">
      <text text-anchor="middle" dy="-0.85em">carry<tspan x="0" dy="1.2em">4,4,119</tspan><tspan x="0" dy="1.2em">18,39</tspan></text>
    </g>
  </g>
  <g transform="translate(390,184.06)">
    <g class="primitive">
      <text text-anchor="middle" dy="-0.85em">deposit<tspan x="0" dy="1.2em">1,6,539</tspan><tspan x="0" dy="1.2em">91,91</tspan></text>
    </g>
  </g>
  <g transform="translate(170,717.5)">
    <g class="primitive">
      <text text-anchor="middle" dy="-0.85em">carry<tspan x="0" dy="1.2em">1,3,545</tspan><tspan x="0" dy="1.2em">41,58</tspan></text>
    </g>
  </g>
  <g transform="translate(30,725)">
    <g class="primitive">
      <text text-anchor="middle" dy="-0.85em">go<tspan x="0" dy="1.2em">1,271,509</tspan><tspan x="0" dy="1.2em">18,30</tspan></text>
    </g>
  </g>
  <g transform="translate(330,149.38)">
    <g class="primitive">
      <text text-anchor="middle" dy="-0.25em">O6-509<tspan x="0" dy="1.2em">79,79</tspan></text>
    </g>
  </g>
  <g transform="translate(210,588.75)">
    <g class="primitive">
      <text text-anchor="middle" dy="-0.25em">op144<tspan x="0" dy="1.2em">58,58</tspan></text>
    </g>
  </g>
</g>
</svg>
